<?xml version="1.0" encoding="UTF-8" standalone="no"?>
<svg width="500px" height="500px" viewBox="0 0 500 500" version="1.1" xmlns="http://www.w3.org/2000/svg" xmlns:xlink="http://www.w3.org/1999/xlink">
    <!-- Generator: Sketch 39.1 (31720) - http://www.bohemiancoding.com/sketch -->
    <title>ATL</title>
    <desc>Created with Sketch.</desc>
    <defs></defs>
    <g id="NBA" stroke="none" stroke-width="1" fill="none" fill-rule="evenodd">
        <g id="ATL">
            <g id="Page-1">
                <path d="M248.963964,497.918919 C111.684685,497.918919 0,386.238739 0,248.963964 C0,111.684685 111.684685,0 248.963964,0 C386.243243,0 497.927928,111.684685 497.927928,248.963964 C497.927928,386.238739 386.243243,497.918919 248.963964,497.918919" id="Fill-1" fill="#E0393D"></path>
                <path d="M248.963964,486.43018 C118.018018,486.43018 11.4864865,379.903153 11.4864865,248.961712 C11.4864865,118.015766 118.018018,11.4887387 248.963964,11.4887387 C379.90991,11.4887387 486.436937,118.015766 486.436937,248.961712 C486.436937,379.903153 379.90991,486.43018 248.963964,486.43018" id="Fill-3" fill="#FEFEFE"></path>
                <path d="M248.963964,474.941441 C124.355856,474.941441 22.9774775,373.567568 22.9774775,248.963964 C22.9774775,124.351351 124.355856,22.972973 248.963964,22.972973 C373.572072,22.972973 474.95045,124.351351 474.95045,248.963964 C474.95045,373.567568 373.572072,474.941441 248.963964,474.941441" id="Fill-5" fill="#E0393D"></path>
                <polygon id="Fill-7" fill="#FEFEFE" points="168.295495 57.9851351 172.601802 67.6968468 160.381081 61.4941441 153.606306 64.4986486 167.754955 96.3995495 174.52973 93.395045 165.543243 73.1337838 178.011712 79.8905405 182.444144 89.886036 189.218919 86.8815315 175.07027 54.9806306"></polygon>
                <polygon id="Fill-9" fill="#FEFEFE" points="316.185135 52.6472973 310.977928 69.0211712 302.73018 66.3995495 307.932883 50.0256757 300.86982 47.7779279 295.662613 64.1518018 293.234685 63.3815315 294.351802 68.2824324 290.297748 81.0346847 297.360811 83.2824324 300.721171 72.7148649 308.973423 75.340991 305.613063 85.9040541 312.671622 88.1472973 323.248198 54.8905405"></polygon>
                <path d="M432.004054,149.854955 C430.670721,147.773874 429.341892,145.692793 428.013063,143.607207 C423.864414,145.922523 417.40045,148.814414 411.882432,150.278378 L408.873423,145.571171 L423.346396,136.314414 L419.355405,130.071171 L404.882432,139.327928 L403.504054,137.174775 L401.229279,141.665766 L389.954505,148.872973 L393.95,155.116216 L403.287838,149.143243 L406.76982,154.589189 C404.103153,157.737838 400.184234,161.12973 398.612162,162.409009 C399.940991,164.49009 401.274324,166.571171 402.603153,168.652252 C404.846396,166.823423 411.886937,160.697297 413.22027,157.12973 C419.17973,156.035135 427.170721,152.553153 432.004054,149.854955" id="Fill-11" fill="#FEFEFE"></path>
                <path d="M441.224775,170.439189 C435.22027,170.43018 431.332883,172.087838 426.296847,174.056306 L424.256306,192.25 C422.805856,192.686937 421.323874,193.065315 419.81036,193.358108 L416.823874,185.709459 L419.386937,184.709459 L416.688739,177.804054 L407.954505,181.213964 C407.954505,181.213964 415.436486,200.380631 415.760811,201.209459 C422.085135,201.092342 426.211261,199.34009 431.553604,197.254505 L433.278829,179.182432 C434.54009,178.804054 435.828378,178.47973 437.143694,178.222973 L440.157207,185.939189 L437.598649,186.939189 L440.292342,193.844595 L449.031081,190.434685 C449.031081,190.434685 441.72027,171.713964 441.224775,170.439189" id="Fill-13" fill="#FEFEFE"></path>
                <polygon id="Fill-15" fill="#FEFEFE" points="65.913964 150.492793 71.5851351 153.92973 75.7788288 147.001802 99.9635135 161.659459 103.805856 155.321622 79.6211712 140.668468 83.8148649 133.740541 78.1481982 130.303604"></polygon>
                <polygon id="Fill-17" fill="#FEFEFE" points="194.002252 48.5252252 195.47973 54.9891892 203.371622 53.1873874 209.668919 80.754955 216.894144 79.1063063 210.596847 51.5342342 218.488739 49.7324324 217.011261 43.2684685"></polygon>
                <polygon id="Fill-19" fill="#FEFEFE" points="95.127027 109.63964 90.145045 115.121622 115.969369 138.594595 128.036937 125.310811 123.131532 120.851351 116.045946 128.648649"></polygon>
                <path d="M59.6247748,181.626126 L61.377027,176.783784 C65.0662162,177.009009 68.6292793,177.666667 71.9581081,178.761261 L69.0211712,186.878378 C65.7599099,185.59009 62.6022523,183.81982 59.6247748,181.626126 L59.6247748,181.626126 Z M91.0797297,177.788288 L75.1427928,172.036036 C69.5527027,170.076577 63.2959459,169.337838 56.813964,169.914414 C56.7554054,170.085586 51.9490991,183.355856 51.7238739,183.981982 C56.1518018,188.391892 61.2013514,191.725225 66.5076577,193.81982 L65.6247748,196.256757 L70.5932432,195.328829 L83.0842342,199.864865 L85.6112613,192.896396 L75.2509009,189.144144 L78.1968468,181.004505 L88.5572072,184.752252 L91.0797297,177.788288 Z" id="Fill-21" fill="#FEFEFE"></path>
                <path d="M347.427477,73.9027027 L351.877928,76.4927928 C350.99955,80.0828829 349.715766,83.4702703 348.04009,86.5468468 L340.580631,82.209009 C342.431982,79.2315315 344.738288,76.4432432 347.427477,73.9027027 L347.427477,73.9027027 Z M345.585135,105.533333 L354.08964,90.8846847 C357.017568,85.736036 358.85991,79.709009 359.45,73.2315315 C359.296847,73.1369369 347.094144,66.0423423 346.522072,65.709009 C341.391441,69.2765766 337.206757,73.6504505 334.202252,78.4972973 L331.959009,77.190991 L331.986036,82.245045 L325.287838,93.727027 L331.697748,97.4567568 L337.238288,87.9342342 L344.72027,92.2855856 L339.17973,101.808108 L345.585135,105.533333 Z" id="Fill-23" fill="#FEFEFE"></path>
                <path d="M126.236036,89.7783784 L130.326126,86.6522523 C133.312613,88.8369369 135.952252,91.3144144 138.159459,94.0396396 L131.303604,99.2783784 C129.254054,96.4315315 127.555856,93.2333333 126.236036,89.7783784 L126.236036,89.7783784 Z M154.772072,103.557658 L144.474775,90.0981982 C140.835135,85.4315315 135.97027,81.427027 130.204505,78.409009 C130.06036,78.5171171 118.844144,87.0846847 118.312613,87.4900901 C119.654955,93.5936937 122.100901,99.1252252 125.434234,103.76036 L123.375676,105.332432 L128.051351,107.237838 L136.114414,117.805405 L142.001802,113.30991 L135.317117,104.553153 L142.195495,99.2963964 L148.88018,108.053153 L154.772072,103.557658 Z" id="Fill-25" fill="#FEFEFE"></path>
                <path d="M249.916216,58.6288288 L241.285586,58.7279279 C241.348649,55.2234234 241.898198,51.6423423 242.907207,48.0837838 L248.055856,48.0252252 C249.141441,51.5612613 249.772072,55.1288288 249.916216,58.6288288 L249.916216,58.6288288 Z M241.474775,76.3720721 L241.348649,65.3540541 L250.006306,65.254955 L250.132432,76.272973 L257.542342,76.1873874 L257.38018,62.8990991 L259.893694,58.5162162 L257.299099,58.5432432 C257.073874,52.845045 255.587387,46.9801802 252.884685,41.3405405 C252.218018,41.3495495 238.105405,41.5117117 237.925225,41.5117117 C235.245045,47.4396396 233.88018,53.5927928 233.884685,59.5162162 L234.064865,76.4576577 L241.474775,76.3720721 Z" id="Fill-27" fill="#FEFEFE"></path>
                <path d="M401.460811,108.203604 L390.19955,119.73964 C387.465315,122.627027 384.186036,125.136036 380.496847,127.199099 L378.276126,125.036937 C380.086937,121.262162 382.33018,117.865766 384.942793,114.973874 L396.415766,103.217117 L391.10045,98.0324324 C391.10045,98.0324324 379.771622,109.645045 379.767117,109.654054 C376.906757,112.392793 373.519369,114.762162 369.731081,116.699099 L367.514865,114.532432 C369.483333,110.793694 371.906757,107.455856 374.726577,104.64955 L385.978829,93.1045045 L380.677027,87.9288288 L368.929279,99.9738739 C364.794144,104.244144 361.532883,109.676577 359.384234,115.861261 C359.51036,115.987387 367.933784,124.203604 368.411261,124.672072 C369.429279,124.325225 370.42027,123.937838 371.393243,123.541441 C371.019369,124.523423 370.659009,125.523423 370.339189,126.55045 C370.816667,127.018919 379.24009,135.230631 379.366216,135.356757 C385.496847,133.059459 390.848198,129.658559 395.019369,125.424324 L406.767117,113.379279 L401.460811,108.203604 Z" id="Fill-29" fill="#FEFEFE"></path>
                <path d="M103.231532,342.416667 C97.4432432,344.024775 94.1459459,346.668919 89.8306306,349.912162 L92.7585586,367.988739 C91.4837838,368.79955 90.154955,369.560811 88.7810811,370.254505 L83.8396396,363.686937 L86.0378378,362.038288 L81.5873874,356.11036 L74.0873874,361.75 C74.0873874,361.75 86.4567568,378.191441 86.9882883,378.903153 C93.0513514,377.092342 96.5513514,374.290541 101.136937,370.844595 L97.9342342,352.970721 C99.0468468,352.272523 100.2,351.614865 101.398198,351.011261 L106.375676,357.632883 L104.181982,359.286036 L108.636937,365.209459 L116.132432,359.574324 C116.132432,359.574324 104.055856,343.511261 103.231532,342.416667" id="Fill-31" fill="#FEFEFE"></path>
                <polygon id="Fill-33" fill="#FEFEFE" points="182.706757 408.851802 180.544595 415.122072 188.202252 417.757207 178.986036 444.495946 185.995045 446.91036 195.206757 420.171622 202.85991 422.811261 205.022072 416.545495"></polygon>
                <path d="M51.5932432,286.25991 L58.9355856,284.71036 L60.3184685,291.268919 C57.9941441,292.35 55.6247748,293.282432 53.2373874,294.052703 L51.5932432,286.25991 Z M72.7644144,281.791441 L74.4581081,289.809459 C71.859009,290.178829 69.4130631,290.322973 66.868018,290.178829 L65.4220721,283.340991 L72.7644144,281.791441 Z M82.5121622,295.868018 C82.1923423,294.359009 77.7193694,273.165315 77.7193694,273.165315 L63.8905405,276.088739 L63.340991,273.480631 L59.4626126,277.021171 L43.5752252,280.377027 C43.5752252,280.377027 48.0346847,301.498649 48.35,302.980631 C53.9310811,301.868018 59.5121622,299.854505 64.831982,297.052703 C70.859009,298.021171 75.4265766,297.368018 82.5121622,295.868018 L82.5121622,295.868018 Z" id="Fill-35" fill="#FEFEFE"></path>
                <polygon id="Fill-37" fill="#FEFEFE" points="170.123874 410.28964 173.421171 404.537387 153.295045 392.996847 146.263514 405.253604 143.867117 403.87973 143.93018 409.325676 135.934685 423.267117 156.060811 434.807658 159.358108 429.05991 145.65991 421.19955 149.394144 414.695045 157.862613 419.550901 161.15991 413.798649 152.691441 408.942793 156.425676 402.433784"></polygon>
                <path d="M387.668919,390.513514 L389.52027,392.545045 L383.344595,398.162162 L368.786036,382.157658 L374.38964,377.063063 C375.11036,377.707207 375.849099,378.387387 376.596847,379.09009 L382.078829,374.103604 C379.272523,371.463964 376.583333,369.148649 374.650901,367.86036 C373.957207,368.486486 358.844595,382.243243 358.844595,382.243243 L382.326577,408.054054 L399.461712,392.463964 L393.150901,385.527027 L387.668919,390.513514 Z" id="Fill-39" fill="#FEFEFE"></path>
                <polygon id="Fill-41" fill="#FEFEFE" points="296.534234 414.772973 289.381081 416.718919 298.552252 450.39009 315.867568 445.678378 314.124324 439.277477 303.957658 442.047748"></polygon>
                <path d="M84.3684685,319.761712 L86.5216216,324.441892 C83.7333333,326.874324 80.7378378,328.901351 77.5936937,330.45991 L73.9900901,322.622072 C77.2153153,321.248198 80.7063063,320.293243 84.3684685,319.761712 L84.3684685,319.761712 Z M64.6612613,344.577027 L80.0486486,337.486937 C85.4045045,334.95991 90.381982,331.090541 94.5891892,326.131081 C94.5126126,325.964414 88.6207207,313.144595 88.3414414,312.536486 C82.0936937,312.504955 76.1567568,313.676126 70.909009,315.914865 L69.8234234,313.554505 L66.936036,317.703153 L54.854955,323.243694 L57.9495495,329.977928 L67.9630631,325.374324 L71.5756757,333.239189 L61.5666667,337.842793 L64.6612613,344.577027 Z" id="Fill-43" fill="#FEFEFE"></path>
                <path d="M218.672523,447.340991 L219.668018,439.904054 L226.312162,440.795946 C226.550901,443.35 226.640991,445.895045 226.568919,448.39955 L218.672523,447.340991 Z M221.546396,425.895045 L229.672523,426.985135 C229.15,429.557207 228.46982,431.908559 227.478829,434.25991 L220.550901,433.331982 L221.546396,425.895045 Z M238.077928,421.422072 C236.546396,421.219369 215.082432,418.340991 215.082432,418.340991 L213.208559,432.345495 L210.564414,431.994144 L212.604955,436.831982 L210.447297,452.926577 C210.447297,452.926577 231.843694,455.795946 233.343694,455.994144 C234.163514,450.363514 234.136486,444.431081 233.276126,438.480631 C236.204054,433.124775 237.118468,428.602252 238.077928,421.422072 L238.077928,421.422072 Z" id="Fill-45" fill="#FEFEFE"></path>
                <path d="M444.557207,294.774324 L437.232883,293.157207 L438.678829,286.612162 C441.241892,286.585135 443.782432,286.711261 446.277928,286.995045 L444.557207,294.774324 Z M423.431081,290.103153 L425.196847,282.098649 C427.719369,282.841892 430.003153,283.715766 432.264414,284.895946 L430.755405,291.724775 L423.431081,290.103153 Z M420.363514,273.256306 C420.03018,274.765315 415.359009,295.909459 415.359009,295.909459 L429.156306,298.959009 L428.57973,301.562613 L433.575225,299.936486 L449.431081,303.440991 C449.431081,303.440991 454.088739,282.364414 454.417568,280.886937 C448.872523,279.58964 442.958108,279.121171 436.958108,279.477027 C431.868018,276.107658 427.435586,274.819369 420.363514,273.256306 L420.363514,273.256306 Z" id="Fill-47" fill="#FEFEFE"></path>
                <path d="M261.115766,427.730631 L266.241892,427.230631 C267.629279,430.658559 268.561712,434.154054 269.003153,437.631532 L260.417568,438.473874 C260.178829,434.973874 260.417568,431.365766 261.115766,427.730631 L261.115766,427.730631 Z M278.111261,454.473874 L276.449099,437.613514 C275.813964,431.726126 273.786937,425.757658 270.480631,420.154054 C270.30045,420.172072 256.250901,421.545946 255.588739,421.613514 C253.512162,427.505405 252.674324,433.496396 253.070721,439.19009 L250.485135,439.442342 L253.462613,443.527928 L254.746396,456.757658 L262.12027,456.036937 L261.048198,445.072973 L269.665315,444.230631 L270.737387,455.194595 L278.111261,454.473874 Z" id="Fill-49" fill="#FEFEFE"></path>
                <polygon id="Fill-51" fill="#FEFEFE" points="388.068468 351.439189 383.636036 357.376126 411.595495 378.259009 422.334234 363.880631 417.018919 359.912162 410.717117 368.349099"></polygon>
                <polygon id="Fill-53" fill="#FEFEFE" points="325.235135 403.644144 318.577477 406.896396 333.888288 438.252252 350.014414 430.378378 347.104505 424.423423 337.636036 429.045045"></polygon>
                <path d="M407.595495,317.522523 L422.284685,324.162162 C425.933333,325.747748 429.406306,327.968468 432.609009,330.72973 L430.361261,335.698198 C426.176577,335.126126 422.208108,333.986486 418.609009,332.297297 L403.915315,325.666667 L400.865766,332.418919 L416.199099,339.342342 C421.627027,341.77027 427.847748,342.981982 434.392793,342.887387 C434.469369,342.720721 440.352252,329.698198 440.663063,329.004505 C436.406306,324.031532 431.388288,320.162162 425.978378,317.693694 L410.645045,310.765766 L407.595495,317.522523 Z" id="Fill-55" fill="#FEFEFE"></path>
                <path d="M143.017117,385.627477 C141.179279,383.974324 139.345946,382.321171 137.508108,380.668018 C134.125225,384.001351 128.661261,388.505856 123.733333,391.384234 L119.58018,387.65 L131.071171,374.87973 L125.562162,369.92027 L114.071171,382.690541 L112.174775,380.987838 L111.17027,385.911261 L102.21982,395.861712 L107.728829,400.816667 L115.143243,392.577928 L119.94955,396.902252 C118.215315,400.645495 115.341441,404.956306 114.165766,406.609459 C115.999099,408.262613 117.836937,409.915766 119.674775,411.568919 C121.35045,409.208559 126.508108,401.429279 126.841441,397.631982 C132.296396,394.996847 139.075676,389.514865 143.017117,385.627477" id="Fill-57" fill="#FEFEFE"></path>
                <path d="M403.325225,248.961712 C403.325225,334.218468 334.221622,403.335586 248.964865,403.335586 C163.694595,403.335586 94.5864865,334.218468 94.5864865,248.961712 C94.5864865,163.704955 163.694595,94.5878378 248.964865,94.5878378 C334.221622,94.5878378 403.325225,163.704955 403.325225,248.961712" id="Fill-59" fill="#FEFEFE"></path>
                <path d="M249.041441,361.965766 C217.631532,361.965766 189.226126,349.055856 168.861261,328.254054 C226.991892,298.267568 263.181081,306.001802 263.181081,311.844144 C263.181081,317.79009 254.248649,331.690991 254.248649,331.690991 C301.645045,324.988288 336.163063,296.447748 336.163063,257.983784 C336.163063,219.488288 300.158559,200.88018 290.973874,195.177477 C281.154054,189.064865 285.762162,180.772072 253.500901,168.614414 C233.87027,161.218018 206.316216,153.916216 195.527928,151.154955 C211.442342,142.497297 229.654054,137.587387 249.041441,137.587387 C310.991892,137.587387 361.226126,187.830631 361.226126,249.781081 C361.226126,311.74955 310.991892,361.965766 249.041441,361.965766 M249.041441,105.826126 C201.775676,105.826126 159.847748,128.582883 133.590991,163.754054 C137.428829,164.857658 144.681081,166.92973 153.595495,169.501802 L153.559459,169.528829 C167.667568,173.681982 214.478378,187.411712 223.221622,190.204505 C248.775676,198.402703 255.491892,201.618919 262.69009,209.317117 C269.883784,217.015315 280.798198,225.943243 291.478378,233.402703 C302.158559,240.844144 307.365766,249.024324 307.365766,261.947748 C307.365766,274.848649 297.424324,285.758559 291.230631,289.492793 C291.230631,289.492793 293.464865,283.29009 290.482883,280.564865 C287.500901,277.817117 278.081982,272.618919 253.987387,274.353153 C229.924324,276.096396 197.645045,287.763063 175.807207,299.42973 C175.807207,299.42973 186.226126,283.042342 201.87027,275.596396 C201.87027,275.596396 188.96036,275.596396 116.910811,307.015315 C139.036937,358.042342 189.852252,393.736036 249.041441,393.736036 C328.536937,393.736036 392.991892,329.285586 392.991892,249.781081 C392.991892,170.276577 328.536937,105.826126 249.041441,105.826126" id="Fill-61" fill="#E0393D"></path>
                <path d="M247.796396,212.313063 C247.796396,212.313063 239.598198,213.047297 231.156757,208.831081 C222.71982,204.61036 209.818919,195.177928 198.643243,205.596847 C198.643243,205.596847 208.075676,204.376126 207.332432,206.844595 C206.584685,209.317568 205.598198,223.718468 218.503604,229.182432 C231.4,234.646396 246.300901,230.664414 247.796396,212.313063" id="Fill-63" fill="#E0393D"></path>
            </g>
        </g>
    </g>
</svg>