<?xml version="1.0" encoding="UTF-8" standalone="no"?>
<svg width="500px" height="500px" viewBox="0 0 500 500" version="1.1" xmlns="http://www.w3.org/2000/svg" xmlns:xlink="http://www.w3.org/1999/xlink">
    <!-- Generator: Sketch 39.1 (31720) - http://www.bohemiancoding.com/sketch -->
    <title>CHA</title>
    <desc>Created with Sketch.</desc>
    <defs>
        <polygon id="path-1" points="0.0501672241 481.949792 499.489967 481.949792 499.489967 0 0.0501672241 0"></polygon>
    </defs>
    <g id="NBA" stroke="none" stroke-width="1" fill="none" fill-rule="evenodd">
        <g id="CHA">
            <g id="CHornets_pms" transform="translate(0.000000, 9.000000)">
                <path d="M121.689799,219.982792 L86.2926421,219.982792 L86.2926421,258.437354 L65.0075251,268.866462 L86.2951505,279.988444 L86.2951505,314.160236 L109.801003,328.565007 C118.461538,327.421931 129.508361,326.096431 142.311037,324.785156 L233.174749,377.205167 L249.743311,453.457399 C249.848662,453.27916 266.474916,377.205167 266.474916,377.205167 L357.184783,324.785156 C369.981605,326.096431 381.037625,327.421931 389.688963,328.565007 L413.173077,314.160236 L413.173077,279.988444 L434.503344,269.104951 L413.173077,258.437354 L413.173077,219.982792 L377.802676,219.982792 C377.802676,219.982792 383.279264,214.687486 390.216555,202.732045 C393.116221,197.737153 395.858696,191.502951 399.217391,184.124837 C425.007525,176.262212 444.041806,159.788858 452.194816,143.713823 C474.288462,103.240049 490.91388,53.7455104 490.91388,53.7455104 C490.91388,53.7455104 481.37291,58.3312049 469.864548,64.015625 C479.206522,35.4989653 484.816054,11.2918542 484.816054,11.2918542 C484.816054,11.2918542 382.923077,78.7651597 303.559365,142.134771 L296.682274,138.007646 C296.709866,137.350753 296.893813,131.554201 296.893813,131.077222 C296.893813,131.077222 297.672241,124.340101 285.819398,120.315903 C285.092809,120.070719 284.398829,119.838924 283.716555,119.608802 C289.464883,115.293396 298.390468,108.695184 304.904682,104.230826 C315.293478,97.0987326 314.068562,89.2511701 314.068562,89.2511701 L276.417224,117.300056 C247.31689,107.854194 223.071906,117.300056 223.071906,117.300056 L185.43311,89.2511701 C185.43311,89.2511701 184.201505,97.0987326 194.58194,104.230826 C201.105351,108.695184 210.025084,115.293396 215.785117,119.608802 C215.09699,119.838924 214.397157,120.070719 213.67893,120.315903 C201.823579,124.340101 202.60786,131.077222 202.60786,131.077222 C202.60786,131.554201 202.7801,137.350753 202.816054,138.007646 L195.93311,142.134771 C116.569398,78.7651597 14.6948161,11.2918542 14.6948161,11.2918542 C14.6948161,11.2918542 20.2834448,35.4989653 29.6254181,64.015625 C17.3051839,57.9228437 8.57525084,53.7455104 8.57525084,53.7455104 C8.57525084,53.7455104 25.2048495,103.240049 47.3076923,143.713823 C55.4540134,159.788858 74.4849498,176.262212 100.275084,184.124837 C100.275084,184.124837 104.638796,194.116295 108.397993,201.294413 C113.045151,210.17292 121.689799,219.982792 121.689799,219.982792" id="Fill-1" fill="#16132D"></path>
                <path d="M292.476589,162.35283 C292.135452,163.469965 291.745819,164.551118 291.368729,165.621392 C327.04097,142.297111 389.374582,101.595726 459.209866,56.1914931 C459.209866,56.1914931 459.291806,57.7119687 465.477425,39.7491007 C391.692308,84.35 326.352843,134.901424 292.476589,162.35283" id="Fill-2" fill="#006F7D"></path>
                <path d="M207.013378,162.357851 C173.139632,134.904771 107.803512,84.35 34.0183946,39.7491007 C40.1948161,57.7220104 40.2767559,56.1914931 40.2767559,56.1914931 C110.117893,101.590705 172.439799,142.290417 208.12709,165.616372 C207.740803,164.54526 207.360368,163.469965 207.013378,162.357851" id="Fill-3" fill="#006F7D"></path>
                <path d="M142.23495,221.970205 C142.208194,221.962674 124.704013,209.446573 114.831104,186.529816 L121.826087,188.612625 C144.655518,194.658545 188.311037,200.686056 188.311037,200.686056 C167.289298,201.155503 149.504181,202.809031 139.362876,203.933698 C137.250836,201.322028 134.827759,197.984847 133.901338,195.500372 C133.901338,195.500372 134.68311,203.509438 136.478261,208.521066 C138.759197,215.85483 142.208194,221.947611 142.23495,221.970205 L142.23495,221.970205 Z M249.716555,198.409944 C243.615385,196.072747 228.240803,188.390035 219.022575,168.330969 C226.572742,174.846337 236.258361,176.932493 243.992475,169.434715 C234.547659,165.36533 233.37709,148.500351 231.548495,144.073649 C227.85786,135.116483 222.007525,130.585181 217.378763,128.685632 C219.659699,127.912424 221.798495,127.222059 223.799331,126.602823 C228.217391,129.001108 235.594482,134.529045 237.90301,145.517976 C237.90301,145.517976 238.871237,132.967566 232.658863,124.166045 C244.710702,121.261493 256.867057,121.656465 266.785953,124.150983 C260.555184,132.954177 261.514214,145.517976 261.514214,145.517976 C263.837793,134.515656 271.236622,128.984372 275.659699,126.598639 C277.654682,127.212017 279.796823,127.909076 282.099498,128.685632 C277.467391,130.585181 271.62291,135.116483 267.938127,144.073649 C266.122074,148.500351 264.942308,165.36533 255.510033,169.434715 C257.676421,182.270476 255.011706,194.256878 249.716555,198.409944 L249.716555,198.409944 Z" id="Fill-4" fill="#006F7D"></path>
                <path d="M362.957358,208.521066 L362.957358,208.521066 C364.752508,203.509437 365.534281,195.500372 365.534281,195.500372 C364.60786,197.984847 362.181438,201.322028 360.069398,203.933698 C349.928094,202.809031 332.142977,201.155503 311.120401,200.686056 C311.120401,200.686056 354.776756,194.658545 377.609532,188.612625 L384.604515,186.529816 C374.728261,209.446573 357.22408,221.962674 357.199833,221.970205 C357.22408,221.947611 360.673077,215.85483 362.957358,208.521066" id="Fill-5" fill="#006F7D"></path>
                <path d="M195.378763,330.419368 L150.916388,304.735295 C147.718227,305.037382 144.574415,305.339469 141.553512,305.654108 L203.290134,341.31625 C200.272575,337.993295 197.626254,334.338965 195.378763,330.419368" id="Fill-6" fill="#006F7D"></path>
                <path d="M304.099498,330.419368 L348.558528,304.735295 C351.756689,305.037382 354.900502,305.339469 357.920569,305.654108 L296.187291,341.31625 C299.201505,337.993295 301.848662,334.338965 304.099498,330.419368" id="Fill-7" fill="#006F7D"></path>
                <path d="M229.9699,336.41508 C210.33612,332.154066 202.213211,322.469715 202.213211,322.469715 C206.238294,330.656184 212.30602,337.662757 219.759197,342.809948 C219.759197,342.809948 228.035953,340.4125 229.9699,336.41508" id="Fill-8" fill="#006F7D"></path>
                <path d="M217.951505,315.428833 C216.572742,314.078229 215.157191,312.674069 213.766722,311.223049 C207.505853,313.398743 203.938963,315.83301 202.059365,317.491559 C206.403846,321.631236 214.683946,327.133233 229.556856,330.235271 C227.749164,325.128247 223.132943,320.550083 217.951505,315.428833" id="Fill-9" fill="#006F7D"></path>
                <path d="M249.353679,361.782003 C242.839465,361.886604 238.198997,364.406226 236.647993,364.986132 C235.018395,361.909198 233.120401,358.79126 231.324415,356.039007 C236.924749,356.721003 241.837793,355.674997 241.837793,355.674997 C239.496656,354.902625 233.452341,352.850778 225.504181,347.614885 C225.492475,347.614885 225.48913,347.60066 225.48913,347.60066 C226.171405,347.312799 226.868729,346.99816 227.574415,346.646701 C227.574415,346.646701 227.589465,346.642517 227.595318,346.633313 C229.688963,345.584795 231.789298,344.221639 233.452341,342.507861 C235.434783,340.460198 236.801839,337.922167 236.801839,334.766573 C236.801839,325.002726 230.23913,321.711569 222.864548,314.428851 C221.382943,312.968625 219.792642,311.461538 218.174749,309.876628 C224.946488,308.056576 234.133779,306.637354 246.511706,306.415601 L249.474916,347.815719 L249.906355,347.815719 L252.963211,306.415601 C265.343645,306.637354 274.528428,308.056576 281.299331,309.876628 C279.684783,311.461538 278.095318,312.968625 276.613712,314.428851 C269.23913,321.711569 262.673077,325.002726 262.673077,334.766573 C262.673077,337.922167 264.040134,340.460198 266.025084,342.507861 C267.684783,344.221639 269.781773,345.584795 271.878763,346.633313 C271.885452,346.642517 271.903846,346.646701 271.903846,346.646701 C272.609532,346.99816 273.306856,347.312799 273.98495,347.60066 C273.98495,347.60066 273.982441,347.614885 273.973244,347.614885 C266.025084,352.850778 259.981605,354.902625 257.639632,355.674997 C257.639632,355.674997 262.552676,356.721003 268.15301,356.039007 C266.357023,358.79126 264.456522,361.909198 262.826923,364.986132 C261.279264,364.406226 256.635452,361.886604 250.123746,361.782003 L249.353679,361.782003" id="Fill-10" fill="#006F7D"></path>
                <path d="M279.718227,342.809948 C287.171405,337.662757 293.236622,330.656184 297.26505,322.469715 C297.26505,322.469715 289.14214,332.154066 269.507525,336.41508 C271.438963,340.4125 279.718227,342.809948 279.718227,342.809948" id="Fill-11" fill="#006F7D"></path>
                <path d="M269.921405,330.235271 C284.79097,327.133233 293.073579,321.631236 297.413043,317.491559 C295.538462,315.83301 291.972408,313.398743 285.708194,311.223049 C284.31689,312.674069 282.901338,314.078229 281.52592,315.428833 C276.341973,320.550083 271.724916,325.128247 269.921405,330.235271" id="Fill-12" fill="#006F7D"></path>
                <path d="M236.433946,170.559382 C236.433946,170.559382 229.236622,165.802979 228.078595,155.680142 C228.078595,155.680142 218.745819,171.319201 236.433946,170.559382" id="Fill-13" fill="#FFFFFF"></path>
                <path d="M263.566054,170.559382 C263.566054,170.559382 270.769231,165.802979 271.91806,155.680142 C271.91806,155.680142 281.257525,171.319201 263.566054,170.559382" id="Fill-14" fill="#FFFFFF"></path>
                <path d="M258.276756,376.924 C256.98495,375.585111 255.10786,374.027816 249.372074,374.021958 C243.949833,374.01108 242.061037,375.393483 240.48913,376.687184 L249.743311,413.303285 L258.276756,376.924" id="Fill-15" fill="#FFFFFF"></path>
                <polyline id="Fill-16" fill="#FFFFFF" points="319.464047 216.048132 319.464047 229.454594 314.95903 229.454594 314.95903 216.048132 311.23495 216.048132 311.23495 212.217236 323.184783 212.217236 323.184783 216.048132 319.464047 216.048132"></polyline>
                <polyline id="Fill-17" fill="#FFFFFF" points="298.51087 216.048132 298.51087 229.454594 293.996656 229.454594 293.996656 216.048132 290.267559 216.048132 290.267559 212.217236 302.237458 212.217236 302.237458 216.048132 298.51087 216.048132"></polyline>
                <path d="M227.782609,219.466483 L232.589465,219.466483 L232.589465,216.05399 L227.782609,216.05399 L227.782609,219.466483 Z M235.199833,223.348424 L236.81689,223.348424 L236.81689,214.066576 L234.933946,212.217236 L223.542642,212.217236 L223.542642,229.454594 L227.782609,229.454594 L227.782609,223.348424 L230.971572,223.348424 L233.431438,229.454594 L237.640468,229.454594 L235.199833,223.348424 L235.199833,223.348424 Z" id="Fill-18" fill="#FFFFFF"></path>
                <polyline id="Fill-19" fill="#FFFFFF" points="345.402174 216.052316 345.402174 212.217236 332.759197 212.217236 332.759197 229.454594 345.402174 229.454594 345.402174 225.586042 337.164716 225.586042 337.164716 222.752618 345.402174 222.752618 345.402174 218.882392 337.164716 218.882392 337.164716 216.052316 345.402174 216.052316"></polyline>
                <polyline id="Fill-20" fill="#FFFFFF" points="252.061037 225.586042 252.061037 212.21891 247.642977 212.21891 247.642977 229.454594 258.41806 229.454594 258.41806 225.586042 252.061037 225.586042"></polyline>
                <path d="M271.025084,225.586042 L275.908027,225.586042 L275.908027,216.052316 L271.025084,216.052316 L271.025084,225.586042 Z M278.236622,212.217236 L266.801003,212.217236 L266.801003,227.516552 L268.725753,229.454594 L280.134615,229.454594 L280.134615,214.129337 L278.236622,212.217236 L278.236622,212.217236 Z" id="Fill-21" fill="#FFFFFF"></path>
                <path d="M204.117057,219.969403 L209.014214,219.969403 L209.014214,216.052316 L204.117057,216.052316 L204.117057,219.969403 Z M213.37709,229.454594 L213.359532,214.145236 L211.454849,212.217236 L199.783445,212.217236 L199.783445,229.454594 L204.117057,229.454594 L204.117057,223.84967 L209.014214,223.84967 L209.014214,229.454594 L213.37709,229.454594 L213.37709,229.454594 Z" id="Fill-22" fill="#FFFFFF"></path>
                <polyline id="Fill-23" fill="#FFFFFF" points="186.035953 212.217236 186.035953 219.969403 181.178094 219.969403 181.178094 212.217236 176.839465 212.217236 176.839465 229.454594 181.178094 229.454594 181.178094 223.84967 186.035953 223.84967 186.035953 229.454594 190.35786 229.454594 190.35786 212.217236 186.035953 212.217236"></polyline>
                <path d="M444.526756,89.8453021 C452.906355,70.1343472 459.209866,56.1914931 459.209866,56.1914931 C389.374582,101.586521 327.04097,142.297111 291.368729,165.621392 C290.007525,169.412958 288.457358,172.869802 286.755017,176.040458 L427.438963,99.3355139 L317.62291,178.709031 L322.689799,177.796913 L380.718227,172.188642 C380.718227,172.188642 419.934783,168.392892 441.756689,139.031896 C452.022575,123.266479 469.511706,77.1852708 469.511706,77.1852708 L444.526756,89.8453021" id="Fill-24" fill="#FFFFFF"></path>
                <path d="M108.407191,273.524122 L121.931438,267.692424 L121.931438,298.42076 C125.80602,297.89441 129.801003,297.39651 133.835284,296.917858 L133.83194,229.456267 L121.948997,229.456267 C121.918896,229.370913 121.918896,253.632417 121.931438,253.750406 L108.407191,259.460767 L108.418896,229.456267 L96.458194,229.456267 L96.458194,264.375326 C96.458194,264.375326 86.6036789,269.109135 86.6571906,269.201184 L96.458194,274.102354 L96.458194,302.419017 C100.293478,301.722795 104.348662,301.058372 108.407191,300.414868 L108.407191,273.524122" id="Fill-25" fill="#FFFFFF"></path>
                <path d="M201.174749,250.916983 L214.650502,250.916983 C214.650502,254.234917 214.629599,258.492583 214.629599,261.491694 C210.124582,261.555292 205.679766,261.633951 201.186455,261.711774 L201.174749,250.916983 L201.174749,250.916983 Z M201.186455,273.324962 C204.162207,273.237097 207.061873,273.150069 210.042642,273.086472 C212.236622,278.798507 214.494147,285.272035 216.690635,291.001642 C220.627926,290.885326 224.596154,290.790767 228.591137,290.717965 C226.406355,284.969948 224.182274,278.526545 221.994983,272.843799 C223.504181,272.816184 225.018395,272.787733 226.545151,272.769323 L226.539298,245.181517 L221.261706,239.982444 L184.741639,239.982444 L189.252508,245.363941 L189.252508,292.178191 C193.199833,291.958948 197.158863,291.759788 201.186455,291.580712 L201.186455,273.324962 L201.186455,273.324962 Z" id="Fill-26" fill="#FFFFFF"></path>
                <path d="M247.685619,250.916983 L261.341973,250.916983 L261.341973,290.565667 C265.454849,290.604997 269.715719,290.663573 273.770903,290.746417 L273.770903,245.388208 L268.333612,239.982444 L230.999164,239.982444 L235.48913,245.363941 L235.492475,290.610854 C239.54097,290.559809 243.584448,290.52801 247.685619,290.518806 L247.685619,250.916983" id="Fill-27" fill="#FFFFFF"></path>
                <path d="M318.350334,281.06625 C310.628763,280.654542 303.034281,280.313125 295.318562,280.042837 C295.29097,277.213597 295.288462,274.387705 295.282609,271.571854 C303.015886,271.791934 310.634615,272.053854 318.350334,272.381045 L318.350334,260.475813 C310.617057,260.269958 302.970736,260.095066 295.258361,259.96034 C295.249164,257.666656 295.249164,253.798104 295.249164,250.916983 L318.347826,250.916983 L318.347826,239.982444 L278.279264,239.982444 L282.720736,245.339674 L282.720736,290.984069 C294.917224,291.334691 306.841973,291.87192 318.350334,292.593247 L318.350334,281.06625" id="Fill-28" fill="#FFFFFF"></path>
                <path d="M348.365385,250.916983 L358.62709,250.916983 L358.62709,239.982444 L324.964883,239.982444 L324.964883,250.916983 L335.438127,250.916983 L335.438127,293.837576 C339.73495,294.186524 344.206522,294.556392 348.365385,294.952201 L348.365385,250.916983" id="Fill-29" fill="#FFFFFF"></path>
                <path d="M168.459866,281.652014 C163.876254,281.940712 159.382943,282.233594 154.802676,282.564132 L154.802676,250.916983 L168.469064,250.916983 L168.459866,281.652014 L168.459866,281.652014 Z M180.435619,245.368125 L175.044314,239.982444 L138.400502,239.982444 L142.73913,245.200764 L142.745819,289.745597 L147.479933,295.389851 C157.983278,294.327944 169.087793,293.423358 180.427258,292.692826 L180.435619,245.368125 L180.435619,245.368125 Z" id="Fill-30" fill="#FFFFFF"></path>
                <path d="M401.773411,273.863865 C405.451505,272.213684 409.159699,270.530031 412.856187,268.787802 C400.979933,263.282458 389.087793,258.276688 377.190635,253.651663 L377.175585,240.121354 L389.779264,240.121354 L389.779264,245.035076 L401.773411,245.035076 L401.773411,229.454594 L360.729933,229.454594 L365.286789,234.749899 L365.286789,262.633097 L389.781773,273.285632 L389.781773,288.87783 C389.781773,288.87783 384.09699,288.15734 377.183946,287.258611 L377.183946,282.254514 L365.292642,280.841149 L365.292642,296.753007 C378.303512,298.275156 390.51505,300.048347 401.767559,302.041618 C401.761706,293.563104 401.773411,280.180073 401.773411,273.863865" id="Fill-31" fill="#FFFFFF"></path>
                <polyline id="Fill-32" fill="#FFFFFF" points="162.829431 224.100712 162.829431 225.586042 158.973244 225.586042 158.973244 216.052316 162.829431 216.052316 162.829431 217.472375 167.15301 217.472375 167.15301 212.217236 154.730769 212.217236 154.730769 227.516552 156.662207 229.454594 167.156355 229.454594 167.15301 224.100712 162.829431 224.100712"></polyline>
                <g id="Group-36">
                    <mask id="mask-2" fill="white">
                        <use xlink:href="#path-1"></use>
                    </mask>
                    <g id="Clip-34"></g>
                    <path d="M54.9682274,89.8453021 C46.5919732,70.1343472 40.2884615,56.1914931 40.2884615,56.1914931 C110.121237,101.586521 172.454849,142.297111 208.12709,165.621392 C209.490803,169.412958 211.041806,172.869802 212.740803,176.040458 L72.0593645,99.3355139 L181.875418,178.709031 L176.80602,177.796913 L118.775084,172.188642 C118.775084,172.188642 79.5602007,168.392892 57.7382943,139.031896 C47.4732441,123.266479 29.9816054,77.1852708 29.9816054,77.1852708 L54.9682274,89.8453021" id="Fill-33" fill="#FFFFFF" mask="url(#mask-2)"></path>
                    <path d="M121.689799,219.982792 L86.2926421,219.982792 L86.2926421,258.437354 L65.0075251,268.866462 L86.2951505,279.988444 L86.2951505,314.160236 L109.801003,328.565007 C118.461538,327.421931 129.508361,326.096431 142.311037,324.785156 L233.174749,377.205167 L249.743311,453.457399 C249.848662,453.27916 266.474916,377.205167 266.474916,377.205167 L357.184783,324.785156 C369.981605,326.096431 381.037625,327.421931 389.688963,328.565007 L413.173077,314.160236 L413.173077,279.988444 L434.503344,269.104951 L413.173077,258.437354 L413.173077,219.982792 L377.802676,219.982792 C377.802676,219.982792 383.279264,214.687486 390.216555,202.732045 C393.116221,197.737153 395.858696,191.502951 399.217391,184.124837 C425.007525,176.262212 444.041806,159.788858 452.194816,143.713823 C474.288462,103.240049 490.91388,53.7455104 490.91388,53.7455104 C490.91388,53.7455104 481.37291,58.3312049 469.864548,64.015625 C479.206522,35.4989653 484.816054,11.2918542 484.816054,11.2918542 C484.816054,11.2918542 382.923077,78.7651597 303.559365,142.134771 L296.682274,138.007646 C296.709866,137.350753 296.893813,131.554201 296.893813,131.077222 C296.893813,131.077222 297.672241,124.340101 285.819398,120.315903 C285.092809,120.070719 284.398829,119.838924 283.716555,119.608802 C289.464883,115.293396 298.390468,108.695184 304.904682,104.230826 C315.293478,97.0987326 314.068562,89.2511701 314.068562,89.2511701 L276.417224,117.300056 C247.31689,107.854194 223.071906,117.300056 223.071906,117.300056 L185.43311,89.2511701 C185.43311,89.2511701 184.201505,97.0987326 194.58194,104.230826 C201.105351,108.695184 210.025084,115.293396 215.785117,119.608802 C215.09699,119.838924 214.397157,120.070719 213.67893,120.315903 C201.823579,124.340101 202.60786,131.077222 202.60786,131.077222 C202.60786,131.554201 202.7801,137.350753 202.816054,138.007646 L195.93311,142.134771 C116.569398,78.7651597 14.6948161,11.2918542 14.6948161,11.2918542 C14.6948161,11.2918542 20.2834448,35.4989653 29.6254181,64.015625 C17.3051839,57.9228437 8.57525084,53.7455104 8.57525084,53.7455104 C8.57525084,53.7455104 25.2048495,103.240049 47.3076923,143.713823 C55.4540134,159.788858 74.4849498,176.262212 100.275084,184.124837 C100.275084,184.124837 104.638796,194.116295 108.397993,201.294413 C113.045151,210.17292 121.689799,219.982792 121.689799,219.982792 L121.689799,219.982792 Z M488.198161,76.2129028 C477.040134,106.075983 462.224916,136.787583 454.819398,149.486108 C442.342809,170.857285 417.48495,183.597649 402.904682,188.301333 C402.904682,188.301333 395.829431,205.398108 388.538462,214.807149 L418.29097,214.807149 L418.29097,255.286781 L446.551839,268.836337 L418.254181,283.108056 L418.218227,317.062278 L390.786789,333.837719 C390.786789,333.837719 368.931438,331.123958 358.289298,330.023559 L271.317726,380.27959 C253.87709,459.066507 249.746656,482 249.746656,482 C249.746656,482 245.654682,460.361045 228.178094,380.27959 L141.204013,330.023559 C130.555184,331.123958 108.705686,333.837719 108.705686,333.837719 L81.2683946,317.062278 L81.2257525,283.108056 L52.9439799,268.836337 L81.2023411,255.286781 L81.2023411,214.807149 L110.956522,214.807149 C103.793478,205.836594 96.5819398,188.301333 96.5819398,188.301333 C87.8277592,185.427743 79.5635452,181.461285 72.1195652,176.703208 C60.3762542,169.215472 50.7408027,159.767937 44.6697324,149.486108 C32.8235786,128.590236 18.8921405,97.1213264 11.2884615,76.2129028 C6.26086957,63.4675174 0,44.0059306 0,44.0059306 C0,44.0059306 16.1822742,51.7539132 21.1613712,54.1865069 C13.4005017,30.9492535 6.84949833,0.00418402778 6.84949833,0.00418402778 L6.84949833,0 C6.84949833,0 118.225753,73.2790625 196.34699,135.955799 L197.581104,135.204347 C197.541806,133.898094 197.51505,132.578451 197.51505,131.22199 C197.481605,130.442924 197.535953,128.893997 198.181438,126.998632 C199.089465,124.417087 201.114548,121.190365 205.643813,118.418028 C199.910535,114.202201 189.570234,107.052535 188.658863,106.052552 C181.102843,99.4878125 179.832776,92.0979826 180.40301,88.4545312 L181.697324,80.1207847 L224.076923,111.707684 C247.123746,105.101941 263.406355,108.372177 275.418896,111.707684 L317.795151,80.1207847 L319.086957,88.4545312 C319.657191,92.0979826 318.387124,99.4878125 310.834448,106.052552 C309.953177,106.991448 299.576087,114.202201 293.848662,118.418028 C298.372074,121.190365 300.40301,124.417087 301.301839,126.998632 C301.959866,128.893997 302.014214,130.442924 301.969064,131.22199 C301.969064,132.578451 301.950669,133.898094 301.905518,135.204347 L303.148829,135.955799 C383.125418,71.8389201 492.640468,0 492.640468,0 L492.640468,0.00418402778 C492.640468,0.00418402778 487.184783,25.4790556 478.334448,54.1865069 C482.543478,52.1321493 499.489967,44.0059306 499.489967,44.0059306 C494.685619,59.4751181 488.198161,76.2129028 488.198161,76.2129028 L488.198161,76.2129028 Z" id="Fill-35" fill="#828382" mask="url(#mask-2)"></path>
                </g>
            </g>
        </g>
    </g>
</svg>