<?xml version="1.0" encoding="UTF-8" standalone="no"?>
<svg width="500px" height="500px" viewBox="0 0 500 500" version="1.1" xmlns="http://www.w3.org/2000/svg" xmlns:xlink="http://www.w3.org/1999/xlink">
    <!-- Generator: Sketch 39.1 (31720) - http://www.bohemiancoding.com/sketch -->
    <title>CHI</title>
    <desc>Created with Sketch.</desc>
    <defs></defs>
    <g id="NBA" stroke="none" stroke-width="1" fill="none" fill-rule="evenodd">
        <g id="CHI">
            <g id="CBulls_Global_pms" transform="translate(2.000000, 0.000000)">
                <g id="Group-3" transform="translate(19.015974, 110.142631)" fill="#0F1216">
                    <path d="M432.888358,82.8518225 C431.172166,52.6957211 417.671617,25.6473851 409.605674,9.48652932 L408.646952,7.56101426 L405.138505,0.538827258 L405.857942,8.35736926 C406.848358,19.1679873 409.236447,56.0768621 398.239668,76.9904913 C384.602045,105.364501 344.494185,102.614105 331.312946,101.709192 L330.310645,101.637876 C308.650658,100.198891 238.202812,97.6933439 216.620473,97.7884311 C188.072741,97.9080824 156.57278,100.229002 131.264102,102.095087 C118.868064,103.008716 108.157316,103.798732 100.948677,104.072108 C100.357597,104.091918 99.5113866,104.173534 98.3347732,104.282884 C62.8462109,107.58954 40.4271693,97.1251981 31.6996294,73.177496 C26.3466326,58.4936609 26.4781597,29.4508716 26.5415463,15.496038 L26.5534313,11.3240887 L26.5732396,5.46196513 C26.5732396,5.46909667 23.786607,10.6244057 23.786607,10.6244057 C17.119131,22.9572108 4.71358466,45.911252 0.545124601,83.9944532 C-1.79384026,128.884311 21.5244984,144.982567 39.2671949,153.190967 C57.8046006,161.772583 76.7397572,163.005547 82.9635272,163.408875 L83.4127796,163.438193 L83.2432204,163.414422 C84.5196677,163.651347 85.9799361,163.714739 87.5241917,163.784469 C89.4432204,163.87084 91.5080383,163.977813 93.6338658,164.381141 C90.2775463,165.030111 85.8618786,165.783677 81.9865815,166.449287 C77.855361,167.156101 73.9547093,167.829635 71.9287157,168.259113 C67.7293546,169.14897 49.8654313,173.319334 40.2425559,176.603803 C32.0648946,179.395404 23.2700064,183.546751 23.1804728,183.586371 L21.580754,184.349445 L22.6155399,185.786054 C22.7383514,185.955626 25.6969201,190.043582 28.763246,193.064184 C35.0575335,199.25832 52.5482684,210.291601 73.6813546,207.663233 C90.5738786,205.568146 99.6246901,201.640254 103.114121,199.797147 C104.205163,203.422345 106.823029,211.843899 109.459118,218.396989 C117.073431,237.316165 134.390645,273.358954 140.908371,285.896197 C146.176588,296.03645 151.416281,305.045166 154.886696,311.001585 L156.130658,313.153724 C154.990492,317.031696 152.280716,319.453249 150.26423,321.229002 C149.719105,321.70523 149.253214,322.115689 148.859425,322.515055 L148.468805,322.914422 L148.441866,323.474643 C148.278645,326.972266 147.461751,358.301902 168.775489,381.255151 L169.005265,381.502377 L169.326952,381.625198 C179.940243,385.692552 193.798134,389.857369 216.118927,389.857369 C238.888971,389.857369 258.043604,384.459588 264.764958,381.061807 L265.035144,380.928685 L265.228473,380.70206 C280.098965,363.11252 286.858351,336.656894 287.021572,327.045959 L287.03108,326.432647 L286.601636,325.992868 C286.231617,325.613312 285.845751,325.240095 285.439284,324.85103 C283.127259,322.628368 280.262185,319.876387 278.629981,313.373217 C280.434914,310.259113 283.982978,302.846276 286.871821,296.812995 C288.484217,293.438193 289.882684,290.51981 290.652038,289.017433 C296.944741,276.767829 315.309419,237.356577 322.608383,218.733756 C327.218965,206.966719 329.810684,201.076862 330.926288,198.637876 C334.147911,200.381141 342.842173,204.232171 359.264843,205.931062 C380.561942,208.133122 400.861495,193.86767 406.514786,186.105388 C407.467962,184.799525 409.076396,182.917591 409.093035,182.900158 L410.365521,181.408082 L408.583565,180.602219 C408.46947,180.548336 407.740524,180.235341 404.56961,179.152932 L392.786837,175.201268 L381.031003,171.260697 C377.829188,170.167987 363.455489,167.049128 352.959463,164.777338 L345.020294,163.041997 L347.608843,162.572108 C371.930275,158.267829 436.522786,146.828051 432.888358,82.8518225" id="Fill-1"></path>
                </g>
                <path d="M25.064639,180.034073 C28.6198339,161.696513 34.4751693,144.549921 42.4650479,128.087956 L42.5601278,127.894612 L42.9380703,127.894612 L42.9380703,128.239303 L42.9380703,127.894612 L43.2993738,127.894612 L43.2835272,128.254358 C43.0640511,133.177496 42.9143003,138.244057 42.9143003,143.349445 C42.9143003,155.493661 43.7541725,167.85103 46.4663259,178.953249 L46.7301725,180.034073 L45.9021853,179.293185 C42.3699681,176.137084 38.8567668,172.518225 35.1985687,169.369255 C31.982492,172.972266 28.9003195,176.889857 25.6541342,180.335182 L24.8372396,181.201268 L25.064639,180.034073" id="Fill-4" fill="#BB1C3F"></path>
                <path d="M445.648869,172.512678 L445.314505,172.595087 L445.643323,172.496038 C440.951131,157.006339 436.758901,141.325674 429.078032,127.114105 L428.431489,127.298732 C428.735744,132.217908 428.891834,137.110143 428.891834,141.961965 C428.891834,153.843899 427.961636,165.498415 426.039438,176.809033 L425.926927,177.467512 L426.529099,177.176704 C430.29347,175.358162 433.868473,172.909667 437.714454,171.268621 L446.999796,177.974643 L445.648869,172.512678" id="Fill-5" fill="#BB1C3F"></path>
                <path d="M294.059859,338.121236 L293.348345,338.435024 C288.073789,340.759905 282.660575,343.07607 276.94469,344.208399 C273.242914,345.161648 269.488843,345.652932 265.787067,345.652932 C254.191284,345.649762 243.116064,340.858954 236.258428,330.352615 L236.038952,330.017433 L235.741035,330.283677 C234.363962,331.508716 233.535974,333.011886 232.098684,334.298732 C224.798134,342.707607 214.20069,345.925515 203.379808,345.9271 C194.972371,345.9271 186.443706,343.979398 179.307169,341.012678 L178.572677,340.707607 L178.852371,341.454041 C184.328971,355.964342 187.683706,372.064976 187.683706,388.245642 C187.683706,395.492868 187.011016,402.757528 185.555502,409.904913 C184.550824,414.916799 182.88138,420.115689 181.537585,424.99683 L181.32524,425.765452 L182.031208,425.393027 C197.476141,417.210777 216.339195,413.064184 235.153917,413.066561 C252.958415,413.066561 270.716958,416.777338 285.493955,424.270206 C287.930377,425.273376 290.215463,426.970681 292.436371,427.68859 L293.089252,427.900158 L292.868192,427.249604 C288.562658,414.484945 286.020856,400.92393 286.020856,386.728209 C286.020856,386.530903 286.022441,386.332805 286.024026,386.13233 C285.999463,385.221078 285.989163,384.322504 285.989163,383.426307 C285.989163,367.916006 289.244064,352.639461 293.815029,338.858162 L294.059859,338.121236" id="Fill-6" fill="#BB1C3F"></path>
                <path d="M142.992997,353.128368 C141.341776,351.083201 139.998773,348.837559 139.503565,346.230586 L139.354607,345.442155 L140.030466,345.876387 C142.806006,347.663233 145.856486,348.400158 148.988575,348.400158 C155.442121,348.404913 162.222109,345.233756 167.293035,341.66561 L167.529942,341.5 L167.735157,341.704437 L167.902339,341.870048 L167.659093,342.114897 L167.902339,341.870048 L168.018019,341.985737 L168.002173,342.151347 C167.30492,348.736133 164.952486,356.287639 157.957776,358.872425 C156.919029,359.139461 155.899297,359.263074 154.90492,359.263074 C150.222236,359.260697 146.146479,356.525357 142.992997,353.128368" id="Fill-7" fill="#BB1C3F"></path>
                <path d="M307.121457,350.615689 C305.622364,348.377179 304.792792,345.968304 304.307093,343.242472 L304.148626,342.347861 L304.860933,342.911252 C308.328971,345.654517 312.701853,346.844691 317.173776,346.846276 C322.422978,346.846276 327.799744,345.196513 331.92938,342.538827 L332.760537,342.001585 L332.442812,342.938986 C330.401764,348.90412 325.228626,355.012678 318.939093,356.381933 C318.391591,356.458003 317.846466,356.496038 317.31085,356.496038 C313.18993,356.497623 309.475476,354.276545 307.121457,350.615689" id="Fill-8" fill="#BB1C3F"></path>
                <path d="M315.158083,359.380349 C315.97577,359.550713 316.798211,359.62599 317.619067,359.62599 C319.992102,359.62599 322.374645,358.996038 324.693802,358.263074 L325.387885,358.041997 L325.116907,358.719493 C316.448,380.386688 305.975744,401.350238 295.18101,422.14897 L294.818121,422.846276 L294.550313,422.106973 C292.376946,416.123613 291.75655,409.770206 291.75655,403.272583 C291.75655,398.507924 292.089329,393.664818 292.394377,388.816957 C293.948141,374.83439 297.312383,361.381141 301.494313,348.437401 L301.748652,347.651347 L302.128971,348.385895 C304.698505,353.388273 309.566594,358.543582 315.138275,359.377179" id="Fill-9" fill="#BB1C3F"></path>
                <path d="M178.306454,422.231379 C165.234556,402.290016 155.305048,381.201268 145.707527,359.796355 L145.294722,358.873217 L146.186096,359.351823 C148.785738,360.746434 152.272,361.854992 155.592665,361.853407 C157.829419,361.853407 159.986939,361.351823 161.773649,360.127575 C165.976971,357.190967 168.43954,352.565769 170.097099,347.896197 L170.369661,347.128368 L170.731757,347.857369 C177.940396,362.448494 181.399719,380.104596 181.401304,397.577655 C181.401304,405.85103 180.623233,414.087163 179.100371,421.938986 L179.080562,422.03962 L179.00846,422.114897 L178.541776,422.588748 L178.306454,422.231379" id="Fill-10" fill="#BB1C3F"></path>
                <path d="M189.796856,489.007132 L189.727923,488.977021 L189.677214,488.920761 C176.358109,474.312203 171.337891,455.51981 170.616077,435.634707 L170.608946,435.450872 L170.757904,435.342314 C188.272409,422.58954 211.68345,415.854992 234.770428,415.853407 C249.92299,415.853407 264.937687,418.754358 278.056332,424.779715 C286.436038,428.528526 294.501981,432.618859 301.908703,438.570523 L301.693188,438.840729 L301.908703,438.570523 L302.058454,438.690967 L302.035476,438.881933 C299.793968,457.590333 293.103514,474.266244 281.308856,488.722662 L281.251808,488.793978 L281.168613,488.828051 C267.120562,494.309826 250.563195,497.268621 234.070006,497.268621 C218.537917,497.268621 203.062875,494.641046 189.796856,489.007132" id="Fill-11" fill="#BB1C3F"></path>
                <path d="M424.015029,292.478605 C424.013444,292.478605 415.783489,289.324881 413.666377,288.528526 C391.083323,280.025357 362.057022,274.836767 337.398058,274.24168 C335.041661,246.763074 331.881048,229.586371 326.532013,214.064184 L326.457534,213.845483 L326.226173,213.832013 C313.510824,213.09271 257.103105,210.823296 235.302875,210.823296 C213.495514,210.823296 158.103565,214.253566 145.397725,214.993661 L145.167157,215.004754 L145.091885,215.224247 C139.975796,230.022187 134.148192,248.469889 131.436831,275.6458 C106.510058,277.169572 72.9539936,284.309033 50.3741086,292.812203 C48.7355655,293.429477 47.5399361,294.015055 46.7301725,294.445325 C46.3260831,294.659271 46.0170735,294.836767 45.8047284,294.955626 C45.7524345,294.984945 45.7056869,295.011094 45.665278,295.032488 L44.9743642,294.252773 L45.2207796,295.501585 C45.2334569,295.572108 45.2667348,295.628368 45.3087284,295.671949 C48.7680511,299.591918 61.4786454,314.840729 85.097278,315.375594 C85.4839361,315.383518 85.8888179,315.385103 86.3071693,315.385103 C94.0221086,315.383518 107.086875,313.889857 115.835808,310.063391 C117.96639,309.121236 122.090479,307.426307 123.214006,306.965135 C123.635527,307.769414 124.87315,310.175119 125.492754,311.902536 C128.032971,318.949287 131.050173,329.053883 133.266326,333.469097 C136.554505,340.026149 141.902748,345.288431 150.581163,345.484152 C150.698428,345.487322 150.812524,345.487322 150.925827,345.487322 C158.756447,345.466719 164.172038,339.204437 165.117291,337.875594 L165.479387,337.362124 L164.853444,337.332013 C143.01439,336.236133 134.084013,324.640254 132.603936,307.120444 L132.580958,306.8542 L132.321073,306.808241 C129.74124,306.348653 128.105073,305.98336 127.089304,305.430269 C126.080665,304.874802 125.63062,304.191759 125.290709,302.847861 C125.146505,302.259113 125.07678,301.663233 125.07678,301.05309 C125.075195,298.912837 125.945176,296.578447 127.561534,293.879556 C129.257917,291.62599 131.741086,289.396989 136.689994,289.386688 C138.73738,289.386688 141.210249,289.77496 144.218735,290.729002 C151.012984,292.872425 156.45393,297.257528 160.25554,300.587956 C164.786096,304.554675 177.95545,318.282092 185.93899,323.077655 C190.631182,325.892235 197.756626,328.514263 205.01439,328.515848 C210.811885,328.519017 216.707629,326.827258 221.433099,322.192552 C231.585252,312.240095 232.814952,303.672742 234.143693,298.37084 L234.249073,297.951664 L233.818837,297.942155 C216.30354,297.442155 199.705764,295.726624 184.41692,293.613312 C182.653188,293.355784 182.124703,292.61252 182.124703,291.985737 C182.126288,291.215531 182.979629,290.300317 184.382058,290.298732 C184.653035,290.298732 184.940652,290.332013 185.248077,290.411252 C185.297201,290.419968 214.14285,294.236133 234.344153,294.366878 L234.667425,294.368463 L234.690403,294.045166 C234.849661,291.686212 234.887693,287.559429 235.028728,282.904913 L235.039029,282.558637 L234.691987,282.549921 C222.7143,282.277338 202.604115,281.017433 183.535054,277.175911 C181.885419,276.83439 181.241252,275.839937 181.238083,275.010301 C181.253137,274.209192 181.796677,273.509509 182.988345,273.491284 C183.256153,273.491284 183.553278,273.529319 183.882888,273.619651 C186.719438,274.366086 217.765393,278.756735 234.658709,278.762282 C234.711796,278.762282 234.759335,278.760697 234.798952,278.762282 L235.147578,278.773376 L235.153917,278.42393 C235.226019,274.81458 235.260882,269.731379 235.279105,264.842314 L235.281482,264.496038 L234.934441,264.497623 C234.588192,264.499208 234.235604,264.499208 233.879054,264.499208 C222.947246,264.499208 207.13784,263.397781 184.650658,259.973059 C182.810863,259.68225 182.159565,258.796355 182.165112,258.105388 C182.166696,257.400158 182.825917,256.648177 184.225968,256.637084 C184.349572,256.637084 184.480307,256.643423 184.615796,256.658479 C184.612626,256.658479 212.065355,260.740095 233.471003,260.740887 C233.963042,260.740887 234.451118,260.737718 234.938403,260.736133 L235.279105,260.732964 L235.279105,260.391442 C235.279105,257.072108 235.266428,253.203645 235.232358,249.312995 C235.232358,249.282884 235.230773,249.263074 235.230773,249.248019 C235.237904,247.139461 236.174441,246.296355 236.854262,246.293185 C237.494466,246.296355 238.324831,247.026941 238.334339,248.969889 C238.334339,250.44374 238.415157,254.634707 238.415157,259.882726 L238.415157,260.179873 L238.418326,260.531696 L238.771706,260.521395 C259.46584,259.88748 277.672843,257.465135 286.211016,255.94374 C286.704639,255.8542 287.13646,255.813788 287.510441,255.813788 C289.206824,255.845483 289.652115,256.520602 289.668754,257.178288 C289.675885,257.858162 289.09669,258.636292 288.234633,258.788431 C285.439284,259.295563 261.46331,263.933439 238.642556,264.4271 L238.30423,264.434231 L238.306607,264.771791 C238.316115,268.797147 238.461904,274.034865 238.531629,278.297147 L238.537176,278.646593 L238.888179,278.634707 C254.222185,278.085578 271.983105,277.512678 287.239463,274.144216 C287.948601,273.986529 288.569789,273.917591 289.103029,273.917591 C290.884984,273.932647 291.54262,274.636292 291.544204,275.236133 C291.571144,275.924723 290.647284,276.986529 288.467578,277.347861 C273.52023,279.841521 251.961661,282.398574 238.991974,282.499208 L238.640971,282.50317 L238.648895,282.853407 C238.74239,286.587956 238.774875,291.114105 238.96345,294.080824 L238.984051,294.41046 L239.316831,294.403328 C263.784051,293.819334 286.951847,290.345483 290.896869,289.664025 C291.182901,289.614897 291.449125,289.591125 291.692371,289.591125 C293.225534,289.604596 293.930709,290.4271 293.932294,291.206022 C293.933879,291.965927 293.255642,292.889065 291.414262,293.153724 C287.100805,293.739303 258.396984,297.449287 240.012498,297.908875 L239.565623,297.918384 L239.691604,298.348653 C241.506837,304.575277 241.859425,313.63233 250.890428,321.400951 C255.305304,325.198891 261.243042,326.905705 267.364601,326.905705 C273.396626,326.904913 279.61485,325.248019 284.772933,322.273376 C292.841252,317.59588 305.598594,303.621236 310.124396,299.662441 C313.885597,296.361331 322.469725,288.411252 333.953789,288.418384 C334.115425,288.418384 334.270722,288.418384 334.426019,288.423138 C340.32731,288.541997 343.199514,290.09588 344.708115,291.786054 C346.222262,293.488114 346.394198,295.353407 346.757086,296.369255 C347.020141,297.087163 347.240409,298.050713 347.238824,299.026941 C347.232486,300.46355 346.784026,301.877971 345.35862,302.752773 C343.347681,303.993661 341.454799,303.664025 339.333725,304.637084 L339.166543,304.713946 L339.137227,304.894612 C337.631796,314.469097 334.627272,325.362916 327.119923,331.053883 C323.068728,334.137084 317.839335,335.873217 313.624128,336.826466 C309.412089,337.780507 306.234045,337.953249 306.227706,337.956418 L305.502722,337.99683 L305.991591,338.533281 C305.99476,338.53645 307.770377,340.485737 308.363042,341.051506 C309.698914,342.313788 313.475962,344.146593 318.4217,344.156894 C318.948601,344.156894 319.488971,344.135499 320.041227,344.090333 C325.448102,343.631537 331.675834,339.522187 334.332524,336.798732 C338.354403,331.5729 342.049048,320.743265 344.769917,313.769414 C345.736562,311.282884 347.924984,306.972266 348.813188,304.755151 C351.042812,305.808241 352.335898,306.502377 356.592307,308.214739 C365.415719,311.746434 376.61692,313.304279 384.144077,313.305864 C384.574313,313.305864 384.991872,313.301109 385.395962,313.292393 C397.68345,312.977813 411.578581,305.544374 419.955911,297.773376 C421.424895,296.408082 424.152102,293.026941 424.158441,293.01981 L424.457942,292.648177 L424.015029,292.478605" id="Fill-12" fill="#BB1C3F"></path>
                <path d="M248.349419,443.435816 C247.054748,445.613312 246.479514,448.115689 246.479514,450.663233 C246.476345,454.779715 247.993661,458.999208 250.37462,462.0729 C250.523578,462.272583 250.715323,462.354992 250.947476,462.359746 C251.212115,462.359746 251.514786,462.227417 251.727131,461.985737 C251.728716,461.912044 251.728716,461.839937 251.728716,461.766244 C251.749316,459.327258 250.174952,457.210777 250.152767,454.541204 C250.152767,453.916799 250.247054,453.263867 250.472077,452.584786 L250.706607,451.87401 L251.09485,452.513471 C253.488486,456.473851 257.351105,458.973059 261.376153,460.319334 C262.952102,460.731379 264.523297,460.931854 266.061214,460.931854 C271.437188,460.930269 276.419374,458.497623 279.946837,454.16561 C281.610735,451.812203 282.892728,448.847861 282.890351,445.937401 C282.890351,444.571315 282.612243,443.216323 281.964907,441.923138 L281.963323,441.92393 C279.423898,436.989699 274.281661,434.146593 269.120409,433.293978 C268.233789,433.199683 267.352716,433.153724 266.476396,433.153724 C258.992818,433.156894 252.009994,436.49683 248.349419,443.435816" id="Fill-13" fill="#0F1216"></path>
                <path d="M219.069572,464.022979 C219.496639,464.044374 220.011655,463.544374 220.361866,462.942155 C222.328435,459.855784 223.657968,455.85103 223.656383,451.94374 C223.656383,449.377971 223.085904,446.856577 221.766671,444.647385 L222.063003,444.471474 L221.756371,444.630745 C219.698684,440.681458 215.496153,437.5 211.477444,436.163233 C209.187604,435.416799 206.768613,435.031696 204.369431,435.031696 C198.623438,435.033281 193.00501,437.235341 189.4617,441.977021 C188.100473,443.772583 187.411936,446.080032 187.411936,448.377971 C187.411936,449.584786 187.600511,450.786054 187.977661,451.902536 C189.872128,457.16878 194.867783,461.332013 200.157393,462.335182 C201.347476,462.546751 202.516958,462.652139 203.661086,462.652139 C209.815923,462.650555 215.243399,459.633122 219.10285,454.342314 L219.485546,453.813788 L219.707399,454.4271 C219.873789,454.893819 219.932422,455.383518 219.932422,455.874802 C219.929252,456.959588 219.650351,458.060222 219.539425,458.948494 C219.355604,460.5 218.137789,461.696513 218.175821,462.770206 C218.177406,463.114897 218.276447,463.459588 218.580703,463.862916 C218.768486,463.981775 218.926952,464.022979 219.069572,464.022979" id="Fill-14" fill="#0F1216"></path>
                <path d="M191.187399,484.35103 C204.651502,478.694136 220.739808,475.4271 236.712435,475.4271 C248.764601,475.4271 260.75338,477.288431 271.510875,481.406498 C274.207182,482.557052 277.062748,483.494453 279.78124,484.333597 C280.468192,483.448494 280.799387,483.248019 281.258147,482.465927 C268.12524,476.020602 252.712,473.030111 237.225073,473.030111 C220.692268,473.030111 204.075476,476.441363 190.067042,482.676704 C190.336435,483.376387 190.692984,483.828843 191.187399,484.35103" id="Fill-15" fill="#0F1216"></path>
                <g id="Group-21" fill="#0F1216">
                    <path d="M202.926594,384.840729 C210.975105,394.869255 222.993994,399.312203 235.288613,399.313788 C239.804115,399.313788 244.354479,398.714739 248.747169,397.570523 C269.23292,391.88748 281.599642,369.55626 285.836243,350.020602 C285.238032,349.46038 284.710339,349.350238 283.93623,349.110143 C281.375412,360.61252 276.470875,371.903328 269.21945,381.404913 C260.54262,391.975436 247.736153,397.319334 235.120639,397.319334 C230.637623,397.319334 226.176792,396.6458 221.934645,395.290808 C203.17301,389.438193 193.434454,368.869255 191.616051,350.250396 C190.849866,350.257528 190.325342,350.299525 189.728716,350.722662 C190.99407,363.551506 194.842428,374.982567 202.926594,384.840729" id="Fill-16"></path>
                    <path d="M41.0578658,5.86529319 C37.469393,2.80348653 32.2606006,0.618066561 26.9440511,0.801901743 C21.2630288,1.00475436 0,8.11251981 0,39.7860539 C0,71.4572108 19.0643067,81.5776545 30.6117572,81.5776545 C42.1592077,81.5776545 53.7819297,72.8375594 57.55977,57.4025357 C58.1056869,55.1537242 57.7427987,54.8708399 55.5409073,53.8399366 L48.0256358,51.0293185 C46.2817125,50.3732171 46.1937636,50.4667195 45.0940064,53.4667195 C44.3381214,55.5190174 41.0578658,64.7123613 33.3603578,64.7123613 C25.6636422,64.7123613 22.3627859,53.2805071 22.3627859,41.4714739 C22.3627859,29.663233 24.3816486,18.4199683 33.9118211,18.4199683 C43.4435783,18.4199683 45.3689457,28.5792393 46.0099425,32.2884311 C46.2817125,33.8843106 46.4663259,33.9746434 48.3916933,33.9746434 L55.3578786,33.9746434 C56.7317827,33.9746434 56.8236933,33.8843106 56.8236933,30.6030111 L56.8236933,4.92551506 C56.8236933,3.24009509 56.4584281,3.24009509 53.7082428,3.24009509 L47.4781342,3.24009509 C46.1937636,3.24009509 46.2817125,3.52139461 45.2778275,5.29873217 C44.6891246,6.33993661 43.2589649,7.73692552 41.0578658,5.86529319" id="Fill-18"></path>
                    <path d="M311.530786,45.5958796 L300.99039,45.5958796 C298.698173,45.5958796 298.545252,45.5744849 299.004805,43.981775 L305.477367,23.7630745 C305.847387,22.7305864 306.260192,22.7155309 306.627042,23.933439 L313.062364,44.0118859 C313.613035,45.4144216 313.455361,45.5958796 311.530786,45.5958796 L311.530786,45.5958796 Z M344.066326,66.3977813 L341.867604,66.3977813 C340.764677,66.3977813 340.718722,66.2908082 339.988984,64.2290016 L325.508319,18.6228209 C325.055105,17.1236133 325.002019,16.7353407 326.380677,16.7353407 L329.40184,16.7353407 C332.243144,16.7353407 332.334262,16.7353407 332.334262,14.6695721 L332.334262,6.05229794 C332.334262,3.55467512 332.15361,3.24009509 329.952511,3.24009509 L291.823105,3.24009509 C288.705278,3.24009509 288.525419,3.24009509 288.525419,5.86529319 L288.525419,15.048336 C288.525419,17.0158479 288.705278,17.1085578 290.910339,17.1085578 L293.568613,17.1085578 C295.947195,17.1085578 295.947195,17.481775 295.493981,18.699683 L280.673406,64.8803487 C280.396882,65.7226624 279.91039,66.3977813 278.627604,66.3977813 L276.792562,66.3977813 C274.594633,66.3977813 274.410812,66.5839937 274.410812,68.459588 L274.410812,77.0816165 C274.410812,79.9881141 274.410812,80.0760697 276.059655,80.0760697 L295.860038,80.0760697 C298.145125,80.0760697 298.241789,79.8621236 298.241789,78.2044374 L298.241789,69.2083994 C298.241789,66.677496 298.241789,66.3977813 296.226888,66.3977813 L293.202556,66.3977813 C291.823105,66.3977813 291.865891,66.3240887 292.509265,64.2591125 L294.684217,57.4706815 C295.140601,56.0689382 295.214288,55.9968304 297.23315,55.9968304 L314.644652,55.9968304 C316.38699,55.9968304 316.816435,56.0372425 317.367105,57.4445325 L319.542058,64.2305864 C320.091144,66.1045959 320.145022,66.3977813 318.585712,66.3977813 L315.833942,66.3977813 C314.00207,66.3977813 313.728716,66.4928685 313.822211,69.2083994 L313.822211,78.2044374 C313.822211,79.9881141 313.912537,80.0760697 316.207131,80.0760697 L344.802403,80.0760697 C346.358543,80.0760697 346.448077,79.9881141 346.448077,77.0816165 L346.448077,68.459588 C346.448077,66.5839937 346.358543,66.3977813 344.066326,66.3977813 L344.066326,66.3977813 Z" id="Fill-19"></path>
                    <path d="M394.476882,53.0919176 L399.427374,53.0919176 C401.812294,53.0919176 401.812294,53.4667195 401.812294,54.7773376 C401.812294,59.0879556 398.511438,64.7123613 390.260089,64.7123613 C382.564958,64.7123613 379.267272,53.2805071 379.267272,41.4714739 C379.267272,29.663233 381.279003,18.4199683 390.812345,18.4199683 C398.754684,18.4199683 402.06584,24.1251981 402.912051,27.7892235 C403.278901,29.385103 403.278901,29.4770206 405.293802,29.4770206 L412.259195,29.4770206 C413.72501,29.4770206 413.72501,29.385103 413.72501,26.1038035 L413.72501,4.92551506 C413.72501,3.24009509 413.54515,3.24009509 410.609559,3.24009509 L404.377073,3.24009509 C403.09508,3.24009509 402.912051,3.42630745 402.179144,5.29873217 C401.739399,6.41759113 400.160281,7.73692552 397.962351,5.86529319 C394.369917,2.80348653 389.160332,0.618066561 383.843783,0.801901743 C378.160383,1.00475436 356.901316,8.11251981 356.901316,39.7860539 C356.901316,71.4572108 375.965623,81.5776545 387.514658,81.5776545 C404.927744,81.5776545 418.488511,68.5277338 418.488511,43.3454834 C418.488511,40.9104596 418.215157,40.72187 414.823974,40.72187 L394.110824,40.72187 C392.091962,40.72187 391.912102,40.8486529 391.912102,43.159271 L391.912102,51.4041204 C391.912102,53.0919176 391.998466,53.0919176 394.476882,53.0919176" id="Fill-20"></path>
                </g>
                <path d="M461.324371,67.8066561 C454.309061,67.8066561 448.619323,56.4683043 448.619323,42.4825674 C448.619323,28.4976228 454.309061,17.1584786 461.324371,17.1584786 C468.336511,17.1584786 474.026249,28.4976228 474.026249,42.4825674 C474.026249,56.4683043 468.336511,67.8066561 461.324371,67.8066561 L461.324371,67.8066561 Z M461.454313,3 C442.612652,3 427.336486,20.681458 427.336486,42.4881141 C427.336486,64.2971474 442.612652,81.9754358 461.454313,81.9754358 C480.295974,81.9754358 495.572141,64.2971474 495.572141,42.4881141 C495.572141,20.681458 480.295974,3 461.454313,3 L461.454313,3 Z" id="Fill-22" fill="#0F1216"></path>
                <path d="M78.8846006,64.618859 L78.8846006,18.9825674 C78.8846006,17.3882726 78.7926901,17.1085578 77.0519361,17.1085578 L74.8484601,17.1085578 C72.5562428,17.1085578 72.4682939,16.8288431 72.4682939,15.3280507 L72.4682939,5.20919176 C72.4682939,3.52139461 72.5562428,3.24009509 75.3103898,3.24009509 L102.16253,3.24009509 C104.178224,3.24009509 104.548243,3.36687797 104.548243,5.4889065 L104.548243,14.6695721 C104.548243,16.7353407 104.270134,16.7353407 102.16253,16.7353407 L100.695131,16.7353407 C99.5026709,16.7353407 99.3220192,16.7353407 99.4131374,18.5166403 L99.4131374,31.5388273 C99.4131374,34.818542 99.4131374,35.1006339 102.16253,35.1006339 L116.460166,35.1006339 C119.210351,35.1006339 119.210351,35.0071315 119.210351,31.5388273 L119.210351,18.5166403 C119.210351,16.7353407 119.116856,16.7353407 117.924396,16.7353407 L116.553661,16.7353407 C114.168741,16.7353407 114.076831,16.5459588 114.076831,14.6695721 L114.076831,5.4889065 C114.076831,3.45800317 114.444473,3.24009509 116.460166,3.24009509 L143.316268,3.24009509 C146.158364,3.24009509 146.158364,3.33280507 146.158364,5.20919176 L146.158364,15.3280507 C146.158364,16.8288431 146.063284,17.1085578 143.774236,17.1085578 L141.481227,17.1085578 C139.833176,17.1085578 139.740473,17.2004754 139.740473,18.9825674 L139.740473,64.618859 C139.740473,66.3026941 139.833176,66.3977813 141.850454,66.3977813 L144.232204,66.3977813 C146.128256,66.3977813 146.158364,66.4928685 146.158364,69.2083994 L146.158364,78.2044374 C146.158364,79.8019017 146.158364,80.0760697 143.774236,80.0760697 L115.452319,80.0760697 C113.616486,80.0760697 113.530121,80.0760697 113.530121,77.1743265 L113.530121,68.459588 C113.435834,66.4928685 113.530121,66.3977813 115.912665,66.3977813 L117.380064,66.3977813 C119.025738,66.3977813 119.025738,66.3026941 119.025738,64.4286846 L119.025738,50.4667195 C119.025738,47 118.843502,46.9057052 116.460166,46.9057052 L102.16253,46.9057052 C99.7815719,46.9057052 99.5977508,47.1885895 99.5977508,50.4667195 L99.5977508,64.4286846 C99.5977508,66.3977813 99.5977508,66.3977813 101.24501,66.3977813 L102.712409,66.3977813 C105.096537,66.3977813 105.096537,66.4928685 105.096537,68.459588 L105.096537,77.0816165 C105.096537,79.9881141 105.096537,80.0760697 103.168792,80.0760697 L74.8484601,80.0760697 C72.4682939,80.0760697 72.4682939,80.0760697 72.4682939,78.2044374 L72.4682939,69.2083994 C72.4682939,66.4928685 72.5562428,66.3977813 74.390492,66.3977813 L76.7746198,66.3977813 C78.8846006,66.3977813 78.8846006,66.3977813 78.8846006,64.618859" id="Fill-23" fill="#0F1216"></path>
                <g id="Group-27" transform="translate(159.258786, 0.000000)" fill="#0F1216">
                    <path d="M7.12227476,18.5166403 C7.12227476,16.7353407 7.03115655,16.7353407 5.84028115,16.7353407 L3.18279872,16.7353407 C0.795501597,16.7353407 0.705968051,16.5459588 0.705968051,14.6695721 L0.705968051,5.4889065 C0.705968051,3.45800317 1.07361022,3.24009509 3.08851118,3.24009509 L29.9430288,3.24009509 C32.7851246,3.24009509 32.7851246,3.33280507 32.7851246,5.20919176 L32.7851246,15.3280507 C32.7851246,16.8288431 32.6932141,17.1085578 30.4025815,17.1085578 L29.2117061,17.1085578 C27.561278,17.1085578 27.4717444,17.2004754 27.4717444,18.9825674 L27.4717444,64.618859 C27.4717444,66.3026941 27.561278,66.3977813 29.5769712,66.3977813 L31.4112204,66.3977813 C33.3041022,66.3977813 33.3357955,66.4928685 33.3357955,69.2083994 L33.3357955,78.2044374 C33.3357955,79.8019017 33.3357955,80.0760697 30.9516677,80.0760697 L2.62895847,80.0760697 C0.795501597,80.0760697 0.705968051,80.0760697 0.705968051,77.1743265 L0.705968051,68.459588 C0.61484984,66.4928685 0.705968051,66.3977813 3.08851118,66.3977813 L5.28881789,66.3977813 C6.93845367,66.3977813 7.12227476,66.3977813 7.12227476,64.522187 L7.12227476,18.5166403" id="Fill-24"></path>
                    <path d="M84.9079105,5.86529319 C81.315476,2.80348653 76.1058914,0.618066561 70.7909265,0.801901743 C65.1075272,1.00475436 43.8444984,8.11251981 43.8444984,39.7860539 C43.8444984,71.4572108 62.9103898,81.5776545 74.4586326,81.5776545 C86.0044984,81.5776545 97.6303898,72.8375594 101.404268,57.4025357 C101.950185,55.1537242 101.587297,54.8708399 99.3861981,53.8399366 L91.8717188,51.0293185 C90.1317572,50.3732171 90.0398466,50.4667195 88.9385048,53.4667195 C88.1857891,55.5190174 84.9079105,64.7123613 77.2080256,64.7123613 C69.5081406,64.7123613 66.2104537,53.2805071 66.2104537,41.4714739 C66.2104537,29.663233 68.2229776,18.4199683 77.7563195,18.4199683 C87.286492,18.4199683 89.2158211,28.5792393 89.8544409,32.2884311 C90.1317572,33.8843106 90.3139936,33.9746434 92.2385687,33.9746434 L99.2055463,33.9746434 C100.578658,33.9746434 100.671361,33.8843106 100.671361,30.6030111 L100.671361,4.92551506 C100.671361,3.24009509 100.305304,3.24009509 97.5535335,3.24009509 L91.3242173,3.24009509 C90.0398466,3.24009509 90.1317572,3.52139461 89.1215335,5.29873217 C88.533623,6.33993661 87.1050479,7.73692552 84.9079105,5.86529319" id="Fill-26"></path>
                </g>
                <path d="M95.1155272,159.512678 L95.1155272,146.487322 C95.1155272,143.957211 95.3001406,143.770206 98.2333546,143.770206 C100.981955,143.770206 111.616639,144.143423 111.616639,153.513471 C111.616639,162.884311 101.531834,162.510301 98.2333546,162.510301 C95.3001406,162.510301 95.1155272,162.510301 95.1155272,159.512678 L95.1155272,159.512678 Z M95.1155272,116.030111 C95.1155272,113.409667 95.2090224,113.220285 97.8657125,113.220285 C100.61669,113.220285 111.616639,113.594295 111.616639,122.96355 C111.616639,132.335975 101.531834,131.961965 98.2333546,131.961965 C95.1155272,131.961965 95.1155272,131.772583 95.1155272,129.245642 L95.1155272,116.030111 L95.1155272,116.030111 Z M118.21439,137.96038 C122.065125,134.772583 129.027348,130.464342 129.027348,119.591125 C129.027348,107.784469 117.11701,100.102219 109.966211,100.102219 L71.4707476,100.102219 C68.3576741,100.102219 68.171476,100.288431 68.171476,102.538827 L68.171476,112.283677 C68.171476,113.784469 68.3228115,113.970681 70.5548115,113.970681 L73.1195911,113.970681 C74.5869904,113.970681 74.5869904,114.348653 74.5869904,116.405705 L74.5869904,161.572108 C74.5869904,163.164818 74.2209329,163.259905 72.661623,163.259905 L70.186377,163.259905 C68.3576741,163.259905 68.0795655,163.542789 68.171476,165.694929 L68.171476,175.068146 C68.171476,176.753566 68.474147,176.938986 70.5548115,176.938986 L112.347962,176.938986 C122.798032,176.938986 130.496332,167.567353 130.496332,156.886688 C130.496332,146.206022 123.713968,141.896989 118.21439,137.96038 L118.21439,137.96038 Z" id="Fill-28" fill="#0F1216"></path>
                <path d="M201.865661,115.660063 L201.865661,154.827258 C201.865661,164.760697 196.733725,179.375594 176.936511,179.375594 C157.140882,179.375594 147.610709,164.760697 147.610709,154.827258 L147.610709,115.751189 C147.610709,114.064184 147.333393,113.970681 145.865201,113.970681 L143.572984,113.970681 C141.283936,113.970681 141.192818,113.784469 141.192818,111.908082 L141.192818,103.007132 C141.192818,100.102219 141.467757,100.102219 144.214773,100.102219 L170.891016,100.102219 C172.902748,100.102219 173.271182,100.194929 173.271182,102.633914 L173.271182,111.535658 C173.271182,113.504754 173.180856,113.594295 170.33876,113.594295 L168.230364,113.594295 C166.945994,113.594295 166.854875,113.784469 166.854875,115.377971 L166.854875,153.327258 C166.854875,157.637876 170.157316,164.568938 178.402326,164.568938 C187.935668,164.568938 189.952946,157.264659 189.952946,153.327258 L189.952946,115.563391 C189.952946,113.594295 189.768332,113.594295 187.935668,113.594295 L186.102211,113.594295 C183.812371,113.594295 183.535847,113.504754 183.535847,111.535658 L183.535847,102.633914 C183.535847,100.383518 183.535847,100.102219 185.919182,100.102219 L205.716396,100.102219 C208.926134,100.102219 209.018045,100.102219 209.018045,102.724247 L209.018045,111.908082 C209.018045,113.876387 209.018045,113.970681 206.633917,113.970681 L203.608,113.970681 C201.959157,113.970681 201.865661,113.970681 201.865661,115.660063" id="Fill-29" fill="#0F1216"></path>
                <path d="M294.80069,163.259905 L292.143208,163.259905 C290.310543,163.259905 290.127514,163.542789 290.127514,166.069731 L290.127514,175.068146 C290.127514,176.938986 290.310543,176.938986 292.509265,176.938986 L341.637827,176.938986 C343.803272,176.938986 344.016409,176.938986 344.016409,173.945325 L344.016409,151.827258 C344.016409,149.860539 343.929252,149.766244 341.637827,149.766244 L334.488613,149.766244 C332.286722,149.766244 332.197188,149.955626 332.197188,152.579239 L332.197188,160.358162 C332.197188,163.355784 331.920665,163.446117 329.904971,163.446117 L318.998518,163.446117 C315.6937,163.446117 315.607335,163.164818 315.607335,161.102219 L315.607335,116.7813 C315.607335,113.876387 315.607335,113.594295 317.346505,113.594295 L320.00478,113.594295 C322.117137,113.594295 322.203502,113.409667 322.203502,111.535658 L322.203502,102.917591 C322.203502,100.194929 322.203502,100.102219 319.82492,100.102219 L293.428371,100.102219 C290.217048,100.102219 290.127514,100.323296 290.127514,102.724247 L290.127514,111.908082 C290.127514,113.784469 290.310543,113.970681 292.509265,113.970681 L294.621623,113.970681 C296.453495,113.970681 296.54699,114.097464 296.54699,116.7813 L296.54699,161.197306 C296.54699,163.073693 296.453495,163.259905 294.80069,163.259905" id="Fill-30" fill="#0F1216"></path>
                <path d="M408.758671,155.577655 C408.758671,171.883518 393.544307,178.81775 386.941802,178.81775 C382.098275,178.81775 376.439438,176.830428 372.831157,173.759113 C370.632435,171.883518 368.48046,174.03962 367.881457,175.068146 C366.7817,176.938986 366.688204,177.129952 365.681942,177.129952 L362.381086,177.129952 C359.172933,177.129952 359.266428,177.129952 359.266428,175.442948 L359.266428,154.263074 C359.266428,150.892235 359.449457,150.892235 360.732243,150.892235 L365.495744,150.892235 C367.327617,150.892235 367.421904,151.006339 367.881457,152.579239 C369.119872,156.846276 373.777201,163.073693 381.718748,163.073693 C385.386454,163.073693 388.593815,162.137084 388.593815,158.762282 C388.593815,151.639461 384.380192,149.955626 376.861751,146.017433 C369.346479,142.081616 357.984435,137.584786 357.984435,121.279715 C357.984435,104.977021 372.831157,98.2282092 379.42653,98.2282092 C384.277188,98.2282092 389.386939,100.213946 392.991259,103.290016 C395.19315,105.164818 397.341955,103.010301 397.941751,101.977813 C399.134211,99.9136292 399.134211,99.9136292 400.143642,99.9136292 L403.442121,99.9136292 C406.466454,99.9136292 406.559157,99.9492868 406.559157,101.602219 L406.559157,122.780507 C406.559157,126.061014 406.559157,126.152139 405.090965,126.152139 L400.326671,126.152139 C398.494799,126.152139 398.401304,125.940571 397.941751,124.468304 C396.628856,120.223455 391.219604,113.970681 383.277265,113.970681 C379.979578,113.970681 378.144537,116.030111 378.144537,119.031696 C378.144537,123.528526 383.094236,127.461173 391.712435,131.588748 C400.326671,135.711569 408.758671,142.081616 408.758671,155.577655" id="Fill-31" fill="#0F1216"></path>
                <path d="M226.551565,163.259905 L223.891706,163.259905 C222.061419,163.259905 221.876013,163.542789 221.876013,166.069731 L221.876013,175.068146 C221.876013,176.938986 222.061419,176.938986 224.259348,176.938986 L273.384741,176.938986 C275.553355,176.938986 275.766492,176.938986 275.766492,173.945325 L275.766492,151.827258 C275.766492,149.860539 275.680128,149.766244 273.384741,149.766244 L266.239489,149.766244 C264.040767,149.766244 263.947272,149.955626 263.947272,152.579239 L263.947272,160.358162 C263.947272,163.355784 263.667578,163.446117 261.655054,163.446117 L250.746224,163.446117 C247.446952,163.446117 247.356626,163.164818 247.356626,161.102219 L247.356626,116.7813 C247.356626,113.876387 247.356626,113.594295 249.098965,113.594295 L251.754863,113.594295 C253.864051,113.594295 253.954377,113.409667 253.954377,111.535658 L253.954377,102.917591 C253.954377,100.194929 253.954377,100.102219 251.568665,100.102219 L225.1737,100.102219 C221.969508,100.102219 221.876013,100.323296 221.876013,102.724247 L221.876013,111.908082 C221.876013,113.784469 222.061419,113.970681 224.259348,113.970681 L226.36616,113.970681 C228.198824,113.970681 228.288358,114.097464 228.288358,116.7813 L228.288358,161.197306 C228.288358,163.073693 228.198824,163.259905 226.551565,163.259905" id="Fill-32" fill="#0F1216"></path>
                <path d="M50.5127668,191.833597 C61.260754,212.5729 82.9334185,219.249604 104.973725,218.194929 C117.310339,218.091918 129.157291,216.805864 141.331476,216.033281 L141.32593,216.87401 C135.132268,234.337559 131.116728,252.12916 128.552741,270.442948 C96.6415591,271.614897 63.9277444,269.087163 40.3526901,247.77496 C24.3824409,231.530903 20.3066837,209.259113 23.7778914,187.255943 C27.5818786,182.73851 31.498377,178.952456 35.468754,174.435816 C40.7036933,179.840729 49.068345,184.259905 50.5127668,191.833597" id="Fill-33" fill="#FFFFFF"></path>
                <path d="M447.369815,182.523772 C448.176409,185.725832 448.32299,188.753566 448.632792,192.120444 C450.154863,216.675911 439.544741,239.318542 418.595476,251.816165 C395.663003,265.64897 369.160281,270.385895 341.034863,271.075277 C340.555502,268.550713 340.241738,265.351823 339.928767,262.493661 C337.707067,246.343106 334.665304,230.015055 330.138709,214.519017 C360.239412,214.177496 396.876064,222.108558 416.750134,194.470681 C419.401278,190.618859 422.053214,187.09588 424.378709,182.905705 C428.82924,180.909667 433.119719,178.07607 437.406236,175.744849 C441.013725,177.610935 443.758364,180.488114 447.369815,182.523772" id="Fill-34" fill="#FFFFFF"></path>
                <path d="M332.957035,306.845483 C333.072716,316.263867 330.065022,326.001585 321.650454,330.495246 C317.696716,332.660856 313.086134,333.477021 308.645112,333.280507 C308.489022,332.444532 308.162581,331.431062 308.49853,330.425515 C315.401329,330.62916 321.997495,328.143423 325.641431,322.44691 C328.133316,318.255151 329.138786,313.551506 329.168895,308.341521 C330.324907,307.675119 331.640971,307.175119 332.957035,306.845483" id="Fill-35" fill="#FFFFFF"></path>
                <path d="M163.046927,332.414422 C161.802965,332.623613 161.216639,332.940571 158.871335,332.42393 C147.800077,332.42393 136.209048,323.545959 136.887284,308.507924 C138.193048,307.997623 139.666786,308.194136 141.028013,308.634707 C141.028013,317.172742 144.476243,328.835975 162.590543,328.835975 C163.836089,330.815372 162.638083,331.015055 163.046927,332.414422" id="Fill-36" fill="#FFFFFF"></path>
            </g>
        </g>
    </g>
</svg>