<?xml version="1.0" encoding="UTF-8" standalone="no"?>
<svg width="500px" height="500px" viewBox="0 0 500 500" version="1.1" xmlns="http://www.w3.org/2000/svg" xmlns:xlink="http://www.w3.org/1999/xlink">
    <!-- Generator: Sketch 44.1 (41455) - http://www.bohemiancoding.com/sketch -->
    <title>CLE</title>
    <desc>Created with Sketch.</desc>
    <defs>
        <polygon id="path-1" points="0 496.428571 0 2.86785714 247.835714 2.86785714 247.835714 496.428571"></polygon>
    </defs>
    <g id="Page-1" stroke="none" stroke-width="1" fill="none" fill-rule="evenodd">
        <g id="CLE">
            <g id="Page-1" transform="translate(125.000000, 0.000000)">
                <g id="Group-3" transform="translate(0.000000, 0.703571)">
                    <mask id="mask-2" fill="white">
                        <use xlink:href="#path-1"></use>
                    </mask>
                    <g id="Clip-2"></g>
                    <path d="M106.704286,251.831786 C108.79,249.585357 111.132857,247.313929 113.54,245.031786 L113.272143,274.628214 L113.304286,274.603214 L112.900714,316.481786 C88.3007143,323.978214 76.5614286,325.224643 68.1828571,323.260357 L67.1292857,322.960357 C64.7507143,322.0175 64.34,319.8675 64.3292857,319.285357 C63.9257143,302.760357 92.3864286,267.206786 106.704286,251.831786 M157.168571,258.1925 C156.715,259.049643 247.836429,205.8925 247.836429,205.8925 L247.836429,187.699643 L243.375714,183.156786 C218.900714,159.871071 182.44,159.7175 145.472143,169.799643 L145.507857,83.1067857 C145.568571,70.6139286 145.697143,58.7282143 144.729286,47.6710714 C143.693571,36.3710714 141.486429,25.4210714 136.593571,15.4675 L130.382857,2.8675 L124.565,15.6532143 C119.682857,26.3746429 117.347143,37.6389286 116.19,49.1460714 C115.082857,60.4317857 115.082857,72.2889286 115.025714,84.7925 L114.154286,180.578214 C76.0542857,196.210357 41.0114286,219.113929 22.3185714,234.563929 L1.79,266.353214 L27.3185714,260.053214 C-11.8707143,309.278214 2.115,341.499643 3.75428571,344.828214 C7.89714286,356.435357 17.315,365.713929 32.5971429,371.8175 C44.1971429,376.453214 57.3471429,377.038929 68.6364286,376.513929 C82.7471429,375.860357 97.5792857,372.703214 112.436429,367.9675 L112.382857,374.246071 C99.6257143,381.199643 89.3328571,393.399643 83.865,408.028214 C81.7614286,413.778214 80.4614286,419.906786 80.1185714,426.206786 C80.0935714,427.253214 80.1114286,430.724643 79.7435714,435.485357 C79.3864286,439.949643 78.6257143,445.5925 77.0007143,451.285357 L76.0828571,454.474643 L72.7507143,462.360357 C73.0792857,463.721071 82.1971429,460.656786 86.2971429,459.156786 C86.9078571,458.949643 87.8435714,458.5925 89.0507143,457.910357 C91.24,456.685357 94.09,454.685357 97.5721429,451.331786 C99.6864286,449.285357 101.568571,446.949643 103.175714,444.788929 C104.715,442.746071 106.129286,440.685357 107.386429,438.956786 C109.172143,436.488929 110.865,434.003214 112.536429,431.663929 L112.647143,452.7925 L112.718571,466.846071 L112.729286,470.603214 C112.093571,471.503214 111.322143,472.681786 110.518571,474.1425 C108.636429,477.6425 104.015,488.910357 103.518571,495.228214 C103.393571,496.746071 107.861429,496.521071 114.375714,496.178214 C115.268571,496.103214 116.554286,496.010357 118.118571,495.788929 C121.068571,495.399643 125.065,494.646071 129.129286,493.385357 C136.404286,491.146071 148.032857,485.899643 149.675714,474.199643 L150.236429,470.024643 L149.065,469.246071 C164.64,455.621071 168.807857,440.7925 168.225714,428.485357 C168.018571,424.2675 167.250714,420.421071 166.297143,417.131786 L171.897143,418.063929 L178.447143,419.228214 L179.597143,412.649643 C183.468571,390.181786 170.74,371.496071 145.425714,367.853214 L145.425714,354.856786 C170.297143,342.985357 193.750714,327.535357 212.168571,311.521071 L213.047143,310.7675 L220.479286,273.424643 L205.972143,281.4675 C182.636429,291.6925 161.454286,299.810357 145.465,305.560357 L145.468571,221.056786 C150.007857,218.399643 154.511429,216.085357 158.818571,214.2675 C170.711429,209.263929 178.400714,207.274643 181.968571,207.653214 C181.000714,210.703214 179.404286,214.503214 177.032857,219.128214 C177.032857,219.128214 158.000714,256.678214 157.168571,258.1925" id="Fill-1" fill="#FDBA30" mask="url(#mask-2)"></path>
                </g>
                <path d="M242.531786,203.600357 L242.3675,191.871786 L182.6175,228.425357 C182.1675,229.503929 174.374643,244.528929 173.621071,245.2575 L242.531786,203.600357 Z" id="Fill-4" fill="#002C62"></path>
                <path d="M18.0278571,256.860357 C24.6135714,255.231786 31.9742857,253.399643 39.2528571,251.656786 C43.41,246.788929 47.4314286,242.478214 51.0171429,238.8675 C43.5564286,240.571071 35.3171429,242.463929 27.2528571,244.321071 C25.7314286,246.363929 18.9421429,255.638929 18.0278571,256.860357" id="Fill-6" fill="#002C62"></path>
                <path d="M139.410357,340.786071 C136.321071,342.286071 133.188929,343.721786 130.035357,345.100357 C128.0425,345.978929 126.049643,346.8575 124.0675,347.671786 C122.688929,348.2325 121.288929,348.7325 119.921071,349.268214 C101.038929,356.600357 81.9246429,361.414643 64.1853571,362.243214 C53.2746429,362.753929 41.2139286,362.093214 30.9532143,358.014643 C21.5282143,354.250357 14.9425,349.343214 10.5925,343.675357 C13.9103571,353.150357 21.6853571,361.271786 35.7210714,366.853929 C46.0103571,370.950357 58.0175,371.5825 68.9567857,371.071786 C85.1782143,370.321786 102.5425,366.2325 119.835357,359.953929 C121.221071,359.453929 122.606786,358.975357 123.996071,358.453929 C126.003214,357.678929 127.9925,356.828929 130.010357,355.993214 C133.163929,354.693214 136.306786,353.339643 139.410357,351.900357 C165.0175,340.136071 189.4175,324.264643 208.456786,307.703929 L211.985357,291.3075 C193.088929,309.443214 167.121071,327.4325 139.410357,340.786071" id="Fill-8" fill="#002C62"></path>
                <path d="M168.885,406.935 C146.602857,400.870714 120.545714,406.338571 108.685,420.681429 C103.788571,426.567143 99.3885714,435.270714 90.7278571,444.185 C92.5778571,433.431429 92.485,429.945714 92.8171429,426.052857 C94.2028571,408.877857 103.167143,394.36 121.095714,385.770714 C121.106429,386.481429 121.288571,387.138571 121.688571,387.717143 C122.427857,388.892143 123.820714,389.767143 125.574286,390.188571 C127.285,390.456429 124.563571,389.713571 125.574286,390.21 C125.849286,390.256429 126.127857,390.331429 126.413571,390.363571 C126.470714,390.377857 126.520714,390.377857 126.567143,390.377857 C126.835,390.427857 127.045714,390.445714 127.285,390.456429 C127.36,390.477857 127.431429,390.477857 127.524286,390.477857 C127.770714,390.492143 127.992143,390.492143 128.220714,390.492143 L128.51,390.492143 C128.806429,390.492143 129.131429,390.477857 129.477857,390.445714 C129.745714,390.427857 130.049286,390.363571 130.335,390.331429 C130.381429,390.331429 130.417143,390.292143 130.477857,390.292143 C130.720714,390.252857 130.985,390.188571 131.213571,390.124286 L131.281429,390.124286 C131.827857,389.988571 132.381429,389.802857 132.902857,389.592143 C134.81,388.949286 136.342143,387.874286 136.938571,386.66 L136.938571,386.645714 C137.124286,386.367143 137.302857,386.099286 137.420714,385.817143 C143.863571,387.174286 149.520714,390.563571 151.977857,394.445714 C140.452857,393.927857 123.592143,397.727857 109.688571,413.774286 C128.752857,398.631429 150.688571,398.549286 164.752857,402.113571 C165.242143,393.670714 153.731429,384.727857 147.381429,381.227857 C158.824286,384.963571 171.085,394.967143 168.885,406.935 L168.885,406.935 Z M150.667143,453.935 C156.499286,441.567143 158.206429,419.799286 144.717143,410.113571 L149.31,410.16 C162.856429,421.017143 156.863571,448.985 150.667143,453.935 L150.667143,453.935 Z M135.317143,465.406429 C147.702857,435.545714 138.663571,413.385 138.788571,412.963571 C154.113571,415.242143 159.177857,448.527857 135.317143,465.406429 L135.317143,465.406429 Z M128.567143,471.424286 C128.567143,473.806429 123.531429,473.795714 123.545714,471.96 L123.763571,414.699286 C124.213571,414.227857 127.677857,412.663571 129.074286,412.531429 L128.567143,471.424286 Z M139.41,375.049286 L139.41,359.195714 C136.306429,360.595714 133.152857,361.931429 129.999286,363.185 L129.963571,379.635 C129.952857,383.552857 123.627857,384.227857 123.870714,381.285 L123.967143,365.545714 C122.56,366.067143 121.163571,366.552857 119.767143,367.06 L119.649286,379.424286 L118.849286,379.952857 C106.435,385.770714 96.0885714,397.235 90.9421429,411.017143 C90.8671429,411.213571 90.7992857,411.388571 90.7314286,411.563571 C88.8671429,416.681429 87.7028571,422.149286 87.4421429,427.76 C87.31,429.888571 87.5778571,442.024286 84.0564286,454.324286 C84.0564286,454.274286 87.31,453.813571 93.5814286,447.756429 C97.06,444.402857 100.163571,439.66 102.66,436.267143 C108.395714,428.381429 112.967143,420.374286 119.727857,416.917143 L119.781429,423.970714 C119.874286,437.413571 120.052857,473.913571 120.024286,474.042143 C119.992143,474.252857 114.238571,480.327857 113.435,490.706429 C113.399286,491.142143 141.677857,489.138571 143.702857,474.481429 C143.702857,474.481429 138.263571,470.902857 138.452857,470.792143 C178.285,443.145714 156.11,409.974286 156.11,409.974286 C165.767143,411.342143 171.131429,412.295714 173.685,412.752857 C177.142143,392.702857 165.249286,376.188571 139.41,375.049286 L139.41,375.049286 Z" id="Fill-10" fill="#002C62"></path>
                <path d="M139.439286,316.197857 C135.921429,317.426429 132.807143,318.483571 130.078571,319.390714 C127.821429,320.151429 125.860714,320.797857 124.203571,321.340714 C122.560714,321.858571 121.164286,322.312143 120.167857,322.615714 C118.771429,323.058571 118,323.305 118,323.305 C13.0678571,355.98 46.6214286,287.783571 94.5678571,236.737143 C97.8392857,233.251429 105.146429,226.308571 113.789286,219.351429 L114.075,189.222857 C78.8142857,204.097857 46.1607143,225.23 27.6071429,240.569286 C39.5821429,237.240714 51.8,234.608571 63.9285714,231.844286 C-40.3142857,331.53 20.0678571,384.194286 119.978571,344.208571 C121.332143,343.676429 122.721429,343.012143 124.085714,342.451429 C126.060714,341.608571 128.039286,340.808571 130.046429,339.901429 C133.135714,338.508571 136.275,336.98 139.410714,335.401429 C161.742857,324.308571 185.464286,308.965714 209.442857,288.712143 C181.267857,301.08 156.178571,310.38 139.439286,316.197857" id="Fill-12" fill="#860037"></path>
                <path d="M239.395,189.172857 C216.584286,167.465714 181.402143,167.858571 145.473571,178.072857 L145.473571,199.183571 C173.055714,185.769286 204.941429,181.565714 183.587857,223.376429 L239.395,189.172857 Z" id="Fill-14" fill="#860037"></path>
                <path d="M152.101071,200.508929 C149.9975,201.398214 147.804643,202.451786 145.4725,203.658929 L145.468929,215.076786 C149.504643,212.794643 153.268929,210.876786 156.8725,209.355357 C169.268929,204.133929 179.865357,200.841071 185.708214,202.719643 C186.586786,188.844643 171.558214,192.319643 152.101071,200.508929" id="Fill-16" fill="#002C62"></path>
                <path d="M113.738214,224.768929 C107.795357,229.654643 102.284643,234.733214 97.6917857,239.668929 C84.2203571,254.176071 53.0632143,291.976071 53.5632143,311.818929 C53.6775,317.018929 55.5025,320.6725 58.5239286,323.111786 C58.4239286,322.329643 58.3489286,321.526071 58.3275,320.6725 C57.8310714,300.815357 88.9953571,263.026071 102.4775,248.529643 C105.773929,244.983214 109.563214,241.358214 113.616786,237.776071 L113.738214,224.768929 Z" id="Fill-18" fill="#002C62"></path>
                <path d="M131.258214,19.6167857 C122.2725,39.3310714 122.426071,61.5239286 122.329643,86.0346429 L121.6225,162.941786 L120.861786,246.306071 L120.858214,246.306071 L120.643929,270.213214 L120.643929,270.256071 L120.236786,315.638214 C121.351071,315.281071 122.7225,314.820357 124.243929,314.323929 L124.511786,267.013214 L124.511786,266.998929 L124.715357,228.7025 L124.786786,216.266786 L124.808214,211.148929 L124.951071,184.9775 L125.343929,117.813214 L125.5725,65.7417857 C126.5475,67.5632143 130.190357,74.8060714 130.508214,100.431071 L130.343929,183.0775 L130.315357,207.548929 L130.308214,212.445357 L130.276071,224.620357 L130.218929,262.234643 L130.218929,262.248929 L130.190357,262.320357 L130.076071,312.373929 C132.851071,311.445357 135.983214,310.359643 139.440357,309.159643 L139.458214,254.520357 L139.458214,254.513214 L139.458214,246.306071 L139.461786,190.731071 L139.461786,181.223929 L139.461786,179.8525 L139.461786,177.159643 L139.461786,162.941786 L139.465357,162.941786 L139.486786,84.3060714 C139.615357,59.7703571 140.061786,37.5275 131.258214,19.6167857" id="Fill-20" fill="#002C62"></path>
                <path d="M95.2853571,420.649643 C96.1282143,418.699643 97.0675,416.8425 98.0746429,415.088929 C105.178214,402.746071 116.031786,395.056786 125.481786,390.324643 C123.731786,389.903214 122.335357,389.024643 121.599643,387.853214 C111.106786,393.513929 98.6889286,404.360357 95.2853571,420.649643" id="Fill-22" fill="#FEFEFE"></path>
            </g>
        </g>
    </g>
</svg>