<?xml version="1.0" encoding="UTF-8" standalone="no"?>
<svg width="500px" height="500px" viewBox="0 0 500 500" version="1.1" xmlns="http://www.w3.org/2000/svg" xmlns:xlink="http://www.w3.org/1999/xlink">
    <!-- Generator: Sketch 39.1 (31720) - http://www.bohemiancoding.com/sketch -->
    <title>DAL</title>
    <desc>Created with Sketch.</desc>
    <defs></defs>
    <g id="NBA" stroke="none" stroke-width="1" fill="none" fill-rule="evenodd">
        <g id="DAL">
            <g id="DMavericks_Global_pms" transform="translate(11.000000, 0.000000)">
                <path d="M460.407774,256.300166 C463.132208,249.564677 473.571031,223.769486 473.571031,223.769486 L429.715361,248.274461 C429.561007,248.368159 416.725545,255.466003 398.103462,263.485075 C407.446868,240.156716 415.702326,216.439469 423.841604,185.320896 C439.337601,126.150912 447.656128,60.9253731 448.002181,58.1799337 C448.002181,58.1741294 451.29092,31.8822554 451.29092,31.8822554 C451.29092,31.8822554 368.664139,54.7802653 360.690833,56.9859038 C331.345285,21.4800995 286.14192,0.368988391 238.663076,0.368988391 C190.979257,0.368988391 145.663861,21.6086235 116.325781,57.3573798 C108.111816,55.0563847 25.2435451,31.8822554 25.2435451,31.8822554 L28.6542743,58.3333333 C28.7380903,59.0049751 37.4790174,125.883914 53.7376562,186.091211 C61.6470625,215.384743 70.4460799,239.08209 79.6002778,261.613599 C59.7914931,253.242952 43.1851424,245.354892 42.9785069,245.258706 L2.28875694,225.812604 C2.28875694,225.812604 12.00975,250.300166 14.7574201,257.21476 C14.2312882,257.005804 0,251.583748 0,251.583748 L13.6412569,288.254561 C13.6412569,288.254561 13.6205104,288.193201 13.6147014,288.176617 C14.5366771,290.852405 20.3291076,306.451907 64.3158958,425.010779 L70.3672431,441.319237 C70.3672431,441.319237 80.2276528,438.18408 83.1329965,437.271973 C85.5611701,443.844113 91.8913507,460.966003 91.8913507,460.966003 L109.635441,451.828358 C123.173795,444.884743 152.212295,433.120232 175.704833,429.322554 C203.632149,467.611111 225.446708,487.458541 226.386111,488.31592 L238.447312,499.170813 L250.302708,488.097844 C251.253729,487.203151 273.29816,466.42869 300.620507,429.339967 C326.820052,432.834992 349.219663,443.399668 360.519882,449.643449 L377.839083,459.205638 L385.402437,440.935323 C385.402437,440.935323 386.321094,438.701493 387.330205,436.25539 C388.780802,436.752073 397.176507,439.599502 397.176507,439.599502 L403.582205,423.287728 C404.812059,420.155058 432.863854,354.320066 459.942222,290.901327 L478,248.61194 C478,248.61194 460.474163,256.267828 460.407774,256.300166" id="Fill-1" fill="#FFFFFF"></path>
                <path d="M433.271316,254.635158 C433.012399,254.774461 412.255913,266.28607 384.79166,276.748756 C397.188125,247.307629 406.973017,221.024046 416.795253,183.475954 C432.302868,124.259536 440.689444,57.9353234 440.770771,57.2703151 L442.707667,41.8134328 L427.68801,45.9767828 C427.68801,45.9767828 242.710309,97.2379768 237.287167,98.7429519 C231.867344,97.2263682 33.8741007,41.8532338 33.8741007,41.8532338 L35.8773854,57.407131 C35.9645208,58.066335 44.603375,124.3267 60.7682396,184.196517 C70.5506424,220.434494 81.8649688,248.397181 92.9784688,274.95937 C66.5581806,264.543118 40.1719167,251.982587 39.8349931,251.81675 L15.9092674,240.388889 L25.6908403,265.022388 C49.2124236,324.242123 61.1815104,356.737148 76.3347743,397.878939 L95.8721944,450.735489 L106.29691,445.360697 C121.868424,437.370647 154.090271,424.548922 179.005191,421.495025 C207.673573,461.462687 230.279819,482.028192 231.270674,482.917081 L238.354368,489.289386 L245.321882,482.777778 C246.327674,481.83665 269.349681,460.138474 297.331767,421.529851 C326.381056,424.510779 351.33083,436.25539 364.040983,443.271973 L374.224208,448.905473 L378.678903,438.15257 C390.243847,410.209784 447.400531,269.008292 447.985583,267.587894 L459.05842,240.220564 L433.271316,254.635158" id="Fill-2" fill="#262420"></path>
                <path d="M454.120747,261.538143 C453.631958,261.738806 407.859309,281.208955 370.420955,290.509121 C385.02734,256.828358 397.766538,226.553068 409.52899,181.628524 C424.917104,122.870647 433.242271,57.0232172 433.323597,56.3640133 L433.893712,51.8167496 L429.473872,53.0431177 C429.473872,53.0431177 238.738594,105.899668 237.109576,106.349917 C235.481389,105.899668 42.3967743,51.8946932 42.3967743,51.8946932 L42.9868056,56.4684909 C43.0656424,57.1310116 51.6405972,122.890547 67.6801528,182.287728 C78.1895139,221.201493 90.5336979,250.605307 102.476229,279.047264 C102.476229,279.047264 104.572458,284.067993 106.410601,288.46932 C74.0426979,280.276119 30.1579826,264.897181 29.6924306,264.73466 L23.5099653,262.567164 L25.8161493,268.691542 C45.0515,319.822554 54.8978021,347.288557 65.3191979,376.360697 L86.4599097,434.863184 L89.2482431,433.994196 C119.111625,424.699834 157.725892,417.343284 181.930451,414.254561 C209.822913,454.600332 235.784288,477.280265 236.051503,477.50995 L238.095451,479.279436 L240.099566,477.466833 C240.349354,477.237148 265.04851,454.722222 293.740958,414.553897 C318.620194,416.209784 364.916486,426.669983 382.508712,433.628524 L385.311983,434.735489 L386.46383,431.957711 C398.010517,404.070481 457.525667,266.942786 458.122337,265.559701 L461.187014,258.514096 L454.120747,261.538143" id="Fill-3" fill="#FFFFFF"></path>
                <path d="M359.990431,299.205638 L362.380431,293.688226 C378.551104,256.445274 391.319347,227.033167 403.617059,180.079602 C416.577,130.590381 424.495535,76.013267 426.656493,60.1641791 C418.150417,62.5149254 237.9245,112.468491 237.9245,112.468491 L237.101278,112.695688 C237.101278,112.695688 58.2213958,62.6658375 49.6754861,60.2777778 C51.9053229,76.1650083 60.0877535,130.712272 73.5829549,180.695688 C83.9852639,219.21393 96.2531007,248.432007 108.114306,276.679104 L116.68926,297.21476 L184.847413,407.728856 L185.896358,409.268657 C209.30259,443.446103 231.41341,464.926202 238.008316,471.036484 C244.411524,464.893864 265.691653,443.570481 289.768413,409.616915 L290.736861,408.242952 L359.990431,299.205638" id="Fill-4" fill="#848683"></path>
                <path d="M108.527576,232.338308 C106.718479,229.737977 98.832309,217.145108 98.8298194,196.257877 C98.8298194,195.635987 98.8381181,195.008292 98.8530556,194.372305 C93.4531493,179.81592 90.5129514,164.157546 90.5129514,147.869818 C90.5129514,109.127695 107.13175,73.9917081 133.9595,48.5480929 C160.78476,23.1102819 197.818972,7.35406302 238.656437,7.35406302 C279.494733,7.35406302 316.532264,23.1102819 343.354205,48.5480929 C370.179465,73.9917081 386.794944,109.127695 386.794944,147.869818 C386.794944,162.231343 384.515316,176.099502 380.275556,189.1534 C380.269747,215.68408 372.444986,240.436153 358.911611,261.378939 C358.778003,261.547264 358.088389,262.258706 356.134896,263.307629 C356.134896,263.313433 356.036142,263.368988 355.919132,263.514096 C355.802951,263.662521 355.680962,263.874793 355.669344,264.211443 C355.660215,264.223051 355.422045,265.806799 354.901722,267.053068 L355.128274,266.960199 L354.55567,267.756219 C329.263163,302.387231 287.736083,324.966003 240.79416,324.966003 C179.275726,324.962687 127.053396,286.182421 108.527576,232.338308" id="Fill-5" fill="#262420"></path>
                <path d="M438.74674,273.70398 C437.810656,274.110282 344.351698,314.392206 237.261441,313.930348 L237.258122,313.930348 C142.974281,313.524046 36.0773819,273.137645 35.007691,272.736318 L12.4313194,264.112769 L20.4627153,285.715589 C20.61375,286.305141 20.61375,286.305141 71.1439931,422.474295 L74.7812743,432.276949 L84.755375,429.119403 C107.01225,422.06136 166.387983,405.639303 236.865597,405.639303 C302.354087,405.639303 359.545625,419.130182 383.017417,427.097015 L392.935917,430.466833 L396.79809,420.629353 C398.217153,417.026534 431.328611,339.370647 453.239434,288.05141 L464.094847,262.627695 L438.74674,273.70398" id="Fill-6" fill="#005291"></path>
                <path d="M439.779087,286.915423 L430.243983,290.395522 C430.243983,290.395522 409.173809,298.095357 409.011156,298.147595 C408.019472,298.452736 400.380601,300.90796 394.35249,305.94942 C392.279497,307.674959 390.170819,310.176617 388.304462,312.762023 C388.682049,311.716418 388.900302,311.094527 388.91524,311.045605 L391.758344,303.189055 L383.677986,305.344942 L364.47417,310.44942 L364.471681,310.461028 C362.633538,310.859038 349.647042,313.698176 345.71267,314.558043 L341.28951,315.299337 L318.815212,319.070481 C317.864191,319.218076 309.172226,320.741294 304.627906,325.310945 C303.621285,326.322554 302.749101,327.446932 301.981479,328.623549 L303.263615,321.063847 L297.590684,321.597844 L279.428344,323.312604 L278.829184,328.010779 C278.363632,327.432007 277.816753,326.879768 277.168632,326.380597 C273.71724,323.718905 268.011944,323.782753 266.348903,323.86733 C266.30492,323.86733 239.726958,324.564677 239.726958,324.564677 L239.726958,324.593698 L218.229406,324.451078 C217.344774,324.477612 210.590535,324.756219 205.937503,329.164179 C205.225483,329.834992 204.614705,330.596186 204.085253,331.407131 C203.9865,328.861526 203.922601,327.330846 203.922601,327.330846 L203.771566,323.500829 C203.771566,323.500829 182.046632,321.531509 181.249965,321.461857 L181.247476,321.446932 L154.99233,318.088723 L156.172392,324.05058 L156.474462,325.592869 C150.484524,318.643449 141.121201,316.179104 140.682205,316.068823 C140.563535,316.039801 113.659437,309.956053 113.659437,309.956053 L116.69258,322.010779 C115.910021,320.627695 115.07601,319.337479 114.200507,318.222222 C110.271944,313.218076 106.907687,309.467662 99.3468229,306.716418 C92.7436181,304.319237 79.2301597,301.143449 78.655066,300.998342 L70.9954479,299.208126 L71.012875,299.257877 C64.0835347,296.253731 48.8174097,291.24461 43.6349271,289.567993 L35.0483542,286.787728 L82.6649549,415.425373 C82.6649549,415.425373 100.137681,410.593698 101.042229,410.3466 C101.042229,410.352405 101.053847,410.378939 101.053847,410.378939 C101.053847,410.378939 119.335687,406.011609 120.665125,405.694859 C121.597889,405.529022 139.839066,402.242952 139.839066,402.242952 L139.810021,402.144279 C144.877983,401.362355 155.116809,399.793532 156.135049,399.640133 C156.966569,399.517413 165.823677,398.247927 170.711559,397.548093 L170.714878,397.579602 C170.714878,397.579602 189.16767,395.679934 189.246507,395.665008 C191.209128,395.539801 197.225622,394.93864 200.418927,392.393864 C201.610608,391.44942 202.55001,390.423715 203.291906,389.395522 L203.559122,394.444444 L225.327208,393.738806 L225.478243,393.727197 C226.147111,393.657546 232.155306,392.94859 235.946941,389.276119 C236.406684,388.831675 236.819125,388.35738 237.191733,387.864013 L236.975969,393.453566 C236.975969,393.453566 253.691031,393.887231 254.539979,393.909619 L254.539979,393.933665 L274.435069,394.444444 L274.444198,394.432836 L288.811583,395.539801 L307.079316,397.519071 C307.782208,397.594527 314.133135,398.158375 320.042576,394.912935 C320.55709,394.619403 321.065795,394.305141 321.545455,393.947761 L320.045066,399.105307 L338.649722,402.263682 C338.649722,402.263682 338.667149,402.19403 338.672958,402.188226 C339.301163,402.304312 352.101771,404.631841 355.197983,405.194859 L357.251059,405.749585 C357.635285,405.85738 366.707326,408.27529 373.904712,407.408789 C382.456431,406.371476 391.18325,399.427861 395.135049,390.507463 L413.628503,347.793532 L413.550497,347.796849 C413.861694,347.079602 439.779087,286.915423 439.779087,286.915423" id="Fill-7" fill="#FFFFFF"></path>
                <polyline id="Fill-8" fill="#262420" points="275.441691 390.240464 287.026552 391.123549 297.998146 325.950249 283.324542 327.33665 275.441691 390.240464"></polyline>
                <path d="M323.383597,330.762023 L317.922281,354.084577 L332.403358,353.700663 L341.969997,319.590381 L319.766233,323.361526 C319.766233,323.361526 311.641062,324.68408 307.95399,328.378939 C302.944118,333.414594 301.664472,342.837479 301.664472,342.837479 L292.775,391.562189 L307.267694,393.041459 C307.267694,393.041459 313.063444,393.764511 317.850083,391.300995 C321.327201,389.502488 323.482351,385.84743 324.698097,382.340796 C325.898906,378.833333 329.193455,364.985904 329.193455,364.985904 L315.517344,364.985904 L312.626937,378.833333 C312.626937,378.833333 312.226115,381.555556 310.210382,384.27529 C308.197969,387.012438 304.258618,386.797678 304.258618,386.797678 L313.732312,343.220564 C313.732312,343.220564 315.255937,337.322554 317.352167,334.266169 C319.826812,330.640133 323.383597,330.762023 323.383597,330.762023" id="Fill-9" fill="#262420"></path>
                <path d="M348.312625,355.191542 L360.731497,315.752073 L348.062007,318.468491 L325.692271,395.539801 L335.61658,397.135158 L346.085278,364.209784 L349.082736,364.137645 C349.082736,364.137645 351.008014,364.788557 351.008014,366.743781 C351.008014,368.690713 350.106785,370.823383 350.106785,370.823383 L341.254656,398.087894 L352.926653,400.267828 L362.566319,371.988391 C362.566319,371.988391 364.084965,367.292703 363.770448,364.985904 C363.244316,361.054726 361.36551,358.759536 361.36551,358.759536 C361.36551,358.759536 363.770448,358.759536 366.992799,355.63267 C370.21183,352.518242 370.21183,350.182421 371.014306,347.852405 C371.819271,345.513267 384.736059,309.920398 384.736059,309.920398 L368.010208,314.10199 L358.149799,345.905473 C358.149799,345.905473 357.419521,349.135987 355.817059,351.472637 C354.20049,353.805141 353.119181,354.635987 352.159031,354.819237 C350.19392,355.203151 348.312625,355.191542 348.312625,355.191542" id="Fill-10" fill="#262420"></path>
                <path d="M406.411201,316.310116 L395.550809,345.513267 L410.432708,344.740464 L431.741882,294.501658 L410.432708,302.291045 C410.432708,302.291045 402.849437,304.542289 397.161569,309.29602 C392.61642,313.102819 387.507795,321.757877 386.300347,324.491708 C385.097049,327.21393 380.269747,338.112769 379.47308,341.626036 C378.664795,345.123549 371.426747,364.596186 371.426747,364.596186 L388.31608,364.596186 L381.081351,383.679934 C381.081351,383.679934 380.269747,387.962687 377.452368,391.46932 C374.639969,394.970978 370.624271,395.359867 370.624271,395.359867 L380.269747,370.823383 L369.815986,370.823383 L358.470125,401.385572 C358.470125,401.385572 366.945497,403.838308 373.381069,403.065506 C379.815812,402.289386 387.507795,396.922886 391.127649,388.743781 C394.747503,380.558872 406.809535,352.518242 406.809535,352.518242 L386.655528,353.518242 L392.805628,335.634328 C392.805628,335.634328 397.068625,325.375622 399.976458,321.757877 C401.851944,319.430348 406.411201,316.310116 406.411201,316.310116" id="Fill-11" fill="#262420"></path>
                <path d="M42.2830833,293.728856 L85.3719618,410.143449 L98.1169687,406.587065 L66.1888924,312.413765 C66.1888924,312.413765 71.012875,312.803483 75.0343819,320.200663 C79.0558889,327.597844 81.0649826,333.048922 82.2782396,337.723881 C83.4848576,342.404643 103.790729,405.267828 103.790729,405.267828 L116.733243,402.266169 L91.9262049,319.430348 C91.9262049,319.430348 95.1427465,319.430348 98.3559687,324.872305 C101.57417,330.325871 102.789917,335.004146 102.789917,335.004146 L121.880042,401.165008 L134.369451,398.674959 L118.469312,337.343284 C118.469312,337.343284 114.880993,326.54063 110.757413,320.921227 C107.605601,316.624378 103.901101,313.155058 97.9717431,311.123549 C91.5685347,308.927032 77.7181528,305.385572 77.7181528,305.385572 L79.7944653,311.600332 C79.7944653,311.600332 75.1248368,306.454395 70.9464861,304.159204 C67.1598299,302.078773 42.2830833,293.728856 42.2830833,293.728856" id="Fill-12" fill="#262420"></path>
                <path d="M143.39834,357.585406 L136.503854,327.446932 C136.503854,327.446932 140.615816,328.330017 143.029052,330.669154 C145.442288,333.010779 146.155139,339.516584 146.155139,339.516584 L149.836403,357.585406 L143.39834,357.585406 L143.39834,357.585406 Z M157.836264,394.863184 L168.737319,393.407131 L159.429597,344.975954 C159.429597,344.975954 157.286066,334.126866 154.569931,329.913765 C149.763375,322.472637 139.568531,319.868988 139.568531,319.868988 L119.609542,315.763682 L140.275573,397.643449 L152.610628,395.595357 L145.009101,364.985904 L152.113542,365.06136 L157.836264,394.863184 L157.836264,394.863184 Z" id="Fill-13" fill="#262420"></path>
                <path d="M160.554889,323.184909 L174.235979,392.820896 L189.010826,391.268657 C189.010826,391.268657 195.745979,391.05141 197.691174,389.514096 C201.747535,386.315091 201.712681,381.727197 201.712681,381.727197 L199.912712,327.6534 L185.681424,326.264511 L190.851458,377.450249 C190.851458,377.450249 191.19751,382.058872 188.839875,384.461857 C186.89717,386.425373 184.823347,386.019071 184.823347,386.019071 L177.507292,325.375622 L160.554889,323.184909" id="Fill-14" fill="#262420"></path>
                <path d="M207.740792,389.929519 L225.106465,389.247098 C225.106465,389.247098 230.162809,388.743781 232.977698,386.00995 C235.790097,383.293532 236.374319,378.334163 236.374319,378.334163 L236.697135,368.49005 L225.030948,368.600332 L225.106465,378.334163 C225.106465,378.334163 225.274927,381.555556 223.745493,383.032338 C222.593646,384.150912 218.604503,384.083748 218.604503,384.083748 L218.668403,364.509121 L236.743608,364.509121 L237.130323,358.547264 L218.285007,358.736318 L218.275878,341.52073 C218.275878,341.52073 218.165507,339.048922 219.898257,337.741294 C221.724781,336.360697 225.030948,336.752902 225.030948,336.752902 L225.030948,354.465174 L237.499611,354.465174 L239.055601,329.091211 L218.275878,328.664179 C218.275878,328.664179 212.5905,328.791874 209.026247,332.174129 C204.908476,336.072968 205.405562,345.028192 205.405562,345.028192 L207.740792,389.929519" id="Fill-15" fill="#262420"></path>
                <path d="M262.832781,338.043118 L262.036115,353.300166 C262.036115,353.300166 262.036115,355.252902 261.22783,356.414594 C260.425354,357.585406 259.358153,357.710614 259.358153,357.710614 L255.196399,357.585406 L256.400528,334.931177 L259.471844,334.841625 C259.471844,334.841625 261.143184,334.730514 262.094205,335.419569 C263.045226,336.114428 262.832781,338.043118 262.832781,338.043118 L262.832781,338.043118 Z M274.496479,330.640133 C272.234278,328.257048 266.560517,328.567993 266.560517,328.567993 L243.937674,329.091211 L241.599955,389.031509 L252.978181,389.330846 L254.443715,364.689884 C254.443715,364.689884 258.086806,363.466003 259.832003,365.996683 C260.98634,367.6733 260.829497,369.649254 260.829497,369.649254 L259.323299,389.432836 L270.527253,389.952736 L272.492365,370.044776 C272.492365,370.044776 273.100653,366.552239 271.946316,363.951907 C270.931396,361.659204 268.462559,361.089552 268.462559,361.089552 C268.462559,361.089552 270.073319,361.089552 272.492365,358.361526 C274.900622,355.63267 274.900622,351.747927 274.900622,351.747927 L276.287319,337.961857 C276.287319,337.961857 277.052451,333.327529 274.496479,330.640133 L274.496479,330.640133 Z" id="Fill-16" fill="#262420"></path>
                <path d="M264.723205,416.221393 L278.869847,412.786899 L264.377153,411.415423 C263.745628,411.35738 250.29441,410.10199 243.629795,410.137645 C242.777528,407.510779 237.130323,390.165008 237.130323,390.165008 L234.705469,396.84743 C234.560243,397.257048 231.558635,405.569652 229.996837,410.222222 C222.224358,410.160862 211.857733,411.250415 211.381392,411.296849 L196.260493,412.91791 L211.134094,416.116915 C215.603726,417.08126 224.830122,420.306799 225.783632,424.257877 C224.617677,428.860697 221.456736,436.981758 221.421882,437.059701 L218.476705,444.597015 C218.476705,444.597015 234.719576,433.215589 236.964351,431.644279 C239.212444,433.215589 255.051174,444.311774 255.051174,444.311774 C255.051174,444.311774 248.491122,425.59204 247.941753,424.025705 C249.364135,421.442786 257.442003,417.990879 264.723205,416.221393" id="Fill-17" fill="#262420"></path>
                <path d="M244.053854,423.577944 C245.048028,419.586235 251.78567,416.538143 257.16566,414.699005 C251.881934,414.257048 244.960892,413.746269 241.704517,413.752073 L240.79416,413.771973 C240.79416,413.771973 238.160181,406.067164 236.795889,402.082919 C235.560226,405.546434 233.745319,410.680763 232.986826,413.074627 L232.710483,413.964345 L231.780208,413.978441 C227.958698,414.028192 222.875799,414.300995 218.781264,414.544776 C223.498194,416.366501 228.976937,419.434494 229.593524,424.033997 L229.627549,424.272803 L229.572778,424.499171 C228.932955,427.294362 227.484847,431.455224 226.371174,434.514096 C230.131274,431.870647 236.964351,427.085406 236.964351,427.085406 C236.964351,427.085406 243.980826,431.998342 247.694455,434.604478 C246.272903,430.553897 243.96091,423.950249 243.96091,423.950249 L244.053854,423.577944" id="Fill-18" fill="#FFFFFF"></path>
                <path d="M98.1460139,147.869818 C98.1460139,74.592869 161.176455,14.9776119 238.663076,14.9776119 C316.13725,14.9776119 379.170181,74.592869 379.170181,147.869818 C379.170181,221.143449 316.13725,280.75539 238.663076,280.75539 C161.176455,280.75539 98.1460139,221.143449 98.1460139,147.869818" id="Fill-19" fill="#FFFFFF"></path>
                <path d="M153.840483,69.0406302 L159.83042,64.2172471 C163.642802,61.1517413 164.936556,57.1741294 162.674354,54.3648425 C159.874403,50.8872305 155.404771,52.1915423 151.037212,55.7014925 L146.219038,59.5771144 L153.840483,69.0406302 L153.840483,69.0406302 Z M153.331778,58.7371476 L153.628038,58.4991708 C155.355809,57.1077944 156.858687,56.8283582 157.935017,58.1558872 C158.935,59.3971808 158.149951,60.8988391 156.576535,62.1658375 L156.286083,62.3988391 L153.331778,58.7371476 L153.331778,58.7371476 Z" id="Fill-20" fill="#262420"></path>
                <path d="M188.711247,45.1077944 L192.956816,43.3764511 L194.047253,44.5704809 L199.994038,42.1500829 L189.88633,33.145937 L183.66984,35.6849088 L182.881472,49.1202322 L188.828257,46.6998342 L188.711247,45.1077944 L188.711247,45.1077944 Z M188.627431,42.0306799 L188.254823,38.1840796 L188.461458,38.0995025 C188.755229,38.5323383 189.057299,38.9800995 189.414969,39.3930348 L190.883823,41.1127695 L188.627431,42.0306799 L188.627431,42.0306799 Z" id="Fill-21" fill="#262420"></path>
                <polyline id="Fill-22" fill="#262420" points="218.008663 25.6873964 224.041753 25.0165837 224.969538 33.2064677 230.032521 32.6343284 230.468198 36.5099502 219.368806 37.7628524 218.008663 25.6873964"></polyline>
                <polyline id="Fill-23" fill="#262420" points="252.600594 24.9958541 258.610448 25.8706468 257.427066 34.0290216 262.472622 34.7553897 261.910806 38.6169154 250.855396 37.0157546 252.600594 24.9958541"></polyline>
                <path d="M287.131115,44.7769486 L291.33851,46.6044776 L291.243076,48.2139303 L297.130941,50.7819237 L296.523483,37.2686567 L290.370062,34.5895522 L280.184347,43.4046434 L286.075531,45.9676617 L287.131115,44.7769486 L287.131115,44.7769486 Z M289.285434,42.5621891 L291.771698,39.6135987 L291.978333,39.6973466 C291.87958,40.212272 291.763399,40.7495854 291.725226,41.2927032 L291.512781,43.5356551 L289.285434,42.5621891 L289.285434,42.5621891 Z" id="Fill-24" fill="#262420"></path>
                <path d="M317.372913,58.7578773 L317.503201,59.0887231 C317.948837,60.2545605 318.637622,61.4718076 319.710632,62.3606965 C320.176184,62.738806 321.021813,63.2114428 321.367865,62.787728 C321.720556,62.3665008 321.141312,61.8175788 320.763726,61.4046434 L319.925566,60.5066335 C318.28825,58.7636816 317.398639,56.7155887 318.611896,55.2396352 C320.446719,53.0199005 324.26408,54.079602 327.061542,56.3955224 C328.532885,57.6069652 329.667306,58.9784411 330.467292,60.579602 L327.221705,61.9361526 C326.747854,60.8731343 326.102222,59.8126036 325.093111,58.9875622 C324.67984,58.6442786 323.996865,58.261194 323.670729,58.6442786 C323.383597,58.9991708 323.923837,59.5281924 324.232545,59.8880597 L325.147882,60.9311774 C326.867354,62.8897181 327.664021,64.8482587 326.35201,66.4402985 C324.49976,68.668325 320.783642,67.460199 317.995309,65.1641791 C316.381229,63.8217247 314.76466,61.9510779 313.752229,60.2197347 L317.372913,58.7578773" id="Fill-25" fill="#262420"></path>
                <path d="M356.422858,113.901327 C355.605444,113.06136 353.683486,111.936982 353.683486,111.936982 C352.985573,111.666667 352.846156,111.015755 352.846156,111.015755 C352.46774,108.64262 351.949906,107.779436 351.949906,107.779436 C339.85966,92.1832504 324.375281,79.2155887 306.57891,69.9004975 C303.414649,68.4684909 300.548309,68.3225539 300.548309,68.3225539 C299.908486,68.3490879 299.591479,67.831675 299.591479,67.831675 C298.541705,66.3499171 295.398191,64.7404643 294.197382,64.1766169 C277.756174,57.5140962 259.721632,53.8242123 240.79416,53.8242123 C235.05733,53.8242123 229.401826,54.1674959 223.850056,54.8266998 L231.160302,45.0290216 C201.959979,44.155058 181.011795,66.9427861 181.011795,66.9427861 L181.023413,66.9660033 C174.009427,70.2313433 167.306639,74.026534 161.007993,78.340796 L161.02625,78.3092869 C145.794149,83.7686567 141.400865,96.026534 141.400865,96.026534 C137.5445,99.2462687 129.911437,109.392206 129.911437,109.392206 C127.733882,110.646766 125.454253,112.730514 124.75883,113.381426 C121.246028,117.019071 114.83701,125.235489 111.412174,139.388889 C111.321719,139.621061 111.217156,139.849917 111.120892,140.082919 C110.978156,140.876451 110.83625,141.762023 110.702642,142.656716 C110.370698,144.330846 110.080247,146.067993 109.850375,147.887231 L109.978174,147.689055 C109.931701,148.067164 109.899337,148.293532 109.899337,148.293532 C109.533368,148.538143 107.350003,157.268657 107.350003,157.268657 C106.985694,158.361526 103.016469,170.311774 103.016469,170.311774 L102.990743,170.288557 C102.987424,170.311774 102.975806,170.340796 102.975806,170.364013 C92.5220451,206.894693 106.424708,229.037313 108.792302,232.433665 C127.26833,286.179934 179.386097,324.901327 240.79416,324.901327 C287.639819,324.901327 329.082253,302.366501 354.3175,267.810945 L354.305052,267.814262 C355.017903,266.68408 355.375573,264.391376 355.375573,264.391376 C355.410427,263.639303 355.980542,263.287728 355.980542,263.287728 C357.925736,262.24461 358.592115,261.538143 358.685059,261.419569 C372.176941,240.548922 379.984274,215.843284 379.984274,189.363184 C379.984274,161.426202 371.298948,135.468491 356.422858,113.901327" id="Fill-26" fill="#262420"></path>
                <path d="M182.372767,87.4237148 C182.736247,87.039801 183.064042,86.6973466 183.363622,86.3888889 C183.826684,85.9038143 184.012573,85.778607 184.064854,85.805141 C184.119625,85.7587065 184.163608,85.7238806 184.163608,85.7238806 C184.294726,78.7595357 185.853205,73.1898839 185.853205,73.1898839 C198.520205,55.5124378 219.397851,50.8399668 219.397851,50.8399668 C221.989507,50.0936982 220.308208,51.2412935 220.308208,51.2412935 C207.164868,65.9485904 208.537458,78.1144279 208.537458,78.1144279 L221.079149,123.858209 C221.079149,123.858209 210.910031,120.276119 203.064524,104.208126 C199.458778,136.267828 229.709705,162.262852 229.709705,162.262852 C231.029184,163.390547 228.956191,162.169983 228.956191,162.169983 C221.387028,158.390547 212.657719,150.41791 210.279337,148.179934 C210.910031,150.665008 225.638406,224.635987 225.684878,224.868159 C225.754587,225.223051 225.969521,225.925373 226.109767,226.404643 L231.218392,213.728856 L235.429108,251.090381 C216.246038,268.930348 195.812368,261.864013 194.541851,261.398839 C195.050556,262.200663 195.425653,262.779436 195.434781,262.779436 C195.434781,262.779436 212.017896,295.340796 279.611743,291.886401 C279.611743,291.886401 281.248229,291.886401 280.995122,292.087065 C281.012549,292.145108 280.931222,292.220564 280.620024,292.339967 C279.351997,292.790216 277.354521,293.109453 277.354521,293.109453 C195.769215,314.894693 153.485302,245.412935 151.650479,242.31592 C151.133476,241.597844 147.175868,236.033997 144.971757,230.414594 C144.89624,230.248756 144.799976,229.703151 145.183372,230.118574 C145.183372,230.118574 153.843802,239.14262 178.359559,241.373964 C178.53134,241.348259 178.630094,241.339967 178.630094,241.339967 C159.694323,220.237148 151.633882,204.947761 150.44967,202.606136 L150.432243,202.606136 C150.432243,202.606136 148.146806,199.180763 145.453906,189.487562 C145.453906,189.487562 145.523615,188.996683 145.756806,189.487562 C146.681271,191.411277 152.95917,200.656716 160.568997,202.719735 C160.578125,202.719735 160.595552,202.71393 160.595552,202.71393 C154.119316,192.282753 150.097809,175.779436 149.583295,173.362355 C158.39725,185.693201 174.032663,186.585406 174.032663,186.585406 C174.006108,186.547264 173.965444,186.50995 173.93391,186.46932 C173.965444,186.524046 173.992,186.556385 173.992,186.556385 C148.289542,160.929519 153.831354,133.036484 164.25358,112.910448 C170.403681,101.027363 178.249188,91.8399668 182.372767,87.4237148" id="Fill-27" fill="#FFFFFF"></path>
                <path d="M259.279316,256.988391 L242.422347,274.697347 C242.428986,274.689055 242.433965,274.689055 242.439774,274.685738 L263.26016,258.723051 L252.492712,221.602819 L257.194705,176.962687 L248.968292,219.585406 L259.279316,256.988391" id="Fill-28" fill="#848683"></path>
                <path d="M255.025448,166.647595 C255.327517,166.496683 255.688507,166.301824 256.095139,166.060531 C257.34574,165.320066 259.01459,164.145937 260.684271,162.417081 C264.019483,158.962687 267.357184,153.30597 267.363823,144.414594 C267.363823,140.422886 266.688316,135.773632 265.036892,130.416252 C264.69416,136.665837 263.060163,159.820066 255.025448,166.647595" id="Fill-29" fill="#848683"></path>
                <path d="M262.850208,90.7852405 C268.712347,81.9087894 278.390187,81.1475954 282.481403,81.1069652 C278.945365,80.0754561 275.659115,79.6923715 272.728045,79.6923715 C268.587868,79.6923715 265.150583,80.4535655 262.753944,81.2114428 C261.024514,81.7603648 259.840302,82.3043118 259.323299,82.5630182 C260.841115,84.6716418 262.332375,89.1583748 262.850208,90.7852405" id="Fill-30" fill="#848683"></path>
                <path d="M248.08117,114.226368 L248.340087,114.087065 L248.08117,114.226368 L248.08117,114.226368 Z M255.412163,109.41791 C255.554899,109.43864 255.661951,109.558043 255.665271,109.703151 C255.685187,110.536484 255.696806,111.370647 255.696806,112.210614 C255.690997,131.35738 250.588181,152.317579 248.671201,159.511609 C256.005514,142.766998 257.982243,127.118574 257.982243,115.110282 C257.982243,108.078773 257.302587,102.293532 256.62708,98.2694859 C256.275219,96.1774461 255.924187,94.5621891 255.66776,93.4933665 C253.809701,107.860697 248.336767,114.380597 248.305233,114.415423 C248.243823,114.488391 248.145069,114.529022 248.048806,114.517413 C247.956691,114.508292 247.866236,114.450249 247.819764,114.366501 C241.820698,103.301824 233.928719,95.1144279 227.531319,89.6898839 C222.664184,85.5638474 218.680021,83.0505804 217.051833,82.0829187 C234.16108,119.264511 239.189208,147.936153 240.468854,157.396352 C240.509517,156.306799 240.526944,155.197347 240.526944,154.072968 C240.526944,142.75539 238.598347,129.881426 236.662281,119.839967 C234.728705,109.799337 232.803427,102.613599 232.797618,102.596186 C232.762764,102.473466 232.815045,102.3466 232.919608,102.276119 C233.021681,102.20398 233.163587,102.209784 233.26317,102.287728 C240.968431,108.276119 246.360038,125.233002 247.316868,128.382255 C248.750038,126.604478 250.642951,122.161692 252.164087,118.08209 C253.81551,113.660033 255.086028,109.630182 255.091837,109.621891 C255.127521,109.496683 255.243701,109.415423 255.368181,109.415423 C255.383118,109.415423 255.397226,109.41791 255.412163,109.41791 L255.412163,109.41791 Z" id="Fill-31" fill="#848683"></path>
                <path d="M111.344955,186.570481 C111.344955,204.24461 114.407142,222.726368 129.644222,246.348259 C144.029865,276.615257 170.540608,292.909619 182.89309,299.161692 C187.007542,301.247927 189.537788,302.200663 189.563514,302.215589 C209.206326,311.463516 227.674056,314.868988 244.228125,314.868988 C278.893083,314.868988 305.177274,299.934494 316.143059,292.473466 C319.795278,289.986733 321.737153,288.339138 321.740472,288.335821 L321.93217,288.562189 L321.746281,288.333333 C322.46992,287.737148 323.020118,287.263682 323.418451,286.906302 C323.202687,287.025705 322.981944,287.156716 322.761201,287.286899 C321.978642,287.754561 321.257493,288.222222 321.245875,288.228027 C294.307753,304.0199 269.479969,308.845771 249.212271,308.845771 C217.479212,308.845771 196.93517,297.02073 196.917743,297.011609 C129.603559,261.730514 128.620174,200.595357 128.623493,200.554726 C128.620174,200.41874 128.710628,200.299337 128.847556,200.266998 C128.978674,200.232172 129.11809,200.293532 129.17867,200.415423 C137.870635,217.235489 148.390785,222.965174 153.086969,224.783582 C153.764965,225.048093 154.314333,225.225539 154.724285,225.344942 C135.140392,200.705638 129.542149,179.963516 129.545469,164.325871 C129.545469,143.612769 139.353597,131.883085 139.382642,131.854063 C139.467288,131.752902 139.612514,131.720564 139.734503,131.776119 C139.854003,131.834163 139.920392,131.967662 139.894667,132.098673 C138.489712,139.412106 137.951962,145.859038 137.951962,151.446103 C137.951962,160.534826 139.374344,167.33665 140.792576,171.859867 C141.572646,174.332504 142.340267,176.119403 142.878017,177.229685 C142.284667,172.261194 142.017451,167.464345 142.017451,162.84743 C142.019941,116.728856 169.071753,88.327529 174.76792,82.8532338 C170.490816,84.6368159 165.300035,89.2280265 161.075212,93.5514096 C156.387326,98.3308458 152.862906,102.770315 152.854608,102.781924 C152.77909,102.878109 152.645483,102.91874 152.528472,102.874793 C152.409802,102.831675 152.330965,102.720564 152.330965,102.596186 C152.374948,98.9378109 154.471177,94.3358209 155.603108,92.1102819 C152.12184,95.2686567 149.237243,100.218905 147.181677,104.548093 C144.904538,109.342454 143.645639,113.352405 143.645639,113.360697 L143.584229,113.468491 C136.454062,121.542289 131.775306,129.977612 128.876601,136.395522 C125.980385,142.810945 124.866712,147.18408 124.866712,147.192371 C124.631031,148.174959 124.488295,148.650912 124.358007,148.903814 C124.299917,148.973466 124.299917,149.104478 124.016934,149.147595 C123.592875,149.029022 123.714865,148.834163 123.662583,148.747098 C123.647646,148.633499 123.642667,148.5 123.642667,148.345771 C123.642667,147.776119 123.714865,146.9801 123.714865,146.995025 C123.904073,138.292703 127.524757,128.507463 128.990292,124.883914 C118.730719,135.907131 116.221219,150.850746 116.221219,162.800995 C116.221219,174.102819 118.460184,182.674129 118.463503,182.694859 L118.471802,182.764511 C118.492549,189.792703 119.870948,198.483416 121.249347,205.407131 C122.621937,212.333333 123.991208,217.47927 123.988719,217.473466 C124.441823,218.81592 124.616094,219.435323 124.622733,219.771973 C124.619413,219.830017 124.619413,219.884743 124.587878,219.96932 C124.561323,220.05058 124.418587,220.179104 124.284979,220.172471 C123.894944,220.079602 123.933118,219.926202 123.753038,219.737148 C123.62192,219.539801 123.473375,219.289386 123.337278,219.042289 C123.063424,218.560531 122.821934,218.087065 122.821934,218.083748 C115.61376,207.057214 112.132493,188.85738 111.356573,184.391376 C111.348274,185.115257 111.344955,185.841625 111.344955,186.570481" id="Fill-32" fill="#848683"></path>
                <path d="M338.475451,108.726368 C338.463833,108.71476 305.68017,64.6940299 243.999083,64.6849088 C243.914437,64.6766169 243.582493,64.6558872 243.213205,64.6558872 C242.911135,64.6558872 242.58251,64.6708126 242.306167,64.7230514 C242.056378,64.7835821 241.704517,64.827529 241.648917,65.274461 C241.68958,65.6467662 241.940198,65.7951907 242.34683,66.0597015 C242.335212,66.0538972 250.843778,72.5878939 256.164847,79.2354892 L256.310903,79.4162521 L256.516708,79.3200663 C256.522517,79.3200663 257.985562,78.628524 260.553153,77.9311774 C263.114934,77.2338308 266.767153,76.5364842 271.105667,76.5364842 C276.825899,76.5364842 283.734493,77.7512438 290.92275,81.7835821 C287.912844,83.2512438 272.455021,91.0613599 269.17541,99.8499171 L269.104872,100.033167 L269.253417,100.166667 C269.288271,100.199005 284.798375,114.308458 316.85259,114.308458 C321.955406,114.308458 327.474812,113.951078 333.424087,113.12272 C333.424087,113.12272 334.790868,112.968491 336.183375,112.55058 C337.544347,112.120232 339.053865,111.484245 339.108635,110.155887 C339.108635,109.697347 338.897021,109.220564 338.475451,108.726368" id="Fill-33" fill="#005291"></path>
                <path d="M272.094031,170.424544 C271.977851,170.311774 271.791962,170.317579 271.68159,170.431177 C271.571219,170.546434 271.571219,170.729685 271.68159,170.845771 C271.68159,170.845771 272.065816,171.226368 272.655847,172.034826 C274.435069,174.461028 278.026708,180.640962 278.026708,191.123549 C278.026708,198.514925 276.235038,208.063018 270.736378,219.940299 C270.672479,217.950249 270.442608,213.853234 269.636812,209.576285 C268.499903,203.605307 266.299111,197.210614 261.602927,195.763682 C261.518281,195.737148 261.425337,195.752073 261.353139,195.801824 C261.283431,195.850746 261.233639,195.926202 261.222021,196.010779 L258.325806,222.058872 L258.334104,222.16335 L268.81774,261.014925 L248.113535,277.646766 C248.032208,277.716418 247.991545,277.8267 248.011462,277.931177 C248.032208,278.038972 248.107726,278.126036 248.214778,278.158375 C248.235524,278.166667 256.313392,280.720564 269.945521,280.720564 C277.212615,280.720564 286.052295,279.994196 296.086976,277.768657 C296.127639,277.753731 298.613903,277.15257 299.425507,274.749585 C299.433806,274.706468 301.691028,264.115257 301.691028,248.919569 C301.691028,226.404643 296.738417,193.752902 272.094031,170.424544" id="Fill-34" fill="#005291"></path>
                <path d="M306.15734,275.33665 C305.773115,275.031509 305.534944,274.511609 305.540753,273.796849 C305.540753,273.468491 305.587226,273.096186 305.685979,272.660862 C305.685979,272.649254 306.482646,269.572139 307.285122,264.257877 C308.085108,258.946932 308.887583,251.41874 308.887583,242.577114 C308.887583,219.121061 303.255316,186.402156 277.139587,161.004975 C277.133778,160.999171 276.930462,160.865672 276.718017,160.688226 C276.511382,160.485075 276.267403,160.372305 276.211802,159.976783 C276.200184,159.843284 276.313875,159.674129 276.433375,159.625207 C276.546236,159.569652 276.648309,159.56136 276.772788,159.56136 C277.029215,159.56136 277.386885,159.619403 277.950361,159.770315 C277.971108,159.781924 284.929493,161.883085 289.806587,167.359867 C289.658042,166.08126 289.291243,163.570481 288.395823,160.45937 C287.090451,155.897181 284.673896,150.060531 280.242437,144.966833 C280.233309,144.964345 279.962774,144.676617 279.681451,144.350746 C279.405108,143.985075 279.131253,143.781095 279.067354,143.386401 C279.067354,143.330846 279.084781,143.235489 279.160299,143.150912 C279.241625,143.069652 279.340378,143.048922 279.405108,143.048922 C279.74784,143.096186 279.98933,143.301824 280.745333,143.842454 C282.359413,144.623549 347.984,176.378109 350.271927,240.473466 C350.271927,240.482587 350.310101,240.848259 350.310101,241.427032 C350.300972,242.99005 350.056993,246.116086 347.980681,247.891376 C347.340858,248.687396 331.784281,268.029851 308.896712,275.450249 C308.879285,275.456053 308.195479,275.719735 307.427858,275.726368 C307.006288,275.726368 306.532437,275.641791 306.15734,275.33665 L306.15734,275.33665 Z" id="Fill-35" fill="#005291"></path>
                <path d="M355.265201,228.256219 C353.985556,175.369818 304.071899,139.277778 279.171917,124.555556 C270.875795,119.645108 265.382944,117.120232 265.371326,117.114428 L264.173837,116.565506 L265.493316,116.553897 L265.65099,116.553897 C274.528014,116.559701 279.968583,121.914594 281.585153,123.762852 C281.585153,120.5199 280.28891,116.955224 280.28559,116.94942 L280.068167,116.34743 L280.669816,116.574627 C287.744382,119.270315 296.883642,120.168325 305.834524,120.168325 C314.490806,120.168325 322.987753,119.331675 329.312125,118.491708 C335.639816,117.658375 339.784142,116.824212 339.823976,116.818408 C340.146792,116.78607 340.452181,116.777778 340.740142,116.777778 C344.357507,116.768657 345.511844,118.796849 345.666198,119.14262 C354.130781,128.582919 364.599479,150.429519 366.349656,176.680763 C366.571229,179.972637 366.672472,183.171642 366.672472,186.257048 C366.666663,205.990879 362.589556,221.160862 359.414507,227.578773 C358.31826,229.703151 357.465993,230.922886 356.492566,230.992537 C355.590507,230.911277 355.323292,229.912106 355.265201,228.256219" id="Fill-36" fill="#005291"></path>
                <path d="M211.460229,57.278607 C211.505872,57.2263682 211.535747,57.1774461 211.584708,57.119403 C211.584708,57.119403 211.567281,57.1310116 211.547365,57.1310116 C210.793851,57.3399668 197.316076,61.3175788 193.320295,81.8681592 C193.320295,81.8681592 193.297059,82.2429519 193.509503,81.8888889 C194.719441,79.8955224 198.946753,73.5174129 202.820545,75.4154229 C202.820545,75.4154229 202.828844,75.2578773 202.861208,75.0024876 C203.076142,73.2504146 204.34417,66.1119403 211.460229,57.278607" id="Fill-37" fill="#262420"></path>
                <path d="M201.130948,243.021559 C198.211497,237.161692 179.49066,196.312604 179.49066,196.312604 C173.666694,198.157546 166.428646,193.427861 166.428646,193.427861 C166.434455,193.430348 166.436944,193.439469 166.436944,193.441957 C175.643424,217.880597 197.335993,239.262023 200.790705,243.143449 C200.808132,243.160862 200.823069,243.178275 200.840497,243.193201 C201.427208,243.840796 201.422229,243.608624 201.422229,243.608624 C201.3575,243.484245 201.256257,243.276949 201.130948,243.021559" id="Fill-38" fill="#262420"></path>
                <path d="M182.558656,109.952736 C165.661024,148.549751 203.695219,164.460199 204.189816,164.666667 L204.207243,164.666667 L202.189851,155.778607 L201.040493,150.69403 C200.092792,150.38806 199.199861,150.025705 198.339295,149.650912 C198.039715,149.5199 197.764201,149.383085 197.478729,149.249585 C197.121059,149.077944 196.766708,148.909619 196.432274,148.729685 C179.813476,139.905473 181.430045,118.773632 182.448285,111.899668 C182.459903,111.849917 182.459903,111.809287 182.468201,111.766169 C182.497247,111.556385 182.53542,111.364842 182.558656,111.187396 C182.665708,110.539801 182.752844,110.101161 182.796826,109.87728 C182.823382,109.763682 182.83749,109.697347 182.83749,109.697347 L182.83749,109.668325 C182.866535,109.156716 182.651601,109.746269 182.558656,109.952736" id="Fill-39" fill="#262420"></path>
                <path d="M207.589757,218.601161 L204.850385,170.099502 L221.154667,224.176617 C221.154667,224.176617 215.812851,211.392206 207.589757,218.601161" id="Fill-40" fill="#848683"></path>
                <path d="M221.079149,123.858209 L208.537458,78.1144279 C208.545757,78.358209 208.496795,78.4543947 208.572312,79.1691542 L212.189677,108.165837 C212.189677,108.165837 212.288431,108.654229 212.288431,109.223881 C212.274323,110.853234 211.261892,112.9801 203.667003,104.853234 C203.26867,104.458541 203.154979,104.310116 203.064524,104.208126 C210.910031,120.276119 221.079149,123.858209 221.079149,123.858209" id="Fill-41" fill="#848683"></path>
                <path d="M191.220747,132.063847 C190.209146,129.678275 189.795875,127.495854 189.795875,125.546434 C189.805003,118.497512 194.989146,114.534826 195.012382,114.511609 L195.164247,114.395522 C195.166736,114.467662 194.911139,109.91791 195.332708,102.654229 C191.162656,108.790216 182.311358,123.344113 192.902045,134.71393 C192.726944,134.475124 192.57591,134.262852 192.433174,134.053897 C191.887125,133.263682 191.514517,132.626866 191.220747,132.063847" id="Fill-42" fill="#848683"></path>
                <path d="M202.282795,137.964345 C200.491125,134.817579 195.899503,124.773632 195.181674,114.607794 C195.175865,114.54063 195.166736,114.467662 195.164247,114.395522 L195.012382,114.511609 C194.989146,114.534826 189.805003,118.497512 189.795875,125.546434 C189.795875,127.495854 190.209146,129.678275 191.220747,132.063847 C191.514517,132.626866 191.887125,133.263682 192.433174,134.053897 C192.57591,134.262852 192.726944,134.475124 192.902045,134.71393 C193.097062,134.966003 193.326104,135.199005 193.567594,135.462687 C195.346816,137.403814 198.362531,139.412106 203.303524,139.623549 C203.303524,139.623549 202.892743,139.045605 202.282795,137.964345" id="Fill-43" fill="#262420"></path>
                <path d="M217.481701,224.760365 C217.481701,224.760365 209.459434,222.712272 209.973948,239.416252 C209.979757,239.393035 209.964819,239.433665 209.973948,239.416252 C210.011292,239.035655 210.168965,238.52073 210.357344,238.018242 C212.878462,232.506633 215.010375,230.290216 217.060132,230.243781 C218.74392,230.263682 220.026056,231.800995 221.084958,233.941957 C222.146351,236.097844 222.983681,238.939469 223.640931,241.777778 C224.176191,244.093698 224.586142,246.400498 224.888212,248.327529 C225.010201,249.518242 225.120573,250.997512 225.205219,252.81592 C225.216837,252.912106 225.222646,252.970149 225.222646,252.970149 C225.222646,252.961028 225.216837,252.952736 225.216837,252.941128 L225.216837,253.010779 C225.513927,251.058043 229.118844,227.988391 217.481701,224.760365" id="Fill-44" fill="#848683"></path>
                <path d="M225.222646,252.970149 C225.222646,252.970149 225.216837,252.912106 225.205219,252.81592 C225.120573,250.997512 225.010201,249.518242 224.888212,248.327529 C224.586142,246.400498 224.176191,244.093698 223.640931,241.777778 C222.983681,238.939469 222.146351,236.097844 221.084958,233.941957 C220.026056,231.800995 218.74392,230.263682 217.060132,230.243781 C215.010375,230.290216 212.878462,232.506633 210.357344,238.018242 C210.168965,238.52073 210.011292,239.035655 209.973948,239.416252 C209.964819,239.433665 209.96233,239.445274 209.973948,239.416252 L213.960601,248.150083 C213.960601,248.150083 216.231931,224.742952 225.205219,252.912106 C225.211028,252.946932 225.216837,252.984245 225.216837,253.010779 L225.216837,252.941128 C225.216837,252.952736 225.222646,252.961028 225.222646,252.970149" id="Fill-45" fill="#262420"></path>
            </g>
        </g>
    </g>
</svg>