<?xml version="1.0" encoding="UTF-8" standalone="no"?>
<svg width="500px" height="500px" viewBox="0 0 500 500" version="1.1" xmlns="http://www.w3.org/2000/svg" xmlns:xlink="http://www.w3.org/1999/xlink">
    <!-- Generator: Sketch 50.2 (55047) - http://www.bohemiancoding.com/sketch -->
    <title>DEN</title>
    <desc>Created with Sketch.</desc>
    <defs></defs>
    <g id="DEN" stroke="none" stroke-width="1" fill="none" fill-rule="evenodd">
        <g id="1Asset-1" fill-rule="nonzero">
            <path d="M249.662618,499.061657 C148.75921,499.082978 57.7805368,438.313825 19.1566245,345.09531 C-19.4672878,251.876795 1.87139511,144.570366 73.2208806,73.2208806 C144.570366,1.87139511 251.876795,-19.4672878 345.09531,19.1566245 C438.313825,57.7805368 499.082978,148.75921 499.061657,249.662618 C498.887394,387.329657 387.329657,498.887394 249.662618,499.061657" id="Shape" fill="#FFC52F"></path>
            <path d="M249.662618,12.9154015 C380.414495,12.9154015 486.409835,118.910741 486.409835,249.662618 C486.409835,380.414495 380.414495,486.409835 249.662618,486.409835 C118.910741,486.409835 12.9154015,380.414495 12.9154015,249.662618 C13.1764284,119.019014 119.019014,13.1764284 249.662618,12.9154015" id="Shape" fill="#8A2433"></path>
            <path d="M474.232456,250.347925 C474.232456,374.782021 373.358691,475.655786 248.924595,475.655786 C124.490499,475.655786 23.6167341,374.782021 23.6167341,250.347925 C23.6167341,125.913829 124.490499,25.0400641 248.924595,25.0400641 C308.684242,25.0260771 366.000305,48.7593097 408.256758,91.0157624 C450.51321,133.272215 474.246443,190.588278 474.232456,250.347925" id="Shape" fill="#0A233F"></path>
            <path d="M248.871879,416.192223 C339.322839,416.192219 412.650546,342.872372 412.660247,252.421412 C412.669948,161.970453 339.357969,88.6348792 248.907012,88.6154727 C158.456054,88.5960663 85.112614,161.900175 85.083502,252.35113 C85.1125777,342.805439 158.417584,416.134039 248.871879,416.192223" id="Shape" fill="#8A2433"></path>
            <path d="M95.9956984,252.35113 C95.9956984,167.919947 164.440696,99.4749494 248.871879,99.4749494 C333.303063,99.4749494 401.74806,167.919947 401.74806,252.35113 C401.74806,336.782314 333.303063,405.227311 248.871879,405.227311 C164.440696,405.227311 95.9956984,336.782314 95.9956984,252.35113" id="Shape" fill="#0A233F"></path>
            <path d="M383.297487,286.932777 C383.297487,260.574814 369.380482,224.727986 356.939524,200.74224 L338.383519,211.285425 L336.538462,208.386049 L331.846744,211.338141 L147.341009,327.313175 L138.959177,337.59278 L138.959177,337.276484 C131.61207,333.977977 126.842313,326.720545 126.729082,318.667763 L126.729082,318.351468 L139.43362,314.924933 L234.322284,253.247301 L170.4833,213.235914 L162.523195,208.280617 L160.625422,211.179993 L142.122132,200.636808 C129.47031,224.622554 115.395159,260.62753 115.76417,286.827345 C106.011724,256.515688 116.02775,215.080972 129.681174,188.301282 L126.254639,186.350793 L137.272267,169.270833 L140.487939,171.590334 C158.991228,148.079032 192.20226,121.826501 223.726383,117.872807 C199.898785,128.732287 173.277244,156.408148 156.829875,177.758097 L174.173414,190.251771 L172.117493,193.414727 L176.545631,196.314103 L249.50447,243.758435 L321.461707,196.99941 L326.7333,193.414727 L324.677379,190.251771 L341.810054,177.758097 C325.468117,156.408148 298.741144,128.732287 274.966262,117.872807 C306.595816,121.826501 339.701417,148.131748 358.362854,171.695766 L361.473094,169.481697 L372.438006,186.508941 L369.222335,188.406714 C382.928475,215.186404 393.102648,256.62112 383.350202,286.932777 L383.297487,286.932777 Z M359.417173,314.924933 L271.961454,258.518893 L256.673836,267.586032 L351.509784,327.049595 L359.8389,337.59278 L359.8389,337.276484 C363.591266,335.93261 366.697824,333.221432 368.537028,329.685391 C370.868164,326.523864 372.007104,322.640266 371.752699,318.720479 L371.752699,318.404184 L359.417173,314.924933 Z" id="Shape" fill="#FFC52F"></path>
            <polygon id="Shape" fill="#FFC52F" points="264.370361 133.107709 257.833586 141.700405 248.713731 119.981444 248.713731 220.1417 279.236252 181.0792 309.969636 188.986589"></polygon>
            <polygon id="Shape" fill="#FFFFFF" points="264.370361 156.566296 264.370361 133.107709 257.833586 141.700405"></polygon>
            <polygon id="Shape" fill="#FFFFFF" points="248.766447 119.981444 193.362011 187.510543 217.8222 181.290064 248.766447 220.1417"></polygon>
            <path d="M214.870108,374.493927 C222.809889,366.824278 233.13325,362.099713 244.127446,361.104082 L244.127446,345.816464 L201.954706,345.816464 C202.873995,356.566048 207.429577,366.6813 214.870108,374.493927" id="Shape" fill="#FFC52F"></path>
            <path d="M244.127446,388.779943 L244.127446,370.645665 C235.887863,371.627902 228.163252,375.167581 222.039474,380.767122 C228.647597,385.181451 236.226033,387.930669 244.127446,388.779943" id="Shape" fill="#FFC52F"></path>
            <path d="M253.510881,294.787449 L253.510881,312.869011 C261.698965,311.943795 269.379844,308.435701 275.440705,302.852986 C268.917459,298.378319 261.378905,295.605726 253.510881,294.787449" id="Shape" fill="#FFFFFF"></path>
            <path d="M282.662787,309.020749 C274.729072,316.637276 264.458063,321.354883 253.510881,322.410594 L253.510881,336.380314 L295.68362,336.380314 C294.450454,326.082406 289.87684,316.472261 282.662787,309.020749" id="Shape" fill="#FFFFFF"></path>
            <path d="M244.127446,312.869011 L244.127446,294.787449 C236.245199,295.614597 228.691684,298.38603 222.144906,302.852986 C228.22603,308.436566 235.923749,311.94392 244.127446,312.869011" id="Shape" fill="#FFFFFF"></path>
            <path d="M253.510881,345.816464 L253.510881,361.156798 C264.466761,362.140571 274.755088,366.847528 282.662787,374.493927 C290.264252,366.747511 294.909093,356.581091 295.789052,345.763748 L253.510881,345.816464 Z" id="Shape" fill="#FFC52F"></path>
            <path d="M201.954706,336.327598 L244.127446,336.327598 L244.127446,322.410594 C233.15176,321.345758 222.850164,316.631153 214.870108,309.020749 C207.704915,316.472827 203.169828,326.061297 201.954706,336.327598" id="Shape" fill="#FFFFFF"></path>
            <path d="M253.510881,388.779943 C261.367194,387.947278 268.89823,385.195554 275.440705,380.767122 C269.389686,375.152175 261.709501,371.607474 253.510881,370.645665 L253.510881,388.779943 Z" id="Shape" fill="#FFC52F"></path>
            <polygon id="Shape" fill="#FFC52F" points="430.583671 229.999578 436.54057 240.226468 421.780111 254.03804 440.968708 246.868674 447.031039 257.253711 447.979926 245.603492 460.789895 244.812753 450.299426 238.38141 463.214828 218.191211 441.917594 235.271171"></polygon>
            <polygon id="Shape" fill="#FFC52F" points="67.3709514 229.788715 61.414052 240.06832 76.1745108 253.827176 57.0386302 246.710526 50.9762989 257.095563 49.9746964 245.445344 37.1647267 244.601889 47.7079116 238.223262 34.7925101 217.980348 56.0370277 235.113023"></polygon>
            <path d="M99.9493927,157.198887 L70.2176113,136.112517 L76.8071019,126.729082 C77.961636,125.21147 79.2495149,123.800096 80.6553644,122.511808 C81.4931918,121.769145 82.3925964,121.099001 83.3438765,120.508603 L83.8710358,119.928728 C83.9706013,119.795816 84.058774,119.65474 84.1346154,119.507001 L84.4509109,118.87441 L110.914305,137.272267 C110.722297,139.087878 110.260335,140.864655 109.543691,142.54386 C108.869343,144.209881 108.021199,145.800151 107.013327,147.288293 L99.9493927,157.198887 Z M81.2879555,130.208333 C80.712781,131.050842 80.712781,132.159769 81.2879555,133.002277 C81.3859284,133.193694 81.5310726,133.356981 81.7096829,133.476721 L99.9493927,146.444838 C100.901331,146.637245 101.876246,146.24313 102.427041,145.443235 C103.233904,144.441502 103.118234,142.984054 102.163462,142.122132 L84.5563428,129.417594 C83.4695775,128.773557 82.0704265,129.071737 81.3406714,130.102901 L81.2879555,130.208333 Z" id="Shape" fill="#FFFFFF"></path>
            <polygon id="Shape" fill="#FFFFFF" points="144.125337 109.227395 127.203526 83.5020243 125.4639 84.6617746 122.353661 79.9700574 141.331393 67.4763833 144.441633 72.1681005 135.110914 78.2831478 140.277075 86.0851046 147.393725 81.3933873 149.186066 86.3486842 143.071019 90.4078104 148.975202 99.3168016 158.253205 93.2017544 161.363445 97.8934717"></polygon>
            <polygon id="Shape" fill="#FFFFFF" points="214.97554 78.4940115 207.59531 66.2112011 206.910003 66.4747807 209.651231 79.6010459 201.00582 81.3406714 194.785341 51.1344467 192.887567 51.5034582 191.780533 46.021002 200.900388 44.1759447 209.493084 56.3533232 210.178391 56.0370277 207.437163 42.8053306 216.029858 41.0129892 223.410088 76.70167"></polygon>
            <path d="M273.068489,76.4380904 L273.911943,39.5369433 L282.030196,40.9075574 L280.870445,63.469973 L281.661184,63.469973 L288.303391,41.8037281 L296.421643,43.1216262 C293.205972,52.8740722 285.298583,75.2256242 284.29698,78.0722841 L273.068489,76.4380904 Z" id="Shape" fill="#FFFFFF"></path>
            <path d="M402.222503,139.117325 L400.219298,136.534244 L389.676113,144.599781 L384.404521,137.852142 L413.292848,115.553306 L420.25135,124.620445 C421.376088,126.128519 422.364035,127.733933 423.203441,129.417594 C423.684559,130.422669 424.089845,131.462314 424.415908,132.527834 L424.837635,133.160425 L425.15393,133.476721 L425.68109,134.056596 L410.28804,145.864963 C409.383383,145.453567 408.51868,144.959451 407.70496,144.388917 L407.388664,144.388917 L399.270412,156.882591 L393.998819,150.451248 L402.222503,139.117325 Z M415.823212,127.836117 C415.313072,127.006557 414.36427,126.552782 413.398279,126.676366 L412.87112,126.676366 L406.123482,132.000675 C405.7241,132.3879 405.498679,132.920439 405.498679,133.476721 C405.498679,134.033002 405.7241,134.565541 406.123482,134.952767 C407.019652,136.112517 408.337551,136.481528 409.128289,135.901653 L416.086791,130.630061 C416.853577,129.755111 416.853577,128.447487 416.086791,127.572537 L415.823212,127.836117 Z" id="Shape" fill="#FFFFFF"></path>
            <polygon id="Shape" fill="#FFFFFF" points="333.480938 96.259278 349.453863 69.8485999 347.661522 68.7942814 350.560897 63.9971323 370.013074 75.7527834 367.113698 80.5499325 357.572115 74.8038968 352.880398 82.5531377 360.207912 86.9812753 356.148785 91.2512652 349.87559 87.4557186 344.498566 96.3119939 354.040148 102.110746 351.088057 106.960611"></polygon>
            <path d="M187.510543,456.045462 C185.560741,455.432147 183.68628,454.601018 181.922655,453.567814 C180.252571,452.677012 178.739061,451.519621 177.441802,450.141279 L186.825236,419.038883 C188.671937,418.604997 190.575151,418.462701 192.46584,418.617156 C194.503877,418.762346 196.519459,419.133637 198.475455,419.72419 C200.305658,420.341508 202.071228,421.136015 203.747048,422.096407 L206.066549,423.625169 C206.454296,423.898068 206.880762,424.111301 207.331731,424.25776 L207.806174,424.25776 L208.544197,424.25776 L208.544197,425.101215 L205.802969,434.326501 L197.526569,431.796137 L198.686319,427.842443 C198.949105,426.745175 198.364891,425.621688 197.315705,425.206646 L196.841262,425.206646 C196.254463,424.964398 195.59505,424.967456 195.010524,425.215136 C194.425997,425.462817 193.965134,425.934452 193.731022,426.524545 L186.930668,448.823381 C186.747958,449.298434 186.747958,449.824373 186.930668,450.299426 C187.333365,450.944827 187.948581,451.429543 188.670294,451.67004 C189.89284,452.143822 191.270563,451.560041 191.780533,450.352142 L194.679909,440.915992 L191.991397,439.545378 L194.732625,435.064524 L204.590503,438.069332 L199.108047,456.730769 C197.259071,457.150471 195.355339,457.275015 193.467443,457.099781 C191.447927,456.978125 189.449132,456.624356 187.510543,456.045462" id="Shape" fill="#FFFFFF"></path>
            <path d="M260.363951,464.374578 C258.339473,464.493702 256.308119,464.405382 254.301619,464.110999 C252.462633,463.817033 250.68278,463.229682 249.030027,462.371373 L247.237686,429.95108 C248.859672,428.901231 250.639441,428.118132 252.509278,427.631579 C256.415174,426.507786 260.526226,426.291414 264.528509,426.998988 C265.436944,427.153829 266.334853,427.365102 267.217021,427.631579 C267.667791,427.737169 268.136864,427.737169 268.587635,427.631579 L269.062078,427.631579 L269.800101,427.631579 L269.800101,428.475034 L270.32726,437.753036 L261.629133,438.22748 L261.629133,434.115638 C261.476114,432.998509 260.541885,432.153254 259.415064,432.112433 L258.518893,432.112433 C257.218793,432.081417 256.125688,433.081492 256.041245,434.379217 L257.253711,457.679656 C257.304811,458.190547 257.550129,458.662313 257.939018,458.997554 C258.504213,459.493291 259.245342,459.740334 259.994939,459.682861 C261.295039,459.713877 262.388144,458.713802 262.472588,457.416076 L261.998144,447.558198 L258.993337,447.136471 L260.047655,441.864879 L270.32726,441.285003 L271.434295,461.000759 C269.797995,462.02381 268.022452,462.805049 266.162702,463.32026 C264.197103,463.849995 262.184244,464.185472 260.153087,464.321862" id="Shape" fill="#FFFFFF"></path>
            <path d="M121.879217,422.676282 C120.273452,421.450066 118.821996,420.034012 117.556511,418.459008 C116.331548,417.001936 115.336063,415.366497 114.60442,413.609143 L132.31697,390.835864 L130.788209,389.623397 L134.214744,385.19526 L142.54386,391.732034 L123.829706,415.875928 C123.132688,416.982564 123.462818,418.444567 124.567729,419.144315 C125.501062,420.021341 126.9555,420.021341 127.888833,419.144315 L146.602986,395.053138 L153.508772,400.32473 L132.422402,427.578863 C130.593089,427.273555 128.817526,426.705375 127.15081,425.891953 C125.285162,425.029934 123.517774,423.969501 121.879217,422.728998" id="Shape" fill="#FFFFFF"></path>
            <polygon id="Shape" fill="#FFFFFF" points="383.930078 415.770496 363.84531 392.31191 358.521002 396.898195 354.883603 392.628205 372.438006 377.709599 376.075405 381.926872 370.698381 386.513158 390.730432 409.919028"></polygon>
            <path d="M429.054909,365.26864 C427.974027,366.94238 426.719464,368.497331 425.312078,369.907642 C423.990175,371.229315 422.480254,372.348432 420.831225,373.228745 L413.345563,368.484312 L417.931849,361.156798 L421.885543,363.634447 C422.414929,363.906548 423.043067,363.906548 423.572453,363.634447 C424.176678,363.413599 424.681683,362.98341 424.995783,362.42198 C425.662081,361.361211 425.41076,359.967527 424.415908,359.206309 L416.034076,353.934717 L411.395074,361.842105 C410.503524,363.861426 408.161722,364.798147 406.123482,363.950742 L405.385459,363.476299 L393.577092,356.09607 C393.690691,354.294781 394.063542,352.519299 394.684126,350.824477 C395.852008,346.891654 397.970278,343.306889 400.851889,340.386724 C401.592868,339.646023 402.385608,338.958982 403.224106,338.330803 C403.464523,338.111751 403.676992,337.863871 403.856697,337.59278 L403.856697,337.171053 L404.225709,336.485746 L412.818404,341.757338 L408.232119,349.137567 L404.700152,346.923499 L404.172993,346.923499 C403.13746,346.796873 402.124687,347.292925 401.589912,348.188681 C400.890409,349.260461 401.144275,350.691339 402.169787,351.457068 L408.126687,355.199899 L413.556427,348.135965 C414.577003,346.045247 417.055243,345.118802 419.197031,346.027328 L420.673077,346.976215 L420.989372,346.976215 L432.481444,354.356444 C432.38628,356.155318 432.031157,357.930936 431.427126,359.628036 C430.759553,361.473596 429.893444,363.241164 428.844045,364.899629" id="Shape" fill="#FFFFFF"></path>
            <polygon id="Shape" fill="#FFFFFF" points="310.760374 422.728998 308.809885 423.519737 306.701248 418.353576 327.62947 409.602733 329.790823 414.768893 319.511218 419.038883 322.990469 427.420715 330.897858 424.152328 331.952176 429.898364 325.204538 432.692308 329.210948 442.286606 339.437837 438.016616 341.59919 443.288209 322.621457 451.195597"></polygon>
            <polygon id="Shape" fill="#FFFFFF" points="73.5387146 371.330972 82.0786943 359.8389 81.604251 359.311741 70.481191 366.797402 65.57861 359.522605 91.1985493 342.284497 90.0915148 340.650304 94.7305162 337.59278 99.9493927 345.289305 91.8838563 357.835695 92.4637314 358.362854 103.692223 350.824477 108.594804 358.099275 78.3358637 378.447621"></polygon>
        </g>
    </g>
</svg>