<?xml version="1.0" encoding="UTF-8"?>
<svg width="500px" height="500px" viewBox="0 0 500 500" version="1.1" xmlns="http://www.w3.org/2000/svg" xmlns:xlink="http://www.w3.org/1999/xlink">
    <!-- Generator: Sketch 55.2 (78181) - https://sketchapp.com -->
    <title>GS</title>
    <desc>Created with Sketch.</desc>
    <defs>
        <polygon id="path-1" points="0.565972222 0.510416667 242.314236 0.510416667 242.314236 144.913194 0.565972222 144.913194"></polygon>
        <polygon id="path-3" points="0.0520833333 0.401041667 104.182292 0.401041667 104.182292 123.989583 0.0520833333 123.989583"></polygon>
    </defs>
    <g id="GS" stroke="none" stroke-width="1" fill="none" fill-rule="evenodd">
        <g id="GSWarriors_Global_rgb" transform="translate(43.000000, 0.000000)">
            <polyline id="Fill-1" fill="#1D428A" points="212.397569 20.0928819 197.25 0 186.980035 0 186.980035 1.94444444 189.367188 3.64756944 189.367188 33.0946181 197.25 33.0946181 197.25 13.1909722 212.444444 33.0946181 220.280382 33.0946181 220.280382 0 212.397569 0 212.397569 20.0928819"></polyline>
            <polyline id="Fill-2" fill="#1D428A" points="157.094618 38.0842014 179.774306 34.0842014 178.584201 27.3342014 164.087674 29.8897569 162.963542 23.5104167 174.795139 21.4244792 174.282986 18.5269097 173.605035 14.6736111 161.773438 16.7604167 160.721354 10.8003472 173.956597 8.46614583 174.542535 1.40190972 153.121528 5.17881944 151.34809 5.4921875 148.997396 5.90538194 149.335938 7.82118056 151.980903 9.08420139 157.094618 38.0842014"></polyline>
            <path d="M118.306424,22.8984375 L122.456597,21.3888889 C126.695312,19.8454861 132.432292,20.4739583 134.875,27.1814236 C137.315972,33.890625 133.324653,38.0598958 129.085069,39.6032986 L124.935764,41.1128472 L118.306424,22.8984375 Z M119.426215,50.4140625 L131.030382,46.1909722 C141.782118,42.2769097 145.953125,33.4652778 142.638889,24.3576389 C139.322049,15.2482639 130.462674,11.1770833 119.664931,15.109375 L109.397569,18.8454861 L105.463542,20.2777778 L106.12934,22.1041667 L109.460069,23.03125 L119.426215,50.4140625 L119.426215,50.4140625 Z" id="Fill-3" fill="#1D428A"></path>
            <polyline id="Fill-4" fill="#1D428A" points="89.59375 66.8133681 110.074653 54.9895833 108.037326 47.7586806 93.1501736 56.3532986 80.2447917 33.9982639 74.8602431 37.1050347 73.0477431 38.1536458 71.234375 39.2005208 72.2065972 40.8836806 74.765625 41.1310764 89.59375 66.8133681"></polyline>
            <path d="M48.9114583,77.2413194 C45.0954861,72.8532986 45.0894097,67.3446181 49.4270833,63.5746528 C53.6909722,59.8680556 59.2170139,60.578125 63.03125,64.9678819 C66.8142361,69.3194444 66.8098958,74.9618056 62.546875,78.6684028 C58.2100694,82.4392361 52.6953125,81.5954861 48.9114583,77.2413194 M69.4470486,59.390625 C63.2439236,52.2534722 52.8472222,51.0807292 44.7118056,58.1519097 C36.5407986,65.2543403 36.2925347,75.6814236 42.4965278,82.8168403 C48.6996528,89.953125 59.0902778,91.1953125 67.2612847,84.0920139 C75.3958333,77.0208333 75.6501736,66.5260417 69.4470486,59.390625" id="Fill-5" fill="#1D428A"></path>
            <path d="M35.8715278,87.3967014 L24.8420139,101.515625 L30.0529514,105.587674 L35.2335069,98.9600694 C36.7335069,102.022569 36.4739583,105.550347 34.1102431,108.576389 C34.1076389,108.578993 34.1032986,108.583333 34.1015625,108.585938 C30.5625,113.103299 24.9939236,113.325521 20.4522569,109.777778 C15.8697917,106.196181 14.8116319,100.791667 18.3506944,96.2638889 C18.9105903,95.5477431 19.5243056,94.9383681 20.1788194,94.4340278 C21.1362847,93.6953125 22.1831597,93.1831597 23.2769097,92.8923611 L29.3932292,85.0659722 L29.546875,84.8671875 C29.3723958,84.8350694 29.1970486,84.8012153 29.0217014,84.7751736 C23.5581597,83.9696181 17.8098958,85.9305556 13.4600694,90.9088542 C13.1979167,91.2100694 12.9392361,91.5173611 12.6866319,91.8394097 C6.02170139,100.37066 7.76736111,110.653646 15.21875,116.473958 C22.671875,122.296875 33.1067708,121.53125 39.7717014,113 C40.0034722,112.703993 40.2230903,112.404514 40.4348958,112.104167 C44.7586806,105.948785 44.8524306,98.9626736 41.6927083,93.46875 C41.390625,92.9461806 41.0581597,92.4383681 40.6996528,91.9435764 C39.734375,90.6163194 38.5668403,89.4001736 37.2039931,88.3359375 C36.7769097,88 36.3350694,87.6970486 35.8897569,87.4071181 C35.8845486,87.4027778 35.8784722,87.4010417 35.8715278,87.3967014" id="Fill-6" fill="#1D428A"></path>
            <path d="M260.212674,25.0364583 L263.049479,27.71875 C265.508681,29.9982639 266.669271,31.1180556 266.173611,32.8446181 C265.782118,34.2083333 264.087674,34.9522569 261.622396,34.2447917 C258.610243,33.3810764 255.616319,30.8993056 253.446181,27.6206597 L251.047743,35.9826389 C253.081597,37.8454861 255.520833,39.6753472 260.451389,41.0902778 C266.75,42.8958333 272.976562,40.6475694 274.748264,34.4678819 C276.144097,29.6050347 273.534722,26.2994792 269.993056,22.9722222 L266.654514,19.8012153 C265.101562,18.3229167 264.743056,17.3359375 265.056424,16.2447917 C265.446181,14.8810764 267.088542,14.3194444 269.09809,14.8949653 C271.333333,15.5355903 274.126736,17.1727431 276.975694,20.4982639 L279.15191,12.9088542 C277.992188,11.7890625 275.036458,9.51649306 270.609375,8.24652778 C263.762153,6.28211806 258.21441,9.265625 256.689236,14.5833333 C255.619792,18.3107639 256.75,21.7821181 260.212674,25.0364583" id="Fill-7" fill="#1D428A"></path>
            <polyline id="Fill-8" fill="#1D428A" points="287.647569 50.8984375 295.265625 54.4505208 306.355035 30.6692708 315.779514 35.0651042 318.677083 28.8506944 292.166667 16.4887153 289.269097 22.7013889 298.736111 27.1171875 287.647569 50.8984375"></polyline>
            <path d="M333.712674,48.0763889 L330.663194,59.4774306 L327.474826,57.3263889 L324.284722,55.1762153 L333.712674,48.0763889 Z M308.985243,57.0104167 L306.979167,59.984375 L312.708333,63.8480903 L315.099826,61.15625 L318.74566,59.3107639 L323.825521,62.7352431 L328.903646,66.1605903 L328.559896,70.234375 L326.960069,73.4600694 L332.685764,77.3246528 L334.69184,74.3489583 L342.276042,43.8732639 L334.402778,38.5625 L331.783854,36.7942708 L330.696181,38.4071181 L331.532118,40.6467014 L308.985243,57.0104167 L308.985243,57.0104167 Z" id="Fill-9" fill="#1D428A"></path>
            <polyline id="Fill-10" fill="#1D428A" points="352.532986 59.8506944 360.172743 66.9765625 342.27691 86.1657986 348.424479 91.8975694 366.319444 72.7074653 373.925347 79.8003472 378.599826 74.7864583 357.208333 54.8376736 352.532986 59.8506944"></polyline>
            <polyline id="Fill-11" fill="#1D428A" points="376.59375 103.159722 383.989583 112.626736 389.391493 108.405382 381.99566 98.9383681 386.764757 95.2135417 395.037326 105.802951 401.551215 103.003472 388.00434 85.6657986 388.071181 85.6137153 385.494792 82.3151042 383.961806 83.5121528 384.101562 86.7491319 360.972222 104.819444 375.150174 122.967014 380.551215 118.747396 371.489583 107.148438 376.59375 103.159722"></polyline>
            <path d="M402.217014,241.021701 C402.217014,350.697917 313.307292,439.608507 203.630208,439.608507 C93.9539931,439.608507 5.04340278,350.697917 5.04340278,241.021701 C5.04340278,131.344618 93.9539931,42.4340278 203.630208,42.4340278 C313.307292,42.4340278 402.217014,131.344618 402.217014,241.021701" id="Fill-12" fill="#1D428A"></path>
            <path d="M203.630208,414.78559 C181.96875,414.78559 160.914931,410.845486 141.282118,403.311632 C140.478299,391.424479 139.697917,377.219618 138.950521,361.6875 L123.097222,356.289062 L123.104167,395.083333 C120.575521,393.756944 118.078993,392.368924 115.614583,390.915799 L115.623264,354.084201 L123.097222,354.348958 L123.097222,354.594618 L131.201389,354.636285 L145.834201,355.154514 L328.703993,361.632812 C327.974826,362.389757 327.244792,363.146701 326.500868,363.890625 C293.679688,396.711806 250.044271,414.78559 203.630208,414.78559 L203.630208,414.78559 Z M70.3203125,352.480903 L97.6215278,353.447049 C97.0772569,361.880208 96.4800347,369.889757 95.8263889,377.317708 C90.5911458,373.159722 85.5572917,368.688368 80.7595486,363.890625 C77.0902778,360.221354 73.6163194,356.409722 70.3203125,352.480903 L70.3203125,352.480903 Z M101.272569,267.296875 C100.697049,289.34375 99.8836806,312.106771 98.7864583,333.297743 L83.8298611,333.799479 L101.272569,267.296875 Z M102.383681,191.385417 C102.355035,206.731771 102.165799,225.208333 101.779514,244.984375 L78.4392361,333.981771 L62.3203125,334.523438 L102.383681,191.385417 Z M41.9184028,304.833333 C37.9166667,294.684028 34.8819444,284.147569 32.8602431,273.335069 C39.28125,268.223958 48.3185764,259.909722 59.0868056,246.957465 L41.9184028,304.833333 Z M45.0833333,312.337674 L67.7248264,236.019097 C76.8845486,223.831597 86.9800347,208.515625 97.5807292,189.371528 L56.9991319,334.359375 C52.4835069,327.296007 48.5078125,319.938368 45.0833333,312.337674 L45.0833333,312.337674 Z M123.06684,198.217014 L123.070313,208.90625 L114.974826,208.90625 L114.974826,218.835938 L123.071181,218.835938 L123.072917,229.526042 L114.974826,229.526042 L114.974826,239.453993 L123.075521,239.453993 L123.079861,259.50434 L114.974826,259.50434 L114.974826,269.434028 L123.080729,269.434028 L123.085069,290.055556 L114.974826,290.055556 L114.974826,299.984375 L123.086806,299.984375 L123.09375,332.480035 L115.626736,332.730903 L115.661458,181.572917 L123.064236,181.572917 L123.065972,188.287326 L114.974826,188.287326 L114.974826,198.217014 L123.06684,198.217014 Z M338.032118,325.251736 L333.388889,314.871528 C341.048611,317.963542 348.758681,320.921875 356.513021,323.758681 C356.351562,324.055556 356.1875,324.351562 356.024306,324.646701 L338.032118,325.251736 Z M343.958333,343.548611 C342.783854,345.149306 341.580729,346.734375 340.34809,348.298611 L138.351563,344.341146 L138.266493,342.394097 L343.958333,343.548611 Z M151.277778,331.532118 L137.62066,331.991319 C136.783854,311.997396 136.007813,290.988715 135.310764,270.648438 L151.277778,331.532118 Z M172.345486,330.822917 L156.574653,331.353299 L134.532986,247.313368 C133.835069,225.644097 133.242188,205.604167 132.789063,189.486111 L172.345486,330.822917 Z M195.867188,330.03125 L177.664931,330.644097 L137.605903,187.516493 C141.118056,191.388021 144.716146,195.171875 148.413194,198.854167 C152.294271,202.726562 156.269965,206.498264 160.317708,210.190104 L195.867188,330.03125 Z M217.692708,329.298611 L201.206597,329.854167 L167.644097,216.71875 C170.019097,218.782986 172.413194,220.824653 174.829861,222.837674 C179.070313,226.365451 183.375868,229.814236 187.737847,233.190104 L217.692708,329.298611 Z M240.173611,328.541667 L223.052083,329.118924 L194.831597,238.582465 C201.357639,243.449653 208,248.157118 214.749132,252.708333 L240.173611,328.541667 Z M261.919271,327.811632 L245.563368,328.361111 L221.759549,257.359375 C225.397569,259.729167 229.061632,262.059028 232.755208,264.342882 L240.355035,269.00434 L241.37934,269.603299 L261.919271,327.811632 Z M285.609375,327.014757 L267.336806,327.630208 L248.289062,273.644965 C249.493056,274.346354 250.685764,275.064236 251.902778,275.738715 L255.796875,277.90625 C258.396701,279.344618 260.980035,280.8125 263.59375,282.224826 L269.625868,285.412326 L285.609375,327.014757 Z M304.658854,302.55816 C311.87066,305.838542 319.141493,308.996528 326.457465,312.038194 L332.453993,325.439236 L314.501736,326.044271 L304.658854,302.55816 Z M308.976562,326.229167 L291.075521,326.831597 L276.554688,289.033854 L279.401042,290.460069 L287.372396,294.451389 C290.043403,295.748264 292.736111,297.002604 295.418403,298.28125 C296.178819,298.639757 296.945312,298.987847 297.706597,299.344618 L308.976562,326.229167 Z M80.7595486,118.15191 C113.580729,85.3324653 157.216146,67.2586806 203.630208,67.2586806 C250.044271,67.2586806 293.679688,85.3324653 326.500868,118.15191 C359.319444,150.972222 377.394097,194.607639 377.394097,241.022569 C377.394097,265.987847 372.155382,290.144965 362.215278,312.251736 C341.153646,305.145833 320.396701,297.126736 300.081597,288.104167 C297.415799,286.909722 294.737847,285.736979 292.079861,284.523437 L284.153646,280.783854 L280.189236,278.912326 L276.263889,276.962674 L268.418403,273.050347 C265.817708,271.719618 263.244792,270.337674 260.654514,268.982639 L256.774306,266.94184 C255.480035,266.263021 254.216146,265.533854 252.934028,264.833333 L245.264757,260.585069 L237.6875,256.179687 C217.532986,244.34809 198.111979,231.237847 179.806424,216.721354 C170.663194,209.454861 161.789062,201.845486 153.33941,193.802951 C149.112847,189.783854 145.006076,185.646701 141.025174,181.40191 C140.033854,180.338542 139.041667,179.275174 138.077257,178.190104 C137.098958,177.115451 136.140625,176.026042 135.194444,174.928819 C134.238715,173.83941 133.317708,172.725694 132.399306,171.614583 C132.363715,171.570312 132.326389,171.526042 132.291667,171.481771 C131.947049,158.71875 131.759549,151.09375 131.759549,151.09375 L123.05816,149.043403 L123.059896,160.703125 L115.665799,160.703125 L115.668403,148.462674 L106.33941,150.681424 L106.41059,155.126736 L102.050347,157.5 C102.170139,161.150174 102.259549,165.917535 102.31684,171.596354 C98.7890625,177.75434 60.2725694,244.275174 31.4748264,264.738715 C30.4166667,256.94184 29.8663194,249.024306 29.8663194,241.022569 C29.8663194,194.607639 47.9409722,150.972222 80.7595486,118.15191 L80.7595486,118.15191 Z M333.521701,111.131076 C298.825521,76.4366319 252.696181,57.3289931 203.630208,57.3289931 C154.564236,57.3289931 108.434896,76.4366319 73.7395833,111.131076 C39.0442708,145.825521 19.9375,191.955729 19.9375,241.022569 C19.9375,290.088542 39.0442708,336.217014 73.7395833,370.913194 C108.434896,405.608507 154.564236,424.71441 203.630208,424.71441 C252.696181,424.71441 298.825521,405.608507 333.521701,370.913194 C368.215278,336.217014 387.322917,290.088542 387.322917,241.022569 C387.322917,191.955729 368.215278,145.825521 333.521701,111.131076 L333.521701,111.131076 Z" id="Fill-13" fill="#FDB927"></path>
            <polyline id="Fill-14" fill="#1D428A" points="262.720486 452.600694 260.736111 442.392361 237.173611 446.971354 226.197049 449.105035 228.181424 459.313368 239.157986 457.179688 244.768229 486.044271 233.791667 488.177083 235.776042 498.385417 246.823785 496.237847 259.33941 493.804688 270.315104 491.671875 268.330729 481.463542 257.355035 483.597222 251.744792 454.733507 262.720486 452.600694"></polyline>
            <path d="M314.84375,445.883681 C311.116319,437.888889 303.356771,434.543403 295.587674,438.166667 C287.688368,441.849826 285.393229,449.883681 289.122396,457.877604 C292.818576,465.807292 300.507812,469.344618 308.408854,465.66059 C316.177083,462.038194 318.542535,453.813368 314.84375,445.883681 M326.530382,440.434028 C332.591146,453.434028 327.835069,468.630208 313.015625,475.540799 C298.131076,482.480903 283.499132,476.327257 277.436632,463.326389 C271.374132,450.326389 276.095486,435.226563 290.980035,428.286458 C305.799479,421.376736 320.467882,427.434028 326.530382,440.434028" id="Fill-15" fill="#1D428A"></path>
            <g id="Group-20" transform="translate(171.875000, 355.034722)">
                <mask id="mask-2" fill="white">
                    <use xlink:href="#path-1"></use>
                </mask>
                <g id="Clip-17"></g>
                <path d="M179.664931,61.9392361 L175.173611,65.7751736 L167.813368,57.1588542 L172.524306,53.1345486 C175.210069,50.8428819 178.563368,50.3350694 181.032118,53.2256944 C183.5,56.1163194 182.56684,59.4592014 179.664931,61.9392361 M190.94184,44.1970486 C184.699653,36.8888889 174.864583,37.4609375 167.46875,43.7777778 L153.557292,55.6579861 L151.420139,57.484375 L148.794271,59.7274306 L150.682292,61.9392361 L154.91059,61.5720486 L184.024306,95.6579861 L193.664062,87.4253472 L181.787326,73.5182292 L184.580729,71.1328125 L206.044271,76.8524306 L217.655382,66.9348958 L192.832465,61.1623264 C195.474826,55.6050347 195.039062,48.9956597 190.94184,44.1970486" id="Fill-16" fill="#1D428A" mask="url(#mask-2)"></path>
                <path d="M237.939236,42.3142361 C233.256076,48.5260417 229.33941,50.9852431 225.595486,52.8559028 L215.056424,44.9131944 C220.881076,43.6197917 226.021701,40.7291667 228.884549,36.9331597 C231.224826,33.8263889 231.092014,31.0217014 229.373264,29.7274306 C227.197049,28.0859375 224.981771,29.1215278 220.416667,31.3654514 L215.075521,33.9253472 C208.582465,37.0581597 203.052951,36.7699653 198.357639,33.2309028 C191.654514,28.1814236 190.446181,18.7013889 196.949653,10.0729167 C201.153646,4.49305556 205.979167,1.54427083 208.197049,0.510416667 L217.762153,7.71701389 C211.501736,9.9453125 207.668403,13.0086806 205.545139,15.8272569 C203.636285,18.359375 203.539062,20.9921875 205.256944,22.2873264 C206.631076,23.3229167 208.225694,23.3498264 211.163194,21.9557292 L217.467882,18.9513889 C224.105903,15.7447917 230.204861,13.8472222 236.334201,18.4652778 C244.122396,24.3350694 243.921875,34.375 237.939236,42.3142361" id="Fill-18" fill="#1D428A" mask="url(#mask-2)"></path>
                <path d="M21.9331597,115.615451 L16.03125,115.41059 L16.4270833,104.085069 L22.6171875,104.300347 C26.1449653,104.424479 28.9626736,106.31684 28.8289931,110.116319 C28.6961806,113.914062 25.7491319,115.75 21.9331597,115.615451 M42.234375,110.152778 C42.5703125,100.547743 34.9314236,94.3255208 25.2109375,93.9861111 L6.92708333,93.3480903 L4.11805556,93.25 L0.667534722,93.1284722 L0.565972222,96.0373264 L3.93055556,98.6215278 L2.3671875,143.422743 L15.0364583,143.862847 L15.6744792,125.586806 L19.3472222,125.71441 L31.3064236,144.43316 L46.5677083,144.965278 L32.1657986,123.938368 C37.8697917,121.625868 42.0138889,116.460069 42.234375,110.152778" id="Fill-19" fill="#1D428A" mask="url(#mask-2)"></path>
            </g>
            <path d="M136.676215,460.923611 L131.013889,459.247396 L134.230903,448.381076 L140.171007,450.141493 C143.554688,451.144097 145.809028,453.681424 144.728299,457.326389 C143.649306,460.969618 140.335938,462.007813 136.676215,460.923611 M157.697917,460.71875 C160.426215,451.503472 154.58941,443.56684 145.266493,440.804688 L125.028646,434.809896 L121.717882,433.828993 L120.891493,436.617188 L123.501736,439.963542 L110.769965,482.945313 L122.925347,486.546007 L128.12066,469.011285 L131.642361,470.054688 L138.53559,491.170139 L153.177083,495.506944 L144.498264,471.544271 C150.599826,470.733507 155.904514,466.769965 157.697917,460.71875" id="Fill-21" fill="#1D428A"></path>
            <g id="Group-25" transform="translate(0.000000, 351.562500)">
                <mask id="mask-4" fill="white">
                    <use xlink:href="#path-3"></use>
                </mask>
                <g id="Clip-23"></g>
                <path d="M83.0147569,94.1944444 L77.9869792,91.234375 L91.6050347,79.6111111 L88.0434028,97.1553819 L83.0147569,94.1944444 Z M97.9756944,68.7977431 L91.7690972,65.1414931 L88.140625,63.0052083 L86.6640625,65.5112847 L87.9131944,68.3177083 L54.9930556,95.4288194 L52.2326389,100.116319 L61.2612847,105.435764 L64.6345486,101.138021 L69.9852431,98.0060764 L77.9913194,102.72309 L85.9982639,107.439236 L85.8541667,113.638021 L83.7309028,118.670139 L92.7578125,123.989583 L95.5199653,119.302083 L104.182292,72.453125 L97.9756944,68.7977431 L97.9756944,68.7977431 Z" id="Fill-22" fill="#1D428A" mask="url(#mask-4)"></path>
                <polyline id="Fill-24" fill="#1D428A" mask="url(#mask-4)" points="67.9557292 49.4236111 67.9539931 49.4236111 64.8211806 46.0026042 62.6753472 47.96875 63.109375 51.5225694 36.0217014 63.2578125 53.5208333 33.6701389 48.0772569 27.7300347 17.2699653 42.7942708 33.7873264 12.1345486 24.2430556 1.71788194 24.2413194 1.71875 23.0338542 0.401041667 20.8888889 2.36631944 21.4782986 7.17708333 0 49.5729167 8.625 58.9852431 29.3237847 50.4288194 18.9461806 70.2491319 27.5694444 79.6614583 77.3550347 59.6822917 67.9557292 49.4236111"></polyline>
            </g>
        </g>
    </g>
</svg>