<?xml version="1.0" encoding="UTF-8" standalone="no"?>
<svg width="500px" height="500px" viewBox="0 0 500 500" version="1.1" xmlns="http://www.w3.org/2000/svg" xmlns:xlink="http://www.w3.org/1999/xlink">
    <!-- Generator: Sketch 39.1 (31720) - http://www.bohemiancoding.com/sketch -->
    <title>IND</title>
    <desc>Created with Sketch.</desc>
    <defs>
        <polygon id="path-1" points="96.031746 65.0578045 96.031746 0.311740602 0.0563492063 0.311740602 0.0563492063 65.0578045 96.031746 65.0578045"></polygon>
    </defs>
    <g id="NBA" stroke="none" stroke-width="1" fill="none" fill-rule="evenodd">
        <g id="IND">
            <g id="IPacers_Global_pms" transform="translate(0.000000, 39.000000)">
                <path d="M418.190476,58.668312 C387.230952,21.3355902 342.643651,0.567954887 292.661111,0.483078947 L92.7595238,0.499736842 L0,421.888154 L170.655556,422 L195.143651,320.03068 C218.072222,320.03068 278.342063,320.056064 278.275397,320.056064 C335.443651,320.451094 382.352381,301.101759 413.924603,264.087917 C471.272222,201.667613 461.196825,110.544169 418.190476,58.668312" id="Fill-1" fill="#B6B7B6"></path>
                <path d="M186.412698,308.92859 L161.93254,410.89315 L13.8007937,410.950263 L101.69127,11.5978609 L292.63254,11.7271579 C340.181746,11.8128271 380.904762,31.0828383 409.642063,65.7550564 C451.993651,116.824989 456.140476,201.712827 405.472222,256.89012 C374.402381,293.310624 328.849206,309.306962 278.356349,308.941282 L186.412698,308.92859" id="Fill-2" fill="#00264A"></path>
                <path d="M82.0111111,100.309083 L165.706349,100.368575 C175.321429,100.368575 185.55873,108.443688 181.122222,120.653132 C178.377778,128.203917 176.279365,136.950898 175.299206,145.166414 C174.539683,151.579703 181.709524,155.625985 185.815079,155.625985 L356.38254,155.744177 C359.584921,155.744177 361.284921,154.833545 361.284921,153.308158 C361.284921,151.782771 361.138095,146.130985 360.52381,142.170372 C359.931746,138.38665 359.307143,137.743338 356.247619,137.743338 C334.988889,137.725094 326.318254,128.253891 304.038889,113.892406 C281.756349,99.5317143 249.07619,91.2662256 220.987302,91.2495677 L84.0452381,91.1551729 L82.0111111,100.309083" id="Fill-3" fill="#F7C03B"></path>
                <path d="M185.343651,210.715229 C182.392857,204.391575 179.665079,196.882038 177.992063,189.967425 C175.876984,181.115737 168.395238,173.926665 155.574603,173.91556 L65.8103175,173.855274 L68.0349206,163.793906 L358.975397,163.987455 C361.868254,163.987455 361.253968,165.205861 361.110317,168.40735 C360.942857,171.626289 360.2,177.575538 359.728571,181.083214 C359.269841,184.587718 356.373016,183.759583 353.610317,183.821455 C347.057143,183.968203 334.889683,185.514214 327.793651,190.830462 C315.73254,199.887598 290.030159,215.782402 275.564286,220.413297 C260.069048,225.338481 202.13254,243.070414 185.168254,210.415387" id="Fill-4" fill="#F7C03B"></path>
                <path d="M49.7174603,247.109556 L201.640476,247.217436 C208.350794,247.217436 214.111905,248.811835 218.6,252.534477 C231.433333,263.111447 248.080952,270.797876 265.740476,275.905504 C273.676984,278.192395 287.302381,275.236808 299.499206,268.337267 C329.91746,251.157425 349.479365,218.467496 355.893651,197.411917 C357.575397,191.917985 354.369841,192.366955 350.105556,192.662831 C337.289683,193.578222 323.822222,205.16815 306.104762,216.455064 C288.378571,227.727699 252.334921,238.399064 218.129365,238.364955 L51.6690476,238.257868 L49.7174603,247.109556" id="Fill-5" fill="#F7C03B"></path>
                <path d="M272.578571,43.7610827 C274.722222,43.3803308 282.411111,42.9067707 286.686508,44.5908045 C315.544444,55.9483158 342.845238,85.9809135 354.269048,117.893474 C356.472222,124.032305 357.012698,127.967534 354.263492,128.279274 C341.034921,129.736444 334.873016,123.219241 319.305556,112.681932 C303.738095,102.139865 289.396032,94.9555526 269.687302,88.6842519 C250.269048,82.5049662 214.884921,81.6252707 210.304762,81.4713835 C205.738889,81.3174962 206.318254,79.4002519 208.310317,77.4187556 C225.261111,60.5078195 248.040476,48.2253985 272.578571,43.7610827" id="Fill-6" fill="#F7C03B"></path>
                <path d="M411.037302,153.18362 C411.11746,154.401233 409.82619,155.781459 408.3,155.781459 C408.144444,155.781459 375.01746,155.753695 375.01746,155.753695 C370.742063,155.753695 370.665079,153.774579 370.526984,151.326662 C370.359524,148.886677 369.67619,144.001154 369.528571,141.099508 C369.379365,138.289083 368.354762,135.061417 372.11746,133.48209 C381.384921,129.570658 390.146825,120.513523 394.128571,112.733492 C395.469841,110.120583 397.480159,105.793496 399.75873,109.470132 C407.638095,122.055568 410.100794,137.587865 411.037302,153.18362" id="Fill-7" fill="#F7C03B"></path>
                <path d="M399.137302,212.945801 C398.55873,214.065846 396.430159,214.90588 395.743651,213.077477 C390.879365,200.095425 379.35,191.166 371.407143,186.73738 C369.001587,185.398402 368.804762,183.83494 369.107143,181.470312 C369.419841,179.103305 370.419841,171.54538 370.574603,168.34865 C370.702381,165.826962 371.722222,164.000147 373.626984,164.000147 L408.3,164.020771 C409.52381,164.030289 411.061905,165.127331 411.061905,166.040342 C411.061905,182.572906 406.04127,198.881778 399.137302,212.945801" id="Fill-8" fill="#F7C03B"></path>
                <path d="M308.95873,277.986154 C306.514286,278.33359 301.178571,277.496729 309.583333,272.618346 C334.790476,257.980816 357.231746,223.626684 363.221429,203.899771 C365.510317,196.370402 365.752381,195.978545 368.638889,196.808267 C372.495238,197.900549 378.56746,203.150959 383.22381,209.556316 C387.87381,215.965639 389.895238,228.451128 387.203175,232.036541 C369.102381,256.31344 340.311111,273.383816 308.95873,277.986154" id="Fill-9" fill="#F7C03B"></path>
                <path d="M373.047619,122.491053 C367.19127,125.645741 366.054762,125.058748 364.805556,120.648372 C353.85873,82.266203 321.561905,53.8438684 308.371429,45.4443233 C305.849206,43.8554774 306.502381,42.795718 308.322222,43.0368609 C339.934127,47.2417895 370.886508,64.4620865 386.469841,88.0504586 C395.38254,101.564771 378.71746,119.440278 373.047619,122.491053" id="Fill-10" fill="#F7C03B"></path>
                <path d="M214.331746,341.520951 L195.399206,421.219459 L208.173016,421.219459 C208.173016,421.219459 214.884921,392.967669 215.207937,391.652489 L235.638095,391.652489 C240.571429,391.652489 244.333333,388.682624 245.466667,383.893876 L253.624603,349.603203 C253.806349,348.850425 253.876984,348.136515 253.876984,347.456714 C253.876984,346.055865 253.507937,344.846977 252.744444,343.87606 C251.525397,342.331635 249.407937,341.520951 246.63254,341.520951 L214.331746,341.520951 L214.331746,341.520951 Z M240.090476,352.743613 C239.710317,354.321353 233.811111,379.148756 233.505556,380.439346 L217.857937,380.439346 C218.337302,378.443571 224.155556,354.00644 224.451587,352.743613 L240.090476,352.743613 L240.090476,352.743613 Z" id="Fill-11" fill="#00264A"></path>
                <path d="M272.074603,357.071492 C267.174603,357.071492 263.989683,359.582868 262.868254,364.337508 L259.524603,378.443571 L272.010317,378.443571 C272.010317,378.443571 274.210317,369.100079 274.5,367.881673 L288.189683,367.881673 C287.763492,369.714835 285.101587,380.865312 284.826984,382.032951 L266.644444,382.032951 C261.145238,382.032951 257.521429,385.098004 256.151587,390.906056 L250.642857,414.046252 C250.496825,414.653075 250.434921,415.228169 250.434921,415.798504 C250.434921,417.146207 250.827778,418.379684 251.620635,419.366466 C252.822222,420.889474 254.819048,421.728714 257.237302,421.728714 C257.301587,421.728714 257.569048,421.708883 257.569048,421.708883 C262.073016,421.36938 271.906349,420.629293 275.749206,420.242989 C275.692063,420.446056 275.507143,421.219459 275.507143,421.219459 L287.985714,421.219459 L301.403175,364.752368 C301.987302,362.299692 301.755556,360.381654 300.686508,359.040297 C299.665079,357.737015 297.914286,357.071492 295.528571,357.071492 L272.074603,357.071492 L272.074603,357.071492 Z M282.231746,392.946252 C281.824603,394.685019 278.323016,409.420117 278.039683,410.602034 L263.93254,410.602034 C264.345238,408.875959 267.856349,394.131342 268.144444,392.946252 L282.231746,392.946252 L282.231746,392.946252 Z" id="Fill-12" fill="#00264A"></path>
                <path d="M324.389683,357.071492 C319.606349,357.071492 316.499206,359.582868 315.360317,364.337508 L303.674603,413.545722 C303.080952,416.024575 303.303968,417.955305 304.353968,419.277624 C305.37619,420.566628 307.136508,421.219459 309.55873,421.219459 L332.605556,421.219459 C337.438095,421.219459 340.46746,418.777887 341.614286,413.95741 L346.162698,394.80559 L333.887302,394.80559 C333.887302,394.80559 330.475397,409.145658 330.18254,410.410071 L316.900794,410.410071 C317.36746,408.41747 326.699206,369.178609 327.001587,367.881673 L340.284127,367.881673 C339.844444,369.755289 337.785714,378.302376 337.785714,378.302376 L350.079365,378.302376 L353.314286,364.752368 C353.91746,362.210056 353.704762,360.324541 352.65873,358.990323 C351.651587,357.726703 349.890476,357.071492 347.422222,357.071492 L324.389683,357.071492" id="Fill-13" fill="#00264A"></path>
                <path d="M375.045238,357.071492 C370.271429,357.071492 367.163492,359.582868 366.026984,364.337508 L354.338889,413.545722 C353.746825,416.024575 353.969841,417.955305 355.024603,419.277624 C356.042857,420.566628 357.792857,421.219459 360.215873,421.219459 L383.350794,421.219459 C385.705556,421.270226 387.670635,420.675301 389.199206,419.47038 C390.742063,418.240075 391.792857,416.432297 392.375397,413.95741 L396.652381,396.010511 L384.169048,396.010511 C384.169048,396.010511 381.044444,409.167075 380.738889,410.410071 L367.550794,410.410071 C368.004762,408.52297 371.515873,393.75059 371.803968,392.541703 L394.546825,392.541703 L398.161905,389.626571 L404.07381,364.752368 C404.289683,363.858395 404.388889,363.038985 404.388889,362.290966 C404.388889,360.966267 404.065079,359.866053 403.393651,359.020466 C402.364286,357.726703 400.612698,357.071492 398.188095,357.071492 L375.045238,357.071492 L375.045238,357.071492 Z M390.851587,367.881673 C390.461111,369.519699 387.742063,380.982711 387.468254,382.121793 L374.27619,382.121793 C374.665873,380.491699 377.385714,369.039 377.668254,367.881673 L390.851587,367.881673 L390.851587,367.881673 Z" id="Fill-14" fill="#00264A"></path>
                <g id="Group-18" transform="translate(403.968254, 356.161654)">
                    <mask id="mask-2" fill="white">
                        <use xlink:href="#path-1"></use>
                    </mask>
                    <g id="Clip-16"></g>
                    <path d="M43.9952381,0.356161654 C38.968254,0.932842105 30.8904762,1.88392857 27.4119048,2.4383985 C27.4555556,2.28371805 27.7793651,0.910631579 27.7793651,0.910631579 L15.2984127,0.909838346 L0.0563492063,65.0578045 L12.5301587,65.0578045 C12.5301587,65.0578045 24.6730159,13.9791466 24.9896825,12.6314436 L37.3825397,12.6314436 C36.9285714,14.5121992 35.3507937,22.1407218 35.3507937,22.1407218 L47.9261905,22.1407218 L51.0373016,8.08859774 C51.6142857,5.66923684 51.3690476,3.76627068 50.3150794,2.42808647 C49.2055556,1.02089098 47.2396825,0.311740602 44.4603175,0.311740602 C44.3579365,0.318086466 43.9952381,0.356161654 43.9952381,0.356161654" id="Fill-15" fill="#00264A" mask="url(#mask-2)"></path>
                    <path d="M66.7071429,0.909838346 C64.202381,0.909838346 59.7904762,1.85457895 58.2936508,8.17585338 L54.6555556,23.4733534 C54.5222222,24.0294098 54.3420635,24.9820827 54.3420635,25.9799699 C54.3420635,27.0627331 54.597619,28.1938835 55.2952381,29.0307444 C55.3309524,29.0735789 55.35,29.1497293 55.384127,29.1965301 C55.4071429,29.2147744 55.4071429,29.2353985 55.4301587,29.2536429 L55.4071429,29.210015 C55.5452381,29.3496241 55.7246032,29.4828872 56.0642857,29.7041992 C70.331746,39.4355827 74.1063492,42.1603383 75.0873016,42.9480188 C74.8698413,43.8959323 72.5047619,53.8192782 72.4087302,54.2484173 L60.1222222,54.2484173 C60.5722222,52.3716278 63.481746,40.1494925 63.481746,40.1494925 L50.9920635,40.1494925 L46.9079365,57.3840677 C46.2928571,59.9152744 46.5388889,61.8832857 47.6039683,63.2309887 C48.5619048,64.4454286 50.1071429,65.0578045 52.1888889,65.0578045 L75.6261905,65.0578045 C80.0071429,65.0578045 82.9,62.5496015 84.0357143,57.7957556 L88.0293651,40.9831805 C88.1388889,40.5445226 88.3388889,39.6957632 88.3388889,38.6748722 C88.3388889,37.3271692 87.9960317,35.6756579 86.6293651,34.2280075 L86.5579365,34.1383722 L86.4634921,34.0876053 C79.8460317,29.7898684 69.4126984,22.9109511 67.6063492,21.4997895 C67.8277778,20.5526692 69.7285714,12.5449812 69.931746,11.7200188 L82.5166667,11.7200188 C82.0674603,13.5841165 80.0674603,22.3160263 80.0674603,22.3160263 L92.5492063,22.3160263 L95.7222222,8.59071429 C96.315873,6.16342105 96.047619,4.16288722 94.9888889,2.80883835 C94.3039683,1.94421429 92.9230159,0.909838346 90.2531746,0.909838346 L66.7071429,0.909838346" id="Fill-17" fill="#00264A" mask="url(#mask-2)"></path>
                </g>
            </g>
        </g>
    </g>
</svg>