<?xml version="1.0" encoding="UTF-8" standalone="no"?>
<svg width="500px" height="500px" viewBox="0 0 500 500" version="1.1" xmlns="http://www.w3.org/2000/svg" xmlns:xlink="http://www.w3.org/1999/xlink">
    <!-- Generator: Sketch 39.1 (31720) - http://www.bohemiancoding.com/sketch -->
    <title>LAC</title>
    <desc>Created with Sketch.</desc>
    <defs>
        <polygon id="path-1" points="0.000868055556 46.7972603 500 46.7972603 500 23.7652911 500 0.733321918 0.000868055556 0.733321918"></polygon>
    </defs>
    <g id="NBA" stroke="none" stroke-width="1" fill="none" fill-rule="evenodd">
        <g id="LAC">
            <g id="LAClippers_Global_pms" transform="translate(0.000000, 60.000000)">
                <path d="M7.21006944,164.599863 C2.40017361,168.987215 -0.0078125,174.693288 0.000868055556,181.612237 L0.000868055556,306.925479 C0.00434027778,313.98411 2.40277778,319.746575 7.21006944,324.13653 C12.0043403,328.53863 17.9314236,330.367489 24.9461806,329.777534 C36.1631944,328.837078 47.3914931,327.964292 58.6319444,327.166119 L58.6319444,303.479452 C47.3914931,304.051187 36.1631944,304.673242 24.9461806,305.346484 L24.9461806,183.192968 C36.1631944,183.86621 47.3914931,184.489132 58.6319444,185.060868 L58.6319444,161.374201 C47.3914931,160.576027 36.1631944,159.703242 24.9461806,158.761918 C17.9348958,158.169361 12.0138889,160.072831 7.21006944,164.599863" id="Fill-1" fill="#262420"></path>
                <path d="M88.6788194,163.34274 C80.3289931,162.843014 71.9826389,162.303379 63.6388889,161.725571 L63.6388889,326.814749 C81.8489583,325.551553 100.083333,324.474018 118.335938,323.583014 L118.335938,300.920959 C108.445312,301.269726 98.5581597,301.650594 88.6788194,302.073973 L88.6788194,163.34274" id="Fill-3" fill="#262420"></path>
                <path d="M123.356771,323.343562 C131.867188,322.945342 140.384549,322.584429 148.903646,322.266027 L148.903646,166.273425 C140.384549,165.954155 131.867188,165.59411 123.356771,165.195023 L123.356771,323.343562" id="Fill-4" fill="#262420"></path>
                <path d="M196.107639,233.320868 C190.421875,233.302648 184.736111,233.285297 179.052951,233.264475 L179.052951,189.241735 C184.738715,189.348447 190.418403,189.441279 196.107639,189.524566 L196.107639,233.320868 L196.107639,233.320868 Z M196.107639,167.625114 C182.041667,167.344886 167.976563,166.954475 153.926215,166.454749 L153.926215,322.083836 C162.299479,321.786256 170.676215,321.526849 179.052951,321.306484 L179.052951,255.27411 C184.738715,255.253288 190.418403,255.235068 196.107639,255.216849 C203.051215,255.199498 208.94184,253.075662 213.787326,248.870502 C218.755208,244.665342 221.263889,239.50411 221.255208,233.374658 L221.255208,189.795251 C221.255208,183.785525 218.755208,178.662466 213.787326,174.39484 C208.945313,170.022237 203.044271,167.761324 196.107639,167.625114 L196.107639,167.625114 Z" id="Fill-5" fill="#262420"></path>
                <path d="M383.075521,187.567306 C388.75,187.36863 394.423611,187.15347 400.091146,186.930502 C400.088542,202.218128 400.088542,217.511826 400.091146,232.802922 C394.423611,232.847169 388.75,232.888813 383.075521,232.927854 L383.075521,187.567306 L383.075521,187.567306 Z M417.709201,249.168082 C422.664931,244.709589 425.141493,239.170091 425.144097,232.58516 L425.144097,185.84863 C425.147569,179.395571 422.670139,174.031324 417.709201,169.852192 C412.881076,165.525571 407.016493,163.609954 400.091146,163.991689 C386.061632,164.774247 372.026042,165.444886 357.975694,166.004475 L357.975694,322.53411 C366.346354,322.86726 374.71441,323.242055 383.075521,323.653288 L383.075521,256.286575 C390.025174,278.796804 396.96875,301.595936 403.911458,324.761187 C412.267361,325.237489 420.617188,325.756301 428.96441,326.310685 C421.672743,302.048813 414.380208,278.272785 407.082465,254.839452 C411.037326,253.847808 414.610243,252.031096 417.709201,249.168082 L417.709201,249.168082 Z" id="Fill-6" fill="#262420"></path>
                <path d="M268.50434,233.388539 C262.815972,233.391142 257.130208,233.397215 251.438368,233.397215 L251.438368,189.904566 C257.126736,189.901963 262.815972,189.889817 268.50434,189.86032 L268.50434,233.388539 L268.50434,233.388539 Z M268.50434,168.097078 C254.429688,168.192511 240.358507,168.177763 226.284722,168.055434 L226.284722,320.484018 C234.670139,320.409406 243.052083,320.373836 251.438368,320.379041 L251.438368,255.142237 C257.126736,255.142237 262.815972,255.14484 268.50434,255.150913 C275.444444,255.154384 281.33941,253.069589 286.1875,248.869635 C291.170139,244.673151 293.652778,239.493699 293.652778,233.346895 L293.652778,189.654703 C293.652778,183.623288 291.16059,178.536667 286.1875,174.396575 C281.335938,170.131553 275.447917,168.046758 268.50434,168.097078 L268.50434,168.097078 Z" id="Fill-7" fill="#262420"></path>
                <path d="M298.680556,320.816301 C316.977431,321.146849 335.265625,321.658721 353.53559,322.361461 L353.53559,300.048174 C343.636285,299.774018 333.730903,299.544977 323.822917,299.351507 L323.822917,255.287123 C329.505208,255.310548 339.645833,255.33484 345.322917,255.358265 C345.326389,247.965616 345.326389,240.571233 345.322917,233.178584 C339.645833,233.205479 329.505208,233.229772 323.822917,233.253196 L323.822917,189.188813 C333.734375,188.995342 343.636285,188.762831 353.53559,188.492146 L353.53559,166.177991 C335.265625,166.878128 316.974826,167.39347 298.680556,167.724018 L298.680556,320.816301" id="Fill-8" fill="#262420"></path>
                <path d="M499.999132,206.674886 L499.999132,181.612237 C499.99566,174.688082 497.53125,168.987215 492.596354,164.615479 C487.793403,160.084977 481.943576,158.18758 475.057292,158.762785 C468.032986,159.349269 461.008681,159.912329 453.979167,160.44589 C446.940972,160.978584 441.016493,163.766119 436.197917,168.739954 C431.373264,173.586256 428.965278,179.209041 428.962674,185.669041 L428.962674,232.551324 C428.962674,239.148402 431.375868,244.675753 436.197917,249.244429 C441.016493,253.810502 446.949653,256.168584 453.979167,256.243196 C461.008681,256.317808 468.03559,256.401096 475.057292,256.484384 L475.057292,305.347352 C468.032986,304.923973 461.008681,304.524886 453.979167,304.144018 L453.979167,280.195342 C445.647569,279.924658 437.306424,279.667854 428.962674,279.429269 L428.962674,302.869543 C428.962674,309.465753 431.375868,315.137123 436.197917,319.986027 C441.016493,324.840137 446.949653,327.56 453.979167,328.092694 C461.008681,328.626256 468.03559,329.185845 475.057292,329.778402 C481.952257,330.35621 487.798611,328.518676 492.596354,324.119178 C497.528646,319.74137 499.999132,313.98411 499.999132,306.925479 L499.999132,256.800183 C499.99566,249.876027 497.53125,243.978219 492.596354,239.219543 C487.793403,234.316849 481.943576,231.970046 475.057292,232.053333 C468.032986,232.140091 461.008681,232.217306 453.979167,232.294521 L453.979167,184.397169 C461.008681,184.012831 468.03559,183.613744 475.057292,183.193836 L475.057292,207.622283 C483.37934,207.321233 491.690972,207.005434 499.999132,206.674886" id="Fill-9" fill="#262420"></path>
                <path d="M26.3237847,161.539909 C36.1987847,162.37105 46.5069444,163.175297 56.9600694,163.931826 L56.9600694,162.928037 C46.2777778,162.162831 35.4600694,161.319543 24.8064236,160.425936 C24.0234375,160.357397 23.2482639,160.325297 22.5060764,160.325297 C16.9036458,160.325297 12.2734375,162.121187 8.35763889,165.813607 C3.91145833,169.867808 1.6640625,175.180868 1.67013889,181.61137 L1.67013889,306.924612 C1.67361111,312.222922 3.13020833,316.743881 6.01822917,320.412877 C3.87239583,317.008493 2.78732639,312.984658 2.78472222,308.410776 L2.78472222,183.097534 C2.77604167,176.559452 5.06423611,171.154429 9.58767361,167.025616 C13.578125,163.26726 18.2890625,161.438402 23.9930556,161.438402 C24.75,161.438402 25.5338542,161.473973 26.3237847,161.539909" id="Fill-10" fill="#717170"></path>
                <path d="M87.0086806,165.935068 L87.0086806,164.913927 C79.7699653,164.475799 72.4696181,164.005571 65.3081597,163.513653 L65.3081597,325.025799 L66.4227431,324.951187 L66.4227431,164.600731 L66.6223958,164.615479 C73.2022569,165.065753 80.0590278,165.509087 87.0086806,165.935068" id="Fill-11" fill="#717170"></path>
                <path d="M147.234375,168.934292 L147.234375,167.880183 C139.956597,167.603425 132.489583,167.290228 125.02691,166.944932 L125.02691,321.594521 L126.141493,321.546804 L126.141493,168.040685 L126.335069,168.049361 C133.109375,168.362557 140.138889,168.660137 147.234375,168.934292" id="Fill-12" fill="#717170"></path>
                <path d="M197.56684,170.406575 C202.62066,170.508082 207.135417,171.809452 211.039063,174.288128 C206.822917,171.08589 201.801215,169.406256 196.073785,169.29347 C182.633681,169.025388 169.015625,168.653196 155.59375,168.1821 L155.59375,320.357352 L156.711806,320.318311 L156.711806,169.283927 L156.90191,169.29 C170.380208,169.763699 184.061632,170.139361 197.56684,170.406575" id="Fill-13" fill="#717170"></path>
                <path d="M403.279514,166.727169 C407.815104,166.727169 411.763889,167.796895 415.25,169.982329 C411.418403,167.042968 406.999132,165.613196 401.796007,165.613196 C401.265625,165.613196 400.725694,165.627945 400.184028,165.658311 C386.889757,166.400091 373.253472,167.055114 359.647569,167.60863 L359.647569,320.930822 L360.762153,320.977671 L360.762153,168.737352 L360.940972,168.732146 C374.666667,168.17516 388.361979,167.514064 401.646701,166.771416 C402.201389,166.741918 402.749132,166.727169 403.279514,166.727169" id="Fill-14" fill="#717170"></path>
                <path d="M251.516493,170.94274 C257.684896,170.94274 263.904514,170.921918 269.998264,170.880274 L270.224826,170.880274 C275.382812,170.880274 279.838542,172.083607 283.736111,174.546667 C279.507812,171.333151 274.584201,169.766301 268.740451,169.766301 L268.514757,169.766301 C262.315972,169.807945 256.097222,169.828767 250.029514,169.828767 C242.782118,169.828767 235.355903,169.799269 227.956597,169.739406 L227.956597,318.799178 L229.071181,318.793105 L229.071181,170.850776 L229.256076,170.853379 C236.661458,170.913242 244.150174,170.94274 251.516493,170.94274" id="Fill-15" fill="#717170"></path>
                <path d="M351.867188,167.912283 C334.833333,168.556027 317.501736,169.041872 300.349826,169.362877 L300.349826,319.179178 L301.467014,319.2 L301.467014,170.482922 L301.648438,170.48032 C318.241319,170.170594 335.137153,169.699498 351.867188,169.077443 L351.867188,167.912283" id="Fill-16" fill="#717170"></path>
                <path d="M476.650174,161.540776 C477.401042,161.478311 478.154514,161.445342 478.888021,161.445342 C482.988715,161.445342 486.591146,162.425708 489.800347,164.420274 C486.236979,161.671781 482.159722,160.33137 477.401042,160.33137 C476.685764,160.33137 475.943576,160.360868 475.195313,160.423333 C468.204861,161.010685 461.109375,161.57895 454.106771,162.109909 C447.550347,162.603562 441.930556,165.224521 437.397569,169.900776 C432.844618,174.472922 430.633681,179.628082 430.633681,185.670776 L430.633681,232.549589 C430.633681,237.470502 432.046007,241.70516 434.936632,245.395845 C432.793403,242.051324 431.747396,238.301644 431.747396,234.035753 L431.747396,187.154338 C431.747396,181.01274 433.997396,175.768219 438.616319,171.124932 C443.215278,166.38621 448.915799,163.727078 455.564236,163.226484 C462.539931,162.696393 469.635417,162.129863 476.650174,161.540776" id="Fill-17" fill="#717170"></path>
                <g id="Group-21" transform="translate(0.000000, 333.150685)">
                    <mask id="mask-2" fill="white">
                        <use xlink:href="#path-1"></use>
                    </mask>
                    <g id="Clip-19"></g>
                    <path d="M0.000868055556,23.7638813 C165.636285,3.09726027 334.364583,3.09726027 500,23.7638813 L500,15.0854795 C334.364583,-4.05073059 165.636285,-4.05073059 0.000868055556,15.0854795 L0.000868055556,23.7638813" id="Fill-18" fill="#1E427B" mask="url(#mask-2)"></path>
                    <path d="M60.3333333,46.8493151 C185.548611,14.4269863 314.458333,14.4269863 439.667535,46.8493151 L439.667535,38.6610959 C314.452257,7.12109589 185.548611,7.11502283 60.3333333,38.6610959 C60.3359375,41.393105 60.3359375,44.1181735 60.3333333,46.8493151" id="Fill-20" fill="#CB2437" mask="url(#mask-2)"></path>
                </g>
                <path d="M200.348958,143.536758 C133.335069,141.896164 66.4175347,136.940548 0,128.65516 L0,137.330959 C70.625,145.491416 141.813368,150.158128 213.082465,151.358858 C208.594618,149.12484 204.329861,146.512557 200.348958,143.536758" id="Fill-22" fill="#1E427B"></path>
                <path d="M299.651042,143.536758 C295.670139,146.512557 291.405382,149.12484 286.917535,151.358858 C358.186632,150.158128 429.375,145.491416 500,137.330959 L500,128.65516 C433.582465,136.940548 366.664062,141.896164 299.651042,143.536758" id="Fill-23" fill="#1E427B"></path>
                <path d="M183.674479,126.911324 C142.33941,123.232785 101.141493,116.132511 60.3333333,105.568858 C60.3368056,108.302603 60.3368056,111.027671 60.3333333,113.758813 C103.46875,124.624384 147.041667,131.745479 190.75434,135.122968 C188.222222,132.542785 185.853299,129.802968 183.674479,126.911324" id="Fill-24" fill="#CB2437"></path>
                <path d="M316.323785,126.913927 C314.144965,129.805571 311.776042,132.542785 309.24566,135.1221 C352.955729,131.744612 396.532118,124.623516 439.666667,113.758813 L439.666667,105.567991 C398.859375,116.135114 357.657986,123.235388 316.323785,126.913927" id="Fill-25" fill="#CB2437"></path>
                <path d="M172.930556,77.1061644 C172.930556,34.563516 207.435764,0.0772146119 250.000868,0.0772146119 C292.564236,0.0772146119 327.069444,34.563516 327.069444,77.1061644 C327.069444,119.648813 292.564236,154.134247 250.000868,154.134247 C207.435764,154.134247 172.930556,119.648813 172.930556,77.1061644" id="Fill-26" fill="#FFFFFF"></path>
                <path d="M305.709201,119.903014 C296.880208,108.457032 291.861979,94.8464384 291.179688,80.4819178 L320.21875,80.4819178 C319.533854,94.8611872 314.52691,108.469178 305.709201,119.903014 M253.378472,147.285571 L253.378472,127.157717 L246.623264,127.157717 L246.623264,147.285571 C228.328993,146.416256 211.363715,138.574201 198.764757,125.165753 C209.059896,112.316895 214.868056,96.883516 215.580729,80.4819178 L215.580729,73.7295434 C214.868056,57.3288128 209.059896,41.8945662 198.764757,29.0457078 C211.363715,15.6372603 228.328993,7.79607306 246.623264,6.92589041 L246.623264,26.8715525 L253.378472,26.8715525 L253.378472,6.92589041 C271.671875,7.79607306 288.637153,15.6346575 301.236979,29.0457078 C290.940972,41.8945662 285.132812,57.3288128 284.421007,73.7295434 L284.421007,80.4819178 C285.132812,96.883516 290.940972,112.316895 301.236979,125.165753 C288.637153,138.576804 271.671875,146.416256 253.378472,147.285571 M194.291667,119.903014 C185.473958,108.469178 180.46441,94.8611872 179.782118,80.4819178 L208.822049,80.4819178 C208.136285,94.8490411 203.118056,108.457032 194.291667,119.903014 M194.291667,34.3084475 C203.121528,45.7544292 208.136285,59.3658904 208.822049,73.7295434 L179.782118,73.7295434 C180.46441,59.350274 185.473958,45.7422831 194.291667,34.3084475 M305.709201,34.3084475 C314.52691,45.7422831 319.533854,59.350274 320.21875,73.7295434 L291.179688,73.7295434 C291.861979,59.3658904 296.880208,45.7544292 305.709201,34.3084475 M249.999132,0.0789497717 C207.505208,0.0789497717 172.931424,34.63379 172.931424,77.1078995 C172.931424,119.578539 207.505208,154.132511 249.999132,154.132511 C292.496528,154.132511 327.070312,119.578539 327.070312,77.1078995 C327.070312,34.63379 292.496528,0.0789497717 249.999132,0.0789497717" id="Fill-27" fill="#262420"></path>
                <polyline id="Fill-28" fill="#CB2437" points="232.830729 44.8443379 232.830729 109.107717 267.184028 109.107717 267.184028 100.271416 242.024306 100.271416 242.024306 44.8443379 232.830729 44.8443379"></polyline>
                <path d="M278.862847,66.3733333 L278.862847,39.8930594 C278.862847,35.926484 277.264757,34.3093151 273.346354,34.3093151 L226.585069,34.3093151 C222.717014,34.3093151 221.138021,35.926484 221.138021,39.8930594 L221.138021,114.319269 C221.138021,118.285845 222.717014,119.903014 226.585069,119.903014 L273.346354,119.903014 C277.264757,119.903014 278.862847,118.285845 278.862847,114.319269 L278.862847,87.8086301 L269.59809,87.8086301 L269.59809,111.775525 L230.334201,111.775525 L230.334201,42.4368037 L269.59809,42.4368037 L269.59809,66.3733333 L278.862847,66.3733333" id="Fill-29" fill="#1E427B"></path>
                <path d="M253.730903,72.476758 L258.210069,72.476758 L258.210069,53.6771689 L253.730903,53.6771689 L253.730903,72.476758 Z M267.167535,97.7831963 L267.182292,44.8434703 L244.862847,44.8434703 L244.644965,97.7831963 L253.585069,97.7831963 L253.728299,81.2835616 L258.272569,81.2835616 L258.206597,97.7831963 L267.167535,97.7831963 L267.167535,97.7831963 Z" id="Fill-30" fill="#CB2437"></path>
            </g>
        </g>
    </g>
</svg>