<?xml version="1.0" encoding="UTF-8" standalone="no"?>
<svg width="500px" height="500px" viewBox="0 0 500 500" version="1.1" xmlns="http://www.w3.org/2000/svg" xmlns:xlink="http://www.w3.org/1999/xlink">
    <!-- Generator: Sketch 39.1 (31720) - http://www.bohemiancoding.com/sketch -->
    <title>LAL</title>
    <desc>Created with Sketch.</desc>
    <defs>
        <polygon id="path-1" points="0 309.952308 500 309.952308 500 0.0643846154 0 0.0643846154"></polygon>
        <path d="M249.210471,149.906584 C262.896027,128.436807 270.842857,102.834422 270.842857,75.3443077 C270.842857,47.8410363 262.887084,22.2263629 249.18737,0.749564103 L22.4478468,0.749564103 C8.74815044,22.2263629 0.792063492,47.8410363 0.792063492,75.3443077 C0.792063492,102.834422 8.73920675,128.436807 22.4247453,149.906584 L249.210471,149.906584 L249.210471,149.906584 Z" id="path-3"></path>
        <path d="M236.264937,202.832258 C213.39161,245.598404 168.811178,274.625026 117.560317,274.625026 C67.5695574,274.625026 23.9217408,247.001741 0.580439688,205.947159 L0.580442359,68.7450859 C23.9217408,27.6914833 67.5695574,0.0667692308 117.560317,0.0667692308 C168.811178,0.0667692308 213.39161,29.0948923 236.264937,71.8599144 L236.264931,202.832268 L236.264937,202.832258 Z" id="path-5"></path>
    </defs>
    <g id="NBA" stroke="none" stroke-width="1" fill="none" fill-rule="evenodd">
        <g id="LAL">
            <g id="LALakers_Global_pms" transform="translate(0.000000, 95.000000)">
                <g id="Group-3">
                    <mask id="mask-2" fill="white">
                        <use xlink:href="#path-1"></use>
                    </mask>
                    <g id="Clip-2"></g>
                    <path d="M108.785714,69.7651026 C108.785714,69.7651026 151.352381,0.0643846154 238.512698,0.0643846154 C325.674603,0.0643846154 366.215873,67.7357949 366.215873,67.7357949 L484.461905,67.7357949 L479.730952,96.8344615 C479.730952,96.8344615 476.35,108.337051 470.946825,109.691513 L479.051587,109.691513 C479.051587,109.691513 481.757143,119.842821 465.54127,155.031795 L499.998413,155.031795 C499.998413,155.031795 501.353175,216.612897 427.029365,245.709974 C427.029365,245.709974 388.516667,257.889795 368.91746,236.914718 C368.91746,236.914718 329.730952,310 238.512698,310 C147.297619,310 106.08254,234.883026 106.08254,234.883026 L0,234.883026 L16.8928571,204.432282 L5.40634921,204.432282 L18.9198413,179.393821 L41.8936508,179.393821 L45.9460317,169.918949 L35.1349206,169.918949 L61.4880952,121.196487 L76.352381,121.196487 L82.4325397,106.306949 L69.5952381,106.306949 L89.1896825,69.7651026 L108.785714,69.7651026" id="Fill-1" fill="#FFFFFF" mask="url(#mask-2)"></path>
                </g>
                <path d="M239.78254,293.701949 C314.35873,293.701949 374.811111,232.241667 374.811111,156.421231 C374.811111,80.6071538 314.35873,19.1436923 239.78254,19.1436923 C165.215079,19.1436923 104.760317,80.6071538 104.760317,156.421231 C104.760317,232.241667 165.215079,293.701949 239.78254,293.701949" id="Fill-4" fill="#F3B336"></path>
                <path d="M254.68254,155.739231 L248.790476,155.689154 C248.378571,155.689154 248.042063,156.026179 248.042063,156.440308 C248.042063,156.852051 248.378571,157.189077 248.790476,157.189077 L254.768254,157.130256 C256.783333,157.130256 258.643651,157.387795 258.131746,158.28441 L242.650794,187.89259 C240.729365,191.425 236.652381,190.522821 236.009524,187.704205 L228.340476,148.028179 L255.298413,127.079333 C257.980159,124.771026 263.13254,121.016051 265.77381,121.062154 L271.646825,121.034333 C275.22619,121.002538 276.496032,122.684487 275.657143,124.845744 L274.619048,126.852 C273.946032,127.975154 271.82381,128.108692 270.028571,128.108692 L266.637302,128.12459 C266.223016,128.12459 265.887302,128.461615 265.887302,128.877333 C265.887302,129.293051 266.223016,129.628487 266.637302,129.628487 L269.984127,129.630077 C271.425397,129.630077 273.25,129.661077 272.576984,130.751641 L260.068254,154.634359 C259.49127,155.565949 256.895238,155.739231 254.68254,155.739231 L254.68254,155.739231 Z M301.333333,170.474564 C288.715079,185.795718 281.570635,191.038692 268.756349,191.038692 C264.399206,191.038692 262.123016,190.06259 263.342063,187.946641 L278.543651,157.342487 L284.339683,157.342487 C290.811111,157.342487 289.913492,162.798487 288.15873,170.19159 C287.838095,171.222538 288.626984,171.286923 289.396032,170.384744 L303.844444,144.958385 C304.547619,143.356718 302.730952,143.034 301.830952,144.254128 C294.593651,154.095436 286.980952,153.364949 283.769048,153.364949 L281.152381,153.364949 L297.37381,122.342692 L303.921429,122.342692 C312.163492,122.856974 316,129.864564 313.619048,146.757179 L317.043651,146.757179 L328.97619,123.199564 C329.937302,121.209205 327.898413,119.392128 325.650794,119.392128 L244.674603,119.421538 C239.996825,119.421538 239.785714,123.019923 244.272222,123.019923 C247.916667,123.019923 247.728571,128.257333 244.456349,130.784231 L210.084127,158.115897 L217.020635,190.389282 C217.534921,192.827949 219.092063,193.992436 221.783333,193.992436 L288.742857,193.992436 C291.499206,193.992436 292.642063,192.862128 293.534921,191.707974 L305.66746,170.732103 C307.334921,167.719538 303.450794,167.907128 301.333333,170.474564 L301.333333,170.474564 Z" id="Fill-5" fill="#49256C"></path>
                <path d="M153.194444,161.668974 L131.88254,161.668974 L158.834127,126.07859 L153.194444,161.668974 L153.194444,161.668974 Z M148.256349,183.779128 C147.615079,187.436333 143.946825,189.859103 139.334127,191.073667 L134.573016,192.267564 L138.480159,185.216256 C139.505556,183.288692 137.254762,182.153615 134.793651,185.022308 C118.234127,204.328949 112.960317,213.574897 87.4285714,213.644051 L80.565873,213.659949 C78.4960317,213.659949 76.2119048,212.842026 77.6190476,210.850077 L86.6579365,194.001974 L120.965079,194.006744 C125.642063,194.006744 124.442857,190.479103 121.69127,190.379744 C119.874603,190.320128 117.889683,189.279641 116.484127,187.054795 C116.093651,186.43559 115.242857,183.992949 116.583333,182.104333 L129.714286,164.621923 L151.556349,164.621923 L148.256349,183.779128 L148.256349,183.779128 Z M199.093651,190.379744 C197.280952,190.320128 196.111905,189.076154 195.70873,187.876692 C195.134127,186.143077 195.180952,183.080436 195.884127,181.733128 L227.123016,126.243923 C227.631746,125.220923 228.896825,123.073974 230.45,123.079538 C233.202381,123.082718 234.4,119.451744 229.72619,119.451744 L204.710317,119.451744 C200.033333,119.451744 199.98254,123.015154 204.465873,123.015154 C206.296825,123.015154 207.015873,124.809179 206.504762,125.900538 L199.588095,138.450769 C198.72381,139.829872 196.807937,139.934 194.788889,139.934 L188.831746,139.916513 C188.416667,139.916513 188.083333,140.253538 188.083333,140.670846 C188.083333,141.083385 188.416667,141.42041 188.831746,141.42041 L194.739683,141.42359 C196.342063,141.42359 197.61746,141.909256 196.688889,143.769256 L173.63254,185.841026 C171.966667,188.150128 168.661905,188.66441 168.853175,184.23459 L177.053175,122.620103 C177.373016,120.692538 176.866667,119.392128 174.816667,119.392128 L162.449206,119.405641 C160.975397,119.405641 160.062698,120.125795 159.355556,121.086795 L154.926984,126.653282 C154.351587,127.227974 153.107143,127.227179 151.729365,127.227179 L141.350794,127.212077 C140.938889,127.212077 140.602381,127.549103 140.602381,127.961641 C140.602381,128.378154 140.938889,128.71359 141.350794,128.71359 L149.824603,128.71359 C151.328571,128.71359 153.089683,129.068103 152.45,129.775538 L140.557937,144.758077 C140.201587,145.17459 139.043651,145.293821 138.335714,145.293821 L134.976984,145.275538 C134.562698,145.275538 134.225397,145.611769 134.225397,146.026692 C134.225397,146.44241 134.562698,146.779436 134.976984,146.779436 L137.778571,146.781821 C138.642857,146.781821 138.651587,147.212641 138.297619,147.597359 L127.124603,161.668974 C126.547619,162.213462 125.42619,162.327923 124.334921,162.327923 L114.470635,162.31759 C114.054762,162.31759 113.72381,162.649846 113.72381,163.065564 C113.72381,163.477308 114.054762,163.814333 114.470635,163.814333 L122.942857,163.819897 C124.225397,163.819897 125.221429,164.052795 124.546825,164.919205 L108.65,184.884795 C105.66746,188.69541 91.2777778,190.626949 88.4738095,190.626949 L142.22381,89.9007949 C142.738095,88.7434615 144.731746,86.9804359 146.803175,86.9804359 L158.212698,86.9804359 C163.595238,86.9804359 163.437302,83.3876154 158.760317,83.3876154 L101.387302,83.3876154 C96.7119048,83.3876154 96.5222222,86.9804359 101.904762,86.9804359 L112.52619,86.9804359 C115.537302,86.9804359 116.514286,88.8054615 115.735714,90.2918718 L114.216667,93.0667692 C113.703968,93.967359 112.994444,94.3290256 110.080159,94.3290256 L91.3071429,94.3131282 C90.8928571,94.3131282 90.5587302,94.6509487 90.5587302,95.0642821 C90.5587302,95.4784103 90.8928571,95.8138462 91.3071429,95.8138462 L110.03254,95.8170256 C111.057143,95.8170256 112.575397,96.0825128 111.615873,97.9115128 L108.987302,102.803949 C108.538095,103.542385 107.387302,103.890538 106.074603,103.890538 L97.5563492,103.874641 C97.1404762,103.874641 96.8039683,104.210872 96.8039683,104.625795 C96.8039683,105.043103 97.1404762,105.375359 97.5563492,105.375359 L106.028571,105.380128 C107.245238,105.380128 107.272222,106.181359 106.56746,107.302923 L100.523016,118.554333 C100.00873,119.516128 99.0269841,119.644897 97.102381,119.644897 L93.7103175,119.63059 C93.2944444,119.63059 92.9595238,119.966026 92.9595238,120.380154 C92.9595238,120.796667 93.2944444,121.132103 93.7103175,121.132103 L97.0579365,121.133692 C98.3365079,121.133692 98.6730159,121.848282 98.0984127,123.067615 L93.1333333,132.307205 C92.3952381,133.623513 91.3388889,134.149718 88.0365079,134.149718 L69.2650794,134.134615 C68.8515873,134.134615 68.5150794,134.471641 68.5150794,134.884179 C68.5150794,135.299103 68.8515873,135.636128 69.2650794,135.636128 L87.9873016,135.637718 C90.1031746,135.671103 90.8833333,136.606667 90.0492063,138.118513 L80.3595238,156.361615 C79.784127,157.164436 78.1992063,157.283667 75.5111111,157.283667 L56.7380952,157.268564 C56.3238095,157.268564 55.9873016,157.60559 55.9873016,158.022103 C55.9873016,158.433051 56.3238095,158.770077 56.7380952,158.770077 L75.4611111,158.774846 C77.7047619,158.774846 79.0730159,158.863872 78.4007937,160.053 L72.815873,170.568359 C71.7904762,172.178769 68.9111111,172.174 67.7896825,172.174 L61.8309524,172.158897 C61.418254,172.158897 61.081746,172.491154 61.081746,172.906872 C61.081746,173.324179 61.418254,173.661205 61.8309524,173.661205 L67.7396825,173.661205 C69.8214286,173.661205 70.9261905,174.022872 70.3801587,175.147615 L62.9246032,189.185846 C62.2507937,190.439359 59.3325397,190.49341 57.0880952,190.49341 L28.0626984,190.479103 C27.6507937,190.479103 27.3142857,190.816128 27.3142857,191.231846 C27.3142857,191.64359 27.6507937,191.979821 28.0626984,191.979821 L57.0396825,191.98459 C58.9626984,191.98459 61.3920635,192.223051 60.4968254,193.764308 L55.7357143,202.728077 C55.2849206,203.466513 53.6603175,203.530897 51.3214286,203.530897 L45.3650794,203.515795 C44.9507937,203.515795 44.6142857,203.852821 44.6142857,204.269333 C44.6142857,204.680282 44.9507937,205.017308 45.3650794,205.017308 L51.2738095,205.017308 C52.7174603,205.017308 54.468254,205.181051 53.8587302,206.276385 L50.881746,212.004231 C49.9214286,213.421487 48.9619048,214.690103 46.6563492,214.690103 L32.0936508,214.690103 C26.7111111,214.690103 26.8992063,218.282923 31.5761905,218.282923 L117.100794,218.327436 C119.596032,218.327436 119.678571,217.99041 120.859524,216.152667 L133.540476,194.001974 L198.369841,194.006744 C203.044444,194.006744 201.847619,190.479103 199.093651,190.379744 L199.093651,190.379744 Z" id="Fill-6" fill="#49256C"></path>
                <path d="M364.635714,149.76259 C362.284921,151.695718 358.580159,153.920564 357.863492,153.211538 C356.863492,152.221128 353.753968,150.070205 352.083333,149.298385 L366.046825,123.732923 C366.619841,122.833128 367.283333,122.342692 368.821429,122.342692 C374.257143,122.342692 376.038889,128.249385 373.487302,135.602744 C371.698413,140.759872 368.795238,146.338282 364.635714,149.76259 L364.635714,149.76259 Z M477.385714,172.684308 C477.034127,170.930026 476.393651,171.995949 475.238889,174.205692 C474.884127,174.879744 473.764286,174.894051 472.643651,174.894051 L469.216667,174.909154 C468.803968,174.909154 468.465079,175.246179 468.465079,175.657128 C468.465079,176.074436 468.803968,176.410667 469.216667,176.410667 L472.586508,176.405897 C473.869841,176.405897 473.887302,177.263564 473.287302,178.551256 C470.930952,183.591538 468.500794,186.965769 465.277778,190.998949 C464.765873,191.64359 463.46746,192.188077 462.438095,192.188077 L458.998413,192.203179 C458.581746,192.203179 458.245238,192.53941 458.245238,192.956718 C458.245238,193.372436 458.581746,193.704692 458.998413,193.704692 L462.368254,193.704692 C464.064286,193.704692 462.348413,194.755513 462.059524,195.136256 C456.077778,203.124718 451.957937,206.692103 447.561905,210.269821 C447.046825,210.686333 444.566667,210.542462 442.83254,210.532128 L439.438889,210.548026 C439.025397,210.548026 438.688889,210.885051 438.688889,211.300769 C438.688889,211.712513 439.025397,212.048744 439.438889,212.048744 L442.785714,212.053513 C445.346825,212.053513 443.427778,213.525615 443.04127,213.847538 C433.728571,221.622179 419.838095,224.13 413.493651,223.332744 C392.863492,220.745436 388.61746,205.072154 387.093651,198.803 C386.774603,197.495436 385.788889,194.815128 385.461905,193.149872 C384.823016,189.874205 394.126984,188.942615 396.696825,190.666692 C400.595238,193.278641 409.675397,195.954179 416.823016,195.979615 C423.434127,196.004256 436.965079,191.196872 440.88254,179.820667 C444.886508,168.185333 434.823016,155.273436 430.366667,150.81341 C424.685714,145.126897 419.330952,136.071718 421.588095,129.429769 C423.290476,124.425256 426.14127,122.151128 432.246825,122.151128 C440.130159,122.151128 445.87381,127.22559 445.87381,134.436667 C445.87381,135.077333 445.475397,135.845179 444.960317,135.845179 L442.175397,135.858692 C441.762698,135.858692 441.42619,136.195718 441.42619,136.611436 C441.42619,137.024769 441.762698,137.360205 442.175397,137.360205 L444.792857,137.360205 C445.529365,137.360205 445.99127,137.92059 445.800794,138.818795 C445.286508,141.232026 445.11746,142.925897 444.593651,145.344692 C444.289683,146.746846 446.338889,147.718179 447.046825,146.692795 L459.442857,124.526205 C460.340476,122.856974 458.347619,122.410256 456.874603,122.920564 C453.486508,124.101744 447.965079,124.917282 446.010317,123.511949 C441.37381,120.181436 437.155556,118.039256 430.67619,118.039256 C419.662698,118.039256 411.942063,120.755333 406.994444,129.843103 C406.607937,130.546564 405.523016,130.537026 404.596032,130.537026 L402.480159,130.532256 C402.066667,130.532256 401.730159,130.869282 401.730159,131.285 C401.730159,131.696744 402.066667,132.034564 402.480159,132.034564 L404.281746,132.018667 C405.051587,132.018667 405.569841,132.232487 405.183333,133.133077 C404.838095,133.946231 404.537302,134.810256 404.25,135.705282 C402.996032,139.631154 403.400794,145.151538 405.365079,150.070205 C405.493651,150.388949 405.080952,150.543154 404.321429,150.541564 L400.942857,150.555872 C400.530159,150.555872 400.193651,150.892897 400.193651,151.305436 C400.193651,151.720359 400.530159,152.057385 400.942857,152.057385 L404.312698,152.057385 C405.843651,152.064538 406.203175,152.215564 406.838889,153.112974 C408.578571,155.565949 410.365873,157.382231 412.603968,160.236615 C413.306349,161.134026 410.299206,161.386 408.694444,161.371692 L395.335714,161.366923 C394.920635,161.366923 394.585714,161.703949 394.585714,162.119667 C394.585714,162.535385 394.920635,162.867641 395.335714,162.867641 L408.865079,162.853333 C411.04127,162.853333 414.770635,162.818359 415.188095,163.298462 C418.460317,167.079667 422.419048,172.906872 423.087302,177.812821 C423.279365,179.225308 422.744444,179.820667 421.015079,179.820667 L419.205556,179.820667 C418.790476,179.820667 418.453968,180.152128 418.453968,180.567846 C418.453968,180.984359 418.790476,181.321385 419.205556,181.321385 L420.797619,181.321385 C422.17381,181.321385 422.92619,181.543949 422.609524,182.570128 C420.856349,188.184308 418.224603,192.252462 407.518254,192.193641 C396.290476,192.134026 394.00873,181.113128 397.293651,169.617692 C397.946032,167.322897 397.264286,166.342026 396.238095,168.140026 L388.426984,180.439872 C388.233333,180.726821 387.478571,181.425513 386.292857,181.425513 L385.18254,181.419949 C384.765873,181.419949 384.429365,181.757769 384.429365,182.173487 C384.429365,182.59 384.777778,182.922256 385.192063,182.922256 C386.184127,182.922256 386.568254,183.452436 386.188889,183.996923 L383.315079,188.476821 C378.600794,177.664974 370.684921,164.339744 366.469841,159.487846 L366.542857,159.254949 C376.951587,158.626205 392.310317,148.861205 394.823016,140.131923 C399.188095,124.983256 384.499206,119.392128 376.496032,119.392128 L341.305556,119.397692 C336.628571,119.397692 336.29127,122.945205 340.77381,122.945205 C343.198413,122.945205 345.315873,125.071487 344.244444,127.221615 L336.447619,141.290051 C335.805556,142.444205 333.388889,142.375051 330.253175,142.375051 L326.838095,142.375051 C326.424603,142.375051 326.086508,142.708103 326.086508,143.123821 C326.086508,143.539538 326.424603,143.873385 326.838095,143.873385 L330.194444,143.873385 C332.435714,143.873385 334.906349,144.010103 334.07619,145.615744 L324.860317,162.277846 C324.411111,163.046487 323.21746,163.121205 320.080159,163.121205 L316.680952,163.129949 C316.268254,163.129949 315.934921,163.466974 315.934921,163.884282 C315.934921,164.3 316.268254,164.637026 316.680952,164.637026 L320.003968,164.632256 C322.474603,164.632256 323.396825,164.963718 322.693651,166.247436 L310.384127,188.541205 C308.910317,190.146846 307.159524,190.444128 304.150794,190.444128 C299.666667,190.444128 299.716667,194.006744 304.392857,194.006744 L334.531746,194.006744 C339.209524,194.006744 338.014286,190.379744 335.260317,190.379744 C333.640476,190.385308 331.918254,187.39659 332.996825,185.608128 L348.381746,156.421231 L349.944444,156.421231 C356.786508,156.421231 358.438889,167.664692 359.731746,179.939103 C359.823016,180.815846 358.150794,180.865923 354.743651,180.865923 L346.188095,180.875462 C345.77619,180.875462 345.439683,181.212487 345.439683,181.629 C345.439683,182.044718 345.77619,182.376974 346.188095,182.376974 L354.654762,182.376974 C356.900794,182.376974 360.035714,182.396846 360.114286,183.124949 C360.701587,188.506231 361.146825,193.248436 362.171429,197.56459 C362.493651,198.912692 360.09127,198.704436 357.530159,198.704436 L346.639683,198.719538 C346.22381,198.719538 345.888889,199.056564 345.888889,199.467513 C345.888889,199.884026 346.22381,200.221051 346.639683,200.221051 L357.521429,200.235359 C360.940476,200.235359 362.706349,200.23059 362.9,200.934051 C367.587302,218.14859 387.688889,231.701949 407.235714,230.953974 C424.004762,230.314103 438.171429,221.177051 445.425397,215.349051 C455.07381,207.599051 469.249206,191.360615 475.015873,179.552795 C476.074603,177.386769 477.771429,174.611872 477.385714,172.684308 L477.385714,172.684308 Z" id="Fill-7" fill="#49256C"></path>
                <path d="M194.937302,96.6691282 C192.114286,100.331103 188.363492,101.261897 184.160317,101.261897 L182.97381,101.261897 L190.388889,86.5631282 C190.74127,85.8914615 191.52381,85.3644615 192.486508,85.3644615 C193.41746,85.3644615 193.304762,83.5068462 192.088095,83.5068462 L180.402381,83.5068462 C179.409524,83.5068462 179.057143,85.3644615 179.985714,85.3644615 C180.983333,85.3644615 181.165079,86.4677436 180.684921,87.3993333 L174.048413,100.504385 C173.6,101.211821 172.864286,101.404179 172.051587,101.614821 C171.065873,101.868385 170.387302,103.633 171.50873,103.633 L190.164286,103.633 C191.602381,103.633 191.938889,103.099641 192.325397,102.584564 L196.071429,96.7684872 C196.616667,96.0602564 195.481746,95.9632821 194.937302,96.6691282" id="Fill-8" fill="#49256C"></path>
                <path d="M251.131746,84.0266923 C250.566667,84.3358974 249.229365,84.499641 248.652381,84.0179487 C247.164286,82.7779487 244.238889,81.8264872 242.70873,81.8264872 C238.307937,81.8264872 235.122222,82.6952821 233.20873,86.8548462 C231.576984,90.396 233.25,93.3624615 237.130952,95.1628462 C238.811111,95.9402308 241.042063,96.9560769 240.186508,98.9861795 C239.563492,100.465436 237.839683,100.613282 236.288095,100.599769 C234.204762,100.579103 231.075397,99.0163846 230.587302,96.0713846 C230.424603,95.1064103 229.307143,95.331359 228.987302,95.8448462 L226.331746,101.141872 C225.916667,101.849308 227.007937,102.633846 227.443651,102.169641 C228.340476,101.206256 230.292857,100.978128 231.253175,101.61959 C232.575397,102.501103 235.973016,104.045538 238.004762,104.031231 C242.460317,103.997846 245.4,102.851641 247.837302,99.0227436 C250.070635,95.5300769 248.698413,92.063641 244.631746,90.1464103 C242.48254,89.1337436 240.643651,87.3405128 241.603175,85.3644615 C242.226984,84.0759744 244.145238,84.357359 245.096825,84.5187179 C246.914286,84.8247436 249.239683,86.5353077 249.509524,88.0455641 C249.625397,88.684641 250.439683,88.8134103 250.795238,88.2355385 L252.195238,84.9678205 C252.514286,84.3271538 251.484921,83.8351282 251.131746,84.0266923" id="Fill-9" fill="#49256C"></path>
                <path d="M380.583333,89.2911282 L382.206349,86.2920769 C382.913492,84.9765641 381.752381,83.4814103 379.890476,83.4814103 L358.10873,83.4814103 C356.538095,83.4814103 357,85.1236154 357.643651,85.1236154 C359.040476,85.1236154 359.453968,86.8278205 358.606349,88.2681282 L352.055556,100.340641 C351.078571,101.493205 350.452381,101.990795 349.056349,101.990795 C347.93254,101.990795 347.534127,103.633 349.105556,103.633 L371.180952,103.633 C372.07619,103.633 372.470635,103.312667 372.789683,102.861179 L375.790476,98.8693333 C376.525397,97.9083333 374.94127,97.9083333 374.45873,98.3884359 C370.649206,102.207795 366.572222,102.094923 363.611111,102.094923 L361.038095,102.094923 L364.059524,95.3361282 L364.705556,95.3361282 C366.645238,95.3361282 368.884921,95.3146667 369.469048,96.7907436 C369.626984,97.1436667 370.588095,97.4322051 370.973016,96.7907436 L373.547619,91.629641 C373.964286,90.8617949 372.803175,90.7266667 372.488889,91.2775128 C371.470635,93.099359 366.995238,92.6113077 365.82381,92.6113077 L365.180159,92.6113077 L368.943651,85.1689231 L373.139683,85.1689231 C375.745238,85.1689231 377.992063,87.0162051 378.72619,89.0335897 C378.901587,89.5168718 380.295238,89.9007949 380.583333,89.2911282" id="Fill-10" fill="#49256C"></path>
                <path d="M272.88254,93.1192308 L280.144444,87.1735897 L280.175397,93.1192308 L272.88254,93.1192308 L272.88254,93.1192308 Z M324.851587,83.4814103 L317.099206,83.4814103 C315.528571,83.4814103 315.990476,85.1236154 316.630952,85.1236154 C318.289683,85.1236154 319.796032,87.0694615 318.886508,88.8611026 L315.677778,94.7415641 L308.601587,84.3716667 C308.120635,83.7294103 307.004762,83.4170256 306.048413,83.4170256 L298.420635,83.4170256 C296.85,83.4170256 297.214286,85.0441282 297.856349,85.0441282 C299.47619,85.0441282 299.056349,86.2586923 298.654762,87.1251026 L292.580952,98.8478718 C292.195238,99.7794615 290.536508,99.913 290.025397,98.7254615 L285.319048,83.3772821 C285.12381,82.7684103 282.376984,82.7994103 281.673016,83.3772821 L269.884921,93.1081026 L263.781746,93.1192308 C262.565079,93.1192308 262.086508,93.62 262.086508,94.2630513 C262.086508,94.9045128 262.545238,95.4903333 263.828571,95.4903333 L267.018254,95.4847692 L263.828571,98.1173846 C262.050794,99.4440256 260.234127,101.261897 259.02619,101.261897 L258.284127,101.261897 C257.128571,101.261897 256.48254,101.449487 256.48254,102.381077 C256.48254,103.312667 256.969048,103.633 258.05873,103.633 L267.565873,103.633 C269.359524,103.633 269.010317,101.292897 268.112698,101.292897 C267.130159,101.292897 265.507143,100.037 267.014286,98.2731795 L269.914286,95.4903333 L275.634127,95.4903333 C279.028571,95.4903333 281.4,99.4297179 279.380952,100.651436 L277.80873,101.518641 C277.075397,101.901769 276.751587,103.633 277.811905,103.633 L296.392857,103.633 C297.769048,103.633 297.490476,101.806385 296.846825,101.806385 C294.946825,101.806385 295.844444,99.0656667 296.210317,98.3343846 L301.09127,89.0733333 L307.949206,102.381077 C308.396825,103.215692 308.801587,103.633 309.603175,103.633 L312.226984,103.633 C313.061111,103.633 313.342063,103.150513 313.727778,102.509846 L321.535714,88.3833846 C322.792857,85.8604615 323.755556,85.1331538 325.334921,85.1331538 C325.977778,85.1331538 326.423016,83.4814103 324.851587,83.4814103 L324.851587,83.4814103 Z" id="Fill-11" fill="#49256C"></path>
                <path d="M216.647619,95.1874872 C214.57619,99.3287692 211.106349,101.784923 208.897619,100.676077 C206.689683,99.5680256 206.580952,95.3114872 208.649206,91.1717949 C210.719841,87.0289231 214.189683,84.5727692 216.400794,85.6816154 C218.607143,86.7896667 218.722222,91.047 216.647619,95.1874872 L216.647619,95.1874872 Z M214.800794,82.5959231 C208.265079,82.5959231 201.534127,85.8191282 200.190476,92.6868205 C199.022222,98.6626667 203.148413,104.865051 210.443651,104.865051 C217.390476,104.865051 223.802381,100.305667 225.095238,93.7153846 C226.388095,87.0901282 221.462698,82.5959231 214.800794,82.5959231 L214.800794,82.5959231 Z" id="Fill-12" fill="#49256C"></path>
                <path d="M346.942857,92.6160769 L338.547619,92.6160769 C336.974603,92.6160769 337.439683,94.2574872 338.080952,94.2574872 C338.742857,94.2574872 339.360317,94.6072308 339.360317,95.666 C339.363492,99.0640769 337.912698,100.372436 335.003175,100.372436 C331.806349,100.372436 330.651587,96.4910769 332.806349,91.7282051 C334.180952,88.684641 337.814286,85.8382051 342.130159,85.8382051 C344.773016,85.8382051 346.992857,86.4105128 347.33254,88.8928974 C347.412698,89.5049487 348.32619,89.5041538 348.645238,88.9270769 L350.637302,85.3549231 C350.861905,84.9678205 350.511905,84.5139487 349.905556,84.4757949 C349.393651,84.4424103 348.245238,85.1053333 347.490476,84.543359 C345.805556,83.2914359 342.15,82.0808462 339.389683,82.0808462 C334.888095,82.0808462 328.59127,83.0998718 324.346032,90.4921795 C320.503175,97.1746667 326.097619,104.245051 331.285714,104.255385 C334.172222,104.260949 337.515873,102.122744 339.433333,101.313564 L341.576984,102.767385 C341.896032,103.150513 342.569048,103.633 343.20873,103.633 L344.010317,103.633 C344.746825,103.633 345.036508,102.623513 345.323016,101.981256 L348.615873,93.998359 C349.034127,93.1987179 348.8,92.6160769 346.942857,92.6160769" id="Fill-13" fill="#49256C"></path>
                <path d="M461.943651,84.0266923 C461.379365,84.3358974 460.04127,84.499641 459.466667,84.0179487 C457.978571,82.7779487 455.053175,81.8264872 453.520635,81.8264872 C449.125397,81.8264872 445.93254,82.6952821 444.019841,86.8548462 C442.388889,90.396 444.060317,93.3624615 447.944444,95.1628462 C449.623016,95.9402308 451.857143,96.9560769 450.998413,98.9861795 C450.375397,100.465436 448.65,100.613282 447.1,100.599769 C445.021429,100.579103 441.888095,99.0163846 441.396825,96.0713846 C441.238889,95.1064103 440.123016,95.331359 439.803175,95.8448462 L437.142063,101.141872 C436.72619,101.849308 437.825397,102.633846 438.256349,102.169641 C439.153968,101.206256 441.110317,100.978128 442.066667,101.61959 C443.388889,102.501103 446.789683,104.045538 448.819048,104.031231 C453.272222,103.997846 456.209524,102.851641 458.653968,99.0227436 C460.883333,95.5300769 459.511111,92.063641 455.445238,90.1464103 C453.293651,89.1337436 451.453968,87.3405128 452.416667,85.3644615 C453.044444,84.0759744 454.957143,84.357359 455.913492,84.5187179 C457.725397,84.8247436 460.052381,86.5353077 460.320635,88.0455641 C460.436508,88.684641 461.253968,88.8134103 461.607143,88.2355385 L463.00873,84.9678205 C463.32619,84.3271538 462.295238,83.8351282 461.943651,84.0266923" id="Fill-14" fill="#49256C"></path>
                <path d="M403.571429,96.6691282 C400.748413,100.331103 396.997619,101.261897 392.795238,101.261897 L391.607937,101.261897 L399.024603,86.5631282 C399.375397,85.8914615 400.156349,85.3644615 401.12381,85.3644615 C402.050794,85.3644615 401.937302,83.5068462 400.720635,83.5068462 L389.038095,83.5068462 C388.042857,83.5068462 387.692063,85.3644615 388.622222,85.3644615 C389.615873,85.3644615 389.796032,86.4677436 389.319841,87.3993333 L382.680952,100.504385 C382.23254,101.211821 381.498413,101.404179 380.685714,101.614821 C379.701587,101.868385 379.020635,103.633 380.144444,103.633 L398.796825,103.633 C400.238889,103.633 400.575397,103.099641 400.957937,102.584564 L404.707937,96.7684872 C405.251587,96.0602564 404.115873,95.9632821 403.571429,96.6691282" id="Fill-15" fill="#49256C"></path>
                <path d="M431.705556,85.1689231 C434.312698,85.1689231 436.55873,87.0162051 437.293651,89.0335897 C437.469048,89.5168718 438.861111,89.9007949 439.150794,89.2911282 L440.77381,86.2920769 C441.477778,84.9765641 440.319841,83.4814103 438.459524,83.4814103 L416.671429,83.4814103 C415.105556,83.4814103 415.56746,85.1236154 416.204762,85.1236154 C417.606349,85.1236154 418.021429,86.8278205 417.175397,88.2681282 L410.624603,100.340641 C409.646032,101.493205 409.019841,101.990795 407.61746,101.990795 C406.498413,101.990795 406.101587,103.633 407.674603,103.633 L429.743651,103.633 C430.642063,103.633 431.035714,103.312667 431.357143,102.861179 L434.354762,98.8693333 C435.094444,97.9083333 433.510317,97.9083333 433.029365,98.3884359 C429.216667,102.207795 425.139683,102.094923 422.176984,102.094923 L419.603968,102.094923 L422.626984,95.3361282 L423.268254,95.3361282 C425.211111,95.3361282 427.446032,95.3146667 428.031746,96.7907436 C428.196032,97.1436667 429.152381,97.4322051 429.535714,96.7907436 L432.115079,91.629641 C432.530159,90.8617949 431.365873,90.7266667 431.057937,91.2775128 C430.038095,93.099359 425.564286,92.6113077 424.390476,92.6113077 L423.747619,92.6113077 L427.507937,85.1689231 L431.705556,85.1689231" id="Fill-16" fill="#49256C"></path>
                <g id="Group-27" transform="translate(103.968254, 81.076923)">
                    <mask id="mask-4" fill="white">
                        <use xlink:href="#path-3"></use>
                    </mask>
                    <g id="Clip-18"></g>
                    <path d="M150.714286,74.6623077 L144.822222,74.6122308 C144.410317,74.6122308 144.07381,74.9492564 144.07381,75.3633846 C144.07381,75.7751282 144.410317,76.1121538 144.822222,76.1121538 L150.8,76.0533333 C152.815079,76.0533333 154.675397,76.3108718 154.163492,77.2074872 L138.68254,106.815667 C136.761111,110.348077 132.684127,109.445897 132.04127,106.627282 L124.372222,66.9512564 L151.330159,46.0024103 C154.011905,43.6941026 159.164286,39.9391282 161.805556,39.9852308 L167.678571,39.9574103 C171.257937,39.9256154 172.527778,41.6075641 171.688889,43.7688205 L170.650794,45.7750769 C169.977778,46.8982308 167.855556,47.0317692 166.060317,47.0317692 L162.669048,47.0476667 C162.254762,47.0476667 161.919048,47.3846923 161.919048,47.8004103 C161.919048,48.2161282 162.254762,48.5515641 162.669048,48.5515641 L166.015873,48.5531538 C167.457143,48.5531538 169.281746,48.5841538 168.60873,49.6747179 L156.1,73.5574359 C155.523016,74.4890256 152.926984,74.6623077 150.714286,74.6623077 L150.714286,74.6623077 Z M197.365079,89.397641 C184.746825,104.718795 177.602381,109.961769 164.788095,109.961769 C160.430952,109.961769 158.154762,108.985667 159.37381,106.869718 L174.575397,76.2655641 L180.371429,76.2655641 C186.842857,76.2655641 185.945238,81.7215641 184.190476,89.1146667 C183.869841,90.1456154 184.65873,90.21 185.427778,89.3078205 L199.87619,63.8814615 C200.579365,62.2797949 198.762698,61.9570769 197.862698,63.1772051 C190.625397,73.0185128 183.012698,72.2880256 179.800794,72.2880256 L177.184127,72.2880256 L193.405556,41.2657692 L199.953175,41.2657692 C208.195238,41.7800513 212.031746,48.787641 209.650794,65.6802564 L213.075397,65.6802564 L225.007937,42.122641 C225.969048,40.1322821 223.930159,38.3152051 221.68254,38.3152051 L140.706349,38.3446154 C136.028571,38.3446154 135.81746,41.943 140.303968,41.943 C143.948413,41.943 143.760317,47.1804103 140.488095,49.7073077 L106.115873,77.0389744 L113.052381,109.312359 C113.566667,111.751026 115.12381,112.915513 117.815079,112.915513 L184.774603,112.915513 C187.530952,112.915513 188.67381,111.785205 189.566667,110.631051 L201.699206,89.6551795 C203.366667,86.6426154 199.48254,86.8302051 197.365079,89.397641 L197.365079,89.397641 Z" id="Fill-17" fill="#49256C" mask="url(#mask-4)"></path>
                    <path d="M49.2261905,80.5920513 L27.9142857,80.5920513 L54.865873,45.0016667 L49.2261905,80.5920513 L49.2261905,80.5920513 Z M44.2880952,102.702205 C43.6468254,106.35941 39.9785714,108.782179 35.365873,109.996744 L30.6047619,111.190641 L34.5119048,104.139333 C35.5373016,102.211769 33.2865079,101.076692 30.8253968,103.945385 C14.265873,123.252026 8.99206349,132.497974 -16.5396825,132.567128 L-23.402381,132.583026 C-25.4722222,132.583026 -27.7563492,131.765103 -26.3492063,129.773154 L-17.3103175,112.925051 L16.9968254,112.929821 C21.6738095,112.929821 20.4746032,109.402179 17.7230159,109.302821 C15.9063492,109.243205 13.9214286,108.202718 12.515873,105.977872 C12.1253968,105.358667 11.2746032,102.916026 12.6150794,101.02741 L25.7460317,83.545 L47.5880952,83.545 L44.2880952,102.702205 L44.2880952,102.702205 Z M95.1253968,109.302821 C93.3126984,109.243205 92.1436508,107.999231 91.7404762,106.799769 C91.165873,105.066154 91.2126984,102.003513 91.915873,100.656205 L123.154762,45.167 C123.663492,44.144 124.928571,41.9970513 126.481746,42.0026154 C129.234127,42.0057949 130.431746,38.3748205 125.757937,38.3748205 L100.742063,38.3748205 C96.0650794,38.3748205 96.0142857,41.9382308 100.497619,41.9382308 C102.328571,41.9382308 103.047619,43.7322564 102.536508,44.8236154 L95.6198413,57.3738462 C94.7555556,58.7529487 92.8396825,58.8570769 90.8206349,58.8570769 L84.8634921,58.8395897 C84.4484127,58.8395897 84.1150794,59.1766154 84.1150794,59.5939231 C84.1150794,60.0064615 84.4484127,60.3434872 84.8634921,60.3434872 L90.7714286,60.3466667 C92.3738095,60.3466667 93.6492063,60.8323333 92.7206349,62.6923333 L69.6642857,104.764103 C67.9984127,107.073205 64.6936508,107.587487 64.8849206,103.157667 L73.0849206,41.5431795 C73.4047619,39.6156154 72.8984127,38.3152051 70.8484127,38.3152051 L58.4809524,38.3287179 C57.0071429,38.3287179 56.0944444,39.0488718 55.3873016,40.0098718 L50.9587302,45.576359 C50.3833333,46.1510513 49.1388889,46.1502564 47.7611111,46.1502564 L37.3825397,46.1351538 C36.9706349,46.1351538 36.634127,46.4721795 36.634127,46.8847179 C36.634127,47.3012308 36.9706349,47.6366667 37.3825397,47.6366667 L45.8563492,47.6366667 C47.3603175,47.6366667 49.1214286,47.9911795 48.481746,48.6986154 L36.5896825,63.6811538 C36.2333333,64.0976667 35.0753968,64.2168974 34.3674603,64.2168974 L31.0087302,64.1986154 C30.5944444,64.1986154 30.2571429,64.5348462 30.2571429,64.9497692 C30.2571429,65.3654872 30.5944444,65.7025128 31.0087302,65.7025128 L33.8103175,65.7048974 C34.6746032,65.7048974 34.6833333,66.1357179 34.3293651,66.5204359 L23.1563492,80.5920513 C22.5793651,81.1365385 21.4579365,81.251 20.3666667,81.251 L10.502381,81.2406667 C10.0865079,81.2406667 9.75555556,81.5729231 9.75555556,81.988641 C9.75555556,82.4003846 10.0865079,82.7374103 10.502381,82.7374103 L18.9746032,82.7429744 C20.2571429,82.7429744 21.2531746,82.9758718 20.5785714,83.8422821 L4.68174603,103.807872 C1.69920635,107.618487 -12.6904762,109.550026 -15.4944444,109.550026 L38.2555556,8.82387179 C38.7698413,7.66653846 40.7634921,5.90351282 42.8349206,5.90351282 L54.2444444,5.90351282 C59.6269841,5.90351282 59.4690476,2.31069231 54.7920635,2.31069231 L-2.58095238,2.31069231 C-7.25634921,2.31069231 -7.44603175,5.90351282 -2.06349206,5.90351282 L8.55793651,5.90351282 C11.5690476,5.90351282 12.5460317,7.72853846 11.7674603,9.21494872 L10.2484127,11.9898462 C9.73571429,12.8904359 9.02619048,13.2521026 6.11190476,13.2521026 L-12.6611111,13.2362051 C-13.0753968,13.2362051 -13.4095238,13.5740256 -13.4095238,13.987359 C-13.4095238,14.4014872 -13.0753968,14.7369231 -12.6611111,14.7369231 L6.06428571,14.7401026 C7.08888889,14.7401026 8.60714286,15.0055897 7.64761905,16.8345897 L5.01904762,21.7270256 C4.56984127,22.4654615 3.41904762,22.8136154 2.10634921,22.8136154 L-6.41190476,22.7977179 C-6.82777778,22.7977179 -7.16428571,23.1339487 -7.16428571,23.5488718 C-7.16428571,23.9661795 -6.82777778,24.2984359 -6.41190476,24.2984359 L2.06031746,24.3032051 C3.27698413,24.3032051 3.30396825,25.1044359 2.59920635,26.226 L-3.4452381,37.4774103 C-3.95952381,38.4392051 -4.94126984,38.5679744 -6.86587302,38.5679744 L-10.2579365,38.5536667 C-10.6738095,38.5536667 -11.0087302,38.8891026 -11.0087302,39.3032308 C-11.0087302,39.7197436 -10.6738095,40.0551795 -10.2579365,40.0551795 L-6.91031746,40.0567692 C-5.63174603,40.0567692 -5.2952381,40.771359 -5.86984127,41.9906923 L-10.8349206,51.2302821 C-11.5730159,52.5465897 -12.6293651,53.0727949 -15.931746,53.0727949 L-34.7031746,53.0576923 C-35.1166667,53.0576923 -35.4531746,53.3947179 -35.4531746,53.8072564 C-35.4531746,54.2221795 -35.1166667,54.5592051 -34.7031746,54.5592051 L-15.9809524,54.5607949 C-13.8650794,54.5941795 -13.0849206,55.5297436 -13.9190476,57.0415897 L-23.6087302,75.2846923 C-24.184127,76.0875128 -25.7690476,76.2067436 -28.4571429,76.2067436 L-47.2301587,76.191641 C-47.6444444,76.191641 -47.9809524,76.5286667 -47.9809524,76.9451795 C-47.9809524,77.3561282 -47.6444444,77.6931538 -47.2301587,77.6931538 L-28.5071429,77.6979231 C-26.2634921,77.6979231 -24.8952381,77.7869487 -25.5674603,78.9760769 L-31.152381,89.4914359 C-32.1777778,91.1018462 -35.0571429,91.0970769 -36.1785714,91.0970769 L-42.1373016,91.0819744 C-42.55,91.0819744 -42.8865079,91.4142308 -42.8865079,91.8299487 C-42.8865079,92.2472564 -42.55,92.5842821 -42.1373016,92.5842821 L-36.2285714,92.5842821 C-34.1468254,92.5842821 -33.0420635,92.9459487 -33.5880952,94.0706923 L-41.0436508,108.108923 C-41.7174603,109.362436 -44.6357143,109.416487 -46.8801587,109.416487 L-75.9055556,109.402179 C-76.3174603,109.402179 -76.6539683,109.739205 -76.6539683,110.154923 C-76.6539683,110.566667 -76.3174603,110.902897 -75.9055556,110.902897 L-46.9285714,110.907667 C-45.0055556,110.907667 -42.5761905,111.146128 -43.4714286,112.687385 L-48.2325397,121.651154 C-48.6833333,122.38959 -50.3079365,122.453974 -52.6468254,122.453974 L-58.6031746,122.438872 C-59.0174603,122.438872 -59.3539683,122.775897 -59.3539683,123.19241 C-59.3539683,123.603359 -59.0174603,123.940385 -58.6031746,123.940385 L-52.6944444,123.940385 C-51.2507937,123.940385 -49.5,124.104128 -50.1095238,125.199462 L-53.0865079,130.927308 C-54.0468254,132.344564 -55.0063492,133.613179 -57.3119048,133.613179 L-71.8746032,133.613179 C-77.2571429,133.613179 -77.0690476,137.206 -72.3920635,137.206 L13.1325397,137.250513 C15.6277778,137.250513 15.7103175,136.913487 16.8912698,135.075744 L29.5722222,112.925051 L94.4015873,112.929821 C99.0761905,112.929821 97.8793651,109.402179 95.1253968,109.302821 L95.1253968,109.302821 Z" id="Fill-19" fill="#49256C" mask="url(#mask-4)"></path>
                    <path d="M260.66746,68.6856667 C258.316667,70.6187949 254.611905,72.843641 253.895238,72.1346154 C252.895238,71.1442051 249.785714,68.9932821 248.115079,68.2214615 L262.078571,42.656 C262.651587,41.7562051 263.315079,41.2657692 264.853175,41.2657692 C270.288889,41.2657692 272.070635,47.1724615 269.519048,54.5258205 C267.730159,59.6829487 264.826984,65.261359 260.66746,68.6856667 L260.66746,68.6856667 Z M373.41746,91.6073846 C373.065873,89.8531026 372.425397,90.9190256 371.270635,93.1287692 C370.915873,93.8028205 369.796032,93.8171282 368.675397,93.8171282 L365.248413,93.8322308 C364.835714,93.8322308 364.496825,94.1692564 364.496825,94.5802051 C364.496825,94.9975128 364.835714,95.3337436 365.248413,95.3337436 L368.618254,95.3289744 C369.901587,95.3289744 369.919048,96.186641 369.319048,97.4743333 C366.962698,102.514615 364.53254,105.888846 361.309524,109.922026 C360.797619,110.566667 359.499206,111.111154 358.469841,111.111154 L355.030159,111.126256 C354.613492,111.126256 354.276984,111.462487 354.276984,111.879795 C354.276984,112.295513 354.613492,112.627769 355.030159,112.627769 L358.4,112.627769 C360.096032,112.627769 358.380159,113.67859 358.09127,114.059333 C352.109524,122.047795 347.989683,125.615179 343.593651,129.192897 C343.078571,129.60941 340.598413,129.465538 338.864286,129.455205 L335.470635,129.471103 C335.057143,129.471103 334.720635,129.808128 334.720635,130.223846 C334.720635,130.63559 335.057143,130.971821 335.470635,130.971821 L338.81746,130.97659 C341.378571,130.97659 339.459524,132.448692 339.073016,132.770615 C329.760317,140.545256 315.869841,143.053077 309.525397,142.255821 C288.895238,139.668513 284.649206,123.995231 283.125397,117.726077 C282.806349,116.418513 281.820635,113.738205 281.493651,112.072949 C280.854762,108.797282 290.15873,107.865692 292.728571,109.589769 C296.626984,112.201718 305.707143,114.877256 312.854762,114.902692 C319.465873,114.927333 332.996825,110.119949 336.914286,98.7437436 C340.918254,87.1084103 330.854762,74.1965128 326.398413,69.7364872 C320.71746,64.0499744 315.362698,54.9947949 317.619841,48.3528462 C319.322222,43.3483333 322.173016,41.0742051 328.278571,41.0742051 C336.161905,41.0742051 341.905556,46.1486667 341.905556,53.3597436 C341.905556,54.0004103 341.507143,54.7682564 340.992063,54.7682564 L338.207143,54.7817692 C337.794444,54.7817692 337.457937,55.1187949 337.457937,55.5345128 C337.457937,55.9478462 337.794444,56.2832821 338.207143,56.2832821 L340.824603,56.2832821 C341.561111,56.2832821 342.023016,56.8436667 341.83254,57.7418718 C341.318254,60.1551026 341.149206,61.8489744 340.625397,64.2677692 C340.321429,65.6699231 342.370635,66.6412564 343.078571,65.6158718 L355.474603,43.4492821 C356.372222,41.7800513 354.379365,41.3333333 352.906349,41.843641 C349.518254,43.0248205 343.996825,43.840359 342.042063,42.4350256 C337.405556,39.1045128 333.187302,36.9623333 326.707937,36.9623333 C315.694444,36.9623333 307.97381,39.6784103 303.02619,48.7661795 C302.639683,49.469641 301.554762,49.4601026 300.627778,49.4601026 L298.511905,49.4553333 C298.098413,49.4553333 297.761905,49.792359 297.761905,50.2080769 C297.761905,50.6198205 298.098413,50.957641 298.511905,50.957641 L300.313492,50.9417436 C301.083333,50.9417436 301.601587,51.1555641 301.215079,52.0561538 C300.869841,52.8693077 300.569048,53.7333333 300.281746,54.628359 C299.027778,58.5542308 299.43254,64.0746154 301.396825,68.9932821 C301.525397,69.3120256 301.112698,69.4662308 300.353175,69.464641 L296.974603,69.4789487 C296.561905,69.4789487 296.225397,69.8159744 296.225397,70.2285128 C296.225397,70.6434359 296.561905,70.9804615 296.974603,70.9804615 L300.344444,70.9804615 C301.875397,70.9876154 302.234921,71.138641 302.870635,72.0360513 C304.610317,74.4890256 306.397619,76.3053077 308.635714,79.1596923 C309.338095,80.0571026 306.330952,80.3090769 304.72619,80.2947692 L291.36746,80.29 C290.952381,80.29 290.61746,80.6270256 290.61746,81.0427436 C290.61746,81.4584615 290.952381,81.7907179 291.36746,81.7907179 L304.896825,81.7764103 C307.073016,81.7764103 310.802381,81.7414359 311.219841,82.2215385 C314.492063,86.0027436 318.450794,91.8299487 319.119048,96.7358974 C319.311111,98.1483846 318.77619,98.7437436 317.046825,98.7437436 L315.237302,98.7437436 C314.822222,98.7437436 314.485714,99.0752051 314.485714,99.4909231 C314.485714,99.9074359 314.822222,100.244462 315.237302,100.244462 L316.829365,100.244462 C318.205556,100.244462 318.957937,100.467026 318.64127,101.493205 C316.888095,107.107385 314.256349,111.175538 303.55,111.116718 C292.322222,111.057103 290.040476,100.036205 293.325397,88.5407692 C293.977778,86.2459744 293.296032,85.2651026 292.269841,87.0631026 L284.45873,99.3629487 C284.265079,99.6498974 283.510317,100.34859 282.324603,100.34859 L281.214286,100.343026 C280.797619,100.343026 280.461111,100.680846 280.461111,101.096564 C280.461111,101.513077 280.809524,101.845333 281.22381,101.845333 C282.215873,101.845333 282.6,102.375513 282.220635,102.92 L279.346825,107.399897 C274.63254,96.5880513 266.716667,83.2628205 262.501587,78.4109231 L262.574603,78.1780256 C272.983333,77.5492821 288.342063,67.7842821 290.854762,59.055 C295.219841,43.9063333 280.530952,38.3152051 272.527778,38.3152051 L237.337302,38.3207692 C232.660317,38.3207692 232.323016,41.8682821 236.805556,41.8682821 C239.230159,41.8682821 241.347619,43.9945641 240.27619,46.1446923 L232.479365,60.2131282 C231.837302,61.3672821 229.420635,61.2981282 226.284921,61.2981282 L222.869841,61.2981282 C222.456349,61.2981282 222.118254,61.6311795 222.118254,62.0468974 C222.118254,62.4626154 222.456349,62.7964615 222.869841,62.7964615 L226.22619,62.7964615 C228.46746,62.7964615 230.938095,62.9331795 230.107937,64.5388205 L220.892063,81.2009231 C220.442857,81.9695641 219.249206,82.0442821 216.111905,82.0442821 L212.712698,82.0530256 C212.3,82.0530256 211.966667,82.3900513 211.966667,82.807359 C211.966667,83.2230769 212.3,83.5601026 212.712698,83.5601026 L216.035714,83.5553333 C218.506349,83.5553333 219.428571,83.8867949 218.725397,85.1705128 L206.415873,107.464282 C204.942063,109.069923 203.19127,109.367205 200.18254,109.367205 C195.698413,109.367205 195.748413,112.929821 200.424603,112.929821 L230.563492,112.929821 C235.24127,112.929821 234.046032,109.302821 231.292063,109.302821 C229.672222,109.308385 227.95,106.319667 229.028571,104.531205 L244.413492,75.3443077 L245.97619,75.3443077 C252.818254,75.3443077 254.470635,86.5877692 255.763492,98.8621795 C255.854762,99.7389231 254.18254,99.789 250.775397,99.789 L242.219841,99.7985385 C241.807937,99.7985385 241.471429,100.135564 241.471429,100.552077 C241.471429,100.967795 241.807937,101.300051 242.219841,101.300051 L250.686508,101.300051 C252.93254,101.300051 256.06746,101.319923 256.146032,102.048026 C256.733333,107.429308 257.178571,112.171513 258.203175,116.487667 C258.525397,117.835769 256.123016,117.627513 253.561905,117.627513 L242.671429,117.642615 C242.255556,117.642615 241.920635,117.979641 241.920635,118.39059 C241.920635,118.807103 242.255556,119.144128 242.671429,119.144128 L253.553175,119.158436 C256.972222,119.158436 258.738095,119.153667 258.931746,119.857128 C263.619048,137.071667 283.720635,150.625026 303.26746,149.877051 C320.036508,149.237179 334.203175,140.100128 341.457143,134.272128 C351.105556,126.522128 365.280952,110.283692 371.047619,98.4758718 C372.106349,96.3098462 373.803175,93.5349487 373.41746,91.6073846 L373.41746,91.6073846 Z" id="Fill-20" fill="#49256C" mask="url(#mask-4)"></path>
                    <path d="M90.9690476,15.5922051 C88.1460317,19.2541795 84.3952381,20.1849744 80.1920635,20.1849744 L79.0055556,20.1849744 L86.4206349,5.48620513 C86.7730159,4.81453846 87.5555556,4.28753846 88.518254,4.28753846 C89.4492063,4.28753846 89.3365079,2.42992308 88.1198413,2.42992308 L76.434127,2.42992308 C75.4412698,2.42992308 75.0888889,4.28753846 76.0174603,4.28753846 C77.0150794,4.28753846 77.1968254,5.39082051 76.7166667,6.32241026 L70.0801587,19.4274615 C69.631746,20.1348974 68.8960317,20.3272564 68.0833333,20.5378974 C67.097619,20.7914615 66.4190476,22.5560769 67.5404762,22.5560769 L86.1960317,22.5560769 C87.634127,22.5560769 87.9706349,22.0227179 88.3571429,21.507641 L92.1031746,15.6915641 C92.6484127,14.9833333 91.5134921,14.886359 90.9690476,15.5922051" id="Fill-21" fill="#49256C" mask="url(#mask-4)"></path>
                    <path d="M147.163492,2.94976923 C146.598413,3.25897436 145.261111,3.42271795 144.684127,2.94102564 C143.196032,1.70102564 140.270635,0.749564103 138.740476,0.749564103 C134.339683,0.749564103 131.153968,1.61835897 129.240476,5.77792308 C127.60873,9.31907692 129.281746,12.2855385 133.162698,14.0859231 C134.842857,14.8633077 137.07381,15.8791538 136.218254,17.9092564 C135.595238,19.3885128 133.871429,19.536359 132.319841,19.5228462 C130.236508,19.5021795 127.107143,17.9394615 126.619048,14.9944615 C126.456349,14.0294872 125.338889,14.2544359 125.019048,14.7679231 L122.363492,20.0649487 C121.948413,20.7723846 123.039683,21.5569231 123.475397,21.0927179 C124.372222,20.1293333 126.324603,19.9012051 127.284921,20.5426667 C128.607143,21.4241795 132.004762,22.9686154 134.036508,22.9543077 C138.492063,22.9209231 141.431746,21.7747179 143.869048,17.9458205 C146.102381,14.4531538 144.730159,10.9867179 140.663492,9.06948718 C138.514286,8.05682051 136.675397,6.26358974 137.634921,4.28753846 C138.25873,2.99905128 140.176984,3.2804359 141.128571,3.44179487 C142.946032,3.74782051 145.271429,5.45838462 145.54127,6.96864103 C145.657143,7.60771795 146.471429,7.73648718 146.826984,7.15861538 L148.226984,3.89089744 C148.546032,3.25023077 147.516667,2.75820513 147.163492,2.94976923" id="Fill-22" fill="#49256C" mask="url(#mask-4)"></path>
                    <path d="M276.615079,8.21420513 L278.238095,5.21515385 C278.945238,3.89964103 277.784127,2.40448718 275.922222,2.40448718 L254.140476,2.40448718 C252.569841,2.40448718 253.031746,4.04669231 253.675397,4.04669231 C255.072222,4.04669231 255.485714,5.75089744 254.638095,7.19120513 L248.087302,19.2637179 C247.110317,20.4162821 246.484127,20.9138718 245.088095,20.9138718 C243.964286,20.9138718 243.565873,22.5560769 245.137302,22.5560769 L267.212698,22.5560769 C268.107937,22.5560769 268.502381,22.2357436 268.821429,21.7842564 L271.822222,17.7924103 C272.557143,16.8314103 270.973016,16.8314103 270.490476,17.3115128 C266.680952,21.1308718 262.603968,21.018 259.642857,21.018 L257.069841,21.018 L260.09127,14.2592051 L260.737302,14.2592051 C262.676984,14.2592051 264.916667,14.2377436 265.500794,15.7138205 C265.65873,16.0667436 266.619841,16.3552821 267.004762,15.7138205 L269.579365,10.5527179 C269.996032,9.78487179 268.834921,9.64974359 268.520635,10.2005897 C267.502381,12.0224359 263.026984,11.5343846 261.855556,11.5343846 L261.211905,11.5343846 L264.975397,4.092 L269.171429,4.092 C271.776984,4.092 274.02381,5.93928205 274.757937,7.95666667 C274.933333,8.43994872 276.326984,8.82387179 276.615079,8.21420513" id="Fill-23" fill="#49256C" mask="url(#mask-4)"></path>
                    <path d="M168.914286,12.0423077 L176.17619,6.09666667 L176.207143,12.0423077 L168.914286,12.0423077 L168.914286,12.0423077 Z M220.883333,2.40448718 L213.130952,2.40448718 C211.560317,2.40448718 212.022222,4.04669231 212.662698,4.04669231 C214.321429,4.04669231 215.827778,5.99253846 214.918254,7.78417949 L211.709524,13.664641 L204.633333,3.29474359 C204.152381,2.65248718 203.036508,2.34010256 202.080159,2.34010256 L194.452381,2.34010256 C192.881746,2.34010256 193.246032,3.96720513 193.888095,3.96720513 C195.507937,3.96720513 195.088095,5.18176923 194.686508,6.04817949 L188.612698,17.7709487 C188.226984,18.7025385 186.568254,18.8360769 186.057143,17.6485385 L181.350794,2.30035897 C181.155556,1.69148718 178.40873,1.72248718 177.704762,2.30035897 L165.916667,12.0311795 L159.813492,12.0423077 C158.596825,12.0423077 158.118254,12.5430769 158.118254,13.1861282 C158.118254,13.8275897 158.576984,14.4134103 159.860317,14.4134103 L163.05,14.4078462 L159.860317,17.0404615 C158.08254,18.3671026 156.265873,20.1849744 155.057937,20.1849744 L154.315873,20.1849744 C153.160317,20.1849744 152.514286,20.3725641 152.514286,21.3041538 C152.514286,22.2357436 153.000794,22.5560769 154.090476,22.5560769 L163.597619,22.5560769 C165.39127,22.5560769 165.042063,20.2159744 164.144444,20.2159744 C163.161905,20.2159744 161.538889,18.9600769 163.046032,17.1962564 L165.946032,14.4134103 L171.665873,14.4134103 C175.060317,14.4134103 177.431746,18.3527949 175.412698,19.5745128 L173.840476,20.4417179 C173.107143,20.8248462 172.783333,22.5560769 173.843651,22.5560769 L192.424603,22.5560769 C193.800794,22.5560769 193.522222,20.7294615 192.878571,20.7294615 C190.978571,20.7294615 191.87619,17.9887436 192.242063,17.2574615 L197.123016,7.99641026 L203.980952,21.3041538 C204.428571,22.1387692 204.833333,22.5560769 205.634921,22.5560769 L208.25873,22.5560769 C209.092857,22.5560769 209.37381,22.0735897 209.759524,21.4329231 L217.56746,7.30646154 C218.824603,4.78353846 219.787302,4.05623077 221.366667,4.05623077 C222.009524,4.05623077 222.454762,2.40448718 220.883333,2.40448718 L220.883333,2.40448718 Z" id="Fill-24" fill="#49256C" mask="url(#mask-4)"></path>
                    <path d="M112.679365,14.1105641 C110.607937,18.2518462 107.138095,20.708 104.929365,19.5991538 C102.721429,18.4911026 102.612698,14.2345641 104.680952,10.0948718 C106.751587,5.952 110.221429,3.49584615 112.43254,4.60469231 C114.638889,5.71274359 114.753968,9.97007692 112.679365,14.1105641 L112.679365,14.1105641 Z M110.83254,1.519 C104.296825,1.519 97.565873,4.74220513 96.2222222,11.6098974 C95.0539683,17.5857436 99.1801587,23.7881282 106.475397,23.7881282 C113.422222,23.7881282 119.834127,19.2287436 121.126984,12.6384615 C122.419841,6.01320513 117.494444,1.519 110.83254,1.519 L110.83254,1.519 Z" id="Fill-25" fill="#49256C" mask="url(#mask-4)"></path>
                    <path d="M242.974603,11.5391538 L234.579365,11.5391538 C233.006349,11.5391538 233.471429,13.1805641 234.112698,13.1805641 C234.774603,13.1805641 235.392063,13.5303077 235.392063,14.5890769 C235.395238,17.9871538 233.944444,19.2955128 231.034921,19.2955128 C227.838095,19.2955128 226.683333,15.4141538 228.838095,10.6512821 C230.212698,7.60771795 233.846032,4.76128205 238.161905,4.76128205 C240.804762,4.76128205 243.024603,5.33358974 243.364286,7.81597436 C243.444444,8.42802564 244.357937,8.42723077 244.676984,7.85015385 L246.669048,4.278 C246.893651,3.89089744 246.543651,3.43702564 245.937302,3.39887179 C245.425397,3.36548718 244.276984,4.02841026 243.522222,3.4664359 C241.837302,2.21451282 238.181746,1.00392308 235.421429,1.00392308 C230.919841,1.00392308 224.623016,2.02294872 220.377778,9.41525641 C216.534921,16.0977436 222.129365,23.1681282 227.31746,23.1784615 C230.203968,23.1840256 233.547619,21.0458205 235.465079,20.236641 L237.60873,21.6904615 C237.927778,22.0735897 238.600794,22.5560769 239.240476,22.5560769 L240.042063,22.5560769 C240.778571,22.5560769 241.068254,21.5465897 241.354762,20.9043333 L244.647619,12.9214359 C245.065873,12.1217949 244.831746,11.5391538 242.974603,11.5391538" id="Fill-26" fill="#49256C" mask="url(#mask-4)"></path>
                </g>
                <path d="M263.24127,33.1215128 C252.960317,32.3878462 244.561905,32.0937436 237.223016,32.8639744 C239.347619,27.4985897 243.599206,22.4821538 246.880952,20.2819487 C253.883333,20.5696923 261.11746,21.5903077 266.846825,22.7237949 C285.179365,26.3468205 313.680952,37.5394103 325.961111,54.0417436 C309.595238,43.0995385 282.398413,34.4871026 263.24127,33.1215128 L263.24127,33.1215128 Z M232.457143,33.5038462 C226.27619,33.889359 215.071429,36.3272308 211.076984,37.4829744 C210.046032,34.7891538 207.215873,26.443 206.310317,23.7491795 C217.690476,20.515641 230.910317,19.3869231 241.085714,20.2819487 C238.255556,22.4662564 233.488095,31.0643846 232.457143,33.5038462 L232.457143,33.5038462 Z M180.681746,48.7781026 C179.411905,46.6391026 173.386508,41.130641 170.121429,40.0504103 C177.719048,34.4044359 195.366667,26.3158205 202.061905,24.9057179 C203.219841,26.8316923 206.310317,35.0458974 207.342063,38.5091538 C201.41746,39.7920769 185.705556,45.4420256 180.681746,48.7781026 L180.681746,48.7781026 Z M345.927778,67.5172051 C344.252381,65.5912308 341.933333,61.4865128 325.319048,46.9824872 C300.892857,25.6584615 268.519048,15.9212821 238.126984,15.9212821 C215.714286,15.9212821 196.098413,20.9591795 174.370635,32.9394872 C146.684921,48.2065897 135.219048,65.7486154 132.385714,69.3144103 C130.297619,71.9374872 129.997619,73.4723846 131.353175,74.2545385 C132.321429,74.8149231 134.183333,72.7752821 135.926984,70.4685641 C144.157937,59.575641 154.987302,48.7781026 166.386508,42.4270769 C169.928571,42.9373846 174.886508,47.8791026 176.81746,50.5109231 C169.521429,54.4932308 157.435714,63.7081795 152.862698,67.2628462 C148.912698,70.3302564 147.546032,72.0447949 148.611905,73.2935385 C149.496825,74.3308462 152.519048,72.2888205 155.053175,70.2126154 C159.430952,66.6182051 172.437302,57.3786154 178.876984,53.9129744 C183.257937,59.0470513 181.84127,68.5425897 180.293651,70.5989231 C179.463492,71.703 179.349206,72.8817949 180.293651,73.4223077 C181.197619,73.935 182.176984,72.6314103 183.450794,70.7904872 C186.435714,66.4719487 185.242063,56.0098462 182.676984,52.2429487 C190.534127,47.3664103 201.804762,44.0939231 208.630952,42.5526667 C209.209524,43.6440256 217.485714,67.8677436 219.061905,72.2657692 C219.92619,74.6758205 220.780159,77.5564359 222.542063,77.0159231 C223.710317,76.6542564 222.938095,74.0152821 221.959524,71.3675641 C220.752381,68.0903077 214.490476,47.7503333 212.559524,41.7180513 C214.814286,40.4995128 228.409524,37.7349487 231.815079,37.8692821 C230.138095,46.7249487 236.398413,50.3567179 243.470635,55.0035385 C247.230159,57.4747949 271.127778,71.2252821 276.119048,74.3213077 C278.968254,76.0883077 281.181746,77.2082821 281.786508,76.3760513 C282.48254,75.4214103 280.549206,73.4223077 277.920635,71.8818462 C275.829365,70.6545641 253.596032,57.7355128 244.304762,51.8582308 C237.655556,47.6517692 234.081746,43.1440513 235.676984,37.2254359 C237.865873,36.5847692 244.565873,36.5283333 251.519048,36.5847692 C298.915079,36.9718718 336.912698,64.1803333 341.161111,68.5425897 C343.315873,70.7563077 346.313492,72.6504872 347.471429,71.7538718 C348.204762,71.1847436 346.938889,68.6816923 345.927778,67.5172051 L345.927778,67.5172051 Z" id="Fill-28" fill="#0F1216"></path>
                <path d="M356.180159,230.027154 C357.933333,226.796 359.357937,224.957462 357.853968,224.125231 C356.48254,223.362154 355.146032,226.354846 353.476984,229.258513 C347.936508,238.881231 341.89127,246.829949 328.234921,259.292744 C313.101587,273.092513 295.711111,281.110385 289.659524,283.166718 C284.507143,268.662692 264.865079,206.890026 264.349206,205.126205 C263.576984,202.495179 262.918254,201.732103 262.030159,202.049256 C261.034921,202.406154 261.644444,203.843282 262.15873,206.157154 C262.67381,208.466256 286.052381,281.561872 286.82381,284.128513 C282.184921,286.436821 263.342063,291.714769 250.18254,292.151154 C238.462698,292.537462 224.680952,292.151154 217.72619,290.544718 C209.572222,283.954436 191.026984,257.726051 183.990476,243.762538 C175.695238,227.311872 170.197619,212.173538 168.780952,205.755744 C168.101587,202.683564 167.231746,200.468256 165.693651,200.760769 C164.030952,201.083487 164.98254,203.511026 165.950794,206.796231 C168.444444,215.259231 172.515079,227.241923 181.153175,244.338026 C190.304762,262.438846 206.65,283.667487 211.412698,289.454949 C196.480952,286.313615 178.333333,279.312385 161.088889,266.437846 C146.230952,255.343026 133.470635,241.221333 127.053968,230.928538 C125.952381,229.159949 124.662698,226.661667 123.062698,227.717256 C122.342063,228.193385 123.23254,230.199641 124.349206,232.212256 C133.664286,248.975308 156.401587,272.711769 185.526984,285.734154 C219.47619,300.911436 256.492063,300.104641 289.592857,287.269846 C318.546825,276.046256 343.737302,252.949667 356.180159,230.027154" id="Fill-29" fill="#0F1216"></path>
                <g id="Group-33" transform="translate(122.222222, 19.076923)">
                    <mask id="mask-6" fill="white">
                        <use xlink:href="#path-5"></use>
                    </mask>
                    <g id="Clip-31"></g>
                    <path d="M141.019048,14.0445897 C130.738095,13.3109231 122.339683,13.0168205 115.000794,13.7870513 C117.125397,8.42166667 121.376984,3.40523077 124.65873,1.20502564 C131.661111,1.49276923 138.895238,2.51338462 144.624603,3.64687179 C162.957143,7.26989744 191.45873,18.4624872 203.738889,34.9648205 C187.373016,24.0226154 160.17619,15.4101795 141.019048,14.0445897 L141.019048,14.0445897 Z M110.234921,14.4269231 C104.053968,14.8124359 92.8492063,17.2503077 88.8547619,18.4060513 C87.8238095,15.7122308 84.9936508,7.36607692 84.0880952,4.67225641 C95.468254,1.43871795 108.688095,0.31 118.863492,1.20502564 C116.033333,3.38933333 111.265873,11.9874615 110.234921,14.4269231 L110.234921,14.4269231 Z M58.4595238,29.7011795 C57.1896825,27.5621795 51.1642857,22.0537179 47.8992063,20.9734872 C55.4968254,15.3275128 73.1444444,7.23889744 79.8396825,5.82879487 C80.997619,7.75476923 84.0880952,15.9689744 85.1198413,19.4322308 C79.1952381,20.7151538 63.4833333,26.3651026 58.4595238,29.7011795 L58.4595238,29.7011795 Z M223.705556,48.4402821 C222.030159,46.5143077 219.711111,42.4095897 203.096825,27.9055641 C178.670635,6.58153846 146.296825,-3.15564103 115.904762,-3.15564103 C93.4920635,-3.15564103 73.8761905,1.88225641 52.1484127,13.8625641 C24.4626984,29.1296667 12.9968254,46.6716923 10.1634921,50.2374872 C8.07539683,52.8605641 7.77539683,54.3954615 9.13095238,55.1776154 C10.0992063,55.738 11.9611111,53.698359 13.7047619,51.391641 C21.9357143,40.4987179 32.7650794,29.7011795 44.1642857,23.3501538 C47.7063492,23.8604615 52.6642857,28.8021795 54.5952381,31.434 C47.2992063,35.4163077 35.2134921,44.6312564 30.6404762,48.1859231 C26.6904762,51.2533333 25.3238095,52.9678718 26.3896825,54.2166154 C27.2746032,55.2539231 30.2968254,53.2118974 32.8309524,51.1356923 C37.2087302,47.5412821 50.2150794,38.3016923 56.6547619,34.8360513 C61.0357143,39.9701282 59.6190476,49.4656667 58.0714286,51.522 C57.2412698,52.6260769 57.1269841,53.8048718 58.0714286,54.3453846 C58.9753968,54.8580769 59.9547619,53.5544872 61.2285714,51.7135641 C64.2134921,47.3950256 63.0198413,36.9329231 60.4547619,33.1660256 C68.3119048,28.2894872 79.5825397,25.017 86.4087302,23.4757436 C86.9873016,24.5671026 95.2634921,48.7908205 96.8396825,53.1888462 C97.7039683,55.5988974 98.5579365,58.4795128 100.319841,57.939 C101.488095,57.5773333 100.715873,54.938359 99.7373016,52.290641 C98.5301587,49.0133846 92.268254,28.6734103 90.3373016,22.6411282 C92.5920635,21.4225897 106.187302,18.6580256 109.592857,18.792359 C107.915873,27.6480256 114.17619,31.2797949 121.248413,35.9266154 C125.007937,38.3978718 148.905556,52.148359 153.896825,55.2443846 C156.746032,57.0113846 158.959524,58.131359 159.564286,57.2991282 C160.260317,56.3444872 158.326984,54.3453846 155.698413,52.8049231 C153.607143,51.577641 131.37381,38.6585897 122.08254,32.7813077 C115.433333,28.5748462 111.859524,24.0671282 113.454762,18.1485128 C115.643651,17.5078462 122.343651,17.4514103 129.296825,17.5078462 C176.692857,17.8949487 214.690476,45.1034103 218.938889,49.4656667 C221.093651,51.6793846 224.09127,53.5735641 225.249206,52.6769487 C225.98254,52.1078205 224.716667,49.6047692 223.705556,48.4402821 L223.705556,48.4402821 Z" id="Fill-30" fill="#0F1216" mask="url(#mask-6)"></path>
                    <path d="M233.957937,210.950231 C235.711111,207.719077 237.135714,205.880538 235.631746,205.048308 C234.260317,204.285231 232.92381,207.277923 231.254762,210.18159 C225.714286,219.804308 219.669048,227.753026 206.012698,240.215821 C190.879365,254.01559 173.488889,262.033462 167.437302,264.089795 C162.284921,249.585769 142.642857,187.813103 142.126984,186.049282 C141.354762,183.418256 140.696032,182.655179 139.807937,182.972333 C138.812698,183.329231 139.422222,184.766359 139.936508,187.080231 C140.451587,189.389333 163.830159,262.484949 164.601587,265.05159 C159.962698,267.359897 141.119841,272.637846 127.960317,273.074231 C116.240476,273.460538 102.45873,273.074231 95.5039683,271.467795 C87.35,264.877513 68.8047619,238.649128 61.768254,224.685615 C53.4730159,208.234949 47.9753968,193.096615 46.5587302,186.678821 C45.8793651,183.606641 45.0095238,181.391333 43.4714286,181.683846 C41.8087302,182.006564 42.7603175,184.434103 43.7285714,187.719308 C46.2222222,196.182308 50.2928571,208.165 58.9309524,225.261103 C68.0825397,243.361923 84.4277778,264.590564 89.1904762,270.378026 C74.2587302,267.236692 56.1111111,260.235462 38.8666667,247.360923 C24.0087302,236.266103 11.2484127,222.14441 4.83174603,211.851615 C3.73015873,210.083026 2.44047619,207.584744 0.84047619,208.640333 C0.11984127,209.116462 1.01031746,211.122718 2.12698413,213.135333 C11.4420635,229.898385 34.1793651,253.634846 63.3047619,266.657231 C97.2539683,281.834513 134.269841,281.027718 167.370635,268.192923 C196.324603,256.969333 221.515079,233.872744 233.957937,210.950231" id="Fill-32" fill="#0F1216" mask="url(#mask-6)"></path>
                </g>
            </g>
        </g>
    </g>
</svg>