<?xml version="1.0" encoding="UTF-8" standalone="no"?>
<svg width="500px" height="500px" viewBox="0 0 500 500" version="1.1" xmlns="http://www.w3.org/2000/svg" xmlns:xlink="http://www.w3.org/1999/xlink">
    <!-- Generator: Sketch 39.1 (31720) - http://www.bohemiancoding.com/sketch -->
    <title>MEM</title>
    <desc>Created with Sketch.</desc>
    <defs>
        <polygon id="path-1" points="402.411134 202.405382 402.411134 0 0.052112069 0 0.052112069 404.810764 402.411134 404.810764 402.411134 202.405382"></polygon>
        <polygon id="path-3" points="0.535885776 48.5590278 69.0893125 48.5590278 69.0893125 0.771701389 0.535885776 0.771701389 0.535885776 48.5590278"></polygon>
    </defs>
    <g id="NBA" stroke="none" stroke-width="1" fill="none" fill-rule="evenodd">
        <g id="MEM">
            <g id="MGrizzlies_Global_pms" transform="translate(49.000000, 0.000000)">
                <g id="Group-5">
                    <mask id="mask-2" fill="white">
                        <use xlink:href="#path-1"></use>
                    </mask>
                    <g id="Clip-2"></g>
                    <path d="M278.814334,404.810764 L286.242041,404.810764 L286.242041,372.303819 L295.833267,372.303819 L295.833267,404.810764 L304.111269,404.810764 L304.111269,364.311632 L278.814334,364.311632 L278.814334,404.810764 L278.814334,404.810764 Z M307.702659,404.810764 L315.245881,404.810764 L315.245881,322.340278 L307.702659,322.340278 L307.702659,404.810764 Z M235.851407,354.553819 L235.851407,340.6875 L240.951442,340.6875 C243.509276,340.6875 245.584205,343.189236 245.584205,346.260417 L245.584205,348.99566 C245.584205,352.113715 243.550097,354.553819 240.951442,354.553819 L235.851407,354.553819 L235.851407,354.553819 Z M253.140455,352.439236 L253.140455,343.66059 C253.140455,337.107639 247.898849,333.830729 243.031582,333.830729 L227.616832,333.830729 L227.616832,361.975694 L243.031582,361.975694 C247.898849,361.975694 253.140455,358.987847 253.140455,352.439236 L253.140455,352.439236 Z M266.842455,334.983507 L266.842455,404.810764 L275.231629,404.810764 L275.231629,322.377604 L262.363422,322.40191 L266.842455,334.983507 L266.842455,334.983507 Z M382.38186,342.174479 L378.367494,341.972222 C374.688381,341.972222 372.56742,340.397569 372.56742,336.575521 L372.56742,325.738715 C372.56742,323.713542 373.922334,322.076389 375.590789,322.076389 L376.82845,322.076389 C378.487351,322.076389 379.846608,323.713542 379.846608,325.738715 L379.846608,334.009549 L389.216358,334.009549 L389.216358,326.085938 C389.222438,326.028646 389.579405,320.584201 386.153905,316.850694 C383.891373,314.383681 380.444159,313.134549 375.887828,313.134549 C371.671093,313.134549 368.497468,314.255208 366.458149,316.466146 C363.56506,319.610243 363.840386,324.039062 363.840386,324.085069 L363.845597,324.164931 L363.845597,324.236979 C363.77264,331.699653 363.77264,340.180556 363.919422,341.178819 C364.275522,343.198785 365.037226,347.388889 371.682384,349.228299 C373.396871,349.705729 375.434453,349.855903 377.592761,350.010417 C384.060737,350.487847 392.927606,351.145833 392.927606,363.705729 L392.922394,382.335938 C392.922394,382.476562 392.388246,395.929688 375.985972,395.929688 C360.039679,395.929688 360.039679,383.907118 360.039679,378.778646 L360.039679,369.925347 L350.435425,369.925347 L350.435425,383.000868 C350.435425,398.572049 362.287446,404.501736 373.199713,404.501736 L378.762677,404.501736 C392.45686,404.501736 402.411134,396.0625 402.411134,382.499132 L402.411134,362.198785 C402.411134,347.425347 392.469888,342.174479 382.38186,342.174479 L382.38186,342.174479 Z M244.239713,322.977431 L212.37492,322.983507 L216.787075,335.176215 L216.787075,404.320313 L224.024573,404.320313 L224.024573,330.235243 L243.031582,330.235243 C249.840024,330.235243 256.731845,335.046875 256.731845,343.66059 L256.731845,352.439236 C256.731845,361.053819 249.840024,365.56684 243.031582,365.56684 L227.616832,365.56684 L227.616832,404.320313 L235.851407,404.320313 L235.851407,372.159722 C235.851407,372.159722 246.058425,371.957465 246.084481,371.957465 C257.414513,371.957465 263.528127,361.923611 263.528127,352.446181 L263.74005,340.403646 C263.74005,329.094618 253.686763,322.977431 244.239713,322.977431 L244.239713,322.977431 Z M373.602713,361.5625 C381.24408,361.5625 380.055925,366.414931 380.055925,371.444444 L380.055925,379.943576 C380.055925,381.974826 378.704485,383.605035 377.038636,383.605035 L375.801843,383.605035 C374.135994,383.605035 372.782817,381.974826 372.782817,379.943576 L372.782817,369.925347 L363.550295,369.925347 L363.550295,378.778646 C363.550295,384.19184 363.550295,392.371528 375.985972,392.371528 C388.902817,392.371528 389.400487,382.65191 389.415252,382.290799 L389.415252,363.705729 C389.415252,354.901042 384.826784,354.113715 377.333938,353.563368 C375.102672,353.398438 372.801056,353.221354 370.761737,352.657986 C361.969563,350.238715 360.876078,344.121528 360.463524,341.815972 C360.188198,340.299479 360.290685,328.204861 360.329769,324.328993 C360.309793,323.930556 359.984093,318.31684 363.858625,314.079861 C366.58756,311.09375 370.633194,309.574653 375.887828,309.574653 C381.472504,309.574653 385.803017,311.22309 388.749955,314.461806 C392.364795,318.423611 392.74695,323.573785 392.74695,325.55816 C392.74695,325.930556 392.732185,326.152778 392.728711,326.271701 L392.728711,334.009549 L402.188789,334.009549 L402.188789,320.90191 C402.188789,308.440972 392.161558,300.164062 379.056241,300.164062 L374.794343,300.164062 C361.88792,300.164062 350.220028,306.932292 350.220028,321.201389 L350.220028,340.292535 C350.220028,354.361979 363.278444,361.5625 373.602713,361.5625 L373.602713,361.5625 Z M323.827871,335.869792 L323.85219,404.309028 L332.649575,404.309028 L332.649575,322.537326 L318.934547,322.537326 L323.827871,335.869792 L323.827871,335.869792 Z M336.240097,322.537326 L336.240097,404.309028 L345.043563,404.309028 L345.032272,322.537326 L336.240097,322.537326 L336.240097,322.537326 Z M59.6770043,300.427951 L0,300.427951 L5.02012931,313.981771 L5.02012931,403.652778 L13.6707328,403.652778 L13.6707328,308.814236 C13.6707328,308.814236 58.3160108,308.938368 58.3238276,308.938368 C65.6620754,308.938368 72.2976789,314.431424 72.2976789,324.919271 L72.2976789,403.652778 L80.1527047,403.652778 L80.1066724,319.409722 C80.1066724,307.461806 69.9569784,300.427951 59.6770043,300.427951 L59.6770043,300.427951 Z M17.2664655,403.652778 L25.7633384,403.652778 L25.7633384,321.496528 L32.6568966,321.496528 L32.6568966,403.569444 L41.4091185,403.569444 L41.4091185,312.480903 C30.8963772,312.450521 19.0495668,312.413194 17.2664655,312.413194 L17.2664655,403.652778 L17.2664655,403.652778 Z M108.396578,373.744792 L124.238647,373.744792 L124.238647,365.05816 L100.786478,365.05816 L100.786478,391.661458 C103.666539,391.651042 127.868252,391.594618 133.118543,391.583333 L133.118543,383.892361 L108.396578,383.855903 L108.396578,373.744792 L108.396578,373.744792 Z M295.833267,354.521701 L286.242041,354.521701 L286.242041,322.350694 L278.814334,322.366319 L278.814334,360.72309 L304.111269,360.72309 L304.111269,322.340278 L295.833267,322.340278 L295.833267,354.521701 L295.833267,354.521701 Z M190.817026,322.94184 L136.683877,322.94184 L141.237603,335.226562 L141.237603,404.128472 L148.918054,404.128472 L148.918054,330.368924 L189.577627,330.486979 C196.322666,330.486979 202.184405,335.529514 202.184405,345.152778 L202.184405,404.128472 L209.404532,404.128472 L209.355894,340.159722 C209.355894,329.322917 200.139006,322.94184 190.817026,322.94184 L190.817026,322.94184 Z M100.786478,361.469618 L124.238647,361.469618 L124.238647,353.243924 L108.396578,353.243924 L108.396578,343.514757 L133.118543,343.514757 L133.118543,335.176215 L100.786478,335.176215 L100.786478,361.469618 L100.786478,361.469618 Z M58.3160108,312.532986 C58.3160108,312.532986 52.3726293,312.512153 45.0022457,312.493056 L45.0022457,403.569444 L53.4113966,403.569444 L53.4113966,321.496528 L56.3678879,321.434896 C58.0728211,321.434896 59.4529224,323.271701 59.4529224,325.546875 L59.4173125,403.652778 L68.7080259,403.652778 L68.7080259,324.919271 C68.7080259,316.788194 63.8755,312.532986 58.3160108,312.532986 L58.3160108,312.532986 Z M152.515524,404.128472 L160.058746,404.128472 L160.058746,342.049479 L166.310457,342.049479 L166.310457,404.056424 L174.080366,404.056424 L174.080366,334.042535 C164.717565,334.009549 154.266489,333.978299 152.515524,333.973958 L152.515524,404.128472 L152.515524,404.128472 Z M189.577627,334.08941 C189.577627,334.08941 184.278698,334.068576 177.670888,334.057292 L177.670888,404.056424 L185.132468,404.056424 L185.132468,342.049479 L187.814502,341.992188 C189.357888,341.992188 190.611183,343.655382 190.611183,345.727431 L190.575573,404.128472 L198.562616,404.128472 L198.562616,345.152778 C198.562616,337.547743 194.387571,334.08941 189.577627,334.08941 L189.577627,334.08941 Z M88.4576315,334.08941 L88.4576315,403.8125 C92.3999095,403.8125 133.118543,403.78125 133.118543,403.78125 L133.118543,395.173611 L97.1959569,395.25 L97.1959569,331.586806 L133.118543,331.586806 L133.118543,322.557292 L84.2417651,322.630208 L88.4576315,334.08941 L88.4576315,334.08941 Z" id="Fill-1" fill="#111B2B" mask="url(#mask-2)"></path>
                    <path d="M275.231629,404.810764 L275.231629,322.377604 L278.814334,322.366319 L278.814334,360.72309 L304.111269,360.72309 L304.111269,322.340278 L307.702659,322.340278 L307.702659,404.810764 L304.111269,404.810764 L304.111269,364.311632 L278.814334,364.311632 L278.814334,404.810764 L275.231629,404.810764 L275.231629,404.810764 Z M253.140455,352.439236 L253.140455,343.66059 C253.140455,337.107639 247.898849,333.830729 243.031582,333.830729 L227.616832,333.830729 L227.616832,361.975694 L243.031582,361.975694 C247.898849,361.975694 253.140455,358.987847 253.140455,352.439236 L253.140455,352.439236 Z M363.550295,369.925347 L363.550295,378.778646 C363.550295,384.19184 363.550295,392.371528 375.985972,392.371528 C388.902817,392.371528 389.400487,382.65191 389.415252,382.290799 L389.415252,363.705729 C389.415252,354.901042 384.826784,354.113715 377.333938,353.563368 C375.102672,353.398438 372.801056,353.221354 370.761737,352.657986 C361.969563,350.238715 360.876078,344.121528 360.463524,341.815972 C360.188198,340.299479 360.290685,328.204861 360.329769,324.328993 C360.309793,323.930556 359.984093,318.31684 363.858625,314.079861 C366.58756,311.09375 370.633194,309.574653 375.887828,309.574653 C381.472504,309.574653 385.803017,311.22309 388.749955,314.461806 C392.364795,318.423611 392.74695,323.573785 392.74695,325.55816 C392.74695,325.930556 392.732185,326.152778 392.728711,326.271701 L392.728711,334.009549 L389.216358,334.009549 L389.216358,326.085938 C389.222438,326.028646 389.579405,320.584201 386.153905,316.850694 C383.891373,314.383681 380.444159,313.134549 375.887828,313.134549 C371.671093,313.134549 368.497468,314.255208 366.458149,316.466146 C363.56506,319.610243 363.840386,324.039063 363.840386,324.085069 L363.845597,324.164931 L363.845597,324.236979 C363.77264,331.699653 363.77264,340.180556 363.919422,341.178819 C364.275522,343.198785 365.037226,347.388889 371.682384,349.228299 C373.396871,349.705729 375.434453,349.855903 377.592761,350.010417 C384.060737,350.487847 392.927606,351.145833 392.927606,363.705729 L392.922394,382.335938 C392.922394,382.476562 392.388246,395.929688 375.985972,395.929688 C360.039679,395.929688 360.039679,383.907118 360.039679,378.778646 L360.039679,369.925347 L363.550295,369.925347 L363.550295,369.925347 Z M224.024573,404.320312 L224.024573,330.235243 L243.031582,330.235243 C249.840024,330.235243 256.731845,335.046875 256.731845,343.66059 L256.731845,352.439236 C256.731845,361.053819 249.840024,365.56684 243.031582,365.56684 L227.616832,365.56684 L227.616832,404.320312 L224.024573,404.320312 L224.024573,404.320312 Z M332.649575,404.309028 L336.240097,404.309028 L336.240097,322.537326 L332.649575,322.537326 L332.649575,404.309028 Z M13.6707328,403.652778 L13.6707328,308.814236 C13.6707328,308.814236 58.3160108,308.938368 58.3238276,308.938368 C65.6620754,308.938368 72.2976789,314.431424 72.2976789,324.919271 L72.2976789,403.652778 L68.7080259,403.652778 L68.7080259,324.919271 C68.7080259,316.788194 63.8755,312.532986 58.3160108,312.532986 C58.3160108,312.532986 52.3726293,312.512153 45.0022457,312.493056 L45.0022457,403.569444 L41.4091185,403.569444 L41.4091185,312.480903 C30.8963772,312.450521 19.0495668,312.413194 17.2664655,312.413194 L17.2664655,403.652778 L13.6707328,403.652778 L13.6707328,403.652778 Z M133.118543,335.176215 L100.786478,335.176215 L100.786478,361.469618 L124.238647,361.469618 L124.238647,365.05816 L100.786478,365.05816 L100.786478,391.661458 C103.666539,391.651042 127.868252,391.594618 133.118543,391.583333 L133.118543,395.173611 L97.1959569,395.25 L97.1959569,331.586806 L133.118543,331.586806 L133.118543,335.176215 L133.118543,335.176215 Z M148.918054,404.128472 L148.918054,330.368924 L189.577627,330.486979 C196.322666,330.486979 202.184405,335.529514 202.184405,345.152778 L202.184405,404.128472 L198.562616,404.128472 L198.562616,345.152778 C198.562616,337.547743 194.387571,334.08941 189.577627,334.08941 C189.577627,334.08941 184.278698,334.068576 177.670888,334.057292 L177.670888,404.056424 L174.080366,404.056424 L174.080366,334.042535 C164.717565,334.009549 154.266489,333.978299 152.515524,333.973958 L152.515524,404.128472 L148.918054,404.128472 L148.918054,404.128472 Z" id="Fill-3" fill="#7892AE" mask="url(#mask-2)"></path>
                    <path d="M344.526784,74.1111111 C343.237879,72.1553819 341.940289,70.2925347 340.62967,68.4644097 C373.208399,15.0972222 296.348308,-25.8107639 268.523069,19.4782986 C234.265463,13.1701389 205.62467,25.6961806 201.770114,27.4887153 C197.916427,25.7057292 169.629996,13.3411458 135.693748,19.3489583 C102.090149,-27.9001736 32.7559095,20.9444444 63.3283233,67.8480903 C61.8674483,69.8602431 60.4117845,71.9357639 58.9952047,74.1111111 C15.5337392,140.192708 48.1524203,184.987847 48.1524203,184.987847 L54.8392672,178.311632 C54.8392672,178.311632 64.3349547,224.391493 114.507586,254.662326 L116.316744,244.724826 C147.209647,277.700521 175.839149,276.947917 202.48405,307.067708 C227.134795,278.534722 262.927101,278.534722 290.815744,242.916667 L290.815744,255.557292 C342.345894,230.491319 347.095909,176.280382 347.095909,176.280382 L351.845925,185.085069 C351.845925,185.085069 387.98217,140.192708 344.526784,74.1111111" id="Fill-4" fill="#111B2B" mask="url(#mask-2)"></path>
                </g>
                <path d="M235.269489,120.921007 C237.686621,120.039931 241.940703,122.587674 244.213657,127.016493 C254.676024,124.001736 254.105397,109.918403 254.053284,108.928819 C245.757043,112.150174 238.915597,117.698785 235.269489,120.921007" id="Fill-6" fill="#F7C03B"></path>
                <path d="M241.422188,129.249132 C266.729545,197.359375 234.483466,241.114583 234.483466,241.114583 C254.350323,189.137153 241.581129,145.907986 232.889705,129.855035 C228.425438,130.294271 223.065711,130.039063 223.065711,130.039063 C223.065711,130.039063 229.771666,125.895833 234.120418,121.950521 C234.460884,121.638889 234.856067,121.287326 235.293808,120.897569 C235.285991,120.909722 235.277306,120.914063 235.269489,120.921007 C237.686621,120.039931 241.940703,122.587674 244.213657,127.016493 C254.656916,124.006076 254.108871,109.969618 254.053284,108.934028 C257.096629,107.748264 260.330183,106.876736 263.676647,106.557292 C263.676647,106.557292 261.27428,128.942708 241.422188,129.249132 L241.422188,129.249132 Z M254.053284,108.928819 L254.053284,108.934028 C253.939506,108.980035 253.830071,109.02691 253.71803,109.071181 C253.831808,109.02691 253.939506,108.969618 254.053284,108.928819 L254.053284,108.928819 Z M85.2397112,63.0850694 C84.3303556,54.5 95.1792198,45.9895833 95.1792198,45.9895833 C90.7080043,41.3697917 82.8920625,45.3741319 82.8920625,45.3741319 C89.9845151,31.5121528 105.863931,38.2873264 105.863931,38.2873264 C99.8475927,30.9227431 87.0949009,31.3880208 87.0949009,31.3880208 C102.869224,15.7604167 121.910974,39.6440972 121.910974,39.6440972 C104.952838,43.4826389 85.2397112,63.0850694 85.2397112,63.0850694 L85.2397112,63.0850694 Z M281.370431,41.359375 C281.370431,41.359375 291.666907,15.6319444 323.213817,21.8420139 C323.213817,21.8420139 294.251666,2.79079861 274.09906,37.2335069 C274.09906,37.2335069 245.499088,23.6744792 202.385037,42.3046875 C202.385037,42.3046875 161.540466,28.0694444 130.742233,36.1336806 C130.742233,36.1336806 112.780071,4.98697917 87.4874784,17.8177083 C62.1983599,30.6371528 75.3948728,60.3090278 79.7974741,68.0017361 C79.7974741,68.0017361 37.8889483,110.673611 53.6441638,163.434896 L62.0793707,152.925347 C62.0793707,152.925347 74.1163901,210.381944 105.174315,228.492188 L107.044269,214.366319 C107.044269,214.366319 139.469267,253.473958 177.604011,270.082465 C181.232748,271.784722 201.461784,281.820312 202.084524,286.766493 L202.084524,259.404514 C202.084524,259.404514 175.605513,261.605035 168.61989,249.398438 C163.882903,241.105903 133.469431,186.87934 148.492472,130.084201 C148.492472,130.084201 133.868088,127.901042 131.107017,103.225694 C131.107017,103.225694 120.196487,97.9166667 106.633453,99.0190972 C106.633453,99.0190972 130.892489,91.4097222 153.6203,100.205729 C176.348978,109.000868 182.42872,131.388021 197.835653,121.493924 L202.385037,58.4262153 L206.717287,121.493924 C222.120746,131.388021 228.210041,109.000868 250.931772,100.205729 C273.662188,91.4097222 297.921224,99.0190972 297.921224,99.0190972 C297.921224,99.0190972 288.225774,92.1840278 272.628631,89.0694444 C259.616248,86.46875 240.49025,94.8246528 240.49025,94.8246528 C240.49025,94.8246528 243.127989,76.9340278 251.813334,67.3923611 C259.268834,59.1883681 276.157487,57.3802083 281.370431,41.359375 L281.370431,41.359375 Z M202.184405,188.944444 C205.068808,188.5 250.829284,186.840278 222.790386,215.270833 C242.337623,189.403646 206.870149,189.205729 202.184405,188.944444 L202.184405,188.944444 Z" id="Fill-7" fill="#7892AE"></path>
                <path d="M151.638304,108.898437 C151.584455,109.939236 151.040752,124.006076 161.477063,127.016493 C163.719619,122.665799 167.734853,120.137153 170.17283,120.888021 C164.588153,116.552951 157.587765,111.730903 151.638304,108.898437" id="Fill-8" fill="#F7C03B"></path>
                <path d="M202.084524,223.322917 L202.084524,236.266493 L193.273241,236.734375 C184.037246,237.012153 171.953325,240.759549 171.953325,240.759549 C149.559032,185.31684 161.975601,143.355035 167.95633,128.383681 C145.751377,133.192708 142.15825,106.557292 142.15825,106.557292 C144.455524,106.085069 147.830649,107.083333 151.638304,108.898437 C151.584455,109.939236 151.040752,124.006076 161.477063,127.016493 C163.717013,122.670139 167.724431,120.146701 170.163276,120.882812 C171.816097,122.168403 173.359483,123.41059 174.701369,124.546007 C189.801709,137.243924 201.526056,134.667535 201.526056,134.667535 C201.526056,134.667535 201.690209,182.998264 201.690209,188.934896 C201.690209,188.934896 157.996845,185.520833 181.475069,215.262153 C181.475069,215.262153 185.241034,204.388021 189.248453,207.819444 C194.810547,212.587674 202.084524,222.287326 202.084524,223.322917 L202.084524,223.322917 Z M151.669571,108.913194 C151.660017,108.907986 151.651332,108.902778 151.641778,108.898437 C151.651332,108.902778 151.65828,108.907986 151.669571,108.913194 L151.669571,108.913194 Z M202.095815,252.861979 C170.165013,252.861979 174.467733,245.834201 174.467733,245.834201 C177.907129,243.684028 200.264075,243.243924 202.052388,243.243924 C203.822461,243.243924 226.268866,243.684028 229.706526,245.834201 C229.706526,245.834201 234.010983,252.861979 202.095815,252.861979 L202.095815,252.861979 Z" id="Fill-9" fill="#CDD7DE"></path>
                <path d="M107.942334,441.126736 L90.9251379,434.9375 L90.9607478,442.079861 L77.9735517,477.777778 L88.0711336,481.456597 L94.1152651,464.848958 L97.1855345,465.953993 C98.0566746,466.28125 98.4231961,467.450521 98.0158534,468.579861 L92.7151875,483.150174 L102.692043,486.786458 L108.165547,471.769097 C109.024528,469.397569 108.755282,467.222222 107.418608,465.625868 C107.418608,465.625868 110.799813,465.041667 112.616787,460.052951 L114.987017,453.874132 C117.114058,448.037326 112.945961,442.944444 107.942334,441.126736 L107.942334,441.126736 Z M104.277987,453.403646 L103.762946,454.817708 C103.170606,456.428819 101.643722,457.298611 100.254935,456.795139 L97.4235129,455.760417 L100.031722,448.602431 L102.869224,449.638021 C104.222401,450.124132 104.856431,451.824653 104.277987,453.403646 L104.277987,453.403646 Z" id="Fill-10" fill="#7892AE"></path>
                <path d="M316.284649,445.701389 L312.768821,435.581597 L287.580453,444.365451 L291.815427,449.559896 L304.415256,485.75 C306.442416,485.051215 327.522616,477.696181 327.522616,477.696181 L323.935569,467.688368 L311.182877,472.097222 C310.833726,471.070312 309.115765,466.149306 309.115765,466.149306 L317.280858,463.313368 L313.726815,453.097222 L305.557379,455.929688 L303.541511,450.128472 L316.284649,445.701389" id="Fill-11" fill="#7892AE"></path>
                <polyline id="Fill-12" fill="#7892AE" points="245.727513 487.526042 242.442716 453.284722 228.997802 454.567708 232.341659 461.405382 235.913073 498.580729 262.25833 496.131076 261.298599 486.03559 245.727513 487.526042"></polyline>
                <polyline id="Fill-13" fill="#7892AE" points="128.434537 454.652778 127.511284 447.010417 140.402942 449.767361 131.346733 493.46875 120.820095 491.220486 128.434537 454.652778"></polyline>
                <polyline id="Fill-14" fill="#7892AE" points="267.882091 456.49566 263.949366 449.881076 276.853183 447.186632 286.242041 490.81684 275.703244 493.013021 267.882091 456.49566"></polyline>
                <g id="Group-18" transform="translate(147.650862, 451.388889)">
                    <mask id="mask-4" fill="white">
                        <use xlink:href="#path-3"></use>
                    </mask>
                    <g id="Clip-16"></g>
                    <polyline id="Fill-15" fill="#7892AE" mask="url(#mask-4)" points="31.9420927 3.578125 5.19036207 0.771701389 3.99873276 13.1770833 11.4794203 11.2855903 15.8021164 11.7369792 0.535885776 45.1050347 27.2963017 47.7769097 28.2186853 37.6605903 16.698444 36.453125 31.9420927 3.578125"></polyline>
                    <polyline id="Fill-17" fill="#7892AE" mask="url(#mask-4)" points="69.0893125 4.17013889 42.1751659 4.03472222 42.2220668 16.4973958 49.4717241 13.8706597 53.8421897 13.8871528 41.9510841 48.6111111 68.8739159 48.6059028 68.7809828 38.4470486 57.1982069 38.4027778 69.0893125 4.17013889"></polyline>
                </g>
                <path d="M349.526069,450.217014 L351.640082,453.391493 C352.137752,454.149306 352.043082,455.096354 351.420343,455.511285 L350.067166,456.407118 C349.446164,456.822917 348.528991,456.546875 348.034795,455.784722 L345.544707,452.039931 L337.198959,457.572049 L340.439461,462.462674 C344.299228,468.279514 350.202657,467.553819 354.283901,464.848958 L357.241261,462.886285 C362.363877,459.489583 363.979351,453.874132 360.616386,448.809028 L355.581491,441.221354 C351.917144,435.710069 346.902226,436.206597 343.138866,438.703993 L340.700022,440.216146 C339.326,441.126736 338.14045,441.065972 337.193748,439.634549 L334.509108,435.58941 C334.008832,434.835069 334.100028,433.889757 334.728847,433.476562 L336.082024,432.575521 C336.696946,432.166667 337.611513,432.44184 338.108315,433.203125 L340.163267,436.282986 L348.507278,430.747396 L345.252879,425.852431 C342.166976,421.201389 336.370377,420.595486 331.478791,423.836806 L328.993914,425.484375 C324.17181,428.685764 321.494119,434.103299 325.034265,439.434028 L329.772989,446.565972 C333.259287,451.818576 339.92442,451.269097 343.778976,448.710069 C347.294804,446.380208 348.277985,448.338542 349.526069,450.217014" id="Fill-19" fill="#7892AE"></path>
                <path d="M63.8442328,462.451389 C60.2146272,467.833333 53.7892091,468.109375 49.4326401,465.171875 L44.9240776,462.136285 C40.5666401,459.203993 38.4135431,453.149306 42.037069,447.773438 L56.6857716,425.888021 C60.2875841,420.49566 66.7086595,420.190972 71.0747823,423.111979 L75.599847,426.131944 C79.969444,429.048611 82.1538082,435.092882 78.5424418,440.491319 L75.6328513,444.840278 L66.7347155,438.873264 L68.5369246,436.175347 C69.2204612,435.154514 69.189194,433.932292 68.4717845,433.447049 L67.0395711,432.493924 C66.3143448,432.011285 65.1730905,432.449653 64.4965022,433.482639 C64.4965022,433.482639 63.7756185,434.554688 62.6777909,436.195312 C60.6940582,439.158854 52.0008966,452.144097 52.0008966,452.144097 C51.3034634,453.16059 51.3277823,454.381944 52.0495345,454.869792 L53.4808793,455.832465 C54.1982888,456.30816 55.3430172,455.877604 56.030028,454.859375 L59.3261164,450 L57.7749138,448.953125 L61.9273772,442.773438 L72.4088513,449.767361 L63.8442328,462.451389" id="Fill-20" fill="#7892AE"></path>
            </g>
        </g>
    </g>
</svg>