<?xml version="1.0" encoding="UTF-8" standalone="no"?>
<svg width="500px" height="500px" viewBox="0 0 500 500" version="1.1" xmlns="http://www.w3.org/2000/svg" xmlns:xlink="http://www.w3.org/1999/xlink">
    <!-- Generator: Sketch 39.1 (31720) - http://www.bohemiancoding.com/sketch -->
    <title>MIA</title>
    <desc>Created with Sketch.</desc>
    <defs>
        <polygon id="path-1" points="353.70577 370.360317 353.70577 0 0.385420351 0 0.385420351 370.360317 353.70577 370.360317"></polygon>
        <polygon id="path-3" points="0.480557987 114.238095 243.13976 114.238095 243.13976 0.423015873 0.480557987 0.423015873 0.480557987 114.238095"></polygon>
        <polygon id="path-5" points="0.217924797 114.238095 80.6749628 114.238095 80.6749628 0.423015873 0.217924797 0.423015873"></polygon>
    </defs>
    <g id="NBA" stroke="none" stroke-width="1" fill="none" fill-rule="evenodd">
        <g id="MIA">
            <g id="MHeat_Global_pms" transform="translate(69.000000, 0.000000)">
                <g id="Group-3" transform="translate(8.737418, 0.000000)">
                    <mask id="mask-2" fill="white">
                        <use xlink:href="#path-1"></use>
                    </mask>
                    <g id="Clip-2"></g>
                    <path d="M37.7202276,142.018254 C38.8092276,129.685714 83.280302,113.403175 155.167011,110.85873 C148.497184,115.857937 140.592204,124.59127 138.642171,138.635714 L137.904256,143.951587 C137.430847,147.223016 136.848617,150.569841 135.584074,153.87381 C132.814313,161.129365 125.014976,167.111905 116.657239,171.672222 C87.7125558,168.030952 63.525,161.939683 49.3950066,154.298413 L49.3767374,154.292857 C41.6457112,150.107937 37.399326,145.637302 37.7202276,142.018254 L37.7202276,142.018254 Z M313.867116,138.311905 C316.614637,141.337302 316.437505,143.288095 316.380315,143.930952 C316.074505,147.416667 311.707385,151.616667 304.392578,155.462698 L304.371131,155.471429 C289.002807,163.542857 262.568941,169.645238 231.10391,172.866667 C232.489188,171.973016 233.993613,171.194444 235.625921,170.533333 L236.13984,170.32619 C245.179096,166.657143 255.432853,162.498413 255.915,147.562698 C255.992842,145.184127 256.111989,137.896825 257.425779,135.289683 C259.112101,131.944444 263.431562,126.766667 267.233928,125.388095 C267.294295,125.365873 260.877853,124.115873 260.877853,124.115873 C260.537888,124.081746 260.212221,124.069048 259.883376,124.059524 C262.036753,122.497619 263.577716,120.636508 264.697694,118.674603 C290.252258,123.988889 307.441142,131.225397 313.867116,138.311905 L313.867116,138.311905 Z M345.255098,119.554762 C331.753405,104.67381 301.957221,92.5968254 263.580098,85.2904762 C263.750875,80.8865079 266.43644,79.018254 271.216602,75.7166667 C273.710737,73.9928571 276.536101,72.0388889 279.373379,69.3468254 C291.751917,57.5936508 277.224768,39.5928571 276.596468,38.8333333 L268.599348,29.0873016 L270.513637,41.5515873 C271.830604,50.0920635 268.693871,53.1174603 259.405996,59.5912698 C258.223267,60.4111111 257.204166,61.3214286 256.31851,62.2896825 C256.709311,56.5857143 256.980965,50.2325397 255.052379,42.2690476 C253.123792,34.3007937 249.210223,31.0785714 249.210223,31.0785714 L248.195094,42.6325397 C248.190328,42.7015873 247.298317,51.6603175 235.323289,62.4849206 C236.356687,61.3301587 237.317009,60.1309524 238.182807,58.8738095 C244.045615,50.3460317 242.348173,40.6460317 240.385431,29.4126984 L239.976361,27.0484127 C237.961989,15.334127 241.099516,8.03253968 243.113094,6.83095238 C245.078219,4.43968254 248.975902,0.465873016 248.975902,0.465873016 C248.975902,0.465873016 246.904339,-0.455555556 241.147175,0.292857143 C233.660002,1.32539683 221.078915,5.8 221.414908,16.0365079 C221.564239,20.5373016 223.009884,24.8063492 224.297462,28.5746032 C225.666059,32.6134921 226.963168,36.4293651 225.809035,38.3952381 C224.891606,39.9428571 222.114696,41.1801587 217.768228,41.9706349 C200.137707,45.1801587 186.629659,53.4230159 179.724716,65.1865079 C177.445838,69.0761905 175.92235,73.2460317 175.154252,77.6222222 C131.408383,77.7515873 89.9874617,83.2039683 57.8726849,93.1301587 C21.8769059,104.260317 2.02946389,119.411111 0.479763676,136.942857 C-0.339964989,146.168254 3.83096061,159.470635 26.9422254,172.269048 L26.7825689,172.43254 L33.3380153,175.566667 C33.3467527,175.573016 33.3578731,175.573016 33.360256,175.580159 L36.8131247,177.230952 L36.8544289,177.185714 C47.5061357,181.940476 60.0077921,186.048413 73.9201444,189.44127 C68.9604683,192.235714 64.3995361,195.446032 60.2969212,199.095238 C37.9100678,217.45873 25.0120503,244.684127 25.0120503,273.700794 C25.0120503,299.51746 35.0719956,323.792063 53.3435252,342.049206 C71.615849,360.306349 95.9066652,370.360317 121.746387,370.360317 C167.478827,370.360317 207.281737,337.964286 216.487799,293.293651 C224.294284,269.952381 223.390359,244.907937 223.051982,235.465873 C222.270381,214.010317 232.814856,202.135714 239.52281,196.784921 C270.079149,192.919841 297.123046,186.231746 317.262794,177.265873 L317.295361,177.301587 L320.545681,175.757143 C320.555212,175.753175 320.563155,175.75 320.571893,175.742857 L327.539586,172.425397 L327.352129,172.246032 C343.560834,163.202381 352.608033,152.574603 353.608864,141.246032 C354.280851,133.703968 351.466608,126.407143 345.255098,119.554762 L345.255098,119.554762 Z" id="Fill-1" fill="#0F1216" mask="url(#mask-2)"></path>
                </g>
                <polyline id="Fill-4" fill="#0F1216" points="96.4690372 436.521429 108.809449 386.137302 88.421081 386.137302 76.0218906 436.521429 96.4690372 436.521429"></polyline>
                <g id="Group-11" transform="translate(55.601751, 385.714286)">
                    <mask id="mask-4" fill="white">
                        <use xlink:href="#path-3"></use>
                    </mask>
                    <g id="Clip-6"></g>
                    <path d="M85.517081,12.8142857 L86.7236389,33.3857143 L76.102116,33.3857143 L86.8570832,50.8071429 L105.456663,50.8071429 L102.55584,0.423015873 L71.8787659,0.423015873 C71.8787659,0.423015873 46.7435974,50.8071429 46.8762473,50.8071429 L66.5346433,50.8071429 L85.4027002,12.8142857 L85.517081,12.8142857" id="Fill-5" fill="#0F1216" mask="url(#mask-4)"></path>
                    <polyline id="Fill-7" fill="#0F1216" mask="url(#mask-4)" points="38.1499497 97.0619048 33.9957046 114.285714 53.128267 114.285714 65.5330175 63.918254 46.3980722 63.918254 41.6941641 83.4261905 27.3211116 83.4460317 32.0194595 63.918254 12.8821313 63.918254 0.480557987 114.285714 19.6107374 114.285714 23.7633939 97.0761905 38.1499497 97.0619048"></polyline>
                    <polyline id="Fill-8" fill="#0F1216" mask="url(#mask-4)" points="83.901453 102.938889 85.2938796 96.0888889 108.993729 96.0888889 112.01767 84.9555556 88.2209147 84.95 89.7451969 77.5619048 113.552278 77.5619048 117.200547 63.918254 73.9868665 63.918254 61.5852932 114.285714 104.466952 114.285714 107.546495 102.944444 83.901453 102.938889"></polyline>
                    <polyline id="Fill-9" fill="#0F1216" mask="url(#mask-4)" points="206.928269 50.8071429 219.266298 0.423015873 198.879519 0.423015873 186.476357 50.8071429 206.928269 50.8071429"></polyline>
                    <path d="M240.759551,39.3285714 C243.464974,43.0865079 246.443639,50.4412698 233.830779,56.1531746 C219.201164,62.7738095 233.894324,79.6746032 213.830829,79.6746032 L205.591444,79.6746032 L197.286926,114.285714 L176.831836,114.285714 L185.17607,79.684127 L171.372538,79.6746032 L175.711063,63.918254 L211.142088,63.918254 C232.142869,63.918254 217.409199,49.3626984 228.106182,47.4079365 C235.416223,46.0714286 239.931085,44.7444444 240.759551,39.3285714" id="Fill-10" fill="#0F1216" mask="url(#mask-4)"></path>
                </g>
                <polyline id="Fill-12" fill="#0F1216" points="40.8601379 412.090476 37.6066411 386.137302 12.4015733 386.137302 0 436.521429 18.6043457 436.521429 25.4671904 410.197619 25.5815711 410.197619 29.2933851 436.521429 40.2429584 436.521429 55.4373282 410.197619 55.5540919 410.197619 49.6142363 436.521429 67.1629431 436.521429 79.5700766 386.137302 55.2872035 386.137302 40.9745186 412.090476 40.8601379 412.090476"></polyline>
                <g id="Group-16" transform="translate(165.216630, 385.714286)">
                    <mask id="mask-6" fill="white">
                        <use xlink:href="#path-5"></use>
                    </mask>
                    <g id="Clip-14"></g>
                    <polyline id="Fill-13" fill="#0F1216" mask="url(#mask-6)" points="41.9650241 26.3761905 38.7099387 0.423015873 13.5120197 0.423015873 1.10806346 50.8071429 19.7116149 50.8071429 26.5720766 24.4833333 26.688046 24.4833333 30.4022429 50.8071429 41.3502276 50.8071429 56.546186 24.4833333 56.6597724 24.4833333 50.7238884 50.8071429 68.267035 50.8071429 80.6749628 0.423015873 56.3944726 0.423015873 42.0730503 26.3761905 41.9650241 26.3761905"></polyline>
                    <path d="M38.8695952,76.3095238 L40.070593,96.8793651 L29.451453,96.8793651 L40.2072144,114.285714 L58.8083829,114.285714 L55.9051772,63.918254 L25.2281028,63.918254 C25.2281028,63.918254 0.0873741794,114.285714 0.218435449,114.285714 L19.8839803,114.285714 L38.7536258,76.3095238 L38.8695952,76.3095238" id="Fill-15" fill="#0F1216" mask="url(#mask-6)"></path>
                </g>
                <path d="M37.4771685,280.534921 C40.0165799,293.252381 47.2932604,308.486508 61.7600416,318.650794 C66.1311335,321.716667 70.8977921,324.203175 75.9424595,326.12619 C72.8136696,320.794444 69.179698,315.430952 65.4742385,309.969841 C58.5549978,299.77619 51.4014354,289.22619 46.8595667,277.885714 C42.1659847,266.162698 40.8807899,253.893651 42.9309059,241.553968 C39.2413326,251.573016 37.202337,262.394444 37.202337,273.700794 C37.202337,276.003968 37.3143348,278.279365 37.4771685,280.534921" id="Fill-17" fill="#81112B"></path>
                <path d="M53.0639278,275.399206 C57.3397024,286.077778 64.2891269,296.319841 71.0097899,306.221429 C76.2037877,313.877778 81.276256,321.360317 85.1366061,328.927778 C89.3933173,329.918254 93.7922101,330.556349 98.2816543,330.827778 C93.6476455,324.213492 89.6181072,316.692857 86.1565011,308.089683 C72.727884,274.745238 74.6723567,233.533333 91.325081,209.680159 C99.9179344,197.373016 110.203464,189.011905 123.451772,181.798413 C134.850926,175.581746 141.97351,173.724603 149.215241,169.404762 C157.098775,164.707143 161.311004,156.861905 156.127333,139.252381 C154.611788,134.098413 154.340133,130.036508 154.657858,126.879365 C152.856361,130.35873 151.453608,134.406349 150.800685,139.107937 L150.841195,139.063492 C150.027821,144.043651 149.682295,149.523016 147.55116,155.103175 C140.585055,173.334921 106.847501,183.45873 102.395389,184.805556 C89.591895,188.672222 79.3294004,194.561111 71.3322801,201.674603 C48.23293,222.211111 44.109663,253.025397 53.0639278,275.399206" id="Fill-18" fill="#81112B"></path>
                <path d="M193.822142,110.611905 C194.162107,111.739683 194.436939,112.853968 194.585475,113.942857 C195.467954,120.315079 193.533807,125.457937 185.711435,126.718254 C177.662685,128.009524 174.917547,121.00873 174.293219,115.303175 C174.22888,113.320635 174.370267,111.738095 174.541838,110.585714 C173.18595,110.60873 171.849125,110.637302 170.507534,110.671429 C167.928407,112.146825 164.570061,114.434921 161.334039,117.724603 C159.73112,121.171429 157.797768,125.949206 160.775639,137.125397 C166.027621,156.845238 163.800374,168.75873 147.938783,175.573016 C127.737079,184.257937 114.820792,189.352381 97.4944923,211.130159 C89.2527243,221.486508 84.7513654,238.657143 84.0023304,255.934921 C83.2858621,272.699206 86.7371422,290.613492 92.6491969,305.297619 C96.6032757,315.114286 101.21981,323.657143 106.660838,330.913492 C112.066917,330.70873 117.550044,330.006349 123.026022,328.806349 C117.005147,321.764286 113.544335,313.184921 112.923184,303.575397 C110.85877,271.586508 128.094519,258.133333 154.633234,236.880159 L166.501031,226.929365 C213.866573,186.728571 200.052716,145.846032 205.257834,110.937302 C201.512659,110.79127 197.70235,110.684127 193.822142,110.611905" id="Fill-19" fill="#81112B"></path>
                <path d="M212.797431,111.283333 C211.351786,118.253968 210.698068,125.531746 210.237368,133.061111 C208.360411,163.466667 209.27228,197.890476 170.75377,232.088889 L159.106792,241.501587 C133.317906,262.157143 118.582648,275.060317 119.595394,303.147619 C119.926621,312.415873 123.837807,320.53254 130.37419,326.903175 C137.577794,324.735714 144.706733,321.710317 151.562429,317.823016 C185.066455,298.819841 206.14349,270.415873 214.205744,233.980952 C219.302042,210.946032 219.196398,192.2 219.111407,177.138889 C219.070897,169.528571 220.062197,154.588095 220.062197,154.588095 C221.124985,145.161111 222.656416,131.940476 233.601223,114.619048 C233.957869,114.059524 234.335166,113.492063 234.701344,112.926984 C227.72809,112.239683 220.42202,111.686508 212.797431,111.283333" id="Fill-20" fill="#81112B"></path>
                <path d="M224.075849,209.033333 C224.079026,208.996032 224.082204,208.957937 224.082204,208.919048 C224.079026,208.969048 224.067906,209.033333 224.061551,209.083333 C223.019416,214.538095 222.744584,220.662698 222.078952,226.775397 C221.762816,229.111905 221.440326,231.37381 221.108304,233.573016 C220.993129,234.19127 220.870805,234.810317 220.727829,235.42619 C212.266832,273.792063 190.376422,303.656349 155.158274,323.629365 C149.10642,327.062698 142.973547,329.877778 136.803341,332.069841 C147.123821,338.915079 159.162394,341.018254 167.439906,339.776984 C199.06777,335.034921 214.480575,314.41746 221.891495,292.371429 C229.507346,269.738889 228.69556,245.592857 228.33256,235.592857 C227.127591,202.193651 252.980022,189.875397 252.980022,189.875397 C232.8784,188.786508 226.288004,197.539683 224.075849,209.033333" id="Fill-21" fill="#81112B"></path>
                <path d="M202.958304,332.218254 C190.02772,343.022222 176.085978,345.386508 169.750556,346.357143 C157.30053,348.263492 142.55574,345.315079 129.51554,335.034921 C129.30346,334.864286 129.104882,334.681746 128.894389,334.512698 C123.308002,336.003968 117.71526,336.999206 112.131256,337.456349 C124.900595,351.154762 141.698678,358.928571 164.228508,360.454762 C164.323031,360.461111 164.423908,360.469048 164.521608,360.472222 L164.547026,360.472222 C179.881195,354.457937 193.242295,344.518254 203.36658,331.866667 C203.229958,331.987302 203.094926,332.103968 202.958304,332.218254" id="Fill-22" fill="#81112B"></path>
                <path d="M85.2756105,355.21746 C85.5321729,348.175397 83.5495733,341.255556 80.3056083,334.335714 C72.5682276,332.103968 64.9960635,328.786508 57.6979365,324.356349 C53.5913501,321.85873 49.894628,318.053968 46.6220678,314.497619 C46.6077702,314.484127 46.5950613,314.477778 46.5807637,314.460317 C54.9853654,331.703968 68.5513982,345.953968 85.2756105,355.224603 C85.2756105,355.224603 85.2756105,355.224603 85.2756105,355.21746" id="Fill-23" fill="#81112B"></path>
                <path d="M149.761726,364.811111 C137.157604,361.9 126.362921,357.43254 116.901092,350.264286 C112.066917,346.593651 107.660875,342.449206 103.648018,337.761905 C98.5429825,337.700794 93.4689256,337.204762 88.4480875,336.265873 C91.2424726,343.453175 92.6444311,350.780952 91.7476543,358.47381 L91.7476543,358.488095 C103.549523,363.874603 116.659621,366.906349 130.483805,366.906349 C137.148072,366.906349 143.640768,366.192063 149.902319,364.865079 C149.858632,364.850794 149.806208,364.827778 149.761726,364.811111" id="Fill-24" fill="#81112B"></path>
                <path d="M258.136687,135.916667 C255.965042,143.176984 248.808302,142.319841 246.733562,138.407143 C243.45147,132.212698 244.693772,127.423016 248.119635,124.154762 C251.539937,120.886508 257.150153,119.14127 262.58721,116.680159 C262.618982,116.666667 262.63884,116.656349 262.663464,116.644444 C256.382055,115.565873 249.690781,114.603968 242.608707,113.774603 C242.514184,113.887302 242.411718,113.993651 242.312429,114.102381 C241.688895,114.819048 241.057418,115.531746 240.452153,116.273016 C229.207891,133.170635 227.7964,145.699206 226.702635,155.337302 L226.356315,158.301587 C225.724838,163.354762 225.758993,169.725397 225.799503,177.101587 C225.807446,178.114286 225.813801,179.161111 225.813801,180.224603 C225.735958,182.800794 225.63667,185.334921 225.521495,187.821429 C225.579479,187.834127 225.623961,187.848413 225.678768,187.860317 C225.758993,186.830952 225.807446,186.434127 225.799503,186.962698 C228.984689,176.835714 234.823667,170.676984 243.059875,167.331746 C251.97919,163.718254 260.781742,160.39127 261.198755,147.450794 C261.379063,142.043651 261.769864,136.634921 263.009783,133.874603 C265.256094,128.876984 269.283249,127.551587 269.283249,127.551587 C264.961405,127.131746 260.22493,128.942857 258.136687,135.916667" id="Fill-25" fill="#81112B"></path>
                <path d="M268.929781,84.6531746 C269.581116,75.997619 277.791112,74.3793651 285.727864,66.8420635 C295.923637,57.168254 282.670562,41.0230159 282.670562,41.0230159 C284.336232,51.8793651 279.311422,56.0214286 270.114893,62.4246032 C267.195007,64.452381 265.075786,67.3071429 264.781096,70.902381 C264.455429,74.9277778 264.201249,79.2706349 263.317976,83.6825397 C265.212407,83.9944444 267.07586,84.3206349 268.929781,84.6531746" id="Fill-26" fill="#ED992D"></path>
                <path d="M240.863606,69.568254 C238.412363,71.3952381 236.114422,73.2690476 233.972166,75.1801587 C232.443912,76.6420635 230.956168,78.0944444 229.578834,79.4880952 C238.541042,80.2634921 247.24907,81.2690476 255.641757,82.4936508 C260.998589,72.734127 263.555475,61.6769841 260.381409,42.8357143 C260.381409,42.8357143 259.635551,55.5952381 240.863606,69.568254" id="Fill-27" fill="#ED992D"></path>
                <path d="M190.81091,77.6365079 C201.053547,77.7349206 211.106344,78.1428571 220.897018,78.8166667 C221.230628,78.4912698 221.539615,78.1587302 221.876403,77.8404762 C228.455678,70.7873016 238.632387,64.8309524 244.071827,56.9198413 C249.511267,49.0111111 247.317381,39.3420635 245.308569,27.634127 C241.837431,7.45238095 250.353236,3.71031746 250.353236,3.71031746 C250.353236,3.71031746 233.28191,6.06111111 233.609166,15.9238095 C234.043654,29.1666667 247.700239,41.6246032 227.127591,45.368254 C204.546926,49.4706349 190.511455,61.6769841 187.423175,77.6293651 C188.553479,77.6325397 189.676635,77.6261905 190.81091,77.6365079" id="Fill-28" fill="#ED992D"></path>
                <path d="M190.756897,82.9230159 C96.1529015,81.9880952 17.2309825,106.388095 14.4850503,137.411111 C13.3865186,149.770635 24.5545274,161.31746 44.3638425,170.8 C56.6025821,176.657143 72.1440656,181.719841 90.1232888,185.702381 C93.7262823,184.103175 97.4889322,182.677778 101.447777,181.48254 C104.581333,180.538095 110.367886,178.642857 116.733492,175.880952 C90.2440241,172.013492 68.7984289,166.080159 55.6136652,158.948413 C45.8746214,153.683333 40.6345536,147.762698 41.1865996,141.553175 C43.0317834,120.720635 109.263,104.468254 189.127766,105.255556 C268.983794,106.040476 332.232374,123.566667 330.392751,144.396032 C329.889952,150.070635 324.607786,155.405556 315.570912,160.149206 C298.894359,168.907937 269.426225,175.64127 233.635379,178.780952 C232.399431,180.469841 231.312814,182.349206 230.410477,184.47619 C246.692258,178.30873 265.446729,187.430952 265.446729,187.430952 C265.446729,187.430952 266.706505,187.914286 267.585807,188.507937 C291.333315,184.279365 311.733597,178.254762 327.032022,170.97381 C345.116888,162.366667 356.086319,152.007937 357.080796,140.783333 C359.826729,109.757937 285.361687,83.8507937 190.756897,82.9230159" id="Fill-29" fill="#FFFFFF"></path>
            </g>
        </g>
    </g>
</svg>