<?xml version="1.0" encoding="UTF-8" standalone="no"?>
<svg width="500px" height="500px" viewBox="0 0 500 500" version="1.1" xmlns="http://www.w3.org/2000/svg" xmlns:xlink="http://www.w3.org/1999/xlink">
    <!-- Generator: Sketch 39.1 (31720) - http://www.bohemiancoding.com/sketch -->
    <title>MIL</title>
    <desc>Created with Sketch.</desc>
    <defs>
        <polygon id="path-1" points="0.0521459227 499.947917 404.146545 499.947917 404.146545 0 0.0521459227 0"></polygon>
    </defs>
    <g id="NBA" stroke="none" stroke-width="1" fill="none" fill-rule="evenodd">
        <g id="MIL">
            <g id="MBucks_Global_pms" transform="translate(48.000000, 0.000000)">
                <g id="Group-3">
                    <mask id="mask-2" fill="white">
                        <use xlink:href="#path-1"></use>
                    </mask>
                    <g id="Clip-2"></g>
                    <path d="M202.073273,500 C90.649603,500 0,409.459201 0,298.169271 C0,243.768229 21.438927,192.720486 60.3693348,154.428819 C60.6778648,154.125868 61.014206,153.857639 61.3714056,153.628472 C47.9438305,133.423611 40.429603,109.792535 46.1395815,81.1684028 C56.6591524,28.4444444 99.3197318,12.5503472 101.130933,11.8993056 C101.825343,11.6501736 102.538004,11.53125 103.241974,11.53125 C105.487725,11.53125 107.632661,12.7482639 108.744238,14.8246528 C109.442994,16.1319444 109.631588,17.5894097 109.364775,18.9539931 C123.326845,7.23263889 136.611888,2.09201389 142.211491,0.298611111 C142.840719,0.0963541667 143.482983,0 144.115687,0 C146.503101,0 148.757543,1.37673611 149.793509,3.65104167 C151.104109,6.52777778 150.050762,9.92795139 147.34265,11.5633681 C134.626867,19.2395833 123.542382,29.6493056 115.152972,41.6414931 C125.205837,39.3203125 131.965687,39.0763889 134.337457,39.0763889 C135.168315,39.0763889 135.595912,39.1024306 135.595912,39.1024306 C138.673391,39.2942708 141.172918,41.7057292 141.443208,44.7734375 C141.715236,47.8420139 139.722393,50.6501736 136.724871,51.3776042 C136.565826,51.4175347 119.873047,55.6388889 101.440333,68.8446181 C97.9639378,79.4505208 96.2014056,90.5112847 96.2014056,101.750868 C96.2014056,123.096354 103.042082,145.006944 114.966985,161.863715 C117.719421,165.755208 120.436223,169.169271 123.282521,172.278646 C122.234388,150.273438 128.713519,116.249132 168.252296,100.403646 C169.011888,100.099826 169.798423,99.9539931 170.57279,99.9539931 C172.869818,99.9539931 175.064292,101.228299 176.151534,103.394965 C177.605536,106.292535 176.592167,109.818576 173.821481,111.506076 L173.528594,111.684028 C167.543981,115.570312 162.49191,120.572049 158.604431,126.368924 C162.755247,125.125 166.334195,124.701389 168.763326,124.413194 L169.235247,124.357639 C169.485547,124.327257 169.734979,124.3125 169.982672,124.3125 C172.592575,124.3125 174.964345,125.950521 175.856041,128.457465 C176.832039,131.202257 175.773476,134.256076 173.308712,135.811632 C173.308712,135.811632 172.934131,136.048611 172.847221,136.099826 C160.183584,143.394097 153.13867,151.881076 151.909764,161.322917 C150.578305,171.557292 156.187468,181.216146 160.28353,186.730903 C170.884796,174.396701 177.784571,153.472222 179.720923,145.561632 C180.409249,142.746528 182.93485,140.811632 185.774195,140.811632 C186.016674,140.811632 186.260891,140.824653 186.506845,140.854167 C189.634732,141.220486 191.997811,143.858507 192.016931,147.00434 C192.175107,172.849826 185.252736,190.539062 178.126127,201.873264 C188.742167,207.198785 199.108777,207.508681 201.358873,207.508681 C201.614388,207.508681 201.97941,207.499132 202.058498,207.499132 C202.141931,207.499132 202.234056,207.500868 202.32618,207.503472 C202.32618,207.503472 202.532157,207.508681 202.788541,207.508681 C205.037768,207.508681 215.406116,207.198785 226.021288,201.873264 C218.893809,190.539062 211.971438,172.849826 212.129614,147.00434 C212.148734,143.858507 214.512682,141.220486 217.6397,140.854167 C217.886524,140.824653 218.129871,140.811632 218.37235,140.811632 C221.212564,140.811632 223.738165,142.746528 224.426491,145.561632 C226.362843,153.472222 233.262618,174.397569 243.863015,186.730903 C247.95647,181.221354 253.56824,171.559896 252.236781,161.322917 C251.007876,151.881076 243.96383,143.394097 231.299324,136.099826 C231.212414,136.048611 230.923004,135.865451 230.923004,135.865451 C228.457371,134.309896 227.357961,131.228299 228.333959,128.484375 C229.227393,125.973958 231.567876,124.313368 234.175172,124.313368 C234.419388,124.313368 234.664474,124.327257 234.912167,124.357639 L235.383219,124.413194 C237.813219,124.701389 241.391298,125.125 245.543852,126.368924 C241.654635,120.572049 236.603433,115.570312 230.617951,111.684028 L230.325064,111.506076 C227.554378,109.818576 226.541009,106.292535 227.995011,103.394965 C229.081384,101.228299 231.276727,99.9539931 233.573755,99.9539931 C234.348991,99.9539931 235.135526,100.099826 235.894249,100.403646 C275.433895,116.249132 281.912157,150.273438 280.864024,172.278646 C283.711191,169.169271 286.427994,165.755208 289.180429,161.863715 C301.106202,145.006076 307.945139,123.096354 307.945139,101.750868 C307.945139,90.5112847 306.183476,79.4505208 302.706212,68.84375 C284.153562,55.5451389 267.591148,51.4184028 267.421674,51.3776042 C264.424152,50.6501736 262.432178,47.8420139 262.702468,44.7734375 C262.974496,41.7048611 265.473155,39.2934028 268.552371,39.1024306 C268.552371,39.1024306 268.97823,39.0763889 269.809088,39.0763889 C272.181727,39.0763889 278.940708,39.3203125 288.993573,41.6414931 C280.604163,29.6493056 269.519678,19.2395833 256.804764,11.5633681 C254.095783,9.92795139 253.042436,6.52777778 254.353036,3.65104167 C255.389871,1.37673611 257.643444,0 260.031727,0 C260.663562,0 261.304088,0.0963541667 261.935923,0.298611111 C267.534657,2.09201389 280.8197,7.23263889 294.78177,18.9539931 C294.514957,17.5894097 294.703552,16.1319444 295.402307,14.8246528 C296.513884,12.7482639 298.65882,11.53125 300.90544,11.53125 C301.608541,11.53125 302.321202,11.6501736 303.016481,11.8993056 C304.825944,12.5503472 347.49,28.4444444 358.006964,81.1684028 C363.716942,109.792535 356.204453,133.423611 342.775139,153.628472 C343.134077,153.857639 343.46868,154.125 343.778079,154.427951 C382.707618,192.720486 404.146545,243.768229 404.146545,298.169271 C404.146545,409.459201 313.497811,500 202.073273,500" id="Fill-1" fill="#D9C59B" mask="url(#mask-2)"></path>
                </g>
                <path d="M81.0556223,144.768229 C81.0556223,144.768229 72.1378004,104.408854 78.7672854,80.5260417 C77.0004077,82.4322917 75.206588,84.390625 73.5500858,86.5321181 C57.3970172,107.409722 81.0556223,144.768229 81.0556223,144.768229 L81.0556223,144.768229 Z M323.090923,144.768229 C323.090923,144.768229 346.749528,107.409722 330.596459,86.5321181 C328.939957,84.390625 327.146137,82.4322917 325.380129,80.5260417 C332.008745,104.408854 323.090923,144.768229 323.090923,144.768229 L323.090923,144.768229 Z M52.2571674,82.3854167 C62.2074785,32.5078125 103.242843,17.7612847 103.242843,17.7612847 C88.2178648,28.8498264 72.882618,49.6935764 66.5451502,78.9635417 C72.7140129,71.3159722 78.4344206,65.578125 85.15603,61.0060764 C101.794056,25.2083333 130.184903,10.6918403 144.115687,6.23003472 C126.046255,17.1397569 110.934367,33.3767361 101.750601,52.0807292 C122.644603,44.6293403 135.251749,45.3229167 135.251749,45.3229167 C135.251749,45.3229167 116.575687,49.8576389 96.1649034,64.9765625 C92.1540129,76.4956597 89.9638841,88.8663194 89.9638841,101.75 C89.9638841,124.414931 97.2730043,147.650174 109.872328,165.458333 C116.962436,175.480035 123.808326,182.407986 132.330708,188.71875 C129.51309,181.636285 118.784936,126.940104 170.575397,106.184896 L170.207768,106.408854 C157.975204,114.323785 148.961781,126.65191 145.299399,141.155382 C154.756931,132.111979 164.735054,131.171007 169.978326,130.542535 C169.898369,130.592882 169.812328,130.650174 169.730633,130.701389 C121.652961,158.394965 159.882006,195.907118 159.882006,195.907118 C175.041695,183.21875 183.877822,154.809896 185.77941,147.041667 C185.963659,177.059028 175.968155,195.034722 169.17441,203.818576 C184.671309,214.439236 202.051545,213.729167 202.058498,213.728299 L202.088047,213.728299 C202.095,213.729167 219.475236,214.439236 234.972135,203.818576 C228.178391,195.034722 218.182886,177.059028 218.367135,147.041667 C220.268723,154.809896 229.105719,183.21875 244.264539,195.907118 C244.264539,195.907118 282.494453,158.394965 234.415912,130.701389 C234.334217,130.650174 234.249045,130.592882 234.169088,130.542535 C239.411491,131.171007 249.389614,132.111979 258.847146,141.155382 C255.184764,126.65191 246.171341,114.323785 233.938777,106.408854 L233.572017,106.184896 C285.362479,126.940104 274.634324,181.636285 271.815837,188.71875 C280.338219,182.407986 287.184979,175.480035 294.275086,165.458333 C306.873541,147.650174 314.182661,124.414931 314.182661,101.75 C314.182661,88.8663194 311.992532,76.4956597 307.982511,64.9765625 C287.570858,49.8576389 268.894796,45.3229167 268.894796,45.3229167 C268.894796,45.3229167 281.502811,44.6293403 302.395944,52.0807292 C293.212178,33.3767361 278.10029,17.1397569 260.031727,6.23003472 C273.961642,10.6918403 302.352489,25.2083333 318.990515,61.0060764 C325.712124,65.578125 331.432532,71.3159722 337.602264,78.9635417 C331.264796,49.6935764 315.92868,28.8498264 300.903702,17.7612847 C300.903702,17.7612847 341.939067,32.5078125 351.889378,82.3854167 C363.470118,140.436632 317.050687,176.688368 279.620343,207.744792 L308.197178,196.105035 C310.132661,195.284722 311.47368,197.147569 311.118219,199.373264 L310.280408,206.421875 C309.818916,210.298611 306.966534,229.939236 296.169721,235.894965 C293.834453,237.184028 289.810526,238.65625 277.961234,239.532118 L256.510139,240.908854 L260.071706,252.957465 L239.013444,286.648438 L249.800697,275.294271 L271.815837,353.506076 L211.406524,403.147569 L230.257275,317.746528 L202.073273,351.988715 L173.88927,317.746528 L192.740021,403.147569 L132.330708,353.506076 L154.345848,275.294271 L165.133101,286.648438 L144.074839,252.957465 L147.636406,240.908854 L126.185311,239.532118 C114.336019,238.65625 110.312092,237.184028 107.976824,235.894965 C97.1800107,229.939236 94.3284979,210.298611 93.8661373,206.421875 L93.0283262,199.373264 C92.6728648,197.147569 94.0147532,195.284722 95.9502361,196.105035 L124.526202,207.744792 C87.0958584,176.688368 40.6772961,140.436632 52.2571674,82.3854167 L52.2571674,82.3854167 Z M78.9524034,173.434896 C47.2320386,205.124132 26.8516738,249.924479 26.8516738,298.168403 C26.8516738,309.315104 27.9128433,320.217882 29.9178541,330.790799 L82.7555794,316.539062 C91.4874142,374.072917 141.338047,418.30816 201.340622,418.30816 C261.567425,418.30816 311.562328,373.739583 320.016921,315.890625 L374.230429,330.788194 C376.233702,320.215278 377.294871,309.314236 377.294871,298.168403 C377.294871,249.924479 357.239549,205.727431 325.519185,174.038194 L330.160172,169.030382 C363.614388,202.026042 384.165966,247.610243 384.165966,298.168403 C384.165966,398.453993 302.479378,480.042535 202.073273,480.042535 C101.667167,480.042535 19.9805794,398.453993 19.9805794,298.168403 C19.9805794,247.610243 40.7485622,201.810764 74.2036481,168.815104 L78.9524034,173.434896 L78.9524034,173.434896 Z M339.400429,158.867187 L335.042768,164.092014 C369.612039,198.295139 391.037929,245.728299 391.037929,298.168403 C391.037929,402.405382 306.435515,486.90625 202.073273,486.90625 C97.71103,486.90625 13.1086159,402.405382 13.1086159,298.168403 C13.1086159,245.727431 34.53103,198.290799 69.1003004,164.087674 L64.746985,158.867187 C28.6550536,194.367188 6.23752146,243.697917 6.23752146,298.168403 C6.23752146,406.023438 94.0894957,493.769965 202.073273,493.769965 C310.057049,493.769965 397.909893,406.023438 397.909893,298.168403 C397.909893,243.697917 375.492361,194.367188 339.400429,158.867187 L339.400429,158.867187 Z" id="Fill-4" fill="#2A4832"></path>
                <path d="M188.043412,427.171875 L177.040622,442.419271 L181.966674,469.18316 L175.1625,467.989583 L171.461878,448.548611 L168.256642,466.779514 L161.757521,465.639757 L169.103144,423.850694 L175.603133,424.990451 L173.564227,436.587674 L181.187961,425.969618 L188.043412,427.171875 L188.043412,427.171875 Z M275.800655,446.016493 L270.172371,435.572917 L277.4728,431.676215 L283.095,442.122396 L275.800655,446.016493 L275.800655,446.016493 Z M262.187092,420.757812 L269.484045,416.835069 L274.304067,425.789931 L267.01059,429.708333 L262.187092,420.757812 L262.187092,420.757812 Z M279.854131,427.730903 L280.557232,423.574653 L274.111127,411.679688 L268.002232,409.957465 L253.348358,417.855903 L273.448004,454.947917 L288.102747,447.049479 L289.9322,440.875 L283.690333,429.357639 L279.854131,427.730903 L279.854131,427.730903 Z M213.327232,463.076389 L213.438476,469.809896 L193.026824,470.147569 L192.32633,427.9375 L212.738852,427.600694 L212.850097,434.335069 L198.984496,434.564236 L199.153101,444.744792 L213.019571,444.515625 L213.129946,451.197917 L199.264345,451.427083 L199.460762,463.305556 L213.327232,463.076389 L213.327232,463.076389 Z M244.355794,458.1875 L245.655097,464.796875 L225.62324,468.725694 L217.478047,427.301215 L237.509903,423.372396 L238.810075,429.980903 L225.201727,432.651042 L227.16676,442.641493 L240.774238,439.97309 L242.063112,446.530382 L228.455633,449.199653 L230.748315,460.856771 L244.355794,458.1875 L244.355794,458.1875 Z M292.622929,391.105035 L319.849185,423.394097 L303.288509,437.325521 L276.25867,404.869792 L281.306395,400.623264 L304.188895,427.761285 L310.497682,422.454861 L287.615182,395.31684 L292.622929,391.105035 L292.622929,391.105035 Z M369.256577,339.072917 L363.129431,359.493056 L358.603165,358.137153 L351.786824,356.09809 L353.665815,349.833333 L358.549281,351.295139 L360.916706,343.403646 L349.624506,340.023438 L345.276406,354.148438 L340.738841,352.790799 L322.641599,347.374132 L328.768745,326.953993 L333.360193,328.328125 L340.060075,330.335069 L338.181084,336.598958 L333.348026,335.15191 L330.980601,343.043403 L340.746663,345.967014 L345.045225,331.826389 L369.256577,339.072917 L369.256577,339.072917 Z M331.823627,365.190972 L358.833476,368.764757 L355.597822,374.861979 L335.940547,372.382812 L352.315236,381.048611 L349.22559,386.872396 L311.690955,367.006076 L314.780601,361.182292 L325.196749,366.695312 L317.435697,356.177951 L320.694818,350.03559 L331.823627,365.190972 L331.823627,365.190972 Z M338.785976,394.216146 L342.479646,397.159722 L329.167661,413.822049 L296.129742,387.491319 L309.441727,370.829861 L319.527618,378.867188 L315.443723,383.978299 L310.670633,380.174479 L305.526438,386.614583 L327.980472,404.509549 L333.125536,398.070312 L328.31073,394.232639 L332.393755,389.121528 L338.785976,394.216146 L338.785976,394.216146 Z M164.578616,422.758681 L149.402414,462.158854 L145.120365,460.513021 L133.813391,456.169271 L129.195,454.394097 L144.611942,415.085069 L150.769506,417.452257 L138.015483,450.56684 L145.71309,453.525174 L158.467983,420.409722 L164.578616,422.758681 L164.578616,422.758681 Z M65.7255901,391.684028 L73.8299356,402.987847 L68.304206,406.940104 L56.3575751,390.277778 L90.8946888,365.575521 L94.7361052,370.934028 L65.7255901,391.684028 L65.7255901,391.684028 Z M82.0324893,348.53559 L41.8584013,362.321181 L39.7152039,356.087674 L64.9242811,347.438368 L53.2887876,347.074653 L62.2431116,339.646701 L37.0349034,348.296875 L34.8908369,342.063368 L75.0640558,328.277778 L77.2081223,334.511285 L68.2537983,341.940104 L79.8884227,342.302083 L82.0324893,348.53559 L82.0324893,348.53559 Z M87.9675644,359.886285 L50.2930043,379.487847 L47.2450751,373.642361 L84.9187661,354.042535 L87.9675644,359.886285 L87.9675644,359.886285 Z M119.963433,399.233507 L87.4765236,426.818576 L83.0006652,422.404514 L90.8312446,410.600694 L79.1488197,418.605903 L74.6738305,414.192708 L101.879227,381.396701 L106.24471,385.702257 L95.2523498,399.532986 L110.16956,389.573785 L111.67397,391.056424 L101.893133,406.079861 L115.562318,394.891493 L119.963433,399.233507 L119.963433,399.233507 Z M126.368691,423.955729 L119.41677,419.521701 L124.9903,410.806424 L131.970032,415.195312 L126.368691,423.955729 L126.368691,423.955729 Z M139.80235,415.094618 L141.002575,413.217014 L141.117296,413.038194 L123.10088,401.610243 L123.015708,401.744792 L100.26618,437.323785 L105.784088,440.842882 L115.786545,425.197917 L122.739335,429.632812 L112.736009,445.27691 L118.253916,448.796875 L139.80235,415.094618 L139.80235,415.094618 Z" id="Fill-5" fill="#FFFFFF"></path>
                <path d="M182.457715,239.568576 C179.392403,238.164063 173.618112,235.516493 167.866416,232.880208 C166.716599,232.352431 165.391223,233.067708 165.186985,234.315972 C164.779378,236.798611 164.838476,240.6875 168.241867,243.3125 C174.653208,248.257813 180.088552,245.502604 183.006116,242.645833 C183.956041,241.715278 183.666631,240.123264 182.457715,239.568576" id="Fill-6" fill="#FFFFFF"></path>
                <path d="M103.242843,206.289931 C103.242843,206.289931 105.329549,223.803819 112.683863,227.861111 C117.649893,230.599826 129.782511,230.336806 140.378562,231.150174 C128.644861,226.604167 111.360225,214.198785 103.245451,206.291667 L103.242843,206.289931" id="Fill-7" fill="#FFFFFF"></path>
                <polyline id="Fill-8" fill="#FFFFFF" points="189.825933 311.012153 195.708863 318.984375 208.437682 318.984375 214.320612 311.012153 189.825933 311.012153"></polyline>
                <path d="M300.901094,206.291667 C292.78632,214.198785 275.502554,226.604167 263.767114,231.150174 C274.364034,230.336806 286.496652,230.599826 291.462682,227.861111 C298.816996,223.803819 300.903702,206.289931 300.903702,206.289931 L300.901094,206.291667" id="Fill-9" fill="#FFFFFF"></path>
                <path d="M214.266727,264.769965 L208.614979,246.268229 L202.073273,249.439236 L195.531567,246.268229 L189.879818,264.769965 C189.879818,264.769965 188.000826,272.117188 179.889528,277.294271 L176.43573,292.502604 L184.932908,303.953125 L193.952414,303.953125 L185.597768,291.685764 L186.916191,284.107639 C190.708938,288.149306 196.093004,290.682292 202.073273,290.697049 C208.053541,290.682292 213.437607,288.149306 217.230354,284.107639 L218.548777,291.685764 L210.194131,303.953125 L219.213637,303.953125 L227.710815,292.502604 L224.257886,277.294271 C216.145719,272.117188 214.266727,264.769965 214.266727,264.769965" id="Fill-10" fill="#FFFFFF"></path>
                <path d="M236.280129,232.880208 C230.529303,235.516493 224.754142,238.164063 221.68883,239.568576 C220.479914,240.123264 220.190504,241.715278 221.140429,242.645833 C224.057994,245.502604 229.494206,248.257813 235.905547,243.3125 C239.308069,240.6875 239.368036,236.798611 238.960429,234.315972 C238.755322,233.067708 237.430815,232.352431 236.280129,232.880208" id="Fill-11" fill="#FFFFFF"></path>
            </g>
        </g>
    </g>
</svg>