<?xml version="1.0" encoding="UTF-8" standalone="no"?>
<svg width="500px" height="500px" viewBox="0 0 500 500" version="1.1" xmlns="http://www.w3.org/2000/svg" xmlns:xlink="http://www.w3.org/1999/xlink">
    <!-- Generator: Sketch 43.2 (39069) - http://www.bohemiancoding.com/sketch -->
    <title>MIN</title>
    <desc>Created with Sketch.</desc>
    <defs>
        <polygon id="path-1" points="0.00137188231 0.166600027 499.708333 0.166600027 499.708333 499.798414 0.00137188231 499.798414 0.00137188231 0.166600027"></polygon>
    </defs>
    <g id="Page-1" stroke="none" stroke-width="1" fill="none" fill-rule="evenodd">
        <g id="MIN">
            <g id="Page-1">
                <g id="Group-3" transform="translate(0.000000, 0.034153)">
                    <mask id="mask-2" fill="white">
                        <use xlink:href="#path-1"></use>
                    </mask>
                    <g id="Clip-2"></g>
                    <path d="M488.319167,175.494802 L488.410833,175.378182 L485.8775,168.056111 C450.985833,67.6379448 356.135833,0.164934026 249.869167,0.164934026 L249.860833,0.164934026 C222.010833,0.164934026 194.444167,4.83806477 167.919167,14.0510462 C37.7858333,59.2079835 -31.3308333,201.800946 13.8275,331.898907 C48.7441667,432.325403 143.594167,499.798414 249.8525,499.798414 C277.7025,499.798414 305.285833,495.133613 331.819167,485.920632 C459.4775,441.605025 528.410833,303.543583 488.319167,175.494802" id="Fill-1" fill="#999EA0" mask="url(#mask-2)"></path>
                </g>
                <path d="M249.859167,491.018593 C147.3425,491.018593 55.8425,425.927962 22.1591667,329.041717 C-21.4075,203.533587 45.2841667,65.9719446 170.809167,22.4060376 C196.400833,13.5179262 223.000833,9.01972544 249.850833,9.01972544 C352.384167,9.01972544 443.884167,74.1020259 477.550833,170.979941 L478.6925,174.261962 L478.659167,174.295282 C519.959167,298.903772 453.3675,434.432894 328.934167,477.62395 C303.325833,486.512062 276.7175,491.018593 249.859167,491.018593" id="Fill-4" fill="#002A5B"></path>
                <path d="M274.835,141.798281 C273.51,141.665001 271.985,141.565041 270.268333,141.448421 C261.476667,140.848661 247.493333,139.76576 230.643333,133.959749 C227.201667,137.75823 224.376667,141.764961 222.251667,145.138611 C226.568333,149.628482 234.81,158.250033 238.893333,162.839864 C245.951667,167.088165 253.026667,171.686325 260.035,176.601026 C271.21,164.031054 281.135,153.826803 290.926667,143.580901 C286.168333,142.906171 281.243333,142.339731 276.11,141.906571 L274.835,141.798281 Z" id="Fill-6" fill="#004F83"></path>
                <path d="M170.215833,183.338331 C151.624167,209.477876 138.390833,243.614221 137.115833,284.364587 C156.965833,262.514994 173.3075,242.264761 184.4575,231.535719 C192.174167,224.122018 199.9825,219.040717 207.049167,215.567106 C199.6575,198.523924 189.899167,184.604492 176.699167,177.95715 C174.265833,179.714781 172.065833,181.522391 170.215833,183.338331" id="Fill-8" fill="#004F83"></path>
                <path d="M223.055,119.752932 C234.096667,115.263061 246.08,110.664901 257.646667,106.79978 C272.246667,101.468579 285.221667,98.5364188 295.296667,96.9870385 C295.03,96.9120685 294.771667,96.8121085 294.505,96.7371385 C287.33,94.6463081 280.138333,93.0885979 272.946667,92.0306877 C253.18,89.1235173 233.513333,90.0314874 214.788333,94.2547981 C213.713333,97.7367386 212.255,104.51736 214.696667,110.681561 C216.171667,114.405071 219.03,117.412202 223.055,119.752932" id="Fill-10" fill="#004F83"></path>
                <path d="M200.094167,164.604991 C195.7275,166.695822 190.935833,169.119852 186.319167,171.793782 C199.319167,180.315374 208.994167,194.734606 216.3525,211.661169 C226.685833,208.070938 233.819167,207.995968 233.819167,207.995968 C240.760833,199.174497 247.169167,191.435926 253.1775,184.438725 C246.235833,179.582334 239.244167,175.042483 232.269167,170.869152 C224.619167,168.111922 206.360833,165.462981 200.094167,164.604991" id="Fill-12" fill="#004F83"></path>
                <path d="M239.475,126.155371 C252.491667,129.962182 263.241667,130.745202 270.966667,131.269992 C272.783333,131.394942 274.4,131.511562 275.808333,131.636512 L276.958333,131.736472 C281.975,132.169632 288.991667,132.960982 297.258333,134.443723 C303.4,126.913401 310.825,122.223611 315.816667,121.11572 C321.716667,123.323171 324.725,126.763461 326.866667,131.669832 C335.033333,135.093463 340.5,141.116054 344.1,148.313175 C362.983333,156.534886 381.975,168.713348 396.491667,186.747801 C381.283333,151.586865 353.583333,122.090331 317.208333,105.238738 L317.2,105.430328 C316.758333,105.413668 283.183333,104.647308 241.633333,124.789251 C240.9,125.214081 240.183333,125.672231 239.475,126.155371" id="Fill-14" fill="#004F83"></path>
                <path d="M409.020833,236.782787 C404.9125,217.848694 391.5375,182.970978 348.4375,160.896475 C353.2875,182.596128 347.7875,207.252932 347.7875,207.252932 C347.7875,207.252932 359.5875,214.083533 362.454167,227.103325 C362.470833,227.111655 364.029167,227.778055 365.270833,229.693956 C368.570833,233.734006 372.779167,243.071938 366.0125,261.414601 C366.0125,261.414601 361.995833,252.851359 353.504167,262.072671 C352.770833,263.088931 352.0625,264.105191 351.3625,265.096461 C367.545833,287.362555 379.870833,310.594929 386.145833,333.269192 C393.345833,321.47391 399.154167,308.554078 403.204167,294.651306 C408.8375,275.292383 410.604167,255.74187 409.020833,236.782787" id="Fill-16" fill="#004F83"></path>
                <path d="M126.678333,295.619252 C126.136667,272.728409 129.211667,250.653905 135.911667,229.554012 C141.536667,211.869419 149.103333,196.925397 157.161667,184.463715 C158.386667,182.056344 160.428333,178.274524 162.853333,173.892943 C132.111667,170.610922 104.236667,203.381148 93.42,218.04195 C86.3283333,252.536485 91.0366667,287.105991 105.036667,317.235606 C112.561667,310.180095 119.795,302.891343 126.678333,295.619252" id="Fill-18" fill="#004F83"></path>
                <path d="M329.08,335.189258 C328.763333,350.48314 336.296667,362.261762 341.896667,380.446155 C355.763333,370.683393 368.13,358.688191 378.388333,344.793749 C373.78,321.961216 361.78,297.820872 345.196667,274.446888 C334.78,291.365121 329.663333,307.275423 329.08,335.189258" id="Fill-20" fill="#004F83"></path>
                <path d="M193.528333,132.406204 C198.72,130.073804 205.036667,127.299913 212.045,124.326103 C208.995,121.493902 206.678333,118.178562 205.17,114.346761 C202.786667,108.27419 202.886667,102.101659 203.661667,97.2036186 C180.836667,104.12585 159.77,116.062742 142.128333,132.139644 C142.903333,132.139644 143.77,132.164634 144.578333,132.189624 C159.703333,131.289984 181.228333,131.914734 193.528333,132.406204" id="Fill-22" fill="#004F83"></path>
                <path d="M168.155,164.430061 C170.296667,160.623251 172.471667,156.81644 174.446667,153.35949 C165.971667,147.803379 160.68,143.779988 146.088333,142.472178 C140.088333,142.297248 135.071667,142.488838 131.546667,142.730408 C118.305,157.29958 107.63,174.526023 100.38,193.876616 C116.613333,177.041683 141.03,159.13218 168.155,164.430061" id="Fill-24" fill="#004F83"></path>
                <path d="M218.694167,130.246235 L207.644167,146.256497 C207.644167,146.256497 215.994167,152.054178 222.860833,159.89271 C210.8525,157.443689 197.660833,155.227909 197.660833,155.227909 L176.7525,166.590031 L186.5525,150.338198 C186.5525,150.338198 179.960833,144.707117 172.360833,139.800746 C180.694167,140.050646 196.544167,141.358457 196.544167,141.358457 L218.694167,130.246235 Z" id="Fill-26" fill="#7AC142"></path>
                <path d="M227.605833,225.87465 C227.605833,225.87465 224.6975,233.896441 224.3225,241.351793 C224.3225,241.351793 206.130833,244.034053 197.380833,249.990004 C197.380833,249.990004 215.539167,231.905571 227.605833,225.87465" id="Fill-28" fill="#7AC142"></path>
                <path d="M350.1425,225.069139 C352.159167,224.577669 353.675833,224.502699 354.7925,224.577669 C354.459167,223.644709 353.834167,222.261929 352.709167,220.887478 C351.100833,218.938258 348.759167,217.480508 348.759167,217.480508 C350.2675,219.804578 350.3175,223.011629 350.1425,225.069139" id="Fill-30" fill="#FEFEFE"></path>
                <path d="M333.731667,233.344162 C336.081667,231.728142 338.223333,230.395342 340.173333,229.304112 C339.815,228.454452 339.265,227.246601 338.44,225.780521 C336.881667,222.989971 332.815,220.54928 332.815,220.54928 C334.498333,225.522291 334.14,230.553612 333.731667,233.344162" id="Fill-32" fill="#FEFEFE"></path>
                <path d="M138.628333,356.064241 C123.161667,362.378382 86.5783333,353.765161 86.5783333,353.765161 C123.545,351.64934 159.695,325.168266 159.695,325.168266 C159.67,325.226576 159.628333,325.301546 159.611667,325.359856 C148.77,341.978209 133.828333,351.59103 133.828333,351.59103 C135.478333,353.690191 137.145,355.089631 138.628333,356.064241" id="Fill-34" fill="#999EA0"></path>
                <path d="M322.94,135.598261 C322.94,135.598261 313.856667,128.47611 303.531667,139.530021 C314.59,119.396408 320.981667,130.93346 322.94,135.598261" id="Fill-36" fill="#7AC142"></path>
                <path d="M358.903333,233.159236 C358.903333,233.159236 357.953333,232.517826 357.753333,232.409536 C351.995,229.335766 341.678333,238.282187 334.945,241.980708 C328.22,245.687558 318.411667,253.5844 313.62,242.713748 C308.836667,231.834766 319.853333,214.824903 323.661667,204.129182 C332.078333,180.463648 332.386667,166.535886 330.611667,158.997234 C338.386667,167.777056 340.836667,184.611989 340.836667,184.611989 C340.836667,184.611989 343.728333,152.999633 328.261667,144.677962 C328.62,145.802512 328.22,149.742603 327.903333,152.849693 C327.903333,152.849693 327.87,152.799713 327.853333,152.783053 C320.645,154.090864 304.761667,152.291583 299.611667,149.592663 C280.078333,170.534286 258.786667,199.664301 242.761667,226.420265 C235.82,240.564607 229.003333,257.1663 227.303333,270.652572 C227.303333,270.652572 225.086667,264.555011 224.57,256.42493 C215.695,259.848561 185.561667,274.650973 179.111667,320.04948 C179.111667,320.04948 198.27,300.299047 219.445,292.593796 C219.445,292.593796 206.028333,327.713081 231.636667,389.946521 C231.636667,389.946521 242.003333,351.786785 263.67,342.157304 C276.803333,407.322904 315.286667,408.389144 326.511667,452.729741 C326.511667,452.729741 338.261667,429.755598 324.111667,390.721212 C324.111667,390.721212 328.995,392.079002 333.128333,396.960383 C333.128333,396.960383 332.486667,385.539951 321.811667,360.899807 C314.853333,347.713415 312.67,329.920532 312.67,329.920532 C306.42,335.576603 304.82,354.693956 304.82,354.693956 C285.72,302.889677 339.945,251.543549 349.836667,243.971578 C354.67,240.264727 357.653333,240.206417 359.445,241.089398 C361.311667,237.240937 361.145,234.766927 358.903333,233.159236" id="Fill-38" fill="#999EA0"></path>
                <path d="M393.220833,141.435926 C364.1625,103.101259 321.979167,78.3861455 274.4375,71.8304345 C266.220833,70.6975543 257.8875,70.1227842 249.6625,70.1227842 C160.3625,70.1227842 83.8208333,136.904405 71.6041667,225.452319 C66.5375,262.220945 72.7708333,298.814641 89.2541667,331.210016 C91.3208333,329.494036 93.3708333,327.736405 95.4041667,325.962115 C80.2791667,295.39934 74.6125,261.046415 79.3791667,226.526889 C91.0541667,141.827436 164.2625,77.9696455 249.6625,77.9696455 C257.529167,77.9696455 265.504167,78.5110956 273.3625,79.6023257 C318.829167,85.8664867 359.179167,109.507031 386.970833,146.175696 C414.7625,182.836032 426.620833,228.059609 420.345833,273.508097 C413.4375,323.663035 384.945833,366.504232 345.129167,393.110256 C345.670833,395.784186 346.145833,398.591397 346.545833,401.540217 C389.704167,373.892943 420.720833,328.236206 428.120833,274.582667 C434.679167,227.060009 422.279167,179.770592 393.220833,141.435926" id="Fill-40" fill="#999EA0"></path>
                <path d="M136.080833,82.0421831 C131.3475,82.0421831 127.514167,78.2103825 127.514167,73.4789418 C127.514167,68.747501 131.3475,64.9240304 136.080833,64.9240304 C140.814167,64.9240304 144.6475,68.747501 144.6475,73.4789418 C144.6475,78.2103825 140.814167,82.0421831 136.080833,82.0421831 M136.080833,57.7852192 C127.405833,57.7852192 120.380833,64.8157404 120.380833,73.4789418 C120.380833,82.1504731 127.405833,89.1643343 136.080833,89.1643343 C144.755833,89.1643343 151.780833,82.1504731 151.780833,73.4789418 C151.780833,64.8157404 144.755833,57.7852192 136.080833,57.7852192" id="Fill-42" fill="#FEFEFE"></path>
                <path d="M100.885833,96.9703785 L97.2025,99.0278888 C95.8525,99.794249 95.0691667,99.819239 94.3191667,99.1278489 C93.4275,98.3198387 93.5941667,97.0703385 94.7441667,95.7958483 C94.7525,95.7875183 94.7525,95.7791883 94.7608333,95.7708583 C96.0858333,94.3297681 97.5358333,93.596728 99.3525,93.446788 L99.9608333,93.4051379 L99.4941667,86.4162668 L98.8941667,86.4329268 C95.4775,86.5328868 92.2525,88.1988871 89.3191667,91.3976076 C87.4691667,93.4217979 86.3441667,95.8125083 86.1275,98.1365787 C85.8691667,100.852159 86.8691667,103.3345 89.0275,105.30871 C92.3525,108.34916 96.2691667,108.55741 100.985833,105.92513 L104.269167,104.10919 C105.9775,103.15124 107.0775,102.784719 107.985833,103.62605 C109.0775,104.61732 108.819167,106.01676 107.219167,107.79105 C107.2025,107.81604 107.194167,107.8327 107.1775,107.84103 C105.0525,110.148441 102.660833,110.323371 101.044167,110.256731 L100.460833,110.231741 L99.7108333,117.845362 L100.360833,117.878682 C102.9025,118.011962 107.869167,117.470512 112.585833,112.314241 C112.6275,112.264261 112.669167,112.214281 112.719167,112.164301 C115.110833,109.507031 116.394167,106.86642 116.519167,104.32577 C116.660833,101.693489 115.560833,99.2944489 113.269167,97.1952886 C109.860833,94.0798681 106.160833,94.021558 100.885833,96.9703785" id="Fill-44" fill="#FEFEFE"></path>
                <polygon id="Fill-46" fill="#FEFEFE" points="54.6183333 258.469112 54.4516667 251.613521 23.91 252.338231 24.0766667 259.193822"></polygon>
                <polygon id="Fill-48" fill="#FEFEFE" points="82.6358333 149.235306 94.1608333 131.967213 88.4858333 128.177063 80.7691667 139.747434 76.5108333 136.915234 83.1525 126.952552 77.4858333 123.162402 70.8358333 133.125083 66.6441667 130.334533 74.3608333 118.764161 68.7358333 115.01566 57.2108333 132.292083"></polygon>
                <polygon id="Fill-50" fill="#FEFEFE" points="182.898333 66.8074437 173.948333 44.6829601 181.831667 41.4925696 179.323333 35.3033786 157.19 44.2581301 159.698333 50.4473211 167.581667 47.2569306 176.54 69.3730841"></polygon>
                <polygon id="Fill-52" fill="#FEFEFE" points="57.2841667 166.881581 35.7591667 176.694322 35.3425 177.727242 63.8675 189.380914 66.4508333 183.058443 51.6258333 177.002532 73.2425 167.148141 73.6591667 166.115221 45.1341667 154.461549 42.5175 160.85066"></polygon>
                <polygon id="Fill-54" fill="#FEFEFE" points="43.2475 212.593296 24.5641667 227.104158 24.3975 228.203719 54.8391667 232.968479 55.8975 226.221178 40.0725 223.738838 58.8308333 209.177995 59.0058333 208.078435 28.5558333 203.313675 27.4891667 210.127616"></polygon>
                <polygon id="Fill-56" fill="#FEFEFE" points="303.1075 62.9773091 309.6825 64.9265294 318.374167 35.6465747 311.799167 33.6890244"></polygon>
                <polygon id="Fill-58" fill="#FEFEFE" points="470.775833 296.570538 472.334167 289.889877 442.575833 282.950986 437.950833 302.784719 444.7175 304.36742 447.7925 291.214348"></polygon>
                <path d="M460.059167,259.736939 C455.325833,259.736939 451.4925,255.905138 451.4925,251.173697 C451.4925,246.442256 455.325833,242.618786 460.059167,242.618786 C464.7925,242.618786 468.625833,246.442256 468.625833,251.173697 C468.625833,255.905138 464.7925,259.736939 460.059167,259.736939 M460.059167,235.479975 C451.384167,235.479975 444.359167,242.510496 444.359167,251.173697 C444.359167,259.845229 451.384167,266.85909 460.059167,266.85909 C468.734167,266.85909 475.759167,259.845229 475.759167,251.173697 C475.759167,242.510496 468.734167,235.479975 460.059167,235.479975" id="Fill-60" fill="#FEFEFE"></path>
                <polygon id="Fill-62" fill="#FEFEFE" points="398.123333 123.704685 411.015 139.989837 416.365 135.758197 407.731667 124.854225 411.74 121.680494 419.173333 131.068406 424.523333 126.836765 417.09 117.448854 421.04 114.325103 429.673333 125.229075 434.973333 121.030754 422.09 104.745602"></polygon>
                <polygon id="Fill-64" fill="#FEFEFE" points="419.276667 346.954552 408.176667 364.505864 413.935 368.146075 421.368333 356.392443 425.693333 359.124683 419.293333 369.245635 425.06 372.894176 431.468333 362.773224 435.718333 365.463814 428.285 377.217446 434.001667 380.832667 445.101667 363.281354"></polygon>
                <polygon id="Fill-66" fill="#FEFEFE" points="279.976667 57.7918832 283.11 34.1346795 291.551667 35.2592296 292.426667 28.6285486 268.751667 25.4881381 267.868333 32.1188191 276.31 33.2350393 273.176667 56.8922431"></polygon>
                <polygon id="Fill-68" fill="#FEFEFE" points="445.2775 328.965914 461.860833 328.191224 464.685833 321.135712 430.885833 322.668433 430.510833 323.593063 453.935833 348.008297 456.735833 341.002766"></polygon>
                <polygon id="Fill-70" fill="#FEFEFE" points="347.814167 64.7882514 342.389167 44.2381381 342.355833 44.0881981 341.4725 43.621718 327.180833 70.9774424 333.2225 74.1345129 339.805833 61.5312208 342.9225 73.2015527 343.714167 73.6180528 355.064167 69.4863721 348.480833 82.0896641 354.580833 85.2717246 368.864167 57.9243303 367.939167 57.4411902"></polygon>
                <polygon id="Fill-72" fill="#FEFEFE" points="44.3091667 295.014494 31.8925 312.265927 31.8008333 312.390877 32.0091667 313.373817 62.2091667 307.001366 60.8008333 300.320705 46.8841667 303.261196 53.9175 293.431794 53.7341667 292.565474 43.3258333 286.426263 57.2425 283.494102 55.8175 276.763461 25.6175 283.144242 25.8425 284.168832"></polygon>
                <polygon id="Fill-74" fill="#FEFEFE" points="456.76 209.872718 469.66 199.052046 469.41 198.019126 452.968333 194.154005 466.11 185.465814 464.41 178.401973 437.076667 196.553045 437.335 197.610956 455.735 201.884246 441.293333 214.004398 441.551667 215.070638 474.143333 218.752499 472.443333 211.721978"></polygon>
                <path d="M438.525833,157.777722 L436.5925,153.845962 L444.234167,150.080801 L446.175833,154.012562 C447.559167,156.828102 446.909167,158.777322 444.4175,160.001833 C441.900833,161.243003 439.909167,160.593263 438.525833,157.777722 M437.209167,164.833233 C439.825833,167.607124 444.134167,167.981974 447.950833,166.107724 C453.6675,163.283853 455.4675,157.627782 452.284167,151.188691 L447.2425,140.95945 L419.834167,154.454052 L422.8675,160.609923 L435.550833,154.362422 L426.884167,168.756664 L430.4925,176.087065 C430.4925,176.087065 436.7675,165.532953 437.209167,164.833233" id="Fill-76" fill="#FEFEFE"></path>
                <path d="M383.3025,99.4185659 L378.835833,95.5367853 L382.460833,91.3551246 L386.669167,95.0119952 C388.4025,96.5113954 388.810833,98.2940157 387.710833,99.5601759 C386.610833,100.809676 384.844167,100.759696 383.3025,99.4185659 L383.3025,99.4185659 Z M389.985833,82.7002532 L393.794167,86.0072638 C395.394167,87.398374 395.635833,88.6978542 394.5275,89.9723444 C393.160833,91.5383846 391.460833,90.6387445 390.269167,89.6058243 L386.685833,86.4987338 L389.985833,82.7002532 Z M395.110833,97.3277356 C396.835833,96.8695855 398.4275,95.8866453 399.6775,94.4455551 C401.6025,92.2297748 402.385833,89.5141943 401.885833,86.7986139 C401.4775,84.5911635 400.260833,82.5919632 398.269167,80.8593229 L394.460833,77.5523124 L389.319167,73.0791017 L384.835833,78.2270425 L381.785833,81.7423031 L381.544167,82.0171931 L377.310833,86.8819139 L377.060833,87.1734639 L373.685833,91.0635746 L369.210833,96.2115154 L374.3525,100.684726 L378.8275,104.566507 C380.785833,106.265827 383.0775,107.198787 385.469167,107.273757 C388.294167,107.365387 390.985833,106.182527 392.860833,104.025057 C394.494167,102.142476 395.2775,99.768426 395.110833,97.3277356 L395.110833,97.3277356 Z" id="Fill-78" fill="#FEFEFE"></path>
                <path d="M390.484167,384.331267 C391.734167,383.081767 393.259167,381.990537 395.0175,381.140877 C398.359167,379.516527 403.259167,379.483207 403.800833,379.483207 L403.784167,386.413768 C402.334167,386.413768 399.484167,386.671998 398.0425,387.380048 C395.8925,388.421298 394.350833,390.003998 393.925833,391.603359 C393.6425,392.669599 394.0425,393.527589 394.5175,393.977409 C395.0175,394.443889 395.659167,394.552179 396.434167,394.302279 C397.025833,394.110689 398.1425,393.552579 399.234167,393.027789 C401.725833,391.803279 404.550833,390.412168 406.9425,390.162268 C409.550833,389.887378 411.984167,390.695389 413.784167,392.428029 C415.925833,394.485539 416.750833,397.40937 416.625833,399.39191 C416.4925,401.49107 415.509167,405.472811 410.4425,408.596561 C407.484167,410.420832 403.325833,410.978942 402.850833,411.037252 L401.9925,404.156671 C403.184167,404.006731 405.475833,403.348661 406.809167,402.69892 C410.409167,400.94129 410.475833,396.89291 407.659167,397.05118 C406.500833,397.12615 403.9675,398.4173 402.2925,399.24197 C400.875833,399.94169 399.6425,400.54145 398.5925,400.89131 C395.409167,401.93256 392.109167,401.22451 389.759167,399.01706 C387.309167,396.701319 386.3425,393.186059 387.225833,389.829068 C387.759167,387.821538 388.884167,385.938958 390.484167,384.331267" id="Fill-80" fill="#FEFEFE"></path>
                <polygon id="Fill-82" fill="#FEFEFE" points="212.31 43.748334 221.651667 57.4678462 229.143333 56.176696 210.135 28.1962215 209.16 28.3544915 200.626667 61.0997268 208.06 59.8085766"></polygon>
            </g>
        </g>
    </g>
</svg>