<?xml version="1.0" encoding="UTF-8" standalone="no"?>
<svg width="500px" height="500px" viewBox="0 0 500 500" version="1.1" xmlns="http://www.w3.org/2000/svg" xmlns:xlink="http://www.w3.org/1999/xlink">
    <!-- Generator: Sketch 39.1 (31720) - http://www.bohemiancoding.com/sketch -->
    <title>NO</title>
    <desc>Created with Sketch.</desc>
    <defs>
        <polygon id="path-1" points="0.0503355705 374 499.693792 374 499.693792 0.833533632 0.0503355705 0.833533632"></polygon>
    </defs>
    <g id="NBA" stroke="none" stroke-width="1" fill="none" fill-rule="evenodd">
        <g id="NO">
            <g id="NOPelicans_Global_pms" transform="translate(0.000000, 63.000000)">
                <g id="Group-3">
                    <mask id="mask-2" fill="white">
                        <use xlink:href="#path-1"></use>
                    </mask>
                    <g id="Clip-2"></g>
                    <path d="M205.441275,29.5426457 C205.799497,29.6969417 206.152685,29.8772332 206.505872,30.0441076 C194.729866,30.9438879 183.200503,32.3266816 172.060403,34.0054888 C178.408557,29.0579552 190.223993,23.0253184 205.441275,29.5426457 L205.441275,29.5426457 Z M327.555369,33.8729955 C316.447148,32.2226996 304.956376,30.8885426 293.228188,30.0231435 C293.567953,29.8638161 293.90604,29.6910717 294.25,29.5426457 C309.530201,22.99513 321.223993,28.9153991 327.555369,33.8729955 L327.555369,33.8729955 Z M497.249161,143.521242 L498.766779,144.133395 L498.766779,115.900587 C498.766779,111.466256 497.996644,107.047018 496.479866,102.756081 C494.949664,98.4349552 492.743289,94.3494664 489.911913,90.6052735 C487.363255,87.2443049 484.381711,84.2120538 481.053691,81.5957309 C478.100671,79.2770987 474.901846,77.3098251 471.530201,75.7450628 C469.33557,74.3144709 465.032718,72.2448924 453.440436,67.6487175 C443.61745,63.7527444 427.608221,57.8257668 407.119128,51.7176592 C388.305369,46.1093363 364.16443,39.9341435 337.322987,35.420148 C337.32047,35.4151166 337.32047,35.4117623 337.315436,35.4067309 C337.139262,35.1786413 319.138423,12.6673632 291.999161,24.2915516 C291.079698,24.6865157 290.17953,25.1250852 289.27349,25.5686861 C285.217282,27.5544081 281.711409,29.268435 274.831376,27.4261076 C270.770134,26.3401659 265.619966,23.8487892 267.739933,14.7830628 C268.214765,12.7537354 269.802013,10.0552332 272.280201,8.60786996 C273.996644,7.60662332 275.861577,7.38775785 277.837248,7.96217489 C281.477349,9.02379821 282.991611,10.9885561 282.463926,13.9696547 C282.260906,15.1193274 281.399329,16.2237175 280.372483,16.6555785 C279.283557,17.1151121 278.035235,16.862704 276.645973,15.914287 C275.34396,15.0287623 273.567953,15.3599955 272.674497,16.6639641 C271.786913,17.9670942 272.119966,19.744852 273.425336,20.6337309 C276.430369,22.6831839 279.687919,23.1402018 282.589765,21.9226054 C285.392617,20.7427444 287.556208,18.0123767 288.093121,14.96587 C288.487416,12.7436726 289.027685,5.2720583 279.433725,2.47628251 C275.953859,1.46497309 272.478188,1.87503139 269.397651,3.67626906 C265.92953,5.69972646 263.093121,9.54957848 262.173658,13.4816099 C262.146812,13.5914619 262.135067,13.6979596 262.108221,13.8086502 C260.915268,12.1692556 259.821309,10.9659148 259.215604,10.3554395 L249.841443,0.833533632 L240.465604,10.3587937 C239.855705,10.9759776 238.770973,12.1768027 237.58557,13.8094888 C237.561242,13.7004753 237.546141,13.5939776 237.520134,13.4816099 C236.597315,9.54957848 233.761745,5.69972646 230.293624,3.67626906 C227.214765,1.87754709 223.74245,1.4599417 220.25755,2.47628251 C210.666107,5.2720583 211.203859,12.7436726 211.598154,14.9667085 C212.137584,18.0123767 214.298658,20.7427444 217.104027,21.9226054 C220.005872,23.1418789 223.260067,22.684861 226.268456,20.6337309 C227.571309,19.744852 227.905201,17.9670942 227.016779,16.6639641 C226.128356,15.3625112 224.352349,15.0262466 223.045302,15.914287 C221.65604,16.8610269 220.402685,17.1117578 219.32047,16.6555785 C218.291946,16.2237175 217.430369,15.1193274 217.227349,13.9713318 C216.699664,10.9885561 218.214765,9.02379821 221.857383,7.96217489 C223.824664,7.38691928 225.692953,7.60662332 227.411074,8.60786996 C229.889262,10.0552332 231.47651,12.7537354 231.951342,14.7830628 C234.071309,23.8487892 228.921141,26.3401659 224.860738,27.4261076 C217.972315,29.2659193 214.473154,27.5535695 210.419463,25.5686861 C209.511745,25.1250852 208.611577,24.6865157 207.692114,24.2915516 C180.562081,12.6740717 162.55453,35.1786413 162.375,35.4067309 C162.333893,35.458722 162.310403,35.516583 162.270973,35.5702511 C136.463087,39.9567848 113.219799,45.828417 94.9874161,51.1784619 C60.0041946,61.4399821 31.8657718,74.2381614 30.6845638,74.7798744 L26.9823826,76.4720987 L26.9865772,77.1043767 C25.3699664,77.3668475 23.7197987,77.8850807 22.0637584,78.6532063 C16.0721477,81.435565 10.1233221,84.33113 4.36828859,87.2644305 L0,89.5000448 L0,104.87765 C0,108.576561 0.733221477,111.616359 2.20469799,114.116121 C2.50251678,114.631839 2.82466443,115.120722 3.16778523,115.586964 L3.16778523,132.570422 C1.21979866,136.302874 0.196308725,140.201363 0.196308725,143.939686 C0.196308725,147.657045 1.2340604,150.966022 3.16778523,153.549641 L3.16778523,188.983206 L3.54026846,190.012964 C3.82634228,190.809601 9.4647651,205.879453 26.2416107,211.995108 L25.761745,212.224036 C25.761745,212.224036 34.6266779,226.593686 48.4001678,229.576462 L45.7667785,230.664919 C45.7667785,230.664919 55.4714765,246.348601 74.295302,249.666803 L71.5218121,251.021085 C71.5218121,251.021085 83.6560403,264.091798 102.528523,266.511058 C122.518456,328.787928 180.990772,374 249.849832,374 C318.707215,374 377.172819,328.787928 397.162752,266.511058 C416.037752,264.091798 428.169463,251.021085 428.169463,251.021085 L425.395973,249.666803 C444.222315,246.348601 453.924497,230.664919 453.924497,230.664919 L451.291107,229.576462 C465.063758,226.593686 473.92953,212.224036 473.92953,212.224036 L474.817114,211.052561 C490.51594,204.354103 499.693792,189.022619 499.693792,174.554857 L499.693792,156.463655 C499.693792,152.064543 498.662752,147.589121 497.249161,143.521242 L497.249161,143.521242 Z" id="Fill-1" fill="#AB9157" mask="url(#mask-2)"></path>
                </g>
                <path d="M484.19547,131.466031 L492.467282,134.806036 L492.467282,115.900587 C492.467282,112.172327 491.818792,108.463354 490.545302,104.857525 C489.223993,101.130942 487.322148,97.6207085 484.891779,94.4073274 C482.663591,91.4664798 480.061242,88.8241614 477.159396,86.5441031 C474.461409,84.4225336 471.52349,82.640583 468.425336,81.2468879 C466.799497,80.0728969 462.504195,78.0142197 451.116611,73.4985471 C441.411913,69.6486951 425.584732,63.7913184 405.318792,57.7486188 C371.936242,47.7965291 321.686242,36.0222377 269.322148,35.2759148 C268.088926,31.6457668 265.102349,28.9313318 261.157718,28.0122646 C260.692114,21.1569955 255.760067,15.8111435 254.729866,14.7696457 L249.841443,9.80701794 L244.953859,14.7696457 C243.931208,15.8111435 238.995805,21.1569955 238.534396,28.0122646 C234.598993,28.9263004 231.619966,31.6248027 230.378356,35.2365022 C178.84396,36.1413139 129.575503,47.5910807 96.7634228,57.2169686 C61.8095638,67.4717803 33.3028523,80.5030807 33.3028523,80.5030807 L33.3271812,84.3470628 C33.3271812,84.3470628 32.8531879,84.0443408 32.5939597,83.9202332 C31.6426174,83.4447668 30.5830537,83.1999058 29.4261745,83.1999058 C27.966443,83.1999058 26.3842282,83.5881614 24.716443,84.3613184 C18.8699664,87.0782691 12.9790268,89.94113 7.23825503,92.8668834 L6.29949664,93.3490583 L6.29949664,104.87765 C6.29949664,107.423534 6.74496644,109.420157 7.66442953,110.978211 C8.16275168,111.84361 8.76845638,112.573161 9.4647651,113.160996 L9.4647651,134.208978 C7.54362416,137.402233 6.49328859,140.838673 6.49328859,143.939686 C6.49328859,147.0407 7.5385906,149.53543 9.4647651,151.074197 L9.4647651,187.886363 C9.4647651,187.886363 14.9832215,203.192691 32.5025168,207.261408 C32.9110738,207.372099 33.3473154,207.450924 33.7684564,207.542327 C33.8020134,207.551552 33.8355705,207.557422 33.8699664,207.56413 C36.635906,208.175444 39.6434564,208.472296 42.9521812,208.229112 L42.9639262,208.229112 C39.8615772,209.747753 36.7692953,211.301614 33.6828859,212.887341 C33.7340604,213.077695 42.9186242,228.180251 65.0964765,225.999143 C61.4102349,227.745874 57.727349,229.523632 54.0654362,231.364283 C54.1090604,231.575601 64.7114094,246.42491 88.0805369,246.035816 C82.6904362,248.749413 79.4404362,250.486081 79.4597315,250.479372 C79.4714765,250.569099 89.9966443,260.743408 107.697148,261.989516 C126.017617,323.136839 182.711409,367.705731 249.849832,367.705731 C316.977349,367.705731 373.673658,323.136839 391.994128,261.989516 C409.692114,260.743408 420.216443,250.569099 420.22651,250.479372 C420.249161,250.486081 416.998322,248.749413 411.611577,246.035816 C434.977349,246.42491 445.579698,231.575601 445.623322,231.364283 C441.963926,229.523632 438.283557,227.745874 434.592282,225.999143 C456.77349,228.180251 465.957215,213.077695 466.005872,212.887341 C462.922819,211.301614 459.828859,209.747753 456.722315,208.229112 C464.282718,208.785919 470.427013,206.702924 475.153523,203.876121 C486.96896,197.480386 493.396812,185.166058 493.396812,174.554857 L493.396812,156.463655 C493.396812,144.86043 484.19547,131.466031 484.19547,131.466031" id="Fill-4" fill="#002344"></path>
                <path d="M348.620805,274.629206 C351.401007,276.739036 354.177013,278.863121 356.952181,281.015717 C356.996644,280.727251 323.953859,290.052933 300.450503,279.70504 C299.588087,279.326848 298.768456,278.891632 297.941275,278.470673 C292.109899,299.554713 272.766779,315.090807 249.844799,315.090807 C226.927013,315.090807 207.580537,299.559744 201.748322,278.470673 C200.920302,278.896664 200.102349,279.326848 199.240772,279.70504 C175.736577,290.052933 142.692114,280.727251 142.740772,281.015717 C145.511745,278.863121 148.292785,276.739036 151.073826,274.629206 C139.589765,276.288726 129.057047,274.223341 121.69547,271.92735 C142.396812,322.328462 191.961409,357.829112 249.848154,357.829112 C307.725671,357.829112 357.294463,322.328462 377.997483,271.92735 C370.633389,274.223341 360.10151,276.288726 348.620805,274.629206" id="Fill-5" fill="#D12138"></path>
                <path d="M236.07047,49.6212466 C233.553691,48.3541749 231.626678,46.1965471 230.591443,43.5559058 C147.489094,45.7126951 64.7088926,75.5362601 64.864094,76.6289103 C61.260906,77.98487 59.3003356,81.1311659 59.3003356,83.1948744 L59.3003356,86.149139 C116.53104,63.934713 176.215604,52.2124126 236.084732,50.7340224 L236.07047,49.6212466" id="Fill-6" fill="#FFFFFF"></path>
                <path d="M440.008389,78.7228072 C440.197987,77.5429462 353.218121,45.6908924 269.095638,43.5684843 C268.058725,46.1965471 266.147651,48.3415964 263.645134,49.6044753 L263.645134,50.7575022 C325.282718,52.475722 386.746644,65.0391031 445.560403,88.26987 L445.560403,85.3189596 C445.560403,83.253574 443.609899,80.1005695 440.008389,78.7228072" id="Fill-7" fill="#FFFFFF"></path>
                <path d="M258.959732,34.5748744 C253.572987,33.924148 252.687081,41.5827623 252.541107,44.1739283 L250.822987,44.1739283 C250.852349,36.864157 254.332215,33.9316951 254.332215,29.0353139 C254.332215,24.1330628 249.844799,19.5813318 249.844799,19.5813318 C249.844799,19.5813318 245.35906,24.1330628 245.35906,29.0353139 C245.35906,33.9316951 248.84396,36.864157 248.860738,44.1739283 L247.150168,44.1739283 C247.009228,41.5827623 246.113255,33.924148 240.731544,34.5748744 C234.913591,35.2750762 235.542785,43.332009 240.731544,43.9676413 C240.731544,43.9676413 239.749161,40.3852915 242.628356,40.3852915 C244.714765,40.3852915 245.288591,42.8380942 245.440436,44.1739283 L242.902685,44.1739283 L242.902685,46.9747354 L248.5,46.9747354 C247.715604,49.6698834 245.920302,50.4858072 245.920302,50.4858072 C245.920302,50.4858072 246.689597,52.024574 248.369966,52.2316996 C248.369966,52.2316996 248.369966,54.1285336 249.844799,55.5951839 C251.317114,54.1285336 251.317114,52.2316996 251.317114,52.2316996 C253.004195,52.024574 253.770973,50.4858072 253.770973,50.4858072 C253.770973,50.4858072 251.970638,49.6698834 251.186242,46.9747354 L256.786913,46.9747354 L256.786913,44.1739283 L254.252517,44.1739283 C254.405201,42.8380942 254.971477,40.3852915 257.069631,40.3852915 C259.935403,40.3852915 258.959732,43.9676413 258.959732,43.9676413 C264.143456,43.332009 264.775168,35.2750762 258.959732,34.5748744" id="Fill-8" fill="#D12138"></path>
                <path d="M222.435403,118.277081 C222.435403,119.595305 222.197987,120.705565 221.729027,121.617924 C221.247483,122.522735 220.644295,123.27996 219.903523,123.887081 C219.158557,124.486655 218.330537,124.946188 217.416107,125.258973 C216.51594,125.579305 215.581376,125.767982 214.63255,125.832552 C213.683725,125.891251 212.74245,125.830036 211.801174,125.62878 C210.859899,125.442619 210.012584,125.087906 209.275168,124.586444 C208.529362,124.086659 207.92198,123.411614 207.454698,122.558794 C206.980705,121.714359 206.743289,120.631771 206.743289,119.318578 L206.743289,74.3974888 C206.743289,73.0851345 206.980705,71.9614574 207.454698,71.0373587 C207.92198,70.1182915 208.529362,69.344296 209.275168,68.7296278 C210.012584,68.119991 210.859899,67.6394933 211.801174,67.3116143 C212.74245,66.9854126 213.683725,66.7866726 214.63255,66.7221031 C215.581376,66.6592108 216.51594,66.7296502 217.416107,66.9392915 C218.330537,67.1455785 219.158557,67.5120314 219.903523,68.0260717 C220.644295,68.5459821 221.247483,69.2302511 221.729027,70.0956502 C222.197987,70.9627265 222.435403,72.0478296 222.435403,73.3551525 L222.435403,118.277081 L222.435403,118.277081 Z M232.363255,90.5054843 L232.363255,72.5484529 C232.363255,70.0495291 231.905201,67.881 230.993289,66.0369955 C230.08557,64.1963453 228.829698,62.7112466 227.246644,61.5590583 C225.658557,60.4102242 223.78104,59.5926233 221.622483,59.1163184 C219.453859,58.6416906 217.127517,58.479009 214.63255,58.646722 C212.140101,58.8094036 209.812081,59.2806771 207.651007,60.0412556 C205.496644,60.8026726 203.611577,61.8726816 201.99245,63.2336726 C200.378356,64.5929865 199.114933,66.2550224 198.200503,68.2139103 C197.295302,70.1761525 196.838087,72.4042197 196.838087,74.9006278 L196.838087,92.8710762 C194.937919,93.3465426 193.47651,95.0941121 193.47651,97.0219731 C193.47651,98.9548655 194.937919,100.377072 196.838087,100.472668 L196.838087,120.60913 C196.83557,123.108054 197.295302,125.241363 198.200503,127.01996 C199.114933,128.805265 200.378356,130.244242 201.99245,131.351148 C203.611577,132.455538 205.496644,133.204377 207.651007,133.624498 C209.812081,134.047135 212.140101,134.170404 214.63255,134.007722 C217.127517,133.840009 219.453859,133.407309 221.622483,132.703753 C223.78104,131.99852 225.658557,130.998112 227.246644,129.676534 C228.829698,128.365018 230.08557,126.757489 230.993289,124.85143 C231.905201,122.952081 232.363255,120.756717 232.363255,118.252762 L232.363255,98.1406188 C234.357383,97.8664081 235.903523,96.2052108 235.903523,94.2161345 C235.903523,92.229574 234.357383,90.6455247 232.363255,90.5054843 L232.363255,90.5054843 Z" id="Fill-9" fill="#FFFFFF"></path>
                <path d="M42.010906,138.89404 C42.010906,139.08104 41.9672819,139.137224 41.8657718,139.047498 C41.7734899,138.957771 41.6912752,138.863852 41.6283557,138.754 C41.3598993,137.962395 29.5394295,98.7276143 28.9278523,96.956565 C28.2936242,95.1469417 27.9857383,94.1691749 27.9857383,94.0425516 C27.8045302,93.4656188 27.5142617,93.0849103 27.1417785,92.9071345 C26.7592282,92.7109103 26.192953,92.7922511 25.442953,93.1402556 C21.9001678,94.7888744 18.3691275,96.4769058 14.852349,98.2035112 L14.852349,101.458821 C14.852349,102.574951 15.0025168,103.401776 15.3145973,103.938457 C15.6266779,104.4743 16.0041946,104.832368 16.4395973,105.014336 C16.8733221,105.262552 17.4010067,105.365695 18.0276846,105.319574 L18.0276846,135.276471 C16.3238255,136.431175 15.0385906,138.632408 15.0385906,140.521695 C15.0385906,142.410143 16.3238255,143.340951 18.0276846,142.851229 L18.0276846,185.089749 C20.7743289,183.764816 23.5285235,182.462525 26.2944631,181.180359 L26.2944631,128.200659 C26.2944631,127.810726 26.3238255,127.624565 26.3842282,127.663139 C26.4496644,127.700874 26.5075503,127.768798 26.5780201,127.875296 C26.5780201,127.933996 26.8850671,128.865641 27.5142617,130.640883 C28.1291946,132.373359 39.6803691,170.93561 39.8229866,171.246717 C40.1350671,172.225323 40.4714765,173.002673 40.8204698,173.57709 C41.1686242,174.150668 41.7541946,174.259682 42.5771812,173.91587 C44.4261745,173.134327 46.2651007,172.364525 48.1124161,171.606462 C48.8741611,171.299547 49.4505034,170.813179 49.8322148,170.118009 C50.2197987,169.442126 50.4110738,168.780498 50.4110738,168.113839 L50.4110738,128.41617 C51.977349,127.32352 53.1266779,125.395659 53.1266779,123.638865 C53.1266779,121.870332 51.977349,120.865731 50.4110738,121.032605 L50.4110738,91.6761211 C50.4765101,91.0589372 50.5830537,90.5826323 50.7449664,90.2581076 C50.9043624,89.9344215 51.1149329,89.5847399 51.3691275,89.2166099 C51.875,88.6212287 52.3884228,87.8556188 52.9018456,86.9348744 C53.4119128,86.0040673 53.6661074,84.9860493 53.6661074,83.8682422 L53.6661074,81.0137668 C49.7701342,82.5835605 45.8783557,84.2120538 42.010906,85.8799596 L42.010906,138.89404" id="Fill-10" fill="#FFFFFF"></path>
                <path d="M434.09396,139.597596 C434.09396,139.801368 434.040268,139.807238 433.943792,139.643717 C433.847315,139.473489 433.765101,139.309969 433.707215,139.161543 C433.44547,138.21061 432.932886,136.31126 432.157718,133.470202 C431.388423,130.624112 430.497483,127.333583 429.495805,123.593583 C428.494128,119.84939 427.433725,115.930776 426.301174,111.817614 C425.168624,107.715354 424.118289,103.933426 423.150168,100.476861 C422.174497,97.0236502 421.359899,94.1415022 420.715604,91.8161614 C420.067114,89.4975291 419.737416,88.26987 419.737416,88.1390538 C419.553691,87.4178879 419.254195,86.8074126 418.861577,86.3176906 C418.471477,85.8246143 417.893456,85.4556457 417.114094,85.1956906 C413.44547,83.9806099 409.766779,82.8091345 406.076342,81.6753946 L406.076342,84.9315426 C406.076342,86.0468341 406.233221,86.9986054 406.560403,87.7826637 C406.891779,88.5793004 407.28104,89.2409283 407.738255,89.7776099 C408.193792,90.3780224 408.75,90.9121883 409.401846,91.3733991 L409.401846,114.68383 C407.625839,114.459933 406.271812,115.616314 406.271812,117.499731 C406.271812,119.389018 407.625839,121.369709 409.401846,122.261942 L409.401846,156.461978 C412.271812,157.365112 415.135067,158.289211 417.988255,159.236789 L417.988255,112.278825 C417.988255,111.886377 418.021812,111.733758 418.087248,111.817614 C418.154362,111.906502 418.218121,112.023901 418.28104,112.177359 C418.28104,112.25283 418.603188,113.415081 419.254195,115.707717 C419.901846,117.990291 420.715604,120.84896 421.692953,124.264435 C422.661913,127.680749 423.709732,131.395592 424.84396,135.393031 C425.974832,139.398018 427.046141,143.178269 428.043624,146.719529 C429.045302,150.259951 429.897651,153.28717 430.60906,155.807058 C431.32047,158.33617 431.739094,159.781018 431.86745,160.158372 C432.184564,161.39274 432.532718,162.433399 432.879195,163.287897 C433.237416,164.141556 433.830537,164.714296 434.667785,165.026242 C436.536074,165.71722 438.396812,166.421614 440.260067,167.123493 C441.027685,167.425377 441.610738,167.386803 441.989094,167.00861 C442.375839,166.62874 442.567114,166.117215 442.567114,165.457265 L442.567114,133.788018 C444.137584,133.938121 445.28943,132.926812 445.28943,131.163309 C445.28943,129.402323 444.137584,127.477816 442.567114,126.405291 L442.567114,103.692758 C442.629195,103.125049 442.738255,102.745179 442.907718,102.542247 C443.062919,102.342668 443.270973,102.162377 443.527685,101.992148 C444.040268,101.805987 444.553691,101.445404 445.067114,100.92717 C445.574664,100.406422 445.836409,99.5888206 445.836409,98.4710135 L445.836409,95.614861 C441.934564,94.1020897 438.019295,92.6337623 434.09396,91.2191031 L434.09396,139.597596" id="Fill-11" fill="#FFFFFF"></path>
                <path d="M483.072148,147.02896 C481.885906,144.419345 480.42198,141.872623 478.67198,139.394664 C477.215604,137.331794 475.604027,135.336009 473.895134,133.379637 C473.975671,133.107103 474.03104,132.810251 474.03104,132.475664 C474.03104,130.343193 472.375,127.846785 470.333054,126.919332 C469.444631,126.515143 468.638423,126.498372 467.999161,126.760004 C467.699664,126.422063 467.375,126.058126 467.080537,125.735278 C465.317953,123.723561 463.832215,121.877879 462.631711,120.172238 C461.42198,118.465758 460.824664,116.968919 460.824664,115.643148 L460.824664,100.008942 C460.828859,99.2827444 461.048658,98.7368386 461.489933,98.3703857 C461.932886,98.0081256 462.504195,97.7800359 463.20302,97.6877937 C463.895134,97.600583 464.620805,97.6207085 465.380872,97.7573946 C466.134228,97.897435 466.862416,98.1179776 467.552013,98.4341166 C468.183725,98.7141973 468.900168,99.1192242 469.681208,99.6357803 C470.465604,100.162399 471.192114,100.753587 471.852349,101.411022 C472.510906,102.077682 473.060403,102.812265 473.498322,103.600516 C473.941275,104.394637 474.15604,105.191274 474.15604,105.9703 L474.15604,109.623928 C474.15604,111.195399 474.693792,112.761 475.763423,114.308991 C476.826342,115.860336 478.135906,117.000785 479.703859,117.748785 C481.106544,118.420475 482.508389,119.098874 483.909396,119.787336 L483.909396,112.490982 C483.91443,109.997928 483.512584,107.613888 482.694631,105.352278 C481.885906,103.085637 480.744128,100.990063 479.282718,99.0823274 C477.806208,97.1662063 476.093121,95.4320538 474.115772,93.8832242 C472.133389,92.3511659 469.979866,91.0480359 467.649329,90.0015067 C465.317953,88.9608475 463.17198,88.2950269 461.203859,87.9990135 C459.244128,87.7180942 457.525168,87.8715516 456.068792,88.4769955 C454.604866,89.0765695 453.457215,90.1449013 452.634228,91.6794753 C451.80453,93.2123722 451.383389,95.2861435 451.383389,97.9209148 L451.383389,110.789534 C451.383389,113.555121 451.979027,116.143771 453.156879,118.566386 C454.331376,120.990677 455.817114,123.299247 457.595638,125.492094 C459.330537,127.643852 461.203859,129.740265 463.20302,131.815713 C462.989933,132.202291 462.871644,132.679435 462.871644,133.246305 C462.871644,135.380453 464.538591,137.829063 466.586409,138.74226 C467.728188,139.247076 468.734899,139.156511 469.410235,138.615637 C471.020134,140.521695 472.369966,142.454587 473.457215,144.392511 C474.620805,146.468798 475.190436,148.595399 475.197148,150.763928 L475.197148,169.238354 C475.190436,170.095368 474.959732,170.746933 474.490772,171.217368 C474.010906,171.697865 473.40604,172.003942 472.653523,172.149013 C471.901007,172.297439 471.080537,172.310857 470.197987,172.211906 C469.316275,172.107924 468.466443,171.867256 467.649329,171.498287 C466.828859,171.129318 465.981544,170.618632 465.090604,169.97126 C464.207215,169.317179 463.401846,168.603561 462.680369,167.823695 C461.949664,167.0497 461.354866,166.235453 460.872483,165.365022 C460.393456,164.509686 460.15604,163.651834 460.15604,162.790628 L460.15604,158.55839 C460.15604,157.05065 459.732383,155.70643 458.875839,154.517345 C458.014262,153.329937 456.731544,152.373135 455.02349,151.662031 C453.489094,151.026399 451.963926,150.38909 450.434564,149.76939 L450.434564,157.157987 C450.434564,159.65691 450.899329,162.019148 451.821309,164.272372 C452.745805,166.520565 453.984899,168.576726 455.546141,170.445888 C457.104027,172.310857 458.924497,173.989664 461.020134,175.481471 C463.105705,176.972439 465.317953,178.241188 467.649329,179.28017 C469.979866,180.331731 472.187081,181.041157 474.248322,181.409287 C476.324664,181.77574 478.140101,181.738843 479.703859,181.26757 C481.261745,180.802166 482.508389,179.859619 483.449664,178.44496 C484.381711,177.029462 484.853188,175.080637 484.853188,172.584229 L484.853188,154.891345 C484.853188,152.269152 484.25755,149.641928 483.072148,147.02896" id="Fill-12" fill="#FFFFFF"></path>
                <path d="M150.378356,104.4743 C149.986577,107.961892 149.584732,111.391623 149.178691,114.745045 C148.776846,118.113561 148.413591,121.107238 148.079698,123.732785 C147.748322,126.361686 147.48406,128.478224 147.28104,130.090785 C147.082215,131.705022 146.942114,132.516753 146.879195,132.535202 C146.08557,127.900453 145.359899,123.742009 144.730705,120.056516 C144.10151,116.374377 143.404362,112.266247 142.644295,107.728771 C141.871644,103.191296 141.095638,98.7158744 140.28943,94.3259865 C139.495805,89.9260359 138.744966,85.8531256 138.055369,82.0862915 C137.348993,78.3404215 136.741611,75.3677085 136.203859,73.1790538 C136.071309,72.4939462 135.461409,72.0268655 134.36745,71.8163857 C133.268456,71.5975202 132.160235,71.6184843 131.036913,71.8767623 C130.037752,72.1014978 128.994966,72.5274888 127.901007,73.1396413 C126.807047,73.7635336 126.160235,74.5283049 125.969799,75.4247309 C125.432047,77.7198834 124.827181,80.9013991 124.130034,84.9826951 C123.437919,89.0597982 122.690436,93.474843 121.896812,98.2353767 C121.109899,102.998426 120.32802,107.831915 119.575503,112.753453 C118.808725,117.673314 118.123322,122.136996 117.494128,126.135274 C116.869966,130.13439 116.153523,134.674381 115.369966,139.736798 C115.306208,139.755247 115.156879,139.011439 114.923658,137.494475 C114.691275,135.976673 114.435403,133.980888 114.130034,131.492027 C113.834732,129.011552 113.489094,126.177202 113.097315,122.998202 C112.699664,119.818363 112.305369,116.581502 111.908557,113.270848 C110.979027,105.499865 107.78943,77.5303677 107.78943,77.5379148 C103.776846,78.6515291 99.7642617,79.8129417 95.7760067,81.022991 L95.7760067,83.9772556 C95.7760067,85.0959013 96.0083893,85.9478834 96.4588926,86.5340404 C96.9161074,87.1151659 97.4043624,87.4992287 97.9345638,87.6610717 C98.2541946,87.832139 98.5545302,88.0401031 98.8137584,88.2866413 C99.0721477,88.5432422 99.2751678,88.9096951 99.4060403,89.4036099 C100.349832,97.3255336 101.221477,104.627758 102.030201,111.371498 C100.633389,112.349265 99.6484899,114.018848 99.6484899,115.633085 C99.6484899,117.555076 101.05453,118.729906 102.895973,118.490076 C102.910235,118.623408 102.927013,118.766803 102.944631,118.905166 C103.399329,122.655229 103.839765,126.300471 104.272651,129.853471 C104.691275,133.418211 105.088926,136.600565 105.449664,139.427368 C105.809564,142.246623 106.105705,144.545969 106.333054,146.311987 C106.569631,148.089744 106.683725,149.048224 106.683725,149.175686 C106.749161,149.683018 106.962248,150.136682 107.319631,150.525776 C107.682886,150.918224 108.193792,151.030592 108.849832,150.846946 C112.567114,149.827251 116.286913,148.846969 120.020973,147.909453 C120.741611,147.726646 121.308725,147.390381 121.700503,146.894789 C122.097315,146.402552 122.46057,145.685578 122.794463,144.753933 C125.606544,128.076552 128.418624,111.413426 131.230705,94.7804888 C133.984899,110.143839 136.73406,125.530668 139.495805,140.9393 C139.824664,141.724197 140.187919,142.267587 140.59396,142.584565 C140.989094,142.888964 141.55453,142.971143 142.288591,142.82104 C146.012584,142.052915 149.744966,141.330072 153.48406,140.645803 C154.146812,140.518341 154.661913,140.177883 155.032718,139.621076 C155.397651,139.060915 155.615772,138.509139 155.683725,137.975812 C155.683725,137.834933 155.80453,136.834525 156.041946,134.948592 C156.264262,133.071045 156.564597,130.640883 156.939597,127.648045 C157.302852,124.663592 157.702181,121.290045 158.142617,117.535789 C158.568792,113.790758 159.028523,109.934197 159.493289,105.9703 C159.50755,105.829422 159.526846,105.675964 159.546141,105.535924 C161.406879,104.907839 162.838087,103.099054 162.838087,101.177901 C162.838087,99.5787578 161.840604,98.3670314 160.417785,98.0274126 C161.244966,90.9163812 162.135906,83.1973901 163.108221,74.8310269 C163.234899,74.2842825 163.437919,73.8255874 163.703859,73.4465561 C163.974832,73.0826188 164.275168,72.7354529 164.614094,72.4142825 C165.144295,72.0042242 165.647651,71.3937489 166.116611,70.6021435 C166.578859,69.8013139 166.821309,68.8445112 166.821309,67.7292197 L166.821309,64.773278 C162.735738,65.4198117 158.665268,66.1216906 154.599832,66.8713677 C154.599832,66.8713677 151.312919,96.2815202 150.378356,104.4743" id="Fill-13" fill="#FFFFFF"></path>
                <path d="M387.197148,122.368439 C386.931208,122.627556 386.562919,122.690448 386.112416,122.571372 C383.015101,121.751256 379.91443,120.957973 376.80453,120.201587 C376.40604,120.101798 376.081376,119.88461 375.815436,119.515641 C375.551174,119.16009 375.457215,118.754224 375.515101,118.313978 C375.515101,118.246054 375.599832,117.710211 375.764262,116.704771 C375.924497,115.690946 376.141779,114.398717 376.40604,112.81383 C376.669463,111.24152 376.969799,109.456215 377.303691,107.465462 C377.637584,105.482256 377.995805,103.455444 378.392617,101.387543 C379.377517,95.917583 380.366611,90.4534933 381.359899,84.9860493 C381.432047,85.0028206 381.497483,85.0279776 381.562919,85.0372018 C382.550336,91.0069462 383.540268,96.9783677 384.525168,102.953143 C384.92198,105.218946 385.287752,107.430242 385.619128,109.590386 C385.950503,111.742143 386.238255,113.67252 386.505034,115.384031 C386.761745,117.098897 387.003356,118.506848 387.197148,119.617108 C387.395134,120.716466 387.49245,121.297592 387.49245,121.360484 C387.560403,121.783121 387.461409,122.110161 387.197148,122.368439 L387.197148,122.368439 Z M397.182047,114.798713 C397.182047,112.880076 395.779362,110.894354 393.943792,110.083462 C393.481544,107.354771 393.019295,104.625242 392.569631,101.965314 C391.944631,98.2437623 391.388423,94.8869865 390.894295,91.8958251 C390.39849,88.9096951 389.989933,86.4510224 389.665268,84.5156143 C389.333893,82.5860762 389.161913,81.4925874 389.161913,81.229278 C389.031879,80.0100045 388.509228,78.8360135 387.588926,77.7081435 C386.674497,76.5718879 385.449664,75.8020852 383.934564,75.4054439 C379.520134,74.2574484 375.091443,73.1715067 370.652685,72.1442646 L370.652685,74.4075516 C370.652685,77.2242915 371.480705,79.1596996 373.133389,80.2070673 C373.467282,80.41587 373.634228,80.7328475 373.634228,81.1613543 C373.634228,81.5923767 373.600671,82.0561031 373.527685,82.5743363 C373.527685,82.640583 373.38255,83.4204484 373.08557,84.9290269 C372.791946,86.4300583 372.385906,88.4032018 371.889262,90.8484574 C371.395973,93.2920359 370.85151,96.0710404 370.256711,99.1821166 C369.965604,100.690695 369.663591,102.212691 369.364933,103.750619 C367.248322,103.299471 365.531879,104.625242 365.531879,106.735072 C365.531879,108.348471 366.538591,109.945099 367.947148,110.841525 C366.05453,120.403682 361.538591,143.772812 361.538591,143.777004 C364.704698,144.452888 367.864933,145.163152 371.020973,145.901928 C371.020973,145.901928 373.765101,129.936489 373.833054,129.628735 C373.963926,128.345731 374.557047,127.833368 375.619128,128.087453 C379.386745,129.009874 383.151007,129.962484 386.896812,130.965408 C387.489933,131.115511 387.985738,131.378821 388.377517,131.747789 C388.775168,132.121789 389.031879,132.716332 389.161913,133.538126 C389.161913,133.860973 391.376678,151.077552 391.376678,151.077552 C394.689597,152.015906 397.994966,152.98361 401.29698,153.989888 C401.299497,153.989888 397.225671,129.645507 395.202181,117.58191 C396.378356,117.253193 397.182047,116.243561 397.182047,114.798713 L397.182047,114.798713 Z" id="Fill-14" fill="#FFFFFF"></path>
                <path d="M265.409396,82.7303094 C265.409396,85.0296547 264.922819,86.8568879 263.940436,88.2069776 C262.957215,89.5620987 261.396812,90.2119865 259.225671,90.172574 C257.096477,90.1390314 254.971477,90.114713 252.842282,90.101296 C252.568792,90.0945874 252.294463,89.9956368 252.028523,89.7977354 C251.752517,89.6040269 251.622483,89.3415561 251.622483,89.0170314 L251.622483,67.9262825 C251.622483,67.0063767 252.163591,66.5510359 253.248322,66.5552287 C255.24245,66.5711614 257.22651,66.6013498 259.225671,66.6323767 C261.396812,66.6650807 262.957215,67.3795381 263.940436,68.7505919 C264.922819,70.1233229 265.409396,71.9581031 265.409396,74.2574484 L265.409396,82.7303094 L265.409396,82.7303094 Z M276.653523,125.045139 C276.326342,124.827951 276.03104,124.640951 275.796141,124.458143 C275.557047,124.289592 275.440436,123.868632 275.440436,123.212036 L275.440436,106.370296 C275.440436,103.940973 275.072987,101.715422 274.327181,99.7154439 C273.586409,97.7062422 272.437081,96.1205157 270.884228,94.9364619 C270.145973,94.1909776 270.07047,93.5293498 270.682886,92.964157 C272.096477,91.9050493 273.243289,90.5281256 274.126678,88.8199686 C275.005034,87.1201973 275.440436,85.2216861 275.440436,83.1210807 L275.440436,75.3341659 C275.440436,72.9065202 275.135906,70.6792915 274.530201,68.6399013 C273.918624,66.6139283 272.962248,64.8453946 271.645973,63.3485561 C270.328859,61.8525561 268.659396,60.6584395 266.624161,59.7645291 C264.59396,58.8790045 262.135067,58.4052152 259.225671,58.3481928 C252.26594,58.2307937 245.300336,58.2416951 238.344799,58.395991 L238.344799,61.2546592 C238.344799,62.6299058 238.592282,63.6739193 239.104866,64.3866996 C239.608221,65.0961256 240.130872,65.617713 240.673658,65.9304978 C240.944631,66.0604753 241.181208,66.2717937 241.38255,66.558583 C241.588087,66.8520807 241.689597,67.2629776 241.689597,67.7937892 L241.689597,90.3251928 C239.894295,90.7226726 238.543624,92.3050448 238.543624,94.1565964 C238.543624,96.0106637 239.894295,97.5225964 241.689597,97.8672466 L241.689597,132.006906 C245.003356,131.97504 248.311242,131.97504 251.622483,131.999359 L251.622483,99.5527623 C251.622483,98.6320179 252.062081,98.1708072 252.943792,98.1708072 C255.036913,98.1909327 257.130034,98.213574 259.225671,98.2529865 C261.396812,98.290722 262.957215,98.9716368 263.940436,100.276444 C264.922819,101.581251 265.409396,103.389197 265.409396,105.683511 L265.409396,127.357063 C265.409396,128.80191 265.830537,129.979256 266.685403,130.894969 C267.527685,131.804812 268.819631,132.288664 270.576342,132.359103 C273.383389,132.468955 276.183725,132.595578 278.986577,132.750713 L278.986577,128.910924 C278.986577,127.725193 278.732383,126.877404 278.233221,126.35917 C277.718121,125.83926 277.200503,125.401529 276.653523,125.045139 L276.653523,125.045139 Z" id="Fill-15" fill="#FFFFFF"></path>
                <path d="M308.301174,106.277215 C307.291946,106.626897 306.786074,107.552673 306.786074,109.065444 C306.786074,109.45957 306.878356,126.131919 306.64094,126.466507 C306.408557,126.799417 306.05453,126.947004 305.580537,126.900045 C302.624161,126.586422 299.65604,126.298794 296.693792,126.036323 C296.224832,126.001103 295.883389,125.775529 295.682886,125.361278 C295.48406,124.946188 295.377517,124.4833 295.377517,123.953327 C295.346477,105.893152 295.315436,87.8245919 295.28104,69.7652556 C295.28104,69.0407354 295.368289,68.5602377 295.531879,68.3078296 C295.702181,68.0570987 295.948826,67.8541659 296.292785,67.6864529 C296.829698,67.3367713 297.362416,66.8218924 297.904362,66.1552332 C298.451342,65.4759955 298.714765,64.5854395 298.714765,63.4684709 L298.714765,60.5142063 C293.093121,59.9909417 287.458893,59.5666278 281.822987,59.2328789 L281.822987,62.1829507 C281.822987,63.3049507 282.086409,64.2357578 282.633389,64.9938206 C283.172819,65.7493677 283.713087,66.3405561 284.25,66.7640314 C284.593121,66.9896054 284.859899,67.2420135 285.057886,67.5120314 C285.263423,67.7921121 285.363255,68.2868655 285.363255,69.0139013 L285.363255,91.4388072 C283.542785,91.6568341 282.173658,93.1402556 282.173658,95.0136099 C282.173658,96.8886413 283.542785,98.5280359 285.363255,99.0018251 L285.363255,133.136453 C294.27349,133.724287 303.167785,134.545242 312.045302,135.595126 C312.715604,135.673951 313.383389,135.754453 314.065436,135.832439 C314.603188,135.900363 315.125839,135.742713 315.672819,135.348587 C316.212248,134.948592 316.480705,134.359081 316.480705,133.573345 L316.480705,106.547233 C315.069631,106.370296 313.654362,106.203422 312.240772,106.035709 C310.767617,105.862964 309.312919,105.925018 308.301174,106.277215" id="Fill-16" fill="#FFFFFF"></path>
                <path d="M88.7147651,83.2829238 C88.5595638,83.2946637 88.3901007,83.3131121 88.227349,83.3659417 C88.1719799,83.3843901 88.1090604,83.4003229 88.0436242,83.4179327 L88.0436242,83.4204484 C77.7172819,86.7109776 67.4706376,90.3260314 57.3154362,94.2605785 L57.3154362,97.1226009 C57.3154362,98.4349552 57.4899329,99.3850493 57.8380872,99.9720448 C58.1937919,100.556525 58.6946309,100.891112 59.3389262,100.973291 C59.658557,101.046247 59.9437919,101.193834 60.2005034,101.431148 C60.4572148,101.658399 60.5872483,102.068457 60.5872483,102.662161 L60.5872483,124.988117 C58.8498322,125.99691 57.5503356,128.058942 57.5503356,129.936489 C57.5503356,131.806489 58.8498322,132.870628 60.5872483,132.55365 L60.5872483,166.684085 C61.420302,166.370462 62.2575503,166.050969 63.0872483,165.750762 C67.4874161,164.102982 71.8993289,162.516417 76.3229866,160.991906 C78.2130872,160.335309 80.1006711,159.701354 81.9907718,159.076623 C83.4169463,158.59948 84.8473154,158.136592 86.2793624,157.672027 C86.8649329,157.485865 87.4530201,157.292157 88.0436242,157.107673 C88.1090604,157.086709 88.1719799,157.070776 88.227349,157.05065 C88.4622483,156.977695 88.6946309,156.846879 88.9370805,156.685874 C89.2776846,156.456108 89.5805369,156.186928 89.8515101,155.849825 C90.340604,155.225933 90.5872483,154.570175 90.5872483,153.83643 L90.5872483,143.695664 L90.5830537,143.701534 C90.5780201,140.130924 90.5780201,136.560314 90.5780201,132.993058 C89.2055369,133.420726 87.8380872,133.853426 86.4731544,134.287803 C85.0402685,134.754883 83.636745,135.4467 82.6619128,136.226565 C81.6862416,137.010623 81.2021812,138.153587 81.2021812,139.667197 C81.2021812,140.065516 81.284396,150.429341 81.0620805,150.867072 C80.829698,151.30061 80.5008389,151.603332 80.0402685,151.748404 C78.8011745,152.17104 77.5620805,152.589484 76.3229866,153.015475 C74.6191275,153.604148 72.9152685,154.203722 71.2122483,154.804135 C70.4370805,155.0817 70.0503356,154.760529 70.0503356,153.83643 L70.0503356,130.890776 C70.0503356,129.970031 70.5318792,129.333561 71.5025168,128.992265 C75.375,127.606117 79.2659396,126.278668 83.1627517,124.994825 C84.135906,124.674493 84.6191275,124.059825 84.6191275,123.138242 L84.6191275,117.626354 C84.6191275,117.098897 84.4404362,116.781081 84.0847315,116.667036 C83.7290268,116.558022 83.3850671,116.552152 83.0604027,116.662004 C79.1979866,117.937462 75.3456376,119.254848 71.5025168,120.615 C70.5318792,120.956296 70.0503356,120.677054 70.0503356,119.755471 L70.0503356,99.1695381 C70.0503356,98.7712197 70.1979866,98.3762556 70.4857383,97.9737444 C70.7760067,97.5762646 71.0813758,97.3213408 71.4052013,97.2031031 C74.4916107,96.1087758 77.5964765,95.034574 80.6988255,93.9972691 C80.8364094,94.0391973 80.9647651,94.1071211 81.0620805,94.2270359 C81.284396,94.506278 81.2021812,104.93635 81.2021812,105.328798 C81.2021812,106.839892 81.6862416,107.661686 82.6619128,107.801726 C83.636745,107.935897 85.0402685,107.704453 86.4731544,107.240726 C87.8380872,106.803834 89.2055369,106.370296 90.5780201,105.942628 L90.5780201,95.2282825 L90.5872483,95.2282825 L90.5872483,84.7864709 C90.5872483,84.2615291 90.3498322,83.8456009 89.8951342,83.5193991 C89.5855705,83.3038879 89.1887584,83.2275785 88.7147651,83.2829238" id="Fill-17" fill="#FFFFFF"></path>
                <path d="M353.143456,68.4487085 C352.981544,68.3690448 352.819631,68.3078296 352.651846,68.2734484 C352.588926,68.2642242 352.526007,68.2457758 352.466443,68.2373901 L352.458893,68.2373901 C341.899329,66.1678117 331.28943,64.418565 320.653523,62.9879731 L320.653523,65.8533498 C320.653523,67.1598341 320.830537,68.2021704 321.205537,68.9803587 C321.57802,69.7484843 322.095638,70.3455426 322.763423,70.7648251 C323.100671,71.0071704 323.397651,71.3132466 323.671141,71.6872466 C323.935403,72.0436368 324.075503,72.5249731 324.075503,73.1153229 L324.075503,95.4488251 C322.260067,95.5343587 320.895134,96.9154753 320.895134,98.787991 C320.895134,100.660507 322.260067,102.402206 324.075503,103.006812 L324.075503,137.13557 C324.942114,137.268063 325.817953,137.388816 326.688758,137.518794 C331.272651,138.183776 335.848993,138.916682 340.420302,139.70074 C342.366611,140.034489 344.312919,140.387525 346.253356,140.739722 C347.724832,141.01561 349.184564,141.292336 350.653523,141.569063 C351.253356,141.683946 351.853188,141.803861 352.458893,141.923776 C352.521812,141.933839 352.588926,141.946417 352.651846,141.959834 C352.891779,142.005955 353.129195,142.000924 353.368289,141.95648 C353.714765,141.912874 354.026846,141.802184 354.307886,141.595897 C354.798658,141.239507 355.050336,140.696117 355.050336,139.971596 L355.050336,119.118161 C353.649329,118.833888 352.248322,118.56387 350.856544,118.293852 C349.387584,118.003709 347.942953,117.964296 346.946309,118.239345 C345.938758,118.51691 345.44547,119.408305 345.44547,120.918561 C345.44547,121.316879 345.531879,131.725148 345.300336,132.05135 C345.067114,132.368327 344.71896,132.487404 344.244966,132.400193 C342.973993,132.168749 341.701342,131.948206 340.420302,131.725148 C338.661913,131.421587 336.891779,131.12809 335.125839,130.842139 C334.327181,130.70713 333.922819,130.186381 333.922819,129.265637 L333.922819,106.306565 C333.922819,105.395883 334.428691,105.008466 335.430369,105.175341 C339.440436,105.826067 343.455537,106.530462 347.458893,107.270915 C348.455537,107.455399 348.953859,107.101525 348.953859,106.175749 L348.953859,100.666377 C348.953859,100.138919 348.772651,99.722991 348.405201,99.4253004 C348.03943,99.1276099 347.685403,98.9439641 347.352349,98.8861031 C343.383389,98.1406188 339.409396,97.4538341 335.430369,96.8056233 C334.428691,96.6446188 333.922819,96.1012287 333.922819,95.1838386 L333.922819,74.5970673 C333.922819,74.1970717 334.075503,73.8775785 334.377517,73.6318789 C334.676174,73.3794709 334.994966,73.2880673 335.323826,73.3383812 C338.527685,73.8666771 341.728188,74.4109058 344.92953,74.9920314 C345.069631,75.1085919 345.198826,75.2368924 345.300336,75.4037668 C345.531879,75.8079552 345.44547,86.1910673 345.44547,86.5776457 C345.44547,88.0988027 345.946309,89.1696502 346.946309,89.8103139 C347.942953,90.4576861 349.387584,90.9616637 350.856544,91.2450987 C352.248322,91.5159552 353.649329,91.7809417 355.050336,92.0761166 L355.050336,70.9199596 C355.050336,70.3925022 354.822987,69.8583363 354.35906,69.3006906 C354.026846,68.9233363 353.625,68.6399013 353.143456,68.4487085" id="Fill-18" fill="#FFFFFF"></path>
                <path d="M166.971477,300.680067 L170.484899,304.060323 C171.402685,304.945009 172.672819,306.139964 174.131711,304.625516 C174.720638,304.014202 174.885067,303.423852 174.860738,302.903942 C174.797819,302.192 174.379195,301.791166 173.187919,300.644009 L169.98406,297.557251 L166.971477,300.680067 L166.971477,300.680067 Z M169.091443,292.878897 L176.10906,299.637731 C177.319631,300.804175 178.834732,302.356359 178.495805,304.512309 C178.340604,305.477498 177.803691,306.488807 176.966443,307.351691 C175.911074,308.447695 174.841443,308.847691 173.943792,308.944126 C171.922819,309.173054 170.49245,307.915206 169.027685,306.503063 L165.049497,302.675852 L160.920302,306.958404 L158.118289,304.258224 L169.091443,292.878897 L169.091443,292.878897 Z" id="Fill-19" fill="#FFFFFF"></path>
                <polyline id="Fill-20" fill="#FFFFFF" points="187.779362 309.279552 200.388423 316.837538 198.926174 319.271054 189.71057 313.748265 187.880872 316.793933 196.79698 322.134753 195.35906 324.528018 186.447987 319.188874 184.505034 322.425735 194.105705 328.179969 192.657718 330.594197 179.66443 322.804767 187.779362 309.279552"></polyline>
                <polyline id="Fill-21" fill="#FFFFFF" points="209.783557 320.942314 213.531879 322.195969 209.451342 334.390381 217.752517 337.16687 216.833054 339.919879 204.78104 335.885543 209.783557 320.942314"></polyline>
                <polyline id="Fill-22" fill="#FFFFFF" points="231.442953 326.82317 235.354027 327.418552 232.987416 343.0167 229.073826 342.421318 231.442953 326.82317"></polyline>
                <path d="M264.845638,338.256166 C264.59396,339.249865 264.288591,340.403731 262.933725,341.758852 C261.708893,342.973094 259.666107,344.376013 255.645973,344.545404 C250.03943,344.782717 246.031879,342.024677 245.798658,336.511951 C245.54698,330.573233 250.17953,327.960265 255.160235,327.751462 C256.970638,327.675152 262.168624,327.85796 264.415268,332.280552 L260.102349,332.999202 C259.651846,332.34596 258.344799,330.524596 255.283557,330.650381 C251.708893,330.804677 249.782718,333.369848 249.908557,336.381135 C250.053691,339.818413 252.842282,341.758852 255.838087,341.633067 C259.252517,341.487157 260.218121,339.436027 260.692114,338.454067 L264.845638,338.256166" id="Fill-23" fill="#FFFFFF"></path>
                <path d="M282.650168,328.429022 C282.485738,328.265502 282.338087,328.075987 282.216443,327.901565 C282.096477,327.727982 281.994966,327.548529 281.911913,327.340565 C281.901846,327.551045 281.911913,327.738045 281.916946,327.921691 C281.888423,328.138879 281.883389,328.351874 281.854027,328.569901 L281.051174,334.281368 L286.363255,332.711574 L282.650168,328.429022 L282.650168,328.429022 Z M278.877517,324.486928 L282.969799,323.276879 L294.748322,336.242771 L290.503356,337.496426 L288.378356,335.026013 L280.61745,337.319489 L280.174497,340.548803 L276.041107,341.768076 L278.877517,324.486928 L278.877517,324.486928 Z" id="Fill-24" fill="#FFFFFF"></path>
                <path d="M298.253356,317.476525 L301.630872,315.458099 L312.778523,319.023677 C314.143456,319.484049 314.41443,319.585516 315.888423,320.136453 C315.004195,318.919695 314.798658,318.574206 314.080537,317.415309 L309.937081,310.490439 L313.180369,308.554193 L321.277685,322.096179 L317.923658,324.099511 L306.64094,320.481103 C305.437919,320.078592 304.944631,319.909202 303.620805,319.394323 C304.337248,320.374605 304.477349,320.603534 305.110738,321.627422 L309.574664,329.087296 L306.350671,331.012641 L298.253356,317.476525" id="Fill-25" fill="#FFFFFF"></path>
                <path d="M330.721477,307.952103 C332.686242,308.695072 334.713926,307.543722 336.258389,306.048561 C336.946309,305.381063 339.00755,303.167251 337.669463,301.786135 C336.875839,300.967695 335.900168,301.539596 335.181208,302.015901 C334.622483,302.371453 331.950503,304.27248 331.330537,304.689247 C330.097315,305.506009 326.982383,307.557139 324.491611,304.99113 C323.947987,304.432646 323.547819,303.694709 323.383389,302.95174 C322.853188,300.508161 324.55453,298.084709 326.355705,296.34217 C328.005034,294.74135 329.510906,293.755197 331.307047,293.261283 C333.068792,292.767368 334.375,293.118726 334.956376,293.270507 L332.913591,296.557682 C332.645134,296.473825 332.01594,296.27257 331.010906,296.592063 C329.900168,296.952646 328.857383,297.83817 328.311242,298.365628 C327.058725,299.57987 326.006711,301.064969 327.052852,302.13917 C327.768456,302.878785 328.610738,302.434345 329.651007,301.80039 C330.208054,301.444 332.894295,299.594126 333.535235,299.192453 C335.087248,298.157664 337.785235,296.476341 340.196309,298.965202 C343.729866,302.61296 339.51594,306.938278 338.088087,308.322749 C336.223993,310.126502 333.03943,312.589368 328.78943,311.13278 L330.721477,307.952103" id="Fill-26" fill="#FFFFFF"></path>
                <path d="M231.639262,232.340372 C231.639262,232.340372 175.098154,213.422345 199.659396,153.230148 C199.659396,153.230148 139.880034,155.708946 57.9446309,188.756794 C57.9446309,188.756794 52.1946309,191.151735 48.840604,192.348368 C45.4857383,193.545839 40.0939597,195.691726 32.3691275,191.983592 C32.3691275,191.983592 107.319631,152.816735 203.606544,143.735915 C216.305369,142.537605 217.982383,144.454565 214.627517,149.242771 C211.881711,153.166417 177.494128,196.898422 231.639262,232.340372" id="Fill-27" fill="#FFFFFF"></path>
                <path d="M181.409396,170.279852 C132.956376,176.576637 85.5755034,193.442695 85.5755034,193.442695 C93.6417785,207.788027 115.524329,201.765453 115.524329,201.765453 C156.574664,190.153843 174.890101,186.214265 180.763423,185.076332 C180.538591,180.502798 180.729866,175.577906 181.409396,170.279852" id="Fill-28" fill="#AB9157"></path>
                <path d="M181.762584,193.856946 C173.67953,195.420031 139.756711,202.382637 105.538591,215.19004 C105.538591,215.19004 116.322987,227.470825 137.721477,221.403807 C155.722315,216.303655 178.800336,208.94357 185.682886,206.733112 C183.968121,202.846363 182.624161,198.568843 181.762584,193.856946" id="Fill-29" fill="#AB9157"></path>
                <path d="M189.284396,213.522135 C181.975671,215.881018 145.417785,227.718202 129.986577,233.645179 C129.986577,233.645179 138.839765,245.510874 164.395973,235.453126 C182.203859,228.446076 192.009228,224.353879 196.334732,222.511552 C193.761745,219.842399 191.375839,216.858785 189.284396,213.522135" id="Fill-30" fill="#AB9157"></path>
                <path d="M201.975671,227.670404 C195.591443,230.443538 171.869128,240.80317 158.147651,247.410224 C158.147651,247.410224 175.417785,255.891471 197.135067,242.478623 L210.644295,233.620022 C207.702181,231.902641 204.78104,229.930336 201.975671,227.670404" id="Fill-31" fill="#AB9157"></path>
                <path d="M217.21057,237.070717 C212.865772,239.785152 194.869966,251.092363 186.087248,257.579502 C186.087248,257.579502 201.002517,263.738762 216.302852,249.343117 C221.278523,244.663085 223.994128,242.00735 225.489933,240.486193 C222.856544,239.536937 220.063758,238.41326 217.21057,237.070717" id="Fill-32" fill="#AB9157"></path>
                <path d="M268.05453,232.340372 C268.05453,232.340372 324.593121,213.422345 300.029362,153.230148 C300.029362,153.230148 359.811242,155.708946 441.746644,188.756794 C441.746644,188.756794 447.496644,191.151735 450.850671,192.348368 C454.204698,193.545839 459.592282,195.691726 467.322148,191.983592 C467.322148,191.983592 392.370805,152.816735 296.084732,143.735915 C283.388423,142.537605 281.708893,144.454565 285.062919,149.242771 C287.812081,153.166417 322.197987,196.898422 268.05453,232.340372" id="Fill-33" fill="#FFFFFF"></path>
                <path d="M318.281879,170.279852 C366.733221,176.576637 414.115772,193.442695 414.115772,193.442695 C406.049497,207.788027 384.166946,201.765453 384.166946,201.765453 C343.116611,190.153843 324.798658,186.214265 318.925336,185.076332 C319.153523,180.502798 318.958893,175.577906 318.281879,170.279852" id="Fill-34" fill="#AB9157"></path>
                <path d="M317.931208,193.856946 C326.010906,195.420031 359.934564,202.382637 394.151846,215.19004 C394.151846,215.19004 383.368289,227.470825 361.967282,221.403807 C343.971477,216.303655 320.89094,208.94357 314.00755,206.733112 C315.721477,202.846363 317.063758,198.568843 317.931208,193.856946" id="Fill-35" fill="#AB9157"></path>
                <path d="M310.406879,213.522135 C317.715604,215.881018 354.27349,227.718202 369.699664,233.645179 C369.699664,233.645179 360.85151,245.510874 335.297819,235.453126 C317.487416,228.446076 307.682047,224.353879 303.35906,222.511552 C305.92953,219.842399 308.316275,216.858785 310.406879,213.522135" id="Fill-36" fill="#AB9157"></path>
                <path d="M297.713087,227.670404 C304.099832,230.443538 327.822148,240.80317 341.538591,247.410224 C341.538591,247.410224 324.27349,255.891471 302.553691,242.478623 L289.04698,233.620022 C291.989933,231.902641 294.907718,229.930336 297.713087,227.670404" id="Fill-37" fill="#AB9157"></path>
                <path d="M282.478188,237.070717 C286.822987,239.785152 304.821309,251.092363 313.603188,257.579502 C313.603188,257.579502 298.687919,263.738762 283.388423,249.343117 C278.410235,244.663085 275.697148,242.00735 274.199664,240.486193 C276.834732,239.536937 279.623322,238.41326 282.478188,237.070717" id="Fill-38" fill="#AB9157"></path>
                <path d="M296.147651,265.197865 C296.147651,290.769067 275.419463,311.490848 249.844799,311.490848 C224.262584,311.490848 203.544463,290.769067 203.544463,265.197865 C203.544463,239.638404 224.262584,218.914108 249.844799,218.914108 C275.419463,218.914108 296.147651,239.638404 296.147651,265.197865" id="Fill-39" fill="#FFFFFF"></path>
                <path d="M286.568792,274.776794 C286.568792,295.060843 270.130872,311.490848 249.844799,311.490848 C229.560403,311.490848 213.127517,295.060843 213.127517,274.776794 C213.127517,254.502807 229.560403,238.06861 249.844799,238.06861 C270.130872,238.06861 286.568792,254.502807 286.568792,274.776794" id="Fill-40" fill="#AB9157"></path>
                <path d="M274.211409,300.228081 C272.359899,298.771493 269.712248,296.187874 269.238255,293.004682 C269.194631,292.723762 269.167785,292.441166 269.138423,292.160247 C278.547819,288.209767 286.498322,281.421583 291.870805,272.693798 C289.849832,284.053839 283.32802,293.870919 274.211409,300.228081 L274.211409,300.228081 Z M207.812919,272.660256 C213.185403,281.402296 221.138423,288.20222 230.562081,292.160247 C230.528523,292.443682 230.504195,292.723762 230.46057,293.009713 C229.98406,296.204646 227.338087,298.77904 225.484899,300.232274 C216.358221,293.865888 209.826342,284.039583 207.812919,272.660256 L207.812919,272.660256 Z M217.652685,237.202372 C215.739094,247.74565 220.114094,257.676776 224.122483,266.767659 C226.912752,273.088762 229.579698,279.165004 230.438758,285.311686 C219.419463,279.819924 211.041946,269.737857 207.924497,257.117453 C209.371644,249.589655 212.803691,242.765413 217.652685,237.202372 L217.652685,237.202372 Z M262.827181,287.817318 C259.649329,288.833659 256.336409,289.496964 252.933725,289.748534 L252.933725,222.636498 C259.772651,223.129574 266.173658,225.231018 271.752517,228.576054 C280.229866,240.812395 275.455537,251.72548 269.922819,264.272928 C266.602349,271.804081 263.19547,279.542359 262.827181,287.817318 L262.827181,287.817318 Z M252.933725,295.921211 C256.462248,295.709054 259.896812,295.140507 263.19547,294.228987 C263.887584,298.205462 266.341443,301.360143 268.623322,303.532865 C263.824664,305.893426 258.529362,307.3693 252.933725,307.767619 L252.933725,295.921211 L252.933725,295.921211 Z M236.503356,294.228987 C239.799497,295.140507 243.23406,295.709054 246.75755,295.921211 L246.75755,307.767619 C241.166946,307.3693 235.866611,305.893426 231.072148,303.532865 C233.359899,301.360143 235.808725,298.205462 236.503356,294.228987 L236.503356,294.228987 Z M227.938758,228.576054 C233.517617,225.231018 239.917785,223.129574 246.75755,222.636498 L246.75755,289.751049 C243.344799,289.513735 240.036913,288.870556 236.874161,287.890274 C236.520973,279.58848 233.103188,271.830915 229.770973,264.27796 C224.235738,251.729673 219.458893,240.812395 227.938758,228.576054 L227.938758,228.576054 Z M291.776846,257.15435 C288.69547,269.509767 280.229866,279.601058 269.274329,285.166614 C270.155201,279.06857 272.802852,273.03761 275.571309,266.765143 C279.579698,257.676776 283.949664,247.740619 282.036074,237.202372 C286.895134,242.775475 290.331376,249.612296 291.776846,257.15435 L291.776846,257.15435 Z M249.844799,215.314148 C222.328859,215.314148 199.942953,237.691256 199.942953,265.197865 C199.942953,292.709507 222.328859,315.090807 249.844799,315.090807 C277.362416,315.090807 299.748322,292.709507 299.748322,265.197865 C299.748322,237.691256 277.362416,215.314148 249.844799,215.314148 L249.844799,215.314148 Z" id="Fill-41" fill="#002344"></path>
                <path d="M264.676174,150.54674 C264.676174,150.54674 264.298658,152.117372 263.342282,152.117372 C262.384228,152.117372 256.394295,149.242771 253.519295,147.687233 C252.28943,147.022251 250.562081,146.021843 249.963926,145.671323 C249.963926,145.671323 247.401007,147.022251 246.17198,147.687233 C243.29698,149.242771 237.30453,152.117372 236.350671,152.117372 C235.392617,152.117372 235.020134,150.54674 235.020134,150.54674 C235.020134,150.54674 219.296141,160.03091 219.296141,186.249484 C219.296141,205.759538 229.458893,214.613946 229.458893,214.613946 L230.838087,220.129188 L268.850671,220.129188 L270.232383,214.613946 C270.232383,214.613946 280.396812,205.759538 280.396812,186.249484 C280.396812,160.03091 264.676174,150.54674 264.676174,150.54674" id="Fill-42" fill="#002344"></path>
                <path d="M272.163591,179.623982 C272.163591,171.520928 268.862416,164.925614 265.310403,160.994422 C265.310403,160.994422 265.193792,163.304668 261.321309,160.718534 C257.977349,158.431767 254.04698,157.086709 249.826342,157.086709 C245.58557,157.086709 241.641779,158.435121 238.294463,160.736143 C234.560403,163.276996 234.380872,160.994422 234.380872,160.994422 C230.833054,164.925614 227.529362,171.520928 227.529362,179.623982 C227.529362,186.344242 229.180369,189.664121 229.749161,190.609184 C233.088926,199.181834 240.813758,205.188475 249.826342,205.188475 C258.727349,205.188475 266.379195,199.305103 269.777685,190.882556 C269.97651,190.602475 272.163591,187.375677 272.163591,179.623982" id="Fill-43" fill="#FFFFFF"></path>
                <path d="M258.243289,197.920632 C258.21896,197.873673 258.185403,197.827552 258.161074,197.779753 C258.161074,197.779753 255.949664,193.633049 259.588926,190.765157 C259.588926,190.765157 267.822148,192.485054 268.013423,181.574484 C268.013423,181.574484 267.822148,180.424812 268.963926,178.131336 C268.963926,178.131336 266.85906,176.2127 262.265101,179.663395 C257.670302,183.103188 255.184564,192.866601 252.696309,190.571448 C250.234899,188.296422 251.133389,175.582937 249.857383,175.100762 L249.811242,175.100762 C248.538591,175.585453 249.438758,188.296422 246.979866,190.571448 C244.49245,192.866601 241.999161,183.103188 237.40604,179.663395 C232.807886,176.2127 230.702181,178.131336 230.702181,178.131336 C231.854866,180.424812 231.65604,181.574484 231.65604,181.574484 C231.854866,192.485054 240.08557,190.765157 240.08557,190.765157 C243.723154,193.633049 241.527685,197.799879 241.527685,197.799879 C241.505872,197.843484 241.473993,197.886251 241.45302,197.929857 C231.626678,187.379031 225.915268,188.812139 228.734899,200.62752 C231.503356,212.229067 242.13255,262.064148 243.824664,273.617897 C243.587248,284.010233 242.386745,287.725915 242.072148,288.52926 L241,290.66257 L242.183725,293.038224 C244.049497,295.747628 245.35151,298.800843 245.808725,299.95974 L249.859899,310.243063 L253.877517,299.98322 C254.354027,298.800843 255.651007,295.747628 257.517617,293.038224 L258.751678,290.784161 L257.631711,288.52926 C257.317114,287.752749 256.147651,284.17543 255.881711,274.15961 C257.280201,263.789076 268.144295,212.432839 270.958054,200.62752 C273.77349,188.816332 268.068792,187.379031 258.243289,197.920632" id="Fill-44" fill="#002344"></path>
                <path d="M243.185403,249.868897 C239.651846,231.32487 236.874161,217.6093 234.630034,207.661404 C232.919463,200.056457 237.48406,203.097094 239.949664,207.851758 L243.185403,249.868897" id="Fill-45" fill="#D12138"></path>
                <path d="M256.510906,249.868897 C260.044463,231.32487 262.822148,217.6093 265.062919,207.661404 C266.771812,200.056457 262.208054,203.097094 259.743289,207.851758 L256.510906,249.868897" id="Fill-46" fill="#D12138"></path>
                <path d="M237.60906,187.06457 C236.911913,186.873377 236.503356,186.153888 236.699664,185.457879 C236.774329,185.18283 236.946309,184.969834 237.152685,184.80296 C236.694631,184.282211 236.147651,183.760623 235.501678,183.293543 C235.501678,183.293543 234.349832,188.654489 239.139262,188.081749 C239.139262,188.081749 238.973993,187.608798 238.614094,186.927883 C238.321309,187.098951 237.963087,187.161843 237.60906,187.06457" id="Fill-47" fill="#D12138"></path>
                <path d="M264.192114,183.293543 C263.538591,183.758108 262.991611,184.282211 262.536074,184.802121 C262.741611,184.969834 262.918624,185.18283 262.991611,185.457879 C263.185403,186.153888 262.774329,186.873377 262.074664,187.06457 C261.721477,187.159327 261.365772,187.100628 261.074664,186.932076 C260.716443,187.608798 260.552013,188.081749 260.552013,188.081749 C265.34396,188.654489 264.192114,183.293543 264.192114,183.293543" id="Fill-48" fill="#D12138"></path>
                <path d="M252.091443,256.747646 C253.616611,228.097233 255.897651,207.811507 255.897651,205.281556 C255.897651,204.375067 255.78943,203.217009 255.42198,201.940713 L253.751678,207.38887 L253.240772,197.762982 C252.401007,196.687103 251.259228,195.602 249.816275,194.562179 L249.732383,194.562179 C248.29698,195.600323 247.287752,196.682072 246.447987,197.757112 L245.944631,207.38887 L244.271812,201.935682 C243.899329,203.21617 243.792785,204.372552 243.792785,205.281556 C243.792785,207.811507 246.069631,228.097233 247.589765,256.747646 C249.114094,285.389673 245.557047,290.712045 245.557047,290.712045 C247.619128,293.691466 249.844799,298.98952 249.844799,298.98952 C249.844799,298.98952 252.072148,293.691466 254.129195,290.712045 C254.129195,290.712045 250.578859,285.389673 252.091443,256.747646" id="Fill-49" fill="#D12138"></path>
            </g>
        </g>
    </g>
</svg>