<?xml version="1.0" encoding="UTF-8" standalone="no"?>
<svg width="500px" height="500px" viewBox="0 0 500 500" version="1.1" xmlns="http://www.w3.org/2000/svg" xmlns:xlink="http://www.w3.org/1999/xlink">
    <!-- Generator: Sketch 39.1 (31720) - http://www.bohemiancoding.com/sketch -->
    <title>NY</title>
    <desc>Created with Sketch.</desc>
    <defs>
        <polygon id="path-1" points="0 404.94375 499.855535 404.94375 499.855535 0 0 0"></polygon>
    </defs>
    <g id="NBA" stroke="none" stroke-width="1" fill="none" fill-rule="evenodd">
        <g id="NY">
            <g id="NYKnicks_Global_pms" transform="translate(0.000000, 47.000000)">
                <g id="Group-3">
                    <mask id="mask-2" fill="white">
                        <use xlink:href="#path-1"></use>
                    </mask>
                    <g id="Clip-2"></g>
                    <path d="M249.095685,405 L215.969043,362.000625 C173.821764,348.106875 144.484991,310.035937 141.771107,265.753125 L121.218574,239.086875 C101.675422,247.505625 82.1069418,260.839687 82.1069418,260.839687 L20.4765478,199.013437 L46.4521576,142.1025 L0,81.81375 L73.9043152,81.81375 L88.2101313,50.6728125 L124.803002,35.9146875 L128.863039,24.883125 L158.518762,38.4196875 L165.572233,13.7915625 L170.412758,12.181875 C193.875235,4.3725 220.905253,0.166875 248.574109,0.009375 C249.37242,-0.039375 258.162289,0.11625 258.376173,0.11625 C259.407129,0.11625 263.723265,0.3496875 263.723265,0.3496875 C287.13227,1.4765625 309.12758,5.3709375 329.099437,11.9278125 L334.007505,13.5421875 L340.493433,37.033125 L351.172608,28.9678125 L411.116323,50.270625 L425.581614,81.8221875 L499.855535,81.8221875 L452.907129,142.360312 L478.492495,198.451875 L415.894934,262.86375 C415.894934,262.86375 392.941839,246.136875 377.208255,239.903437 L358.341463,264.21 C356.188555,309.563437 325.318011,349.32375 281.93152,362.670937 L249.095685,405" id="Fill-1" fill="#FFFFFF" mask="url(#mask-2)"></path>
                </g>
                <polyline id="Fill-4" fill="#B6B7B6" points="249.15197 375.201563 462.690432 100.0425 37.0300188 100.035937 249.15197 375.201563"></polyline>
                <path d="M462.690432,100.0425 L249.15197,375.201563 L37.0300188,100.035937 L462.690432,100.0425 L462.690432,100.0425 Z M19.4812383,91.4025 L249.129456,389.303438 L480.306754,91.411875 L19.4812383,91.4025 L19.4812383,91.4025 Z" id="Fill-5" fill="#005D9C"></path>
                <path d="M431.865854,119.183438 L431.787054,119.003438 L431.617261,118.898438 L417.956848,109.725 L423.045966,100.003125 L423.197936,99.7078125 L423.062852,99.4003125 L404.257974,58.2121875 L404.133208,57.9515625 L403.863039,57.8559375 L353.173546,39.8146875 L352.824578,39.6909375 L352.525328,39.9178125 L339.078799,50.1703125 L338.932458,50.28 L338.864916,50.450625 L336.560976,56.090625 C336.560976,56.090625 315.546904,50.81625 284.675422,47.73 C281.537523,47.4159375 273.135084,46.725 259.723265,45.6703125 L258.421201,45.57 L257.075047,45.470625 L256.758912,45.44625 L256.538462,45.665625 L246.515009,55.6396875 L246.531895,45.403125 C246.531895,45.403125 218.11257,47.0025 199.501876,49.5328125 C180.893996,52.0621875 162.593809,56.668125 162.593809,56.668125 L159.228893,49.4634375 L159.122889,49.2365625 L158.893996,49.1296875 L134.977486,38.188125 L134.298311,37.884375 L134.045028,38.5771875 L131.263602,46.149375 L130.63227,44.6325 L130.370544,44.0090625 L129.742026,44.259375 L95.5103189,57.976875 L95.2570356,58.0846875 L95.141651,58.335 L31.9971857,196.97625 L83.8395872,248.86875 L86.2598499,247.495313 C87.815197,246.6 90.0300188,245.29875 92.5290807,243.827813 C98.7983114,240.134063 107.390244,235.081875 111.49531,233.102813 L112.329268,232.7025 C117.640713,230.131875 120.305816,228.839063 145.507505,218.0625 L147.611632,217.274063 C147.642589,217.27125 150.446529,216.17625 155.634146,214.457813 C169.474672,209.863125 205.419325,199.168125 240.271107,199.168125 L240.662289,199.168125 C242.051595,199.168125 243.438086,199.19625 244.833021,199.229063 C268.490619,199.883438 296.155722,204.9075 315.19137,209.007188 C333.505629,212.955 347.289869,216.748125 351.206379,217.849688 L353.838649,218.659688 C371.172608,225.350625 392.366792,236.40375 411.99531,248.967188 L414.485929,250.570313 L466.968105,196.558125 L431.865854,119.183438" id="Fill-6" fill="#005D9C"></path>
                <path d="M426.224203,123.989062 L375.787992,90.343125 L367.0197,65.7309375 L382.635084,71.28 L388.953096,86.6653125 L412.694184,94.2703125 L398.836773,63.675 L354.030019,47.7721875 L345.802064,54.1340625 L360.701689,102.511875 L408.658537,136.384687 L420.95591,167.005312 L401.012195,158.011875 L394.165103,138.955312 L369.69606,131.751562 L382.776735,174.820312 C386.810507,176.301562 390.818011,177.833438 394.78424,179.440313 C405.672608,183.84375 416.340525,188.7225 426.75985,194.055 C433.984053,197.745937 441.085366,201.665625 448.066604,205.787813 L458.491557,195.09375 L426.224203,123.989062" id="Fill-7" fill="#E87C31"></path>
                <path d="M86.0769231,146.799375 L102.878049,131.7975 L106.891182,136.470938 L90.2945591,184.1625 C99.3677298,180.165 108.604128,176.509687 117.984053,173.192813 L130.010319,133.8675 L119.63227,116.738438 L141.128518,96.3225 L153.692308,54.4940625 L138.251407,47.56125 L124.382739,86.9896875 L102.15197,106.120312 L122.419325,55.0059375 L100.633208,63.688125 L40.6060038,195.30375 L49.9962477,204.72 C55.5675422,201.474375 61.2166979,198.359062 66.9371482,195.379688 L86.0769231,146.799375" id="Fill-8" fill="#E87C31"></path>
                <path d="M238.199812,52.9453125 L219.786116,53.9109375 L211.138837,152.639063 C218.961538,151.895625 226.844278,151.393125 234.782364,151.125 L238.199812,52.9453125" id="Fill-9" fill="#E87C31"></path>
                <path d="M292.824578,132.148125 L271.444653,130.872187 L268.012195,70.41 L286.123827,71.29125 L284.005629,54.6328125 L259.660413,52.8975 L248.755159,63.766875 L248.727017,139.381875 L260.162289,151.081875 C271.968105,151.442812 283.651032,152.325 295.185741,153.721875 L292.824578,132.148125" id="Fill-10" fill="#E87C31"></path>
                <path d="M171.696998,91.9125 L179.41182,129.445312 L174.424953,157.889063 C181.891182,156.45375 189.423077,155.21625 197.025328,154.220625 L197.070356,154.21125 L208.972795,55.2075 L191.878049,57.6984375 L186.26454,90.1125 L179.910882,59.6025 L159.815197,64.635 L131.849906,168.571875 C139.91182,166.0575 148.071295,163.8 156.324578,161.802188 L171.696998,91.9125" id="Fill-11" fill="#E87C31"></path>
                <path d="M320.263602,126.685312 L326.281426,118.5675 L335.066604,125.800313 L343.153846,162.6075 C351.640713,164.738437 360.026266,167.144062 368.304878,169.824375 L353.218574,115.83 L337.665103,103.116562 L346.523452,91.3096875 L339.157598,63.9075 L320.381801,59.7309375 L327.769231,87.3271875 L316.075985,102.947812 L307.437148,57.560625 L290.046904,55.3584375 C290.046904,55.3584375 298.770169,121.92375 302.884615,154.719375 C310.761726,155.830312 318.560976,157.189687 326.293621,158.77125 L320.263602,126.685312" id="Fill-12" fill="#E87C31"></path>
                <path d="M213.835835,171.388125 C213.835835,171.388125 221.079737,167.146875 235.571295,165.541875 L235.106004,154.13625 C227.160413,154.400625 219.265478,154.903125 211.432458,155.642813 C212.114447,160.095938 213.134146,166.75125 213.835835,171.388125" id="Fill-13" fill="#B6B7B6"></path>
                <path d="M259.891182,164.851875 C265.780488,165.541875 272.081614,167.468437 277.621013,169.029375 C282.630394,170.235938 288.023452,172.379062 292.441839,174.34125 L294.870544,156.782813 C283.222326,155.350313 272.210131,154.478437 260.286116,154.108125 C260.117261,157.5225 260.117261,162.32625 259.891182,164.851875" id="Fill-14" fill="#B6B7B6"></path>
                <path d="M183.638837,192.684375 C190.381801,187.6725 194.439024,182.515313 201.5394,178.194375 C200.192308,171.812813 198.394934,163.55625 197.090056,157.253437 C189.363977,158.275313 181.712008,159.54375 174.126642,161.016562 C177.033771,170.465625 180.733583,183.141563 183.638837,192.684375" id="Fill-15" fill="#B6B7B6"></path>
                <path d="M298.318949,177.883125 C304.895872,181.686563 310.02439,185.995312 315.900563,191.704687 L317.06848,192.591562 L326.333021,161.939063 C318.347092,160.287188 310.592871,158.855625 302.444653,157.705312 L298.318949,177.883125" id="Fill-16" fill="#B6B7B6"></path>
                <path d="M327.560976,204.51 L349.657598,209.708438 L368.242026,172.973437 C359.677298,170.179688 351.409944,167.879063 342.618199,165.675938 L327.560976,204.51" id="Fill-17" fill="#B6B7B6"></path>
                <path d="M149.820826,209.708438 C155.589118,207.582188 163.636023,204.677813 171.159475,202.671562 L156.814259,164.768438 C148.144465,166.86375 140.587242,169.071562 132.134146,171.7425 C137.482176,184.438125 143.467167,197.526563 149.820826,209.708438" id="Fill-18" fill="#B6B7B6"></path>
                <path d="M116.496248,223.351875 C117.770169,222.25875 130.314259,216.846563 138.899625,213.216563 C132.377111,201.415312 124.531895,188.4 117.989681,176.390625 C108.635084,179.727188 100.117261,183.18375 91.0703565,187.204688 L116.496248,223.351875" id="Fill-19" fill="#B6B7B6"></path>
                <path d="M85.2091932,239.937187 C89.2016886,237.538125 93.4315197,235.0875 98.0891182,232.390312 L68.7711069,197.829375 C63.1979362,200.721563 57.6969981,203.746875 52.2701689,206.895 L85.2091932,239.937187" id="Fill-20" fill="#B6B7B6"></path>
                <path d="M361.356473,214.25625 C378.949343,221.078438 403.553471,234.8625 413.347092,241.4325 C417.862101,237.118125 442.347092,211.42875 445.706379,207.902813 C425.350844,195.966563 403.964353,185.818125 381.722326,177.650625 L361.356473,214.25625" id="Fill-21" fill="#B6B7B6"></path>
                <polyline id="Fill-22" fill="#B6B7B6" points="256.50469 164.277187 248.104128 163.984687 247.9606 143.579062 256.69606 152.64375 256.50469 164.277187"></polyline>
                <path d="M250.0197,160.238438 C195.405253,160.242188 151.136961,204.486562 151.134146,259.070625 C151.136961,313.640625 195.405253,357.884062 250.0197,357.884062 C304.630394,357.884062 348.907129,313.640625 348.907129,259.070625 C348.907129,204.486562 304.630394,160.242188 250.0197,160.238438" id="Fill-23" fill="#005D9C"></path>
                <path d="M256.098499,167.63625 C248.510319,170.280937 241.20075,174.133125 233.965291,177.49125 C229.022514,174.53625 226.19606,173.79 222.857411,171.6375 C233.252345,167.854688 244.446529,167.285625 256.098499,167.63625" id="Fill-24" fill="#E87C31"></path>
                <path d="M326.940901,209.593125 C303.638837,186.130313 268.688555,187.824375 239.0394,179.525625 C239.0394,179.525625 256.488743,171.223125 265.493433,168.924375 C289.725141,173.052188 313.173546,187.544063 326.940901,209.593125" id="Fill-25" fill="#E87C31"></path>
                <path d="M195.963415,213.118125 C173.579737,247.438125 170.550657,289.716563 188.375235,326.7675 C165.34334,307.437187 151.613508,269.994375 161.954034,233.634375 C170.421201,221.813438 181.30863,211.36125 195.963415,213.118125" id="Fill-26" fill="#E87C31"></path>
                <path d="M219.924015,237.555 C231.989681,273.400313 234.658537,313.082813 265.893996,349.182188 C241.541276,354.11625 217.417448,346.823438 198.178236,334.647188 C174.346154,299.89875 176.591932,248.055 200.420263,214.363125 C212.027205,217.7025 218.349906,232.875 219.924015,237.555" id="Fill-27" fill="#E87C31"></path>
                <path d="M203.181989,210.572812 C206.803002,205.47 210.891182,200.640938 215.484053,196.155 C266.141651,210.4425 314.447467,262.936875 322.713884,314.524688 C320.303002,318.421875 314.515009,323.850938 310.63227,327.73125 C298.037523,339.039375 284.162289,344.899688 270.85272,348.073125 C247.196998,323.552813 239.409006,291.710625 231.054409,260.326875 C224.641651,236.2425 220.189493,218.069063 203.198874,210.702188 L203.181989,210.572812" id="Fill-28" fill="#E87C31"></path>
                <path d="M321.542214,210.347813 C297.079737,188.775 262.991557,191.534063 234.395872,181.48125 C228.86773,184.8675 223.469043,188.865 218.856473,192.998438 C269.511257,208.874063 315.478424,258.375 326.427767,309.534375 C334.374296,298.06875 339.169794,284.749688 341.103189,270.63 C342.342402,248.933438 342.12758,229.194375 321.542214,210.347813" id="Fill-29" fill="#E87C31"></path>
                <path d="M211.304878,194.566875 C206.41651,199.265625 202.757036,203.8875 198.941839,209.277187 L198.832083,209.243437 C185.41651,206.2425 174.841463,213.174375 166.344278,221.813438 C170.401501,211.583438 178.893996,199.44375 187.895872,191.510625 C196.194184,191.866875 202.227017,191.739375 211.304878,194.566875" id="Fill-30" fill="#E87C31"></path>
                <path d="M214.897749,191.428125 C219.688555,187.169063 224.331144,183.437813 230.099437,179.985 L217.106942,173.548125 C208.459662,177.075938 199.20075,181.679063 192.849906,187.498125 C202.668856,188.638125 206.878987,189.24375 214.897749,191.428125" id="Fill-31" fill="#E87C31"></path>
                <path d="M236.013133,39.0928125 L232.012195,43.0725 L225.157598,43.4803125 L222.606942,41.265 L219.383677,43.9978125 L211.919325,44.69625 L208.639775,41.57625 L212.945591,12.375 L218.597561,11.600625 L215.54878,37.3875 L219.594747,36.9365625 L222.747655,11.1009375 L228.324578,10.56 L226,36.2109375 L229.969043,35.8453125 L231.998124,10.3115625 C234.376173,10.0575 235.602251,10.08 237.681989,9.961875 L236.013133,39.0928125" id="Fill-32" fill="#005D9C"></path>
                <path d="M254.335835,9.5690625 L254.385553,27.9459375 L257.992495,27.920625 L257.772983,9.650625 C257.772983,9.650625 261.554409,9.76875 263.261726,9.9121875 L263.988743,30.5240625 L260.512195,33.988125 L259.373358,34.0453125 L259.537523,42.8625 L253.405253,42.6815625 L253.337711,33.85875 L252.108818,33.7603125 L248.394934,29.971875 L248.628518,9.4790625 C250.614447,9.4771875 254.335835,9.5690625 254.335835,9.5690625" id="Fill-33" fill="#005D9C"></path>
                <path d="M208.837711,12.973125 L207.878987,19.0096875 L201.04878,20.2959375 L199.809568,27.34875 C202.311445,26.8978125 203.847092,26.655 206.822702,26.2603125 C206.405253,28.888125 206.28424,29.788125 205.825516,32.2725 L198.967167,33.249375 L197.67636,40.0059375 L204.709193,38.986875 C204.709193,38.986875 204.010319,43.5346875 203.655722,45.56625 C198.732645,46.1728125 193.785178,46.8778125 189.065666,47.6990625 C189.065666,47.6990625 194.351782,23.2059375 195.665103,15.6515625 L208.837711,12.973125" id="Fill-34" fill="#005D9C"></path>
                <path d="M183.089118,48.78375 L175.966229,50.1815625 L179.231707,36.8296875 L177.023452,32.038125 L171.424015,51.25875 L164.467167,52.845 C167.361163,42.4415625 170.325516,32.0353125 173.221388,21.628125 C175.614447,20.8265625 177.394934,20.28375 179.507505,19.6509375 C180.286116,21.406875 182.15666,24.9440625 182.15666,24.9440625 L183.847092,18.4246875 C183.847092,18.4246875 188.25985,17.259375 190.477486,16.7578125 L183.089118,48.78375" id="Fill-35" fill="#005D9C"></path>
                <path d="M273.862101,16.6425 L275.648218,36.5821875 L279.181989,36.860625 L277.304878,17.0240625 L273.862101,16.6425 L273.862101,16.6425 Z M283.244841,15.2278125 C283.954972,23.5940625 285.334897,31.603125 286.181051,39.4059375 L283.064728,44.158125 L272.999062,43.4878125 L269.370544,39.5334375 C268.722326,31.0040625 268.283302,22.395 267.753283,13.820625 C268.677298,12.605625 270.090994,11.653125 271.207317,10.45875 L279.592871,11.2753125 L283.244841,15.2278125 L283.244841,15.2278125 Z" id="Fill-36" fill="#005D9C"></path>
                <path d="M315.783302,18.2184375 C317.033771,23.0109375 319.485929,32.8790625 319.485929,32.8790625 L321.875235,33.3665625 L323.030019,31.775625 L320.054409,19.5009375 C320.054409,19.5009375 323.007505,20.32875 326.175422,21.283125 L329.335835,33.16875 L327.84803,35.3109375 L330.615385,38.349375 L334.790807,52.8253125 L327.909944,51.285 L325.205441,41.13 L320.922139,40.1709375 L323.266417,50.278125 L316.285178,48.9046875 C313.849906,38.019375 309.443715,16.5834375 309.443715,16.5834375 C309.443715,16.5834375 312.987805,17.3184375 315.783302,18.2184375" id="Fill-37" fill="#005D9C"></path>
                <path d="M295.208255,19.80375 L296.403377,28.1128125 L300.184803,28.5421875 L298.589118,20.416875 L295.208255,19.80375 L295.208255,19.80375 Z M304.890244,19.385625 L307.188555,31.3190625 L305.859287,33.1575 L308.203565,35.956875 L310.232645,47.8078125 L303.526266,46.644375 L301.695122,36.770625 L297.665103,36.3234375 L299.091932,45.9534375 L292.402439,45.1171875 L287.950281,12.350625 L300.742026,14.6090625 L304.890244,19.385625 L304.890244,19.385625 Z" id="Fill-38" fill="#005D9C"></path>
            </g>
        </g>
    </g>
</svg>