<?xml version="1.0" encoding="UTF-8" standalone="no"?>
<svg width="500px" height="500px" viewBox="0 0 500 500" version="1.1" xmlns="http://www.w3.org/2000/svg" xmlns:xlink="http://www.w3.org/1999/xlink">
    <!-- Generator: Sketch 39.1 (31720) - http://www.bohemiancoding.com/sketch -->
    <title>OKC</title>
    <desc>Created with Sketch.</desc>
    <defs>
        <polygon id="path-1" points="248.13365 0.607757194 0.0497512438 0.607757194 0.0497512438 204.462621 496.217548 204.462621 496.217548 0.607757194 248.13365 0.607757194"></polygon>
    </defs>
    <g id="NBA" stroke="none" stroke-width="1" fill="none" fill-rule="evenodd">
        <g id="OKC">
            <g id="OKCThunder_Global_pms" transform="translate(0.000000, 20.000000)">
                <g id="Group-3">
                    <mask id="mask-2" fill="white">
                        <use xlink:href="#path-1"></use>
                    </mask>
                    <g id="Clip-2"></g>
                    <path d="M80.9510779,193.810701 L95.1301824,186.881606 L35.2819237,64.1967374 L49.4701493,57.2891996 L42.5522388,43.0927212 L0,63.8526457 L6.9145937,78.0341996 L21.1119403,71.1167122 L80.9510779,193.810701 L80.9510779,193.810701 Z M112.427032,178.395392 L127.436153,173.512606 L106.343284,108.605299 L121.353234,103.729146 L142.446103,168.641428 L157.465174,163.764446 L110.396352,18.9308489 L95.3922056,23.8103183 L116.47927,88.7226007 L101.46932,93.6028993 L80.3764511,28.6873004 L65.3656716,33.5667698 L112.427032,178.395392 L112.427032,178.395392 Z M191.740464,3.52466007 L176.140133,5.98885432 L197.500829,140.808138 L181.906302,143.275649 L160.558043,8.45968165 L144.963516,10.9338255 L165.284411,139.220342 C167.324212,152.069473 179.524876,160.930457 192.374793,158.894097 C205.22471,156.863541 214.087065,144.656991 212.062189,131.80786 L191.740464,3.52466007 L191.740464,3.52466007 Z M224.991708,152.872906 L240.776949,153.143205 L241.543118,109.008259 C241.780265,95.5687824 240.973466,68.4676205 240.339967,55.6558004 L240.767828,55.6649209 C244.866501,89.6545504 252.411277,121.353275 257.40796,153.438378 L272.3267,153.703701 L274.996683,1.43855216 L259.218076,1.16742446 L258.442786,45.3023705 C258.21476,58.7418471 259.014925,85.8521295 259.635987,98.6548291 L259.218076,98.6457086 C255.112769,64.6651996 247.56136,32.9581835 242.580431,0.881372302 L227.650083,0.607757194 L224.991708,152.872906 L224.991708,152.872906 Z M283.920398,154.011311 L315.108624,158.946333 C323.749585,160.315237 331.786899,154.460703 333.165837,145.823586 L352.046434,26.5978759 C353.412935,17.9516385 347.566335,9.9023795 338.925373,8.53347482 L307.748756,3.60425719 L283.920398,154.011311 L283.920398,154.011311 Z M320.869818,21.6537338 L336.463516,24.1270486 L317.583748,143.358563 L301.989221,140.881932 L320.869818,21.6537338 L320.869818,21.6537338 Z M431.908789,33.8992536 L401.888889,24.1461187 C393.573798,21.4505953 384.699834,25.9635863 381.992537,34.2806565 L344.685738,149.087897 C341.978441,157.404968 346.508292,166.275901 354.81592,168.979716 L384.841625,178.730363 L389.715589,163.727964 L359.689884,153.964879 L375.912106,104.064117 L398.436153,111.383736 L403.304312,96.3813363 L380.798507,89.0617176 L396.995854,39.1601259 L427.034826,48.9116025 L431.908789,33.8992536 L431.908789,33.8992536 Z M391.931177,181.958192 L458.882255,44.7178291 L487.307629,58.5942608 C495.20398,62.4339928 498.440299,71.873714 494.606965,79.7505126 L469.946932,130.325363 C466.746269,136.860619 461.220564,139.639056 454.992537,136.599441 L438.067993,204.462621 L423.834992,197.521088 L440.782753,129.642155 L436.160862,127.386903 L406.1534,188.899725 L391.931177,181.958192 L391.931177,181.958192 Z M466.150083,65.8773975 L443.090381,113.16555 L457.318408,120.103766 L480.384743,72.8156133 L466.150083,65.8773975 L466.150083,65.8773975 Z" id="Fill-1" fill="#00264A" mask="url(#mask-2)"></path>
                </g>
                <path d="M27.9618574,461 C57.199005,435.159955 90.145937,410.576052 126.252073,387.954716 C133.039801,384.508824 139.83665,381.105218 146.655887,377.727315 C149.474295,376.336023 154.982587,373.665374 161.905473,370.343023 C166.548922,375.566585 171.37728,380.644218 176.368159,385.585043 C124.5199,409.764327 74.8988391,435.019002 27.9618574,461 L27.9618574,461 Z M397.414594,276.386912 C432.351575,268.621218 466.599502,263.452379 499.646766,260.818212 C463.017413,272.043065 425.699005,284.50416 387.88806,298.171649 C391.266169,291.13145 394.423715,283.8707 397.414594,276.386912 L397.414594,276.386912 Z" id="Fill-4" fill="#006FAB"></path>
                <path d="M2.4278607,358.674583 C36.3490879,337.112883 73.9262023,317.469806 114.494196,300.411977 C115.839138,303.131545 117.245439,305.832872 118.655058,308.497718 C116.470149,312.959302 114.304312,317.414254 112.150083,321.894079 C74.4402985,333.531013 37.8200663,345.813844 2.4278607,358.674583 L2.4278607,358.674583 Z M411.901327,233.301653 C442.099502,232.024782 471.454395,232.523094 499.646766,234.720306 C469.282753,239.021867 438.344942,244.018245 406.966003,249.729338 C408.689055,244.363165 410.325871,238.886718 411.901327,233.301653 L411.901327,233.301653 Z" id="Fill-5" fill="#DE433E"></path>
                <path d="M251.057214,185.016878 C308.241294,185.016878 353.079602,198.398315 403.70398,223.625628 C378.933665,316.971495 333.608624,379.672469 251.069652,430.61214 C220.062189,411.437525 193.698176,390.046628 171.669154,365.684933 C181.463516,361.026014 192.50995,355.77675 202.218076,351.192453 C206.150912,351.554786 209.90796,351.752121 213.415423,351.831718 C213.200663,357.21696 211.508292,361.166968 208.794362,363.986032 C210.368988,365.795209 211.975954,367.597752 213.587894,369.370446 C217.862355,365.543151 220.616086,359.893414 220.837479,351.863225 C230.878109,351.696568 240.570481,350.675072 249.567993,348.755621 C249.063847,363.46948 247.010779,374.293031 242.8267,378.588788 C242.675788,378.723937 242.595357,378.835041 242.53068,378.970191 C241.478441,380.08455 240.546434,380.994942 239.739635,381.708829 C243.783582,380.964264 247.758706,380.028169 251.684909,378.927076 C256.731343,368.478295 256.799337,350.170957 256.879768,346.996192 C266.246269,344.644761 274.584577,342.269284 282.086235,339.70891 C282.382255,348.300424 285.815091,356.508878 292.375622,359.536885 C295.330017,357.45741 298.204809,355.241957 300.974295,352.946077 C299.312604,353.192331 288.917081,353.912022 289.077114,337.21155 C311.047264,328.927646 325.343284,318.946498 337.92869,304.042766 C341.252073,296.534933 343.92869,288.663939 345.83665,280.510209 C330.777778,304.258342 316.906302,318.12814 289.828358,328.995635 C290.604478,324.214004 292,318.473061 294.222222,311.623563 C302.123549,308.31282 310.364842,304.367788 315.330846,302.31982 L327.170813,289.88277 C330.150083,278.393423 333.109453,266.891638 336.063847,255.397317 L326.801824,258.282712 L337.694859,246.843113 C339.971808,237.840347 342.22471,228.834264 344.464345,219.831498 C339.012438,220.628299 333.547264,221.440853 328.094527,222.289888 C329.004975,217.794309 329.657546,213.336041 330.001658,208.883577 C327.380597,208.219439 324.73466,207.585149 322.087894,206.994804 C321.533997,211.994498 320.555556,217.536448 319.072968,223.717662 L318.321725,223.837058 C313.201493,224.696043 307.970149,226.375874 303.410448,230.215606 L304.868988,225.788016 C296.099502,227.372496 287.348259,228.987655 278.597015,230.677435 L269.888889,239.833592 L270.178275,239.09566 L273.003317,231.766921 C264.350746,233.538786 255.710614,235.367032 247.072968,237.249173 C245.269486,225.58239 243.466003,215.034942 241.891376,206.502297 C239.447761,206.791665 237.001658,207.120833 234.564677,207.480678 C236.140133,216.114478 237.989221,226.913984 239.81675,238.85604 L233.703151,240.228261 L225.914594,248.425106 C220.465174,242.65929 209.402985,246.295054 202.430348,248.049507 C194.876451,249.968959 187.319237,251.932354 179.78607,253.975347 C177.53068,254.590567 175.291045,255.279579 173.093698,256.030777 C167.435323,247.877047 162.126866,239.477063 157.742123,230.422061 L156.951907,228.751351 C154.665008,229.6833 152.394693,230.643441 150.139303,231.637576 L151.105307,233.64077 C155.376451,242.491804 160.52073,250.763272 166.065506,258.787656 C157.933665,262.406009 150.416252,267.42809 143.911277,274.60261 C143.911277,274.60261 133.325871,285.679047 132.088723,287.03966 C129.338308,290.197013 126.971808,293.550041 124.882255,296.977692 C113.774461,274.615047 104.967662,250.295638 98.358209,223.643869 C148.991708,198.407435 193.845771,185.006928 251.057214,185.016878 L251.057214,185.016878 Z M256.657546,326.319182 C261.912935,323.998428 267.169154,321.709182 272.412106,319.408327 L274.873964,316.842149 C275.913765,317.013781 277.101161,317.051092 278.443615,316.915942 C280.480929,316.577655 282.984245,315.869572 285.711443,314.928502 C283.93864,321.377527 282.873964,326.946838 282.382255,331.796459 C274.89801,334.448038 266.504146,336.934619 256.953566,339.346577 C256.941128,335.180995 256.842454,330.823881 256.657546,326.319182 L256.657546,326.319182 Z M220.233831,342.72448 L225.1733,340.435234 L237.841625,330.244315 L240.665837,322.454576 C242.494196,326.164962 243.490879,327.611806 245.309287,331.352041 L249.46932,329.513016 C249.617745,333.531013 249.684909,337.432101 249.684909,341.161558 C240.53068,343.254299 230.656716,344.373633 220.456053,344.534486 L220.233831,342.72448 L220.233831,342.72448 Z" id="Fill-6" fill="#FFFFFF"></path>
                <path d="M281.865672,204.124333 C293.951907,204.124333 305.866501,204.757793 317.631841,206.025543 C326.574627,207.899392 335.430348,210.167081 344.218076,212.816173 C347.566335,224.548457 349.375622,236.941563 349.375622,249.753383 C349.375622,260.338142 348.156716,270.627728 345.83665,280.510209 C330.777778,304.258342 316.906302,318.12814 289.828358,328.995635 C290.604478,324.214004 292,318.473061 294.222222,311.623563 C302.123549,308.31282 310.364842,304.367788 315.330846,302.31982 L327.170813,289.88277 C330.150083,278.393423 333.109453,266.891638 336.063847,255.397317 L326.801824,258.282712 L337.694859,246.843113 C339.971808,237.840347 342.22471,228.834264 344.464345,219.831498 C339.012438,220.628299 333.547264,221.440853 328.094527,222.289888 C329.004975,217.794309 329.657546,213.336041 330.001658,208.883577 C327.380597,208.219439 324.73466,207.585149 322.087894,206.994804 C321.533997,211.994498 320.555556,217.536448 319.072968,223.717662 L318.321725,223.837058 C313.201493,224.696043 307.970149,226.375874 303.410448,230.215606 L304.868988,225.788016 C296.099502,227.372496 287.348259,228.987655 278.597015,230.677435 L269.888889,239.833592 L270.178275,239.09566 L273.003317,231.766921 C264.350746,233.538786 255.710614,235.367032 247.072968,237.249173 C245.269486,225.58239 243.466003,215.034942 241.891376,206.502297 C255.002488,204.917817 268.320066,204.124333 281.865672,204.124333 L281.865672,204.124333 Z M337.92869,304.042766 C329.497512,323.088036 316.770315,339.782703 300.974295,352.946077 C299.312604,353.192331 288.917081,353.912022 289.077114,337.21155 C311.047264,328.927646 325.343284,318.946498 337.92869,304.042766 L337.92869,304.042766 Z M292.375622,359.536885 C280.147595,368.145811 266.430348,374.767297 251.684909,378.927076 C256.731343,368.478295 256.799337,350.170957 256.879768,346.996192 C266.246269,344.644761 274.584577,342.269284 282.086235,339.70891 C282.382255,348.300424 285.815091,356.508878 292.375622,359.536885 L292.375622,359.536885 Z M239.739635,381.708829 C235.616915,382.472464 231.422886,383.043739 227.182421,383.425971 C222.499171,378.872353 217.963516,374.176951 213.587894,369.370446 C217.862355,365.543151 220.616086,359.893414 220.837479,351.863225 C230.878109,351.696568 240.570481,350.675072 249.567993,348.755621 C249.063847,363.46948 247.010779,374.293031 242.8267,378.588788 C242.675788,378.723937 242.595357,378.835041 242.53068,378.970191 C241.478441,380.08455 240.546434,380.994942 239.739635,381.708829 L239.739635,381.708829 Z M208.794362,363.986032 C205.55141,360.257405 202.374793,356.454155 199.291874,352.570478 L202.218076,351.192453 C206.150912,351.554786 209.90796,351.752121 213.415423,351.831718 C213.200663,357.21696 211.508292,361.166968 208.794362,363.986032 L208.794362,363.986032 Z M150.662521,268.178459 C146.563847,257.802642 142.945274,247.16316 139.843284,236.289862 C143.256219,234.674703 146.689884,233.126705 150.139303,231.637576 L151.105307,233.64077 C155.376451,242.491804 160.52073,250.763272 166.065506,258.787656 C160.613599,261.212881 155.441128,264.270737 150.662521,268.178459 L150.662521,268.178459 Z M156.951907,228.751351 C182.159204,218.428599 207.947761,211.314606 234.564677,207.480678 C236.140133,216.114478 237.989221,226.913984 239.81675,238.85604 L233.703151,240.228261 L225.914594,248.425106 C220.465174,242.65929 209.402985,246.295054 202.430348,248.049507 C194.876451,249.968959 187.319237,251.932354 179.78607,253.975347 C177.53068,254.590567 175.291045,255.279579 173.093698,256.030777 C167.435323,247.877047 162.126866,239.477063 157.742123,230.422061 L156.951907,228.751351 L156.951907,228.751351 Z M256.657546,326.319182 C261.912935,323.998428 267.169154,321.709182 272.412106,319.408327 L274.873964,316.842149 C275.913765,317.013781 277.101161,317.051092 278.443615,316.915942 C280.480929,316.577655 282.984245,315.869572 285.711443,314.928502 C283.93864,321.377527 282.873964,326.946838 282.382255,331.796459 C274.89801,334.448038 266.504146,336.934619 256.953566,339.346577 C256.941128,335.180995 256.842454,330.823881 256.657546,326.319182 L256.657546,326.319182 Z M220.233831,342.72448 L225.1733,340.435234 L237.841625,330.244315 L240.665837,322.454576 C242.494196,326.164962 243.490879,327.611806 245.309287,331.352041 L249.46932,329.513016 C249.617745,333.531013 249.684909,337.432101 249.684909,341.161558 C240.53068,343.254299 230.656716,344.373633 220.456053,344.534486 L220.233831,342.72448 L220.233831,342.72448 Z" id="Fill-7" fill="#DE433E"></path>
                <path d="M253.531509,415.09236 C229.237977,398.638142 207.575456,379.259559 188.854892,357.512133 L199.291874,352.570478 C202.374793,356.454155 205.55141,360.257405 208.794362,363.986032 C210.368988,365.795209 211.975954,367.597752 213.587894,369.370446 C227.45937,384.595054 242.807629,398.551083 259.543947,411.068559 C257.556385,412.427514 255.556385,413.764083 253.531509,415.09236 L253.531509,415.09236 Z M139.046434,279.710092 C131.932007,264.178703 125.95937,248.013025 121.196517,231.290167 C163.567164,211.296365 207.433665,200.50598 254.011609,199.247351 C275.78524,199.434736 296.942786,201.711545 317.631841,206.025543 C305.866501,204.757793 293.951907,204.124333 281.865672,204.124333 C268.320066,204.124333 255.002488,204.917817 241.891376,206.502297 C239.447761,206.791665 236.992537,207.120833 234.564677,207.480678 C207.93864,211.314606 182.159204,218.428599 156.951907,228.751351 C154.665008,229.6833 152.394693,230.643441 150.139303,231.637576 C146.689884,233.126705 143.256219,234.674703 139.843284,236.289862 C142.945274,247.16316 146.563847,257.802642 150.662521,268.178459 C148.310945,270.09791 146.055556,272.23957 143.911277,274.60261 L139.046434,279.710092 L139.046434,279.710092 Z" id="Fill-8" fill="#F4B53C"></path>
                <path d="M86.1733002,218.077874 C140.944444,189.887227 188.996683,174.54571 251.057214,174.54571 C313.115257,174.54571 361.179104,189.887227 415.913765,218.077874 C390.485075,320.559169 341.917081,388.416545 251.057214,442.883363 C216.776119,422.342331 186.811774,398.280784 161.905473,370.343023 C154.982587,373.665374 149.474295,376.336023 146.655887,377.727315 C138.079602,381.985761 129.504975,386.280689 120.966003,390.637802 C111.337479,395.536342 100.647595,402.981989 89.5456053,400.096594 C77.4220564,394.834892 85.4162521,380.08455 89.1268657,371.690371 C98.5497512,350.453692 108.393035,329.371234 118.655058,308.497718 C106.327529,285.359829 96.641791,260.214601 89.8532338,232.92025 L86.1733002,218.077874 L86.1733002,218.077874 Z M251.057214,185.016878 C193.845771,185.006928 148.991708,198.407435 98.358209,223.643869 C104.967662,250.283201 113.774461,274.639921 124.882255,296.977692 C126.971808,293.550041 129.338308,290.197013 132.088723,287.03966 C133.325871,285.679047 143.911277,274.60261 143.911277,274.60261 C150.416252,267.42809 157.933665,262.406009 166.065506,258.787656 C160.52073,250.763272 155.376451,242.491804 151.105307,233.64077 L150.139303,231.637576 C152.394693,230.643441 154.665008,229.6833 156.951907,228.751351 L157.742123,230.422061 C162.126866,239.477063 167.435323,247.877047 173.093698,256.030777 C175.291045,255.279579 177.53068,254.590567 179.78607,253.975347 C187.319237,251.932354 194.876451,249.968959 202.430348,248.049507 C209.402985,246.295054 220.465174,242.65929 225.914594,248.425106 L233.703151,240.228261 L239.81675,238.85604 C237.989221,226.913984 236.140133,216.114478 234.564677,207.480678 C237.001658,207.120833 239.447761,206.791665 241.891376,206.502297 C243.466003,215.034942 245.269486,225.58239 247.072968,237.249173 C255.710614,235.367032 264.350746,233.538786 273.003317,231.766921 L270.178275,239.09566 L269.888889,239.833592 L278.597015,230.677435 C287.348259,228.987655 296.099502,227.372496 304.868988,225.788016 L303.410448,230.215606 C307.970149,226.375874 313.201493,224.696043 318.321725,223.837058 L319.072968,223.717662 C320.555556,217.536448 321.533997,211.994498 322.087894,206.994804 C324.73466,207.585149 327.380597,208.219439 330.001658,208.883577 C329.657546,213.336041 329.004975,217.794309 328.094527,222.289888 C333.547264,221.440853 339.012438,220.628299 344.464345,219.831498 C342.22471,228.834264 339.971808,237.840347 337.694859,246.843113 L326.801824,258.282712 L336.063847,255.397317 C333.109453,266.891638 330.150083,278.393423 327.170813,289.88277 L315.330846,302.31982 C310.364842,304.367788 302.123549,308.31282 294.222222,311.623563 C292,318.473061 290.604478,324.214004 289.828358,328.995635 C316.906302,318.12814 330.777778,304.258342 345.83665,280.510209 C343.92869,288.663939 341.252073,296.534933 337.92869,304.042766 C325.343284,318.946498 311.047264,328.927646 289.077114,337.21155 C288.917081,353.912022 299.312604,353.192331 300.974295,352.946077 C298.204809,355.241957 295.330017,357.45741 292.375622,359.536885 C285.815091,356.508878 282.382255,348.300424 282.086235,339.70891 C274.584577,342.269284 266.246269,344.644761 256.879768,346.996192 C256.799337,350.170957 256.731343,368.478295 251.684909,378.927076 C247.758706,380.028169 243.783582,380.964264 239.739635,381.708829 C240.546434,380.994942 241.478441,380.08455 242.53068,378.970191 C242.595357,378.835041 242.675788,378.723937 242.8267,378.588788 C247.010779,374.293031 249.063847,363.46948 249.567993,348.755621 C240.570481,350.675072 230.878109,351.696568 220.837479,351.863225 C220.616086,359.893414 217.862355,365.543151 213.587894,369.370446 C211.975954,367.597752 210.368988,365.795209 208.794362,363.986032 C211.508292,361.166968 213.200663,357.21696 213.415423,351.831718 C209.90796,351.752121 206.150912,351.554786 202.218076,351.192453 C192.50995,355.77675 181.463516,361.026014 171.669154,365.684933 C193.698176,390.046628 220.062189,411.437525 251.069652,430.61214 C333.608624,379.672469 378.933665,316.971495 403.70398,223.625628 C353.079602,198.398315 308.241294,185.016878 251.057214,185.016878 L251.057214,185.016878 Z M256.657546,326.319182 C256.842454,330.823881 256.941128,335.180995 256.953566,339.346577 C266.504146,336.934619 274.89801,334.448038 282.382255,331.796459 C282.873964,326.946838 283.93864,321.377527 285.711443,314.928502 C282.984245,315.869572 280.480929,316.577655 278.443615,316.915942 C277.101161,317.051092 275.913765,317.013781 274.873964,316.842149 L272.412106,319.408327 C267.169154,321.709182 261.912935,323.998428 256.657546,326.319182 L256.657546,326.319182 Z M220.233831,342.72448 L220.456053,344.534486 C230.656716,344.373633 240.53068,343.254299 249.684909,341.161558 C249.684909,337.432101 249.617745,333.531013 249.46932,329.513016 L245.309287,331.352041 C243.490879,327.611806 242.494196,326.164962 240.665837,322.454576 L237.841625,330.244315 L225.1733,340.435234 L220.233831,342.72448 L220.233831,342.72448 Z" id="Fill-9" fill="#00264A"></path>
                <path d="M180.737148,258.271104 C167.863184,261.766745 156.36733,267.279674 147.16335,277.452353 C141.886401,283.500905 138.120232,290.436633 134.606136,297.53736 C124.304312,318.459795 114.439469,339.573761 104.989221,360.872624 C102.521559,366.428669 94.9494196,379.936135 103.010779,383.438408 C111.927861,385.7517 123.085406,378.257133 130.960199,374.244112 C139.510779,369.899435 148.089552,365.59207 156.680763,361.32782 C171.321725,354.072874 184.447761,345.25998 193.34743,331.100813 C196.892206,325.119421 199.529022,318.712682 202.131841,312.312576 C207.717247,298.553052 213.415423,284.805966 219.222222,271.106969 C221.39801,265.968809 225.194859,259.501543 223.985075,253.894921 C221.538972,246.368847 208.825041,250.96641 203.295191,252.344435 C195.777778,254.258912 188.251244,256.228112 180.737148,258.271104 L180.737148,258.271104 Z M164.46932,336.854192 C157.656716,339.893808 150.874793,342.946689 144.086235,346.072534 C153.930348,323.260496 164.136816,300.601849 174.792703,278.122295 C180.752902,276.240155 186.73466,274.38123 192.737977,272.54718 C182.983416,293.851847 173.573798,315.290835 164.46932,336.854192 L164.46932,336.854192 Z M280.966833,234.702065 C271.532338,247.021378 262.220564,259.440187 253.014925,271.937764 C257.322554,260.498165 261.666667,249.076808 266.054726,237.686957 C256.288557,239.686835 246.537313,241.815228 236.804312,244.030682 C234.277778,249.914236 231.764511,255.809397 229.286899,261.710363 C231.376451,261.125822 233.496683,260.541281 235.586235,259.969176 C227.927032,278.504527 220.456053,297.112842 213.138474,315.752664 C210.129353,323.33429 207.147595,330.921719 204.171642,338.503345 C213.945274,333.888371 223.718076,329.315682 233.527363,324.805178 C237.967662,312.547221 242.445274,300.300872 246.9801,288.086031 C251.143449,296.423829 255.266998,304.768261 259.365672,313.150004 C265.679934,310.325135 272.019071,307.550014 278.35738,304.786502 C274.498342,295.986874 270.577944,287.205487 266.633499,278.429905 C273.655058,267.78379 280.720564,257.174986 287.87728,246.603493 C289.889718,246.129227 291.896352,245.649156 293.902156,245.187327 C295.415423,240.603031 296.91791,236.018734 298.425373,231.428633 C292.597844,232.479978 286.776119,233.566977 280.966833,234.702065 L280.966833,234.702065 Z M318.814262,228.222362 C313.558872,229.098759 308.814262,230.77859 304.893035,234.720306 C301.681592,238.184439 299.975954,242.307736 298.554726,246.70216 C294.369818,259.833198 290.160862,272.978331 285.963516,286.128439 C284.314262,291.316347 281.630182,300.780942 289.963516,300.079493 C292.794362,299.61186 295.477612,298.442777 298.136816,297.304372 C306.554726,293.716698 314.999171,290.171309 323.461028,286.682302 C325.620232,278.429905 327.75539,270.171703 329.878939,261.901894 C325.430348,263.291527 320.999171,264.701888 316.549751,266.135466 C315.503317,269.851656 314.46932,273.59355 313.436153,277.304766 C310.345771,278.443171 307.268657,279.562505 304.179934,280.70091 C308.08209,267.365905 311.983416,254.043336 315.860697,240.707502 C318.592869,240.117156 321.330846,239.532615 324.069652,238.966315 C323.417081,241.305309 322.789386,243.649279 322.131012,245.987444 C326.119403,245.033937 330.112769,244.08043 334.101161,243.169209 C335.627695,237.163772 337.140962,231.148385 338.635987,225.142119 C332.033167,226.111379 325.411277,227.141996 318.814262,228.222362 L318.814262,228.222362 Z" id="Fill-10" fill="#FFFFFF"></path>
                <path d="M354.348259,216.031565 C358.354892,217.348234 362.10199,218.680656 365.844113,220.090189 C375.23466,223.579196 383.543118,227.141996 390.411277,230.422061 C369.210614,303.17466 325.78607,364.189171 264.528192,407.61023 L259.538143,411.068559 C241.598673,397.64152 231.010779,387.093243 231.010779,387.093243 L239.453566,385.702781 C265.077114,381.431897 289.766998,369.838079 310.174129,350.786176 C344.962687,318.331279 359.087065,271.993317 351.923715,228.323516 C351.751244,227.336014 351.554726,226.348513 351.382255,225.360182 L351.308458,224.92986 L351.221393,224.474664 L351.110282,223.98879 L351.024876,223.523644 L350.932836,223.019529 L350.828358,222.554383 L350.710614,222.02871 L350.600332,221.523766 L350.495025,221.05945 L350.421227,220.656489 L350.280265,220.099309 L350.16335,219.576124 L350.064677,219.185601 L349.990879,218.791761 L349.893035,218.409529 C349.498342,216.844119 349.154229,215.511696 348.78524,214.222388 C350.667496,214.821854 352.525705,215.428782 354.348259,216.031565 L354.348259,216.031565 Z M355.024876,216.880601 C358.772803,218.169908 362.631841,219.520572 366.310945,220.901914 C362.563847,219.483261 358.797678,218.151667 355.024876,216.880601 L355.024876,216.880601 Z" id="Fill-11" fill="#006FAB"></path>
            </g>
        </g>
    </g>
</svg>