<?xml version="1.0" encoding="UTF-8" standalone="no"?>
<svg width="500px" height="500px" viewBox="0 0 500 500" version="1.1" xmlns="http://www.w3.org/2000/svg" xmlns:xlink="http://www.w3.org/1999/xlink">
    <!-- Generator: Sketch 39.1 (31720) - http://www.bohemiancoding.com/sketch -->
    <title>ORL</title>
    <desc>Created with Sketch.</desc>
    <defs>
        <polygon id="path-1" points="0.391493056 205.838091 362.055523 205.838091 362.055523 0.563809069 0.391493056 0.563809069"></polygon>
    </defs>
    <g id="NBA" stroke="none" stroke-width="1" fill="none" fill-rule="evenodd">
        <g id="ORL">
            <g id="OMagic_Global_pms" transform="translate(0.000000, 69.000000)">
                <g id="Group-3" transform="translate(65.104167, 158.109785)">
                    <mask id="mask-2" fill="white">
                        <use xlink:href="#path-1"></use>
                    </mask>
                    <g id="Clip-2"></g>
                    <path d="M136.528646,95.5035227 C163.390625,91.380506 190.208333,92.5906539 213.679688,102.508134 L216.544271,96.2132792 C178.559896,83.9797518 130.822917,84.6069785 95.2638889,104.091838 L105.392361,80.5317422 C60.6953125,92.6245346 30.6258681,117.849126 0.391493056,143.837337 C22.4331597,91.7262625 70.3585069,48.8819857 124.552951,33.3377088 L121.796875,41.9850979 C169.256944,26.483389 221.349826,23.5461957 263.528646,30.516926 L253.646701,17.6570406 L277.849826,23.8250597 L293.405382,0.563809069 L299.55816,29.3345776 L323.356771,37.0541575 C323.356771,37.0541575 306.020833,44.3141766 306.853299,44.6590644 C396.965278,81.8079141 368.121528,205.23432 282.435764,205.887609 C239.091146,206.249871 205.467014,167.056019 206.934028,126.052592 C184.902778,111.539504 162.795139,104.554874 136.528646,95.5035227" id="Fill-1" fill="#848683" mask="url(#mask-2)"></path>
                </g>
                <path d="M184.702257,88.9958282 L184.732639,88.6570215 C184.905382,85.8970501 186.399306,82.3647733 189.162326,80.3354081 C191.871528,78.2930119 194.71875,77.7491838 197.44184,77.5458998 C197.447917,77.5458998 199.891493,77.3921337 202.501736,77.227074 L210.247396,76.7345012 L210.247396,132.514243 L203.465278,132.980754 C199.404514,133.262224 196.905382,133.446396 192.435764,133.723523 L184.702257,134.207408 L184.702257,88.9958282 L184.702257,88.9958282 Z M146.828993,87.4755418 C146.804688,77.8013079 149.632812,69.0201337 155.480903,62.5723819 C161.307292,56.0994368 169.750868,52.4238186 179.335069,51.5655084 C197.666667,49.8619189 216.307292,48.8168305 234.738715,48.4519618 L234.738715,48.4571742 L248.345486,48.1531169 L248.345486,204.746959 L248.130208,218.234072 L234.559896,217.995169 C232.179688,217.98822 214.094618,218.629346 210.741319,218.861298 C210.542535,218.871723 210.486111,218.877804 210.342882,218.893442 L195.680556,220.207838 L195.680556,219.936792 L186.518229,220.352048 C185.276042,220.397222 163.448785,222.608153 162.382812,222.814043 L146.863715,225.26127 L146.828993,87.4755418 L146.828993,87.4755418 Z" id="Fill-4" fill="#848683"></path>
                <path d="M482.716146,254.681852 C482.699653,254.667952 464.530382,249.121079 461.789062,248.253212 C461.618056,248.201088 461.600694,248.201088 461.462674,248.155045 C461.449653,248.15157 461.434028,248.145489 461.421875,248.142883 C453.225694,245.795561 445.845486,243.74969 440.432292,242.285871 L430.652778,239.861232 C421.414931,237.615551 413.609375,233.158072 408.284722,226.443618 C402.934896,219.740458 400.385417,211.136506 400.40191,201.715943 L400.40191,99.9279905 C400.34809,89.9253747 403.388889,80.8236372 410.594618,75.1881527 L410.592882,75.187284 C415.205729,71.5107971 421.046875,69.8037327 427.028646,69.8350072 C430.240451,69.8350072 433.525174,70.2884869 436.783854,71.0833795 C438.001736,71.3709308 441.56684,72.3777947 447.194444,73.9519427 C452.707465,75.5043723 459.806424,77.5137566 466.830729,79.5014224 C480.872396,83.4837041 494.596354,87.3964869 494.596354,87.3964869 L499.883681,88.9028735 L499.883681,158.068955 L455.574653,144.41852 L454.871528,139.921947 C454.868056,139.90631 453.609375,131.885279 452.4375,124.434138 L452.446181,201.485728 L452.446181,201.655131 L452.439236,201.839303 C452.446181,201.86884 452.449653,201.900115 452.456597,201.936601 C452.480035,202.104267 452.552083,202.304945 452.637153,202.464792 C452.702257,202.478692 452.439236,202.576859 453.850694,203.034683 C453.850694,203.034683 456.732639,203.783532 458.633681,204.304773 C459.818576,199.056745 461.039931,193.691437 461.042535,193.685356 L462.774306,186.083924 L499.872396,197.224582 L500,259.876888 L482.716146,254.681852" id="Fill-5" fill="#848683"></path>
                <path d="M0,108.875093 C0,101.019122 3.65017361,94.6000382 7.89930556,90.1859952 C12.2300347,85.7189594 17.1258681,82.8781957 21.6215278,81.4004773 C41.9748264,74.8927828 70.7439236,70.3944726 72.1770833,70.1547017 L79.9496528,68.94021 C83.1831597,67.0984916 86.7430556,65.7180716 90.5451389,64.9249165 C100.56684,62.82779 130.850694,57.1167255 132.233507,56.8630549 L132.233507,56.8647924 L148.019097,53.9215179 L147.973958,213.154578 L147.719618,225.015418 L135.97309,226.38715 C134.985243,226.449699 112.935764,230.196554 111.918403,230.476286 L95.5130208,234.170148 L95.5130208,208.446033 L49.7560764,219.292191 L49.7560764,235.004134 L49.6015625,245.385518 L39.5902778,247.857069 C39.4019097,247.897031 36.0954861,248.873489 32.5434028,249.962014 C28.9131944,251.075733 24.6796875,252.38231 21.6666667,253.336181 C19.7248264,253.940821 18.09375,254.480305 18.0251736,254.515055 L0,261.129604 L0,108.875093" id="Fill-6" fill="#848683"></path>
                <path d="M384.802951,229.97937 C384.802951,229.97937 384.744792,229.966339 384.539063,229.92464 C384.326389,229.884678 384.027778,229.829947 383.664931,229.75958 C382.950521,229.627532 381.990451,229.458129 380.882812,229.268745 C378.664062,228.881289 375.846354,228.406091 373.023438,227.940449 C367.487847,227.018721 361.500868,226.069193 361.098958,226.035313 L355.603299,225.435885 L349.107639,224.724391 L349.107639,55.5886205 L363.585938,56.7301384 C365.087674,56.8873795 368.306424,57.4181766 372.842014,58.1487828 C377.238715,58.8654893 382.352431,59.7220621 386.019097,60.3588449 C388.557292,60.804506 390.049479,61.0607828 391.210938,61.325747 L401.287326,63.8911217 L401.283854,217.052592 L401.088542,233.595914 L384.802951,229.97937" id="Fill-7" fill="#848683"></path>
                <path d="M333.472222,222.454387 C332.026042,222.151198 322.901042,221.282463 313.414062,220.546644 C304.328993,219.827332 294.355035,219.127131 288.022569,218.734463 L281.007812,218.472974 C271.265625,218.110711 262.612847,215.009327 256.565972,208.757909 C250.5,202.519523 247.697917,193.767885 247.728299,184.082358 L247.728299,78.1574893 C247.688368,69.7116468 250.224826,61.8652315 255.901042,56.4087064 L255.90625,56.4087064 C263.15191,49.5378807 272.025174,48.9080477 277.481771,48.8680859 C278.989583,48.8680859 280.282986,48.9332411 281.141493,48.9732029 L282.036458,49.0044773 C282.388889,48.9949212 282.724826,48.992315 283.070312,48.992315 C284.934028,48.9975274 287.336806,49.0991695 290.771701,49.3146158 L294.669271,49.4518759 L294.597222,49.5682864 C298.414931,49.8349881 303.234375,50.1989881 309.429688,50.6724487 C330.128472,52.2761337 335.578993,52.835599 338.739583,53.4854129 C339.777778,53.6695847 341.155382,54.2090692 341.607639,54.4505776 L349.326389,58.1878759 L349.264757,66.6745489 L349.264757,113.332573 L305.439236,107.670158 L304.342014,102.667981 C304.342014,102.657556 303.104167,97.0351026 302.021701,92.1119809 C301.469618,92.0746253 300.795139,92.0320573 300.138889,91.9894893 L300.28125,112.188449 L300.279514,116.532124 L302.957465,116.430482 C303.019097,116.428745 303.073785,116.426138 303.123264,116.42527 L303.146701,116.42527 C303.205729,116.422663 303.257812,116.421795 303.302951,116.419189 L303.50434,116.415714 C304.783854,116.430482 306.399306,116.566005 309.085069,116.769289 C311.682292,116.975179 314.961806,117.259255 318.388889,117.564181 C325.25,118.177508 332.616319,118.893346 336.259549,119.314683 C337.390625,119.458893 337.866319,119.489298 338.908854,119.697795 L349.381076,122.014711 L349.256076,225.396792 L333.472222,222.454387" id="Fill-8" fill="#848683"></path>
                <path d="M194.894097,123.342138 C196.728299,123.223122 198.297743,123.112792 200.063368,122.992907 L200.063368,87.5971647 C198.878472,87.6718759 198.071181,87.7196563 198.083333,87.7196563 C196.480035,87.8239045 195.649306,88.1879045 195.380208,88.4120382 C195.142361,88.6326969 195.012153,88.7247828 194.894097,89.5292315 L194.894097,123.342138 L194.894097,123.342138 Z M151.202257,87.4755418 C150.961806,69.6334606 162.06684,57.3200095 179.741319,55.9239523 C197.962674,54.2255752 216.500868,53.190043 234.815972,52.8312554 L243.970486,52.6271026 L243.970486,204.675723 L243.826389,213.787017 L234.680556,213.602845 L234.677083,213.602845 C232.313368,213.593289 211.541667,214.340401 209.954861,214.514148 L200.063368,215.42632 L200.063368,156.050883 C198.236111,156.173375 196.651042,156.281967 194.891493,156.404458 L194.888021,207.075169 L194.763889,215.596592 L186.247396,215.984916 C184.595486,216.048334 163.302083,218.214959 161.698785,218.48948 L151.241319,220.138339 L151.202257,87.4755418 L151.202257,87.4755418 Z" id="Fill-9" fill="#262420"></path>
                <path d="M484.000868,250.492811 C483.997396,250.487599 467.932292,245.56969 463.766493,244.281356 C463.336806,244.14757 463.148438,244.09284 462.960938,244.032897 L462.861979,244.005098 C453.842014,241.41453 445.796875,239.192305 440.22309,237.694606 L440.217014,237.709375 L431.698785,235.608773 C414.524306,231.584792 404.603299,219.14885 404.794271,201.719418 L404.794271,99.9245155 C404.777778,90.6620621 407.486979,83.1622721 413.322917,78.6057566 L413.322917,78.607494 C417.091146,75.6329451 421.825521,74.2021384 427.048611,74.2116945 C429.828993,74.2116945 432.772569,74.6052315 435.825521,75.348 C438.676215,76.0134511 493.342882,91.5898711 493.412326,91.6089833 L495.52691,92.206673 L495.52691,152.121594 L459.476562,141.030453 L459.193576,139.239122 C459.193576,139.239122 456.440972,121.687198 455.294271,114.362893 C453.138889,113.725241 451.474826,113.238749 450.34375,112.912974 L450.267361,112.942511 L449.350694,112.686234 L448.070312,112.323971 C448.064236,112.321365 448.061632,112.321365 448.05816,112.321365 L448.073785,201.549146 L448.060764,201.945289 C448.076389,202.276277 448.190104,203.420401 448.716146,204.418578 C449.385417,205.710387 450.463542,206.627771 452.698785,207.258473 C452.698785,207.258473 457.539062,208.515532 461.891493,209.776067 C463.255208,203.70969 465.305556,194.65747 465.305556,194.65747 L465.994792,191.616897 L495.500868,200.487551 L495.617188,253.985995 L484.000868,250.492811" id="Fill-10" fill="#262420"></path>
                <path d="M4.37934028,108.872487 C4.58333333,95.8136611 15.7335069,87.9533461 22.9583333,85.5686683 C42.7829861,79.2182148 71.5572917,74.6903675 72.8498264,74.4818711 L81.4479167,73.1335943 C84.4782986,71.3101193 87.8350694,69.9557613 91.4409722,69.2069117 C101.340278,67.1419284 131.710069,61.4117518 133.03125,61.168506 L133.032986,61.1728496 L143.642361,59.1964773 L143.592882,213.133728 L143.4375,221.112191 L135.528646,222.01915 C133.904514,222.185947 112.554688,225.807704 110.969618,226.201241 L99.8993056,228.697117 L99.8993056,104.142224 C99.8020833,104.157862 99.7213542,104.170893 99.6571181,104.180449 C96.546875,105.156907 95.9756944,105.755465 95.2829861,109.265155 L95.2829861,109.387647 C95.2829861,117.704916 95.2717014,201.702912 95.2717014,201.702912 L95.2717014,204.001585 L51.8871528,214.281327 L51.8871528,115.014444 C51.5703125,115.088286 51.3177083,115.15431 51.1545139,115.204697 C49.5980903,115.664258 47.9635417,116.39747 46.9270833,117.286186 C45.8784722,118.213995 45.4157986,118.977613 45.3854167,120.305041 L45.3854167,234.939847 L45.2760417,241.943589 L38.5251736,243.608086 C37.0434028,243.971217 17.9010417,249.858635 16.5217014,250.400726 L4.37934028,254.860811 L4.37934028,108.872487" id="Fill-11" fill="#262420"></path>
                <path d="M385.837674,225.709537 C384.349826,225.332506 363.190104,221.84801 361.578125,221.682081 L356.076389,221.080916 L353.482639,220.795103 L353.482639,60.3275704 L363.193576,61.0937947 C365.605903,61.3248783 387.788194,65.0274272 390.131944,65.5721241 L396.914063,67.2956945 L396.907118,216.99873 L396.778646,228.144601 L385.837674,225.709537" id="Fill-12" fill="#262420"></path>
                <path d="M289.97309,87.6406014 C289.97309,87.6406014 289.97309,87.6423389 289.970486,87.6423389 C289.97309,87.6327828 289.97309,87.6327828 289.97309,87.6406014 L289.97309,87.6406014 Z M295.892361,178.95074 C295.869792,179.041957 295.967882,180.239943 296.31684,180.788983 C296.545139,181.153852 296.955729,181.619494 299.087674,181.80801 C299.087674,181.80801 300.007812,181.872296 301.304688,181.962644 L301.304688,151.867055 C299.458333,151.728926 297.378472,151.572554 297.350694,151.572554 L295.900174,151.458749 L295.892361,178.95074 L295.892361,178.95074 Z M334.297743,218.156754 C330.061632,217.32885 301.380208,215.157881 288.323785,214.362119 L281.179688,214.099761 C272.203993,213.748792 264.801215,210.96189 259.71441,205.708649 C254.617188,200.452802 252.091146,192.986024 252.105903,184.062377 L252.105903,78.1600955 C252.086806,70.4917709 254.313368,64.0153508 258.959201,59.5552649 C264.815104,53.9432363 272.434896,53.2604105 277.507812,53.2439045 C278.883681,53.2439045 280.087674,53.2986348 281.021701,53.3446778 L282.015625,53.3872458 C282.361111,53.3742148 282.724826,53.3690024 283.121528,53.3690024 C286.966146,53.3742148 293.945312,53.8780811 309.096354,55.0317613 C329.700521,56.6163341 335.321181,57.236611 337.8125,57.7665394 C338.634549,57.9263866 339.355903,58.2191504 339.6875,58.3850788 L344.924479,60.9078854 L344.90191,66.6745489 L344.90191,108.352115 L309.078125,103.71915 L308.636285,101.726272 C308.636285,101.726272 306.755208,93.2335179 305.592882,87.973327 C304.912326,87.9203341 304.282986,87.8699475 303.689236,87.8273795 C303.420139,87.8013174 297.93316,87.4581671 297.894097,87.4581671 C297.625,87.4390549 297.365451,87.4329737 297.105903,87.4329737 C296.539931,87.4208115 296.088542,87.4790167 295.793403,87.537222 C295.789931,87.609327 295.788194,87.6849069 295.788194,87.7561432 C295.788194,87.7561432 295.753472,88.7100143 295.743924,88.9671599 C295.743924,88.9671599 295.753472,89.9062625 295.753472,89.9114749 L295.909722,112.183236 L295.90625,121.07474 L303.234375,120.804563 C303.380208,120.789795 303.452257,120.79327 303.486111,120.796745 L303.519965,120.796745 C305.309896,120.805432 313.037326,121.470883 320.985243,122.195408 C328.971354,122.940783 336.360243,123.649671 337.961806,123.973709 L345.009549,125.533088 L344.897569,220.118358 L334.297743,218.156754 L334.297743,218.156754 Z" id="Fill-13" fill="#262420"></path>
                <path d="M204.985243,82.3665107 L204.985243,127.590253 C201.239583,127.84653 194.008681,128.331284 189.972222,128.591036 L189.972222,89.0879141 C190.371528,86.3783294 191.350694,83.3864057 197.755208,82.801747 C197.751736,82.801747 201.721354,82.5567637 204.985243,82.3665107 L204.985243,82.3665107 Z M234.934896,59.1869212 L234.934896,59.1869212 L234.90625,57.7343962 C216.709201,58.1079523 198.306424,59.1530406 180.179688,60.8123246 C164.744792,62.1067399 155.967014,71.8131169 156.115451,87.4790167 L156.151042,214.448993 L160.93316,213.59937 C162.242188,213.38653 184.693576,211.1061 186.02691,211.066138 L188.559896,210.998377 L189.972222,210.958415 L189.972222,151.819274 C193.692708,151.552573 200.97309,151.058263 204.985243,150.784611 L204.985243,210.118348 L209.498264,209.615351 C210.727431,209.445947 231.488715,208.670167 234.544271,208.675379 L234.705729,208.675379 L234.71441,208.675379 L234.772569,208.684936 L237.514757,208.797871 L239.016493,208.859551 L239.046007,204.640974 L239.046007,57.6501289 L234.912326,57.7343962 L234.934896,59.1869212 L234.934896,59.1869212 Z" id="Fill-14" fill="#FFFFFF"></path>
                <path d="M490.579861,204.147532 L469.606771,197.841384 L469.274306,199.363408 C469.268229,199.378177 466.703993,210.798568 465.53559,215.976229 C457.125,213.490778 453.439236,212.410072 451.432292,212.055628 L451.435764,212.026091 C447.130208,210.834186 445.255208,208.445165 444.307292,206.632115 C443.239583,204.521957 443.123264,202.417012 443.126736,201.846253 L443.126736,111.495198 C443.106771,111.032162 443.274306,109.114864 444.012153,108.134062 C444.480035,107.525079 445.134549,107.16716 446.521701,107.141967 C447.269965,107.141967 448.205729,107.277489 449.300347,107.584153 L449.498264,107.636277 L449.643229,107.636277 L449.72309,107.651045 C450.047743,107.709251 453.551215,108.703084 459.68316,110.534377 C460.496528,115.734625 463.701389,136.296716 463.704861,136.321041 L463.840278,137.217575 L490.583333,145.465346 L490.583333,95.9804582 L489.532118,95.6816134 C489.490451,95.672926 437.375,80.7715131 434.733507,80.1633986 C431.997396,79.4823103 429.421875,79.135685 427.033854,79.135685 C422.855903,79.1296038 419.215278,80.2216038 416.361111,82.4724964 C411.823785,86.0247542 409.696181,92.0633317 409.703125,99.9401527 L409.703125,201.715943 C409.590278,216.967456 417.685764,227.145556 432.711806,230.767313 L432.996528,230.90631 L433.574653,230.915866 C435.321181,231.204286 449.707465,235.105776 464.190972,239.280916 L485.428819,245.771236 L490.688368,247.373184 L490.579861,204.147532" id="Fill-15" fill="#FFFFFF"></path>
                <path d="M92.4635417,74.0327351 C86.9288194,75.187284 82.078125,77.9455179 78.296875,81.857432 L78.296875,78.607494 L73.6059028,79.3502625 C72.3611111,79.5405155 43.8402778,84.0353508 24.4505208,90.2659189 C18.1553819,92.3456706 9.3984375,99.1330979 9.28819444,108.866406 L9.28819444,247.9118 L14.8168403,245.755599 C15.9626736,245.336 36.1050347,239.129757 37.3706597,238.822224 L39.3289931,238.362663 L40.4548611,238.102043 L40.4548611,120.320678 C40.390625,114.35073 46.0182292,111.645489 49.7717014,110.487465 C51.0173611,110.108697 54.0355903,109.542282 56.7855903,109.073165 L56.7855903,208.043809 L90.3550347,200.119208 L90.3550347,196.901413 C90.3550347,188.401709 90.3784722,117.876057 90.3784722,109.305986 L90.3784722,108.821232 C91.1336806,103.405537 93.5173611,100.679446 98.5590278,99.372 C98.6189236,99.3641814 98.5703125,99.3641814 98.7265625,99.3450692 C99.515625,99.2182339 102.287326,98.7795227 104.824653,98.3764296 L104.824653,222.661146 L109.868056,221.376286 C111.158854,221.049642 133.658854,217.250663 135.025174,217.10211 L137.313368,216.912726 L138.622396,216.798921 L138.689236,213.101585 L138.713542,65.1299379 L133.938368,66.0073604 C133.938368,66.0073604 102.271701,71.9486396 92.4635417,74.0327351" id="Fill-16" fill="#FFFFFF"></path>
                <path d="M362.788194,66.0073604 L359.977431,65.7979952 L358.416667,65.6781098 L358.416667,216.463589 L359.737847,216.581737 L362.113715,216.79284 C363.381076,216.874501 385.733507,220.584 386.959201,220.903695 L391.967882,222.142511 L391.992188,216.970062 L391.992188,71.1146539 L388.925347,70.3492983 C387.002604,69.8784439 364.771701,66.1932697 362.788194,66.0073604" id="Fill-17" fill="#FFFFFF"></path>
                <path d="M303.637153,125.71726 L303.592014,125.71726 C303.563368,125.713785 303.511285,125.713785 303.397569,125.73116 L300.967014,125.80674 L299.564236,125.857126 L299.564236,146.790167 L300.907986,146.89094 C300.914931,146.89094 304.011285,147.119418 306.203125,147.290558 L306.203125,187.223704 C302.955729,187.015208 298.750868,186.728525 298.74566,186.728525 C295.298611,186.468773 293.264757,185.294243 292.068576,183.277041 C291.085069,181.595169 290.963542,179.67179 290.972222,178.953346 L290.980903,112.182368 L290.835069,89.9488305 C290.835069,89.9149499 290.815972,89.0392649 290.815972,89.0392649 L290.815972,88.7899379 L290.875868,87.7213938 C290.87066,86.5381766 291.094618,85.1482005 291.971354,84.1700048 C292.84375,83.1700907 294.460069,82.5011647 297.133681,82.5011647 C297.487847,82.5011647 297.849826,82.5063771 298.226563,82.5376516 L298.257813,82.5419952 L298.346354,82.55242 L298.730903,82.5376516 C299.409722,82.5324391 303.21441,82.8104344 309.613715,83.3542625 C310.527778,87.5294033 312.901042,98.2747876 312.901042,98.28 L313.12066,99.2747017 L339.980903,102.751379 L339.980903,66.6519618 L339.996528,64.9996277 L340.006076,64.1152554 L337.690972,62.8712267 C336.563368,62.4481527 335.533854,62.0033604 308.707465,59.958358 C292.513889,58.7160668 285.881076,58.2912554 282.815972,58.2912554 C282.5,58.2912554 282.220486,58.2947303 281.963542,58.3042864 L280.800347,58.2521623 C279.846354,58.2069881 278.679688,58.1470453 277.384549,58.1470453 C272.940104,58.1574702 266.860243,58.7803532 262.377604,63.1023103 L262.377604,63.0962291 C258.744792,66.5833317 257.021701,71.7583866 257.027778,78.141852 L257.027778,184.062377 C256.851563,199.521518 265.810764,208.736191 281.368056,209.175771 L281.647569,209.175771 L281.997396,209.133203 C281.974826,209.135809 282.006076,209.135809 282.071181,209.135809 C286.092882,209.121041 329.126736,212.156401 335.180556,213.301394 L339.980903,214.194453 L340.078125,129.479752 L336.881944,128.763045 C334.710938,128.326072 306.611111,125.742453 303.637153,125.71726 L303.637153,125.71726 Z" id="Fill-18" fill="#FFFFFF"></path>
                <path d="M486.552951,207.157699 L472.618056,202.993852 L468.548611,221.12001 C459.493924,218.4278 450.399306,215.817251 450.377604,215.933661 C444.756944,214.400344 442.028646,211.040076 440.723958,208.478177 C439.229167,205.592239 439.061632,202.840955 439.076389,201.795866 C439.076389,201.705518 439.076389,201.565652 439.110243,201.448372 L439.076389,201.448372 C439.076389,200.549232 439.061632,111.633327 439.061632,111.510835 C439.061632,110.46401 439.229167,107.815236 440.742188,105.773709 C442.052083,103.996277 444.793403,102.140659 450.34809,103.65747 C450.399306,103.559303 456.291667,105.284611 463.291667,107.388687 L467.462674,134.084048 L486.552951,139.963647 L486.552951,99.1878282 C486.552951,99.1878282 436.244792,84.6695274 433.828993,84.1083246 C420.546875,80.8357995 413.758681,86.3392363 413.758681,99.9427589 L413.758681,201.719418 C413.758681,215.351609 420.546875,223.64021 433.828993,226.884067 C433.881076,226.586091 450.684028,231.200811 465.326389,235.385508 L486.615451,241.891465 L486.552951,207.157699 L486.552951,207.157699 Z M74.2248264,98.4103103 L74.2248264,83.3473126 C74.2248264,83.3473126 44.9435764,87.9550835 25.7057292,94.1300525 C20.6319444,95.7537184 13.3385417,101.551656 13.3385417,108.876831 L13.3385417,241.994845 C14.8324653,241.41453 34.8819444,235.249986 36.4227431,234.892067 L36.4227431,120.320678 C36.4227431,112.302253 42.9913194,108.305203 48.5859375,106.621594 C51.6675347,105.68336 60.8515625,104.29599 60.8515625,104.29599 L60.8515625,202.923484 L86.2881944,196.899675 C86.2881944,196.899675 86.3116319,108.84295 86.3116319,108.491981 C87.1449653,101.5838 90.8263889,97.0481337 97.6866319,95.4183866 C104.147569,94.3203055 108.853299,93.6053365 108.853299,93.6053365 L108.877604,101.314492 L108.877604,217.464372 C110.434896,217.06736 133.05816,213.215389 134.627604,213.07726 C134.627604,184.508907 134.684896,70.0000668 134.684896,70.0000668 C134.684896,70.0000668 103.149306,75.928315 93.2725694,77.9880859 C83.8081597,79.9957327 76.2942708,87.6240955 74.2248264,98.4103103 L74.2248264,98.4103103 Z M362.451389,212.749747 C364.029514,212.88527 386.392361,216.586081 387.953993,216.967456 L387.953993,74.298568 C386.392361,73.8841814 364.029514,70.1859761 362.451389,70.0565346 L362.451389,212.749747 L362.451389,212.749747 Z M160.173611,87.4790167 C160.173611,87.4790167 160.227431,207.908286 160.227431,209.615351 C161.799479,209.319981 184.347222,207.075169 185.932292,207.035208 L185.932292,148.042883 C193.626736,147.386988 201.34375,146.866616 209.026042,146.447885 L209.026042,205.571389 C210.625,205.387217 233.427083,204.549757 235.010417,204.63663 L235.010417,61.7853079 C216.838542,62.1692888 198.679688,63.1804964 180.567708,64.8415179 C167.017361,66.1020525 160.173611,73.8841814 160.173611,87.4790167 L160.173611,87.4790167 Z M185.932292,88.9376229 C186.157986,86.1472458 187.746528,79.4762291 197.481771,78.7525728 C201.326389,78.5032458 205.166667,78.2530501 209.026042,78.0497661 L209.026042,131.392706 C201.34375,131.783637 193.626736,132.302272 185.932292,132.927761 L185.932292,88.9376229 L185.932292,88.9376229 Z M303.628472,143.039838 C304.947917,143.124974 310.269965,143.506348 310.269965,143.506348 L310.269965,191.581279 C306.334201,191.277222 302.387153,191.015733 298.481771,190.761193 C292.727431,190.387637 289.917535,187.59726 288.572049,185.310749 C287.072917,182.727131 286.921875,179.996697 286.921875,178.95074 C286.921875,177.890014 286.943576,138.490272 286.943576,112.182368 C286.943576,99.4102243 286.769097,89.8046205 286.769097,89.1574129 C286.744792,88.9671599 286.799479,88.4276754 286.799479,87.6432076 C286.799479,86.0473413 287.157986,83.5262721 288.924479,81.4925632 C290.913194,79.2399332 294.141493,78.2408878 298.481771,78.5032458 C298.481771,78.3937852 305.200521,78.9115513 312.921875,79.5639714 L316.467882,95.6147208 L335.921875,98.1583771 L335.921875,66.5425012 C334.289931,65.7901766 281.580729,61.8105012 281.540799,62.3569356 L280.631944,62.2891742 C276.460938,62.09979 269.498264,61.8513317 265.184028,66.0186539 C262.450521,68.6265967 261.079861,72.7209451 261.079861,78.1574893 L261.079861,184.062377 C261.079861,197.690224 267.960938,204.576687 281.540799,205.136153 C281.561632,204.700048 329.068576,208.053365 335.921875,209.319981 C335.921875,207.661566 336.02691,134.397661 336.02691,132.727084 C334.434028,132.397833 305.263889,129.697804 303.628472,129.754272 L303.628472,143.039838 L303.628472,143.039838 Z" id="Fill-19" fill="#005291"></path>
                <path d="M74.2248264,98.4103103 L74.2248264,83.3473126 C74.2248264,83.3473126 44.9435764,87.9490024 25.7057292,94.1300525 C20.6319444,95.7380811 13.3385417,101.551656 13.3385417,108.876831 L13.3385417,241.994845 C14.8324653,241.41453 34.8819444,235.231742 36.4227431,234.892067 L36.4227431,120.311122 C36.4227431,112.302253 42.9913194,108.305203 48.5859375,106.605088 C51.6675347,105.68336 60.8515625,104.29599 60.8515625,104.29599 L60.8515625,202.923484 L86.2881944,196.899675 C86.2881944,196.899675 86.3116319,108.84295 86.3116319,108.468525 C87.1449653,101.5838 90.8263889,97.0507399 97.6866319,95.4183866 C104.147569,94.3203055 108.853299,93.6062053 108.853299,93.6062053 L108.877604,101.314492 L108.877604,217.464372 C110.425347,217.06736 133.042535,213.215389 134.627604,213.07726 C134.627604,184.508907 134.694444,70.0000668 134.694444,70.0000668 C134.694444,70.0000668 103.139757,75.928315 93.2725694,77.9880859 C83.8081597,79.9957327 76.2942708,87.6240955 74.2248264,98.4103103 L74.2248264,98.4103103 Z M362.451389,212.749747 C364.029514,212.88527 386.396701,216.575656 387.940104,216.967456 L387.940104,74.2759809 C386.396701,73.8841814 364.029514,70.1859761 362.451389,70.0565346 L362.451389,212.749747 L362.451389,212.749747 Z M303.628472,143.030282 C304.947917,143.124974 310.269965,143.506348 310.269965,143.506348 L310.269965,191.581279 C306.334201,191.277222 302.387153,191.015733 298.481771,190.761193 C292.727431,190.387637 289.917535,187.59726 288.559028,185.298587 C287.072917,182.727131 286.921875,179.996697 286.921875,178.95074 C286.921875,177.890014 286.943576,138.490272 286.943576,112.182368 C286.943576,99.4102243 286.769097,89.8046205 286.769097,89.1574129 C286.744792,88.9671599 286.827257,88.4276754 286.827257,87.6432076 C286.827257,86.0369165 287.157986,83.5262721 288.924479,81.4925632 C290.913194,79.2399332 294.141493,78.2191695 298.481771,78.5032458 C298.481771,78.3937852 305.200521,78.9115513 312.921875,79.5639714 L316.467882,95.6147208 L335.921875,98.1583771 L335.921875,66.5425012 C334.289931,65.7901766 281.580729,61.8105012 281.53125,62.3569356 L280.62066,62.2891742 C276.450521,62.09979 269.498264,61.8513317 265.184028,66.0186539 C262.450521,68.6265967 261.071181,72.7209451 261.071181,78.141852 L261.071181,184.062377 C261.071181,197.690224 267.960938,204.572344 281.53125,205.136153 C281.561632,204.700048 329.068576,208.053365 335.921875,209.319981 C335.921875,207.661566 336.02691,134.397661 336.02691,132.727084 C334.420139,132.391752 305.263889,129.697804 303.628472,129.754272 L303.628472,143.030282 L303.628472,143.030282 Z" id="Fill-20" fill="#005291"></path>
                <path d="M162.916667,41.3900143 C162.916667,41.3900143 162.952257,41.6958091 162.547743,42.0684964 L162.542535,42.0737088 L162.538194,42.0737088 C162.228299,42.3629976 161.679688,42.6479427 160.833333,42.7973652 C160.1875,42.9328878 158.701389,43.2169642 157.549479,43.4367542 C157.334201,43.4819284 157.154514,43.4975656 157.006076,43.4975656 C156.570312,43.4827971 156.547743,43.4020048 156.538194,43.4020048 L156.53559,43.4020048 C156.486111,43.3681241 156.476562,43.1622339 156.457465,43.1622339 L156.457465,18.0514463 C156.467014,18.0114845 156.415799,17.7612888 156.796875,17.3807828 C157.125868,17.078463 157.679688,16.7874368 158.572917,16.6032649 C159.489583,16.4286492 160.446181,16.2496897 161.409722,16.058568 C161.685764,16.0038377 161.938368,15.9847255 162.144097,15.9847255 C162.499132,15.9847255 162.703125,16.0490119 162.796875,16.0985298 C162.91059,16.1228544 162.891493,16.3087637 162.916667,16.3087637 L162.916667,41.3900143 L162.916667,41.3900143 Z M171.765625,10.4778138 C171.102431,9.64035322 170.144097,9.02355131 169.036458,8.736 L169.038194,8.73513126 C168.269965,8.52142243 167.491319,8.45105489 166.737847,8.45105489 C165.555556,8.45105489 164.421875,8.62567064 163.500868,8.78464916 C160.766493,9.28504057 158.018229,9.81496897 155.295139,10.352716 C153.209201,10.7783962 151.488715,11.3917232 150.076389,12.3195322 C149.068576,12.9789021 148.225694,13.8007255 147.615451,14.7702339 C146.87934,15.9647446 146.513889,17.3364773 146.518229,18.7794463 L146.518229,45.3888019 C146.518229,46.8204773 146.854167,48.1487733 147.667535,49.1877804 C148.365451,50.0617279 149.347222,50.6159809 150.415799,50.871389 C151.078993,51.0303675 151.727431,51.0798854 152.366319,51.0798854 C153.653646,51.0798854 154.888889,50.8600955 155.887153,50.6654988 C158.621528,50.1208019 161.336806,49.6021671 164.049479,49.1078568 C166.139757,48.7238759 167.875868,48.1591981 169.301215,47.2756945 C170.330729,46.6571551 171.18316,45.8535752 171.796007,44.9335847 C172.565104,43.7408115 172.938368,42.3629976 172.93316,40.9148162 L172.93316,14.3167542 C172.93316,12.8737852 172.59375,11.5307208 171.765625,10.4778138 L171.765625,10.4778138 Z" id="Fill-21" fill="#262420"></path>
                <path d="M296.645833,5.3609642 C295.983507,4.43402387 295.087674,3.69038663 294.006076,3.15524582 L294.006076,3.15350835 C292.065972,2.19963723 289.987847,1.98679714 288.609375,1.89123628 C283.167535,1.53071122 277.715278,1.24750358 272.273438,1.06680668 L270.677083,1.01207637 L270.677083,41.3005346 L272.169271,41.3552649 C274.52691,41.4351885 276.896701,41.5455179 279.269965,41.6558473 L280.881944,41.7296897 L280.881944,8.14439141 C281.980035,8.20520286 283.082465,8.270358 284.189236,8.33116945 C288.080729,8.76988067 287.447917,9.96352267 287.657986,10.4126587 L287.657986,42.0989021 L289.08941,42.2048878 C291.434028,42.3742912 293.778646,42.5436945 296.108507,42.7426348 L297.784722,42.8877136 L297.784722,41.2058425 C297.784722,37.4112076 297.788194,11.9555322 297.788194,9.30415274 C297.795139,7.85770883 297.429688,6.48336993 296.645833,5.3609642" id="Fill-22" fill="#262420"></path>
                <path d="M319.671875,37.9654606 C319.434896,38.1296516 318.834201,38.2599618 318.190972,38.249537 C317.749132,38.249537 317.291667,38.2052315 316.913194,38.1617947 C315.69184,38.0115036 314.46875,37.8612124 313.257812,37.7109212 L313.257812,10.9173938 C314.346354,11.0494415 315.4375,11.1832267 316.53559,11.3152745 C317.648438,11.4507971 318.646701,11.7452983 319.210069,12.1457852 C319.762153,12.5697279 320.008681,12.8737852 320.042535,13.8267876 C320.042535,16.6432267 320.042535,36.4234558 320.052083,37.0367828 C320.008681,37.7795513 319.892361,37.7795513 319.671875,37.9654606 L319.671875,37.9654606 Z M328.980035,9.08349403 C328.361111,8.13136038 327.479167,7.35818616 326.448785,6.74833413 L326.44184,6.74225298 L326.435764,6.74225298 C324.980035,5.89871122 323.225694,5.38963246 321.095486,5.11250597 C318.861111,4.76066826 307.838542,3.4740716 304.868056,3.20823866 L303.185764,3.06402864 L303.210938,43.430673 L304.605035,43.5714081 C309.979167,44.1108926 315.354167,44.7398568 320.690972,45.4635131 C321.602431,45.5833986 322.435764,45.64421 323.219618,45.64421 C324.263021,45.64421 325.213542,45.5277995 326.086806,45.2828162 C327.197917,44.9657279 328.18316,44.3897566 328.887153,43.5218902 C329.75,42.4637709 330.118056,41.1050692 330.113715,39.6681814 L330.113715,13.0692506 C330.118056,11.6254129 329.75,10.2423866 328.980035,9.08349403 L328.980035,9.08349403 Z" id="Fill-23" fill="#262420"></path>
                <path d="M194.80816,20.2632458 L194.80816,20.3622816 C194.793403,20.5212601 194.8125,20.9712649 194.199653,21.505537 L194.179688,21.5246492 C193.671007,21.98421 192.711806,22.3951217 191.256944,22.5740811 C190.243924,22.7000477 189.230035,22.8338329 188.222222,22.9624057 L188.222222,11.7053365 C189.355903,11.5602578 190.499132,11.4108353 191.631076,11.2753126 C192.229167,11.1979952 192.727431,11.1623771 193.141493,11.1623771 C194.045139,11.1562959 194.532986,11.3369928 194.677083,11.4464535 C194.768229,11.5402768 194.72309,11.3917232 194.793403,11.8955895 C194.796875,11.9355513 194.799479,11.9711695 194.802951,11.9963628 L194.802951,12.0554368 L194.802951,18.5857184 C194.802951,19.4987589 194.796875,20.0634368 194.80816,20.2632458 L194.80816,20.2632458 Z M205.008681,41.9790167 C204.994792,37.4355322 204.994792,32.9137661 204.994792,28.3859189 C205.024306,26.9481623 204.207465,25.5894606 203.008681,24.8102053 L203.008681,24.8041241 C202.84809,24.6955322 202.686632,24.5956277 202.526042,24.5035418 C203.645833,23.6930119 204.78559,22.3951217 204.908854,20.3223198 L204.908854,10.0582148 C204.908854,8.62567064 204.555556,7.25220048 203.677083,6.17496897 C202.999132,5.32534606 202.03125,4.6824821 200.898438,4.3332506 C199.940972,4.01181862 198.854167,3.872821 197.651042,3.872821 C196.967014,3.872821 196.233507,3.91712649 195.455729,4.01181862 C190.104167,4.63209547 184.756076,5.32534606 179.439236,6.11328878 L178.121528,6.31483532 L178.121528,46.7422912 L179.893229,46.4781957 C182.217882,46.1280955 184.550347,45.7988449 186.881944,45.4878377 L188.222222,45.3140907 L188.222222,29.7637327 C189.41059,29.6134415 190.576389,29.4622816 191.741319,29.3093842 C191.805556,29.3041718 191.871528,29.297222 191.928819,29.2902721 L192.104167,29.2737661 C192.444444,29.2450979 192.742188,29.2294606 193.006944,29.2294606 C193.914931,29.2233795 194.394097,29.3979952 194.578125,29.5335179 C194.80816,29.6777279 194.878472,29.9114177 194.888021,30.4917327 L194.888021,44.4609928 L196.602431,44.2707399 C198.938368,44.0118568 201.282986,43.7573174 203.616319,43.5175465 L205.013889,43.3776802 L205.008681,41.9790167 L205.008681,41.9790167 Z" id="Fill-24" fill="#262420"></path>
                <path d="M233.113715,32.8381862 L233.113715,27.6223007 L231.467882,27.7265489 L225.31684,28.1200859 L222.992188,35.1829021 C222.085069,35.2393699 221.177951,35.2993126 220.279514,35.3549117 L220.279514,1.77743198 L218.627604,1.89123628 C216.258681,2.04934606 213.893229,2.23612411 211.529514,2.42898329 L210.111111,2.54452506 L210.111111,42.9076945 L211.783854,42.7678282 C218.377604,42.224 225.002604,41.804401 231.637153,41.5098998 L233.113715,41.4430072 L233.113715,39.9661575 C233.113715,38.7490597 233.123264,37.5154558 233.123264,36.2731647 L233.123264,32.8286301 L233.113715,32.8381862" id="Fill-25" fill="#262420"></path>
                <path d="M255.047743,19.3276181 C254.447049,19.3267494 253.848958,19.3241432 253.246528,19.3241432 C251.575521,19.3241432 249.905382,19.3302243 248.234375,19.3467303 L248.234375,8.94189021 L248.243924,8.8350358 C248.273438,8.67692601 248.304688,8.44063007 248.69184,8.12614797 C249.116319,7.77604773 250.113715,7.43724105 251.654514,7.43724105 C252.470486,7.43202864 253.290799,7.42768496 254.115451,7.42768496 C254.423611,7.42768496 254.735243,7.4285537 255.047743,7.42942243 L255.047743,19.3276181 L255.047743,19.3276181 Z M263.782118,0.756668258 C261.802951,0.692381862 256.329861,0.652420048 252.143229,0.652420048 C249.959201,0.652420048 248.154514,0.663713604 247.345486,0.687169451 C245.210069,0.723656325 243.434896,1.0277136 241.939236,1.69577088 C240.847222,2.17531265 239.918403,2.8946253 239.260417,3.8033222 C238.445313,4.91009069 238.061632,6.28442959 238.06684,7.74129833 C238.06684,10.3926778 238.091146,35.8440095 238.091146,39.6429881 L238.091146,41.2301671 L239.684896,41.1867303 C242.019097,41.1215752 244.378472,41.0651074 246.708333,41.0407828 L248.234375,41.0251456 L248.234375,26.0820334 C250.226563,26.0577088 252.216146,26.0490215 254.208333,26.0490215 L255.047743,26.0490215 L255.047743,41.0251456 L256.583333,41.030358 C258.957465,41.0459952 261.328125,41.0746635 263.69184,41.1259189 L265.271701,41.1658807 L265.271701,0.808792363 L263.782118,0.756668258 L263.782118,0.756668258 Z" id="Fill-26" fill="#262420"></path>
                <path d="M351.313368,43.1465967 C351.313368,43.1657088 351.309028,43.2108831 351.309028,43.2760382 C351.296007,43.2803819 351.318576,43.3133938 351.283854,43.3385871 L351.283854,43.3368496 L351.278646,43.3368496 C351.202257,43.3811551 351.014757,43.4410979 350.662326,43.4410979 C350.43316,43.4410979 350.12934,43.4115609 349.783854,43.3524869 C349.164063,43.2326014 347.695313,42.9511313 346.532986,42.7365537 C345.6875,42.5767064 345.195313,42.1805632 345.017361,41.8408878 C344.859375,41.5611551 344.859375,41.3318091 344.859375,41.3318091 L344.859375,16.147179 L344.859375,16.1315418 L344.859375,16.1150358 C344.861111,16.1072172 344.869792,16.1002673 344.897569,16.0854988 C344.988715,16.0368496 345.178819,15.9716945 345.543403,15.9716945 C345.763889,15.9716945 346.026042,15.9968878 346.346354,16.0611742 C347.324653,16.2444773 348.27691,16.426043 349.219618,16.6110835 C350.003472,16.7631122 350.527778,17.035895 350.859375,17.3460334 C351.360243,17.8055943 351.278646,18.140926 351.313368,18.140926 L351.313368,43.1465967 L351.313368,43.1465967 Z M360.225694,14.8136706 L360.225694,14.809327 C359.638021,13.8207064 358.811632,13.015389 357.858507,12.3612315 C356.019965,11.1623771 353.996528,10.6750167 352.467882,10.3605346 C349.752604,9.80628162 347.020833,9.28156563 344.282986,8.77509308 C343.18316,8.5700716 342.184896,8.46495465 341.255208,8.46495465 C340.401042,8.46495465 339.601563,8.5553031 338.861979,8.75945585 C337.774306,9.03050119 336.782986,9.61602864 336.078993,10.4560955 C335.190104,11.5272458 334.851563,12.8859475 334.851563,14.3045919 L334.851563,40.9208974 C334.851563,42.3560477 335.180556,43.7216993 335.904514,44.8814606 C336.494792,45.847494 337.344618,46.6363055 338.332465,47.2513699 C340.167535,48.3807255 342.204861,48.8107494 343.729167,49.0922196 C346.442708,49.5960859 349.159722,50.1208019 351.857639,50.6776611 C353.103299,50.9209069 354.212674,51.0520859 355.225694,51.0520859 C355.920139,51.0520859 356.569444,50.9860621 357.177951,50.8566205 C358.319444,50.5925251 359.317708,50.0426158 360.028646,49.2060239 C360.905382,48.1618043 361.24566,46.8170024 361.24566,45.3861957 L361.24566,18.7846587 C361.25,17.3651456 360.927083,15.9968878 360.225694,14.8136706 L360.225694,14.8136706 Z" id="Fill-27" fill="#262420"></path>
                <polyline id="Fill-28" fill="#FFFFFF" points="193.046007 234.197079 198.100694 231.693384 202.299479 235.447189 201.481771 229.878597 206.342014 227.041308 200.788194 226.083962 199.590278 220.59095 196.980903 225.570539 191.376736 225.017155 195.31684 229.040267 193.046007 234.197079"></polyline>
                <path d="M363.043403,202.801862 C367.999132,200.63958 377.256076,196.596487 377.256076,196.596487 L377.948785,196.294167 L377.230903,196.057002 C377.230903,196.057002 362.341146,191.157337 359.143229,190.116592 C358.659722,186.7459 356.30816,170.542253 356.30816,170.542253 L356.192708,169.756916 L350.776042,178.570234 C350.778646,178.570234 347.676215,183.577623 346,186.302845 C342.47309,185.404573 327.085938,181.483971 327.085938,181.483971 L326.274306,181.279819 L326.787326,181.940057 C326.797743,181.953957 333.050347,190.006263 336.841146,194.909403 C321.356771,191.543924 303.486111,189.662243 283.003472,189.662243 C276.28125,189.662243 269.279514,189.864659 261.991319,190.285126 C234.065104,191.880993 206.599826,197.086453 180.24566,206.61474 L183.258681,197.641575 L182.722222,197.810979 C141.477431,210.706482 96.3715278,249.403418 76.4296875,287.662511 L76.8802083,288.005661 C105.069444,261.538778 143.226562,240.409403 177.429688,232.715885 L168.446181,253.674119 L169.140625,253.338788 C185.05816,245.647876 205.953993,242.246778 227.03559,242.247647 C248.611111,242.246778 270.380208,245.808592 287.199653,251.94273 L280.752604,266.01537 C265.411458,258.973403 243.220486,254.230979 224.814236,254.229241 C221.533854,254.229241 218.375,254.379532 215.397569,254.697489 L215.348958,255.26043 C237.087674,261.404124 259.600694,268.342711 277.439236,282.653384 C277.334201,284.174539 277.279514,285.691351 277.279514,287.202081 C277.287326,324.872172 309.777778,358.963074 347.91059,358.973499 C348.167535,358.973499 348.424479,358.970893 348.681424,358.968286 C390.700521,358.470501 421.844618,319.907351 421.845486,279.71011 C421.854167,250.094931 404.915799,219.584086 363.043403,202.801862" id="Fill-29" fill="#262420"></path>
                <path d="M340.121528,271.799408 C324.605903,271.797671 309.080729,266.103112 293.486111,260.369461 C289.372396,269.066368 287.286458,278.183742 287.286458,287.459227 C287.286458,292.392773 287.875868,297.371494 289.069444,302.358033 C290.358507,302.386702 291.651042,302.402339 292.945313,302.402339 C323.055556,302.404076 355.003472,294.031208 380.809028,278.717146 C377.832465,273.177222 374.147569,268.005642 370.31684,263.026053 C360.272569,269.388668 350.200521,271.802014 340.121528,271.799408" id="Fill-30" fill="#848683"></path>
                <path d="M291.864583,308.252401 C291.526042,308.252401 291.186632,308.252401 290.847222,308.250663 C300.264757,332.62042 321.853299,348.767599 348.186632,349.133337 C356.615451,328.3558 365.96441,305.652277 387.344618,295.041547 C386.224826,291.294692 384.855035,287.652955 383.345486,284.058998 C355.820313,300.159265 323.68316,308.252401 291.864583,308.252401" id="Fill-31" fill="#848683"></path>
                <path d="M356.936632,231.777652 C347.573785,228.201069 341.614583,227.089957 341.051215,226.990053 C338.43316,227.349709 334.882812,227.702415 332.010417,228.270568 C347.919271,234.611465 359.670139,242.304983 371.47309,255.475007 C377.537326,250.676983 382.865451,245.243045 386.564236,238.565947 C375.739583,228.032535 355.355035,215.123131 304.515625,211.118263 C325.984375,216.233375 345.721354,223.122444 357.205729,231.273785 L356.936632,231.777652" id="Fill-32" fill="#848683"></path>
                <path d="M214.398438,224.71831 C217.552083,224.648811 220.957465,224.604506 224.553819,224.604506 C260.672743,224.621012 316.418403,228.869995 338.033854,254.555017 L337.671875,254.994597 C330.192708,250.824668 315.232639,243.914749 305.904514,243.924305 C305.602431,243.924305 305.305556,243.931255 305.019097,243.946893 C301.809896,247.4922 298.977431,251.410196 296.436632,255.472401 C310.883681,260.804697 325.512153,266.095294 340.006076,266.093556 C349.109375,266.093556 358.16059,264.011198 367.122396,258.542511 C342.072049,231.22253 299.668403,219.304353 259.671007,219.307828 C243.783854,219.307828 228.277778,221.185165 214.398438,224.71831" id="Fill-33" fill="#848683"></path>
                <path d="M385.315104,275.858138 C392.297743,271.096601 398.332465,266.124831 403.818576,259.738759 C400.373264,253.180678 394.407986,245.810329 390.12934,242.020038 C386.151042,249.043761 381.053819,254.846043 374.855903,259.942912 C378.506076,264.815647 382.358507,270.495437 385.315104,275.858138" id="Fill-34" fill="#848683"></path>
                <path d="M354.309896,348.881403 C367.000868,347.334186 378.668403,342.996592 388.480035,334.661947 C389.983507,329.042969 390.631944,323.226788 390.631944,317.393232 C390.631944,311.825508 390.041667,306.242148 389.042535,300.802998 C369.903646,310.011589 361.952257,330.220974 354.309896,348.881403" id="Fill-35" fill="#848683"></path>
                <path d="M396.284722,321.140955 C396.284722,323.060859 396.236111,324.984239 396.143229,326.911093 C403.585938,316.83116 407.575521,308.078654 409.789062,295.195313 C404.358507,295.680067 398.972222,296.588764 393.847222,298.28801 C395.521701,305.877279 396.284722,313.482186 396.284722,321.140955" id="Fill-36" fill="#848683"></path>
                <path d="M387.950521,281.188697 C389.631076,285.031112 391.12066,288.931733 392.418403,292.92357 C398.389757,290.981079 404.15191,289.978558 410.369792,289.603265 C410.377604,289.158473 410.380208,288.719761 410.380208,288.284525 C410.377604,280.03936 409.164062,273.698463 406.479167,265.808611 C400.774306,271.657804 394.743924,276.633919 387.950521,281.188697" id="Fill-37" fill="#848683"></path>
                <path d="M410.369792,289.603265 C404.15191,289.978558 398.389757,290.981079 392.418403,292.92357 C391.12066,288.931733 389.631076,285.031112 387.950521,281.188697 C394.743924,276.633919 400.774306,271.657804 406.479167,265.808611 C409.164062,273.698463 410.377604,280.03936 410.380208,288.284525 C410.380208,288.719761 410.377604,289.158473 410.369792,289.603265" id="Fill-38" fill="#848683"></path>
                <path d="M410.369792,289.603265 C404.15191,289.978558 398.389757,290.981079 392.418403,292.92357 C391.12066,288.931733 389.631076,285.031112 387.950521,281.188697 C394.743924,276.633919 400.774306,271.657804 406.479167,265.808611 C409.164062,273.698463 410.377604,280.03936 410.380208,288.284525 C410.380208,288.719761 410.377604,289.158473 410.369792,289.603265" id="Fill-39" fill="#848683"></path>
                <path d="M390.12934,242.020038 C394.407986,245.810329 400.373264,253.180678 403.818576,259.738759 C398.332465,266.124831 392.297743,271.096601 385.315104,275.858138 C382.358507,270.495437 378.506076,264.815647 374.855903,259.942912 C381.053819,254.846043 386.151042,249.043761 390.12934,242.020038" id="Fill-40" fill="#848683"></path>
                <path d="M390.12934,242.020038 C394.407986,245.810329 400.373264,253.180678 403.818576,259.738759 C398.332465,266.124831 392.297743,271.096601 385.315104,275.858138 C382.358507,270.495437 378.506076,264.815647 374.855903,259.942912 C381.053819,254.846043 386.151042,249.043761 390.12934,242.020038" id="Fill-41" fill="#848683"></path>
                <path d="M304.515625,211.118263 C355.355035,215.123131 375.739583,228.032535 386.564236,238.565947 C382.865451,245.243045 377.537326,250.676983 371.47309,255.475007 C359.670139,242.304983 347.919271,234.611465 332.010417,228.270568 C334.882812,227.702415 338.43316,227.349709 341.051215,226.990053 C341.614583,227.089957 347.573785,228.201069 356.936632,231.777652 L357.205729,231.273785 C345.721354,223.122444 325.984375,216.233375 304.515625,211.118263" id="Fill-42" fill="#848683"></path>
                <path d="M304.515625,211.118263 C355.355035,215.123131 375.739583,228.032535 386.564236,238.565947 C382.865451,245.243045 377.537326,250.676983 371.47309,255.475007 C359.670139,242.304983 347.919271,234.611465 332.010417,228.270568 C334.882812,227.702415 338.43316,227.349709 341.051215,226.990053 C341.614583,227.089957 347.573785,228.201069 356.936632,231.777652 L357.205729,231.273785 C345.721354,223.122444 325.984375,216.233375 304.515625,211.118263" id="Fill-43" fill="#848683"></path>
                <path d="M292.945313,302.402339 C291.651042,302.402339 290.358507,302.386702 289.069444,302.358033 C287.875868,297.371494 287.286458,292.392773 287.286458,287.459227 C287.286458,278.183742 289.372396,269.066368 293.486111,260.369461 C309.080729,266.103112 324.605903,271.797671 340.121528,271.799408 C350.200521,271.802014 360.272569,269.388668 370.31684,263.026053 C374.147569,268.005642 377.832465,273.177222 380.809028,278.717146 C355.003472,294.031208 323.055556,302.404076 292.945313,302.402339" id="Fill-44" fill="#848683"></path>
                <path d="M292.945313,302.402339 C291.651042,302.402339 290.358507,302.386702 289.069444,302.358033 C287.875868,297.371494 287.286458,292.392773 287.286458,287.459227 C287.286458,278.183742 289.372396,269.066368 293.486111,260.369461 C309.080729,266.103112 324.605903,271.797671 340.121528,271.799408 C350.200521,271.802014 360.272569,269.388668 370.31684,263.026053 C374.147569,268.005642 377.832465,273.177222 380.809028,278.717146 C355.003472,294.031208 323.055556,302.404076 292.945313,302.402339" id="Fill-45" fill="#848683"></path>
                <path d="M348.186632,349.133337 C321.853299,348.767599 300.264757,332.62042 290.847222,308.250663 C291.186632,308.252401 291.526042,308.252401 291.864583,308.252401 C323.68316,308.252401 355.820313,300.159265 383.345486,284.058998 C384.855035,287.652955 386.224826,291.294692 387.344618,295.041547 C365.96441,305.652277 356.615451,328.3558 348.186632,349.133337" id="Fill-46" fill="#848683"></path>
                <path d="M348.186632,349.133337 C321.853299,348.767599 300.264757,332.62042 290.847222,308.250663 C291.186632,308.252401 291.526042,308.252401 291.864583,308.252401 C323.68316,308.252401 355.820313,300.159265 383.345486,284.058998 C384.855035,287.652955 386.224826,291.294692 387.344618,295.041547 C365.96441,305.652277 356.615451,328.3558 348.186632,349.133337" id="Fill-47" fill="#848683"></path>
                <path d="M396.143229,326.911093 C396.236111,324.984239 396.284722,323.060859 396.284722,321.140955 C396.284722,313.482186 395.521701,305.877279 393.847222,298.28801 C398.972222,296.588764 404.358507,295.680067 409.789062,295.195313 C407.575521,308.078654 403.585938,316.83116 396.143229,326.911093" id="Fill-48" fill="#848683"></path>
                <path d="M396.143229,326.911093 C396.236111,324.984239 396.284722,323.060859 396.284722,321.140955 C396.284722,313.482186 395.521701,305.877279 393.847222,298.28801 C398.972222,296.588764 404.358507,295.680067 409.789062,295.195313 C407.575521,308.078654 403.585938,316.83116 396.143229,326.911093" id="Fill-49" fill="#848683"></path>
                <path d="M367.122396,258.542511 C358.16059,264.011198 349.109375,266.093556 340.006076,266.093556 C325.512153,266.095294 310.883681,260.804697 296.436632,255.472401 C298.977431,251.410196 301.809896,247.4922 305.019097,243.946893 C305.305556,243.931255 305.602431,243.924305 305.904514,243.924305 C315.232639,243.914749 330.192708,250.824668 337.671875,254.994597 L338.033854,254.555017 C316.418403,228.869995 260.672743,224.621012 224.553819,224.604506 C220.957465,224.604506 217.552083,224.648811 214.398438,224.71831 C228.277778,221.185165 243.783854,219.307828 259.671007,219.307828 C299.668403,219.304353 342.072049,231.22253 367.122396,258.542511" id="Fill-50" fill="#848683"></path>
                <path d="M367.122396,258.542511 C358.16059,264.011198 349.109375,266.093556 340.006076,266.093556 C325.512153,266.095294 310.883681,260.804697 296.436632,255.472401 C298.977431,251.410196 301.809896,247.4922 305.019097,243.946893 C305.305556,243.931255 305.602431,243.924305 305.904514,243.924305 C315.232639,243.914749 330.192708,250.824668 337.671875,254.994597 L338.033854,254.555017 C316.418403,228.869995 260.672743,224.621012 224.553819,224.604506 C220.957465,224.604506 217.552083,224.648811 214.398438,224.71831 C228.277778,221.185165 243.783854,219.307828 259.671007,219.307828 C299.668403,219.304353 342.072049,231.22253 367.122396,258.542511" id="Fill-51" fill="#848683"></path>
                <path d="M388.480035,334.661947 C378.668403,342.996592 367.000868,347.334186 354.309896,348.881403 C361.952257,330.220974 369.903646,310.011589 389.042535,300.802998 C390.041667,306.242148 390.631944,311.825508 390.631944,317.393232 C390.631944,323.226788 389.983507,329.042969 388.480035,334.661947" id="Fill-52" fill="#848683"></path>
                <path d="M388.480035,334.661947 C378.668403,342.996592 367.000868,347.334186 354.309896,348.881403 C361.952257,330.220974 369.903646,310.011589 389.042535,300.802998 C390.041667,306.242148 390.631944,311.825508 390.631944,317.393232 C390.631944,323.226788 389.983507,329.042969 388.480035,334.661947" id="Fill-53" fill="#848683"></path>
                <polyline id="Fill-54" fill="#848683" points="338.252604 208.243618 349.303819 204.375141 357.700521 213.906033 356.719618 201.461403 367.423611 196.794558 355.775174 192.964305 353.970486 180.550081 347.750868 190.631752 335.953125 187.61811 343.776042 197.680668 338.252604 208.243618"></polyline>
                <polyline id="Fill-55" fill="#FFFFFF" points="279.352431 217.200277 287.032118 213.410854 293.429688 219.104544 292.180556 210.638721 299.576389 206.335007 291.133681 204.890301 289.314236 196.540888 285.354167 204.127551 276.832465 203.260554 282.814236 209.381661 279.352431 217.200277"></polyline>
                <polyline id="Fill-56" fill="#FFFFFF" points="193.021701 234.197079 198.077257 231.696859 202.273438 235.449795 201.458333 229.879465 206.315972 227.043914 200.764757 226.087437 199.565972 220.593556 196.954861 225.572277 191.354167 225.018893 195.293403 229.042005 193.021701 234.197079"></polyline>
                <path d="M384.164063,310.612754 L384.155382,309.581566 L377.03125,321.528411 L379.075521,311.006291 L378.568576,310.769995 C368.127604,323.445709 364.138021,332.553527 360.889757,343.783666 L360.733507,344.318807 L361.261285,344.136372 C372.983507,340.067217 379.033854,335.366492 381.513889,333.390988 L381.567708,333.350158 L381.596354,333.288477 C383.340278,329.496449 384.168403,321.83073 384.171875,312.43536 C384.171875,311.833327 384.168403,311.226081 384.164063,310.612754" id="Fill-57" fill="#005291"></path>
                <path d="M360.334201,282.947017 C348.925347,285.268277 335.618924,286.627847 323.422743,286.627847 C321.592014,286.627847 319.787326,286.597442 318.018229,286.535761 L344.182292,278.790119 L344.112847,278.227179 C326.838542,277.414043 313.501736,277.088267 296.621528,269.167141 L296.376736,269.052468 L296.247396,269.285289 C293.732639,273.797499 292.309028,280.119284 292.30816,286.518387 C292.30816,290.158387 292.769097,293.821842 293.762153,297.192535 L293.822049,297.391475 L294.030382,297.398425 C294.033854,297.398425 294.633681,297.4158 295.743924,297.4158 C303.287326,297.413193 334.292535,296.582683 360.519965,283.48737 L360.334201,282.947017" id="Fill-58" fill="#005291"></path>
                <path d="M366.102431,304.184115 C352.907118,313.996477 342.977431,321.928897 323.526042,325.593222 C341.539931,316.223914 353.622396,309.778768 364.985243,298.269766 L364.633681,297.818024 C344.490451,309.554635 318.255208,314.582874 299.746528,315.27873 L299.248264,315.29958 L299.513889,315.720916 C314.751736,339.853508 334.032118,342.016659 340.300347,342.016659 L340.338542,342.016659 C341.636285,342.016659 342.368924,341.928048 342.37934,341.92631 L342.514757,341.908936 L342.586806,341.794263 C350.759549,328.852716 355.961806,316.397661 366.490451,304.608057 L366.102431,304.184115" id="Fill-59" fill="#005291"></path>
                <path d="M352.596354,223.77747 C351.636285,223.277079 350.665799,222.798406 349.65625,222.346663 C365.233507,226.970072 375.735243,232.9878 381.609375,237.563427 C380.704861,238.906492 379.697049,240.194826 378.66059,241.451885 C371.453125,233.970339 362.647569,227.875294 352.596354,223.77747 M400.596354,311.091427 L400.541667,310.075876 C401.382813,305.879885 401.857639,301.668258 402.003472,297.512229 C403.104167,297.219465 404.231771,296.992726 405.366319,296.779017 C404.157986,301.944516 402.650174,306.63221 400.596354,311.091427 M407.100694,283.739303 C405.068576,284.006874 403.186632,284.300506 401.325521,284.701862 C400.908854,281.686482 400.303819,278.70064 399.539931,275.766053 C401.559028,274.065938 403.49566,272.342368 405.455729,270.490224 C406.579861,274.830425 407.05816,278.897842 407.100694,283.739303 M400.153646,258.131599 C398.420139,259.996773 396.752604,261.64737 395.046875,263.188506 C393.158854,259.121957 390.953993,255.226549 388.396701,251.54485 C389.728299,249.935084 391.018229,248.277537 392.219618,246.538329 C395.479167,250.148792 398.302083,254.366501 400.153646,258.131599" id="Fill-60" fill="#FFFFFF"></path>
            </g>
        </g>
    </g>
</svg>