<?xml version="1.0" encoding="UTF-8" standalone="no"?>
<svg width="500px" height="500px" viewBox="0 0 500 500" version="1.1" xmlns="http://www.w3.org/2000/svg" xmlns:xlink="http://www.w3.org/1999/xlink">
    <!-- Generator: Sketch 39.1 (31720) - http://www.bohemiancoding.com/sketch -->
    <title>PHO</title>
    <desc>Created with Sketch.</desc>
    <defs>
        <polygon id="path-1" points="0 499.938398 492.670306 499.938398 492.670306 0.148870637 0 0.148870637"></polygon>
    </defs>
    <g id="NBA" stroke="none" stroke-width="1" fill="none" fill-rule="evenodd">
        <g id="PHO">
            <g id="PSuns_Global_pms" transform="translate(4.000000, 0.000000)">
                <g id="Group-3">
                    <mask id="mask-2" fill="white">
                        <use xlink:href="#path-1"></use>
                    </mask>
                    <g id="Clip-2"></g>
                    <path d="M491.791123,1.70123203 C491.016702,0.718685832 489.83761,0.148870637 488.58765,0.148870637 L179.668715,0.148870637 C142.824154,0.226899384 120.177994,16.1303901 112.370106,47.4209446 L0.12325,494.922998 C-0.183847917,496.149897 0.08935625,497.437372 0.861722917,498.432238 C1.63819792,499.422998 2.82345208,500 4.08368333,500 L340.548994,500 C359.875621,499.994867 379.14884,484.641684 383.513944,465.794661 L492.559381,5.17043121 C492.849019,3.95893224 492.565544,2.67967146 491.791123,1.70123203" id="Fill-1" fill="#58666A" mask="url(#mask-2)"></path>
                </g>
                <path d="M4.08368333,495.917864 L340.548994,495.917864 C358.053575,495.917864 375.598213,481.88501 379.542213,464.850103 L488.58765,4.23203285 L179.677958,4.23203285 C151.03055,4.29158111 125.00015,13.674538 116.33054,48.4158111 L4.08368333,495.917864" id="Fill-4" fill="#0F1216"></path>
                <path d="M73.4590542,314.004107 L365.247267,314.004107 C379.883204,314.004107 394.474977,302.36961 397.774996,288.084189 L459.086735,22.9425051 L191.476065,22.9425051 C158.96785,22.9425051 144.346292,33.0975359 137.527485,60.4209446 L73.4590542,314.004107 L73.4590542,314.004107 Z M365.247267,317.607803 L68.8279354,317.607803 L134.02924,59.5431211 C142.357858,26.1755647 163.020721,19.3367556 191.476065,19.3367556 L463.62439,19.3367556 L401.289675,288.890144 C397.632231,304.721766 381.46594,317.601643 365.247267,317.607803 L365.247267,317.607803 Z" id="Fill-5" fill="#58666A"></path>
                <polyline id="Fill-6" fill="#FFFFFF" points="117.368921 462.297741 125.471581 473.513347 186.915815 473.513347 211.858533 374.74538 186.677531 374.74538 165.256681 459.570842 142.8714 459.570842 164.29225 374.74538 132.57489 374.74538 130.560779 376.536961 136.870152 385.039014 117.368921 462.297741"></polyline>
                <polyline id="Fill-7" fill="#FFFFFF" points="119.233077 409.36037 125.250758 385.550308 117.147071 374.322382 66.7357667 374.322382 52.9615521 385.550308 44.5723354 418.787474 87.1408313 436.670431 81.3634875 459.570842 59.0881042 459.570842 61.8006313 448.824435 39.5581146 438.623203 33.5815167 462.297741 41.6841771 473.513347 92.0975354 473.513347 105.866615 462.297741 114.266102 429.050308 71.6883625 411.152977 77.4718688 388.2577 99.746225 388.2577 96.9782354 399.229979 119.233077 409.36037"></polyline>
                <polyline id="Fill-8" fill="#FFFFFF" points="293.062823 385.550308 284.962217 374.322382 223.517983 374.322382 198.577319 473.091376 223.754213 473.091376 245.181225 388.2577 267.56856 388.2577 246.145656 473.091376 277.848637 473.091376 279.870965 471.287474 273.567754 462.798768 293.062823 385.550308"></polyline>
                <polyline id="Fill-9" fill="#FFFFFF" points="370.958877 409.36037 376.970396 385.550308 368.870817 374.322382 318.457458 374.322382 304.687352 385.550308 296.288892 418.787474 338.872794 436.670431 333.083125 459.570842 310.81185 459.570842 313.522323 448.824435 291.284942 438.623203 285.307317 462.297741 293.41614 473.513347 343.823335 473.513347 357.588306 462.297741 365.987794 429.050308 323.414163 411.152977 329.204858 388.2577 351.474079 388.2577 348.697873 399.229979 370.958877 409.36037"></polyline>
                <polyline id="Fill-10" fill="#B6B7B6" points="39.5581146 438.623203 48.6775875 452.409651 46.6829917 460.301848 51.2607021 466.501027 86.8398958 466.501027 94.027425 460.934292 105.866615 462.297741 92.0975354 473.513347 41.6841771 473.513347 33.5815167 462.297741 39.5581146 438.623203"></polyline>
                <polyline id="Fill-11" fill="#B6B7B6" points="81.3634875 459.570842 94.027425 460.934292 101.128679 432.816222 58.1411333 414.764887 65.1602208 386.951745 52.9615521 385.550308 44.5723354 418.787474 87.1408313 436.670431 81.3634875 459.570842"></polyline>
                <polyline id="Fill-12" fill="#B6B7B6" points="107.474 381.290554 72.5726813 381.290554 65.1602208 386.951745 77.4718688 388.2577 99.746225 388.2577 96.9782354 399.229979 110.223502 395.141684 112.131823 387.605749 107.474 381.290554"></polyline>
                <polyline id="Fill-13" fill="#B6B7B6" points="291.284942 438.623203 300.400306 452.409651 298.406738 460.301848 302.984448 466.501027 338.563642 466.501027 345.742954 460.934292 357.588306 462.297741 343.823335 473.513347 293.41614 473.513347 285.307317 462.297741 291.284942 438.623203"></polyline>
                <polyline id="Fill-14" fill="#B6B7B6" points="333.083125 459.570842 345.742954 460.934292 352.850371 432.816222 309.862825 414.764887 316.886021 386.951745 304.687352 385.550308 296.288892 418.787474 338.872794 436.670431 333.083125 459.570842"></polyline>
                <polyline id="Fill-15" fill="#B6B7B6" points="359.197746 381.290554 324.294373 381.290554 316.886021 386.951745 329.204858 388.2577 351.474079 388.2577 348.697873 399.229979 361.95341 395.141684 363.855569 387.609856 359.197746 381.290554"></polyline>
                <polyline id="Fill-16" fill="#B6B7B6" points="130.560779 376.536961 150.274617 381.325462 130.330713 460.301848 134.980319 466.552361 175.967106 466.552361 186.915815 473.513347 125.471581 473.513347 117.368921 462.297741 136.870152 385.039014 130.560779 376.536961"></polyline>
                <polyline id="Fill-17" fill="#B6B7B6" points="186.677531 374.74538 197.61186 381.290554 175.967106 466.552361 165.256681 459.570842 186.677531 374.74538"></polyline>
                <polyline id="Fill-18" fill="#B6B7B6" points="234.4708 381.288501 223.517983 374.322382 198.577319 473.091376 223.754212 473.091376 212.826046 466.546201 234.4708 381.288501"></polyline>
                <polyline id="Fill-19" fill="#B6B7B6" points="260.160208 466.51232 280.110275 387.534908 275.457588 381.288501 234.4708 381.288501 245.181225 388.2577 267.56856 388.2577 246.145656 473.091376 277.848637 473.091376 279.870965 471.287474 260.160208 466.51232"></polyline>
                <path d="M78.3120229,344.604723 L71.7941521,346.502053 L73.9325396,337.76078 L79.9913042,337.750513 L78.3120229,344.604723 L78.3120229,344.604723 Z M66.4060729,332.743326 L65.7600375,333.279261 L67.8604229,336.022587 L61.5079125,362.002053 L70.2863938,362.002053 L70.9324292,361.463039 L68.7498771,358.959959 L70.4630521,351.940452 L84.0472563,347.710472 L86.8398958,336.286448 L84.1294229,332.743326 L66.4060729,332.743326 L66.4060729,332.743326 Z" id="Fill-20" fill="#FFFFFF"></path>
                <polyline id="Fill-21" fill="#FFFFFF" points="139.160548 332.743326 132.665273 332.743326 130.089348 343.273101 123.710133 344.804928 126.654781 332.743326 117.907113 332.743326 117.256969 333.279261 119.357354 336.022587 113.009979 362.002053 119.505254 362.002053 122.333842 350.430185 128.681217 349.016427 125.507529 362.002053 134.266496 362.002053 134.910477 361.463039 132.74744 358.959959 139.160548 332.743326"></polyline>
                <path d="M178.294477,357.293634 L172.237767,357.293634 L177.048625,337.604723 L183.099173,337.604723 L178.294477,357.293634 L178.294477,357.293634 Z M175.321071,332.743326 L170.886125,336.250513 L165.45799,358.448665 L168.171544,362.002053 L180.091873,362.002053 L184.50525,358.456879 L189.933385,336.250513 L187.239346,332.743326 L175.321071,332.743326 L175.321071,332.743326 Z" id="Fill-22" fill="#FFFFFF"></path>
                <polyline id="Fill-23" fill="#FFFFFF" points="291.056929 336.250513 288.33105 332.743326 272.61154 332.743326 265.459958 362.002053 271.961396 362.002053 277.919506 337.604723 284.23196 337.604723 278.268715 362.002053 287.0246 362.002053 287.668581 361.463039 285.504517 358.959959 291.056929 336.250513"></polyline>
                <polyline id="Fill-24" fill="#FFFFFF" points="331.639046 332.743326 322.886242 332.743326 322.238152 333.279261 324.336483 336.022587 317.988081 362.002053 326.748075 362.002053 327.39411 361.463039 325.233127 358.959959 331.639046 332.743326"></polyline>
                <polyline id="Fill-25" fill="#FFFFFF" points="378.679463 359.117043 375.201758 347.686858 386.780069 332.743326 380.521023 332.743326 373.793627 341.779261 371.489879 332.743326 362.744265 332.743326 362.081796 333.26694 365.644748 335.890144 368.948875 347.794661 357.953948 362.002053 364.276673 362.002053 370.687727 353.413758 372.89801 362.002053 381.652869 362.002053 382.309175 361.463039 378.679463 359.117043"></polyline>
                <polyline id="Fill-26" fill="#FFFFFF" points="231.557992 357.293634 223.937033 357.293634 225.765242 349.803901 232.071533 349.798768 233.254733 344.973306 226.944333 344.979466 228.749946 337.604723 235.872769 337.604723 237.666056 340.173511 238.354202 339.685832 240.051971 332.743326 221.190613 332.743326 220.54355 333.279261 222.639827 336.022587 216.292452 362.002053 233.377983 362.002053 235.049048 355.151951 234.615619 354.677618 231.557992 357.293634"></polyline>
                <polyline id="Fill-27" fill="#ED992D" points="81.3069979 309.25154 248.062194 217.972279 134.980319 309.25154 272.196598 230.437372 269.929825 246.328542 292.814269 233.617043 344.503265 282.469199 372.015746 199.844969 411.8029 197.288501 391.562169 147.168378 427.600469 118.976386 380.996562 100.832649 392.803912 50.7176591 353.138981 68.8675565 332.702077 25.75154 300.942606 57.4650924 243.779256 31.8223819 235.910771 82.8501027 184.968465 93.889117 215.114387 112.046201 184.785644 127.258727 210.544894 129.491786 104.561192 211.900411 211.16936 155.287474 96.7995229 242.316222 218.542792 178.886037 88.5027437 276.616016 231.827087 200.276181 81.3069979 309.25154"></polyline>
                <path d="M386.45551,147.900411 C384.559515,193.708419 345.887773,229.301848 300.048017,227.405544 C254.225721,225.524641 218.618796,186.851129 220.5189,141.050308 C222.400517,95.238193 261.0928,59.6406571 306.902771,61.5338809 C352.736365,63.4271047 388.341235,102.094456 386.45551,147.900411" id="Fill-28" fill="#D75A29"></path>
                <path d="M313.652762,216.089322 C267.838683,214.184805 232.218406,175.517454 234.115429,129.714579 C234.976125,108.517454 243.740227,89.5256674 257.432275,75.4106776 C236.120296,89.6314168 221.644583,113.476386 220.5189,141.050308 C218.618796,186.851129 254.225721,225.524641 300.048017,227.405544 C324.673367,228.430185 347.235306,218.601643 363.123258,202.199179 C349.015242,211.62731 331.911223,216.841889 313.652762,216.089322" id="Fill-29" fill="#A75221"></path>
                <path d="M386.491458,145.438398 C386.533569,142.466119 386.4134,139.526694 386.14225,136.631417 C381.364258,133.286448 375.646485,130.747433 368.912927,129.87885 C367.631127,129.720739 366.410952,129.644764 365.167154,129.552361 C364.362948,124.065708 363.117096,118.700205 361.468627,113.476386 C362.328296,113.530801 363.197208,113.568789 364.068175,113.626283 C369.911252,114.061602 375.662919,114.723819 381.345771,115.547228 C380.545673,113.436345 379.66649,111.36653 378.719519,109.331622 C372.33106,108.36037 365.849138,107.60883 359.281967,107.116016 L359.211098,107.116016 C357.110713,101.773101 354.535815,96.6303901 351.532623,91.7371663 C355.775504,90.8603696 359.560306,89.1324435 362.629231,86.2330595 C361.058821,84.6447639 359.425758,83.1129363 357.737233,81.6529774 C355.064763,84.1047228 351.606573,85.4045175 347.650248,85.9301848 C347.043242,85.0841889 346.441371,84.2279261 345.805606,83.4096509 C340.159729,76.073922 333.652129,69.8080082 326.485142,64.7104723 C320.238421,62.9137577 313.690765,61.8069815 306.902771,61.5338809 C306.535075,61.5174538 306.162244,61.5256674 305.789413,61.5082136 C318.403023,66.4712526 329.674235,74.8028747 338.738246,85.9620123 C330.096367,85.1314168 320.135713,82.2320329 310.278794,79.3449692 C307.365985,78.4845996 304.512748,77.6437372 301.748867,76.8798768 C284.974542,72.2505133 272.071294,71.5082136 262.393088,72.3439425 C255.20145,76.4507187 248.675363,81.5985626 243.026404,87.5944559 C253.480058,83.2351129 274.575323,75.7895277 300.159969,82.8696099 C302.882767,83.62423 305.705192,84.4455852 308.574862,85.2823409 C319.889213,88.610883 332.58499,92.3141684 343.53986,92.4312115 C346.56154,96.9425051 349.183683,101.693018 351.351856,106.658111 C349.19909,106.558522 347.060702,106.48768 344.918206,106.451745 C291.594094,105.536961 245.880669,121.491786 220.508629,146.930185 C220.64934,151.983573 221.227588,156.928131 222.238238,161.735113 C229.393927,151.464066 239.991373,142.191992 253.666988,134.501027 C279.472456,120.00308 313.72055,112.371663 350.112167,112.998973 C351.362127,113.017454 352.62544,113.072895 353.873346,113.117043 C355.710798,118.37885 357.074765,123.825462 357.953948,129.407598 C334.518987,130.404517 319.32329,145.020534 301.883415,160.584189 C286.21834,174.590349 267.122806,188.541068 239.151219,196.935318 C241.788769,200.175565 244.657413,203.201232 247.753042,206.00308 C274.091567,195.401437 291.594094,178.88809 306.385121,165.675565 C323.172798,150.664271 337.582777,136.276181 358.747883,135.567762 C359.301481,141.421971 359.319969,147.374743 358.783831,153.395277 C355.935729,185.914784 337.101075,213.480493 311.401396,227.086242 C317.97781,226.467146 324.342646,225.074949 330.402438,222.989733 C332.464821,221.287474 334.470715,219.5 336.408821,217.591376 C353.247852,201.019507 363.706642,178.418891 365.849138,154.008214 C366.385275,147.894251 366.383221,141.834702 365.885085,135.861396 C366.945035,135.973306 367.985471,136.063655 369.075206,136.246407 C376.290467,137.427105 382.019538,141.062628 386.491458,145.438398" id="Fill-30" fill="#0F1216"></path>
            </g>
        </g>
    </g>
</svg>