<?xml version="1.0" encoding="UTF-8" standalone="no"?>
<svg width="500px" height="500px" viewBox="0 0 500 500" version="1.1" xmlns="http://www.w3.org/2000/svg" xmlns:xlink="http://www.w3.org/1999/xlink">
    <!-- Generator: Sketch 43.2 (39069) - http://www.bohemiancoding.com/sketch -->
    <title>POR</title>
    <desc>Created with Sketch.</desc>
    <defs>
        <polygon id="path-1" points="0.973333333 1.20369903 195.24 1.20369903 195.24 216.393848 0.973333333 216.393848"></polygon>
        <polygon id="path-3" points="55.35 136.654826 55.35 3.60235049 3.56791667 3.60235049 3.56791667 136.654826 55.35 136.654826"></polygon>
    </defs>
    <g id="Page-1" stroke="none" stroke-width="1" fill="none" fill-rule="evenodd">
        <g id="POR">
            <g id="Page-1" transform="translate(0.000000, 36.000000)">
                <g id="Group-3" transform="translate(158.333333, 2.961350)">
                    <mask id="mask-2" fill="white">
                        <use xlink:href="#path-1"></use>
                    </mask>
                    <g id="Clip-2"></g>
                    <path d="M171.944167,59.0216534 C168.756667,54.3068184 165.098333,49.8752068 161.069167,45.8434398 C159.319167,44.0982845 157.498333,42.4197699 155.606667,40.8203913 L195.24,1.20244951 L79.7733333,1.20244951 L35.2066667,45.7518087 L35.215,45.7476437 C35.1816667,45.7809641 35.1483333,45.8142845 35.115,45.8434398 C31.0858333,49.8752068 27.4275,54.3068184 24.24,59.0216534 C21.0233333,63.7823039 18.2608333,68.8678282 16.0316667,74.1449447 C11.3858333,85.1198476 9.03166667,96.7778184 9.03166667,108.798149 C9.03166667,120.814314 11.3858333,132.47645 16.0316667,143.451352 C18.2608333,148.728469 21.0233333,153.813993 24.24,158.574644 C27.4275,163.289479 31.0858333,167.72109 35.115,171.748692 C36.8691667,173.502178 38.6983333,175.184857 40.5983333,176.788401 L0.973333333,216.393848 L116.410833,216.393848 L161.160833,171.661226 L161.156667,171.661226 C165.1525,167.658615 168.781667,163.251993 171.944167,158.574644 C175.160833,153.813993 177.923333,148.728469 180.156667,143.451352 C184.798333,132.47645 187.1525,120.814314 187.1525,108.798149 C187.1525,96.7778184 184.798333,85.1198476 180.156667,74.1449447 C177.923333,68.8678282 175.160833,63.7823039 171.944167,59.0216534" id="Fill-1" fill="#051821" mask="url(#mask-2)"></path>
                </g>
                <path d="M314.184583,53.9257165 C312.43875,52.1805612 310.634583,50.5312019 308.77625,48.9776388 L260.31375,97.4213184 C262.70125,98.0918913 264.95125,99.3622311 266.830417,101.236503 L266.842917,101.248998 C272.697083,107.100891 272.697083,116.584707 266.842917,122.432435 L177.07625,212.168406 L187.592917,212.168406 L272.10125,127.688726 C280.834583,118.96295 280.859583,104.83094 272.180417,96.0718427 L277.43875,90.8155515 C289.017917,102.477687 288.992917,121.316202 277.359583,132.945017 L198.109583,212.168406 L208.62625,212.168406 L282.617917,138.201309 C297.159583,123.669454 297.184583,100.124435 282.697083,85.5592602 L287.955417,80.3029689 C305.347083,97.7711825 305.322083,126.022707 287.880417,143.461765 L219.142917,212.168406 L229.66375,212.168406 L293.13875,148.718056 C313.484583,128.375959 313.509583,95.4179301 293.21375,75.0425126 L298.472083,69.7862214 C321.672083,93.0605126 321.65125,130.729212 298.397083,153.974348 L240.180417,212.168406 L250.70125,212.168406 L303.655417,159.230639 C329.809583,133.082464 329.83875,90.7114252 303.734583,64.5299301 L309.02625,59.2403184 C338.055417,88.3415126 338.030417,135.452377 308.947083,164.524416 L261.284583,212.168406 L271.805417,212.168406 L314.205417,169.776542 L314.184583,169.755717 C346.184583,137.772309 346.184583,85.9132893 314.184583,53.9257165" id="Fill-4" fill="#FEFEFE"></path>
                <path d="M198.716667,169.664085 C200.4625,171.409241 202.266667,173.0586 204.125,174.612163 L252.5875,126.168483 C250.2,125.497911 247.95,124.227571 246.070833,122.353299 C246.066667,122.349134 246.0625,122.344969 246.058333,122.340804 C240.204167,116.488911 240.204167,107.005095 246.058333,101.157367 L335.945833,11.3047748 L325.429167,11.3047748 L240.8,95.9010757 C232.066667,104.626852 232.041667,118.758862 240.720833,127.517959 L235.4625,132.77425 C223.883333,121.112115 223.908333,102.2736 235.541667,90.6447845 L314.9125,11.3047748 L304.395833,11.3047748 L230.283333,85.3884932 C215.741667,99.9203476 215.716667,123.465367 230.204167,138.030542 L224.945833,143.286833 C207.554167,125.818619 207.579167,97.5670951 225.020833,80.1280369 L293.879167,11.3047748 L283.358333,11.3047748 L219.7625,74.8717456 C199.416667,95.2138427 199.391667,128.176037 219.6875,148.547289 L214.429167,153.803581 C191.229167,130.529289 191.25,92.8605903 214.504167,69.6154544 L272.841667,11.3047748 L262.325,11.3047748 L209.245833,64.3591631 C183.091667,90.5073379 183.0625,132.878377 209.166667,159.059872 L203.875,164.349483 C174.845833,135.248289 174.870833,88.1374252 203.954167,59.0695515 L251.7375,11.3047748 L241.220833,11.3047748 L198.695833,53.8132602 L198.716667,53.8340854 C166.716667,85.8216583 166.716667,137.676513 198.716667,169.664085" id="Fill-6" fill="#E0393D"></path>
                <polygon id="Fill-8" fill="#051821" points="111.727083 399.915466 106.04375 399.915466 106.04375 394.280155 123.68125 394.280155 123.68125 399.915466 117.947917 399.915466 117.947917 427.796301 111.727083 427.796301"></polygon>
                <path d="M131.793333,394.279739 L145.739167,394.279739 L149.8225,398.357321 L149.8225,410.115253 L146.464167,413.418137 L150.21,427.795884 L143.893333,427.795884 L140.489167,414.09704 L138.06,414.09704 L138.06,427.795884 L131.793333,427.795884 L131.793333,394.279739 Z M142.193333,409.290574 L143.551667,407.882787 L143.551667,400.498156 L142.193333,399.09037 L138.06,399.09037 L138.06,409.290574 L142.193333,409.290574 Z" id="Fill-10" fill="#051821"></path>
                <path d="M162.35375,394.279739 L171.49125,394.279739 L176.64125,427.795884 L170.470417,427.795884 L169.495417,420.023904 L164.05375,420.023904 L163.082917,427.795884 L157.20375,427.795884 L162.35375,394.279739 Z M164.687083,414.875904 L168.81625,414.875904 L166.77875,398.26569 L164.687083,414.875904 Z" id="Fill-12" fill="#051821"></path>
                <polygon id="Fill-14" fill="#051821" points="183.683333 423.034817 187.425 423.034817 187.425 399.039973 183.683333 399.039973 183.683333 394.279322 197.433333 394.279322 197.433333 399.039973 193.691667 399.039973 193.691667 423.034817 197.433333 423.034817 197.433333 427.795468 183.683333 427.795468"></polygon>
                <polygon id="Fill-16" fill="#051821" points="206.13 394.279739 212.396667 394.279739 212.396667 422.30635 219.588333 422.30635 219.588333 427.795884 206.13 427.795884"></polygon>
                <path d="M241.11125,394.279739 L254.765417,394.279739 L258.84875,398.357321 L258.84875,407.2497 L255.494583,410.598399 L258.84875,413.951263 L258.84875,423.714137 L254.765417,427.795884 L241.11125,427.795884 L241.11125,394.279739 Z M251.02375,408.170176 L252.577917,406.570797 L252.577917,400.643933 L251.219583,399.286127 L247.377917,399.286127 L247.377917,408.170176 L251.02375,408.170176 Z M251.219583,422.789496 L252.577917,421.43169 L252.577917,414.730127 L251.02375,413.126583 L247.377917,413.126583 L247.377917,422.789496 L251.219583,422.789496 Z" id="Fill-18" fill="#051821"></path>
                <polygon id="Fill-20" fill="#051821" points="268.174167 394.279739 274.440833 394.279739 274.440833 422.30635 281.6325 422.30635 281.6325 427.795884 268.174167 427.795884"></polygon>
                <path d="M293.682917,394.279739 L302.81625,394.279739 L307.970417,427.795884 L301.799583,427.795884 L300.824583,420.023904 L295.382917,420.023904 L294.412083,427.795884 L288.532917,427.795884 L293.682917,394.279739 Z M296.01625,414.875904 L300.145417,414.875904 L298.10375,398.26569 L296.01625,414.875904 Z" id="Fill-22" fill="#051821"></path>
                <polygon id="Fill-24" fill="#051821" points="315.010833 423.229742 323.465 399.9138 315.106667 399.9138 315.106667 394.278489 330.319167 394.278489 330.319167 398.797567 321.865 422.109344 330.369167 422.109344 330.369167 427.794635 315.010833 427.794635"></polygon>
                <polygon id="Fill-26" fill="#051821" points="339.060417 394.279739 353.785417 394.279739 353.785417 399.769273 345.327083 399.769273 345.327083 407.978583 353.00625 407.978583 353.00625 413.463952 345.327083 413.463952 345.327083 422.30635 353.88125 422.30635 353.88125 427.795884 339.060417 427.795884"></polygon>
                <path d="M362.965833,394.279739 L376.911667,394.279739 L380.995,398.357321 L380.995,410.115253 L377.640833,413.418137 L381.3825,427.795884 L375.065833,427.795884 L371.661667,414.09704 L369.2325,414.09704 L369.2325,427.795884 L362.965833,427.795884 L362.965833,394.279739 Z M373.365833,409.290574 L374.724167,407.882787 L374.724167,400.498156 L373.365833,399.09037 L369.2325,399.09037 L369.2325,409.290574 L373.365833,409.290574 Z" id="Fill-28" fill="#051821"></path>
                <polygon id="Fill-30" fill="#051821" points="389.3475 423.715803 389.3475 417.738958 395.568333 417.738958 395.568333 421.28758 396.976667 422.645385 399.214167 422.645385 400.5725 421.28758 400.5725 414.777609 399.505833 413.711356 392.943333 413.711356 389.493333 410.262696 389.493333 398.358987 393.576667 394.281405 402.714167 394.281405 406.793333 398.358987 406.793333 404.335832 400.526667 404.335832 400.526667 400.837191 399.164167 399.429405 397.1225 399.429405 395.714167 400.837191 395.714167 407.055609 396.785 408.121861 403.393333 408.121861 406.843333 411.570521 406.843333 423.715803 402.76 427.793385 393.426667 427.793385"></polygon>
                <path d="M67.7958333,265.781744 C67.7958333,246.347627 57.3291667,239.808501 36.7625,239.808501 L20.9833333,239.808501 L16.0166667,239.808501 L0,239.808501 L16.0166667,255.818948 L16.0166667,372.856812 L35.8291667,372.856812 L35.8291667,314.433676 L36.8583333,314.433676 C56.8833333,314.433676 67.3041667,308.211093 67.7875,289.88488 L67.7958333,289.880715 L67.7958333,265.781744 Z M35.9708333,255.810617 L40.4,255.810617 C44.8833333,255.810617 47.8416667,257.32253 47.875,262.370569 L47.875,291.138559 C47.8958333,295.978346 46.4,298.510695 39.4458333,298.510695 L35.9708333,298.510695 L35.9708333,255.810617 Z" id="Fill-32" fill="#051821"></path>
                <path d="M96.0470833,263.89456 C96.0470833,257.172172 98.1054167,255.681084 102.21375,255.681084 C106.134583,255.681084 108.18875,257.172172 108.18875,263.89456 L108.18875,348.765754 C108.18875,355.483978 106.134583,356.97923 102.21375,356.97923 C98.1054167,356.97923 96.0470833,355.483978 96.0470833,348.765754 L96.0470833,263.89456 Z M102.02625,372.848065 C114.355417,372.848065 127.98875,367.812521 127.98875,350.444269 L127.98875,262.216046 C127.98875,244.847793 114.355417,239.808084 102.02625,239.808084 C89.8845833,239.808084 76.25125,244.847793 76.25125,262.216046 L76.25125,350.444269 C76.25125,367.812521 89.8845833,372.848065 102.02625,372.848065 L102.02625,372.848065 Z" id="Fill-34" fill="#051821"></path>
                <path d="M338.875833,263.251893 L340.050833,263.251893 L343.8425,314.386194 L334.3675,314.386194 L338.875833,263.251893 Z M332.63,330.325835 L345.596667,330.325835 L349.83,372.855146 L369.834167,372.855146 L354.6925,239.806835 L324.971667,239.806835 L309.825833,372.855146 L327.771667,372.855146 L332.63,330.325835 Z" id="Fill-36" fill="#051821"></path>
                <g id="Group-40" transform="translate(441.666667, 236.204068)">
                    <mask id="mask-4" fill="white">
                        <use xlink:href="#path-3"></use>
                    </mask>
                    <g id="Clip-39"></g>
                    <path d="M35.5345833,110.798205 C35.5345833,119.3907 33.1054167,120.698525 28.0595833,120.698525 L23.3845833,120.698525 L23.3845833,19.604467 L28.0595833,19.604467 C33.1054167,19.604467 35.5345833,20.9164573 35.5345833,29.5089524 L35.5345833,110.798205 Z M55.35125,112.54336 L55.35125,33.6906612 C55.35125,10.3289039 47.1220833,3.60235049 27.4970833,3.60235049 L3.56791667,3.60235049 L3.56791667,136.654826 L31.7970833,136.654826 C47.1220833,136.654826 55.35125,125.250923 55.35125,112.54336 L55.35125,112.54336 Z" id="Fill-38" fill="#051821" mask="url(#mask-4)"></path>
                </g>
                <path d="M156.286667,255.714821 L161.003333,255.714821 C165.486667,255.714821 168.503333,257.226734 168.5325,262.274773 L168.478333,289.764093 C168.503333,294.60388 166.999167,298.344093 160.049167,298.344093 L156.286667,298.344093 L156.286667,255.714821 Z M156.428333,314.308724 C165.599167,313.913045 168.661667,317.124297 168.636667,325.154511 C168.628333,352.052394 168.636667,372.852647 168.636667,372.852647 L188.003333,372.852647 C188.003333,372.852647 188.403333,358.554035 188.003333,320.081482 C187.878333,308.081977 180.399167,306.286841 180.399167,306.286841 C189.07,302.542462 188.099167,298.269122 188.078333,288.360472 L187.995,262.637132 C187.953333,245.443812 178.649167,239.862647 162.665833,239.862647 L136.424167,239.808501 L136.424167,372.852647 L156.428333,372.852647 L156.428333,314.308724 Z" id="Fill-41" fill="#051821"></path>
                <polygon id="Fill-43" fill="#051821" points="301.347083 356.873854 276.109583 356.873854 276.109583 239.806835 256.292917 239.806835 256.292917 372.855146 301.347083 372.855146"></polygon>
                <polygon id="Fill-45" fill="#051821" points="210.860417 255.814366 210.860417 372.85223 230.677083 372.85223 230.677083 255.814366 247.872917 255.814366 247.872917 239.808084 182.64375 239.808084 198.685417 255.814366"></polygon>
                <polygon id="Fill-47" fill="#051821" points="396.272917 299.042988 418.68125 372.851814 418.79375 372.851814 436.777083 372.851814 436.777083 239.803503 418.79375 239.803503 418.79375 314.382862 396.277083 239.803503 396.16875 239.803503 378.289583 239.803503 378.289583 372.851814 396.272917 372.851814"></polygon>
            </g>
        </g>
    </g>
</svg>