<?xml version="1.0" encoding="UTF-8" standalone="no"?>
<svg width="500px" height="500px" viewBox="0 0 500 500" version="1.1" xmlns="http://www.w3.org/2000/svg" xmlns:xlink="http://www.w3.org/1999/xlink">
    <!-- Generator: Sketch 39.1 (31720) - http://www.bohemiancoding.com/sketch -->
    <title>SA</title>
    <desc>Created with Sketch.</desc>
    <defs></defs>
    <g id="NBA" stroke="none" stroke-width="1" fill="none" fill-rule="evenodd">
        <g id="SA">
            <g id="SASpurs_Global_pms" transform="translate(0.000000, 116.000000)">
                <path d="M483.696825,88.1910296 C485.320635,82.6280473 487.846032,73.9862367 487.846032,73.9862367 L469.115079,66.4029467 C468.31746,66.077858 467.489683,65.7503905 466.678571,65.4268876 L469.936508,55.9549112 L452.159524,50.2230414 C453.557143,45.512426 454.378571,42.7237988 454.407143,42.6207219 L456.486508,35.5314083 L449.48254,33.1558817 C383.247619,10.7088994 321.723016,0.697751479 249.983333,0.697751479 C178.26746,0.697751479 116.750794,10.7088994 50.518254,33.1558817 L43.5134921,35.5314083 L45.5928571,42.6207219 C45.6238095,42.7237988 46.4412698,45.512426 47.8420635,50.2230414 L30.0642857,55.9549112 L33.3230159,65.4300592 C32.5111111,65.754355 31.6936508,66.0723077 30.8833333,66.4029467 L12.1507937,73.9862367 C12.1507937,73.9862367 14.6738095,82.6280473 16.3,88.1910296 C11.0198413,90.0900237 0,94.0537278 0,94.0537278 L40.2126984,216.501183 C40.2126984,216.501183 50.9119048,212.650864 56.8420635,210.521136 C59.2634921,216.877018 62.2095238,224.602237 62.2095238,224.602237 L83.4634921,215.846249 C84.1436508,215.565562 84.8134921,215.30787 85.4904762,215.031148 L87.6968254,221.951574 L95.4777778,218.508805 C101.85,215.778059 121.357143,207.840343 147.947619,200.843006 C138.503175,214.899527 128.476984,229.824272 128.476984,229.824272 C128.476984,229.824272 183.834921,211.74458 189.303968,209.958178 C191.275397,214.701302 213.445238,268 213.445238,268 C213.445238,268 229.502381,212.908556 231.000794,207.772154 C235.464286,208.923444 300.362698,225.603669 300.362698,225.603669 C300.362698,225.603669 281.952381,204.350793 268.413492,188.725124 C331.007143,189.241302 387.58254,211.253775 404.519841,218.508805 L412.334921,221.85484 L414.506349,215.031148 C415.184921,215.30787 415.854762,215.565562 416.536508,215.846249 L437.790476,224.602237 C437.790476,224.602237 440.736508,216.877018 443.156349,210.521136 C449.088095,212.650864 459.784127,216.501183 459.784127,216.501183 L500,94.0537278 C500,94.0537278 488.976984,90.0900237 483.696825,88.1910296" id="Fill-1" fill="#C1C9CA"></path>
                <path d="M473.711905,93.2695503 C473.873016,92.7240355 477.945238,78.7753491 477.945238,78.7753491 L466.042857,73.9608639 C462.996032,72.7247337 459.91746,71.5211124 456.829365,70.3373136 L460.083333,60.8780237 L442.612698,55.247645 C445.340476,46.1213728 447.002381,40.4568994 447.002381,40.4568994 C385.963492,19.7669822 325.697619,8.40631953 249.983333,8.40631953 C174.273016,8.40631953 114.037302,19.7669822 52.997619,40.4568994 C52.997619,40.4568994 54.6579365,46.1269231 57.3857143,55.247645 L39.915873,60.8780237 L43.1714286,70.3373136 C40.0777778,71.5211124 37.0007937,72.7247337 33.95,73.9608639 L22.0531746,78.7753491 C22.0531746,78.7753491 26.1261905,92.7256213 26.2849206,93.2695503 C25.3190476,93.6152544 10.2277778,99.0458225 10.2277778,99.0458225 L45.35,205.987337 C45.35,205.987337 60.9388889,200.382331 61.615873,200.144462 L66.85,213.871136 L80.35,208.308154 C83.6412698,206.948331 86.9134921,205.645598 90.1785714,204.372201 C91.3753968,208.140852 92.1714286,210.625799 92.4380952,211.422663 C100.11746,208.133716 127.486508,196.938769 163.769841,189.085101 C155.456349,201.461467 144.583333,217.646923 144.583333,217.646923 C144.583333,217.646923 192.296032,202.062485 193.043651,201.817479 C193.409524,202.699183 212.350794,248.234604 212.350794,248.234604 C212.350794,248.234604 226.184127,200.777988 226.462698,199.819373 C227.656349,200.125432 281.6,213.993243 281.6,213.993243 C281.6,213.993243 263.886508,193.542781 253.280159,181.305964 C326.681746,177.747432 394.586508,205.867609 407.561111,211.422663 C407.825397,210.625799 408.623016,208.140852 409.822222,204.372201 C413.085714,205.645598 416.35873,206.948331 419.65,208.308154 L433.15,213.871136 L438.383333,200.144462 C439.061905,200.382331 454.645238,205.987337 454.645238,205.987337 L489.773016,99.0458225 C489.773016,99.0458225 474.679365,93.6152544 473.711905,93.2695503" id="Fill-2" fill="#0F1216"></path>
                <path d="M38.4801587,85.121716 L38.4801587,85.121716 C38.4801587,85.121716 37.5801587,85.4888284 36.6777778,85.8519763 C37.5261905,88.755574 41.0357143,100.765621 41.0357143,100.765621 C41.0357143,100.765621 28.4095238,105.306556 25.3388889,106.412651 C26.5857143,110.201124 51.6269841,186.451089 52.9404762,190.451266 C56.1396825,189.305527 68.6690476,184.802651 68.6690476,184.802651 C68.6690476,184.802651 72.565873,195.017574 73.7071429,198.013148 C74.7301587,197.58974 75.752381,197.167124 75.752381,197.167124 C135.459524,172.562663 190.830952,161.09813 250,161.09813 C309.16746,161.09813 364.534921,172.562663 424.247619,197.167124 C424.247619,197.167124 425.272222,197.58974 426.29127,198.013148 C427.433333,195.017574 431.329365,184.802651 431.329365,184.802651 C431.329365,184.802651 443.85873,189.305527 447.057937,190.451266 C448.373016,186.451089 473.415079,110.201124 474.661111,106.412651 C471.589683,105.306556 458.962698,100.765621 458.962698,100.765621 C458.962698,100.765621 462.472222,88.755574 463.319048,85.8519763 C462.416667,85.4888284 461.515873,85.121716 461.515873,85.121716 C396.344444,58.723716 321.323016,44.188284 250.271429,44.188284 C178.870635,44.188284 103.655556,58.723716 38.4801587,85.121716" id="Fill-3" fill="#FFFFFF"></path>
                <path d="M442.957937,182.068734 C438.461905,180.455183 427.521429,176.520817 427.521429,176.520817 C427.521429,176.520817 424.033333,185.662947 422.556349,189.539432 C363.630952,165.774651 308.657143,154.594769 250,154.594769 C191.342063,154.594769 136.369048,165.774651 77.4420635,189.539432 C75.9650794,185.662947 72.4793651,176.520817 72.4793651,176.520817 C72.4793651,176.520817 61.5380952,180.455183 57.0404762,182.068734 C54.6666667,174.847799 35.7468254,117.240485 33.4984127,110.390627 C37.9238095,108.796107 48.9984127,104.816544 48.9984127,104.816544 C48.9984127,104.816544 45.8309524,93.9673018 44.5920635,89.7213254 C108.157937,64.5554911 181.015873,50.6932308 250.271429,50.6932308 C319.184921,50.6932308 391.85,64.5554911 455.406349,89.7213254 C454.169048,93.9673018 451,104.816544 451,104.816544 C451,104.816544 462.07619,108.796107 466.499206,110.390627 C464.253175,117.240485 445.331746,174.847799 442.957937,182.068734" id="Fill-4" fill="#C1C9CA"></path>
                <path d="M339.407143,98.5978343 L316.388889,94.7609941 L317.051587,90.8012544 L340.06746,94.6388876 L339.407143,98.5978343 L339.407143,98.5978343 Z M358.827778,142.775811 L368.745238,86.7947337 C368.749206,86.7891834 368.921429,84.8679882 368.921429,84.8679882 C368.947619,82.2894793 368.163492,79.8045325 366.645238,77.6740118 C364.750794,75.0043195 361.927778,73.2337751 358.696825,72.6906391 L295.709524,62.0332781 L291.323016,87.8905207 C291.323016,87.8905207 282.925397,137.418189 282.505556,139.888071 C286.036508,140.487503 307.69127,144.151491 311.213492,144.746959 C311.838889,141.109929 315.655556,118.930154 315.655556,118.930154 L333.44127,121.937621 L333.069048,124.118095 C333.069048,124.118095 330.624603,138.965136 330.502381,139.923751 C330.056349,143.408544 330.761905,144.412355 331.780952,145.907763 C332.821429,147.431716 334.599206,148.487065 336.769048,149.072225 C336.512698,149.018308 366.526984,156.324876 366.526984,156.324876 L358.827778,142.775811 L358.827778,142.775811 Z" id="Fill-5" fill="#FFFFFF"></path>
                <path d="M91.4888889,144.295006 L90.234127,140.481953 L111.054762,133.642402 L112.310317,137.457041 L91.4888889,144.295006 L91.4888889,144.295006 Z M83.4880952,120.247953 L82.2349206,116.433314 L103.056349,109.595349 L104.311905,113.408402 L83.4880952,120.247953 L83.4880952,120.247953 Z M140.55873,141.362864 L123.715873,89.5690888 C121.625397,83.1458107 114.692857,79.6166154 108.264286,81.7035266 L108.278571,81.6963905 L60.9960317,97.0453373 C57.8809524,98.0578698 55.347619,100.222485 53.8579365,103.136391 C52.9650794,104.884734 52.5150794,106.750426 52.5150794,108.684308 C52.5150794,109.964047 52.7206349,111.24458 53.1222222,112.485467 L69.9674603,164.280828 C72.0579365,170.709657 78.9880952,174.23568 85.4190476,172.148769 C85.4190476,172.148769 85.2642857,172.210615 85.1809524,172.24471 C85.5809524,172.094852 89.0880952,170.956249 132.686508,156.803787 C137.755556,155.156142 141.160317,150.471692 141.160317,145.14658 C141.160317,143.864462 140.95873,142.591858 140.55873,141.362864 L140.55873,141.362864 Z" id="Fill-6" fill="#FFFFFF"></path>
                <path d="M158.178571,99.1631716 L157.420635,95.2177041 L180.343651,90.8266272 L181.1,94.7681302 L158.178571,99.1631716 L158.178571,99.1631716 Z M209.94127,101.589444 C209.949206,101.625124 204.6,73.8189349 204.6,73.8189349 C203.992063,70.6092781 202.165873,67.8333373 199.459524,65.991432 C196.751587,64.1487337 193.490476,63.4652544 190.269048,64.0773728 C190.269048,64.0773728 131.548413,75.2080947 127.496825,75.9740355 C128.053968,78.8990414 139.406349,138.754225 139.406349,138.754225 L142.219048,153.554485 C142.219048,153.554485 167.31746,148.801846 170.837302,148.132639 C170.148413,144.501953 165.946825,122.394331 165.946825,122.394331 L200.17619,115.911586 C203.394444,115.297089 206.184127,113.47342 208.027778,110.771219 C209.496032,108.614533 210.233333,106.112142 210.155556,103.532047 L209.94127,101.589444 L209.94127,101.589444 Z" id="Fill-7" fill="#FFFFFF"></path>
                <path d="M191.922222,129.808734 C192.006349,131.810012 193.647619,154.022296 193.647619,154.022296 C193.647619,154.022296 166.896825,155.137905 163.34127,155.285385 C166.244444,157.328686 187.814286,172.498438 187.814286,172.498438 C187.814286,172.498438 172.766667,194.906568 170.805556,197.820473 C174.138889,196.730237 199.135714,188.565751 199.135714,188.565751 C199.135714,188.565751 209.25,212.888734 210.569841,216.063503 C211.533333,212.755527 219.080159,186.868154 219.080159,186.868154 C219.080159,186.868154 247.303968,194.121598 251.053175,195.085763 C248.534127,192.178994 230.237302,171.058533 230.237302,171.058533 C230.237302,171.058533 252.43254,152.15026 255.034127,150.005467 C251.95873,149.985645 237.890476,149.78187 237.890476,149.78187 L241.501587,145.831645 L264.948413,145.831645 L292.669841,96.7503787 L292.669841,61.5781538 L268.288889,61.5781538 L257.669048,80.3833491 C257.669048,80.3833491 256.505556,89.8442249 256.260317,91.8645325 C255.25873,93.642213 246.996032,108.344947 244.300794,113.141988 L240.398413,113.141988 C244.5,105.900438 249.861111,96.424497 249.861111,96.424497 L249.861111,61.5781538 L224.757937,61.5781538 L214.525397,80.3310178 C214.525397,80.3310178 213.450794,89.8315385 213.216667,91.8954556 C212.169048,93.760355 191.922222,129.808734 191.922222,129.808734" id="Fill-8" fill="#FFFFFF"></path>
                <polyline id="Fill-9" fill="#0F1216" points="272.106349 68.1108521 264.003175 82.4647101 262.592063 93.9403432 248.124603 119.678651 229.185714 119.678651 243.32381 94.706284 243.32381 68.1108521 228.64127 68.1108521 220.880952 82.3370533 219.566667 93.9403432 198.946032 130.651586 202.398413 139.29974 215.237302 139.29974 209.393651 154.087314 198.454762 142.262805 199.740476 159.617787 180.784921 160.407515 195.861905 171.015716 185.120635 186.997396 202.457937 181.334509 209.597619 198.492852 215.046032 179.798663 234.376984 184.76697 221.896032 170.362367 237.254762 157.688663 221.400794 158.668686 238.554762 139.29974 261.131746 139.29974 286.134127 95.0369231 286.134127 68.1108521 272.106349 68.1108521"></polyline>
                <path d="M417.471429,119.734154 L396.645238,112.892225 L397.901587,109.078379 L418.72619,115.921893 L417.471429,119.734154 L417.471429,119.734154 Z M409.465873,143.781207 L388.65,136.943243 L389.907143,133.128604 L410.722222,139.968947 L409.465873,143.781207 L409.465873,143.781207 Z M445.911111,102.858083 C444.422222,99.9378343 441.888889,97.7755976 438.77381,96.7646509 L391.509524,81.4212544 C388.393651,80.4118935 385.066667,80.6727574 382.147619,82.1602367 C379.230952,83.6445444 377.065873,86.1794438 376.056349,89.291574 L359.20873,141.084556 C358.805556,142.33258 358.603968,143.611527 358.603968,144.88413 C358.603968,146.794225 359.057937,148.68529 359.947619,150.432047 C361.434921,153.351503 363.968254,155.512154 367.083333,156.523101 L414.346032,171.864911 C417.460317,172.881408 420.784921,172.61658 423.705556,171.130686 C426.622222,169.648757 428.792857,167.115444 429.802381,163.999349 L446.648413,112.20716 C447.053175,110.959136 447.255556,109.677018 447.255556,108.404414 C447.255556,106.497491 446.804762,104.602462 445.911111,102.858083 L445.911111,102.858083 Z" id="Fill-10" fill="#FFFFFF"></path>
                <polyline id="Fill-11" fill="#C1C9CA" points="274.084921 71.965929 269.072222 80.9153846 275.920635 80.9153846 280.687302 71.965929 274.084921 71.965929"></polyline>
                <polyline id="Fill-12" fill="#C1C9CA" points="238.084921 71.965929 230.976984 71.9714793 226.011111 80.9288639 233.386508 80.912213 238.084921 71.965929"></polyline>
                <path d="M207.907937,171.68413 C206.546032,171.68413 205.44127,170.580414 205.44127,169.220592 C205.44127,167.856012 206.546032,166.753882 207.907937,166.753882 C209.26746,166.753882 210.379365,167.856012 210.379365,169.220592 C210.379365,170.580414 209.26746,171.68413 207.907937,171.68413 L207.907937,171.68413 Z M250.753968,123.153929 L214.780159,123.153929 L229.772222,96.7868521 L222.724603,96.7868521 L204.62619,128.70026 L224.698413,128.70026 L210.015873,162.171716 L203.394444,155.017385 L204.060317,164.042959 L194.201587,164.452888 L202.043651,169.97226 L196.460317,178.276296 L205.47381,175.334639 L209.187302,184.259515 L212.019048,174.536189 L222.073016,177.119456 L215.580952,169.630521 L223.571429,163.039148 L212.365079,163.729763 L211.587302,163.729763 L234.794444,128.70026 L254.902381,128.70026 L272.69127,96.7868521 L265.75,96.7868521 L250.753968,123.153929 L250.753968,123.153929 Z" id="Fill-13" fill="#C1C9CA"></path>
                <polyline id="Fill-14" fill="#C1C9CA" points="231.52619 84.5262485 225.088889 84.5262485 224.25873 92.1904142 230.905556 92.2062722 231.52619 84.5262485"></polyline>
                <polyline id="Fill-15" fill="#C1C9CA" points="267.17619 92.1904142 273.82619 92.2062722 274.443651 84.5262485 268.007937 84.5262485 267.17619 92.1904142"></polyline>
                <path d="M80.2293651,56.4790178 C81.118254,59.7973018 83.0452381,60.1414201 87.318254,58.9988521 L93.0055556,57.4725207 C99.2428571,55.8058462 100.454762,54.7536686 99.352381,50.6353491 C98.1571429,46.1808402 96.3452381,46.1879763 89.0595238,48.1654675 C84.0325397,49.532426 83.4507937,49.6410533 83.0920635,48.3089822 C82.8706349,47.4851598 83.4960317,46.9364734 84.5507937,46.6542012 L89.7531746,45.2618698 C91.9087302,44.6846391 92.1603175,45.1143905 92.4595238,46.2355503 L97.1539683,44.9780118 L97.0238095,44.4935503 C96.3039683,41.8095858 95.3031746,40.105645 89.8920635,41.5534793 L83.3388889,43.3081657 C77.4198413,44.8947574 77.7373016,47.097432 78.4793651,49.8614793 C79.4873016,53.6214083 80.515873,54.2509704 87.5777778,52.362284 C93.6261905,50.7431834 94.1984127,50.6821302 94.5539683,52.0102367 C94.8706349,53.1972071 93.8825397,53.5722485 92.8912698,53.8378698 L87.1404762,55.3776805 C85.7880952,55.7408284 85.0984127,55.7891953 84.6404762,54.167716 L79.9484127,55.4244615 L80.2293651,56.4790178" id="Fill-16" fill="#FFFFFF"></path>
                <path d="M122.819048,37.5501302 L127.140476,42.7126982 L121.057937,44.0019527 L122.819048,37.5501302 L122.819048,37.5501302 Z M113.874603,51.8786154 L119.181746,50.7503195 L119.993651,47.7158935 L129.62381,45.6741775 L131.685714,48.0964852 L136.97381,46.9721538 L125.159524,33.3001893 L118.973016,34.6100592 L113.874603,51.8786154 L113.874603,51.8786154 Z" id="Fill-17" fill="#FFFFFF"></path>
                <polyline id="Fill-18" fill="#FFFFFF" points="150.756349 44.5474675 155.557143 43.7886627 153.754762 32.4311716 153.797619 32.4224497 164.616667 42.3566864 172.051587 41.1800237 169.572222 25.5472189 164.773016 26.3044379 166.571429 37.6627219 166.530952 37.6682722 155.713492 27.7372071 148.280159 28.9130769 150.756349 44.5474675"></polyline>
                <path d="M212.413492,25.5503905 L215.871429,31.3234911 L209.665873,31.6485799 L212.413492,25.5503905 L212.413492,25.5503905 Z M201.334127,38.3057633 L206.753968,38.0187337 L208.027778,35.1492308 L217.862698,34.635432 L219.519048,37.3511124 L224.91746,37.0688402 L215.390476,21.7151361 L209.071429,22.0441893 L201.334127,38.3057633 L201.334127,38.3057633 Z" id="Fill-19" fill="#FFFFFF"></path>
                <polyline id="Fill-20" fill="#FFFFFF" points="238.901587 36.6232308 243.760317 36.6232308 243.760317 25.1190533 243.803175 25.1190533 252.930952 36.6232308 260.459524 36.6232308 260.459524 20.7922012 255.603175 20.7922012 255.603175 32.2932071 255.559524 32.2932071 246.428571 20.7922012 238.901587 20.7922012 238.901587 36.6232308"></polyline>
                <polyline id="Fill-21" fill="#FFFFFF" points="275.464286 25.0088402 282.283333 25.3632663 281.664286 37.244071 286.515079 37.4954201 287.138095 25.6169941 293.957143 25.9753846 294.162698 22.0441893 275.671429 21.0784379 275.464286 25.0088402"></polyline>
                <path d="M313.207143,30.8088994 C313.410317,28.8520237 314.01746,27.7039053 316.565873,27.9734911 L322.222222,28.5649941 C324.772222,28.8329941 325.122222,30.0802249 324.916667,32.0410651 L324.739683,33.7354911 C324.497619,36.0206272 323.928571,36.8373136 321.642857,36.597858 L315.463492,35.9484734 C313.17619,35.7090178 312.787302,34.7876686 313.029365,32.5033254 L313.207143,30.8088994 L313.207143,30.8088994 Z M307.907143,33.4857278 C307.419841,38.0948521 309.899206,39.4491243 314.251587,39.908213 L321.999206,40.7241065 C326.352381,41.1800237 329.054762,40.3680947 329.538889,35.7557988 L330.034127,31.0570769 C330.519048,26.4503314 328.044444,25.0881302 323.694444,24.6298343 L315.943651,23.8218698 C311.592063,23.3627811 308.885714,24.175503 308.403968,28.7885917 L307.907143,33.4857278 L307.907143,33.4857278 Z" id="Fill-22" fill="#FFFFFF"></path>
                <polyline id="Fill-23" fill="#FFFFFF" points="344.07619 43.4445444 348.861905 44.2850178 350.864286 32.9616213 350.903968 32.9695503 357.892857 45.8787456 365.310317 47.1846509 368.061111 31.5914911 363.274603 30.7510178 361.277778 42.0791716 361.230952 42.0704497 354.238889 29.1596686 346.830952 27.8545562 344.07619 43.4445444"></polyline>
                <polyline id="Fill-24" fill="#FFFFFF" points="380.726984 50.289645 385.480952 51.2990059 388.774603 35.8136805 384.022222 34.8043195 380.726984 50.289645"></polyline>
                <path d="M407.59127,47.7959763 C408.102381,45.8930178 408.878571,44.8551124 411.350794,45.520355 L416.848413,46.9927692 C419.320635,47.6548402 419.474603,48.9393373 418.966667,50.8399172 L418.523016,52.488355 C417.928571,54.7021302 417.237302,55.4244615 415.016667,54.829787 L409.011905,53.2202012 C406.795238,52.6286982 406.553968,51.6581893 407.148413,49.4412426 L407.59127,47.7959763 L407.59127,47.7959763 Z M401.938889,49.6077515 C400.738095,54.0876331 402.971429,55.8169467 407.196825,56.9492071 L414.72381,58.9623787 C418.953175,60.0938462 421.752381,59.7116686 422.952381,55.2349586 L424.175397,50.6710296 C425.378571,46.1959053 423.146032,44.4681775 418.91746,43.3327456 L411.390476,41.3171953 C407.161111,40.1873136 404.365079,40.570284 403.163492,45.047787 L401.938889,49.6077515 L401.938889,49.6077515 Z" id="Fill-25" fill="#FFFFFF"></path>
                <path d="M163.227778,142.955006 L147.4,145.95613 L135.106349,81.1516686 L191.48254,70.4689349 C194.605556,69.8734675 197.614286,71.9246982 198.206349,75.0455503 L203.543651,102.800201 C204.137302,105.921053 202.086508,108.929314 198.964286,109.519231 L158.335714,117.219077 L163.227778,142.955006 L163.227778,142.955006 Z M155.681746,103.244225 L184.015079,97.8731243 C185.262698,97.6352544 186.084127,96.4316331 185.846825,95.1891598 L184.530159,88.6041302 C184.292063,87.3576923 183.088095,86.5378343 181.840476,86.7749112 L153.577778,92.1317396 L155.681746,103.244225 L155.681746,103.244225 Z M362.324603,85.7298698 C362.853968,82.6010888 360.746825,79.6348521 357.611111,79.1059882 L301.043651,69.5333136 L290.00873,134.564544 L305.897619,137.252473 L310.338889,111.43329 L330.82619,114.89826 L338.695238,116.229538 C339.946825,116.44045 340.793651,117.62742 340.58254,118.877822 L337.219048,138.324473 C336.525397,142.434071 338.884921,142.68542 339.915873,142.890781 C341.063492,143.116757 353.539683,145.309917 353.539683,145.309917 C353.164286,144.912675 352.395238,143.513207 353.018254,140.702379 L356.945238,117.861325 C357.281746,115.603148 356.194444,113.646272 354.311111,112.751882 C356.97619,112.468024 358.196825,110.392213 358.578571,108.223633 L358.915079,106.241385 L362.324603,85.7298698 L362.324603,85.7298698 Z M312.713492,97.4068994 L341.072222,102.204734 C342.32619,102.413266 343.512698,101.572 343.728571,100.321598 L344.781746,93.6953373 C344.994444,92.4401775 344.151587,91.254 342.898413,91.0399172 L314.539683,86.2460473 L312.713492,97.4068994 L312.713492,97.4068994 Z M412.465873,137.068521 C413.672222,137.45942 414.261111,138.980994 413.869841,140.19413 L411.757937,146.679254 C411.36746,147.888426 410.070635,148.550497 408.859524,148.15484 L385.506349,140.573136 C384.297619,140.18303 383.636508,138.887432 384.03254,137.680639 L385.369048,133.560734 L370.110317,128.60987 L365.403175,143.095349 C364.418254,146.117882 366.073016,149.359254 369.094444,150.340071 L416.361111,165.679503 C419.383333,166.661905 422.628571,165.007124 423.611905,161.992521 L432.545238,134.523314 C433.528571,131.499195 431.872222,128.259408 428.851587,127.279385 L399.027778,117.598876 L393.55873,115.822781 C392.348413,115.427124 391.685714,114.130734 392.081746,112.924734 L394.16746,106.500663 C394.561905,105.289905 395.857937,104.633385 397.069841,105.025077 L420.419048,112.602817 C421.630952,112.995302 422.292063,114.294071 421.896032,115.504828 L420.604762,119.16168 L435.923016,124.134746 L440.455556,110.193988 C441.438095,107.173041 439.785714,103.931669 436.760317,102.953231 L389.496032,87.6074556 C386.474603,86.627432 383.22619,88.2790414 382.246825,91.2976095 L373.446825,118.360059 C372.461905,121.378627 374.116667,124.62 377.140476,125.602402 L395.179365,131.45955 L412.465873,137.068521 L412.465873,137.068521 Z M93.4047619,135.367751 L75.3619048,141.226485 C72.3420635,142.208888 69.0960317,140.554107 68.1126984,137.53316 L67.4031746,135.347136 L59.3142857,110.47626 C58.331746,107.458485 59.984127,104.210769 63.0079365,103.233124 L110.27381,87.8905207 C113.296825,86.9081183 116.542063,88.5613136 117.523016,91.5798817 L122.055556,105.519846 L106.83254,110.461988 L105.631746,106.770249 C105.24127,105.565041 103.938889,104.90297 102.73254,105.295456 L79.3809524,112.873195 C78.1714286,113.270438 77.5103175,114.563657 77.9047619,115.774414 L79.9936508,122.196899 C80.3857143,123.402107 81.684127,124.064178 82.8904762,123.672485 L118.185714,112.215882 C121.207143,111.235065 124.452381,112.886675 125.437302,115.906036 L126.323016,118.639953 L134.370635,143.377621 C135.351587,146.394604 133.698413,149.636769 130.676984,150.619172 L83.4095238,165.962568 C80.3857143,166.942592 77.1412698,165.294947 76.1595238,162.272414 L71.4468254,147.785349 L86.7047619,142.832899 L88.0444444,146.950426 C88.4365079,148.158012 89.7333333,148.820083 90.9412698,148.427598 L114.294444,140.846686 C115.503175,140.453408 116.163492,139.157811 115.769048,137.951018 L113.660317,131.45955 C113.268254,130.252757 111.896032,129.367089 110.688095,129.759574 L93.4047619,135.367751 L93.4047619,135.367751 Z" id="Fill-26" fill="#0F1216"></path>
            </g>
        </g>
    </g>
</svg>