<?xml version="1.0" encoding="UTF-8" standalone="no"?>
<svg width="500px" height="500px" viewBox="0 0 500 500" version="1.1" xmlns="http://www.w3.org/2000/svg" xmlns:xlink="http://www.w3.org/1999/xlink">
    <!-- Generator: Sketch 39.1 (31720) - http://www.bohemiancoding.com/sketch -->
    <title>SAC</title>
    <desc>Created with Sketch.</desc>
    <defs>
        <polygon id="path-1" points="0 499.947917 437.903727 499.947917 437.903727 0 0 0"></polygon>
    </defs>
    <g id="NBA" stroke="none" stroke-width="1" fill="none" fill-rule="evenodd">
        <g id="SAC">
            <g id="SKings_Global_pms" transform="translate(31.000000, 0.000000)">
                <g id="Group-3">
                    <mask id="mask-2" fill="white">
                        <use xlink:href="#path-1"></use>
                    </mask>
                    <g id="Clip-2"></g>
                    <path d="M437.903727,0 L375.232432,62.9704861 L322.85457,10.6154514 L270.239061,62.9765625 L217.949667,10.6154514 L165.679354,62.9704861 L113.375216,10.6154514 L61.1144436,62.9965278 L0,1.25607639 L0,280.073785 C0,401.336806 97.1995723,500 218.287925,500 C339.403164,500 437.903727,401.336806 437.903727,280.073785 L437.903727,0" id="Fill-1" fill="#FFFFFF" mask="url(#mask-2)"></path>
                </g>
                <path d="M19.5469426,318.263021 C24.7240158,344.522569 34.9524,369.195312 50.0326099,391.669271 C59.1404079,375.685764 77.3594733,355.829861 113.142772,347.393229 C110.394214,338.198785 107.94575,328.420139 105.867636,318.263021 L19.5469426,318.263021" id="Fill-4" fill="#575F64"></path>
                <path d="M64.3114099,410.561632 C102.98204,455.921007 158.663549,482.068576 217.365956,482.453993 C211.830677,479.624132 206.414222,476.507812 201.203323,473.153646 C176.319719,457.057292 142.10975,425.728299 120.019806,367.647569 C85.2530139,375.234375 70.5370812,394.957465 64.3114099,410.561632" id="Fill-5" fill="#575F64"></path>
                <path d="M141.440174,364.602431 C157.117972,404.049479 180.807267,434.361979 211.897461,454.709201 C232.453972,468.181424 252.154432,474.306424 265.143517,477.083333 C297.647453,469.490451 328.007358,453.8125 353.137283,431.651042 C333.311061,429.479167 312.980923,418.059028 291.521525,406.015625 C258.014958,387.195313 216.291339,363.771701 159.959335,363.771701 C153.872436,363.771701 147.659774,364.064236 141.440174,364.602431" id="Fill-6" fill="#575F64"></path>
                <path d="M226.145905,215.658854 L153.704174,215.658854 L153.704174,301.978299 L183.798677,301.978299 L183.798677,232.736979 L206.406416,232.736979 L206.406416,301.978299 L235.087176,301.978299 L235.087176,227.748264 C235.087176,221.171875 231.071453,215.658854 226.145905,215.658854" id="Fill-7" fill="#4E2A6C"></path>
                <path d="M247.766626,215.658854 L247.766626,289.707465 C247.766626,296.297743 251.74939,301.978299 256.661061,301.978299 L304.099497,301.978299 L329.029937,301.978299 L329.029937,249.570312 L300.136681,249.537326 L300.136681,284.878472 L277.535881,284.878472 L277.535881,232.318576 L329.029937,232.318576 L329.029937,215.658854 L247.766626,215.658854" id="Fill-8" fill="#4E2A6C"></path>
                <polyline id="Fill-9" fill="#4E2A6C" points="73.6126218 215.658854 57.2444317 250.517361 47.7931723 250.517361 47.7931723 215.658854 17.8374416 215.658854 17.8374416 301.978299 47.7931723 301.978299 47.7931723 267.243924 57.2444317 267.243924 73.6126218 301.978299 103.541465 301.978299 82.434202 258.881076 103.541465 215.658854 73.6126218 215.658854"></polyline>
                <polygon id="Fill-10" fill="#4E2A6C" points="111.512198 301.978299 142.522598 301.978299 142.522598 215.658854 111.512198 215.658854"></polygon>
                <path d="M420.147814,239.002604 L420.147814,215.658854 L340.63737,215.658854 L340.63737,255.092014 C340.63737,261.669271 344.626206,267.009549 349.524867,267.009549 L390.040301,267.009549 L390.040301,285.822917 L340.63737,285.822917 L340.63737,301.978299 L420.187711,301.978299 L420.187711,262.353299 C420.187711,256.221354 416.803402,250.461806 412.249069,250.461806 L370.479481,250.461806 L370.479481,232.386285 L391.37425,232.386285 L391.37425,239.002604 L420.147814,239.002604" id="Fill-11" fill="#4E2A6C"></path>
                <polyline id="Fill-12" fill="#4E2A6C" points="335.558305 128.112847 310.169917 128.112847 362.533034 75.6796875 322.85457 36.0338542 270.239061 88.3880208 217.949667 36.0338542 126.018238 128.112847 100.62985 128.112847 152.907101 75.5998264 113.375216 36.0338542 61.1144436 88.3880208 17.8409109 45.3932292 17.8409109 199.818576 420.140008 199.818576 420.140008 43.4010417 335.558305 128.112847"></polyline>
                <path d="M105.724527,183.226562 C105.724527,185.466146 107.549382,187.293403 109.773208,187.293403 L132.380947,187.293403 L132.380947,181.21441 L113.95459,181.21441 L113.95459,161.497396 L132.380947,161.497396 L132.380947,155.432292 L105.724527,155.432292 L105.724527,183.226562" id="Fill-13" fill="#FFFFFF"></path>
                <path d="M77.090602,172.898437 L87.292099,172.898437 L87.292099,161.505208 L77.090602,161.505208 L77.090602,172.898437 Z M68.8666099,155.432292 L68.8666099,187.293403 L77.090602,187.293403 L77.090602,178.956597 L87.292099,178.956597 L87.292099,187.293403 L95.5230297,187.293403 L95.5230297,159.492188 C95.5230297,157.107639 93.6079723,155.432292 91.0025228,155.432292 L68.8666099,155.432292 L68.8666099,155.432292 Z" id="Fill-14" fill="#FFFFFF"></path>
                <path d="M386.770479,181.169271 L396.932079,181.169271 L396.932079,161.492187 L386.770479,161.492187 L386.770479,181.169271 Z M401.161164,155.432292 L382.509303,155.432292 C380.292416,155.432292 378.473632,157.240451 378.473632,159.465278 L378.473632,183.228299 C378.473632,185.453993 380.292416,187.293403 382.509303,187.293403 L401.161164,187.293403 C403.384123,187.293403 405.195968,185.440104 405.195968,183.215278 L405.195968,159.465278 C405.195968,157.240451 403.384123,155.432292 401.161164,155.432292 L401.161164,155.432292 Z" id="Fill-15" fill="#FFFFFF"></path>
                <path d="M31.979204,170.33941 C31.979204,172.572049 33.8049267,174.392361 36.0348238,174.392361 L50.4055604,174.392361 L50.4055604,181.21441 L31.979204,181.21441 L31.979204,187.293403 L58.6356238,187.293403 L58.6356238,172.372396 C58.6356238,170.300347 57.0891802,168.565972 55.018004,168.347222 L54.792499,168.327257 L40.1971248,168.327257 L40.1971248,161.498264 L58.6356238,161.498264 L58.6356238,155.432292 L31.979204,155.432292 L31.979204,170.33941" id="Fill-16" fill="#FFFFFF"></path>
                <path d="M187.000848,172.898437 L197.203212,172.898437 L197.203212,161.505208 L187.000848,161.505208 L187.000848,172.898437 Z M201.364646,155.432292 L178.770784,155.432292 L178.770784,187.293403 L187.000848,187.293403 L187.000848,178.956597 L197.203212,178.956597 L197.203212,187.293403 L205.440214,187.293403 L205.440214,159.492188 C205.440214,157.260417 203.60842,155.432292 201.364646,155.432292 L201.364646,155.432292 Z" id="Fill-17" fill="#FFFFFF"></path>
                <polyline id="Fill-18" fill="#FFFFFF" points="342.614008 161.490451 351.846701 161.490451 351.846701 187.293403 360.057683 187.293403 360.057683 161.490451 369.276499 161.490451 369.276499 155.432292 342.614008 155.432292 342.614008 161.490451"></polyline>
                <path d="M257.286404,155.432292 L216.358123,155.432292 L216.358123,187.293403 L224.589053,187.293403 L224.589053,161.5 L234.678665,161.5 L234.678665,187.293403 L243.021481,187.293403 L243.021481,161.5 L253.104154,161.5 L253.104154,187.293403 L261.335085,187.293403 L261.335085,159.487847 C261.335085,157.262153 259.509362,155.432292 257.286404,155.432292" id="Fill-19" fill="#FFFFFF"></path>
                <path d="M330.220776,155.432292 L307.626048,155.432292 L307.626048,187.293403 L315.85004,187.293403 L315.85004,161.5 L326.051537,161.5 L326.051537,187.293403 L334.282467,187.293403 L334.282467,159.487847 C334.282467,157.262153 332.457612,155.432292 330.220776,155.432292" id="Fill-20" fill="#FFFFFF"></path>
                <path d="M272.540947,183.226562 C272.540947,185.466146 274.352792,187.293403 276.589628,187.293403 L299.17655,187.293403 L299.17655,181.21441 L280.77101,181.21441 L280.77101,174.385417 L299.17655,174.385417 L299.17655,168.333333 L280.77101,168.333333 L280.77101,161.497396 L299.17655,161.497396 L299.17655,155.432292 L272.540947,155.432292 L272.540947,183.226562" id="Fill-21" fill="#FFFFFF"></path>
                <path d="M150.076147,169.643229 L160.278511,169.643229 L160.278511,161.498264 L150.076147,161.498264 L150.076147,169.643229 Z M164.108626,175.701389 L168.508574,175.701389 L168.508574,159.486111 C168.508574,157.107639 166.555354,155.432292 163.988935,155.432292 L141.852154,155.432292 L141.852154,187.293403 L150.076147,187.293403 L150.076147,175.701389 L156.043354,175.701389 L160.968903,187.293403 L168.986471,187.293403 L164.108626,175.701389 L164.108626,175.701389 Z" id="Fill-22" fill="#FFFFFF"></path>
                <path d="M155.566325,342.705729 C198.427877,341.834201 240.815002,352.575521 294.901497,383.421007 C334.877453,406.219618 352.444289,413.135417 364.430745,410.18316 C375.475283,407.463542 385.721881,400.934896 403.797838,362.696181 C410.697422,348.101562 415.653327,330.803819 418.06276,318.273438 L127.281065,318.271701 C129.304539,327.086806 131.292451,335.855903 133.952543,343.921875 C140.990899,343.131076 148.26777,342.705729 155.566325,342.705729" id="Fill-23" fill="#575F64"></path>
            </g>
        </g>
    </g>
</svg>