<svg width="500" height="500" viewBox="0 0 500 500" fill="none" xmlns="http://www.w3.org/2000/svg">
<g id="Team Logos / NBA / Regular / Dark / TOR">
<g id="Frame">
<path id="Vector" d="M500 250C500 388.082 388.073 500 250 500C111.927 500 0 388.082 0 250C0 111.918 111.918 0 250 0C388.082 0 500 111.927 500 250Z" fill="white"/>
<path id="Vector_2" d="M249.948 487.005C203.295 487.007 157.68 473.239 118.819 447.427C79.9577 421.615 49.58 384.906 31.4929 341.902C13.4058 298.899 8.41413 251.513 17.1434 205.684C25.8727 159.856 47.9347 117.623 80.5642 84.2796C102.279 61.9602 128.205 44.1698 156.842 31.9382C185.479 19.7065 216.257 13.2767 247.396 13.0209C248.287 13.0209 249.181 13.0209 250.078 13.0209C296.724 13.0289 342.331 26.8031 381.183 52.6173C420.035 78.4315 450.405 115.138 468.487 158.137C486.569 201.135 491.559 248.514 482.832 294.337C474.105 340.159 452.049 382.387 419.427 415.729C397.715 438.05 371.791 455.842 343.155 468.074C314.52 480.305 283.742 486.734 252.604 486.988H249.939" fill="#061922"/>
<path id="Vector_3" d="M273.281 87.2396L265.069 95.5382H241.962L233.655 87.2396V41.4931L241.962 33.1945H264.983L273.281 41.4931V87.2396ZM249.262 46.7361L246.771 49.2274V79.4271L249.262 81.9097H257.682L260.165 79.4271V49.2274L257.682 46.7361H249.262Z" fill="white"/>
<path id="Vector_4" d="M407.118 195.226L396.094 191.406L386.12 170.573L390.026 159.505L431.311 139.748L442.37 143.655L452.257 164.401L448.351 175.486L407.118 195.226ZM433.316 156.076L429.957 154.948L402.708 167.969L401.537 171.285L405.165 178.872L408.481 180.035L435.738 167.014L436.901 163.698L433.316 156.076Z" fill="white"/>
<path id="Vector_5" d="M150.825 121.866L151.05 133.533L134.956 150.104L123.212 150.26L90.3905 118.359L90.2256 106.623L106.276 90.1302L118.003 89.9565L150.825 121.866ZM105.035 110.833L105.087 114.305L126.788 135.365H130.26L136.137 129.288L136.085 125.816L114.41 104.748L110.937 104.8L105.035 110.833Z" fill="white"/>
<path id="Vector_6" d="M358.238 59.6007L333.932 116.936L323.967 112.674L321.337 71.9966L307.135 105.538L296.25 100.946L320.573 43.6372L334.036 49.349L334.201 85.0435L347.005 54.8264L358.238 59.6007Z" fill="white"/>
<path id="Vector_7" d="M197.986 72.6736L195.217 82.3611L212.578 99.5226L200.425 104.792L184.288 89.3142L178.403 91.9184L186.632 110.799L175.538 115.616L150.738 58.4028L177.413 46.7969L188.698 51.3715L197.986 72.6736ZM172.561 78.3507L182.387 74.0712C182.474 74.0712 183.689 70.816 183.689 70.816L180.295 63.0035L177.031 61.7187L167.196 65.9896L172.561 78.3507Z" fill="white"/>
<path id="Vector_8" d="M407.005 115.417L398.898 107.457L364.575 142.37L355.26 133.221L389.592 98.3073L381.476 90.3386L390.885 80.7639L416.415 105.851L407.005 115.417Z" fill="white"/>
<path id="Vector_9" d="M74.5832 150.972L69.9478 161.337L114.635 181.345L109.305 193.255L64.6093 173.264L59.9738 183.628L47.7256 178.151L62.3523 145.495L74.5832 150.972Z" fill="white"/>
<path id="Vector_10" d="M416.198 310.061L410.035 321.771L405.694 319.505L404.479 321.797L400.582 329.201L401.649 332.517L407.726 335.755L406.953 335.33L410.304 334.323L417.621 320.391L429.123 316.918L447.917 326.823L451.389 338.029L440.642 358.49C440.642 358.49 429.358 361.962 429.271 361.901L419.904 356.97L425.981 345.356L430.72 347.847L435.825 338.108L434.774 334.748L429.852 332.144L426.45 333.177L419.271 346.884L407.674 350.408L407.63 350.486L388.889 340.642L385.234 329.219L395.981 308.767L407.378 305.486L416.198 310.061Z" fill="white"/>
<path id="Vector_11" d="M95.9201 352.977L86.0677 350.894L70.1736 369.427L64.0972 357.717L78.3941 340.53L75.3819 334.852L57.1528 344.349L51.5625 333.62L106.918 304.887L120.347 330.686L116.58 342.248L95.9201 352.977ZM88.4896 328.012L93.4462 337.517C93.4462 337.604 96.7882 338.576 96.7882 338.576L104.314 334.662L105.373 331.319L100.417 321.771L88.4896 328.012Z" fill="white"/>
<path id="Vector_12" d="M177.543 428.307L168.559 449.818L157.726 445.321L181.667 387.726L208.003 398.672L212.344 409.957L203.663 430.938L194.983 435.556L177.543 428.307ZM182.179 417.161L190.972 420.816C191.05 420.816 194.184 419.479 194.184 419.479L197.439 411.667L196.181 408.42L187.37 404.766L182.179 417.161Z" fill="white"/>
<path id="Vector_13" d="M272.057 417.578L260.694 417.708L261.25 466.667L248.186 466.806L247.639 417.856L236.285 417.969L236.137 404.557L271.918 404.167L272.057 417.578Z" fill="white"/>
<path id="Vector_14" d="M344.488 437.934L339.766 448.602L318.168 456.805L307.457 451.979L291.215 409.201L296.007 398.507L317.517 390.339L328.22 395.156L344.488 437.934ZM307.656 408.559L306.224 411.762L316.944 440.009L320.139 441.45L328.012 438.455L329.453 435.26L318.741 407.031L315.538 405.582L307.656 408.559Z" fill="white"/>
<path id="Vector_15" d="M390.174 377.613L390.339 387.682L411.944 399.062L401.91 407.621L381.944 397.491L377.066 401.693L390.399 417.37L381.181 425.182L340.851 377.613L363.003 358.776L375.156 359.887L390.174 377.613ZM367.491 390.417L375.66 383.472C375.729 383.411 375.955 380 375.955 380L370.451 373.524L366.979 373.246L358.811 380.191L367.491 390.417Z" fill="white"/>
<path id="Vector_16" d="M126.059 428.767L116.32 419.792L120.842 410.599L107.5 398.316L98.698 403.576L88.9497 394.601L145.313 360.825L155.061 369.792L126.059 428.767ZM126.406 399.193L134.948 381.918L118.385 391.806L126.406 399.193Z" fill="white"/>
<path id="Vector_17" d="M298.611 375.26C298.819 375.521 298.967 375.842 299.097 375.833C299.8 375.833 301.189 375.573 301.189 375.573L302.578 374.983L306.502 373.446C306.502 373.446 316.293 368.785 316.328 368.75L318.064 367.838L318.932 367.448L319.983 366.736L321.719 365.651L323.785 364.514L326.45 362.778L331.068 359.523L333.325 357.743L336.58 355.391L339.54 353.186L340.937 352.161L342.882 350.338L344.922 348.325L348.194 344.852L352.005 341.181L356.415 336.102L358.819 332.873L359.687 331.719L362.292 328.516L367.344 321.259L368.75 318.88L372.153 312.196L374.071 308.559L377.344 301.927L379.08 297.891L380.998 291.71C380.998 291.71 383.264 283.55 384.47 279.279C384.565 279.059 384.604 278.818 384.583 278.578C384.562 278.339 384.481 278.109 384.349 277.908C383.654 276.927 383.142 275.677 382.483 274.575C382.144 273.993 381.615 273.411 381.337 272.934C381.059 272.457 380.156 271.38 379.826 270.99C379.458 270.577 379.044 270.208 378.594 269.887C377.686 268.969 376.73 268.099 375.729 267.283C375.313 267.026 374.918 266.736 374.549 266.415C371.882 264.325 368.967 262.576 365.868 261.207C364.557 260.642 363.212 260.156 361.849 259.687C360.712 259.322 359.552 259.032 358.377 258.819C358.133 258.745 357.876 258.722 357.624 258.754C357.371 258.785 357.127 258.87 356.91 259.002C356.476 259.288 356.458 259.957 356.389 260.608C356.198 262.3 356.137 264.184 355.99 265.885C355.842 267.587 355.712 269.427 355.573 271.198C355.434 272.786 355.365 274.401 355.156 275.99C354.904 278.09 354.618 280.2 354.219 282.283C353.481 286.181 352.648 290.095 351.832 293.95C351.668 295.032 351.401 296.096 351.033 297.127C350.327 298.762 349.806 300.471 349.479 302.222C348.639 305.872 347.525 309.452 346.146 312.934C345.217 315.834 343.989 318.629 342.483 321.276C342.374 321.449 342.29 321.636 342.231 321.832C341.467 323.628 340.738 325.443 339.922 327.222C339.401 328.377 338.663 329.427 338.186 330.582C337.544 332.023 336.777 333.406 335.894 334.713C334.531 336.814 333.108 338.863 331.936 341.076C331.111 342.607 330.182 344.081 329.158 345.486C328.889 345.851 328.654 346.224 328.403 346.597C327.595 347.786 326.832 349.019 325.946 350.139C324.21 352.318 322.474 354.479 320.66 356.571C319.531 357.891 318.281 359.106 317.092 360.365L313.845 363.837C313.611 364.071 313.325 364.262 313.064 364.479C312.413 365.043 311.727 365.555 311.128 366.163C309.751 367.596 308.236 368.889 306.606 370.026C305.894 370.503 305.165 370.981 304.514 371.519C302.701 372.995 300.719 374.251 298.611 375.26Z" fill="#BD1B21"/>
<path id="Vector_18" d="M386.111 270.451C386.181 270.451 386.207 270.33 386.224 270.174C386.267 269.835 386.319 269.245 386.319 269.245L387.274 260.721L387.847 252.734V244.826V243.585L386.91 234.609C386.91 234.609 385.807 226.519 384.965 222.361C384.835 221.726 384.545 221.135 384.123 220.643C383.7 220.151 383.16 219.774 382.552 219.549C382.146 219.332 381.722 219.152 381.285 219.01C380.417 218.741 379.436 218.316 378.542 218.082C376.528 217.578 374.601 216.91 372.552 216.563C370.13 216.146 367.674 215.885 365.217 215.694C363.22 215.512 361.198 215.443 359.141 215.417C357.526 215.417 356.536 215.365 354.957 215.365C354.089 215.365 353.22 215.365 352.786 215.92C352.352 216.476 352.674 217.422 352.786 218.385C353.09 220.347 353.429 221.328 353.759 223.273C354.868 229.006 355.607 234.805 355.972 240.634C356.076 243.238 356.233 245.894 356.337 248.524C356.337 249.271 356.337 249.757 356.38 250.512C356.383 250.958 356.496 251.397 356.71 251.788C356.936 252.153 357.309 252.214 357.734 252.344C358.16 252.474 358.715 252.552 359.219 252.665C359.722 252.778 360.651 252.986 361.293 253.186C363.628 253.941 366.111 254.774 368.377 255.694C369.967 256.407 371.52 257.201 373.029 258.073C373.209 258.173 373.38 258.286 373.542 258.411L376.25 260.425C378.359 261.979 380.59 263.49 382.17 265.634C382.487 266.04 382.841 266.415 383.229 266.753C383.871 267.326 384.965 269.358 385.712 270.226C385.751 270.279 385.8 270.325 385.856 270.359C385.913 270.393 385.976 270.416 386.042 270.425" fill="#BD1B21"/>
<path id="Vector_19" d="M326.042 174.705C326.84 174.653 327.569 174.635 328.186 174.557C328.637 174.505 329.054 174.488 329.28 174.01C329.505 173.533 329.106 173.021 329.002 172.795C328.828 172.405 327.266 169.688 327.266 169.688L325.773 167.352L319.444 158.238L318.168 156.684L316.944 155.026L314.878 152.743L309.757 147.127L307.561 144.974L299.635 137.639L293.134 132.622L290.799 131.398L283.177 126.745L277.839 123.854L276.797 123.429L272.457 121.84L266.007 119.427L265.503 119.306L263.429 118.793L262.873 118.707L261.059 118.238L257.222 117.535L255.391 117.465L251.97 116.832L247.873 116.571L246.441 116.389H243.837L239.54 116.51L235.295 116.988L232.014 117.057L229.097 117.387L226.12 117.986L223.863 118.681L220.191 119.384H219.366L215.946 120.599L213.924 121.163L212.691 121.918L209.705 122.726L208.264 123.594L206.458 124.28L202.031 126.137L196.398 128.333L194.54 129.201L190.59 131.328L187.17 133.585L183.967 135.234L182.804 135.911L179.332 137.778L178.767 138.142L174.783 141.267L171.484 143.498L170.833 143.924L167.092 146.875L165.729 148.004C164.998 148.608 164.31 149.264 163.672 149.965L165.087 149.549C165.087 149.549 167.691 148.602 167.691 148.62C167.691 148.637 168.194 148.62 168.194 148.62L171.875 147.135H172.413L176.467 145.53C176.467 145.53 178.594 144.826 178.594 144.878C178.594 144.931 180.755 144.08 180.755 144.08L183.767 143.012L191.059 140.208H191.719L195.46 138.915L198.42 137.691L198.837 138.003L204.566 138.142L208.212 138.42L208.333 138.498L215.686 139.071L215.764 139.01L225.938 139.54L225.981 139.792L229.592 142.891H229.861L233.533 146.441L233.872 146.276L238.932 146.432L239.184 146.241L251.892 146.988L251.97 147.274L257.63 150.556L257.873 150.512L267.873 155.391L267.951 155.92L273.62 153.707L281.936 156.51L283.342 158.811L286.389 159.01L289.323 162.326H289.627L291.988 165.017V165.191H292.318L298.88 166.693L301.293 170.417L307.37 172.63C307.37 172.63 313.863 174.28 317.196 174.705C320.114 174.987 323.051 175.01 325.972 174.774" fill="#BD1B21"/>
<path id="Vector_20" d="M382.604 213.186C382.366 212.193 382.077 211.214 381.736 210.252L381.363 209.201L381.024 207.925L379.939 204.722L378.95 201.918L375.833 194.974L374.418 191.562L372.639 187.63L370.512 184.158L370.017 183.16L368.594 180.295L367.274 178.142L366.727 177.405L357.639 165.087L356.319 163.524C356.111 163.255 356.033 163.047 355.755 163.047H355.686C354.47 165.076 353.146 167.038 351.719 168.924C350.555 170.208 348.246 172.352 348.246 172.352C348.246 172.352 346.276 173.967 345.946 174.219C345.616 174.47 344.115 175.469 344.115 175.469L342.014 176.649C342.014 176.649 340.443 177.378 340.182 177.465C339.918 177.546 339.677 177.689 339.479 177.882C339.396 177.98 339.339 178.097 339.313 178.223C339.287 178.349 339.294 178.48 339.332 178.602C339.395 178.87 339.482 179.132 339.592 179.384C340.46 181.12 341.198 182.934 342.109 184.653C343.489 187.196 344.375 189.939 345.512 192.578C345.894 193.446 346.276 194.314 346.58 195.243C347.352 197.587 348.073 199.931 348.819 202.292C349.141 203.325 349.496 204.366 349.792 205.417C350.087 206.467 350.33 207.526 350.616 208.594C350.675 208.9 350.848 209.172 351.098 209.357C351.349 209.542 351.661 209.626 351.97 209.592C352.656 209.592 353.342 209.592 354.028 209.531C356.458 209.462 358.889 209.375 361.319 209.349C362.022 209.349 366.884 209.774 366.884 209.774C366.884 209.774 368.62 209.957 369.488 210.095C371.337 210.434 373.177 210.851 375.017 211.233C376.596 211.566 378.133 212.073 379.601 212.743C380.325 213.046 381.071 213.296 381.831 213.49C382.051 213.557 382.279 213.589 382.509 213.585C382.603 213.467 382.649 213.319 382.639 213.168" fill="#BD1B21"/>
<path id="Vector_21" d="M350.833 158.932C350.645 158.462 350.406 158.014 350.121 157.595L349.653 156.727L348.342 155.217L347.474 153.932L345.825 152.309C345.825 152.309 345.451 151.988 345.269 151.849C342.37 149.488 336.588 144.809 336.588 144.792C336.588 144.774 334.983 143.516 334.983 143.516L331.979 140.911L316.927 131.884L305.017 126.302C305.017 126.302 298.715 123.828 298.707 123.854C298.698 123.88 296.424 122.986 296.398 123.047C296.371 123.108 288.637 120.373 288.637 120.373L283.168 118.984L277.856 117.838L276.988 117.769L276.51 118.229L276.719 118.463C276.719 118.463 277.266 118.733 277.509 118.837C279.158 119.488 280.825 120.095 282.465 120.755C283.55 121.181 284.566 121.762 285.668 122.092C286.426 122.279 287.153 122.571 287.83 122.96C290.365 124.418 292.879 125.891 295.373 127.378C296.869 128.276 298.266 129.329 299.54 130.521C300.493 131.45 301.557 132.258 302.708 132.925C303.22 133.269 303.7 133.658 304.141 134.088L304.922 134.74C306.467 135.863 307.931 137.093 309.306 138.42C310.703 139.922 312.17 141.354 313.646 142.76C315.079 144.082 316.416 145.503 317.648 147.014C318.606 148.306 319.65 149.533 320.773 150.686C322.96 152.847 324.618 155.417 326.615 157.717C326.831 158.027 327.031 158.349 327.213 158.681C328.409 160.757 329.737 162.755 331.189 164.661C332.295 165.928 333.229 167.335 333.967 168.845C334.437 169.76 334.986 170.631 335.608 171.45C335.735 171.655 335.909 171.826 336.116 171.95C336.323 172.074 336.556 172.146 336.797 172.161C337.097 172.11 337.389 172.02 337.665 171.892L338.733 171.467L340.608 170.599C341.221 170.31 341.803 169.958 342.344 169.549C342.682 169.236 344.08 168.264 344.896 167.535C345.712 166.806 347.309 164.931 347.309 164.931L348.463 163.377L350.477 160.043C350.666 159.698 350.776 159.316 350.799 158.924" fill="#BD1B21"/>
<path id="Vector_22" d="M344.557 209.045C343.741 206.536 343.099 204.167 342.214 201.693C341.574 199.629 340.826 197.601 339.974 195.616C339.473 194.42 339.038 193.197 338.672 191.953C338.437 191.337 338.134 190.764 337.925 190.156C336.755 187.171 335.38 184.271 333.811 181.476C333.733 181.319 333.663 181.172 333.516 180.911C333.397 180.596 333.169 180.334 332.873 180.174C332.5 179.957 332.187 180.095 331.51 180.174C330.217 180.33 328.602 180.503 327.934 180.503C327.266 180.503 324.792 180.694 322.778 180.859L322.309 180.72H319.844L313.351 179.852C310.981 179.505 305.538 178.116 305.538 178.116L301.562 176.753L296.649 175.061L296.267 175.269L288.628 174.661L288.377 174.809L284.08 171.519H283.585L280.894 169.106L280.799 168.62L277.812 168.168L277.526 168.29L275.078 167.422L274.8 167.17L269.184 167.578L264.089 165.503L246.424 166.441L246.146 166.25L242.812 166.502L242.457 166.771L233.776 167.422L233.533 167.213L221.137 174.366L220.99 174.896L220.417 175.408L220.13 175.2L213.906 174.618L213.568 174.766L202.543 174.835L202.309 174.713L199.175 174.618L198.22 174.062L186.632 183.064L186.589 183.281L182.535 186.467L178.012 184.332L177.743 184.462L176.068 183.95C176.068 183.95 167.743 186.076 167.83 186.128C167.917 186.181 160.017 184.896 160.017 184.896L159.479 184.462L158.003 185.972L154.896 187.457L154.818 187.726L148.611 192.465L139.792 198.819L129.861 206.207L125.391 209.453L125.165 211.363L123.29 215.703L122.474 219.453L121.224 227.031L120.495 230.304L120.226 234.236L119.141 242.431L118.681 260.347L119.158 261.406L119.479 266.337C119.479 266.337 119.557 267.205 119.757 267.205L141.727 244.488L148.932 241.589L155.009 241.267L158.663 237.075L159.019 236.285L159.462 236.493L169.349 235.382L169.774 235.061H173.472L174.028 235.286L175.208 233.715L179.635 230.981L184.384 227.726L197.7 227.908L197.786 228.194L202.995 228.672L207.066 227.865L214.531 220.252H214.67L220.608 214.609L229.514 213.463L229.861 213.22L230.252 213.602L234.887 215.79L235.217 215.486L239.323 214.991L239.583 214.844L243.429 214.201L243.776 213.984L247.96 217.561L248.194 217.283L256.779 217.127L257.509 216.589L264.41 216.918L264.783 217.066L265.851 216.806L266.033 216.484L268.785 215.252H269.106L272.283 213.819L272.552 213.542L275.937 212.257L276.189 211.866L285.59 208.273L285.668 208.134L287.318 207.613L287.691 207.248L288.16 207.76L290.885 209.097H291.753L294.809 210.833L295.009 210.538L295.946 210.104H296.05L297.578 209.392L297.648 209.288L299.835 208.759L305.469 210.226L306.658 209.957L307.682 210.642L311.814 211.267L315.859 212.83L318.212 212.656L318.976 213.168L319.566 212.821C319.566 212.821 327.517 211.832 331.519 211.502C334.123 211.293 336.684 211.024 339.279 210.764C340.738 210.625 342.205 210.495 343.672 210.312C344.462 210.217 344.861 209.922 344.54 209.01" fill="#BD1B21"/>
<path id="Vector_23" d="M350.365 249.852C350.365 249.306 350.269 248.941 350.234 248.403C350.139 246.866 350.078 245.339 349.991 243.793C349.991 243.281 349.904 242.778 349.87 242.257C349.74 240.347 349.705 238.429 349.514 236.528C349.262 234.106 348.915 231.701 348.559 229.314C348.273 227.448 347.917 225.599 347.578 223.75C347.24 221.901 346.91 220.035 346.493 218.108C346.076 216.181 345.625 215.885 343.646 216.12L343.134 216.215C342.396 216.363 341.354 216.458 340.608 216.562C336.71 217.066 333.029 217.283 329.123 217.743L317.925 221.641L301.736 221.215L300 220.642V220.92L295.226 224.444L294.557 224.505L290.79 227.977L290.582 228.464L280.885 229.757L272.04 236.58H271.12L266.406 239.349L264.557 239.557L262.7 241.12L262.222 240.738L253.203 240.13L251.641 241.866V242.153L243.828 250.66L243.733 251.154L243.429 251.224L233.507 262.587H230.781L230.556 262.873L222.404 264.323H221.771C221.713 264.462 221.644 264.595 221.562 264.722L208.125 272.135L202.092 271.424L200.816 271.875L194.8 271.51L188.837 277.951L185.278 278.672L183.264 278.585L181.154 279.453L179.887 279.323L179.957 279.575L172.543 285.312L171.832 285.46L160.26 294.453L160.365 294.991L153.203 312.309L153.498 313.047L141.684 314.115L137.804 317.457L137.439 318.715L142.648 326.007L146.536 331.962L149.887 336.233L155.339 342.17C155.339 342.17 155.339 342.587 155.486 342.613C155.634 342.639 156.215 342.682 156.241 342.717L159.531 343.828L163.542 345.087C163.542 345.087 163.585 345.286 163.637 345.286L164.036 345.226L170.712 347.83H171.215L171.58 348.273H172.179L173.75 349.314L176.545 347.778H176.675L177.934 346.979L188.056 349.531L195.477 345.738L211.97 344.097L218.75 333.246L221.736 330.226H221.996L224.366 328.047C224.366 328.003 224.366 327.752 224.366 327.752L228.611 323.889L230.599 321.806C230.599 321.806 231.042 321.554 231.094 321.545C231.146 321.536 233.385 319.175 233.385 319.175L235.243 317.274L235.729 317.161L235.252 315.486L237.17 308.542L240.859 307.439L240.998 307.3L242.101 307.049V306.441L247.057 298.394L247.526 298.194L249.549 294.236L252.925 292.326L253.377 291.779L254.036 291.866C254.036 291.866 255.998 290.712 256.059 290.729H256.293L259.931 289.123L260.226 288.698L272.378 283.142L273.108 283.064L273.238 282.404L273.715 282.049L274.965 277.812L278.793 276.172L283.212 275.625L287.24 272.847L292.977 273.082L293.55 273.559L293.819 273.203L301.832 269.618L301.788 268.585L303.715 264.913L307.648 263.871L307.838 263.62L313.238 262.474L315.304 260.026L315.573 259.965C315.573 259.965 316.823 258.75 316.858 258.733C316.892 258.715 320.564 259.236 320.564 259.236L320.755 259.366L322.769 259.661L324.028 259.8C324.028 259.8 329.47 257.248 331.745 256.389C332.717 256.007 333.654 255.773 334.549 255.443C335.807 255 337.057 254.575 338.333 254.132C338.976 253.924 339.583 253.759 340.217 253.576L342.752 253.108L345.703 252.613L347.5 252.5C347.5 252.5 348.368 252.396 348.698 252.335C349.138 252.339 349.568 252.199 349.922 251.936C350.06 251.802 350.168 251.641 350.24 251.463C350.312 251.285 350.345 251.094 350.338 250.903C350.374 250.571 350.388 250.238 350.382 249.904" fill="#BD1B21"/>
<path id="Vector_24" d="M350.243 260.443C350.337 259.919 350.238 259.38 349.965 258.924C349.827 258.78 349.659 258.668 349.473 258.597C349.287 258.525 349.088 258.494 348.889 258.507C348.602 258.507 347.205 258.689 347.205 258.689L344.861 259.045C344.601 259.089 344.34 259.123 344.08 259.193C342.674 259.531 341.276 259.818 339.896 260.208C338.335 260.598 336.804 261.097 335.312 261.701C333.767 262.396 332.04 262.934 330.495 263.672C329.939 263.932 324.74 266.476 322.361 267.656L319.332 270.885L319.21 271.589L318.811 271.415L316.91 271.519L316.823 271.667L310.625 273.724L310.703 274.401L310.052 275.035V275.434L307.161 280.503H306.771L306.693 281.033C306.693 281.033 306.102 281.997 305.46 283.09L292.439 291.45H292.161L290.191 293.108L288.811 298.594L287.535 299.818L282.457 318.62L283.142 320.738L275.608 324.34H274.401L272.96 330.894L272.717 331.12L270.833 337.057L270.937 337.37L270.165 342.5L269.887 342.856L270.139 343.316L262.917 354.8L262.37 354.965L260.634 357.743L260.59 358.299C260.59 358.299 254.427 366.979 254.418 366.979C254.41 366.979 247.899 370.842 247.899 370.842L248.255 371.398C248.255 371.45 247.917 374.002 247.917 374.002L248.481 374.983L247.543 375.269L242.821 378.038L242.3 377.925L235.356 382.014L234.54 383.307C235.431 383.498 236.332 383.635 237.24 383.715L241.727 384.071L244.774 384.227L248.325 384.288L249.974 384.358L252.648 384.418L255.321 384.358L265.026 383.246L270.781 382.24L275.122 381.059L279.835 379.679L285.842 377.3L286.276 377.031L288.012 376.085C290.432 374.813 292.779 373.407 295.043 371.875C298.853 369.126 302.505 366.164 305.981 363.003C307.138 361.892 308.296 360.77 309.453 359.635C310.556 358.559 311.632 357.457 312.726 356.372C312.941 356.2 313.121 355.987 313.255 355.747C313.692 354.926 314.282 354.195 314.991 353.594C315.462 353.143 315.89 352.649 316.267 352.118C317.087 351.026 318.024 350.027 319.062 349.141C319.837 348.367 320.543 347.528 321.172 346.632C322.318 345.017 323.377 343.333 324.47 341.684C325.911 339.47 327.5 337.344 328.741 335.026C330.069 332.552 331.345 330.069 332.778 327.639C334.016 325.584 335.124 323.453 336.094 321.259C337.604 317.63 339.184 314.019 340.573 310.339C342.034 306.427 343.283 302.44 344.314 298.394C345.121 295.373 345.59 292.318 346.684 289.358C346.811 288.967 346.904 288.566 346.962 288.16C347.378 285.703 347.83 283.238 348.186 280.773C348.542 278.307 348.88 276.102 349.21 273.767C349.444 272.179 349.705 270.582 349.835 268.984C350.017 266.762 350.13 264.549 350.217 262.326C350.217 262.075 350.217 261.606 350.217 261.606C350.217 261.606 350.217 260.903 350.217 260.469" fill="#BD1B21"/>
</g>
</g>
</svg>
