<?xml version="1.0" encoding="UTF-8" standalone="no"?>
<svg width="500px" height="500px" viewBox="0 0 500 500" version="1.1" xmlns="http://www.w3.org/2000/svg" xmlns:xlink="http://www.w3.org/1999/xlink">
    <!-- Generator: Sketch 39.1 (31720) - http://www.bohemiancoding.com/sketch -->
    <title>UTA</title>
    <desc>Created with Sketch.</desc>
    <defs></defs>
    <g id="NBA" stroke="none" stroke-width="1" fill="none" fill-rule="evenodd">
        <g id="UTA">
            <g id="UJazz_Global_pms" transform="translate(0.000000, 142.000000)">
                <path d="M422.024306,191.163112 L473.75,72.43894 L233.170139,72.452828 L223.094618,95.455696 L216.111979,72.43894 L167.943576,72.452828 C167.943576,72.452828 136.166667,144.959472 127.054687,165.772376 C127.921007,161.59122 128.365451,157.260768 128.365451,152.823552 C128.365451,152.227236 128.335937,151.634392 128.314236,151.039812 C131.866319,142.910992 159.973958,78.521016 165.663194,65.4906 L297.77691,65.4906 L326.113715,0.583296 L169.721354,0.583296 L118.296007,118.329232 C106.891493,100.487492 86.9270833,88.647972 64.1796875,88.647972 C28.7326389,88.647972 0,117.3753 0,152.823552 C0,188.27354 28.7326389,217 64.1796875,217 C85.7395833,217 104.796875,206.366132 116.438368,190.065092 L105.498264,215.273548 L131.762153,215.273548 L147.260417,179.731552 L176.902778,179.731552 L187.602431,215.273548 L464.467882,215.273548 L475.033854,191.163112 L422.024306,191.163112 L422.024306,191.163112 Z M157.821181,155.621116 L164.827257,139.625612 L169.643229,155.621116 L157.821181,155.621116 L157.821181,155.621116 Z M249.78125,183.414476 L223.424479,96.548508 L287.831597,96.548508 C268.855035,139.842612 257.086806,166.695928 249.78125,183.414476 L249.78125,183.414476 Z M349.250868,191.163112 L318.947049,191.163112 L360.172743,96.548508 L390.6875,96.548508 C368.449653,147.279636 356.104167,175.445368 349.250868,191.163112 L349.250868,191.163112 Z" id="Fill-1" fill="#FFFFFF"></path>
                <path d="M3.96614583,155.695764 C4.71701389,171.554124 11.5850694,185.789324 22.2439236,196.14196 C33.5980903,186.146072 41.0147569,171.782408 41.8107639,155.695764 L3.96614583,155.695764" id="Fill-2" fill="#111B2B"></path>
                <path d="M47.1050347,155.695764 C46.3211806,173.133016 38.4149306,188.743996 26.2282986,199.690344 C35.953125,207.587408 48.1684028,212.54282 61.5425347,213.118304 L61.5425347,155.695764 L47.1050347,155.695764" id="Fill-3" fill="#ED9B2D"></path>
                <path d="M3.94791667,150.397492 L41.8168403,150.397492 C41.1423611,134.138984 33.703125,119.60172 22.25,109.514692 C11.4904514,119.962808 4.58420139,134.36206 3.94791667,150.397492" id="Fill-4" fill="#111B2B"></path>
                <path d="M26.2369792,105.966308 C38.5190972,117.00206 46.4453125,132.784036 47.1163194,150.396624 L61.5407986,150.396624 L61.5407986,92.530536 C48.1675347,93.11036 35.9539931,98.064036 26.2369792,105.966308" id="Fill-5" fill="#ED9B2D"></path>
                <path d="M124.415799,155.695764 L86.5737847,155.695764 C87.3697917,171.782408 94.7881944,186.146072 106.143229,196.14196 C116.799479,185.789324 123.671875,171.554124 124.415799,155.695764" id="Fill-6" fill="#111B2B"></path>
                <path d="M81.2777778,155.695764 L66.8385417,155.695764 L66.8385417,213.118304 C80.2118056,212.54282 92.4322917,207.587408 102.15191,199.690344 C89.9696181,188.743996 82.0694444,173.133016 81.2777778,155.695764" id="Fill-7" fill="#2A4832"></path>
                <path d="M102.145833,105.966308 C92.4253472,98.064036 80.2118056,93.11036 66.8394097,92.530536 L66.8394097,150.396624 L81.2699653,150.396624 C81.9409722,132.784036 89.8654514,117.00206 102.145833,105.966308" id="Fill-8" fill="#2A4832"></path>
                <path d="M172.210069,4.399892 L118.65191,127.037008 C115.532118,120.46538 111.296007,114.523052 106.135417,109.51556 C94.6831597,119.600852 87.2456597,134.133776 86.5659722,150.396624 L124.440104,150.396624 L163.166667,61.676608 L276.297743,61.676608 L301.302083,4.399892 L172.210069,4.399892" id="Fill-9" fill="#111B2B"></path>
                <polyline id="Fill-10" fill="#2A4832" points="295.278646 61.67574 320.288194 4.398156 309.627604 4.398156 284.619792 61.67574 295.278646 61.67574"></polyline>
                <path d="M190.436632,211.456952 L235.481771,211.456952 L194.782118,76.269424 L170.4375,76.269424 L111.197917,211.456952 L129.192708,211.456952 C129.192708,211.456952 135.883681,196.181888 144.763021,175.915824 L179.743056,175.915824 L190.436632,211.456952 L190.436632,211.456952 Z M151.981771,159.436844 C156.41059,149.328984 161.059896,138.727232 165.492188,128.608088 L174.776042,159.436844 L151.981771,159.436844 L151.981771,159.436844 Z" id="Fill-11" fill="#111B2B"></path>
                <polyline id="Fill-12" fill="#2A4832" points="239.588542 197.850184 245.861979 183.63842 213.278646 76.252932 202.618924 76.252932 239.588542 197.850184"></polyline>
                <path d="M396.855035,194.977104 L448.875868,76.269424 L373.170139,76.252932 L365.994792,92.73278 L396.522569,92.73278 C380.726562,128.766064 344.496528,211.447404 344.496528,211.447404 L461.973958,211.45782 L469.197917,194.977104 L396.855035,194.977104" id="Fill-13" fill="#111B2B"></path>
                <polyline id="Fill-14" fill="#2A4832" points="316.446181 187.352592 364.855035 76.252932 354.192708 76.252932 305.788194 187.352592 316.446181 187.352592"></polyline>
                <polyline id="Fill-15" fill="#2A4832" points="419.518229 187.352592 467.923611 76.252932 457.264757 76.252932 408.860243 187.352592 419.518229 187.352592"></polyline>
                <path d="M346.020833,76.268556 L235.666667,76.268556 L228.452257,92.73278 L293.670139,92.73278 C277.873264,128.7678 241.641493,211.446536 241.641493,211.446536 L336.820312,211.456952 L343.970486,194.976236 L294.006944,194.976236 L346.020833,76.268556" id="Fill-16" fill="#111B2B"></path>
                <path d="M340.407118,52.83082 L326.34809,52.83082 L347.756944,4.388608 L337.429688,4.388608 L315.287326,54.491304 C313.554688,58.410324 315.329861,61.589808 319.25,61.589808 L339.616319,61.589808 C343.537326,61.589808 348.12066,58.410324 349.852431,54.491304 L371.99566,4.388608 L361.817708,4.388608 L340.407118,52.83082" id="Fill-17" fill="#111B2B"></path>
                <polyline id="Fill-18" fill="#111B2B" points="417.459201 4.388608 381.460938 4.388608 377.58941 13.149332 391.572917 13.151068 370.164931 61.589808 380.492188 61.589808 401.898438 13.152804 413.549479 13.15454 417.459201 4.388608"></polyline>
                <path d="M431.900174,18.630752 L425.860243,43.661268 L415.894097,43.661268 L431.900174,18.630752 L431.900174,18.630752 Z M443.565972,4.388608 L433.371528,4.388608 L394.470486,61.589808 L404.197049,61.589808 L409.918403,52.87422 L423.616319,52.87422 L421.631944,61.589808 L431.907118,61.589808 L443.565972,4.388608 L443.565972,4.388608 Z" id="Fill-19" fill="#111B2B"></path>
                <polyline id="Fill-20" fill="#111B2B" points="489.673611 4.388608 478.986979 28.566748 465.076389 28.566748 475.761285 4.388608 465.434896 4.388608 440.154514 61.589808 450.480903 61.589808 461.171007 37.40212 475.083333 37.40212 464.392361 61.589808 474.719618 61.589808 500 4.388608 489.673611 4.388608"></polyline>
            </g>
        </g>
    </g>
</svg>