<?xml version="1.0" encoding="UTF-8" standalone="no"?>
<svg width="500px" height="500px" viewBox="0 0 500 500" version="1.1" xmlns="http://www.w3.org/2000/svg" xmlns:xlink="http://www.w3.org/1999/xlink">
    <!-- Generator: Sketch 39.1 (31720) - http://www.bohemiancoding.com/sketch -->
    <title>WAS</title>
    <desc>Created with Sketch.</desc>
    <defs>
        <polygon id="path-1" points="0 499.947917 500 499.947917 500 0.0581597222 0 0.0581597222"></polygon>
    </defs>
    <g id="NBA" stroke="none" stroke-width="1" fill="none" fill-rule="evenodd">
        <g id="WAS">
            <g id="WWizards_Global_pms">
                <g id="Group-3">
                    <mask id="mask-2" fill="white">
                        <use xlink:href="#path-1"></use>
                    </mask>
                    <g id="Clip-2"></g>
                    <path d="M250,0.0581597222 C111.911458,0.0581597222 0,111.936632 0,250.034722 C0,388.12066 111.911458,500 250,500 C388.0625,500 500,388.12066 500,250.034722 C500,111.936632 388.0625,0.0581597222 250,0.0581597222" id="Fill-1" fill="#848683" mask="url(#mask-2)"></path>
                </g>
                <path d="M490.719618,249.136285 C490.719618,119.779514 380.059028,8.4765625 250.678819,8.4765625 C121.345486,8.4765625 9.28038194,120.380208 9.28038194,249.736111 C9.28038194,368.488715 103.690972,473.303819 219.207465,489.727431 C228.956597,490.934028 238.881944,491.571181 248.955729,491.582465 L249.287326,491.582465 C271.178819,491.576389 292.384549,488.646701 312.552083,483.19184 C413.444444,454.223958 490.719618,357.249132 490.719618,249.136285" id="Fill-4" fill="#BE2531"></path>
                <path d="M490.407118,237.46441 L9.62760417,237.506076 C9.40017361,241.62066 9.28038194,245.756076 9.28038194,249.91059 C9.28038194,271.828993 12.5052083,293.269965 18.4774306,313.769965 C75.09375,313.765625 423.911458,313.737847 481.493056,313.710069 C487.488715,293.032118 490.719618,271.404514 490.719618,249.310764 C490.719618,245.34375 490.612847,241.394097 490.407118,237.46441" id="Fill-5" fill="#FFFFFF"></path>
                <path d="M219.168403,489.793403 C228.917535,491 238.842882,491.637153 248.916667,491.648438 L249.248264,491.648438 C271.139757,491.642361 292.345486,488.711806 312.513889,483.257813 C375.677951,465.122396 429.583333,420.329861 461.067708,362.837674 L38.9322917,362.837674 C75.671875,429.443576 142.802951,478.935764 219.168403,489.793403" id="Fill-6" fill="#111B2B"></path>
                <path d="M248.876736,62.2682292 C248.876736,62.2682292 246.981771,28.3220486 246.975694,26.7586806 C246.984375,25.2039931 248.734375,23.640625 248.734375,23.640625 C247.529514,23.65625 242.857639,23.9939236 237.919271,24.1666667 C236.721354,24.4114583 234.550347,24.4704861 235.014757,29.4149306 L237.015625,66.8532986 L249.086806,66.2126736 L249.966146,65.9652778 C249.966146,65.9652778 249.157986,64.5963542 248.876736,62.2682292" id="Fill-7" fill="#FFFFFF"></path>
                <path d="M370.301215,68.9288194 L374.694444,61.28125 L356.848958,50.9774306 C356.848958,50.9774306 356.770833,50.921875 356.671875,50.8758681 L346.545139,45.0269097 C345.092882,44.1875 344.052951,45.2934028 343.693576,45.8602431 C343.334201,46.4479167 339.65625,52.9279514 339.65625,52.9279514 L339.662326,52.9314236 L338.033854,55.8046875 C338.033854,55.8046875 340.501736,53.4140625 343.328125,55.0494792 L349.644097,58.6961806 L333.50434,86.6640625 L344.869792,93.2491319 C344.869792,93.2491319 344.913194,91.3949653 345.944444,89.2890625 C345.944444,89.2890625 354.880208,73.7439236 360.090278,64.7309028 L364.960938,67.5390625 C367.769097,69.1614583 367.678819,73.5668403 367.678819,73.5668403 L370.301215,68.9288194" id="Fill-8" fill="#FFFFFF"></path>
                <path d="M335.494792,40.0833333 L318.878472,34.3177083 C313.519097,32.4574653 309.719618,31.9713542 307.460069,32.8194444 C305.209201,33.6736111 303.27691,36.4262153 301.66059,41.0989583 L295.576389,58.6597222 C294.848958,60.71875 294.400174,62.4435764 294.226562,63.8489583 C293.882812,66.5824653 294.505208,68.7065972 296.087674,70.1866319 C297.651042,71.6788194 300.573785,73.1684028 304.871528,74.6605903 L312.373264,77.2586806 C317.791667,79.140625 321.631076,79.6388889 323.862847,78.78125 C326.111111,77.9175347 328.052083,75.1684028 329.674479,70.4965278 C329.674479,70.4965278 332.581597,62.2760417 332.990451,61.03125 C333.690104,58.7621528 331.990451,57.3194444 331.033854,56.9878472 L316.965278,52.0989583 C315.311632,51.5260417 314.258681,52.7829861 313.673611,53.8454861 C313.103299,54.9131944 311.023438,60.9262153 311.023438,60.9262153 L310.286458,62.7960069 C310.286458,62.7960069 311.877604,61.2326389 313.986111,61.9574653 L319.159722,63.7526042 C318.37066,65.6475694 317.506076,66.71875 316.608507,67.0043403 C315.796875,67.2916667 314.094618,66.9670139 311.478299,66.0564236 C311.478299,66.0564236 309.661458,65.3532986 309.168403,65.0598958 C307.911458,64.2543403 307.363715,63.2109375 307.53125,61.8828125 C307.624132,61.1241319 307.914931,60.0842014 308.37934,58.7152778 L311.75434,48.9878472 C312.657986,46.3871528 313.584201,44.9348958 314.534722,44.625 C315.493924,44.3402778 317.265625,44.6310764 319.881076,45.5416667 L332.662326,49.9722222 C334.966146,50.7743056 335.411458,53.7899306 335.411458,53.7899306 L336.306424,51.2387153 L338.572917,44.6744792 C339.229167,42.1701389 337.653646,40.8324653 335.494792,40.0833333" id="Fill-9" fill="#FFFFFF"></path>
                <path d="M208.088542,27.8142361 C208.088542,27.8142361 211.902778,29.0347222 212.544271,32.0034722 L212.596354,32.1276042 L214.795139,42.7135417 L206.401042,44.46875 C203.930556,44.9791667 203.41059,47.4253472 203.41059,47.4253472 L199.824653,29.5208333 L185.368924,32.5329861 C185.368924,32.5329861 188.360243,33.9236111 188.988715,36.8923611 L189.044271,37.0164931 L196.666667,73.7517361 L205.112847,72.0086806 C206.766493,71.6649306 207.955729,71.2777778 208.262153,69.984375 L205.184028,55.2274306 L216.881944,52.7881944 L220.210069,68.8663194 L228.650174,67.1232639 C230.3125,66.7795139 231.507813,66.3862847 231.804688,65.0980903 L223.371528,24.6319444 L208.088542,27.8142361" id="Fill-10" fill="#FFFFFF"></path>
                <path d="M388.950521,93.3854167 L382.605903,101.460069 C380.890625,103.671007 379.479167,104.717882 378.342882,104.677083 C377.488715,104.690104 375.986979,103.825521 373.801215,102.107639 L374.748264,102.838542 C373.240451,101.649306 372.323785,100.835069 371.955729,100.398438 C371.036458,99.2309028 370.859375,98.0703125 371.450521,96.8654514 C371.788194,96.1814236 372.398438,95.2899306 373.277778,94.1440972 L379.637153,86.0451389 C381.346354,83.8871528 382.702257,82.8185764 383.684028,82.8220486 C384.686632,82.8715278 386.269097,83.7256944 388.451389,85.4409722 L387.551215,84.7473958 C389.052083,85.9305556 389.984375,86.7473958 390.346354,87.2213542 C391.272569,88.3515625 391.446181,89.5434028 390.854167,90.7447917 C390.526042,91.4166667 389.891493,92.2986111 388.950521,93.3854167 M403.997396,93.1631944 C405.210938,90.6892361 405.282118,88.4348958 404.180556,86.4166667 C403.28559,84.6024306 401.013021,82.2673611 397.387153,79.4157986 L391.16059,74.5052083 C386.702257,70.9973958 383.263021,69.2951389 380.860243,69.3723958 C378.451389,69.4401042 375.723958,71.4123264 372.661458,75.2951389 L361.190104,89.9149306 C359.840278,91.6302083 358.865451,93.1223958 358.243056,94.3949653 C357.029514,96.8689236 356.905382,99.0642361 357.911458,100.974826 C358.908854,102.900174 361.193576,105.265625 364.763021,108.073785 L370.99566,112.986979 C375.503472,116.53559 378.977431,118.263021 381.361979,118.176215 C383.779514,118.102431 386.498264,116.124132 389.559896,112.241319 L401.046875,97.6302083 C402.384549,95.9279514 403.372396,94.4357639 403.997396,93.1631944" id="Fill-11" fill="#FFFFFF"></path>
                <path d="M188.491319,58.0434028 C185.742188,52.7734375 180.007812,50.96875 174.177951,53.3958333 L167.607639,56.1328125 C165.242188,57.1206597 163.579861,56.9409722 162.644965,55.5885417 C162.611111,55.5390625 162.356771,54.9817708 162.335069,54.9192708 C162.040799,53.9348958 161.303819,52.2291667 164.809028,50.7708333 L176.667535,45.8289931 C179.224826,44.7638889 183.106771,47.3151042 183.106771,47.3151042 C183.106771,47.3151042 180.760417,41.7326389 179.317708,38.3116319 C178.487847,36.3116319 175.924479,35.0173611 173.837674,35.8871528 L159.31684,41.9375 C154.080729,44.1171875 150.916667,46.2717014 149.811632,48.4114583 C148.705729,50.5355903 149.130208,53.9227431 151.021701,58.4982639 L152.690972,62.4027778 C152.944444,62.9878472 153.248264,63.5451389 153.594618,64.046875 C154.926215,65.9722222 156.780382,67.2578125 159.189236,67.9045139 C162.046875,68.6380208 165.320312,68.2265625 169.016493,66.6875 L174.667535,64.3315972 C176.853299,63.4210069 178.434896,63.6597222 179.388889,65.0434028 C179.645833,65.4123264 179.776042,65.8237847 179.778646,66.2638889 C179.778646,66.2638889 180.422743,68.2421875 175.921007,70.1154514 L164.518229,74.8680556 C161.963542,75.734375 158.273438,73.3194444 158.273438,73.3194444 C158.273438,73.3194444 160.617188,78.8993056 162.0625,82.3229167 C162.892361,84.3203125 165.453125,85.6171875 167.542535,84.7447917 L176.515625,81.0078125 L182.206597,78.6354167 C187.447917,76.453125 190.603299,74.3107639 191.704861,72.1553819 C192.819444,70.0095486 192.346354,66.9105903 190.451389,62.3654514 C190.451389,62.3654514 188.980903,58.9782986 188.491319,58.0434028" id="Fill-12" fill="#FFFFFF"></path>
                <path d="M431.141493,117.006944 L429.094618,114.43316 C429.094618,114.43316 429.664062,118.133681 427.302083,120.003472 L427.367188,119.953993 L414.678819,129.858507 L422.846354,107.585069 C423.039062,107.021701 422.942708,106.480035 422.525174,105.943576 C421.598958,104.757812 416.263889,97.890625 416.263889,97.890625 L414.065972,95.1102431 C414.065972,95.1102431 414.657118,99.0954861 412.27691,100.965278 L382.627604,124.161458 L387.931424,130.960938 C388.966146,132.28559 389.84809,133.202257 391.138889,132.889757 C391.138889,132.889757 398.604167,127.034722 406.969618,120.493056 L399.436632,140.00434 C398.098958,143.110243 395.997396,141.261285 395.997396,141.261285 L397.501736,143.314236 L397.529514,143.30816 L402.80816,150.076389 C403.848958,151.407986 404.722222,152.302083 406.006944,151.989583 L438.565104,126.52691 L431.141493,117.006944" id="Fill-13" fill="#FFFFFF"></path>
                <path d="M282.605903,26.2664931 L279.335938,25.9288194 C279.335938,25.9288194 282.376736,28.1119792 282.057292,31.1059028 L282.069444,31.0251736 L280.262153,47.0199653 L270.072049,25.5946181 C269.802951,25.0651042 269.350694,24.7526042 268.672743,24.6753472 C267.177083,24.5078125 258.539062,23.5112847 258.539062,23.5112847 L255.015625,23.1336806 C255.015625,23.1336806 258.279514,25.5017361 257.944444,28.5112847 L253.756076,65.9184028 L262.325521,66.8940972 C263.994792,67.0824653 265.267361,67.0920139 265.947917,65.9496528 C265.947917,65.9496528 266.991319,56.5251736 268.174479,45.9704861 L276.834201,65.0086806 C278.118924,68.1354167 275.326389,68.3428819 275.326389,68.3428819 L277.846354,68.7048611 L277.861979,68.6805556 L286.388889,69.6493056 C288.06684,69.8385417 289.321181,69.8385417 289.99566,68.7048611 L294.599826,27.6284722 L282.605903,26.2664931" id="Fill-14" fill="#FFFFFF"></path>
                <path d="M102.768229,74.453125 L101.517361,75.9609375 L94.8116319,83.5685764 C94.7803819,83.6145833 94.7682292,83.6432292 94.71875,83.6987847 C93.8081597,84.7326389 93.1675347,85.6119792 93.2447917,86.5625 L110.310764,112.888889 L86.2595486,99.8854167 C83.2065972,98.6527778 84.4826389,95.3125 84.4826389,95.3125 L82.0703125,98.0243056 L77.1293403,103.628472 C77.1041667,103.668403 77.0920139,103.699653 77.0425347,103.755208 C75.7916667,105.170139 75.1692708,106.594618 75.8350694,108.124132 L93.0833333,132.394965 L68.9739583,120.006944 C65.8472222,118.400174 67.1996528,114.922743 67.1996528,114.922743 L64.6458333,117.793403 L58.9644097,124.236111 C58.9453125,124.273438 58.9270833,124.307292 58.8619792,124.378472 C57.5651042,125.852431 57.2335069,127.97309 58.4939236,129.00434 C58.6736111,129.162326 58.5651042,129.109375 58.5651042,129.109375 L96.0034722,146.649306 L104.789931,136.682292 C105.979167,135.332465 106.325521,134.598958 105.771701,133.171875 L98.6788194,119.994792 L113.196181,127.146701 L122.559028,116.520833 C123.717014,115.207465 123.883681,113.337674 123.41059,111.916667 L103.505208,78.6241319 C102.220486,76.3576389 102.768229,74.453125 102.768229,74.453125" id="Fill-15" fill="#FFFFFF"></path>
                <path d="M132.342014,86.2265625 L130.038194,79.9262153 L135.790799,83.7039931 L132.342014,86.2265625 L132.342014,86.2265625 Z M123.459201,62.1979167 L116.338542,67.1796875 C114.907986,68.1918403 114.291667,69.1362847 114.434028,70.6345486 L126.425347,107.190972 C127.196181,109.475694 124.40625,113.618056 124.40625,113.618056 L136.911458,104.868924 C138.039063,104.078993 138.305556,102.748264 137.908854,101.484375 L136.140625,96.3203125 L145.671007,89.6510417 L149.386285,91.9852431 C151.522569,93.7508681 149.989583,95.7256944 149.989583,95.7256944 L163.727431,86.1154514 L123.459201,62.1979167 L123.459201,62.1979167 Z" id="Fill-16" fill="#FFFFFF"></path>
                <polyline id="Fill-17" fill="#FFFFFF" points="54.5451389 161.581597 60.1857639 178.94184 78.4409722 178.94184 63.671875 189.672743 69.3133681 207.03559 54.5451389 196.304688 39.7760417 207.03559 45.4175347 189.672743 30.6493056 178.94184 48.9036458 178.94184 54.5451389 161.581597"></polyline>
                <polyline id="Fill-18" fill="#FFFFFF" points="445.454861 163.894965 439.814236 181.255208 421.559028 181.255208 436.327257 191.986111 430.686632 209.349826 445.454861 198.618056 460.223958 209.349826 454.582465 191.986111 469.350694 181.255208 451.096354 181.255208 445.454861 163.894965"></polyline>
                <path d="M245.09809,457.884549 L246.956597,451.438368 L249.37066,457.884549 L245.09809,457.884549 L245.09809,457.884549 Z M251.225694,432.880208 L242.534722,432.880208 C240.782986,432.886285 239.736111,433.307292 238.993056,434.617188 L227.861979,471.442708 C227.181424,473.755208 222.520833,475.551215 222.520833,475.551215 L237.784722,475.551215 C239.159722,475.551215 240.141493,474.612847 240.540799,473.353299 L242.054688,468.108507 L253.684028,468.108507 L255.393229,472.148438 C256.130208,474.820313 253.743056,475.560764 253.743056,475.560764 L270.508681,475.560764 L251.225694,432.880208 L251.225694,432.880208 Z" id="Fill-19" fill="#FFFFFF"></path>
                <path d="M295.74566,439.527778 C296.061632,440.413194 296.498264,443.487847 296.22309,444.299479 C295.959201,445.09809 295.411458,445.584201 294.569444,445.742188 L287.597222,447.116319 C286.008681,447.41059 284.844618,449.064236 283.888021,451.052083 L281.835069,439.911458 L293.148438,437.729167 C294.371528,437.503472 295.250868,438.091146 295.74566,439.527778 M312.204861,464.235243 L303.033854,454.08941 C305.167535,453.59375 306.882812,452.423611 307.517361,451.364583 C308.551215,449.643229 308.604167,446.361111 307.706597,441.519097 C307.706597,441.519097 305.985243,433.038194 305.641493,431.716146 C304.978299,429.158854 303.548611,427.613715 301.990451,427.016493 C300.46441,426.40625 298.065104,426.391493 294.81684,426.994792 L264.586806,432.679688 C264.586806,432.679688 268.416667,434.100694 269.057292,436.970486 L275.776042,473.867188 L284.206597,472.303819 C285.878472,471.993924 287.079861,471.65625 287.405382,470.359375 L285.119792,457.869792 L291.006076,456.696181 L301.185764,469.068576 L316.261285,466.272569 C316.261285,466.272569 313.651042,465.622396 312.204861,464.235243" id="Fill-20" fill="#FFFFFF"></path>
                <path d="M338.1875,423.318576 C338.697917,424.117188 345.732639,439.829861 345.649306,440.671875 C345.574653,441.52691 345.147569,442.130208 344.361111,442.470486 L333.453125,447.192708 L327.068576,432.494792 C326.672743,431.541667 325.688368,429.293403 324.579861,426.77691 L335.251736,422.157118 C336.401042,421.658854 337.385417,422.036458 338.1875,423.318576 M346.122396,413.487847 C344.893229,411.122396 343.159722,409.958333 341.524306,409.717014 C339.893229,409.469618 337.549479,409.989583 334.518229,411.302083 L306.043403,423.627604 C306.043403,423.627604 310.003472,424.330729 311.396701,426.828993 L324.579861,457.251736 C325.152778,459.409722 324.356771,461.729167 323.991319,462.199653 L351.701389,450.322917 C355.463542,448.694444 357.649306,446.914063 358.269097,445.037326 C358.897569,443.127604 358.216146,439.916667 356.259549,435.395833 L348.02691,417.404514 C347.153646,415.420139 346.75434,414.698785 346.122396,413.487847" id="Fill-21" fill="#FFFFFF"></path>
                <path d="M227.565104,441.361979 L229.361111,433.243924 C229.361111,433.243924 197.77691,426.320312 197.337674,426.274306 C194.74566,425.989583 193.743056,427.667535 193.086806,429.750868 L191.832465,435.44184 L191.857639,435.447917 L191.290799,437.776042 C191.290799,437.776042 193.628472,436.023438 196.182292,436.398438 L210.716146,439.599826 L186.374132,460.078125 L184.900174,466.938368 L216.595486,473.920139 C218.623264,474.366319 220.03559,474.434896 220.747396,472.388021 L223.029514,461.904514 C223.029514,461.904514 220.657986,464.189236 218.044271,463.758681 L202.6875,460.375 L227.565104,441.361979" id="Fill-22" fill="#FFFFFF"></path>
                <path d="M175.878472,459.915799 C175.878472,459.915799 186.949653,427.768229 187.53559,426.319444 C188.12934,424.885417 190.340278,424.096354 190.340278,424.096354 C189.222222,423.65625 184.763889,422.204861 180.12934,420.498264 C178.927951,420.272569 176.896701,419.507812 175.457465,424.260417 L163.162326,459.679688 L174.580729,463.646701 L175.491319,463.751736 C175.491319,463.751736 175.262153,462.178819 175.878472,459.915799" id="Fill-23" fill="#FFFFFF"></path>
                <path d="M173.892361,419.466146 L172.204861,418.46875 L163.631944,413.050347 C163.582465,413.032118 163.551215,413.019965 163.488715,412.982639 C162.322049,412.24566 161.355903,411.753472 160.427083,411.979167 L141.568576,430.333333 L148.467014,408.162326 C148.896701,406.016493 152.355035,405.953993 152.355035,405.953993 L149.296875,404.003472 L142.980903,400.013021 C142.934028,399.994792 142.902778,399.985243 142.841146,399.944444 C141.243056,398.935764 139.742188,398.545139 138.335938,399.443576 L118.963542,417.388021 L127.46875,395.793403 C128.559028,392.448785 132.209201,393.235243 132.209201,393.235243 L128.970486,391.167535 L121.706597,386.578993 C121.670139,386.56684 121.62934,386.551215 121.549479,386.501736 C119.889757,385.452257 117.743924,385.460938 116.926215,386.866319 C116.799479,387.071181 116.833333,386.956597 116.833333,386.956597 L103.486111,425.457465 L114.722222,432.552951 C116.242188,433.516493 117.019965,433.742188 118.344618,432.967882 L130.230035,423.881076 L125.46875,439.342882 L137.44184,446.909722 C138.921007,447.845486 140.794271,447.711806 142.122396,447.021701 L169.888889,420.853299 C171.926215,419.224826 173.892361,419.466146 173.892361,419.466146" id="Fill-24" fill="#FFFFFF"></path>
                <path d="M390.264757,404.304688 C386.480903,399.722222 380.496528,399.143229 375.297743,402.729167 L369.436632,406.769097 C367.328125,408.221354 365.665799,408.391493 364.470486,407.261285 C364.427083,407.221354 364.065104,406.729167 364.027778,406.673611 C363.53559,405.772569 362.46441,404.255208 365.588542,402.100694 L376.164931,394.809028 C378.443576,393.236111 382.771701,394.926215 382.771701,394.926215 C382.771701,394.926215 379.319444,389.953993 377.198785,386.904514 C375.97309,385.121528 373.195312,384.384549 371.331597,385.669271 L358.383681,394.59809 C353.71441,397.818576 351.064236,400.583333 350.426215,402.905382 C349.78559,405.209201 350.90625,408.438368 353.705729,412.521701 L356.144965,415.993056 C356.513889,416.515625 356.927951,416.99566 357.371528,417.414062 C359.073785,419.020833 361.154514,419.894097 363.646701,420.030382 C366.594618,420.151042 369.705729,419.073785 373.003472,416.797743 L378.046875,413.323785 C379.994792,411.980035 381.58941,411.887153 382.811632,413.039062 C383.137153,413.348958 383.350694,413.72309 383.447049,414.153646 C383.447049,414.153646 384.484375,415.955729 380.471354,418.72309 L370.300347,425.733507 C367.981771,427.113715 363.869792,425.516493 363.869792,425.516493 C363.869792,425.516493 367.322049,430.488715 369.446181,433.538194 C370.669271,435.322049 373.446181,436.055556 375.309896,434.770833 L383.310764,429.253472 L388.388021,425.755208 C393.063368,422.528646 395.704861,419.782118 396.335938,417.444444 C396.980035,415.113715 395.871528,412.181424 393.078993,408.125868 C393.078993,408.125868 390.936632,405.118924 390.264757,404.304688" id="Fill-25" fill="#FFFFFF"></path>
                <path d="M397.476562,170.179688 C387.172743,151.188368 373.310764,134.41059 356.777778,120.737847 C353.678819,118.174479 350.459201,115.759549 347.177083,113.421875 C319.831597,93.9314236 286.421875,82.4045139 250.289931,82.3394097 L249.992188,82.3394097 C160.396701,82.3454861 87.1822917,152.649306 82.5538194,241.133681 C82.3984375,243.992188 82.3246528,246.865451 82.3177083,249.756944 L82.3177083,250.047743 C82.3246528,273.178819 87.0086806,295.220486 95.4800347,315.268229 C96.5355903,317.776042 97.6597222,320.25 98.8333333,322.692708 C108.238715,342.229167 121.320312,359.66059 137.181424,374.094618 C141.144965,377.704861 145.283854,381.122396 149.581597,384.342882 C177.524306,405.269097 212.216146,417.675347 249.8125,417.71875 L250.041667,417.71875 C270.283854,417.712674 289.681424,414.124132 307.638889,407.551215 C371.790799,384.070312 417.595486,322.521701 417.681424,250.230903 L417.681424,250.016493 C417.676215,226.897569 412.991319,204.866319 404.523438,184.824653 C402.405382,179.811632 400.052951,174.929688 397.476562,170.179688" id="Fill-26" fill="#848683"></path>
                <path d="M400.383681,186.572917 C398.324653,181.696181 396.033854,176.940104 393.526042,172.321181 C383.497396,153.836806 370.007812,137.507812 353.916667,124.203993 C350.901042,121.708333 347.768229,119.358507 344.572917,117.082465 C317.961806,98.1163194 285.446181,86.8984375 250.280382,86.8333333 L249.992188,86.8333333 C162.798611,86.8394097 91.5442708,155.257812 87.0399306,241.374132 C86.890625,244.154514 86.8168403,246.950521 86.8107639,249.764757 L86.8107639,250.049479 C86.8168403,272.561632 91.3776042,294.008681 99.6223958,313.519965 C100.650174,315.960069 101.743056,318.368924 102.882812,320.746528 C112.037326,339.756944 124.769097,356.723958 140.203125,370.770833 C144.064236,374.284722 148.092014,377.610243 152.271701,380.746528 C179.465278,401.109375 213.228299,413.184896 249.818576,413.224826 L250.041667,413.224826 C269.739583,413.21875 288.619792,409.729167 306.097222,403.332465 C368.527778,380.480035 413.102431,320.582465 413.189236,250.225694 L413.189236,250.018229 C413.18316,227.519097 408.625868,206.074653 400.383681,186.572917" id="Fill-27" fill="#FFFFFF"></path>
                <path d="M219.518229,175.231771 L223.301215,161.46875 L224.196181,158.261285 L206.827257,148.530382 C206.827257,148.530382 196.696181,141.501736 174.041667,154.644965 C147.517361,170.287326 125.9375,190.513889 114.769965,211.97309 C108.586806,223.862847 103.678819,237.546875 101.143229,253.111979 C101.93316,282.559028 111.230903,309.885417 126.723958,332.682292 C122.305556,290.243924 163.314236,243.749132 195.423611,211.998264 C212.381076,195.049479 219.518229,175.231771 219.518229,175.231771" id="Fill-28" fill="#111B2B"></path>
                <path d="M326.152778,154.642361 C303.49566,141.499132 293.368056,148.533854 293.368056,148.533854 L276.005208,158.258681 L276.893229,161.472222 L280.677083,175.234375 C280.677083,175.234375 287.810764,195.049479 304.770833,211.994792 C336.782118,243.650174 377.654514,289.955729 373.514757,332.292535 C389.081597,309.231771 398.321181,281.577257 398.856771,251.786458 C396.258681,236.763889 391.434896,223.525174 385.425347,211.970486 C374.260417,190.519965 352.671875,170.287326 326.152778,154.642361" id="Fill-29" fill="#111B2B"></path>
                <path d="M271.663194,129.202257 C331.190104,135.927083 370.3125,169.709201 390.512153,199.673611 C375.3125,156.43316 340.725694,122.335069 297.172743,107.789931 C287.565104,110.628472 276.917535,116.59809 271.663194,129.202257" id="Fill-30" fill="#BE2531"></path>
                <path d="M228.532986,129.202257 C223.25434,116.532986 212.516493,110.563368 202.868924,107.752604 C159.049479,122.356771 124.295139,156.773438 109.217014,200.385417 C129.282986,170.244792 168.545139,135.976562 228.532986,129.202257" id="Fill-31" fill="#BE2531"></path>
                <path d="M238.277778,127.523437 L250.092014,110.12934 L261.922743,127.523437 C266.665799,114.559896 274.145833,107.414062 281.648438,103.519097 C271.489583,101.321181 260.956597,100.138889 250.141493,100.125868 C239.274306,100.117187 228.697917,101.305556 218.483507,103.50434 C226.00434,107.389757 233.509549,114.513889 238.277778,127.523437" id="Fill-32" fill="#BE2531"></path>
                <path d="M250.09375,178.045139 C248.375,179.274306 193.418403,218.827257 169.206597,257.993056 C136.530382,310.856771 140.775174,341.341146 149.230903,358.741319 C170.287326,378.105035 196.935764,391.467882 226.482639,396.157986 L239.217014,215.604167 L249.836806,204.953125 L249.97309,204.810764 L249.97309,204.814236 L249.985243,204.810764 L250.118056,204.953125 L260.731771,215.604167 L273.5625,396.013021 L273.391493,396.102431 C303.167535,391.399306 330.011285,377.927951 351.16059,358.332465 C359.486111,340.867188 363.427083,310.453993 330.992188,257.993056 C306.783854,218.827257 251.821181,179.274306 250.09375,178.045139" id="Fill-33" fill="#111B2B"></path>
                <polyline id="Fill-34" fill="#848683" points="260.731771 215.603299 250.118924 204.955729 250.242188 409.300347 273.386285 396.107639 273.392361 396.101562 273.559028 396.012153 260.731771 215.603299"></polyline>
                <path d="M281.860243,139.783854 C275.398438,138.675347 268.893229,137.783854 262.305556,137.368924 L257.65191,137.074653 L257.55816,136.882812 L257.462674,136.690972 L255.592882,132.886285 L255.478299,132.651042 L255.478299,132.647569 L250.09375,121.709201 L244.892361,132.28559 L244.886285,132.294271 L244.737847,132.588542 L244.595486,132.886285 L242.728299,136.690972 L242.573785,137.013021 L242.542535,137.074653 L237.894965,137.368924 C231.309896,137.783854 224.798611,138.675347 218.336806,139.783854 C215.467014,140.273437 212.578125,140.706597 209.744792,141.332465 L209.748264,141.332465 L209.744792,141.332465 L218.878472,146.251736 L228.012153,151.177951 L230.833333,152.695312 L233.659722,154.217882 L231.944444,160.404514 L231.851563,160.748264 L225.981771,182.073785 L225.984375,182.067708 L225.984375,182.073785 L245.403646,167.748264 L247.719618,166.039062 L250.032118,164.333333 L250.032118,164.237847 L250.09375,164.293403 L250.168403,164.237847 L250.168403,164.333333 L252.480903,166.039062 L274.212674,182.073785 L269.128472,163.605903 L268.689236,162.005208 L268.252604,160.404514 L266.544271,154.217882 L268.376736,153.227431 L272.190972,151.177951 L284.516493,144.530382 L290.452257,141.332465 L290.446181,141.332465 L290.452257,141.332465 C287.615451,140.706597 284.730035,140.273437 281.860243,139.783854" id="Fill-35" fill="#848683"></path>
            </g>
        </g>
    </g>
</svg>