<?xml version="1.0" encoding="UTF-8" standalone="no"?>
<svg width="500px" height="500px" viewBox="0 0 500 500" version="1.1" xmlns="http://www.w3.org/2000/svg" xmlns:xlink="http://www.w3.org/1999/xlink">
    <!-- Generator: Sketch 39.1 (31720) - http://www.bohemiancoding.com/sketch -->
    <title>ARI</title>
    <desc>Created with Sketch.</desc>
    <defs>
        <polygon id="path-1" points="0.137614679 428.862353 498.944954 428.862353 498.944954 1.70911765 0.137614679 1.70911765"></polygon>
    </defs>
    <g id="MLB" stroke="none" stroke-width="1" fill="none" fill-rule="evenodd">
        <g id="ARI">
            <g transform="translate(0.000000, 32.000000)">
                <polyline id="Fill-1" fill="#F1E7C5" points="321.419725 249.590824 249.305046 249.368294 246.229358 253.323353 253.940367 278.735294 196.864679 375.317647 278.974771 308.719412 340.167431 381.674647 308.642202 281.825471 324.715596 259.260529 321.419725 249.590824"></polyline>
                <g id="Group-5">
                    <mask id="mask-2" fill="white">
                        <use xlink:href="#path-1"></use>
                    </mask>
                    <g id="Clip-3"></g>
                    <polyline id="Fill-2" fill="#9E2723" mask="url(#mask-2)" points="259.832569 259.547294 311.711009 259.547294 297.876147 280.754118 315.919725 336.556235 280.885321 294.443118 233.516055 332.344235 265.245413 280.153059 259.832569 259.547294"></polyline>
                    <polyline id="Fill-4" fill="#F1E7C5" mask="url(#mask-2)" points="213.461009 429 185.637615 366.551824 296.399083 180.514941 304.860092 180.514941 346.525229 365.893412 307.135321 429 498.944954 429 403.720183 1.70911765 270.965596 1.70911765 0 429 213.461009 429"></polyline>
                </g>
                <polyline id="Fill-6" fill="#191818" points="285.380734 9.67888235 397.33945 9.67888235 489.442661 420.832941 318.224771 420.832941 358.81422 366.425647 313.896789 173.527059 287.938073 173.527059 173.791284 364.363235 200.369266 421.450059 32.2454128 421.450059 168.433486 335.512412 142.678899 271.623529 226.743119 219.278647 199.133028 169.406824 278.87156 129.424941 254.350917 84.0862941 315.545872 56.8826471 285.380734 9.67888235"></polyline>
                <polyline id="Fill-7" fill="#9E2723" points="389.926606 18.5502353 291.048165 18.5502353 315.545872 56.8826471 254.350917 84.0862941 278.87156 129.424941 199.133028 169.406824 226.743119 219.278647 142.678899 271.623529 168.433486 335.512412 47.266055 411.970765 185.330275 411.970765 163.488532 364.159059 283.40367 164.458412 321.316514 164.458412 367.880734 367.662176 335.53211 412.381412 477.90367 412.381412 389.926606 18.5502353"></polyline>
                <path d="M276.844037,10.3464706 C277.190367,10.3487647 303.279817,53.3772353 303.279817,53.3772353 L242.635321,80.6841176 L267.862385,127.000059 L188.213303,165.883059 L215.683486,216.346765 L132.75,269.056412 L158.318807,332.135471 L17.162844,420.961412 C17.162844,420.961412 276.5,10.3464706 276.844037,10.3464706" id="Fill-8" fill="#191818"></path>
            </g>
        </g>
    </g>
</svg>