<?xml version="1.0" encoding="UTF-8" standalone="no"?>
<svg width="500px" height="500px" viewBox="0 0 500 500" version="1.1" xmlns="http://www.w3.org/2000/svg" xmlns:xlink="http://www.w3.org/1999/xlink">
    <!-- Generator: Sketch 39.1 (31720) - http://www.bohemiancoding.com/sketch -->
    <title>ATL</title>
    <desc>Created with Sketch.</desc>
    <defs>
        <polygon id="path-1" points="0 182.738571 497.469565 182.738571 497.469565 0.797357143 0 0.797357143"></polygon>
    </defs>
    <g id="MLB" stroke="none" stroke-width="1" fill="none" fill-rule="evenodd">
        <g id="ATL">
            <g transform="translate(0.000000, 159.000000)">
                <g id="Group-5">
                    <mask id="mask-2" fill="white">
                        <use xlink:href="#path-1"></use>
                    </mask>
                    <g id="Clip-2"></g>
                    <path d="M494.308696,147.323714 C494.326087,146.966429 494.36087,146.722429 494.36087,146.317214 C494.36087,144.970857 494.256522,143.315143 493.83913,141.424143 C492.726087,136.208643 489.926087,132.383071 487.882609,129.598857 L486.269565,127.250357 C486.269565,127.259071 485.543478,125.472643 485.543478,125.472643 C485.265217,124.701429 484.917391,123.777714 484.486957,122.775571 C488.891304,119.133 490.678261,115.098286 491.391304,112.357643 C492.9,106.484214 491.234783,100.419071 486.93913,96.1490714 C482.66087,91.9008571 476.334783,89.9662857 469.182609,90.4804286 C468.965217,81.1779286 464.673913,75.9057857 462.26087,73.1607857 C462.243478,72.7076429 462.243478,72.2283571 462.243478,72.2283571 C462.204348,66.7993571 462.134783,56.7212857 454.078261,48.6213571 C452.334783,46.8654286 452.117391,46.3295 451.426087,44.5779286 C451.426087,44.5779286 450.595652,42.6259286 450.365217,42.0812857 C449.921739,40.9876429 448.734783,38.4561429 444.886957,35.5804286 L435.782609,28.7745714 L429.578261,38.4474286 C426.156522,43.7631429 425.721739,48.922 425.434783,52.3423571 C425.434783,52.3423571 425.286957,53.6974286 425.221739,54.2464286 C424.93913,54.5470714 424.473913,55.0350714 424.473913,55.0350714 L421.534783,58.2462857 L421.213043,58.6471429 C417.03913,63.8800714 416.33913,68.3025714 416.33913,78.9252857 C416.33913,78.9252857 416.313043,79.4481429 416.286957,79.9448571 C416,80.3065 415.630435,80.7683571 415.630435,80.7683571 C412.117391,85.3085 411.991304,90.7636429 411.904348,94.7417143 C411.904348,94.7417143 411.730435,97.9834286 411.721739,98.0444286 C401.573913,99.5084286 200.926087,128.509571 196.434783,129.158786 C183.569565,130.879857 177.626087,141.079929 178.569565,149.794214 C180.2,164.830714 190.778261,169.314214 200.147826,168.508143 C206.086957,167.994 351.869565,146.195214 403.643478,138.443857 C403.234783,140.504786 402.921739,142.670286 402.921739,144.992643 C402.921739,147.837857 403.408696,150.874786 404.473913,153.981429 C403.66087,155.876786 402.991304,157.946429 402.7,160.342857 C402.530435,161.7415 402.443478,163.057357 402.443478,164.290429 C402.443478,172.625643 405.995652,177.257286 409.204348,179.732143 C414.3,183.666643 421.117391,183.971643 429.330435,181.069786 C437.856522,182.647071 447.213043,181.78 455.682609,178.538286 C463.621739,180.054571 471.713043,175.348857 475.721739,172.913214 C475.721739,172.913214 475.817391,172.856571 475.830435,172.839143 C476.013043,172.856571 476.213043,172.856571 476.213043,172.856571 L481.773913,172.686643 L482.682609,172.512357 C486.33913,171.819571 493.152174,170.542929 496.230435,163.623786 C497.134783,161.606429 497.469565,159.615214 497.469565,157.741643 C497.469565,152.966214 495.234783,148.966357 494.308696,147.323714" id="Fill-1" fill="#15233C" mask="url(#mask-2)"></path>
                    <path d="M490.234783,149.7245 L489.891304,149.123214 C489.891304,149.123214 489.726087,148.918429 489.547826,148.739786 C489.56087,148.661357 489.56087,148.535 489.56087,148.535 C489.604348,147.933714 489.669565,147.179929 489.669565,146.317214 C489.669565,145.232286 489.578261,143.946929 489.256522,142.4655 C488.352174,138.291357 486.013043,135.097571 484.13913,132.531214 L482.191304,129.668571 L481.143478,127.176286 C480.56087,125.572857 479.813043,123.525 478.226087,121.259286 C484.147826,117.904286 486.173913,113.7345 486.852174,111.1115 C487.917391,106.9635 486.734783,102.676071 483.678261,99.6391429 C479.891304,95.8789286 473.83913,94.5064286 466.965217,95.6349286 C466.66087,95.2079286 466.356522,94.7765714 466.047826,94.367 C466.047826,94.367 464.808696,92.5108571 464.530435,92.0882143 C464.547826,91.7570714 464.565217,91.4215714 464.565217,91.1035 C464.565217,82.9687143 460.834783,78.7292143 458.543478,76.128 C458.543478,76.128 457.895652,75.3480714 457.665217,75.0605 C457.643478,74.4243571 457.547826,72.2632143 457.547826,72.2632143 C457.517391,67.222 457.447826,58.7865714 450.813043,52.1027143 C448.356522,49.6409286 447.878261,48.4296429 447.082609,46.4166429 L445.995652,43.8415714 C445.73913,43.2882143 445.104348,41.9200714 442.330435,39.6630714 L437.134783,35.4453571 L433.482609,41.1357857 C430.721739,45.4188571 430.373913,49.654 430.121739,52.7519286 L429.730435,55.8367857 C429.517391,56.7038571 429.069565,57.2092857 427.7,58.5425714 L425.204348,61.2701429 L424.830435,61.7363571 C421.882609,65.4355714 421.034783,68.1326429 421.034783,78.9252857 C421.034783,81.2868571 420.8,81.8881429 420.795652,81.923 C420.778261,81.9404286 420.16087,82.7203571 420.16087,82.7203571 L419.295652,83.7922143 C416.769565,87.0557143 416.678261,91.2037143 416.591304,94.8506429 L416.365217,98.8069286 C416.108696,100.580286 415.778261,101.660857 415.413043,102.414643 C410.826087,103.076929 199.013043,133.694571 197.026087,133.973429 C185.943478,135.472286 182.678261,144.134286 183.23913,149.267 C184.765217,163.419 195.304348,164.046429 199.76087,163.671714 C205.826087,163.140143 369.434783,138.661714 410.113043,132.566071 C408.926087,136.143286 407.591304,140.321786 407.591304,144.970857 C407.591304,147.9555 408.134783,151.101357 409.621739,154.364857 C408.526087,156.438857 407.643478,158.5085 407.352174,160.9485 C407.217391,162.124929 407.152174,163.222929 407.152174,164.238143 C407.152174,170.625714 409.691304,174.050429 412.017391,175.841214 C417.63913,180.189643 425.230435,177.7845 429.256522,176.115714 C437.482609,177.858571 446.613043,176.778 454.834783,173.444786 C461.5,175.889143 469.278261,171.1965 473.334783,168.726 L474.252174,168.177 C474.686957,167.915571 475.034783,167.898143 476.586957,168.020143 L480.886957,167.915571 L481.843478,167.728214 C485.243478,167.092071 489.908696,166.211929 491.956522,161.593357 C492.543478,160.303643 492.782609,159.000857 492.782609,157.741643 C492.782609,154.700357 491.426087,151.837714 490.234783,149.7245" id="Fill-3" fill="#B02534" mask="url(#mask-2)"></path>
                    <path d="M207.917391,93.6524286 C207.66087,93.7657143 207.426087,93.8702857 206.73913,93.5696429 C206.386957,93.4040714 205.373913,90.8682143 206.447826,85.4479286 C208.526087,75.0735714 215.230435,66.6555714 218.513043,66.6555714 C218.926087,66.6555714 218.991304,66.7557857 219.030435,66.8211429 C219.269565,67.1784286 219.473913,67.9583571 219.473913,69.1957857 C219.473913,70.9604286 219.03913,73.6575 217.608696,77.4002857 C212.478261,90.829 208.891304,93.2385 207.917391,93.6524286 L207.917391,93.6524286 Z M297.630435,61.1917143 C298.130435,60.0980714 298.313043,59.231 298.678261,58.2288571 C298.83913,58.5817857 298.913043,58.9913571 299.091304,59.3225 C299.891304,60.7952143 301.13913,61.7799286 302.282609,62.8648571 C297.317391,71.9015714 292.552174,77.7314286 289.604348,79.6311429 C290.617391,75.9057857 293.469565,69.8972857 295.234783,66.2198571 L297.630435,61.1917143 L297.630435,61.1917143 Z M357.243478,42.9309286 C357.243478,42.9309286 357.643478,43.3666429 357.865217,43.6019286 C356.452174,43.2228571 354.982609,42.944 353.1,43.5975714 L353.226087,43.5670714 C353.156522,43.5757857 353.06087,43.5278571 352.956522,43.5017143 C352.947826,43.4232857 352.917391,43.3405 352.917391,43.2620714 C352.917391,41.7675714 353.743478,40.2295 354.730435,39.4016429 C355.086957,39.1140714 355.326087,38.9833571 355.595652,38.8047143 C355.8,40.8395 356.686957,42.3078571 357.243478,42.9309286 L357.243478,42.9309286 Z M348.082609,74.481 C346.595652,75.0169286 345.2,75.2347857 344.473913,74.5986429 C344.004348,74.1934286 343.782609,73.5398571 343.782609,72.6989286 C343.782609,71.5399286 344.217391,70.0367143 345.065217,68.4158571 C345.673913,67.2350714 346.578261,66.0717143 347.617391,64.9867857 C347.46087,66.0107143 346.986957,67.0346429 346.986957,68.0585714 C346.986957,70.2415 347.4,72.3852143 348.082609,74.481 L348.082609,74.481 Z M389.308696,53.4708571 C388.791304,64.6512857 382.230435,68.3897143 376.195652,69.6053571 C380.295652,63.3136429 383.804348,56.7561429 386.921739,50.9132143 C387.552174,49.7585714 388.186957,48.5690714 388.826087,47.397 C389.06087,48.7477143 389.378261,50.0417857 389.378261,51.606 C389.378261,52.2072857 389.352174,52.826 389.308696,53.4708571 L389.308696,53.4708571 Z M60.3782609,63.3920714 C60.4608696,63.2787857 60.5434783,63.1175714 60.6173913,63.0042857 L61.926087,61.2004286 C66.0826087,55.3967143 70.9652174,48.6431429 85.1217391,41.3187857 C85.0695652,44.9221429 84.1695652,52.7301429 78.0434783,60.3377143 L77.9652174,60.4422857 C77.7478261,60.7124286 77.4608696,60.9520714 77.1826087,61.2004286 C71.7086957,58.4641429 65.9173913,58.7735 61.5956522,62.2592143 C61.1565217,62.6165 60.7608696,62.9999286 60.3782609,63.3920714 L60.3782609,63.3920714 Z M48.6695652,41.3797857 C48.5782609,39.8373571 48.3782609,31.8637857 53.1130435,26.8792143 C56.1608696,23.6941429 60.9217391,22.2214286 67.2652174,22.5046429 C68.7565217,22.57 71.1173913,23.058 73.6347826,24.1298571 C64.0695652,28.4347143 55.726087,34.5303571 48.7130435,42.1858571 L48.6695652,41.3797857 L48.6695652,41.3797857 Z M406.7,44.1422143 C405.130435,40.199 400.613043,28.853 407.573913,19.1365714 C410.252174,15.8905 409.017391,12.3917143 408.565217,11.407 C408.117391,10.4222857 406.282609,7.19364286 401.695652,7.26771429 L401.430435,7.26771429 L401.16087,7.29385714 C386.991304,8.70121429 379.134783,25.3193571 370.826087,42.9047857 C369.973913,44.7042857 368.93913,46.6257857 367.952174,48.5211429 C367.569565,48.4557857 367.191304,48.3076429 366.813043,48.2597143 C365.43913,48.0985 364.147826,48.2684286 362.847826,48.4122143 C362.791304,48.1812857 362.808696,47.9547143 362.73913,47.7281429 C362.443478,46.8959286 361.778261,46.2467143 361.186957,45.5626429 C362.330435,45.2750714 363.765217,44.9047143 363.765217,44.9047143 C367.665217,43.8807857 369.073913,39.833 369.504348,38.1293571 C369.795652,36.9834286 369.93913,35.8331429 369.93913,34.6915714 C369.93913,32.0947143 369.195652,29.5762857 367.752174,27.3672143 C365.465217,23.8815 361.669565,21.5504286 357.334783,20.9796429 C349.030435,19.8816429 340.013043,26.8487143 336.321739,36.4126429 C333.330435,39.8068571 329.926087,42.2207143 326.604348,43.8764286 C325.756522,37.0792857 321.552174,32.1687857 315.356522,31.0664286 C308.63913,29.8638571 301.752174,33.5674286 298.952174,39.8547857 C298.834783,40.1118571 298.804348,40.3907143 298.695652,40.6565 C297.334783,38.3210714 295.513043,36.3908571 293.078261,35.4148571 C275.23913,28.2560714 261.652174,49.8762143 249.673913,68.9474286 C244.891304,76.555 240.378261,83.7399286 236.047826,88.6417143 C235.686957,89.0512857 235.517391,89.1340714 235.217391,89.4129286 C235.330435,88.1537143 235.626087,86.6243571 236.504348,84.7333571 C236.595652,84.5067857 252.865217,45.8153571 252.865217,45.8153571 L230.382609,48.0636429 C230.382609,48.0636429 230.126087,48.7215714 229.96087,49.1747143 C227.913043,48.1333571 225.686957,47.2793571 223.091304,46.9525714 C203.030435,44.3949286 190.669565,62.2635714 185.778261,79.8402857 C185.491304,80.7683571 183.747826,84.2627857 182.130435,87.1515714 C175.617391,98.7633571 170.034783,101.996357 167.843478,102.196786 C167.673913,101.573714 167.508696,100.963714 167.508696,99.9702857 C167.508696,93.8092857 170.53913,81.2737857 173.895652,72.9516429 C174.417391,71.5137857 174.621739,70.2415 174.621739,69.1391429 C174.621739,66.1937143 173.152174,64.4334286 172.347826,63.684 C170.617391,62.0762143 167.556522,60.9825714 164.143478,62.7385 C160.326087,65.0303571 156.521739,66.368 152.952174,67.2263571 C153,66.6642857 153.152174,66.0237857 153.152174,65.4922143 C153.152174,63.9323571 152.952174,62.5119286 152.495652,61.2875714 C150.36087,55.5317857 146.082609,51.7367143 140.76087,50.8870714 C135.404348,50.0374286 129.917391,52.3292857 126.426087,56.8694286 C124.130435,59.8497143 122.96087,63.3964286 122.96087,67.1479286 C122.96087,69.5007857 123.421739,71.919 124.347826,74.3372143 C125.234783,76.6072857 126.791304,78.7466429 128.634783,80.7465714 C126.578261,84.9773571 124.23913,89.5305714 121.904348,93.6437143 C115.069565,105.726071 108.769565,114.370643 100.165217,123.481429 C99.8043478,123.864857 99.5478261,124.230857 99.273913,124.596857 C99.5043478,123.969429 99.7478261,123.346357 99.9652174,122.697143 C101.773913,117.242 102.647826,111.730214 102.647826,106.301214 C102.647826,94.9465 98.6217391,84.1364286 91.3217391,75.2435 C102.573913,66.3113571 109.430435,53.3662857 109.430435,39.8155714 C109.430435,37.1446429 109.108696,34.4606429 108.582609,31.7897143 C110.230435,31.2494286 111.878261,30.7004286 113.66087,30.1601429 C119.917391,28.5436429 119.4,22.9055 119.321739,22.265 C119.23913,21.6332143 118.352174,16.0735 111.686957,16.1693571 C108.386957,16.2129286 105.182609,16.4307857 102.047826,16.7532143 C95.4304348,7.77314286 83.9695652,0.736357143 66.5782609,0.797357143 C47.9478261,1.20257143 36.826087,11.1325 30.7608696,19.3936429 C22.4565217,30.7004286 19.873913,43.7544286 21.6173913,50.7999286 L22.5347826,54.5165714 L26.3217391,55.8890714 C28.6391304,56.6123571 31.1043478,56.0502857 32.9347826,54.3684286 C38.4434783,49.8849286 41.7869565,48.6605714 42.5826087,48.5865 L43.4043478,48.5124286 C33.9695652,61.2962857 28.2434783,77.2303571 22.7347826,92.6720714 C16.9565217,108.858857 11.5043478,124.152429 2.73913043,132.322071 L0,134.875357 L0.669565217,138.609429 C1.4,142.822786 1.94347826,151.820286 1.55652174,160.891857 C1.50434783,164.063857 2.91304348,166.617143 5.30869565,167.911214 C7.7,169.200929 10.5,168.930786 12.8043478,167.222786 C27.6,156.107714 37.6043478,125.777643 46.4304348,99.0160714 C50.0869565,87.9489286 53.5869565,77.3741429 56.8217391,70.0802857 C56.4086957,72.0279286 56.3869565,74.0583571 56.8391304,76.0539286 C58.9130435,83.9490714 65.4913043,88.084 73.2652174,86.5372143 C73.2652174,86.5372143 74.0043478,86.2060714 74.8521739,85.8139286 C77.2304348,89.4565 78.526087,94.7504286 78.526087,100.571571 C78.526087,105.107357 77.7521739,109.935071 76.1565217,114.483929 C74.0913043,120.374786 67.5652174,134.030071 51.7043478,133.685857 C48.2652174,133.581286 44.6956522,132.065 44,131.699 C39.9478261,129.32 36.2652174,131.062857 34.6086957,133.716357 C32.8956522,136.461357 33.0434783,140.652929 36.6304348,143.358714 C36.2652174,143.058071 36.8391304,143.580929 36.8391304,143.580929 C40.2956522,146.705 48.4086957,154.029357 64.4913043,153.401929 C77.9521739,152.818071 90.5434783,143.284643 97.4086957,129.036786 C97.3913043,129.224143 97.3478261,129.415857 97.3478261,129.5945 C97.3478261,131.699 98.3304348,133.250143 98.8217391,133.877571 C100.591304,136.199929 104.308696,137.877429 108.952174,134.984286 C111.556522,133.367786 115.034783,131.062857 118.804348,127.598929 C125.178261,121.7255 131.465217,113.634286 138.582609,102.1445 C138.908696,101.604214 142.534783,95.7046429 146.082609,88.3236429 C146.852174,88.3367143 147.656522,88.2931429 148.46087,88.2408571 C146.682609,93.4476429 144.834783,99.7785714 144.834783,105.756571 C144.834783,112.444786 147.156522,118.597071 154.526087,121.934643 C162.808696,125.703571 176.286957,122.557714 189.056522,108.828357 C192.056522,112.806429 196.195652,115.398929 201.395652,115.904357 C206.53913,116.083 212.030435,113.5515 216.195652,110.606071 C219.256522,112.8195 223.46087,114.928357 229.073913,114.331429 C237.291304,113.473071 245.456522,107.0855 254.06087,94.8201429 L259.108696,87.0644286 C264.165217,79.0995714 271.73913,67.2481429 277.647826,61.0305 C277.230435,62.2025714 276.730435,63.4835714 275.76087,65.1131429 C270.791304,73.505 266.082609,82.1975 266.082609,89.6874286 C266.082609,91.439 266.33913,93.1252143 266.921739,94.733 C268.234783,98.4017143 271.104348,101.142357 274.982609,102.432071 C290.83913,107.721643 307.604348,94.0663571 320.413043,66.0237857 C322.030435,65.5706429 323.626087,65.0347143 325.204348,64.3680714 C323.369565,68.3156429 322.191304,72.0584286 322.191304,75.3219286 C322.191304,80.8729286 324.443478,85.3259286 327.534783,88.3236429 C335.452174,95.9835 349.334783,95.5608571 359.656522,88.0709286 C364.086957,90.5893571 369.278261,92.1230714 374.8,92.2102143 C386.734783,92.4019286 397.265217,86.9380714 403.665217,77.2216429 C409.986957,67.6228571 411.126087,55.2616429 406.7,44.1422143 L406.7,44.1422143 Z" id="Fill-4" fill="#15233C" mask="url(#mask-2)"></path>
                </g>
                <path d="M395.891304,53.9980714 C395.091304,71.4615 382.208696,75.8970714 375.395652,76.7859286 C371.030435,77.348 366.934783,76.7162143 363.695652,75.2957857 C376.834783,59.8715 384.943478,36.9355 391.413043,31.4106429 C390.991304,35.7547143 396.769565,42.2947857 395.891304,53.9980714 L395.891304,53.9980714 Z M357.686957,63.2482857 C361.086957,56.2507143 366.117391,59.8322857 367.613043,62.5903571 C365.2,66.4028571 362.678261,69.9975 360.086957,73.0692857 C357.095652,70.516 355.865217,66.9823571 357.686957,63.2482857 L357.686957,63.2482857 Z M313.804348,42.2686429 C316.847826,43.432 316.847826,46.7347143 314.169565,53.5144286 C313.008696,53.3837143 311.921739,53.1484286 310.978261,52.7606429 C305.813043,50.6474286 308.913043,40.3994286 313.804348,42.2686429 L313.804348,42.2686429 Z M223.752174,79.91 C218.152174,94.5630714 211.921739,103.312214 204.126087,99.8308571 C192.095652,94.4628571 205.052174,59.8235714 218.513043,59.8322857 C224.395652,59.8322857 229.073913,65.9802143 223.752174,79.91 L223.752174,79.91 Z M134.06087,70.3242857 C129.295652,62.4683571 141.873913,57.6275714 141.613043,66.4159286 C141.573913,67.5575 140.56087,70.4114286 139.004348,74.0801429 C136.865217,73.2915 135.130435,72.0758571 134.06087,70.3242857 L134.06087,70.3242857 Z M400.595652,46.7434286 C398.991304,42.7130714 392.917391,28.1035714 402.265217,15.0757143 C402.804348,14.4177857 402.769565,14.0822857 401.791304,14.0953571 C391.482609,15.1149286 384.8,28.8791429 376.756522,45.9068571 C375.069565,49.4666429 373.1,53.2268571 370.995652,56.9478571 C368.147826,54.5252857 358.773913,52.6299286 354.856522,62.0239286 C352.573913,67.4790714 353.565217,72.6902143 356.613043,76.8120714 C355.813043,77.6007143 355,78.3719286 354.204348,79.0167857 C344.665217,86.7245714 332.191304,78.7117857 339.247826,65.1741429 C342.704348,58.5382143 351.230435,53.3270714 354.5,52.0199286 C356.082609,51.3968571 357.786957,49.1790714 355.2,50.0722857 C352.082609,51.1615714 347.63913,49.4317857 346.717391,46.1726429 C345.386957,41.4930714 347.495652,36.6697143 350.578261,34.0902857 C358.426087,27.5458571 362.982609,33.8767857 362.169565,37.6326429 C361.717391,39.0269286 362.713043,37.9986429 363.113043,36.4126429 C364.23913,31.9247857 360.826087,28.3257857 356.504348,27.755 C350.756522,26.9968571 343.678261,33.1404286 341.647826,40.5737143 C334.986957,48.3991429 325.756522,52.6952857 318.434783,53.4577857 C319.617391,49.9502857 320.330435,46.8436429 320.186957,45.1922857 C319.334783,35.2318571 307.934783,35.9812857 304.96087,42.7087143 C302.047826,49.2444286 302.965217,59.0523571 311.191304,60.2505714 C305.017391,73.0692857 294.573913,89.1907143 286.682609,87.3999286 C277.291304,85.2562143 286.104348,70.2981429 291.669565,58.2462857 C296.095652,48.6692857 294.256522,43.2097857 290.686957,41.7806429 C272.221739,34.3778571 256.326087,75.8099286 240.926087,93.2472143 C231.086957,104.375357 225.121739,93.4912143 230.543478,81.7835714 L242.334783,53.7366429 L235.030435,54.4686429 L232.665217,60.5642857 C231.721739,58.1242857 227.952174,54.4555714 222.282609,53.7366429 C206.304348,51.6931429 196.217391,67.0085 192.121739,81.7312857 C191.569565,83.7312143 188.695652,89.0382143 187.847826,90.5632143 C179.465217,105.521286 170.382609,111.338071 164.26087,108.3665 C156.321739,104.527857 164.852174,77.6355714 167.8,70.3242857 C168.330435,68.8559286 168.034783,68.3722857 167.086957,68.8559286 C160.178261,73.0126429 151.391304,75.4352143 144.443478,75.091 C146.208696,70.1892143 147.147826,65.9322857 146.326087,63.7319286 C141.791304,51.4709286 125.595652,59.1525714 130.486957,71.797 C131.53913,74.5376429 133.730435,77.1475714 136.826087,78.9906429 C134.086957,84.9294286 130.608696,91.7875714 127.608696,97.0989286 C119.713043,111.037429 112.9,119.769143 104.891304,128.2525 C102.895652,130.374429 104.634783,129.703429 105.552174,129.141357 C108.334783,127.402857 111.265217,125.3855 114.413043,122.496714 C120.452174,116.928286 126.5,108.993929 133.017391,98.4583571 C135.526087,94.3931429 139.165217,87.6177857 142.047826,81.0210714 C144.691304,81.618 147.678261,81.7748571 151.052174,81.1735714 C152.926087,80.8424286 156.465217,79.2607857 157.882609,78.5985 C158.273913,78.4242143 158.386957,78.9252857 158.386957,78.9252857 C157.678261,85.7572857 143.873913,109.643143 157.186957,115.6865 C164.617391,119.063286 178.652174,114.061286 190.917391,96.0096429 C191.795652,103.159714 195.291304,108.462357 202.004348,109.102857 C206.978261,109.268429 214.026087,104.710857 216.156522,101.787214 C220.16087,105.447214 230.143478,117.303 248.713043,90.8115714 C253.165217,84.4501429 264.621739,64.6512857 273.447826,55.6581429 C282.708696,46.2292857 289.747826,54.5862857 281.395652,68.6772857 C275.321739,78.9252857 267.773913,92.8507143 277.013043,95.9355714 C292.230435,101.002929 306.973913,80.7117143 315.830435,60.1721429 C325.834783,58.6253571 337.856522,49.3795 341.143478,45.9896429 C341.382609,48.3555714 342.678261,51.5842143 344.830435,52.6342857 C340.6,55.8193571 336.117391,59.2484286 333.604348,62.5293571 C318.291304,84.3150714 342.669565,94.367 357.517391,81.5918571 C358.169565,81.0341429 358.782609,80.4154286 359.413043,79.8141429 C363.3,83.1604286 368.813043,85.2823571 374.908696,85.3825714 C395.491304,85.7180714 408.095652,65.6055 400.595652,46.7434286 L400.595652,46.7434286 Z" id="Fill-6" fill="#B02534"></path>
                <path d="M100.456522,27.4064286 C103.947826,26.1428571 107.643478,24.8792857 111.773913,23.607 C112.717391,23.3673571 113.43913,22.9708571 111.773913,22.997 C107.952174,23.0536429 103.552174,23.3194286 98.8521739,23.973 C93.5478261,14.4439286 82.8652174,7.58142857 66.6086957,7.62935714 C35.9173913,8.296 25.6869565,39.6761429 28.0217391,49.1006429 C28.0608696,49.2705714 28.2956522,49.4927857 28.5434783,49.2705714 C34.273913,44.591 39.073913,42.0202857 42.0782609,41.7806429 C41.6043478,33.4846429 44.473913,14.6356429 67.5521739,15.6813571 C72.7347826,15.9166429 81.5782609,18.788 87.0565217,26.4260714 C74.2608696,30.0163571 60.5782609,37.1795 49.6217391,51.2966429 C29.8869565,76.7336429 26.2695652,119.5905 7.16521739,137.398143 C8.06086957,142.552643 8.54347826,152.216786 8.15217391,161.1925 C8.13913043,162.159786 8.66086957,161.894 8.94347826,161.6805 C30.4869565,145.493714 42.9913043,75.7925 55.3521739,58.8911429 C60.9086957,51.2879286 66.5043478,41.7414286 89.8565217,31.5849286 C90.6695652,33.6153571 91.2869565,35.8505714 91.6130435,38.3646429 C92.1956522,42.9875714 91.373913,54.4686429 83.1173913,64.7079286 C81.2304348,67.1479286 77.973913,69.1652857 77.0217391,68.9953571 C75.8173913,67.9975714 75.9652174,68.3156429 74.6217391,67.3875714 C67.4652174,63.5663571 62.0652174,69.2088571 63.273913,74.481 C64.2043478,78.0320714 67.0956522,80.8075714 72.026087,79.8359286 C73.5434783,79.5309286 76.0869565,77.2521429 76.5782609,77.6704286 C93.7,91.8572857 85.0652174,141.241143 51.5695652,140.504786 C46.4956522,140.365357 41.6478261,138.178071 40.8173913,137.685714 C39.9956522,137.184643 39.9826087,137.441714 40.5173913,137.838214 C43.226087,140.204143 49.7086957,147.145071 64.2521739,146.578643 C91.3695652,145.406571 110.773913,99.9920714 81.2913043,74.2413571 C100.13913,64.0282143 106.756522,43.0965 100.456522,27.4064286" id="Fill-7" fill="#B02534"></path>
                <path d="M485.573913,158.543357 C485.03913,159.724143 482.882609,160.133714 480.578261,160.565071 L479.569565,160.761143 L477.13913,160.761143 C475.356522,160.613 473.152174,160.438714 470.743478,161.854786 L469.769565,162.443 C466.382609,164.512643 459.330435,168.791357 455.952174,165.880786 L455.486957,165.471214 L454.943478,165.741357 C451.886957,167.275071 440.965217,171.9895 428.821739,168.625786 L428.5,168.543 L428.204348,168.678071 C422.53913,171.222643 418.404348,171.680143 416.226087,170.007 C414.491304,168.660643 413.86087,165.924357 414.352174,161.854786 C414.565217,160.072714 415.234783,158.460571 416.813043,155.8855 L417.595652,153.767929 L417.269565,153.598 C412.821739,146.705 414.930435,140.365357 416.978261,134.239214 C430.178261,133.642286 439.417391,130.740429 447.056522,125.516214 C454.917391,127.498714 465.156522,127.189357 471.934783,124.784214 C473.352174,126.5445 473.965217,128.108714 474.547826,129.725214 L476.082609,133.293714 L478.526087,136.927571 C480.143478,139.141 481.808696,141.424143 482.386957,144.047143 C482.565217,144.901143 482.626087,145.646214 482.626087,146.321571 C482.626087,146.909786 482.573913,147.445714 482.53913,147.938071 C482.504348,148.404286 482.465217,148.861786 482.465217,149.319286 C482.465217,150.661286 482.773913,152.020714 484.3,153.584929 C485.221739,155.301643 485.726087,156.704643 485.726087,157.706786 C485.726087,158.029214 485.673913,158.303714 485.573913,158.543357 L485.573913,158.543357 Z M416.608696,124.235214 C416.191304,124.296214 415.669565,124.374643 415.073913,124.466143 C415.156522,118.584 414.369565,114.357571 413.36087,110.070143 L417.482609,109.473214 C417.547826,109.486286 417.595652,109.547286 417.66087,109.547286 C418.782609,109.547286 419.508696,110.000429 419.96087,110.9895 C421.282609,113.882643 419.656522,120.213571 416.608696,124.235214 L416.608696,124.235214 Z M423.643478,95.0249286 C423.691304,92.2799286 423.752174,89.6874286 424.795652,88.3497857 L425.526087,87.4478571 C427.204348,85.4305 428.078261,84.1277143 428.078261,78.9252857 C428.078261,69.1217143 428.804348,68.2023571 430.265217,66.368 L430.704348,65.8146429 L432.565217,63.8277857 C434.095652,62.3115 435.843478,60.5947857 436.573913,57.6014286 L437.130435,53.375 C437.334783,51.0177857 437.7,48.5952143 438.926087,46.1944286 C439.273913,46.5212143 439.565217,46.8218571 439.630435,46.9656429 C439.656522,47.0222857 440.56087,49.1747143 440.56087,49.1747143 C441.508696,51.5580714 442.395652,53.8063571 445.891304,57.3225714 C450.434783,61.8888571 450.469565,67.6664286 450.508696,72.3155 C450.526087,74.2413571 450.530435,75.8970714 450.865217,77.2085714 C451.230435,78.6464286 452.26087,79.7967143 453.334783,81.0254286 C455.213043,83.1647857 457.517391,85.7790714 457.517391,91.1427143 C457.517391,91.5915 457.517391,92.0707857 457.473913,92.5718571 C457.465217,92.6502857 457.465217,92.7243571 457.465217,92.7984286 L448.730435,94.3016429 C450.921739,88.9815714 449.378261,82.3674286 447.156522,77.9754286 C446.917391,77.5005 446.352174,77.3218571 445.882609,77.5745714 C445.430435,77.8185714 445.252174,78.4067857 445.491304,78.8817143 C447.682609,83.2127143 449.186957,89.8835 446.434783,94.6894286 L444.869565,94.9552143 C437.513043,96.0532143 429.943478,97.2209286 423.365217,99.3864286 L423.643478,95.0249286 L423.643478,95.0249286 Z M435.16087,121.751643 C432.352174,122.840929 429.347826,123.729786 426.095652,124.2875 C427.091304,122.627429 427.826087,121.010929 428.347826,119.438 C430.017391,119.686357 431.630435,120.3225 433.2,120.980429 C433.83913,121.250571 434.495652,121.507643 435.16087,121.751643 L435.16087,121.751643 Z M429.308696,111.826071 C429.143478,110.026571 428.726087,108.418786 428.117391,107.181357 C427.973913,106.876357 427.778261,106.645429 427.608696,106.366571 C430.282609,105.482071 433.1,104.754429 436.013043,104.148786 C439.691304,107.891571 444.965217,112.074429 448.082609,114.170214 C447.173913,114.902214 446.230435,115.616786 445.252174,116.313929 L442.856522,115.494786 C438.986957,114.135357 433.773913,112.357643 429.308696,111.826071 L429.308696,111.826071 Z M457.717391,119.255 C456.6,119.263714 455.552174,119.2245 454.634783,119.133 C454.908696,118.849786 455.186957,118.588357 455.469565,118.300786 C456.195652,118.684214 456.93913,119.002286 457.717391,119.255 L457.717391,119.255 Z M461.108696,99.8047143 C459.152174,102.567143 456.865217,105.525643 454.169565,108.418786 C452.052174,107.2685 448.565217,104.562714 446.273913,102.358 C447.056522,102.240357 447.843478,102.118357 448.617391,102.000714 L461.108696,99.8047143 L461.108696,99.8047143 Z M463.46087,108.623571 C463.534783,109.233571 463.652174,109.856643 463.817391,110.5015 C463.817391,110.514571 463.826087,110.527643 463.826087,110.545071 C463.826087,110.5625 463.826087,110.571214 463.834783,110.588643 C463.843478,110.614786 463.852174,110.636571 463.852174,110.649643 C463.986957,111.259643 464.16087,111.895786 464.352174,112.536286 C463.152174,112.510143 462.026087,112.274857 461.004348,111.847857 C461.817391,110.802143 462.63913,109.734643 463.46087,108.623571 L463.46087,108.623571 Z M478.804348,104.893857 C479.713043,105.808857 480.195652,106.911214 480.195652,108.087643 C480.195652,108.462357 480.143478,108.841429 480.047826,109.233571 C479.178261,112.588571 474.895652,115.5645 468.613043,117.311714 C468.065217,116.571 467.569565,115.555786 467.134783,114.510071 C466.93913,114.052571 466.778261,113.595071 466.66087,113.181143 C466.647826,113.137571 466.6,113.115786 466.586957,113.080929 C466.195652,111.991643 465.904348,111.006929 465.734783,110.388214 C465.465217,109.242286 465.304348,108.192214 465.2,107.255429 C465.13913,106.410143 465.126087,105.617143 465.126087,104.954857 C465.126087,104.954857 465.091304,104.671643 465.034783,104.305643 L465.034783,103.909143 C465.034783,103.887357 465.030435,103.856857 465.030435,103.830714 L465.030435,103.752286 C465.030435,103.678214 464.995652,103.604143 464.982609,103.530071 C472.013043,101.490929 476.730435,102.832929 478.804348,104.893857 L478.804348,104.893857 Z M406.086957,125.8125 C403.926087,126.134929 401.504348,126.492214 398.856522,126.893071 L405.63913,117.834571 C405.956522,120.091571 406.13913,122.705857 406.086957,125.8125 L406.086957,125.8125 Z M393.078261,120.4445 C392.13913,119.573071 388.265217,116.000214 386.108696,114.000286 L398.669565,112.187714 C396.93913,114.741 393.804348,119.359571 393.078261,120.4445 L393.078261,120.4445 Z M381.904348,129.428929 C381.93913,126.858214 381.817391,124.588143 381.591304,122.501071 L387.952174,128.527 C385.995652,128.810214 383.973913,129.123929 381.904348,129.428929 L381.904348,129.428929 Z M367.069565,131.651071 L372.617391,123.803857 C372.843478,125.895286 372.969565,128.187143 372.917391,130.775286 C371.008696,131.0585 369.056522,131.346071 367.069565,131.651071 L367.069565,131.651071 Z M359.856522,126.313571 C359.543478,123.193857 359,120.509857 358.408696,118.008857 L366.678261,116.815 L359.856522,126.313571 L359.856522,126.313571 Z M351.069565,134.038786 C308.382609,140.413286 255.504348,148.286643 224.673913,152.787571 C225.791304,150.042571 225.795652,146.352071 225.347826,143.628857 C224.93913,141.088643 224.130435,139.019 223.082609,137.563714 L349.430435,119.307286 C350.373913,123.307143 351.195652,127.803714 351.069565,134.038786 L351.069565,134.038786 Z M214.852174,154.221071 C205.886957,155.515143 200.165217,156.321214 199.169565,156.408357 C192.082609,157.018357 190.669565,152.482571 190.234783,148.456571 C190.217391,148.338929 190.217391,148.212571 190.217391,148.068786 C190.217391,146.142929 191.53913,142.047214 197.934783,141.197571 L213.134783,139.001571 C214.386957,139.951429 215.452174,142.265071 215.926087,145.18 C216.504348,148.805143 216.069565,152.3475 214.852174,154.221071 L214.852174,154.221071 Z M485.769565,152.417214 C484.204348,150.748429 484.273913,149.802929 484.417391,148.099286 C484.504348,146.940286 484.621739,145.498071 484.213043,143.6245 C483.565217,140.587571 481.76087,138.1345 480.017391,135.751143 L477.713043,132.330786 L476.308696,129.0455 C475.56087,126.988929 474.8,124.858286 472.352174,122.326786 C472.13913,122.104571 471.952174,121.886714 471.756522,121.673214 L469.673913,119.045857 C476.391304,117.063357 480.834783,113.721429 481.86087,109.734643 C482.447826,107.455857 481.804348,105.185786 480.104348,103.490857 C477.656522,101.055214 472.282609,99.3864286 464.46087,101.652143 C464.443478,101.621643 464.417391,101.582429 464.413043,101.556286 C463.804348,100.236071 462.882609,98.8940714 461.921739,97.5738571 C461.813043,97.4300714 461.704348,97.2775714 461.608696,97.1294286 C461.069565,96.3364286 460.343478,95.221 459.83913,94.3452143 C459.534783,93.7352143 459.313043,93.1644286 459.347826,92.7156429 C459.852174,85.5525 456.886957,82.1800714 454.721739,79.7182857 C453.76087,78.6246429 452.934783,77.6878571 452.691304,76.7075 C452.404348,75.6356429 452.395652,74.0888571 452.378261,72.2980714 C452.352174,67.5575 452.3,61.0566429 447.208696,55.9282857 C443.986957,52.6952857 443.208696,50.7215 442.3,48.4383571 L441.347826,46.1726429 C441.017391,45.3360714 439.673913,44.2598571 439.113043,43.8459286 L438.317391,43.2533571 L437.773913,44.0899286 C435.76087,47.2357857 435.495652,50.4077857 435.256522,53.2007143 L434.747826,57.1308571 C434.152174,59.5752143 432.752174,60.9520714 431.26087,62.4204286 L429.23913,64.6033571 L428.821739,65.1349286 C426.952174,67.4790714 426.195652,68.8297857 426.195652,78.9252857 C426.195652,83.6484286 425.447826,84.5503571 424.091304,86.1886429 L423.326087,87.1428571 C421.891304,88.9902857 421.830435,91.9052143 421.756522,94.9813571 L421.469565,99.5999286 C421.386957,100.196857 421.295652,100.745857 421.195652,101.26 L420.652174,103.416786 C420.643478,103.429857 420.643478,103.438571 420.634783,103.442929 L420.634783,103.469071 C420.030435,105.3775 419.278261,106.458071 418.386957,107.233643 C418.295652,107.303357 418.208696,107.373071 418.113043,107.412286 C417.534783,107.499429 411.634783,108.349071 402.082609,109.734643 L400.482609,109.935071 C400.452174,109.935071 400.452174,109.965571 400.434783,109.965571 C394.434783,110.832643 387.134783,111.895786 378.943478,113.080929 C378.930435,113.080929 378.926087,113.072214 378.921739,113.072214 L374.630435,113.708357 C328.547826,120.366071 257.591304,130.609714 221.117391,135.8775 C221.043478,135.8775 220.973913,135.829571 220.9,135.838286 L216.195652,136.600786 C204.708696,138.2565 197.7,139.267357 197.7,139.267357 C190.269565,140.260786 188.03913,145.563429 188.369565,148.670071 C188.652174,151.271286 189.508696,159.192571 199.330435,158.347286 C200.36087,158.255786 206.226087,157.436643 215.373913,156.107714 C215.417391,156.107714 215.452174,156.133857 215.504348,156.133857 L220.378261,155.375714 C252.065217,150.770214 312.904348,141.703 358.856522,134.8405 L359.291304,134.796929 L361.756522,134.409143 C380.613043,131.590071 396.721739,129.180571 406.913043,127.651214 C406.991304,127.668643 407.065217,127.686071 407.143478,127.673 L414.256522,126.570643 C414.273913,126.570643 414.273913,126.553214 414.291304,126.548857 C415.417391,126.383286 416.356522,126.248214 417.03913,126.139286 C416.813043,128.466 416.091304,130.945214 415.217391,133.576929 C414.030435,137.106214 412.765217,140.901286 412.765217,144.918571 C412.765217,147.890143 413.543478,150.992429 415.491304,154.208 C415.4,154.412786 415.234783,154.839786 415.234783,154.839786 C413.478261,157.680643 412.73913,159.519357 412.482609,161.615143 C412.365217,162.565 412.313043,163.462571 412.313043,164.294786 C412.313043,167.680286 413.247826,170.133357 415.108696,171.558143 C417.83913,173.671357 422.408696,173.318429 428.652174,170.573429 C437.047826,172.804286 446.917391,171.706286 455.273913,167.667214 C459.726087,170.739 466.821739,166.490786 470.726087,164.124857 L471.682609,163.545357 C473.582609,162.416857 475.308696,162.565 476.986957,162.695714 L479.917391,162.673929 L480.908696,162.482214 C483.708696,161.955 486.33913,161.462643 487.278261,159.349429 C488,157.732929 487.517391,155.528214 485.769565,152.417214 L485.769565,152.417214 Z" id="Fill-8" fill="#15233C"></path>
                <path d="M435.808696,79.4960714 C436.021739,79.9797143 435.826087,80.5592143 435.343478,80.7901429 C433.421739,81.7269286 431.808696,84.0013571 431.321739,86.4631429 C430.856522,88.8465 431.469565,91.1514286 433.043478,92.9727143 C433.391304,93.3735714 433.365217,93.9835714 432.973913,94.3408571 C432.591304,94.6981429 432.004348,94.6632857 431.647826,94.2667857 C429.66087,91.9836429 428.891304,89.0730714 429.473913,86.0753571 C430.073913,82.9992143 432.073913,80.2367857 434.547826,79.0255 C435.021739,78.8032857 435.582609,79.0167857 435.808696,79.4960714" id="Fill-9" fill="#15233C"></path>
                <path d="M465.808696,127.925714 C466.321739,127.956214 466.721739,128.409357 466.7,128.945286 C466.634783,130.152214 468.147826,131.380929 469.9,132.805714 C472.986957,135.319786 477.208696,138.757571 475.434783,145.079786 C475.286957,145.598286 474.769565,145.885857 474.269565,145.742071 C473.773913,145.598286 473.486957,145.053643 473.634783,144.543857 C475.052174,139.480857 471.83913,136.862214 468.734783,134.339429 C466.669565,132.6445 464.708696,131.054143 464.817391,128.832 C464.852174,128.304786 465.291304,127.895214 465.808696,127.925714" id="Fill-10" fill="#15233C"></path>
                <path d="M475.634783,149.123214 C475.343478,150.399857 474.926087,150.687429 474.6,150.783286 L472.647826,150.748429 L470.526087,150.635143 C469.204348,150.787643 467.873913,151.358429 466.865217,152.195 L463.569565,154.826714 L462.813043,155.136071 C461.430435,155.462857 460.056522,155.358286 458.634783,154.813643 C458.13913,154.626286 457.608696,154.883357 457.426087,155.384429 C457.243478,155.8855 457.5,156.443214 457.991304,156.630571 C459.765217,157.319 461.478261,157.445357 463.221739,157.035786 L464.708696,156.377857 L468.026087,153.724357 C468.765217,153.11 469.778261,152.674286 470.73913,152.565357 L472.373913,152.669929 L475.134783,152.643786 C476.895652,152.107857 477.321739,150.190714 477.46087,149.554571 C477.573913,149.036071 477.26087,148.517571 476.756522,148.399929 C476.247826,148.277929 475.743478,148.600357 475.634783,149.123214 L475.634783,149.123214 Z" id="Fill-11" fill="#15233C"></path>
                <path d="M448.913043,131.685929 C450.96087,135.001714 451.113043,139.2935 449.330435,143.437143 C448.965217,144.304214 449.356522,145.2105 450.721739,146.678857 C450.721739,146.678857 451.195652,147.123286 451.121739,147.550286 C451.034783,147.977286 451.008696,148.338929 450.586957,148.378143 C450.282609,148.404286 449.778261,148.439143 449.378261,148.025214 C448.478261,147.062286 446.586957,145.044929 447.608696,142.644143 C449.143478,139.1105 449.034783,135.489714 447.326087,132.727286 C447.043478,132.2785 447.173913,131.677214 447.608696,131.380929 C448.056522,131.093357 448.63913,131.228429 448.913043,131.685929" id="Fill-12" fill="#15233C"></path>
                <path d="M429.343478,134.696714 C431.169565,136.552857 430.552174,139.302214 429,141.0625 L426.682609,143.058071 C424.6,144.604857 423.352174,145.668 423.908696,147.62 C424.052174,148.142857 423.765217,148.674429 423.265217,148.822571 C422.765217,148.966357 422.247826,148.678786 422.1,148.160286 C421.152174,144.787857 423.608696,142.957857 425.56087,141.4895 L427.621739,139.746643 C428.152174,139.145357 429.256522,137.324071 428.021739,136.077929 C427.66087,135.703214 427.647826,135.088857 428.021739,134.714143 C428.378261,134.322 428.978261,134.322 429.343478,134.696714" id="Fill-13" fill="#15233C"></path>
                <path d="M424.830435,157.092429 C425.665217,159.349429 427.973913,160.660929 430.073913,160.072714 L432.756522,158.861429 L435.556522,157.571714 C436.678261,157.214429 437.686957,157.558643 438.573913,157.859286 C439.291304,158.103286 439.908696,158.312429 440.417391,158.129429 L441.191304,157.881071 L441.16087,157.915929 C441.191304,157.881071 442.447826,157.423571 442.791304,157.741643 C443.682609,158.582571 442.365217,159.188214 442.756522,158.939857 L441.269565,159.889714 L441.047826,159.950714 C439.930435,160.373357 438.891304,160.020429 437.986957,159.706714 C437.273913,159.471429 436.652174,159.257929 436.108696,159.427857 L433.63913,160.573786 C433.63913,160.573786 430.569565,161.955 430.56087,161.955 C427.534783,162.787214 424.243478,160.957214 423.082609,157.785214 C422.895652,157.292857 423.130435,156.726429 423.626087,156.534714 C424.108696,156.347357 424.652174,156.591357 424.830435,157.092429" id="Fill-14" fill="#15233C"></path>
                <path d="M441.956522,58.1852857 C442.43913,58.4075 442.647826,58.9826429 442.443478,59.4662857 C441.543478,61.5577143 441.617391,64.3898571 442.630435,66.8647143 C443.4,68.7644286 444.6,70.15 445.93913,70.6597857 C446.426087,70.8515 446.669565,71.4092143 446.486957,71.9102857 C446.304348,72.4157143 445.769565,72.6640714 445.286957,72.4810714 C443.43913,71.7708571 441.882609,70.0367143 440.891304,67.6228571 C439.691304,64.6687143 439.630435,61.244 440.717391,58.6907143 C440.934783,58.1896429 441.482609,57.9674286 441.956522,58.1852857" id="Fill-15" fill="#15233C"></path>
                <path d="M447.208696,96.5281429 C447.230435,96.5194286 447.243478,96.5194286 447.26087,96.5107143 C450.634783,95.9355714 456.973913,94.8462857 457.895652,94.6894286 C457.926087,94.7504286 457.982609,94.8288571 458.008696,94.8855 C458.465217,95.9225 459.152174,96.9769286 459.943478,98.0705714 C457.617391,98.4714286 448.343478,100.079214 448.343478,100.079214 C446.134783,100.410357 443.913043,100.758929 441.686957,101.124929 C438.473913,101.634714 436.730435,101.957143 436.086957,102.170643 C432.717391,102.867786 429.434783,103.678214 426.352174,104.754429 C425.321739,103.7305 424.108696,103.094357 422.765217,102.867786 C422.865217,102.436429 422.969565,101.996357 423.065217,101.525786 C429.678261,99.2121429 437.517391,98.0182857 445.143478,96.8767143 C445.143478,96.8767143 445.973913,96.7372857 447.208696,96.5281429" id="Fill-16" fill="#E2A42D"></path>
                <path d="M470.491304,123.124143 C464.508696,125.036929 456.226087,125.355 449.234783,123.943286 C449.421739,123.7995 449.643478,123.6165 449.83913,123.459643 C450.108696,123.2505 450.373913,123.045714 450.634783,122.8235 C451.469565,122.1525 452.3,121.451 452.969565,120.806143 C456.665217,121.6035 464.121739,121.041429 467.795652,119.716857 C468.53913,120.8105 469.395652,121.912857 470.386957,123.002143 C470.430435,123.050071 470.473913,123.106714 470.491304,123.124143" id="Fill-17" fill="#E2A42D"></path>
                <path d="M402.386957,111.651786 C403.03913,111.573357 403.786957,111.481857 404.321739,111.412143 C404.456522,111.991643 404.782609,113.355429 405.008696,114.318357 C405.073913,114.619 405.130435,114.937071 405.195652,115.242071 C404.543478,116.1135 396.621739,126.697 396.195652,127.272143 C395.573913,127.359286 391.034783,128.034643 390.308696,128.134857 C389.726087,127.5815 381.786957,120.052357 381.165217,119.464143 C380.895652,117.8825 380.565217,116.383643 380.230435,114.910929 C381.356522,114.741 383.134783,114.470857 383.704348,114.392429 C384.313043,114.9545 392.621739,122.618714 392.621739,122.618714 C392.808696,122.801714 393.078261,122.8845 393.352174,122.858357 C393.604348,122.8235 393.86087,122.671 394.008696,122.448786 C394.008696,122.448786 400.830435,112.383786 401.213043,111.821714 L402.386957,111.651786" id="Fill-18" fill="#E2A42D"></path>
                <path d="M378.313043,115.1375 L379.208696,119.416214 C379.691304,122.0915 380.034783,124.980286 380.034783,128.470357 C380.034783,128.8625 380.034783,129.267714 380.017391,129.668571 C378.995652,129.829786 376.16087,130.269857 374.8,130.483357 C374.804348,130.169643 374.817391,129.834143 374.817391,129.529143 C374.817391,126.431214 374.556522,123.782071 374.169565,121.333357 C374.126087,120.945571 374.013043,120.287643 373.869565,119.546929 C373.769565,119.032786 373.669565,118.523 373.565217,118.026286 C373.404348,117.242 373.243478,116.488214 373.1,115.891286 C373.556522,115.821571 374.217391,115.725714 374.917391,115.6255 L378.313043,115.1375" id="Fill-19" fill="#E2A42D"></path>
                <path d="M351.304348,119.080714 C352.582609,118.893357 355.4,118.475071 356.513043,118.313857 C357.365217,121.882357 358.126087,125.803786 358.221739,130.884214 L358.221739,132.971286 C357.173913,133.115071 354.304348,133.511571 352.956522,133.694571 C352.956522,133.354714 352.973913,133.006143 352.973913,132.688071 C352.973913,127.036857 352.182609,122.840929 351.304348,119.080714" id="Fill-20" fill="#E2A42D"></path>
                <path d="M360.104348,132.688071 C360.121739,131.816643 360.121739,130.975714 360.086957,130.160929 L360.086957,129.241571 C360.434783,128.766643 368.821739,117.080786 369.273913,116.449 C369.691304,116.401071 370.452174,116.305214 371.213043,116.213714 C371.430435,117.268143 372.052174,120.348643 372.208696,121.080643 C371.704348,121.808286 364.913043,131.407071 364.486957,132.008357 C364.13913,132.065 362.934783,132.252357 361.76087,132.444071 C361.213043,132.526857 360.665217,132.609643 360.104348,132.688071" id="Fill-21" fill="#E2A42D"></path>
                <path d="M407.965217,125.529286 C407.969565,125.233 407.982609,124.928 407.982609,124.636071 C407.982609,120.963 407.626087,118.026286 407.156522,115.481714 C407.165217,115.394571 407.173913,115.311786 407.156522,115.224643 C406.734783,113.176786 406.443478,111.948071 406.234783,111.168143 C407.53913,110.972071 410.36087,110.5625 411.478261,110.401286 C412.430435,114.401143 413.221739,118.296429 413.221739,123.599071 C413.221739,123.969429 413.204348,124.357214 413.191304,124.745 C411.747826,124.967214 410.004348,125.224286 407.965217,125.529286" id="Fill-22" fill="#E2A42D"></path>
                <path d="M457.517391,116.078643 C457.626087,115.943571 457.734783,115.812857 457.865217,115.677786 C458.565217,114.876071 459.443478,113.8565 459.86087,113.385929 C461.413043,114.126643 463.152174,114.5275 465.017391,114.462143 C465.234783,115.019857 465.482609,115.581929 465.743478,116.161429 C465.956522,116.623286 466.178261,117.054643 466.413043,117.468571 C466.447826,117.538286 466.491304,117.608 466.534783,117.682071 C466.56087,117.721286 466.578261,117.777929 466.591304,117.8215 C463.765217,118.322571 460.147826,118.239786 456.921739,116.749643 C457.004348,116.653786 457.226087,116.401071 457.517391,116.078643" id="Fill-23" fill="#E2A42D"></path>
                <path d="M437.986957,120.527286 C436.669565,120.305071 435.326087,119.7735 433.9,119.176571 C432.321739,118.518643 430.665217,117.939143 428.891304,117.6385 C429.208696,116.287786 429.33913,115.0155 429.365217,113.799857 C433.582609,114.348857 438.534783,116.035071 442.252174,117.337857 C442.252174,117.337857 442.782609,117.512143 443.221739,117.664643 C441.608696,118.688571 439.891304,119.634071 438.078261,120.492429 C438.06087,120.501143 438.008696,120.522929 437.986957,120.527286" id="Fill-24" fill="#E2A42D"></path>
                <path d="M449.608696,112.85 C446.995652,111.168143 442.078261,107.320786 438.308696,103.686929 C439.291304,103.499571 440.286957,103.329643 441.269565,103.159714 C442.086957,103.029 442.969565,102.893929 444.004348,102.737071 C446,104.906929 449.965217,108.139929 452.769565,109.795643 C451.791304,110.749857 450.16087,112.353286 450.16087,112.353286 C450.16087,112.353286 449.965217,112.536286 449.743478,112.741071 C449.704348,112.775929 449.656522,112.8195 449.608696,112.85" id="Fill-25" fill="#E2A42D"></path>
                <path d="M422.173913,104.802357 C423.495652,104.941786 424.686957,105.564857 425.595652,106.706429 L425.643478,106.771786 C425.934783,107.1465 426.204348,107.564786 426.443478,108.048429 C427.113043,109.420929 427.495652,111.194286 427.504348,113.181143 C427.513043,113.242143 427.513043,113.294429 427.513043,113.346714 C427.504348,114.117929 427.430435,114.919643 427.304348,115.751857 C427.291304,115.865143 427.265217,115.956643 427.252174,116.061214 C426.778261,118.758286 425.630435,121.708071 423.608696,124.618643 C423.2,124.662214 422.8,124.736286 422.369565,124.779857 C422.308696,124.784214 422.243478,124.788571 422.173913,124.792929 C421.169565,124.884429 420.126087,124.919286 419.078261,124.954143 L419.073913,123.869214 L419.043478,123.873571 C420.917391,120.819214 422.3,116.910857 422.3,113.595071 C422.3,112.314071 422.1,111.142 421.66087,110.152929 C421.286957,109.338143 420.73913,108.723786 420.073913,108.279357 C420.943478,107.377429 421.630435,106.248929 422.173913,104.802357" id="Fill-26" fill="#E2A42D"></path>
                <path d="M418.221739,130.243714 C418.534783,129.141357 418.782609,128.043357 418.930435,126.967143 C418.930435,126.949714 418.934783,126.927929 418.934783,126.9105 C420.252174,126.88 422.782609,126.784143 424.365217,126.4835 C424.421739,126.474786 424.447826,126.418143 424.495652,126.400714 C429.634783,125.725357 434.221739,124.3485 438.317391,122.470571 C439.613043,122.100214 443.717391,119.847571 445.93913,118.165714 C445.943478,118.157 445.943478,118.148286 445.956522,118.135214 C447.443478,117.106929 448.83913,116.004571 450.165217,114.876071 C450.230435,114.841214 450.304348,114.8325 450.356522,114.793286 L451.408696,113.804214 L451.495652,113.721429 C455.852174,109.782571 459.347826,105.473357 462.195652,101.525786 C462.495652,101.983286 462.786957,102.501786 462.969565,103.037714 C463.06087,103.320929 463.143478,103.599786 463.152174,103.856857 L463.152174,105.821929 C463.117391,105.882929 463.069565,105.952643 463.069565,105.952643 C451.247826,122.339857 440.782609,130.975714 417.678261,132.2175 C417.865217,131.6075 418.056522,130.9365 418.221739,130.243714" id="Fill-27" fill="#E2A42D"></path>
                <path d="M220.704348,137.838214 C221.956522,138.788071 223.026087,141.045071 223.495652,143.946929 C223.678261,145.044929 223.76087,146.142929 223.76087,147.179929 C223.76087,149.667857 223.234783,151.807214 222.334783,153.118714 C221.704348,153.214571 218.791304,153.663357 216.913043,153.946571 C217.621739,152.251643 218.052174,150.321429 218.052174,148.338929 C218.052174,147.110214 217.947826,145.912 217.773913,144.866286 C217.33913,142.151786 216.373913,140.186714 215.213043,138.714 C217.047826,138.422071 220.056522,137.938429 220.704348,137.838214" id="Fill-28" fill="#E2A42D"></path>
                <path d="M433.982609,17.6507857 L432.252174,17.6507857 L432.252174,10.6445 L432.208696,10.6445 L429.747826,17.6507857 L428.06087,17.6507857 L425.682609,10.6445 L425.643478,10.6445 L425.643478,17.6507857 L423.908696,17.6507857 L423.908696,8.85371429 L426.917391,8.85371429 L428.891304,14.5964286 L428.934783,14.5964286 L431,8.85371429 L433.982609,8.85371429 L433.982609,17.6507857 L433.982609,17.6507857 Z M422.343478,10.4135714 L419.778261,10.4135714 L419.778261,17.6507857 L418.03913,17.6507857 L418.03913,10.4135714 L415.473913,10.4135714 L415.473913,8.85371429 L422.343478,8.85371429 L422.343478,10.4135714 L422.343478,10.4135714 Z" id="Fill-29" fill="#15233C"></path>
            </g>
        </g>
    </g>
</svg>