<?xml version="1.0" encoding="UTF-8" standalone="no"?>
<svg width="500px" height="500px" viewBox="0 0 500 500" version="1.1" xmlns="http://www.w3.org/2000/svg" xmlns:xlink="http://www.w3.org/1999/xlink">
    <!-- Generator: Sketch 39.1 (31720) - http://www.bohemiancoding.com/sketch -->
    <title>BAL</title>
    <desc>Created with Sketch.</desc>
    <defs>
        <polygon id="path-1" points="495.52 399.998555 495.52 1.18 0.002 1.18 0.002 399.998555 495.52 399.998555"></polygon>
    </defs>
    <g id="MLB" stroke="none" stroke-width="1" fill="none" fill-rule="evenodd">
        <g id="BAL">
            <g id="Page-1" transform="translate(0.000000, 48.000000)">
                <g id="Group-3" transform="translate(0.000000, 3.821500)">
                    <mask id="mask-2" fill="white">
                        <use xlink:href="#path-1"></use>
                    </mask>
                    <g id="Clip-2"></g>
                    <path d="M346.157,190.0725 C345.342,193.7525 344.762,197.6225 344.602,201.7325 C339.152,208.8475 333.962,214.3475 330.617,216.4675 C329.347,217.2625 328.492,217.6325 327.802,217.9025 C327.717,217.2025 327.657,216.4475 327.657,215.5825 C327.657,213.4525 327.972,210.6725 328.517,207.3425 C335.167,201.8575 340.997,196.0725 346.157,190.0725 M215.477,248.7175 C211.812,253.4375 208.832,256.0525 207.137,257.0675 C208.717,250.8075 212.637,238.4925 217.187,225.0575 C216.547,227.9225 215.802,230.8375 215.577,233.5025 C215.312,236.7275 215.177,239.7825 215.177,242.6525 C215.177,244.8175 215.322,246.7725 215.477,248.7175 M180.672,227.5225 C179.027,232.1525 177.832,235.5075 177.832,235.5075 C177.832,235.5075 171.357,254.3675 170.367,257.2525 C167.017,262.2425 162.427,266.7775 158.907,269.6025 C159.312,265.6375 160.227,261.2625 162.067,256.1875 C166.942,245.7025 174.132,234.6925 180.672,227.5225 M401.942,229.7075 C407.077,225.3775 412.097,220.0225 416.947,212.7775 C416.947,212.7775 417.392,212.0225 417.997,211.0025 C418.797,212.2575 419.527,213.6075 420.537,214.6125 C422.542,216.6175 425.787,218.4225 429.522,219.7875 C422.737,222.2425 413.347,225.6175 401.942,229.7075 M331.417,254.9425 C340.517,249.2825 349.282,240.8375 355.837,232.3175 C360.717,236.6275 366.807,239.0975 374.022,239.7075 C361.002,244.3675 346.692,249.4875 331.417,254.9425 M490.062,204.6225 C487.287,221.4575 471.712,233.7275 458.707,239.7375 C453.477,242.1525 425.862,253.2425 390.892,267.2725 C319.047,296.1725 198.702,346.0575 189.617,350.3775 L181.282,354.3075 C157.832,365.3025 133.577,376.6875 117.807,393.1625 L115.357,395.7125 L112.457,393.6975 C98.412,383.8925 83.922,380.2175 52.797,378.5425 L50.807,378.4575 L49.652,376.8375 L47.492,373.7825 L44.307,369.3475 L47.767,360.9725 C47.807,360.9575 47.847,360.9375 47.887,360.9275 L47.832,360.8425 L52.947,359.0025 C68.822,353.2375 132.967,330.3475 207.237,303.8425 C309.032,267.4975 424.407,226.3275 441.157,220.1075 C445.672,218.4325 454.062,215.3175 460.392,211.4175 C463.812,209.3075 467.892,206.4925 470.752,203.0275 C470.712,202.2525 470.322,199.3425 466.762,196.3075 C462.677,207.6325 452.897,215.5775 440.512,217.1675 C433.062,218.1025 426.722,214.7325 423.567,211.5775 C420.992,209.0175 419.242,205.2825 418.672,201.4375 C416.957,204.6525 415.192,207.6925 413.382,210.3925 C401.587,228.0175 389.277,236.2725 375.742,235.6375 C367.007,235.2375 360.292,231.9825 355.372,225.7625 C344.937,241.1225 325.837,257.0025 312.232,257.5325 C307.212,257.7425 302.582,256.0125 299.177,252.6625 C295.602,249.1575 293.297,244.2625 292.867,239.2125 C292.522,235.0125 292.832,228.6825 293.542,222.9425 C293.307,223.1025 293.072,223.2575 292.842,223.4025 C291.347,230.3875 289.277,236.1325 286.747,241.3125 C284.172,248.8375 280.757,254.8925 276.707,260.8875 C270.432,270.1725 257.212,279.6925 243.032,278.6225 C236.402,278.1125 230.807,274.9525 226.942,269.7175 C216.157,285.7425 199.587,297.5275 186.917,297.5275 C184.057,297.5275 176.702,297.5275 172.727,290.2925 C165.317,299.4325 157.092,305.4725 153.387,307.9425 C147.227,312.0425 138.577,313.4225 132.822,311.2375 C122.627,307.3475 121.962,295.7875 121.742,291.9925 C121.262,283.5925 124.712,269.0175 131.377,254.3825 C134.112,247.0675 137.727,239.4375 142.102,232.2775 C140.457,232.2375 138.837,232.0225 137.272,231.5875 C133.252,238.2575 125.212,244.6375 117.632,248.2725 C116.042,259.2575 112.792,270.9325 108.177,282.0475 C107.642,283.3425 107.042,284.7075 106.407,286.1125 C105.842,287.6025 105.262,289.0825 104.652,290.5525 C99.957,301.8175 91.732,317.5525 79.057,328.6475 C68.737,337.6975 57.382,341.8475 45.332,340.9925 C34.832,340.2525 24.362,334.5575 17.982,326.1675 C7.317,312.1025 2.742,291.7475 4.747,267.2725 C5.837,254.0225 9.422,240.8275 14.972,228.7775 C19.892,215.4325 27.197,203.1025 36.282,193.1125 C37.132,189.8575 38.397,186.7025 40.032,183.7425 C42.717,174.3375 48.897,165.8925 57.307,160.6175 C67.122,154.4675 79.002,153.3825 90.747,157.6225 C104.052,162.3975 119.422,177.6325 119.182,222.4675 C121.137,221.1875 122.822,219.8175 124.142,218.4325 C124.157,218.3375 124.162,218.2575 124.172,218.1825 C124.517,215.6125 128.297,204.8025 128.722,203.3125 C128.932,202.5675 129.127,202.0575 129.317,201.7225 C131.152,197.4675 134.982,196.2175 141.532,197.7075 C151.962,200.0775 159.297,198.8925 165.332,193.8675 C167.222,192.2875 169.342,191.6075 171.292,191.9275 C172.992,192.2175 174.447,193.2475 175.402,194.8475 C176.617,196.8825 180.517,201.2925 182.657,203.4275 C184.072,204.8425 184.887,206.9775 184.817,209.1725 C185.477,212.7925 181.867,220.0075 179.067,222.8425 C172.272,229.7775 163.907,242.0475 158.037,254.7275 C155.707,261.1625 154.257,267.4175 154.232,272.8275 C154.212,275.3925 154.792,276.3575 154.947,276.4875 C155.152,276.5825 156.237,276.5575 157.802,275.6425 C161.742,273.3325 169.287,266.7525 174.207,259.2625 C176.372,253.1325 178.837,245.8925 181.397,238.3425 C186.782,222.5525 192.327,206.2225 196.387,196.0975 C196.387,196.0975 199.392,188.8875 199.912,187.5875 L200.447,186.2575 C198.457,183.0075 198.047,178.7325 199.337,174.3575 C199.992,172.1425 201.027,170.0475 202.342,168.1725 C202.462,167.4025 202.632,166.6275 202.867,165.8525 C204.677,159.6875 209.437,154.4975 214.867,152.1825 C216.697,150.8325 217.787,149.6425 215.207,147.9075 L200.402,139.8375 C200.402,139.8375 196.512,137.4775 195.392,136.7925 C194.967,136.5275 194.602,136.2475 194.307,135.9975 C192.657,134.6975 191.267,132.9975 191.312,129.9475 C191.332,128.7975 191.352,128.5025 191.772,126.8225 C191.942,126.1175 192.182,125.6625 192.357,125.1625 C176.312,123.5425 161.212,120.7875 161.212,120.7875 C124.417,122.4375 124.762,120.0875 127.197,116.4225 C133.592,106.7875 147.957,103.5725 147.957,103.5725 C142.402,101.4975 136.012,99.2025 130.127,96.6925 C129.337,96.7325 128.412,96.7675 127.392,96.8275 C123.787,97.0025 118.947,97.2675 114.637,97.6475 C106.817,98.2875 96.802,99.3425 80.852,100.3075 C62.027,100.4975 58.642,94.7525 58.642,94.7525 C51.762,94.4525 51.217,92.9975 51.217,92.9975 C43.732,92.0475 42.807,89.6425 42.807,89.6425 C39.142,88.1925 25.562,83.6275 47.132,82.4575 C43.297,79.6175 48.977,79.2325 50.177,79.0175 C52.842,75.7275 54.887,75.9275 54.887,75.9275 C58.457,73.0825 59.547,73.5775 67.217,74.2525 C75.617,74.9775 94.947,78.1225 110.627,79.6625 C112.797,79.8675 114.872,80.0425 116.862,80.1875 C117.237,80.1675 117.557,80.1425 117.757,80.1425 C124.662,80.0475 132.162,77.8025 138.987,76.0125 C145.012,74.4325 150.167,72.6125 154.467,70.0875 C165.292,63.6975 173.977,60.4925 181.022,57.6975 C181.022,57.6975 204.782,46.5625 221.412,42.4325 C231.332,39.9675 228.812,39.6775 237.917,33.2425 C249.807,24.8175 254.882,12.1575 272.572,7.8975 C284.997,4.9025 291.522,4.7275 296.072,7.1575 C302.742,10.7175 304.252,13.8825 304.252,13.8825 C304.252,13.8825 307.752,14.5325 310.512,14.7875 C315.032,15.2025 315.222,15.2225 317.072,15.4725 C322.277,16.1975 324.192,16.4125 328.517,19.1475 C328.517,19.1475 315.642,24.1225 312.837,25.4675 C309.202,27.2175 306.887,28.7675 306.887,28.7675 C307.462,35.8175 294.892,46.1675 294.707,49.5475 C294.187,59.6075 294.277,50.2525 294.757,64.4125 C294.992,70.9325 293.917,75.5525 293.102,78.2325 C288.197,94.4425 281.327,119.8575 225.362,126.0875 L218.622,126.8375 C218.572,126.8375 217.017,126.9775 214.857,127.3375 C211.417,128.8875 206.912,131.6175 209.047,134.6925 C209.182,134.8375 210.212,135.7825 217.107,139.4175 C218.732,140.2625 242.092,151.9425 238.787,157.3375 C238.787,157.3375 240.322,159.6075 239.052,161.8775 C237.777,164.1375 234.777,167.3225 233.822,167.7225 C233.482,167.8775 232.737,168.0675 231.812,168.2675 C231.157,170.4425 230.132,172.4875 228.847,174.3425 C228.722,175.1175 228.552,175.8925 228.322,176.6775 C228.257,176.9075 228.182,177.1175 228.107,177.3275 L230.097,176.7575 L227.112,184.5075 C219.202,205.1225 205.717,244.6525 202.762,256.8075 C202.392,258.3225 202.152,260.3875 203.082,261.5775 C203.282,261.8225 204.352,262.1975 206.477,261.8875 C210.172,261.3575 215.577,255.8975 219.837,250.1475 C219.337,245.5125 219.337,240.0775 219.852,233.8575 C220.487,226.1475 223.157,217.2325 226.872,209.5925 C228.477,204.9575 230.527,200.4625 232.832,196.5225 C233.267,191.7325 235.012,186.3475 237.687,181.7775 C239.432,176.8725 242.737,172.5325 247.367,169.2925 C256.032,163.2475 265.852,161.5575 274.317,164.6575 C279.502,166.5625 285.992,169.9525 290.202,179.3975 C292.207,183.8625 294.152,188.8675 294.912,196.5575 C296.147,195.7175 297.502,194.7275 298.892,193.6925 C300.107,188.8675 301.417,184.1525 303.047,178.7925 C304.677,173.4425 306.947,167.3825 309.717,161.1825 C317.977,139.6225 333.702,112.6125 349.997,106.4225 C353.432,105.1275 360.387,104.3075 364.362,107.6225 C369.212,111.6975 371.337,118.0975 370.482,126.1675 C369.587,134.5175 367.512,142.6975 364.262,150.6025 C361.477,158.4025 357.822,166.1175 353.982,172.4675 C346.887,184.1875 336.977,195.2025 324.492,205.2575 C323.497,210.8875 323.102,215.3225 323.572,218.7425 C323.967,221.3725 324.817,222.0275 325.837,222.5625 C326.182,222.7525 328.452,222.8875 332.907,220.0925 C337.352,217.2775 343.467,210.4075 348.752,203.3925 C348.882,191.4925 352.927,180.7575 356.157,174.0575 C358.557,167.2025 361.422,162.0175 362.797,159.7275 C369.397,148.7125 378.262,141.3025 387.802,138.8275 C397.372,136.3375 407.487,142.4425 410.352,152.4425 C412.037,158.3925 411.572,165.2525 409.182,171.9075 C407.412,179.0075 403.627,186.4325 399.232,192.1525 C396.177,196.1325 391.357,201.1825 384.107,205.8475 C384.722,205.9425 385.382,205.9575 386.077,205.9375 C393.547,205.6025 399.987,198.3125 409.782,178.9775 L409.892,178.7775 C413.877,170.9075 418.857,161.1125 421.822,154.3875 C427.237,142.0825 430.907,135.2425 434.147,131.5325 L435.002,130.5475 L436.267,130.2275 L453.467,125.9725 L460.262,124.2925 L458.462,131.0525 C457.592,134.3075 457.847,137.6325 459.162,140.4425 C459.647,141.4925 460.507,143.1275 461.607,145.1875 C468.697,158.5725 472.132,167.0225 472.672,172.5425 C484.672,177.2625 491.237,185.3825 491.237,195.6325 C491.237,198.9075 490.817,201.8875 490.062,204.6225 M476.472,169.7275 C475.332,163.7425 472.012,155.6675 465.397,143.1825 C465.392,143.1675 463.052,138.6425 463.052,138.6425 C462.512,137.4875 462.242,136.2025 462.242,134.8625 C462.242,133.9775 462.362,133.0675 462.607,132.1575 L464.402,125.3925 C464.502,125.0275 464.547,124.6575 464.547,124.2925 C464.547,123.1825 464.117,122.0975 463.322,121.2875 C462.257,120.2025 460.702,119.7675 459.232,120.1275 L435.237,126.0625 L433.937,126.3975 C433.092,126.6125 432.337,127.0775 431.767,127.7375 L430.912,128.7175 C427.367,132.7825 423.592,139.7225 417.902,152.6625 C417.902,152.6625 416.812,154.8825 415.357,157.8625 C415.217,155.6125 415.067,153.3525 414.477,151.2675 C410.972,139.0475 398.527,131.6075 386.722,134.6825 C381.277,136.0925 376.067,138.9475 371.297,142.9725 C372.872,137.6275 374.147,132.1825 374.742,126.6225 C374.887,125.2925 374.957,124.0025 374.957,122.7475 C374.957,114.9875 372.282,108.6775 367.117,104.3375 C361.272,99.4575 352.372,100.9425 348.482,102.4075 C330.477,109.2525 314.192,137.5175 305.717,159.6475 C305.717,159.6675 298.947,177.5475 298.947,177.5475 C298.947,177.5475 297.932,181.1875 296.897,184.8875 C296.032,182.1325 295.057,179.7375 294.112,177.6425 C289.202,166.6275 281.307,162.6575 275.797,160.6325 C265.997,157.0475 254.742,158.9175 244.912,165.7775 C241.802,167.9525 239.252,170.6375 237.197,173.6225 C236.207,174.8575 235.097,176.6175 234.067,178.3775 C234.072,178.3625 234.097,178.2975 234.097,178.2975 C234.287,177.7975 234.382,177.2775 234.382,176.7575 C234.382,175.9275 233.957,175.1775 233.492,174.4725 C234.047,173.3425 234.202,173.0125 234.762,171.8725 C235.087,171.7775 235.567,171.6375 235.567,171.6375 C237.987,170.6225 241.622,166.0475 242.782,163.9925 C243.542,162.6275 243.847,161.2325 243.847,159.9125 C243.847,158.5875 243.287,157.5975 242.832,156.5475 C242.972,155.4275 243.127,154.2575 243.127,154.2575 C242.617,152.4375 241.057,146.8975 219.387,135.7725 C219.202,135.6725 216.132,133.9175 213.977,132.6875 C214.502,132.3475 215.252,131.9325 216.187,131.4825 C217.012,131.3725 218.922,131.1125 218.922,131.1125 L225.832,130.3525 C283.792,123.8975 292.057,96.5375 296.992,80.1875 L297.207,79.4775 C298.447,75.3875 299.077,70.9175 299.077,66.1925 C299.077,65.5525 299.067,64.9075 299.042,64.2575 L298.677,55.9225 L298.682,54.7475 C298.682,54.7475 298.982,49.8475 298.987,49.7925 C298.997,50.2175 302.362,45.7525 302.362,45.7525 C305.797,41.5725 309.737,36.5425 310.762,31.5075 C312.332,30.6375 314.697,29.3325 314.697,29.3325 L330.062,23.1475 C331.552,22.5475 332.612,21.1475 332.757,19.5475 C332.767,19.4125 332.777,19.2775 332.777,19.1425 C332.777,17.6875 332.052,16.3125 330.807,15.5225 C325.807,12.3575 323.212,11.9975 318.047,11.2825 C317.652,11.2225 311.047,10.5275 311.047,10.5275 C310.952,10.5225 308.347,10.1425 306.592,9.8925 C305.207,8.2125 302.757,5.8675 298.087,3.3775 C292.422,0.3425 285.232,0.4375 271.567,3.7275 C258.762,6.8125 252.022,13.7975 245.502,20.5575 C242.267,23.9075 239.212,27.0725 235.437,29.7425 L229.577,34.2175 C226.867,36.4225 226.452,36.7675 220.377,38.2725 C203.537,42.4575 180.187,53.3575 179.197,53.8175 C179.442,53.7175 177.502,54.4775 177.502,54.4775 C170.787,57.1225 162.427,60.4075 152.287,66.3975 C148.722,68.4875 144.147,70.2275 137.897,71.8625 L135.397,72.5275 C129.422,74.1275 123.242,75.7825 117.702,75.8575 L117.702,75.8575 C117.702,75.8575 116.837,75.8975 116.817,75.8975 C116.797,75.8825 111.037,75.3925 111.037,75.3925 L67.587,69.9825 L65.317,69.7725 C59.847,69.2575 57.077,69.1925 53.082,72.0575 C51.832,72.3375 50.322,73.2925 48.512,74.9425 C46.562,75.2325 43.542,75.9775 42.217,78.5775 C35.502,79.2725 31.582,80.6925 30.987,84.4625 C30.942,84.7725 30.922,85.0675 30.922,85.3575 C30.922,89.6425 36.107,91.6575 40.372,93.2925 C41.817,94.7225 44.532,96.1825 49.462,96.9925 C51.352,98.1775 53.987,98.6825 56.632,98.8925 C59.417,101.3575 65.977,104.7475 80.897,104.5975 C81.112,104.5875 108.427,102.4875 108.427,102.4875 L114.992,101.9175 C115.012,101.9175 127.602,101.1075 127.602,101.1075 C127.622,101.1075 129.362,101.0175 129.422,101.0175 C130.257,101.3425 132.807,102.3325 136.172,103.6425 C131.707,105.9425 126.867,109.1675 123.622,114.0475 C123.102,114.8325 121.972,116.5425 121.972,118.5775 C121.972,119.4275 122.172,120.3375 122.692,121.2575 C124.807,124.9975 129.132,126.4975 160.912,125.0875 C162.942,125.4475 174.252,127.4225 187.167,128.9075 C187.087,129.4425 187.027,129.8725 187.027,129.8725 L187.027,130.0875 C187.027,135.7125 190.502,138.4525 191.652,139.3625 C191.547,139.2775 193.137,140.4375 193.137,140.4375 C193.152,140.4425 198.177,143.5025 198.177,143.5025 C198.177,143.5025 206.887,148.2525 210.487,150.2175 C205.092,153.4975 200.552,158.5025 198.752,164.6475 C198.752,164.6525 198.397,166.2175 198.232,166.9425 C195.857,170.6575 195.227,173.1375 195.227,173.1375 C194.602,175.2375 194.302,177.3225 194.302,179.3375 C194.302,181.6575 195.232,183.6825 196.042,185.7325 C196.007,185.8125 190.682,199.3575 188.472,205.5775 C187.927,203.6325 187.097,201.8025 185.687,200.3925 C183.532,198.2475 179.992,194.1725 179.082,192.6475 C177.477,189.9625 174.967,188.2025 172.017,187.6975 C168.777,187.1725 165.442,188.1975 162.587,190.5775 C157.617,194.7125 151.602,195.5975 142.482,193.5275 C133.857,191.5675 128.122,193.7375 125.402,200.0025 C125.392,200.1125 124.592,202.1475 124.592,202.1475 L123.677,204.9625 C123.677,204.9625 123.127,206.8175 122.832,207.8125 C119.817,171.6075 104.987,158.1775 92.197,153.5825 C79.202,148.9025 66.007,150.1075 55.027,156.9825 C45.982,162.6575 39.092,171.8275 36.042,182.1875 C34.552,184.9825 33.432,187.9525 32.557,190.9875 C23.487,201.1425 15.987,213.6275 10.947,227.2925 C5.247,239.6475 1.577,253.4575 0.472,266.9225 C0.157,270.7825 0.002,274.5425 0.002,278.2025 C0.002,298.7725 4.962,316.0975 14.567,328.7575 C21.682,338.1225 33.357,344.4475 45.032,345.2675 C58.267,346.2125 70.667,341.7025 81.887,331.8675 C95.147,320.2575 103.742,303.8875 108.612,292.1975 C108.617,292.1925 110.422,287.6225 110.422,287.6225 C110.317,287.8675 112.137,283.6875 112.137,283.6875 C116.562,273.0275 119.662,261.8225 121.412,251.0725 C124.407,249.4825 127.617,247.4975 130.742,244.9975 C129.572,247.6175 128.352,250.2275 127.357,252.8825 C121.247,266.2775 117.412,280.8075 117.412,290.4225 C117.412,291.0475 117.427,291.6475 117.457,292.2325 C118.157,304.2725 122.817,312.0125 131.297,315.2475 C138.372,317.9325 148.432,316.3925 155.762,311.5075 C158.732,309.5275 165.712,304.3575 172.647,296.7775 C177.862,301.5825 184.397,301.8175 186.917,301.8175 C199.742,301.8175 215.807,291.1575 227.492,275.7925 C231.757,279.6375 236.777,282.4425 242.707,282.8975 C258.592,284.0975 273.307,273.5725 280.262,263.2925 C284.692,256.7325 287.657,250.8725 289.967,244.6575 C291.222,248.7975 293.122,252.7325 296.177,255.7225 C300.377,259.8525 306.052,262.0125 312.167,261.8225 C285.332,271.4125 193.242,304.2825 193.242,304.2825 L51.487,354.9675 L46.382,356.8075 C45.242,357.2175 44.267,358.2175 43.807,359.3375 L40.347,367.7125 C40.127,368.2425 40.022,368.7975 40.022,369.3475 C40.022,370.2325 40.297,371.1075 40.827,371.8475 L44.007,376.2825 L47.322,380.9525 C48.087,382.0225 49.302,382.6775 50.617,382.7375 L52.607,382.8275 C82.767,384.4525 96.727,387.9475 110.007,397.2125 L112.912,399.2325 C114.642,400.4375 116.992,400.1975 118.457,398.6775 L120.902,396.1275 C136.132,380.2175 160.012,369.0175 183.102,358.1875 L191.447,354.2525 C200.427,349.9825 320.572,300.1775 392.492,271.2525 C427.482,257.2125 455.127,246.1175 460.507,243.6275 C467.482,240.4075 490.537,228.1175 494.297,205.3175 C495.077,202.5675 495.522,199.1575 495.522,195.6325 C495.522,184.3075 488.642,175.2775 476.472,169.7275" id="Fill-1" fill="#FEFEFE" mask="url(#mask-2)"></path>
                </g>
                <path d="M441.2965,197.742 C444.0165,197.742 445.4515,197.077 446.7065,195.892 C446.7165,195.637 446.7415,195.377 446.7265,195.117 C443.2115,195.032 440.2515,195.477 438.0215,196.427 C438.7815,197.272 439.9265,197.742 441.2965,197.742" id="Fill-4" fill="#FEFEFE"></path>
                <path d="M431.9505,177.4145 C433.9005,176.1095 436.3455,174.8645 439.3605,173.9395 C438.4455,171.9195 437.5705,169.8295 436.8355,167.7745 C435.2455,170.5895 433.6005,173.9295 431.9505,177.4145" id="Fill-6" fill="#FEFEFE"></path>
                <path d="M390.361,170.8595 C389.881,170.7645 388.361,171.0495 386.646,172.1695 C385.046,173.1995 381.751,177.0145 378.856,182.5245 C378.306,184.3045 377.846,186.1445 377.521,188.0595 C383.616,184.9495 387.781,181.5695 390.521,177.4545 C390.621,177.0345 390.706,176.6245 390.786,176.1945 C391.276,173.4045 391.146,171.5945 390.361,170.8595" id="Fill-8" fill="#FEFEFE"></path>
                <path d="M349.5045,143.1595 C350.3195,140.5995 350.4195,138.4345 350.2745,137.1495 C349.8595,137.4395 349.2995,137.8895 348.5995,138.5595 C346.2745,140.7945 342.1645,148.6795 337.9295,158.4345 C335.9345,163.4745 334.0145,168.7095 332.3695,173.7195 C338.4495,165.9645 343.9195,156.5595 347.9845,147.6295 C348.5445,146.0995 349.0645,144.6045 349.5045,143.1595" id="Fill-10" fill="#FEFEFE"></path>
                <path d="M264.7485,194.0725 C262.7285,192.6625 260.2085,192.5375 258.1835,193.7625 C257.5685,194.1425 256.9885,194.6075 256.4535,195.1575 C256.4535,195.2925 256.4385,195.4175 256.4385,195.5525 C256.3135,198.9725 257.5535,202.1825 259.8985,204.5875 C262.1985,206.9475 264.8235,209.0275 268.4785,209.1925 C268.9285,201.5325 267.3185,195.8925 264.7485,194.0725" id="Fill-12" fill="#FEFEFE"></path>
                <path d="M249.724,235.7595 C252.594,236.8395 255.429,237.5945 258.344,238.0645 C257.924,239.4795 257.714,240.4745 257.464,241.0195 C254.854,246.1145 252.454,248.3895 251.714,248.9195 C251.704,248.8895 251.379,249.0395 251.654,248.9645 C251.664,248.9595 251.674,248.9495 251.684,248.9395 C251.679,248.9445 251.659,248.9645 251.654,248.9645 L251.674,248.9645 C251.674,248.9645 251.614,248.9995 251.604,249.0045 C251.639,248.9845 251.634,248.9845 251.649,248.9695 C251.614,248.9795 251.434,249.0245 251.434,249.0245 C250.679,248.4495 249.489,243.9945 249.489,238.3295 C249.489,237.5195 249.669,236.6045 249.724,235.7595 L249.724,235.7595 Z M245.924,230.4595 C244.259,239.1845 245.399,252.0945 251.014,253.2695 C251.599,253.3995 252.919,253.2495 253.964,252.5845 C256.474,250.9345 259.124,247.2645 261.519,242.4195 C262.384,239.9245 263.169,237.3045 263.844,234.5995 C257.989,234.4545 251.674,232.7095 246.069,229.7245 L245.924,230.4595 Z" id="Fill-14" fill="#FEFEFE"></path>
                <path d="M74.497,285.9305 C70.087,295.4705 65.057,302.5955 60.462,305.6755 C57.072,307.9505 55.747,308.0955 52.637,307.4455 C43.982,305.6355 40.422,289.3155 40.422,274.1205 C40.422,270.3605 40.642,266.6655 41.052,263.2805 C41.582,258.9105 43.022,250.7605 46.047,246.8455 C55.502,255.9755 67.002,260.7955 81.067,261.1755 C79.552,269.3955 77.322,278.2505 74.497,285.9305 M45.092,239.9955 C43.227,242.7305 41.542,245.6405 40.057,248.6705 C38.482,253.2855 37.367,258.0355 36.797,262.7605 C34.697,280.0005 36.907,308.5405 51.762,311.6405 C56.177,312.5655 58.667,312.0405 62.847,309.2405 C68.142,305.6905 73.632,298.0205 78.522,287.4105 C81.982,278.0055 84.902,266.5555 86.287,256.9805 C68.822,257.8205 55.517,252.3355 45.092,239.9955" id="Fill-16" fill="#FEFEFE"></path>
                <path d="M84.758,225.9105 C82.278,224.9205 79.908,223.5605 77.603,221.3305 C72.278,216.1705 68.973,208.7905 68.973,202.0605 C68.973,202.0605 69.153,200.1255 69.263,198.9205 C69.643,198.4155 71.203,197.0055 71.203,197.0055 C73.278,195.6205 75.508,195.4555 78.018,196.5005 C80.818,197.6705 84.783,206.3805 84.783,224.8355 C84.783,225.1755 84.763,225.5655 84.758,225.9105 M79.668,192.5455 C75.833,190.9455 72.093,191.2605 68.818,193.4405 C67.433,194.3705 66.203,195.5905 65.153,197.0355 C64.848,198.6455 64.683,200.3205 64.683,202.0605 C64.683,209.8955 68.488,218.4705 74.623,224.4105 C78.943,228.5955 83.428,230.8855 88.913,231.5655 C89.863,210.7505 86.398,195.3505 79.668,192.5455" id="Fill-18" fill="#FEFEFE"></path>
                <path d="M242.6195,88.113 C242.6195,88.118 242.6145,88.118 242.6045,88.123 C242.6345,88.163 242.6795,88.203 242.7045,88.253 C242.6995,88.238 242.6995,88.233 242.6895,88.223 C242.6645,88.188 242.6395,88.148 242.6195,88.113" id="Fill-20" fill="#F37937"></path>
                <path d="M225.9105,81.3405 C226.6955,82.1555 228.0055,82.7205 230.0505,82.0805 C228.0055,82.7205 226.6955,82.1505 225.9105,81.3405" id="Fill-22" fill="#F37937"></path>
                <path d="M243.464,125.115 C247.719,124.155 251.944,123.195 255.919,121.775 C273.044,115.68 281.689,104.555 286.774,95.475 C287.479,94.215 287.999,93.015 288.469,91.83 C293.929,78.045 294.534,70.9 293.004,65.235 C292.794,63.9 292.299,62.785 291.774,62.275 C291.774,62.275 294.224,68.345 285.359,75.48 C283.614,75.01 281.524,74.16 278.939,72.7 C278.939,72.7 283.049,72.48 285.974,73.465 C285.974,73.465 280.669,67.785 272.004,63.315 C272.004,63.315 275.484,62.745 277.704,62.41 C275.204,61.195 269.729,60.54 262.739,55.67 C258.454,50.93 259.479,48.335 259.479,48.335 C256.814,53.205 258.644,56.45 258.644,56.45 C258.644,56.45 261.819,58.895 262.974,60.02 C267.134,64.055 267.369,65.335 267.369,65.335 C263.794,62.12 250.019,59.245 250.019,59.245 L255.459,62.665 C249.444,60.45 241.644,59.765 241.644,59.765 L244.639,61.865 C235.294,61.41 230.059,62.675 227.234,63.92 C225.049,64.81 224.384,65.53 224.389,65.71 C224.244,65.85 224.184,65.95 224.184,65.95 C224.184,65.95 224.749,65.895 225.619,65.825 C228.464,66.09 234.109,66.625 234.764,66.81 L233.359,65.16 C233.359,65.16 237.904,63.92 243.654,65.95 L242.189,64.39 L242.139,64.32 C242.264,64.325 247.624,64.725 252.339,67.18 L250.794,65.36 L250.704,65.18 C251.384,65.345 262.484,68.155 266.144,72.275 C262.549,70.45 255.069,67.91 245.154,71.345 L247.254,68.745 C247.254,68.745 241.389,69.47 233.044,73.025 L234.864,71.05 C234.864,71.05 226.599,73.91 225.049,78.075 C224.939,78.39 224.884,78.67 224.884,78.935 C224.889,78.945 224.919,78.975 224.924,78.985 C230.359,83.525 240.534,74.475 240.534,74.475 C240.534,74.475 240.269,74.785 239.749,75.29 C239.664,75.4 239.569,75.51 239.569,75.51 C239.569,75.51 237.019,78.5 231.749,81.37 C231.234,81.645 230.769,81.84 230.329,81.99 C234.419,86.945 246.839,76.065 246.839,76.065 C246.839,76.065 246.614,76.295 246.219,76.665 C246.219,76.695 246.144,76.78 246.144,76.78 C246.144,76.78 242.764,81.29 237.559,84.295 C237.004,84.625 236.489,84.85 235.994,85.025 C240.109,89.2 249.749,82.03 253.659,78.79 C254.084,78.42 254.359,78.2 254.519,78.075 C255.049,77.61 255.359,77.33 255.359,77.33 C255.359,77.33 255.139,77.565 254.739,77.95 C254.719,77.99 254.669,78.045 254.669,78.045 C254.669,78.045 249.064,84.515 243.864,87.53 C243.499,87.75 243.159,87.9 242.814,88.035 C242.929,88.135 243.034,88.24 243.154,88.335 C243.169,88.36 243.199,88.375 243.224,88.405 C249.084,92.91 262.344,78.71 262.344,78.71 C262.344,78.71 262.094,79.095 261.609,79.725 C261.144,80.71 258.919,85 253.374,89.17 C252.814,89.595 252.279,89.925 251.769,90.22 C259.704,93.985 271.404,79.055 271.404,79.055 C271.404,79.055 271.339,79.155 271.204,79.335 C270.769,80.18 266.869,87.39 262.099,90.53 C261.194,91.135 260.339,91.525 259.504,91.825 C255.179,102.01 246.909,103.795 246.909,103.795 C244.744,110.195 218.149,116.445 199.264,120.445 C188.999,122.62 181.044,124.195 180.459,124.635 C180.034,124.97 180.224,125.55 181.124,125.74 C181.804,125.895 188.199,127.325 191.619,127.76 C192.414,127.92 193.474,127.995 194.274,128.135 C194.274,128.135 192.499,130.955 192.524,133.84 C192.549,137.265 195.544,139.33 196.534,139.785 L201.409,139.105 C201.119,138.2 200.894,137.125 201.819,135.56 C204.689,130.71 215.434,129.26 218.324,128.945 C218.314,128.94 233.414,127.38 243.464,125.115" id="Fill-24" fill="#F37937"></path>
                <path d="M156.8845,97.4975 C158.2295,93.2375 165.9045,89.2875 165.9045,89.2875 C177.1995,75.5125 203.6245,70.1875 203.6245,70.1875 C201.0995,67.3675 191.8845,66.7175 191.8845,66.7175 C192.0345,66.0375 191.7395,62.0625 191.7395,62.0625 C171.4045,65.0375 162.2495,71.6225 155.4945,75.5325 C148.4495,79.5975 142.2345,80.8175 132.6445,83.6275 C130.1995,84.3375 122.3095,85.2325 118.5595,85.6275 L117.6545,86.1475 L125.2195,88.2875 L116.1245,88.9375 C120.5395,89.0875 129.2945,90.0925 129.2945,90.0925 C128.5145,90.2775 119.2295,91.0825 119.2295,91.0825 C121.2345,90.8625 137.7145,94.1125 137.7145,94.1125 C136.9495,94.4725 126.9545,94.9575 126.9545,94.9575 C134.1695,95.0475 145.2145,97.4975 145.2145,97.4975 C144.5895,97.6725 135.3045,99.0725 135.3045,99.0725 C136.3945,98.7125 149.4045,104.7275 149.4045,104.7275 C150.9245,101.9975 156.8845,97.4975 156.8845,97.4975" id="Fill-26" fill="#F37937"></path>
                <path d="M202.783,101.941 L203.128,101.866 C202.998,101.896 202.873,101.921 202.743,101.946 C202.753,101.946 202.763,101.941 202.783,101.941" id="Fill-28" fill="#221F20"></path>
                <path d="M192.461,85.3055 C194.381,82.9605 197.931,81.4555 200.961,80.5555 C197.696,81.3805 193.136,82.9705 190.861,85.7405 C190.861,85.7405 197.806,88.9255 212.541,84.6955 C198.896,88.2555 192.461,85.3055 192.461,85.3055" id="Fill-30" fill="#A7B1B7"></path>
                <path d="M195.359,93.8015 C195.359,93.8015 197.364,91.9865 199.924,90.6065 C184.304,92.2365 176.929,90.5665 176.929,90.5665 C178.034,88.8565 180.149,87.5515 182.004,86.6665 C179.944,87.4865 176.894,89.0065 175.489,91.1965 C175.489,91.1965 182.849,92.8665 198.474,91.2315 C195.909,92.6165 193.904,94.4365 193.904,94.4365 C209.884,96.4715 221.309,91.8415 224.254,90.4715 C219.894,92.2465 209.379,95.5815 195.359,93.8015" id="Fill-32" fill="#A7B1B7"></path>
                <path d="M211.3915,98.865 L211.3465,98.865 C212.0815,98.8 212.8065,98.72 213.5065,98.615 C212.4015,98.745 211.3115,98.84 211.2615,98.875 C211.2615,98.875 226.7015,99.02 229.6365,92.725 C226.3815,97.335 215.2415,98.57 211.3915,98.865" id="Fill-34" fill="#A7B1B7"></path>
                <path d="M222.39,101.631 C222.325,101.641 222.26,101.646 222.195,101.651 C222.14,101.651 222.09,101.656 222.045,101.656 C222.01,101.661 221.98,101.656 221.945,101.661 C221.59,101.671 221.35,101.671 221.34,101.671 C221.34,101.671 231.175,102.876 235.39,95.041 C235.39,95.041 235.43,94.956 235.46,94.886 C231.865,100.556 224.95,101.481 222.39,101.631" id="Fill-36" fill="#A7B1B7"></path>
                <path d="M229.8605,103.716 C229.8605,103.716 236.6905,105.311 242.1205,96.841 C242.1205,96.841 242.1955,96.711 242.2605,96.586 C236.8855,104.141 229.8605,103.716 229.8605,103.716" id="Fill-38" fill="#A7B1B7"></path>
                <path d="M174.016,113.4085 C158.276,115.8985 151.676,113.8485 151.676,113.8485 C151.676,113.8485 152.481,112.9635 153.746,112.0435 C151.601,113.1685 150.046,114.8535 150.046,114.8535 C150.046,114.8535 156.511,116.5985 172.251,114.1185 C199.311,109.8485 209.126,105.6585 211.661,104.3785 C207.491,106.1835 196.996,109.7885 174.016,113.4085" id="Fill-40" fill="#A7B1B7"></path>
                <path d="M166.3255,99.402 C167.1105,98.202 168.2305,97.212 169.2105,96.487 C168.2255,97.022 166.0755,98.322 164.8205,100.132 C164.8205,100.132 170.9755,102.857 189.0705,99.637 C171.7305,102.577 166.3255,99.402 166.3255,99.402" id="Fill-42" fill="#A7B1B7"></path>
                <path d="M203.1275,101.868 L202.7825,101.943 C202.7625,101.943 202.7525,101.948 202.7425,101.948 C167.6225,109.363 159.1575,106.808 157.8875,106.643 C158.1575,105.653 159.0475,104.643 159.9525,103.813 C158.7675,104.703 157.1475,106.163 156.7525,107.583 C158.0725,107.753 165.4575,110.213 204.0325,101.713 C204.0175,101.718 203.9825,101.723 203.9425,101.728 C204.7475,101.548 205.1525,101.433 205.1875,101.423 L203.1275,101.868 Z" id="Fill-44" fill="#A7B1B7"></path>
                <path d="M246.9115,103.794 C246.9115,103.794 255.1815,102.009 259.5065,91.829 C260.3415,91.524 261.1965,91.134 262.0965,90.529 C266.8715,87.394 270.7665,80.179 271.2065,79.334 C270.2165,80.739 265.7815,86.794 261.3115,89.749 C260.4065,90.339 259.5515,90.729 258.7065,91.019 C254.3965,101.219 246.1315,102.994 246.1315,102.994 C243.9615,109.349 218.2965,116.394 199.4465,120.404 C199.3865,120.414 199.3265,120.439 199.2665,120.449 C218.1465,116.444 244.7465,110.194 246.9115,103.794" id="Fill-46" fill="#A7B1B7"></path>
                <path d="M251.6235,90.525 C251.6585,90.58 251.6935,90.63 251.7385,90.68 C251.7935,90.765 251.8685,90.84 251.9435,90.93 C252.0285,91.02 252.1335,91.11 252.2535,91.21 C252.2585,91.225 252.2735,91.235 252.2835,91.245 C253.0235,91.825 254.2035,92.315 255.6785,92.435 C255.7835,92.17 255.8835,91.91 255.9785,91.645 C254.0685,91.76 252.5535,91.21 251.6235,90.525" id="Fill-48" fill="#A7B1B7"></path>
                <path d="M61.0425,96.4185 C64.7325,96.4485 98.6925,98.4935 122.1825,97.9635 C122.1825,97.9635 65.0775,95.7485 49.4475,94.4635 C49.4475,94.4635 56.5775,96.3785 61.0425,96.4185" id="Fill-50" fill="#F37937"></path>
                <path d="M38.6325,89.2015 C38.6325,89.2015 42.3475,91.3065 47.9675,91.6165 C53.5825,91.9365 95.1525,94.5615 116.4875,95.2015 C116.4875,95.2015 54.3125,90.8215 38.6325,89.2015" id="Fill-52" fill="#F37937"></path>
                <path d="M109.055,88.213 C109.055,88.213 62.435,83.548 53.585,83.998 C51.01,84.128 51.655,85.058 51.655,85.058 C55.445,84.653 109.055,88.213 109.055,88.213" id="Fill-54" fill="#F37937"></path>
                <path d="M72.1875,79.9905 C64.1325,79.1705 63.6775,79.9405 63.6775,79.9405 C71.3675,80.2655 113.4075,85.9705 113.4075,85.9705 C113.4075,85.9705 80.2275,80.8105 72.1875,79.9905" id="Fill-56" fill="#F37937"></path>
                <path d="M73.4765,100.9085 C81.5615,101.1835 113.2715,100.1685 113.2715,100.1685 C113.2715,100.1685 72.0415,99.7635 64.3765,99.0585 C64.3765,99.0585 65.4365,100.6585 73.4765,100.9085" id="Fill-58" fill="#F37937"></path>
                <path d="M110.3175,86.8505 C110.3175,86.8505 80.9675,83.0555 70.0975,81.9555 C54.3375,80.3405 56.2125,82.0355 56.2125,82.0355 C62.7875,81.7505 110.3175,86.8505 110.3175,86.8505" id="Fill-60" fill="#F37937"></path>
                <path d="M250.7835,89.6485 C251.1035,89.8735 251.4335,90.0635 251.7685,90.2235 C252.2785,89.9285 252.8135,89.5985 253.3735,89.1735 C258.9185,84.9985 261.1435,80.7085 261.6085,79.7285 C260.3285,81.3685 257.4085,84.8035 252.8385,88.2385 C252.1685,88.7385 251.5485,89.1285 250.9535,89.4585 C246.2585,92.0485 243.7285,89.7135 242.6885,88.2235 C242.6985,88.2335 242.6985,88.2385 242.7035,88.2535 C243.0785,89.0435 245.5385,93.6485 251.4635,90.4035 C251.1785,90.1785 250.9585,89.9285 250.8235,89.7035 C250.8035,89.6885 250.7935,89.6685 250.7835,89.6485" id="Fill-62" fill="#A7B1B7"></path>
                <path d="M231.135,81.018 C230.685,81.168 230.26,81.263 229.865,81.328 C229.88,81.348 229.9,81.378 229.91,81.403 C230.04,81.618 230.175,81.808 230.325,81.988 C230.765,81.838 231.235,81.643 231.75,81.368 C237.02,78.498 239.565,75.508 239.565,75.508 C239.565,75.508 239.665,75.403 239.75,75.293 C238.625,76.378 236.295,78.388 232.705,80.343 C232.13,80.643 231.63,80.853 231.135,81.018" id="Fill-64" fill="#A7B1B7"></path>
                <path d="M224.88,79.136 C224.875,79.131 224.875,79.126 224.875,79.121 C224.835,79.426 225.1,80.501 225.91,81.341 C226.695,82.151 228.005,82.721 230.05,82.081 C229.9,81.766 229.82,81.511 229.8,81.341 C226.595,81.841 224.95,79.896 224.88,79.136" id="Fill-66" fill="#A7B1B7"></path>
                <path d="M235.493,84.4215 C235.653,84.6515 235.818,84.8465 235.993,85.0265 C236.488,84.8515 237.003,84.6215 237.563,84.2965 C242.763,81.2915 246.143,76.7815 246.143,76.7815 C246.143,76.7815 246.223,76.6965 246.223,76.6665 C244.768,78.0365 241.003,81.4315 237.243,83.4015 C236.573,83.7515 235.983,84.0465 235.413,84.2215 C232.413,85.1515 230.758,83.4365 230.113,82.2065 C230.113,82.2265 230.113,82.2565 230.118,82.2865 C230.213,82.8765 230.973,84.4665 232.603,85.1165 C233.413,85.4215 234.428,85.5065 235.688,85.1215 C235.453,84.7315 235.343,84.4115 235.363,84.2615 C235.403,84.3315 235.453,84.3565 235.493,84.4215" id="Fill-68" fill="#A7B1B7"></path>
                <path d="M242.2265,87.2145 C242.1965,87.2295 242.1715,87.2345 242.1415,87.2495 C242.3515,87.5495 242.5765,87.8095 242.8165,88.0345 C243.1565,87.8995 243.5015,87.7495 243.8665,87.5345 C249.0615,84.5145 254.6665,78.0495 254.6665,78.0495 C254.6665,78.0495 254.7215,77.9895 254.7365,77.9495 C253.1915,79.4695 249.0215,83.4045 244.9165,85.8545 C243.5565,86.6695 242.6365,87.0645 242.2265,87.2145" id="Fill-70" fill="#A7B1B7"></path>
                <path d="M242.1655,87.3195 C242.1505,87.2945 242.1405,87.2695 242.1305,87.2495 C238.7005,88.5395 236.5605,86.5445 235.7405,85.2295 C235.7655,85.8195 237.1705,88.2845 239.9005,88.5545 C240.2405,88.5795 240.6055,88.5795 240.9805,88.5445 C241.4805,88.4745 242.0305,88.3495 242.6005,88.1245 C242.6105,88.1195 242.6155,88.1195 242.6205,88.1145 C242.3805,87.7645 242.2355,87.4695 242.1655,87.3195" id="Fill-72" fill="#A7B1B7"></path>
                <path d="M320.9935,22.08 C309.3685,23.485 299.4985,27.185 299.4985,27.185 C300.1685,25.9 301.5185,24.28 301.5185,24.28 C313.1685,21.18 320.9935,22.08 320.9935,22.08 M304.7035,21.475 C305.0085,21.475 305.2835,21.475 305.5435,21.48 C305.7535,21.48 305.9635,21.48 306.1385,21.495 C308.2285,21.535 309.0085,21.63 309.0085,21.63 L309.0035,21.635 L309.0085,21.635 L302.7085,23.615 C302.7085,23.615 301.5285,21.47 304.7035,21.475 M325.6535,22.565 C318.4935,20.27 309.2035,20.37 306.1235,20.78 C303.0435,21.18 300.4685,18.985 300.4685,18.985 L299.8285,17.445 L301.7435,22.425 C301.7435,22.425 299.6035,24.695 297.1885,28.965 C297.1885,28.965 310.8135,23.845 325.6535,22.565" id="Fill-74" fill="#A7B1B7"></path>
                <path d="M297.771,30.6885 L302.851,30.2035 L302.131,33.8835 C302.131,33.8835 309.416,28.3135 324.546,23.2635 C324.546,23.2635 310.276,26.3085 297.771,30.6885" id="Fill-76" fill="#A7B1B7"></path>
                <path d="M309.0085,21.6335 L309.0035,21.6335 L309.0085,21.6285 C309.0085,21.6285 308.2285,21.5335 306.1385,21.4935 C305.9635,21.4835 305.7535,21.4835 305.5435,21.4835 C305.2835,21.4785 305.0085,21.4785 304.7035,21.4785 C301.5285,21.4735 302.7085,23.6135 302.7085,23.6135 L309.0085,21.6335 Z" id="Fill-78" fill="#221F20"></path>
                <path d="M285.4075,24.7655 L286.7725,24.7605 C286.7725,24.7605 286.4175,22.0605 283.3125,22.3155 C283.3125,22.3155 285.2225,22.4605 285.4075,24.7655" id="Fill-80" fill="#FEFEFE"></path>
                <path d="M283.4595,30.5225 C286.5695,30.5075 288.3195,28.1025 288.8545,27.1875 C289.2645,26.5025 288.8945,26.1825 288.5245,26.7525 C287.5145,28.2925 285.3045,28.9825 283.6495,29.0925 C281.5295,29.2325 279.9845,27.3925 279.9145,25.3125 C279.7595,21.1675 283.5395,19.9175 286.0895,21.1075 C286.0895,21.1075 287.6995,21.6275 289.2945,24.2975 C289.2945,24.2975 290.8495,24.0625 291.3945,24.1075 C291.9445,24.1425 292.4695,23.6375 291.4795,23.0025 C291.4795,23.0025 288.2595,19.8375 285.2395,19.6075 C279.1545,18.6525 277.7445,25.3075 277.7445,25.3075 C278.8395,29.0825 281.7245,30.5425 283.4595,30.5225" id="Fill-82" fill="#A7B1B7"></path>
                <path d="M320.9935,22.08 C320.9935,22.08 313.1685,21.18 301.5185,24.28 C301.5185,24.28 300.1685,25.9 299.4985,27.185 C299.4985,27.185 309.3685,23.485 320.9935,22.08" id="Fill-84" fill="#FEFEFE"></path>
                <path d="M306.123,20.779 C309.203,20.369 318.493,20.269 325.653,22.564 C325.653,22.564 324.743,22.019 323.768,21.774 C323.178,21.624 316.178,19.939 305.883,19.844 C305.883,19.844 304.028,19.484 302.313,18.384 C300.608,17.289 299.828,17.444 299.828,17.444 L300.468,18.989 C300.468,18.989 303.043,21.179 306.123,20.779" id="Fill-86" fill="#FEFEFE"></path>
                <path d="M206.301,79.358 C206.301,79.358 203.871,79.683 200.961,80.553 C197.931,81.458 194.381,82.958 192.461,85.308 C192.461,85.308 198.896,88.258 212.541,84.693 C213.816,84.358 215.151,83.978 216.556,83.513 C216.556,83.513 200.936,87.058 195.746,84.663 C195.746,84.663 197.921,81.753 206.301,79.358" id="Fill-88" fill="#FEFEFE"></path>
                <path d="M198.845,92.8345 L203.205,89.2745 C203.205,89.2745 184.895,91.8845 181.24,88.9695 C181.24,88.9695 182.25,87.1695 185.525,85.3045 C185.525,85.3045 183.9,85.7695 182.005,86.6695 C180.15,87.5495 178.03,88.8545 176.93,90.5645 C176.93,90.5645 184.305,92.2345 199.925,90.6095 C197.365,91.9895 195.36,93.7995 195.36,93.7995 C209.38,95.5845 219.895,92.2495 224.255,90.4745 C225.7,89.8895 226.465,89.4745 226.465,89.4745 C207.725,94.8195 198.845,92.8345 198.845,92.8345" id="Fill-90" fill="#FEFEFE"></path>
                <path d="M221.3425,101.6725 C221.3525,101.6725 221.5925,101.6675 221.9425,101.6575 C221.7475,101.6675 221.5475,101.6725 221.3425,101.6725" id="Fill-92" fill="#FEFEFE"></path>
                <path d="M222.871,101.5845 C222.836,101.5945 222.801,101.5945 222.771,101.5945 C222.646,101.6095 222.521,101.6195 222.391,101.6295 C224.951,101.4795 231.861,100.5545 235.461,94.8845 C235.616,94.6395 235.771,94.3795 235.921,94.0995 C235.921,94.0995 230.101,100.7645 222.871,101.5845" id="Fill-94" fill="#FEFEFE"></path>
                <path d="M229.8605,103.716 C229.8605,103.716 236.8855,104.141 242.2605,96.586 C242.4605,96.311 242.6655,96.016 242.8605,95.706 C242.8605,95.706 236.3605,102.421 230.6005,103.601 C230.3505,103.646 230.1055,103.691 229.8605,103.716" id="Fill-96" fill="#FEFEFE"></path>
                <path d="M151.6745,113.85 C151.6745,113.85 158.2795,115.9 174.0145,113.41 C196.9945,109.79 207.4895,106.185 211.6645,104.38 C213.3895,103.64 214.0345,103.2 214.0345,103.2 C174.4795,115.63 154.5245,112.785 154.5245,112.785 C154.4645,111.835 157.1895,110.31 157.1895,110.31 C155.8845,110.66 154.6945,111.365 153.7495,112.045 C152.4845,112.96 151.6745,113.85 151.6745,113.85" id="Fill-98" fill="#FEFEFE"></path>
                <path d="M171.2745,95.1805 C171.2745,95.1805 170.3345,95.6555 169.2095,96.4855 C168.2295,97.2105 167.1095,98.2005 166.3245,99.4005 C166.3245,99.4005 171.7295,102.5805 189.0695,99.6355 C192.3595,99.0755 196.0695,98.3005 200.2645,97.2355 C200.2645,97.2355 175.0095,101.3655 169.8295,98.2855 C169.8295,98.2855 168.9095,97.2655 171.2745,95.1805" id="Fill-100" fill="#FEFEFE"></path>
                <path d="M202.7415,101.946 C202.8715,101.921 202.9965,101.896 203.1265,101.866 L205.1865,101.421 L205.1915,101.421 C205.7465,101.306 206.3115,101.181 206.8815,101.061 C206.8815,101.061 154.2865,110.226 162.3715,101.976 C162.3715,101.976 161.1415,102.741 159.9515,103.811 C159.0465,104.646 158.1615,105.656 157.8865,106.641 C159.1615,106.811 167.6265,109.366 202.7415,101.946" id="Fill-102" fill="#FEFEFE"></path>
                <path d="M246.13,102.9955 C246.13,102.9955 254.395,101.2205 258.705,91.0205 C259.555,90.7305 260.405,90.3405 261.31,89.7505 C265.78,86.7955 270.215,80.7355 271.205,79.3355 C271.34,79.1505 271.405,79.0555 271.405,79.0555 C271.405,79.0555 259.7,93.9855 251.77,90.2205 C251.435,90.0655 251.105,89.8755 250.785,89.6505 C250.795,89.6705 250.805,89.6855 250.825,89.7055 C250.96,89.9255 251.175,90.1805 251.46,90.4055 C251.515,90.4505 251.575,90.4905 251.625,90.5255 C252.55,91.2105 254.07,91.7605 255.975,91.6455 C255.885,91.9105 255.785,92.1705 255.68,92.4355 C252.74,99.3605 244.03,101.2305 244.03,101.2305 C241.74,107.9905 216.355,116.2505 199.06,120.4855 C199.185,120.4605 199.315,120.4305 199.445,120.4005 C218.295,116.3955 243.96,109.3455 246.13,102.9955" id="Fill-104" fill="#FEFEFE"></path>
                <path d="M235.415,84.2215 C235.98,84.0465 236.575,83.7515 237.245,83.4015 C241.005,81.4315 244.77,78.0365 246.22,76.6665 C246.615,76.2965 246.84,76.0665 246.84,76.0665 C246.84,76.0665 234.42,86.9465 230.325,81.9915 C230.175,81.8115 230.04,81.6165 229.91,81.4015 C229.9,81.3815 229.88,81.3465 229.865,81.3315 C230.26,81.2615 230.685,81.1665 231.135,81.0165 C231.63,80.8565 232.13,80.6415 232.705,80.3415 C236.295,78.3865 238.625,76.3765 239.75,75.2915 C240.27,74.7865 240.535,74.4765 240.535,74.4765 C240.535,74.4765 230.355,83.5215 224.925,78.9865 C224.915,78.9765 224.89,78.9465 224.885,78.9365 L224.88,78.9515 L224.875,79.0365 C224.875,79.0615 224.88,79.1015 224.88,79.1365 C224.95,79.8965 226.595,81.8365 229.8,81.3415 C229.82,81.5115 229.9,81.7665 230.05,82.0815 C230.075,82.1215 230.09,82.1665 230.115,82.2065 C230.755,83.4365 232.41,85.1565 235.415,84.2215" id="Fill-106" fill="#FEFEFE"></path>
                <path d="M242.129,87.2485 C242.139,87.2685 242.154,87.2935 242.164,87.3185 C242.234,87.4685 242.384,87.7635 242.619,88.1135 C242.644,88.1485 242.664,88.1835 242.689,88.2235 C243.729,89.7135 246.259,92.0485 250.954,89.4585 C251.549,89.1285 252.169,88.7385 252.839,88.2385 C257.409,84.8035 260.329,81.3685 261.609,79.7285 C262.094,79.0985 262.344,78.7085 262.344,78.7085 C262.344,78.7085 249.084,92.9135 243.224,88.4035 C243.199,88.3735 243.169,88.3585 243.149,88.3335 C243.034,88.2385 242.929,88.1335 242.814,88.0335 C242.579,87.8085 242.354,87.5485 242.139,87.2485 C242.169,87.2385 242.199,87.2335 242.229,87.2135 C242.639,87.0635 243.554,86.6685 244.919,85.8535 C249.024,83.4035 253.194,79.4685 254.739,77.9535 C255.139,77.5635 255.359,77.3335 255.359,77.3335 C255.359,77.3335 255.049,77.6135 254.519,78.0735 C254.359,78.1985 254.084,78.4185 253.659,78.7885 C249.749,82.0285 240.109,89.2035 235.994,85.0235 C235.819,84.8485 235.649,84.6485 235.494,84.4235 C235.454,84.3535 235.404,84.3335 235.359,84.2585 C235.344,84.4135 235.454,84.7335 235.684,85.1185 C235.704,85.1535 235.714,85.1935 235.744,85.2285 C236.559,86.5435 238.699,88.5385 242.129,87.2485" id="Fill-108" fill="#FEFEFE"></path>
                <path d="M210.847,131.775 C202.392,133.525 203.327,138.66 203.327,138.66 L206.912,138.08 C205.802,134.345 210.847,131.775 210.847,131.775" id="Fill-110" fill="#F37937"></path>
                <path d="M211.345,98.865 L211.39,98.865 C215.24,98.57 226.38,97.335 229.635,92.725 C229.895,92.355 230.105,91.975 230.255,91.565 C230.255,91.565 223.755,97.125 213.505,98.615 C212.81,98.72 212.085,98.8 211.345,98.865" id="Fill-112" fill="#FEFEFE"></path>
                <path d="M231.9505,162.334 C231.9505,162.334 233.1355,164.089 232.5555,166.054 C232.5955,166.764 232.5905,167.494 232.5405,168.229 C234.6605,166.104 236.2755,163.809 235.2405,162.354 C235.2405,162.354 241.1455,157.174 206.4905,140.399 C206.4905,140.399 205.4205,140.634 203.9705,140.769 L210.2655,144.409 C214.1205,146.464 235.2455,156.929 231.9505,162.334" id="Fill-114" fill="#F37937"></path>
                <path d="M431.9505,177.4145 C433.6005,173.9295 435.2455,170.5895 436.8355,167.7745 C437.5705,169.8295 438.4455,171.9195 439.3605,173.9395 C436.3455,174.8645 433.9005,176.1095 431.9505,177.4145 L431.9505,177.4145 Z M460.4755,231.3045 C455.3605,233.6595 427.7855,244.7545 392.8805,258.7745 C322.0455,287.2445 201.0705,337.3345 191.3655,341.9595 C165.9105,354.0495 136.6255,366.5395 118.3405,385.6245 C104.2805,375.8095 89.6805,371.4995 56.5255,369.7445 L54.3605,366.6995 C70.2205,360.9445 134.9255,337.8495 208.6255,311.5495 C310.4355,275.2095 425.8055,234.0345 442.5955,227.7995 C447.2605,226.0895 455.8905,222.8695 462.5605,218.7595 C469.2055,214.6545 478.0805,208.1145 478.4055,198.6845 C478.5105,195.6245 476.5755,189.4945 467.7605,185.0745 C465.4255,198.6545 455.0205,206.9045 443.5155,208.3745 C437.5755,209.1245 432.4255,206.3995 430.0005,203.9645 C427.7555,201.7195 425.8705,197.4895 426.1505,193.2245 C426.5455,186.8895 433.8655,175.3145 453.5355,176.5845 C450.5555,172.2745 442.2755,156.7145 442.3655,149.3845 C437.7205,153.8195 432.9205,164.4995 428.0805,175.0295 C423.6955,184.5195 418.7655,195.5195 413.4755,203.4195 C402.6205,219.6195 391.6655,227.4045 379.4455,226.8395 C371.1405,226.4495 363.7705,223.2145 358.8405,213.1995 C350.0555,229.7495 328.8805,248.1945 315.5955,248.7145 C311.5955,248.8695 308.1405,247.5295 305.5705,245.0195 C302.8905,242.3795 300.8805,238.5245 300.5155,234.1645 C299.9355,227.3795 301.2705,214.1995 303.0855,208.9295 C297.8455,213.0495 290.2555,217.7145 290.2555,217.7145 C288.2305,233.6595 283.7605,243.6045 276.8155,253.8945 C271.0555,262.4095 259.2305,270.7395 246.8505,269.7895 C239.7955,269.2795 233.7355,265.1445 230.6855,256.6945 C220.5605,275.5445 202.2805,288.7145 190.4455,288.7145 C185.9705,288.7145 179.0055,288.2945 177.8805,276.2745 C171.3455,286.6345 161.9705,294.9045 154.6105,299.8145 C149.6805,303.1045 142.4055,304.4445 137.8155,302.6895 C131.1155,300.1345 129.7355,293.0745 129.4005,287.0645 C128.6455,273.9445 139.2955,240.8295 158.3505,221.7995 C151.4955,223.0745 144.0205,224.9745 138.7955,221.4895 C136.1905,229.5345 123.6955,239.0295 114.5155,241.7795 C113.2255,267.5495 100.2555,302.9895 79.8655,320.8395 C70.3955,329.1345 60.0555,332.9695 49.1455,332.1945 C40.2955,331.5645 30.7055,326.7495 24.7955,318.9845 C14.7705,305.7595 10.4705,286.3595 12.3855,262.9345 C14.2505,240.2245 24.3755,214.1995 42.7355,196.1645 C43.3655,184.5395 50.1555,173.8245 59.5105,167.9395 C68.3905,162.3695 78.9255,161.5795 89.3405,165.3245 C107.1555,171.7295 116.3905,195.1445 114.8855,233.2845 C121.7655,230.2895 130.0255,224.4895 131.2455,217.8945 C131.7005,215.4045 132.2005,210.1145 132.7705,208.1395 C133.3505,206.1295 133.9405,204.0495 140.6205,205.5595 C152.2655,208.2045 160.9555,206.7095 167.9855,200.8695 C168.9155,200.0745 169.8705,199.7145 170.6005,199.8345 C171.2255,199.9445 171.6205,200.4145 171.8605,200.7845 C173.4355,203.4195 177.8455,208.2895 179.7355,210.1845 C180.7155,211.1495 181.3255,213.5595 179.6505,215.2695 C167.4855,227.6545 150.1805,256.4795 150.0955,276.6245 C150.0655,285.6695 155.6805,285.4895 159.8905,283.0295 C164.9405,280.0695 174.0105,271.8845 179.0605,263.1095 C185.5755,245.4345 196.9455,209.9045 203.7505,192.9345 C206.2405,192.2145 221.0005,187.4845 223.2605,186.8445 C215.3455,207.4545 201.7705,247.1795 198.7505,259.6445 C197.9055,263.1595 198.2655,265.9445 199.8505,267.9545 C201.3355,269.8295 204.1655,270.2095 207.0705,269.7895 C214.9055,268.6745 224.6255,255.2295 228.0355,248.8695 C226.9255,243.2645 226.9255,236.3895 227.4905,229.5345 C228.3955,218.4645 234.0105,204.2395 240.5555,196.4595 C239.3805,187.0145 244.5655,180.1295 249.7305,176.5095 C256.8405,171.5545 265.3355,169.5945 272.8955,172.3545 C277.5805,174.0945 282.8905,176.9595 286.4305,184.9045 C288.8705,190.3845 291.0655,196.2845 291.0955,207.2095 C294.5305,206.3995 304.4355,198.4345 304.4355,198.4345 C306.0405,191.1995 307.7555,184.4245 310.5305,175.3145 C317.1405,153.6095 334.4355,120.5795 351.4605,114.1145 C353.9155,113.1795 359.2605,112.5795 361.7005,114.6145 C366.1155,118.3045 366.9505,124.0645 366.3705,129.5495 C363.8205,153.6745 350.6205,178.2045 322.0655,200.0095 C319.8505,210.3895 318.7005,217.5895 319.4955,223.1395 C320.0255,226.8445 321.5105,228.7695 323.9005,230.0245 C326.6005,231.4545 330.9055,230.0395 335.1005,227.4045 C342.4105,222.8245 351.9655,210.2095 356.5755,203.3995 C355.3655,189.3445 360.8155,174.8745 366.3505,165.6495 C372.2905,155.7445 380.2905,148.8695 388.8455,146.6445 C396.6205,144.6295 404.2555,150.0095 406.3655,157.3995 C408.5555,165.0395 406.6055,175.6595 399.4855,184.9495 C393.9255,192.1995 385.1855,199.1545 373.2055,203.9045 C376.6355,210.7345 379.9205,214.1595 386.2505,213.8845 C396.6805,213.4345 404.1055,203.1395 413.4755,184.6795 C417.6155,176.5095 422.5655,166.7695 425.5955,159.8695 C429.2605,151.5445 433.6405,142.2345 437.2605,138.0795 L454.4455,133.8045 C453.3605,137.9795 453.6605,142.2645 455.4155,146.0295 C455.9405,147.1545 456.8355,148.8295 457.9455,150.9295 C461.5055,157.6545 469.8205,173.5245 468.4755,179.2395 C477.5355,182.1995 487.1155,188.3195 487.1155,199.4545 C487.1155,216.6345 474.3105,224.9195 460.4755,231.3045 L460.4755,231.3045 Z M206.8405,170.8445 C208.7805,164.2195 215.0655,158.8595 220.8755,158.8595 C226.6905,158.8595 229.8205,164.2195 227.8655,170.8445 C225.9205,177.4545 219.6405,182.8245 213.8355,182.8245 C208.0205,182.8245 204.8855,177.4545 206.8405,170.8445 L206.8405,170.8445 Z M210.2655,144.4095 L203.9705,140.7695 C205.4205,140.6345 206.4905,140.3995 206.4905,140.3995 C241.1455,157.1745 235.2405,162.3545 235.2405,162.3545 C236.2755,163.8095 234.6605,166.1045 232.5405,168.2295 C232.5905,167.4945 232.5955,166.7645 232.5555,166.0545 C233.1355,164.0845 231.9505,162.3345 231.9505,162.3345 C235.2455,156.9295 214.1205,146.4645 210.2655,144.4095 L210.2655,144.4095 Z M210.8455,131.7745 C210.8455,131.7745 205.8005,134.3445 206.9105,138.0795 L203.3255,138.6595 C203.3255,138.6595 202.3905,133.5245 210.8455,131.7745 L210.8455,131.7745 Z M201.8205,135.5595 C200.8955,137.1245 201.1205,138.1995 201.4105,139.1045 L196.5305,139.7895 C195.5455,139.3295 192.5505,137.2645 192.5205,133.8395 C192.4955,130.9545 194.2705,128.1345 194.2705,128.1345 C193.4705,127.9945 192.4105,127.9195 191.6205,127.7595 C188.1955,127.3245 181.8005,125.8945 181.1255,125.7395 C180.2255,125.5495 180.0355,124.9695 180.4605,124.6345 C181.0405,124.1945 188.9955,122.6195 199.2655,120.4445 C199.3305,120.4345 199.3855,120.4145 199.4455,120.4045 C199.3155,120.4345 199.1855,120.4595 199.0555,120.4845 C216.3555,116.2495 241.7355,107.9945 244.0255,101.2345 C244.0255,101.2345 252.7405,99.3645 255.6805,92.4345 C254.2055,92.3145 253.0255,91.8245 252.2855,91.2445 C252.2705,91.2345 252.2605,91.2245 252.2555,91.2095 C252.1355,91.1095 252.0305,91.0195 251.9405,90.9345 C251.8655,90.8445 251.7905,90.7645 251.7355,90.6795 C251.6955,90.6295 251.6555,90.5795 251.6255,90.5245 C251.5755,90.4895 251.5155,90.4495 251.4605,90.4045 C245.5405,93.6495 243.0805,89.0445 242.7005,88.2495 C242.6755,88.1995 242.6355,88.1595 242.6005,88.1245 C242.0305,88.3445 241.4805,88.4745 240.9805,88.5445 C240.6005,88.5795 240.2405,88.5795 239.9005,88.5545 C237.1705,88.2845 235.7655,85.8195 235.7405,85.2295 C235.7155,85.1945 235.7005,85.1545 235.6855,85.1195 C234.4305,85.5045 233.4105,85.4245 232.6005,85.1145 C230.9755,84.4695 230.2155,82.8745 230.1155,82.2845 L230.1155,82.2045 C230.0905,82.1695 230.0755,82.1195 230.0505,82.0845 C228.0005,82.7195 226.6955,82.1545 225.9105,81.3395 C225.0955,80.5045 224.8355,79.4245 224.8755,79.1195 C224.8755,79.1245 224.8755,79.1295 224.8805,79.1345 C224.8805,79.0995 224.8755,79.0645 224.8755,79.0345 L224.8805,78.9545 L224.8855,78.9345 C224.8855,78.6695 224.9405,78.3895 225.0505,78.0745 C226.6005,73.9095 234.8605,71.0545 234.8605,71.0545 L233.0455,73.0295 C241.3905,69.4745 247.2555,68.7495 247.2555,68.7495 L245.1555,71.3445 C255.0705,67.9095 262.5455,70.4495 266.1405,72.2745 C262.4805,68.1545 251.3805,65.3445 250.7005,65.1795 L250.7955,65.3595 L252.3405,67.1845 C247.6255,64.7245 242.2605,64.3245 242.1405,64.3195 L242.1905,64.3895 L243.6555,65.9495 C237.9005,63.9195 233.3555,65.1595 233.3555,65.1595 L234.7605,66.8095 C234.1105,66.6245 228.4655,66.0895 225.6205,65.8295 C224.7505,65.8945 224.1855,65.9495 224.1855,65.9495 C224.1855,65.9495 224.2455,65.8495 224.3855,65.7095 C224.3855,65.5295 225.0505,64.8095 227.2355,63.9195 C230.0605,62.6745 235.2905,61.4095 244.6405,61.8645 L241.6455,59.7645 C241.6455,59.7645 249.4405,60.4495 255.4605,62.6645 L250.0205,59.2445 C250.0205,59.2445 263.7905,62.1195 267.3655,65.3345 C267.3655,65.3345 267.1355,64.0595 262.9755,60.0195 C261.8205,58.8945 258.6455,56.4545 258.6455,56.4545 C258.6455,56.4545 256.8105,53.2045 259.4805,48.3345 C259.4805,48.3345 258.4505,50.9345 262.7405,55.6695 C269.7255,60.5395 275.2055,61.1945 277.7055,62.4095 C275.4855,62.7445 272.0005,63.3145 272.0005,63.3145 C280.6655,67.7845 285.9705,73.4645 285.9705,73.4645 C283.0505,72.4795 278.9405,72.6995 278.9405,72.6995 C281.5255,74.1645 283.6155,75.0095 285.3605,75.4795 C294.2255,68.3445 291.7755,62.2745 291.7755,62.2745 C292.2955,62.7845 292.7955,63.8995 293.0005,65.2345 C294.5355,70.8995 293.9255,78.0445 288.4655,91.8295 C288.0005,93.0145 287.4805,94.2145 286.7755,95.4745 C281.6855,104.5545 273.0455,115.6795 255.9205,121.7795 C251.9405,123.1945 247.7155,124.1545 243.4655,125.1145 C233.4105,127.3795 218.3155,128.9395 218.3205,128.9445 C215.4355,129.2595 204.6905,130.7095 201.8205,135.5595 L201.8205,135.5595 Z M150.0505,114.8545 C150.0505,114.8545 151.6005,113.1695 153.7455,112.0445 C154.6905,111.3645 155.8855,110.6595 157.1855,110.3095 C157.1855,110.3095 154.4605,111.8345 154.5255,112.7845 C154.5255,112.7845 174.4805,115.6295 214.0305,103.1995 C214.0305,103.1995 213.3905,103.6395 211.6605,104.3795 C209.1255,105.6595 199.3105,109.8495 172.2555,114.1145 C156.5155,116.5945 150.0505,114.8545 150.0505,114.8545 L150.0505,114.8545 Z M135.3005,99.0745 C135.3005,99.0745 144.5855,97.6695 145.2105,97.4995 C145.2105,97.4995 134.1705,95.0445 126.9505,94.9545 C126.9505,94.9545 136.9505,94.4695 137.7155,94.1145 C137.7155,94.1145 121.2305,90.8645 119.2305,91.0795 C119.2305,91.0795 128.5105,90.2795 129.2955,90.0895 C129.2955,90.0895 120.5405,89.0895 116.1205,88.9395 L125.2205,88.2845 L117.6555,86.1495 L118.5605,85.6295 C122.3105,85.2295 130.1955,84.3395 132.6455,83.6245 C142.2355,80.8145 148.4455,79.5995 155.4905,75.5345 C162.2505,71.6195 171.4055,65.0395 191.7355,62.0645 C191.7355,62.0645 192.0355,66.0395 191.8855,66.7195 C191.8855,66.7195 201.1005,67.3695 203.6255,70.1845 C203.6255,70.1845 177.2005,75.5145 165.9055,89.2895 C165.9055,89.2895 158.2305,93.2395 156.8855,97.4995 C156.8855,97.4995 150.9255,101.9945 149.4055,104.7245 C149.4055,104.7245 136.3955,98.7145 135.3005,99.0745 L135.3005,99.0745 Z M61.0405,96.4195 C56.5805,96.3795 49.4455,94.4645 49.4455,94.4645 C65.0755,95.7495 122.1805,97.9595 122.1805,97.9595 C98.6905,98.4895 64.7355,96.4495 61.0405,96.4195 L61.0405,96.4195 Z M73.4755,100.9095 C65.4355,100.6545 64.3755,99.0595 64.3755,99.0595 C72.0455,99.7645 113.2705,100.1695 113.2705,100.1695 C113.2705,100.1695 81.5605,101.1795 73.4755,100.9095 L73.4755,100.9095 Z M38.6305,89.1995 C54.3155,90.8195 116.4855,95.2045 116.4855,95.2045 C95.1505,94.5595 53.5855,91.9345 47.9655,91.6195 C42.3505,91.3045 38.6305,89.1995 38.6305,89.1995 L38.6305,89.1995 Z M53.5855,83.9995 C62.4355,83.5495 109.0555,88.2145 109.0555,88.2145 C109.0555,88.2145 55.4455,84.6495 51.6555,85.0595 C51.6555,85.0595 51.0105,84.1245 53.5855,83.9995 L53.5855,83.9995 Z M70.1005,81.9545 C80.9705,83.0545 110.3155,86.8495 110.3155,86.8495 C110.3155,86.8495 62.7855,81.7545 56.2105,82.0345 C56.2105,82.0345 54.3355,80.3395 70.1005,81.9545 L70.1005,81.9545 Z M72.1855,79.9895 C80.2255,80.8095 113.4055,85.9695 113.4055,85.9695 C113.4055,85.9695 71.3655,80.2645 63.6805,79.9395 C63.6805,79.9395 64.1305,79.1695 72.1855,79.9895 L72.1855,79.9895 Z M216.5555,83.5145 C215.1555,83.9795 213.8155,84.3545 212.5405,84.6945 C197.8055,88.9245 190.8605,85.7395 190.8605,85.7395 C193.1355,82.9695 197.6955,81.3795 200.9605,80.5545 C203.8705,79.6845 206.3005,79.3595 206.3005,79.3595 C197.9205,81.7545 195.7455,84.6645 195.7455,84.6645 C200.9355,87.0595 216.5555,83.5145 216.5555,83.5145 L216.5555,83.5145 Z M169.8305,98.2845 C175.0105,101.3645 200.2655,97.2345 200.2655,97.2345 C196.0705,98.2995 192.3605,99.0745 189.0705,99.6345 C170.9755,102.8545 164.8205,100.1295 164.8205,100.1295 C166.0755,98.3245 168.2255,97.0245 169.2105,96.4845 C170.3355,95.6545 171.2755,95.1795 171.2755,95.1795 C168.9105,97.2645 169.8305,98.2845 169.8305,98.2845 L169.8305,98.2845 Z M204.0305,101.7095 C165.4555,110.2145 158.0755,107.7495 156.7505,107.5845 C157.1455,106.1595 158.7705,104.7045 159.9555,103.8095 C161.1405,102.7395 162.3705,101.9745 162.3705,101.9745 C154.2855,110.2245 206.8805,101.0595 206.8805,101.0595 C206.3155,101.1795 205.7455,101.3045 205.1905,101.4195 L205.1855,101.4195 C205.1505,101.4345 204.7455,101.5495 203.9405,101.7295 C203.9805,101.7245 204.0155,101.7195 204.0305,101.7095 L204.0305,101.7095 Z M224.2555,90.4745 C221.3105,91.8445 209.8855,96.4695 193.9055,94.4395 C193.9055,94.4395 195.9105,92.6195 198.4755,91.2345 C182.8505,92.8645 175.4855,91.1945 175.4855,91.1945 C176.8905,89.0045 179.9455,87.4895 182.0055,86.6695 C183.9005,85.7695 185.5205,85.3045 185.5205,85.3045 C182.2505,87.1695 181.2355,88.9695 181.2355,88.9695 C184.8955,91.8845 203.2055,89.2745 203.2055,89.2745 L198.8455,92.8345 C198.8455,92.8345 207.7255,94.8195 226.4655,89.4745 C226.4655,89.4745 225.6955,89.8895 224.2555,90.4745 L224.2555,90.4745 Z M229.6355,92.7245 C226.7005,99.0195 211.2605,98.8745 211.2605,98.8745 C211.3155,98.8395 212.4005,98.7445 213.5055,98.6145 C223.7555,97.1245 230.2555,91.5695 230.2555,91.5695 C230.1055,91.9745 229.8955,92.3545 229.6355,92.7245 L229.6355,92.7245 Z M242.8605,95.7045 C242.6655,96.0195 242.4605,96.3095 242.2605,96.5845 C242.1955,96.7095 242.1205,96.8395 242.1205,96.8395 C236.6905,105.3145 229.8605,103.7145 229.8605,103.7145 C230.1055,103.6895 230.3505,103.6445 230.6005,103.5995 C236.3605,102.4195 242.8605,95.7045 242.8605,95.7045 L242.8605,95.7045 Z M235.4605,94.8845 C235.4305,94.9545 235.3855,95.0395 235.3855,95.0395 C231.1755,102.8745 221.3405,101.6745 221.3405,101.6745 C221.5455,101.6745 221.7455,101.6695 221.9405,101.6595 L222.0455,101.6595 C222.0905,101.6595 222.1405,101.6495 222.1905,101.6495 C222.2555,101.6445 222.3255,101.6395 222.3905,101.6295 C222.5205,101.6195 222.6455,101.6095 222.7755,101.5945 C222.8005,101.5945 222.8355,101.5945 222.8705,101.5845 C230.1005,100.7645 235.9205,94.0995 235.9205,94.0995 C235.7705,94.3795 235.6155,94.6395 235.4605,94.8845 L235.4605,94.8845 Z M286.7755,24.7595 L285.4055,24.7645 C285.2205,22.4595 283.3105,22.3145 283.3105,22.3145 C286.4155,22.0645 286.7755,24.7595 286.7755,24.7595 L286.7755,24.7595 Z M285.2405,19.6045 C288.2605,19.8345 291.4755,22.9995 291.4755,22.9995 C292.4705,23.6395 291.9405,24.1395 291.3955,24.1045 C290.8455,24.0645 289.2905,24.2945 289.2905,24.2945 C287.6955,21.6295 286.0905,21.1095 286.0905,21.1095 C283.5405,19.9195 279.7605,21.1695 279.9105,25.3145 C279.9855,27.3945 281.5305,29.2295 283.6455,29.0895 C285.3005,28.9795 287.5105,28.2945 288.5255,26.7545 C288.8955,26.1845 289.2655,26.4995 288.8555,27.1895 C288.3205,28.1045 286.5655,30.5045 283.4605,30.5245 C281.7255,30.5445 278.8355,29.0795 277.7455,25.3095 C277.7455,25.3095 279.1555,18.6545 285.2405,19.6045 L285.2405,19.6045 Z M299.8255,17.4445 C299.8255,17.4445 300.6055,17.2895 302.3155,18.3845 C304.0255,19.4845 305.8855,19.8395 305.8855,19.8395 C316.1805,19.9395 323.1805,21.6245 323.7655,21.7745 C324.7405,22.0195 325.6505,22.5645 325.6505,22.5645 C310.8155,23.8445 297.1855,28.9645 297.1855,28.9645 C299.6005,24.6945 301.7405,22.4245 301.7405,22.4245 L299.8255,17.4445 Z M302.1355,33.8795 L302.8505,30.2045 L297.7705,30.6895 C310.2755,26.3095 324.5505,23.2645 324.5505,23.2645 C309.4155,28.3145 302.1355,33.8795 302.1355,33.8795 L302.1355,33.8795 Z M472.6755,176.3645 C472.1305,170.8445 468.6955,162.3945 461.6055,149.0095 C460.5055,146.9495 459.6505,145.3145 459.1605,144.2645 C457.8505,141.4545 457.5905,138.1295 458.4655,134.8745 L460.2605,128.1145 L453.4655,129.7945 L436.2655,134.0495 L435.0005,134.3695 L434.1455,135.3545 C430.9055,139.0645 427.2405,145.9045 421.8255,158.2095 C418.8555,164.9345 413.8805,174.7295 409.8905,182.5995 L409.7805,182.7995 C399.9855,202.1345 393.5455,209.4245 386.0805,209.7595 C385.3805,209.7795 384.7205,209.7645 384.1105,209.6695 C391.3555,205.0045 396.1755,199.9545 399.2305,195.9745 C403.6255,190.2545 407.4105,182.8295 409.1855,175.7295 C411.5705,169.0745 412.0405,162.2095 410.3505,156.2645 C407.4855,146.2645 397.3755,140.1595 387.8005,142.6495 C378.2605,145.1245 369.3955,152.5295 362.7955,163.5495 C361.4205,165.8395 358.5605,171.0245 356.1555,177.8795 C352.9255,184.5795 348.8805,195.3145 348.7505,207.2145 C343.4655,214.2295 337.3555,221.0995 332.9055,223.9145 C328.4505,226.7095 326.1855,226.5745 325.8355,226.3845 C324.8155,225.8495 323.9655,225.1945 323.5755,222.5645 C323.1005,219.1445 323.5005,214.7045 324.4905,209.0795 C336.9755,199.0245 346.8855,188.0095 353.9805,176.2895 C357.8255,169.9395 361.4755,162.2245 364.2605,154.4245 C367.5105,146.5195 369.5855,138.3395 370.4805,129.9895 C371.3355,121.9195 369.2155,115.5195 364.3605,111.4445 C360.3855,108.1295 353.4305,108.9495 349.9955,110.2395 C333.7005,116.4345 317.9805,143.4445 309.7205,165.0045 C306.9455,171.2045 304.6755,177.2645 303.0505,182.6145 C301.4205,187.9745 300.1055,192.6895 298.8955,197.5145 C297.5005,198.5495 296.1455,199.5395 294.9105,200.3795 C294.1505,192.6895 292.2055,187.6845 290.2005,183.2195 C285.9905,173.7745 279.5005,170.3845 274.3205,168.4795 C265.8505,165.3795 256.0305,167.0695 247.3655,173.1145 C242.7405,176.3545 239.4305,180.6945 237.6855,185.5995 C235.0105,190.1695 233.2655,195.5495 232.8305,200.3395 C230.5255,204.2845 228.4805,208.7745 226.8705,213.4145 C223.1555,221.0545 220.4855,229.9695 219.8555,237.6795 C219.3355,243.8995 219.3405,249.3345 219.8355,253.9695 C215.5805,259.7195 210.1705,265.1795 206.4805,265.7095 C204.3505,266.0195 203.2805,265.6395 203.0855,265.3995 C202.1505,264.2095 202.3905,262.1445 202.7655,260.6295 C205.7155,248.4745 219.2005,208.9445 227.1155,188.3295 L230.0955,180.5795 L228.1055,181.1495 C228.1805,180.9395 228.2605,180.7295 228.3205,180.4995 C228.5505,179.7145 228.7205,178.9395 228.8455,178.1595 C230.1355,176.3095 231.1555,174.2645 231.8105,172.0895 C232.7405,171.8895 233.4855,171.6945 233.8205,171.5445 C234.7755,171.1445 237.7755,167.9545 239.0505,165.6995 C240.3205,163.4295 238.7905,161.1595 238.7905,161.1595 C242.0905,155.7645 218.7305,144.0845 217.1055,143.2395 C210.2105,139.6045 209.1805,138.6595 209.0455,138.5145 C206.9105,135.4345 211.4205,132.7095 214.8555,131.1595 C217.0155,130.7995 218.5705,130.6595 218.6205,130.6595 L225.3605,129.9095 C281.3255,123.6795 288.1955,98.2595 293.1005,82.0545 C293.9155,79.3745 294.9905,74.7545 294.7555,68.2345 C294.2755,54.0745 294.1855,63.4295 294.7055,53.3645 C294.8905,49.9895 307.4655,39.6395 306.8855,32.5895 C306.8855,32.5895 309.2005,31.0395 312.8405,29.2845 C315.6405,27.9395 328.5155,22.9695 328.5155,22.9695 C324.1905,20.2295 322.2755,20.0195 317.0705,19.2945 C315.2205,19.0445 315.0305,19.0245 310.5105,18.6095 C307.7555,18.3545 304.2505,17.7045 304.2505,17.7045 C304.2505,17.7045 302.7405,14.5395 296.0705,10.9795 C291.5255,8.5495 284.9955,8.7245 272.5705,11.7195 C254.8805,15.9795 249.8105,28.6395 237.9155,37.0645 C228.8155,43.4995 231.3305,43.7895 221.4105,46.2545 C204.7805,50.3845 181.0205,61.5195 181.0205,61.5195 C173.9755,64.3145 165.2905,67.5145 154.4655,73.9095 C150.1655,76.4345 145.0155,78.2545 138.9855,79.8345 C132.1605,81.6245 124.6605,83.8695 117.7605,83.9645 C117.5555,83.9645 117.2355,83.9845 116.8605,84.0095 C114.8705,83.8645 112.7955,83.6895 110.6255,83.4845 C94.9505,81.9445 75.6155,78.7995 67.2205,78.0745 C59.5455,77.3995 58.4555,76.8995 54.8855,79.7495 C54.8855,79.7495 52.8405,79.5495 50.1755,82.8345 C48.9755,83.0545 43.3005,83.4395 47.1305,86.2745 C25.5655,87.4495 39.1405,92.0145 42.8055,93.4595 C42.8055,93.4595 43.7305,95.8695 51.2205,96.8195 C51.2205,96.8195 51.7605,98.2745 58.6405,98.5745 C58.6405,98.5745 62.0305,104.3195 80.8555,104.1295 C96.8005,103.1645 106.8205,102.1095 114.6405,101.4695 C118.9455,101.0895 123.7855,100.8245 127.3905,100.6445 C128.4105,100.5895 129.3405,100.5495 130.1255,100.5145 C136.0105,103.0245 142.4055,105.3195 147.9555,107.3945 C147.9555,107.3945 133.5905,110.6095 127.1955,120.2395 C124.7605,123.9095 124.4155,126.2595 161.2155,124.6045 C161.2155,124.6045 176.3155,127.3645 192.3605,128.9845 C192.1805,129.4845 191.9405,129.9395 191.7705,130.6395 C191.3505,132.3245 191.3305,132.6195 191.3155,133.7645 C191.2655,136.8195 192.6605,138.5195 194.3055,139.8195 C194.6005,140.0695 194.9705,140.3495 195.3905,140.6145 C196.5105,141.2995 200.4005,143.6595 200.4005,143.6595 L215.2055,151.7295 C217.7855,153.4645 216.7005,154.6545 214.8655,156.0045 C209.4355,158.3195 204.6755,163.5095 202.8655,169.6745 C202.6355,170.4445 202.4655,171.2245 202.3405,171.9945 C201.0255,173.8695 199.9905,175.9595 199.3355,178.1795 C198.0455,182.5545 198.4605,186.8295 200.4455,190.0795 L199.9155,191.4095 C199.3905,192.7095 196.3905,199.9145 196.3905,199.9145 C192.3255,210.0445 186.7805,226.3745 181.4005,242.1645 C178.8355,249.7145 176.3705,256.9545 174.2105,263.0845 C169.2905,270.5745 161.7405,277.1545 157.8005,279.4645 C156.2355,280.3795 155.1505,280.4045 154.9505,280.3095 C154.7905,280.1795 154.2105,279.2145 154.2355,276.6495 C154.2555,271.2395 155.7055,264.9845 158.0355,258.5495 C163.9105,245.8695 172.2705,233.5995 179.0655,226.6645 C181.8655,223.8295 185.4755,216.6145 184.8155,212.9945 C184.8855,210.7995 184.0755,208.6645 182.6555,207.2495 C180.5155,205.1145 176.6205,200.7045 175.4005,198.6645 C174.4455,197.0695 172.9905,196.0395 171.2955,195.7445 C169.3405,195.4295 167.2255,196.1095 165.3305,197.6895 C159.3005,202.7145 151.9605,203.8995 141.5305,201.5295 C134.9805,200.0395 131.1505,201.2895 129.3205,205.5445 C129.1305,205.8795 128.9305,206.3895 128.7205,207.1345 C128.3005,208.6245 124.5205,219.4345 124.1705,221.9995 C124.1605,222.0795 124.1555,222.1595 124.1405,222.2545 C122.8205,223.6395 121.1355,225.0095 119.1805,226.2895 C119.4205,181.4545 104.0505,166.2195 90.7455,161.4445 C79.0005,157.2045 67.1205,158.2895 57.3055,164.4395 C48.8955,169.7145 42.7155,178.1545 40.0355,187.5645 C38.3955,190.5245 37.1355,193.6745 36.2855,196.9345 C27.1955,206.9245 19.8905,219.2545 14.9705,232.5995 C9.4205,244.6495 5.8355,257.8445 4.7455,271.0945 C2.7405,295.5695 7.3155,315.9245 17.9855,329.9895 C24.3605,338.3795 34.8305,344.0745 45.3305,344.8095 C57.3805,345.6695 68.7355,341.5195 79.0555,332.4695 C91.7305,321.3745 99.9605,305.6395 104.6505,294.3745 C105.2605,292.9045 105.8455,291.4245 106.4055,289.9345 C107.0455,288.5295 107.6405,287.1645 108.1755,285.8695 C112.7905,274.7545 116.0405,263.0795 117.6355,252.0945 C125.2105,248.4595 133.2555,242.0795 137.2705,235.4095 C138.8355,235.8445 140.4555,236.0595 142.1005,236.0995 C137.7255,243.2545 134.1105,250.8895 131.3755,258.2045 C124.7105,272.8395 121.2655,287.4145 121.7405,295.8145 C121.9605,299.6095 122.6255,311.1695 132.8255,315.0595 C138.5755,317.2445 147.2305,315.8645 153.3905,311.7645 C157.0905,309.2945 165.3155,303.2545 172.7255,294.1145 C176.7055,301.3495 184.0555,301.3495 186.9155,301.3495 C199.5855,301.3495 216.1555,289.5645 226.9405,273.5395 C230.8055,278.7745 236.4055,281.9345 243.0305,282.4395 C257.2105,283.5145 270.4305,273.9945 276.7055,264.7095 C280.7555,258.7145 284.1705,252.6595 286.7455,245.1295 C289.2755,239.9495 291.3455,234.2095 292.8455,227.2245 C293.0755,227.0795 293.3055,226.9245 293.5405,226.7645 C292.8305,232.5045 292.5205,238.8345 292.8705,243.0345 C293.2955,248.0845 295.6005,252.9795 299.1755,256.4795 C302.5805,259.8295 307.2105,261.5645 312.2305,261.3545 C325.8355,260.8245 344.9405,244.9395 355.3705,229.5845 C360.2955,235.8045 367.0105,239.0595 375.7455,239.4595 C389.2755,240.0945 401.5855,231.8395 413.3855,214.2145 C415.1905,211.5145 416.9555,208.4745 418.6705,205.2595 C419.2405,209.1045 420.9955,212.8345 423.5655,215.3995 C426.7205,218.5545 433.0655,221.9245 440.5105,220.9845 C452.8955,219.3945 462.6755,211.4545 466.7605,200.1295 C470.3205,203.1595 470.7155,206.0745 470.7505,206.8495 C467.8905,210.3145 463.8155,213.1295 460.3905,215.2345 C454.0605,219.1395 445.6755,222.2545 441.1555,223.9295 C424.4105,230.1495 309.0305,271.3195 207.2355,307.6645 C132.9705,334.1695 68.8205,357.0595 52.9505,362.8245 L47.8305,364.6645 L47.8855,364.7495 C47.8505,364.7595 47.8055,364.7795 47.7705,364.7945 L44.3105,373.1695 L47.4905,377.6045 L49.6505,380.6595 L50.8055,382.2795 L52.7955,382.3645 C83.9255,384.0395 98.4105,387.7145 112.4605,397.5145 L115.3605,399.5345 L117.8055,396.9845 C133.5805,380.5095 157.8355,369.1245 181.2805,358.1295 L189.6155,354.1945 C198.7005,349.8795 319.0455,299.9945 390.8905,271.0945 C425.8605,257.0645 453.4805,245.9745 458.7105,243.5595 C471.7105,237.5495 487.2855,225.2795 490.0605,208.4445 C490.8155,205.7095 491.2355,202.7245 491.2355,199.4545 C491.2355,189.2045 484.6705,181.0845 472.6755,176.3645 L472.6755,176.3645 Z" id="Fill-116" fill="#221F20"></path>
                <path d="M377.5195,188.059 C377.8445,186.144 378.3095,184.304 378.8545,182.529 C381.7545,177.019 385.0445,173.199 386.6495,172.169 C388.3595,171.049 389.8795,170.764 390.3595,170.859 C391.1495,171.599 391.2745,173.404 390.7845,176.199 C390.7045,176.624 390.6245,177.034 390.5245,177.454 C387.7795,181.569 383.6145,184.954 377.5195,188.059 M398.3845,168.419 C399.1595,163.984 398.6845,160.949 396.4445,159.099 C394.3695,157.354 390.6545,158.399 387.9095,160.189 C383.1395,163.294 372.7995,178.204 372.7995,194.744 C388.4245,188.364 396.1745,180.824 398.3845,168.419" id="Fill-118" fill="#221F20"></path>
                <path d="M78.5205,287.4095 C73.6305,298.0245 68.1405,305.6895 62.8455,309.2395 C58.6655,312.0395 56.1755,312.5645 51.7605,311.6395 C36.9055,308.5395 34.6955,280.0045 36.7955,262.7595 C37.3705,258.0345 38.4805,253.2845 40.0605,248.6745 C41.5405,245.6395 43.2255,242.7295 45.0905,239.9945 C55.5155,252.3345 68.8205,257.8245 86.2855,256.9795 C84.9005,266.5595 81.9805,278.0095 78.5205,287.4095 M48.5555,224.6495 C40.0555,235.1095 34.3155,248.8095 32.6805,262.2695 C30.2805,282.0545 33.1505,311.9645 50.9005,315.6845 C56.3055,316.8295 59.9405,316.1645 65.1405,312.6795 C73.6855,306.9745 80.2355,294.2945 84.2355,284.6595 C89.1805,272.7445 93.3755,256.1845 94.5355,243.9495 C73.9555,246.2645 59.7005,240.4695 48.5555,224.6495" id="Fill-120" fill="#221F20"></path>
                <path d="M88.911,231.565 C83.426,230.885 78.946,228.595 74.621,224.41 C68.486,218.47 64.686,209.895 64.686,202.06 C64.686,200.32 64.851,198.645 65.151,197.035 C66.206,195.59 67.436,194.37 68.821,193.445 C72.091,191.26 75.836,190.945 79.666,192.545 C86.401,195.35 89.866,210.75 88.911,231.565 M84.781,180.225 C79.686,178.1 74.461,178.555 70.051,181.5 C64.186,185.39 60.556,193.285 60.556,202.06 C60.556,210.985 64.841,220.705 71.741,227.38 C77.766,233.225 84.901,236.55 95.531,235.84 C98.141,213.62 97.186,185.39 84.781,180.225" id="Fill-122" fill="#221F20"></path>
                <path d="M446.7065,195.8935 C445.4515,197.0735 444.0165,197.7435 441.2965,197.7435 C439.9265,197.7435 438.7815,197.2685 438.0215,196.4285 C440.2515,195.4785 443.2115,195.0335 446.7265,195.1185 C446.7415,195.3785 446.7165,195.6335 446.7065,195.8935 M436.0665,186.6035 C429.8615,192.5335 433.2515,201.8835 441.2965,201.8835 C445.2865,201.8835 447.9015,200.7285 450.2815,198.1535 C453.1115,195.0935 455.2665,190.1485 454.0615,182.7285 C446.1715,181.8785 439.7765,183.0635 436.0665,186.6035" id="Fill-124" fill="#221F20"></path>
                <path d="M337.932,158.4325 C342.162,148.6775 346.277,140.7975 348.597,138.5575 C349.297,137.8875 349.857,137.4425 350.277,137.1525 C350.422,138.4375 350.322,140.6025 349.507,143.1575 C349.062,144.6025 348.547,146.1025 347.987,147.6275 C343.917,156.5575 338.452,165.9625 332.367,173.7175 C334.012,168.7125 335.932,163.4725 337.932,158.4325 M356.987,135.9025 C359.507,127.8225 357.427,119.2325 349.257,127.0775 C342.647,133.4175 327.737,170.3525 324.052,188.2025 C337.962,177.2425 351.287,154.0925 356.987,135.9025" id="Fill-126" fill="#221F20"></path>
                <path d="M261.521,242.4195 C259.126,247.2645 256.471,250.9345 253.961,252.5845 C252.921,253.2495 251.596,253.3995 251.016,253.2695 C245.396,252.0945 244.256,239.1845 245.926,230.4595 L246.071,229.7245 C251.676,232.7095 257.991,234.4545 263.841,234.5995 C263.171,237.3045 262.381,239.9245 261.521,242.4195 M246.166,214.1045 C243.681,218.9545 242.846,224.5595 241.876,229.6795 C240.031,239.3195 240.871,255.3645 250.176,257.3295 C251.926,257.6845 254.351,257.2645 256.226,256.0345 C263.621,251.1945 269.931,235.6495 272.586,221.6245 C265.126,222.9895 254.421,220.5795 246.166,214.1045" id="Fill-128" fill="#221F20"></path>
                <path d="M268.479,209.192 C264.819,209.027 262.199,206.947 259.899,204.587 C257.549,202.187 256.314,198.972 256.439,195.552 C256.439,195.417 256.454,195.292 256.454,195.157 C256.989,194.607 257.569,194.142 258.184,193.762 C260.209,192.537 262.729,192.662 264.749,194.072 C267.319,195.892 268.929,201.532 268.479,209.192 M270.664,182.197 C267.149,179.712 262.864,179.737 259.564,181.722 C255.329,184.292 252.479,189.662 252.299,195.432 C252.139,199.987 253.789,204.262 256.929,207.482 C260.564,211.182 265.874,215.182 274.214,212.457 C277.649,199.562 276.714,186.477 270.664,182.197" id="Fill-130" fill="#221F20"></path>
                <path d="M450.2805,198.1545 C447.9005,200.7295 445.2855,201.8845 441.2955,201.8845 C433.2505,201.8845 429.8605,192.5345 436.0655,186.6045 C439.7755,183.0645 446.1705,181.8795 454.0605,182.7295 C455.2655,190.1495 453.1105,195.0945 450.2805,198.1545 M387.9105,160.1895 C390.6555,158.3995 394.3705,157.3545 396.4455,159.0945 C398.6855,160.9495 399.1555,163.9795 398.3855,168.4195 C396.1755,180.8245 388.4205,188.3645 372.7955,194.7445 C372.7955,178.2045 383.1405,163.2945 387.9105,160.1895 M274.2155,212.4545 C265.8705,215.1795 260.5605,211.1845 256.9305,207.4845 C253.7905,204.2595 252.1405,199.9845 252.2955,195.4295 C252.4755,189.6645 255.3305,184.2895 259.5655,181.7245 C262.8655,179.7345 267.1505,179.7145 270.6655,182.1995 C276.7155,186.4795 277.6505,199.5595 274.2155,212.4545 M256.2255,256.0345 C254.3505,257.2645 251.9255,257.6845 250.1755,257.3295 C240.8705,255.3645 240.0305,239.3195 241.8755,229.6795 C242.8455,224.5595 243.6805,218.9545 246.1655,214.1045 C254.4205,220.5795 265.1255,222.9895 272.5855,221.6245 C269.9305,235.6495 263.6205,251.1945 256.2255,256.0345 M95.5305,235.8445 C84.9005,236.5495 77.7655,233.2245 71.7405,227.3795 C64.8405,220.7045 60.5555,210.9845 60.5555,202.0595 C60.5555,193.2845 64.1855,185.3895 70.0505,181.4995 C74.4605,178.5595 79.6855,178.0995 84.7805,180.2295 C97.1855,185.3895 98.1405,213.6195 95.5305,235.8445 M84.2355,284.6595 C80.2355,294.2945 73.6855,306.9745 65.1405,312.6795 C59.9405,316.1645 56.3055,316.8295 50.9005,315.6845 C33.1505,311.9645 30.2805,282.0545 32.6805,262.2695 C34.3155,248.8095 40.0555,235.1095 48.5555,224.6495 C59.7005,240.4695 73.9555,246.2645 94.5355,243.9495 C93.3755,256.1845 89.1805,272.7445 84.2355,284.6595 M349.2555,127.0745 C357.4305,119.2295 359.5055,127.8245 356.9855,135.8995 C351.2905,154.0945 337.9655,177.2395 324.0505,188.1995 C327.7355,170.3495 342.6505,133.4145 349.2555,127.0745 M468.4755,179.2395 C469.8205,173.5245 461.5055,157.6545 457.9455,150.9295 C456.8355,148.8295 455.9405,147.1545 455.4155,146.0295 C453.6605,142.2645 453.3605,137.9795 454.4455,133.8045 L437.2605,138.0795 C433.6405,142.2345 429.2605,151.5445 425.5955,159.8695 C422.5655,166.7695 417.6155,176.5095 413.4755,184.6795 C404.1055,203.1395 396.6805,213.4345 386.2505,213.8845 C379.9205,214.1595 376.6355,210.7345 373.2055,203.9045 C385.1855,199.1545 393.9255,192.1995 399.4855,184.9495 C406.6055,175.6595 408.5555,165.0395 406.3655,157.3995 C404.2555,150.0095 396.6205,144.6295 388.8455,146.6445 C380.2905,148.8695 372.2905,155.7445 366.3505,165.6495 C360.8155,174.8745 355.3655,189.3445 356.5755,203.3995 C351.9655,210.2095 342.4105,222.8245 335.1005,227.4045 C330.9055,230.0395 326.6005,231.4545 323.9005,230.0245 C321.5105,228.7695 320.0255,226.8445 319.4955,223.1395 C318.7005,217.5895 319.8505,210.3895 322.0655,200.0095 C350.6205,178.2045 363.8205,153.6745 366.3705,129.5495 C366.9505,124.0645 366.1155,118.3045 361.7005,114.6145 C359.2605,112.5795 353.9155,113.1795 351.4605,114.1145 C334.4355,120.5795 317.1405,153.6095 310.5305,175.3145 C307.7555,184.4245 306.0405,191.1995 304.4355,198.4345 C304.4355,198.4345 294.5305,206.3995 291.0955,207.2095 C291.0655,196.2845 288.8705,190.3845 286.4305,184.9045 C282.8855,176.9595 277.5805,174.0945 272.8955,172.3545 C265.3355,169.5945 256.8405,171.5545 249.7305,176.5095 C244.5655,180.1295 239.3805,187.0145 240.5555,196.4595 C234.0105,204.2395 228.3955,218.4645 227.4905,229.5345 C226.9255,236.3895 226.9255,243.2645 228.0355,248.8695 C224.6255,255.2295 214.9055,268.6745 207.0705,269.7895 C204.1655,270.2095 201.3355,269.8295 199.8505,267.9545 C198.2655,265.9445 197.9055,263.1595 198.7505,259.6445 C201.7705,247.1795 215.3455,207.4545 223.2605,186.8445 C221.0005,187.4845 206.2405,192.2145 203.7505,192.9345 C196.9455,209.9045 185.5755,245.4345 179.0605,263.1095 C174.0105,271.8845 164.9405,280.0695 159.8905,283.0295 C155.6805,285.4895 150.0655,285.6695 150.0955,276.6245 C150.1805,256.4795 167.4855,227.6545 179.6505,215.2695 C181.3255,213.5595 180.7155,211.1495 179.7355,210.1845 C177.8455,208.2895 173.4355,203.4195 171.8605,200.7845 C171.6205,200.4145 171.2255,199.9445 170.6005,199.8345 C169.8705,199.7145 168.9155,200.0745 167.9855,200.8695 C160.9555,206.7095 152.2655,208.2045 140.6205,205.5595 C133.9405,204.0495 133.3505,206.1295 132.7705,208.1395 C132.2005,210.1145 131.7005,215.4045 131.2455,217.8945 C130.0255,224.4895 121.7655,230.2895 114.8855,233.2845 C116.3905,195.1445 107.1555,171.7295 89.3405,165.3245 C78.9255,161.5845 68.3905,162.3695 59.5105,167.9395 C50.1555,173.8245 43.3655,184.5395 42.7355,196.1645 C24.3755,214.1995 14.2505,240.2245 12.3855,262.9345 C10.4705,286.3595 14.7705,305.7595 24.7955,318.9895 C30.7055,326.7495 40.2955,331.5645 49.1455,332.1945 C60.0555,332.9695 70.3955,329.1345 79.8655,320.8395 C100.2555,302.9895 113.2255,267.5495 114.5155,241.7795 C123.6955,239.0295 136.1905,229.5345 138.7955,221.4895 C144.0205,224.9745 151.4955,223.0745 158.3505,221.7995 C139.2955,240.8295 128.6455,273.9445 129.4005,287.0645 C129.7355,293.0745 131.1155,300.1345 137.8155,302.6895 C142.4055,304.4445 149.6805,303.1045 154.6105,299.8145 C161.9705,294.9045 171.3455,286.6345 177.8805,276.2745 C179.0055,288.2945 185.9705,288.7145 190.4455,288.7145 C202.2805,288.7145 220.5605,275.5495 230.6855,256.6945 C233.7355,265.1445 239.7955,269.2795 246.8505,269.7895 C259.2305,270.7395 271.0555,262.4095 276.8155,253.8945 C283.7605,243.6045 288.2305,233.6595 290.2555,217.7145 C290.2555,217.7145 297.8455,213.0495 303.0855,208.9295 C301.2705,214.1995 299.9355,227.3795 300.5155,234.1645 C300.8805,238.5245 302.8905,242.3795 305.5705,245.0195 C308.1405,247.5345 311.5955,248.8695 315.5955,248.7145 C328.8805,248.1945 350.0555,229.7495 358.8405,213.1995 C363.7705,223.2145 371.1405,226.4495 379.4455,226.8395 C391.6655,227.4045 402.6205,219.6195 413.4755,203.4195 C418.7655,195.5195 423.6955,184.5195 428.0805,175.0295 C432.9205,164.5045 437.7205,153.8195 442.3655,149.3845 C442.2755,156.7145 450.5555,172.2745 453.5355,176.5845 C433.8655,175.3145 426.5455,186.8895 426.1505,193.2245 C425.8705,197.4895 427.7555,201.7195 430.0005,203.9645 C432.4255,206.3995 437.5755,209.1245 443.5105,208.3745 C455.0205,206.9095 465.4255,198.6545 467.7605,185.0745 C476.5755,189.4945 478.5105,195.6245 478.4055,198.6845 C478.0805,208.1145 469.2055,214.6545 462.5605,218.7595 C455.8905,222.8695 447.2605,226.0895 442.5955,227.7995 C425.8055,234.0345 310.4355,275.2095 208.6255,311.5495 C134.9255,337.8495 70.2205,360.9445 54.3605,366.6995 L56.5255,369.7445 C89.6805,371.4995 104.2805,375.8095 118.3405,385.6245 C136.6255,366.5395 165.9105,354.0495 191.3655,341.9595 C201.0705,337.3345 322.0455,287.2445 392.8805,258.7745 C427.7855,244.7545 455.3605,233.6595 460.4755,231.3045 C474.3105,224.9245 487.1155,216.6345 487.1155,199.4545 C487.1155,188.3195 477.5355,182.1995 468.4755,179.2395" id="Fill-132" fill="#F37937"></path>
                <path d="M213.8355,182.825 C219.6405,182.825 225.9205,177.455 227.8655,170.845 C229.8205,164.22 226.6905,158.855 220.8755,158.855 C215.0655,158.855 208.7805,164.22 206.8405,170.845 C204.8855,177.455 208.0205,182.825 213.8355,182.825" id="Fill-134" fill="#F37937"></path>
            </g>
        </g>
    </g>
</svg>