<?xml version="1.0" encoding="UTF-8" standalone="no"?>
<svg width="500px" height="500px" viewBox="0 0 500 500" version="1.1" xmlns="http://www.w3.org/2000/svg" xmlns:xlink="http://www.w3.org/1999/xlink">
    <!-- Generator: Sketch 39.1 (31720) - http://www.bohemiancoding.com/sketch -->
    <title>BOS</title>
    <desc>Created with Sketch.</desc>
    <defs></defs>
    <g id="MLB" stroke="none" stroke-width="1" fill="none" fill-rule="evenodd">
        <g id="BOS">
            <g transform="translate(0.000000, 6.000000)" id="Group-5">
                <g>
                    <path d="M450,289.647274 C432.26257,277.072989 410.893855,274.278703 390.223464,271.484417 C350.698324,266.313591 319.553073,262.261877 315.083799,197.574163 C308.519553,103.546449 306.284916,81.8907343 282.541899,64.7072743 C281.703911,58.1393057 276.955307,20.55756 276.955307,20.55756 C275.418994,7.84216286 263.687151,-1.23926571 250.977654,0.438702857 L178.77095,9.52013143 C172.625698,10.2187029 167.178771,13.4307343 163.268156,18.3207343 C160.75419,21.6738771 159.078212,25.44756 158.659218,29.4978771 C148.603352,28.9404171 138.826816,34.9467343 135.335196,44.8664486 C135.335196,44.8664486 122.905028,79.9361314 120.530726,86.5013057 C106.145251,92.9281629 94.5530726,113.326449 81.7039106,154.402449 L74.4413408,178.153877 C60.3351955,224.818449 49.0223464,261.704417 27.9329609,284.476449 C9.77653631,303.898131 0,325.133306 0,344.553591 C0,350.422989 0.837988827,356.149877 2.65363128,361.45902 C8.10055866,377.667274 24.301676,398.762734 71.2290503,407.286703 C96.9273743,411.756163 126.815642,430.198449 155.586592,448.081877 C175.418994,460.378131 196.648045,473.509877 215.782123,481.473591 C228.072626,486.644417 249.162011,495.725846 307.960894,480.914734 C311.03352,480.216163 317.458101,477.562989 319.553073,467.363846 C319.972067,465.268131 320.251397,462.751877 320.251397,460.098703 C320.251397,440.257877 306.424581,405.748449 268.994413,373.755274 C295.670391,376.408449 325.698324,382.836703 347.765363,390.520989 C384.357542,403.373306 453.072626,412.176703 492.597765,383.535274 C495.810056,381.43956 499.441341,376.687877 499.72067,368.025591 C499.72067,350.003846 484.636872,314.097274 450,289.647274" id="Fill-1" fill="#FFFFFF"></path>
                    <path d="M478.212291,367.32702 C466.061453,375.430449 449.72067,379.482163 432.402235,380.740989 C428.631285,380.879306 426.256983,379.482163 425.418994,376.54956 L412.849162,342.457877 C411.592179,339.663591 411.452514,337.00902 415.363128,335.054417 C415.363128,335.054417 441.061453,323.877274 443.994413,322.33902 C446.927374,320.802163 450.418994,318.007877 453.910615,321.500734 C471.089385,339.663591 478.212291,359.504417 478.212291,367.188703 C478.351955,367.047591 478.212291,367.188703 478.212291,367.32702 M260.195531,75.0461314 C258.938547,75.1858457 257.821229,74.34756 257.681564,73.0901314 L251.396648,22.5121629 C251.256983,21.2561314 252.094972,20.13702 253.351955,19.9987029 C254.608939,19.8589886 255.726257,20.6972743 255.865922,21.9547029 L262.150838,72.5298771 C262.290503,73.6489886 261.452514,74.90502 260.195531,75.0461314 M444.972067,296.771306 C397.625698,263.10156 313.96648,306.412989 306.284916,198.134417 C299.441341,99.7741629 296.927374,84.68502 274.301676,69.5972743 L268.156425,21.5341629 C267.178771,13.71156 259.916201,7.98187714 252.094972,9.09959143 L179.888268,18.18102 C172.905028,19.0193057 167.73743,24.7489886 167.318436,31.4538771 C169.832402,32.4332743 174.441341,33.9701314 180.027933,35.9261314 L179.469274,31.3141629 C179.329609,30.0567343 180.167598,28.9404171 181.424581,28.7993057 C182.681564,28.6595914 183.798883,29.4978771 183.938547,30.7553057 L184.776536,37.6013057 C187.849162,38.7204171 191.201117,39.8367343 194.553073,41.0941629 L193.156425,30.33756 C193.01676,28.6595914 194.134078,27.2624486 195.670391,27.1227343 C197.206704,26.9844171 198.743017,28.1007343 198.882682,29.6389886 L200.558659,43.3295914 C203.49162,44.3089886 206.284916,45.4253057 209.078212,46.4047029 L206.98324,29.3581629 C206.703911,27.4021629 208.100559,25.5872743 210.055866,25.44756 C212.011173,25.1667343 213.826816,26.5638771 214.106145,28.5198771 L216.620112,49.0578771 C219.413408,50.0372743 222.067039,51.0138771 224.301676,51.8521629 L221.22905,27.6829886 C220.949721,25.7255914 222.346369,23.9093057 224.301676,23.7695914 C226.256983,23.49156 228.072626,24.8887029 228.212291,26.8447029 L231.703911,54.6464486 C232.681564,55.0655914 233.379888,55.2053057 233.379888,55.2053057 C236.03352,56.1847029 238.407821,57.5818457 240.363128,59.25702 L236.173184,25.3064486 C236.03352,23.7695914 237.150838,22.2327343 238.687151,22.0944171 C240.223464,21.9547029 241.759777,23.07102 241.899441,24.6078771 L247.486034,69.7355914 C248.324022,72.1107343 248.743017,74.6255914 248.743017,77.1418457 C248.743017,79.6553057 248.324022,82.3098771 247.346369,84.9658457 C247.346369,84.9658457 234.776536,120.453274 232.402235,126.880131 C235.195531,132.468703 236.452514,138.195591 236.452514,144.203306 C236.452514,161.94702 225.977654,181.087877 216.340782,198.691877 C212.290503,206.096734 208.379888,213.222163 205.446927,219.790131 C190.642458,255.974734 183.519553,278.32902 183.519553,293.557877 C183.519553,301.661306 185.47486,307.66902 189.52514,312.838449 C189.664804,303.19956 191.480447,295.793306 192.458101,292.160734 C201.955307,295.235846 230.167598,304.036449 244.273743,307.11156 C244.273743,307.11156 243.156425,336.170734 246.648045,356.98956 C248.324022,358.245591 249.72067,359.504417 250.698324,360.341306 C252.513966,361.600131 254.329609,362.856163 256.145251,364.253306 C287.988827,366.070989 325.837989,374.033306 350.27933,382.557274 C388.268156,395.830131 452.374302,402.117274 487.290503,376.54956 C497.486034,370.262417 485.055866,325.274417 444.972067,296.771306" id="Fill-3" fill="#B32535"></path>
                    <path d="M298.743017,460.935591 C277.094972,466.10502 262.011173,467.641877 250.977654,467.502163 C247.067039,468.062417 243.854749,466.10502 243.156425,461.495846 L239.106145,425.868703 C239.24581,422.234734 240.363128,419.162417 244.832402,419.021306 C255.446927,419.162417 268.156425,418.043306 272.067039,416.787274 C277.932961,414.829877 279.469274,415.528449 280.167598,416.506449 C294.553073,435.78702 298.882682,452.273306 298.882682,459.957591 C298.882682,460.378131 298.743017,460.656163 298.743017,460.935591 M167.318436,111.09102 C165.502793,110.392449 164.52514,108.436449 165.223464,106.481846 L181.424581,60.9335914 C182.122905,59.1187029 184.078212,58.1393057 186.03352,58.8378771 C187.849162,59.5364486 188.826816,61.4924486 188.128492,63.4484486 L171.927374,108.995306 C171.22905,110.812989 169.273743,111.789591 167.318436,111.09102 M153.77095,106.20102 C152.234637,105.642163 151.396648,103.965591 151.955307,102.430131 L168.575419,55.7641629 C169.134078,54.2287029 170.810056,53.3904171 172.346369,53.9478771 C173.882682,54.5067343 174.581006,56.1847029 174.162011,57.72156 L157.402235,104.525846 C156.843575,105.922989 155.167598,106.759877 153.77095,106.20102 M140.083799,101.31102 C138.96648,100.893274 138.268156,99.6358457 138.687151,98.37702 L155.726257,50.45502 C156.145251,49.3387029 157.402235,48.6401314 158.659218,49.0578771 C159.776536,49.47702 160.47486,50.7358457 160.055866,51.9932743 L142.877095,99.9138771 C142.458101,101.171306 141.201117,101.73156 140.083799,101.31102 M199.581006,63.7278771 C201.396648,64.4264486 202.374302,66.3824486 201.675978,68.3384486 L185.335196,113.885306 C184.636872,115.702989 182.681564,116.679591 180.726257,116.120734 C178.910615,115.422163 177.932961,113.46756 178.631285,111.51156 L194.832402,65.9633057 C195.670391,64.0087029 197.765363,63.0293057 199.581006,63.7278771 M213.268156,68.6178771 C214.804469,69.1767343 215.642458,70.8547029 215.083799,72.39156 L198.324022,119.056131 C197.765363,120.592989 196.089385,121.429877 194.553073,120.87102 C193.01676,120.312163 192.318436,118.635591 192.73743,117.100131 L209.497207,70.2958457 C210.055866,68.8987029 211.731844,68.05902 213.268156,68.6178771 M226.955307,73.5078771 C228.072626,73.92702 228.77095,75.1858457 228.351955,76.4432743 L211.173184,124.363877 C210.75419,125.482989 209.497207,126.18156 208.240223,125.76102 C207.122905,125.343274 206.424581,124.085846 206.843575,122.82702 L224.022346,74.90502 C224.441341,73.6489886 225.698324,73.0901314 226.955307,73.5078771 M68.1564246,384.652989 C43.2960894,378.923306 27.7932961,368.724163 23.0446927,354.614417 C18.2960894,340.223846 24.5810056,321.362417 39.9441341,303.058449 C57.4022346,309.764734 72.0670391,317.86956 82.9608939,325.274417 C75.2793296,341.620989 69.972067,362.157591 68.1564246,384.652989 M246.927374,367.887274 C243.435754,365.092989 223.044693,347.487591 194.134078,327.927591 C165.223464,308.367591 171.927374,279.168703 197.905028,215.73702 C210.614525,187.095591 239.664804,151.330131 223.184358,127.158163 L239.385475,81.4729886 C242.039106,73.92702 238.128492,65.6838771 230.586592,63.0293057 L162.011173,38.7204171 C154.469274,36.0658457 146.22905,39.9764486 143.575419,47.52102 L127.513966,93.3487029 C114.944134,96.1429886 103.49162,114.583877 90.2234637,156.918703 C72.2067039,214.75902 60.6145251,262.122163 34.4972067,290.345846 C-2.79329609,330.443846 -6.98324022,384.233846 72.7653631,398.624417 C118.575419,406.588131 172.625698,453.949877 218.435754,473.090734 C229.469274,477.701306 247.346369,487.062163 305.865922,472.392163 C318.575419,469.878703 313.687151,414.272417 246.927374,367.887274" id="Fill-4" fill="#B32535"></path>
                </g>
            </g>
        </g>
    </g>
</svg>