<?xml version="1.0" encoding="UTF-8" standalone="no"?>
<svg width="500px" height="500px" viewBox="0 0 500 500" version="1.1" xmlns="http://www.w3.org/2000/svg" xmlns:xlink="http://www.w3.org/1999/xlink">
    <!-- Generator: Sketch 39.1 (31720) - http://www.bohemiancoding.com/sketch -->
    <title>CHC</title>
    <desc>Created with Sketch.</desc>
    <defs>
        <polygon id="path-1" points="0.375 500 493.9875 500 493.9875 6.0125 0.375 6.0125"></polygon>
    </defs>
    <g id="MLB" stroke="none" stroke-width="1" fill="none" fill-rule="evenodd">
        <g id="CHC">
            <g>
                <g id="Group-3">
                    <mask id="mask-2" fill="white">
                        <use xlink:href="#path-1"></use>
                    </mask>
                    <g id="Clip-2"></g>
                    <path d="M0,253.00625 C0,116.6 110.5875,6.0125 247,6.0125 C383.40625,6.0125 493.9875,116.6 493.9875,253.00625 C493.9875,389.41875 383.40625,500 247,500 C110.5875,500 0,389.41875 0,253.00625" id="Fill-1" fill="#FFFFFF" mask="url(#mask-2)"></path>
                </g>
                <path d="M246.91875,422.66875 C341.14375,422.66875 417.53125,346.275 417.53125,252.05 C417.53125,157.825 341.14375,81.43125 246.91875,81.43125 C152.6875,81.43125 76.3,157.825 76.3,252.05 C76.3,346.275 152.6875,422.66875 246.91875,422.66875 L246.91875,422.66875 Z M15.93125,252.05 C15.93125,124.48125 119.35,21.0625 246.91875,21.0625 C374.48125,21.0625 477.9125,124.48125 477.9125,252.05 C477.9125,379.61875 374.48125,483.04375 246.91875,483.04375 C119.35,483.04375 15.93125,379.61875 15.93125,252.05 L15.93125,252.05 Z" id="Fill-4" fill="#1E2E53"></path>
                <path d="M322.03125,300.26875 C306.15,324.95 278.4375,341.29375 246.91875,341.29375 C197.63125,341.29375 157.675,301.3375 157.675,252.05 C157.675,202.7625 197.63125,162.80625 246.91875,162.80625 C279.40625,162.80625 307.85,180.16875 323.45625,206.13125 L367.39375,163.3125 C340.13125,126.39375 296.33125,102.43125 246.91875,102.43125 C164.2875,102.43125 97.29375,169.41875 97.29375,252.05 C97.29375,334.68125 164.2875,401.675 246.91875,401.675 C295.8,401.675 339.2,378.23125 366.5125,341.975 L322.03125,300.26875" id="Fill-5" fill="#BE2531"></path>
                <path d="M220.525,266.86875 L220.525,212.60625 L247.3875,212.60625 L247.3875,267.5125 C247.3875,287.2375 242.75,291.86875 227.1,291.86875 L199.1375,291.86875 C186.26875,291.86875 182.1,283.53125 182.1,266.125 L182.1,212.60625 L208.95625,212.60625 L208.95625,266.86875 C208.95625,274.275 220.525,274.275 220.525,266.86875" id="Fill-6" fill="#BE2531"></path>
                <path d="M257.10625,291.86875 L257.10625,212.60625 L299.55625,212.60625 C315.5375,212.60625 322.39375,216.4 322.39375,234.91875 C322.39375,244.64375 320.5375,249.7375 314.975,252.5125 C322.39375,256.68125 322.39375,264.55 322.39375,271.5 C322.39375,289.0875 314.60625,291.86875 299.55625,291.86875 L257.10625,291.86875" id="Fill-7" fill="#BE2531"></path>
                <path d="M296.79375,234.2375 C296.6875,230.9875 293.6375,231.2125 285.34375,231.2125 L285.34375,242.33125 C289.975,242.33125 296.79375,242.7875 296.79375,238.625 L296.79375,234.2375" id="Fill-8" fill="#FFFFFF"></path>
                <path d="M296.59375,266.48125 C295.175,262.69375 294.375,263.1625 285.34375,263.1625 L285.34375,274.275 C291.1375,274.275 296.59375,274.7375 296.59375,270.56875 C296.59375,269.53125 296.875,267.2625 296.59375,266.48125" id="Fill-9" fill="#FFFFFF"></path>
                <path d="M376.025,291.86875 C390.4875,291.86875 397.95625,287.93125 397.95625,275.15 C397.95625,273.58125 397.8625,259 397.88125,257.38125 C397.95625,248.1125 391.28125,242.09375 381.94375,242.09375 L362.6,242.09375 C357.34375,242.09375 358.51875,234.45625 358.51875,232.14375 C358.51875,228.4375 369.45,227.28125 369.45,233.3 L369.45,237 L397.95625,237 C397.95625,218.48125 394.6125,212.60625 376.025,212.60625 C371.7125,212.69375 355.875,212.69375 350.98125,212.69375 C339.0625,212.69375 332.55,217.325 332.10625,231.2125 C331.6625,245.10625 332.10625,239.0875 332.10625,244.18125 C332.10625,249.26875 331.31875,260.61875 346.9,260.61875 L366.5875,260.61875 C372.1375,260.61875 371.0375,267.09375 371.0375,267.09375 L371.0375,271.2625 C371.0375,275.89375 361.6375,276.125 359.525,272.28125 C358.125,269.7375 358.85625,265.7125 358.85625,265.7125 L332.10625,265.7125 C332.10625,271.2625 329.10625,291.86875 345.2625,291.86875 L376.025,291.86875" id="Fill-10" fill="#BE2531"></path>
            </g>
        </g>
    </g>
</svg>