<?xml version="1.0" encoding="UTF-8" standalone="no"?>
<svg width="500px" height="500px" viewBox="0 0 500 500" version="1.1" xmlns="http://www.w3.org/2000/svg" xmlns:xlink="http://www.w3.org/1999/xlink">
    <!-- Generator: Sketch 39.1 (31720) - http://www.bohemiancoding.com/sketch -->
    <title>CHW</title>
    <desc>Created with Sketch.</desc>
    <defs>
        <polygon id="path-1" points="0 500 355.924068 500 355.924068 1.1402439 0 1.1402439"></polygon>
    </defs>
    <g id="MLB" stroke="none" stroke-width="1" fill="none" fill-rule="evenodd">
        <g id="CHW">
            <g transform="translate(70.000000, 0.000000)">
                <g id="Group-3">
                    <mask id="mask-2" fill="white">
                        <use xlink:href="#path-1"></use>
                    </mask>
                    <g id="Clip-2"></g>
                    <path d="M54.6223729,42.8109756 C41.7111864,56.5304878 29.2515254,83.75 27.4637288,102.213415 C26.8901695,108.109756 26.6033898,113.591463 26.6033898,118.731707 C26.6033898,137.22561 30.3925424,151.402439 38.660339,165.20122 C49.0271186,182.47561 65.4284746,196.682927 86.119322,206.27439 C105.620339,215.323171 133.718644,227.926829 137.074576,229.292683 C138.209492,229.75 139.704407,230.45122 141.284746,231.219512 C134.853559,235.890244 131.064407,238.634146 127.995254,240.853659 C110.611525,236.896341 88.7613559,239.945122 83.6725424,241.146341 C63.0061017,246.036585 44.060339,255.335366 30.319322,267.341463 C16.3098305,279.579268 5.81491525,293.628049 2.25152542,304.95122 C-1.71457627,317.536585 -0.439322034,326.47561 6.04677966,331.512195 C15.6020339,338.945122 27.9274576,331.335366 31.9728814,328.823171 C40.2833898,323.567073 55.580339,313.957317 74.8616949,311.097561 C91.6291525,308.609756 114.132203,310.896341 124.462373,317.646341 L124.462373,335.908537 C121.972881,338.182927 119.324746,340.597561 119.324746,340.597561 C116.71322,343.207317 115.328136,346.768293 115.328136,350.45122 C115.328136,352.176829 115.639322,353.926829 116.255593,355.609756 C118.00678,360.310976 121.942373,362.286585 121.942373,362.286585 C155.288136,382.591463 155.282034,382.591463 177.724068,396.262195 C177.400678,396.384146 176.735593,396.408537 176.485424,396.512195 C173.532203,397.810976 166.667797,402.109756 166.667797,414.079268 L166.667797,462.859756 L195.675254,490.560976 C202.106441,496.993902 208.336271,498.042683 212.430508,497.780488 C217.519322,497.469512 222.113898,494.993902 225.372203,490.804878 C225.372203,490.804878 244.684068,466.042683 256.649492,450.689024 C265.515254,464.402439 279.494237,486 279.494237,486 C279.341695,485.756098 279.823729,486.75 279.823729,486.75 C281.44678,490.22561 284.808814,497.457317 292.734915,499.506098 C296.249492,500.414634 301.814237,500.518293 308.251525,495.829268 C316.922034,489.530488 337.100339,473.804878 340.566102,470.347561 L341.200678,469.707317 C343.604746,467.353659 347.223051,463.768293 347.223051,457.871951 L347.223051,411.304878 C347.223051,406.29878 344.538305,399.969512 338.387797,397.493902 C333.884746,395.695122 328.734915,395.695122 322.590508,400.695122 C319.844746,402.926829 315.152542,406.317073 308.330847,411.469512 C304.383051,405.164634 302.265763,401.792683 299.275932,397.02439 C305.151864,389.640244 319.100339,372.067073 326.892203,362.237805 C327.898983,363.036585 329.936949,364.634146 329.936949,364.634146 L330.296949,364.865854 C338.491525,370.323171 344.751864,368.29878 347.741695,366.597561 C355.881356,362 356.052203,351.762195 355.899661,348.731707 L355.917966,309.621951 L331.27322,284.140244 C327.697627,280.109756 322.706441,278.04878 317.581017,278.469512 C312.345763,278.896341 307.519322,281.853659 304.675932,286.371951 C303.345763,288.280488 291.624407,303 279.457627,318.158537 L279.457627,266.987805 C280.958644,265.47561 282.520678,263.902439 282.520678,263.902439 C284.72339,261.987805 289.714576,255.804878 289.714576,248.579268 C289.714576,246.853659 289.44,245.067073 288.750508,243.262195 C287.334915,239.469512 283.911864,235.182927 276.394576,233.414634 C278.597288,224.853659 279.469831,216.579268 279.573559,210.20122 C279.573559,209.603659 279.585763,209 279.585763,208.408537 C279.585763,191.329268 275.656271,176.926829 267.870508,165.567073 C258.626441,152.067073 251.456949,147.536585 241.553898,141.256098 L238.997288,139.628049 C227.458983,132.268293 166.942373,100.487805 164.367458,99.1402439 C164.147797,99.0243902 141.174915,87.652439 141.174915,87.652439 C125.987797,79.9756098 124.901695,74.6097561 124.901695,71.6890244 C124.901695,71.5 124.913898,71.3353659 124.92,71.1707317 C125.273898,69.4085366 129.392542,63.0426829 138.063051,63.0426829 C146.947119,63.0426829 153.183051,63.3231707 164.873898,67.2439024 C183.404746,73.4573171 183.929492,80.9939024 183.941695,83.7865854 C183.892881,84.4695122 183.319322,92.2804878 183.319322,92.2804878 L221.857627,118.585366 L279.622373,44.5 L232.724746,13.152439 L226.507119,19.3719512 C224.426441,21.4512195 223.132881,22.6219512 222.345763,23.2073171 C221.442712,23.054878 219.014237,22.6402439 219.014237,22.6402439 L208.671864,18.7256098 C192.392542,12.152439 165.142373,1.1402439 140.351186,1.1402439 C96.9925424,1.1402439 74.2271186,21.7256098 54.6223729,42.8109756" id="Fill-1" fill="#FFFFFF" mask="url(#mask-2)"></path>
                </g>
                <path d="M131.406102,254.292683 L161.481356,232.47561 L161.481356,231.353659 C161.133559,226.292683 146.733559,219.628049 141.656949,217.439024 C138.801356,216.207317 111.087458,203.865854 91.1837288,194.628049 C72.8237288,186.121951 58.3444068,173.646341 49.3077966,158.567073 C42.6935593,147.542683 36.9762712,133.231707 39.8684746,103.365854 C41.3755932,87.8170732 52.7186441,63.0609756 63.6650847,51.4390244 C82.1044068,31.6036585 101.80678,13.8109756 140.052203,13.8109756 C162.372203,13.8109756 188.218983,24.25 203.662373,30.4878049 C209.59322,32.8841463 213.894915,34.6219512 216.317288,35.1036585 C224.792542,36.7987805 227.044068,36.4878049 234.195254,29.5426829 C236.672542,31.195122 257.534237,45.1463415 260.804746,47.3292683 C258.150508,50.7317073 221.302373,98 218.977627,100.987805 C216.134237,99.0487805 198.347797,86.9085366 196.56,85.6829268 C196.621017,84.902439 196.669831,84.0853659 196.669831,84.0792683 C196.669831,70.8292683 187.27322,61.0365854 168.742373,54.8292683 C155.227119,50.2987805 147.386441,49.945122 137.782373,49.945122 C121.118644,49.945122 111.929492,63.2317073 111.67322,70.347561 C111.246102,81.8292683 118.488814,90.7073171 135.122034,99.1219512 C135.140339,99.1280488 158.149831,110.518293 158.149831,110.518293 C158.72339,110.829268 220.820339,143.420732 231.907119,150.5 L234.524746,152.164634 C244.086102,158.231707 249.357966,161.573171 257.125424,172.896341 C263.629831,182.408537 266.821017,194.920732 266.583051,210.091463 C266.442712,218.939024 265.039322,231.847561 259.151186,243.073171 L257.253559,246.670732 L268.981017,245.585366 C273.185085,245.597561 276.034576,246.457317 276.595932,247.963415 C277.334237,249.908537 274.869153,253.554878 273.947797,254.359756 L266.302373,262.140244 L266.461017,262.853659 L266.461017,328.103659 L268.053559,328.573171 C271.580339,329.609756 277.816271,332.134146 279.530847,334.481707 L281.227119,336.810976 L283.039322,334.560976 C286.181695,330.664634 313.852881,296.317073 315.628475,293.493902 C316.305763,292.420732 317.495593,291.670732 318.679322,291.567073 C319.741017,291.487805 320.735593,291.95122 321.644746,292.95122 C321.644746,292.95122 339.955932,311.920732 343.055593,315.115854 L343.055593,349.579268 C343.061695,349.743902 343.061695,349.926829 343.061695,350.103659 C343.061695,352.262195 342.543051,355.085366 341.426441,355.713415 C340.736949,356.103659 339.272542,355.634146 337.503051,354.463415 C337.503051,354.45122 324.787119,344.481707 324.787119,344.481707 L283.435932,396.573171 L304.877288,430.75 L330.418983,411.445122 C332.023729,409.920732 332.975593,409.652439 333.372203,409.817073 C333.909153,410.042683 334.342373,411.060976 334.342373,411.743902 L334.342373,458.396341 C334.342373,458.908537 333.32339,459.908537 332.151864,461.060976 L331.462373,461.743902 C328.997288,464.219512 309.691525,479.384146 300.63661,485.957317 C298.738983,487.347561 297.152542,487.890244 295.950508,487.579268 C293.936949,487.060976 292.533559,484.060976 291.514576,481.865854 L290.324746,479.567073 L257.546441,428.896341 L214.999322,483.45122 C214.340339,484.310976 213.174915,485.359756 211.454237,485.463415 C209.379661,485.597561 207.03661,484.390244 204.626441,482 C204.626441,482 180.68339,459.121951 179.371525,457.865854 L179.371525,414.518293 C179.371525,410.963415 180.445424,409.22561 181.452203,408.780488 C182.574915,408.292683 184.362712,409.030488 186.235932,410.756098 C186.260339,410.786585 207.463729,429.682927 207.463729,429.682927 L236.959322,393.658537 L228.978305,380.365854 C228.978305,380.365854 207.439322,396.79878 205.285424,398.45122 C202.777627,396.932927 128.227119,351.512195 128.098983,351.439024 C128.019661,351.256098 127.952542,351.042683 127.952542,350.780488 C127.952542,350.493902 128.013559,350.207317 128.147797,350.067073 L137.068475,341.945122 L137.092881,340.95122 L137.092881,310.506098 L136.061695,309.853659 C130.057627,306.006098 125.188475,303.182927 116.511864,300.987805 C101.88,297.29878 84.6183051,296.646341 72.6040678,298.560976 C50.5952542,302.067073 33.0650847,312.823171 24.6691525,318.140244 C16.5722034,323.140244 14.0522034,322.054878 13.4664407,321.603659 C12.2338983,320.646341 11.6542373,316.792683 14.0705085,309.085366 C16.8711864,300.20122 26.4020339,287.713415 38.3552542,277.268293 C50.5708475,266.609756 67.5823729,258.29878 86.259661,253.884146 C93.6,252.146341 116.438644,249.878049 129.349831,254.579268 L130.460339,254.97561 L131.406102,254.292683 L131.406102,254.292683 Z M60.4250847,48.4146341 C48.7464407,60.8292683 37.0738983,86.3109756 35.4569492,102.945122 C34.92,108.52439 34.639322,113.695122 34.639322,118.52439 C34.639322,135.506098 38.0623729,148.414634 45.5125424,160.841463 C55.0067797,176.682927 70.1572881,189.75 89.3227119,198.640244 C109.714576,208.097561 136.995254,220.310976 139.991186,221.530488 C145.580339,223.804878 154.055593,228.408537 156.282712,230.792683 C153.36,232.914634 131.015593,249.115854 129.6,250.140244 C114.901017,245.371951 91.7938983,248.030488 85.2467797,249.585366 C65.8738983,254.164634 48.1911864,262.817073 35.4508475,273.945122 C22.7288136,285.04878 12.9294915,298.012195 9.85423729,307.768293 C7.05966102,316.634146 7.36474576,322.463415 10.7633898,325.091463 C14.0522034,327.652439 19.3667797,326.603659 27.0122034,321.878049 C35.1762712,316.719512 52.1328814,306.079268 73.2386441,302.939024 C88.8650847,300.609756 104.595254,302.420732 116.383729,305.335366 C116.383729,305.335366 125.475254,308.134146 132.669153,312.981707 L132.669153,339.97561 C131.430508,341.097561 125.023729,346.945122 125.023729,346.945122 C123.955932,348.006098 123.528814,349.432927 123.528814,350.780488 C123.528814,351.567073 123.675254,352.335366 123.925424,353 C124.505085,354.567073 126.061017,355.365854 126.061017,355.365854 L205.553898,403.79878 C205.553898,403.79878 224.444746,389.378049 227.733559,386.878049 C229.03322,389.036585 230.674576,391.762195 231.571525,393.262195 C229.844746,395.371951 209.477288,420.243902 206.96339,423.310976 C204.101695,420.762195 189.207458,407.481707 189.207458,407.481707 C184.783729,403.408537 181.336271,404.018293 179.67661,404.743902 C176.668475,406.054878 174.953898,409.628049 174.953898,414.518293 L174.953898,459.75 L201.502373,485.121951 C205.712542,489.317073 209.379661,490.018293 211.728814,489.871951 C214.364746,489.713415 216.750508,488.396341 218.501695,486.158537 C218.501695,486.158537 249.211525,446.780488 257.204746,436.518293 C260.218983,441.189024 286.608814,481.963415 286.608814,481.963415 L287.505763,483.737805 C288.817627,486.560976 290.800678,490.810976 294.84,491.859756 C297.390508,492.512195 300.215593,491.737805 303.242034,489.536585 C311.882034,483.25 331.767458,467.695122 334.598644,464.859756 L335.251525,464.213415 C337.210169,462.27439 338.76,460.75 338.76,458.396341 L338.76,411.743902 C338.76,409.542683 337.509153,406.77439 335.098983,405.756098 C333.488136,405.067073 330.858305,404.908537 327.557288,408.091463 C327.722034,407.945122 311.540339,420.164634 306.061017,424.310976 C303.925424,420.914634 290.251525,399.121951 288.842034,396.871951 C290.623729,394.634146 323.042034,353.792683 325.519322,350.676829 C327.984407,352.609756 334.922034,358.042683 334.922034,358.042683 C338.430508,360.390244 341.304407,360.865854 343.610847,359.560976 C347.711186,357.237805 347.503729,350.256098 347.47322,349.47561 L347.47322,313.335366 L324.945763,290.018293 C323.121356,287.97561 320.772203,286.963415 318.307119,287.164634 C315.75661,287.378049 313.303729,288.902439 311.882034,291.134146 C310.692203,293.036585 293.277966,314.786585 281.019661,330.030488 C277.84678,327.487805 273.319322,325.658537 270.884746,324.841463 L270.884746,263.743902 C271.690169,262.926829 276.870508,257.689024 276.870508,257.689024 C277.718644,256.95122 281.166102,252.95122 281.166102,248.792683 C281.166102,247.993902 281.044068,247.195122 280.745085,246.402439 C279.439322,242.932927 275.406102,241.176829 268.773559,241.176829 C268.669831,241.182927 266.570847,241.371951 264.569492,241.560976 C269.444746,230.487805 270.878644,218.585366 271.00678,210.158537 C271.00678,209.603659 271.018983,209.04878 271.018983,208.5 C271.018983,193.140244 267.577627,180.323171 260.762034,170.396341 C252.500339,158.323171 246.624407,154.597561 236.886102,148.432927 L234.28678,146.780488 C223.029153,139.597561 162.72,107.932927 160.157288,106.585366 C160.108475,106.560976 137.098983,95.1646341 137.098983,95.1646341 C118.970847,86 116.072542,78.0426829 116.072542,71.402439 C116.072542,71.1036585 116.072542,70.804878 116.090847,70.5060976 C116.28,65.0304878 124.12678,54.3658537 137.782373,54.3658537 C147.258305,54.3658537 154.433898,54.6890244 167.338983,59.0182927 C184.106441,64.6402439 192.258305,72.7865854 192.264407,83.9329268 C192.246102,83.945122 191.959322,87.8963415 191.959322,87.8963415 L219.917288,106.981707 L267.217627,46.2987805 L233.67661,23.8780488 L232.383051,25.1585366 C225.183051,32.3719512 224.877966,32.3109756 217.183729,30.7682927 C215.157966,30.3658537 210.819661,28.6097561 205.303729,26.3902439 C189.573559,20.0304878 163.232542,9.39634146 140.052203,9.39634146 C100.031186,9.39634146 79.56,27.8536585 60.4250847,48.4146341 L60.4250847,48.4146341 Z" id="Fill-4" fill="#C1C9CA"></path>
                <path d="M354.868475,494.536585 L352.604746,494.536585 L352.604746,485.75 L352.555932,485.75 L349.352542,494.536585 L347.180339,494.536585 L344.08678,485.75 L344.037966,485.75 L344.037966,494.536585 L341.774237,494.536585 L341.774237,483.487805 L345.685424,483.487805 L348.254237,490.707317 L348.303051,490.707317 L350.975593,483.487805 L354.868475,483.487805 L354.868475,494.536585 L354.868475,494.536585 Z M339.748475,485.457317 L336.410847,485.457317 L336.410847,494.536585 L334.159322,494.536585 L334.159322,485.457317 L330.833898,485.457317 L330.833898,483.487805 L339.748475,483.487805 L339.748475,485.457317 L339.748475,485.457317 Z" id="Fill-5" fill="#1A1918"></path>
                <path d="M204.181017,355.243902 L178.407458,339.5 L178.407458,300.47561 C189.207458,298.560976 215.542373,286.012195 229.191864,272.384146 C229.35661,274.963415 229.307797,301.036585 229.24678,318.707317 L213.431186,293.512195 L189.317288,310.634146 L189.317288,341.292683 L202.655593,332.457317 L212.650169,348.365854 L204.181017,355.243902 L204.181017,355.243902 Z M178.407458,260.786585 L193.124746,250.018293 C197.121356,253.341463 201.837966,256.359756 206.524068,259.054878 C206.212881,259.329268 205.974915,259.542683 205.974915,259.542683 C205.974915,259.542683 189,274.060976 178.407458,275.54878 L178.407458,260.786585 L178.407458,260.786585 Z M339.461695,350.268293 L339.461695,317.128049 L318.722034,298.487805 L261.292881,369.762195 L253.214237,356.896341 C260.212881,351.670732 269.225085,344.969512 270.231864,344.469512 C271.891525,343.634146 276.034576,341.158537 278.096949,341.158537 C279.976271,341.158537 275.204746,332.871951 261.518644,332.871951 L261.518644,259.542683 L269.395932,250.841463 C269.395932,250.841463 259.816271,252.347561 255.301017,250.969512 C254.349153,250.676829 252.726102,249.902439 250.773559,248.884146 C253.342373,244.780488 255.648814,240.134146 257.381695,234.689024 C266.790508,204.987805 260.633898,177.567073 238.307797,160.658537 C222.644746,148.79878 158.302373,116.262195 158.302373,116.262195 C158.302373,116.262195 119.379661,97.2012195 115.181695,93.0060976 C112.185763,90 106.071864,85.3414634 106.071864,70.6341463 C106.071864,61.8658537 115.840678,52.2073171 120.056949,50.2134146 C126.79322,47.0243902 128.995932,45.5182927 142.639322,45.3170732 C150.364068,45.2012195 157.527458,47.0609756 158.503729,47.1646341 C166.997288,48.0609756 187.108475,54.6829268 197.475254,68.7073171 C201.447458,72.6768293 202.240678,84.304878 202.240678,84.304878 L218.404068,94.6585366 L253.641356,48.6768293 L234.573559,35.8353659 C229.191864,41.6402439 218.825085,42.0487805 214.675932,39.9817073 C210.52678,37.9085366 174.953898,24.9573171 169.901695,23.347561 C160.364746,20.2987805 139.64339,18.0243902 128.452881,19.6829268 C117.256271,21.3414634 98.8840678,24.7378049 84.5023729,39.9817073 C67.7166102,57.7926829 67.5091525,72.0853659 67.5091525,79.75 C67.5091525,91.7621951 70.6149153,107.652439 84.0874576,121.115854 C103.509153,140.512195 133.004746,152.658537 139.64339,156.329268 C151.431864,162.841463 188.572881,182.262195 193.948475,185.390244 C216.744407,198.646341 225.451525,212.731707 222.974237,230.542683 C222.846102,231.420732 222.577627,232.231707 222.382373,233.085366 C212.387797,227.207317 198.335593,218.359756 192.697627,212.731707 C192.697627,212.731707 189.28678,216.353659 187.108475,218.530488 L170.560678,230.914634 C172.507119,222.871951 172.738983,209.128049 172.391186,207.762195 C171.976271,206.103659 170.731525,192.841463 159.126102,184.560976 C151.254915,178.939024 133.63322,168.402439 118.501017,160.95122 C112.002712,157.75 90.8786441,144.97561 80.780339,136.567073 C80.780339,136.567073 63.3722034,120.347561 60.6752542,110.402439 C55.4888136,99.0121951 55.2874576,72.0853659 57.9783051,69.3902439 C57.9783051,69.3902439 51.3457627,76.847561 46.7816949,91.7621951 C44.5545763,99.0487805 43.0535593,108.542683 43.0535593,114.963415 C43.0535593,125.731707 44.9145763,144.579268 56.7335593,160.536585 C61.9444068,167.560976 70.120678,175.560976 78.7545763,181.262195 C89.3227119,188.231707 99.9518644,192.329268 100.671864,192.841463 C103.576271,194.914634 130.936271,206.45122 133.425763,207.695122 C135.909153,208.939024 148.454237,214.768293 151.120678,216.195122 C160.56,221.243902 165.423051,224.481707 168.40678,232.52439 L140.052203,253.743902 C140.052203,253.743902 141.296949,256.018293 141.296949,259.542683 L141.296949,262.22561 C137.471186,260.963415 133.584407,259.853659 129.697627,259.189024 C111.038644,256.018293 99.6894915,256.213415 84.9233898,259.853659 C68.5464407,263.890244 51.3457627,270.5 35.1762712,286.658537 C16.92,304.896341 17.1457627,317.128049 17.1457627,317.128049 L35.3776271,306.378049 C50.6318644,297.810976 70.7125424,292.689024 84.9233898,292.689024 C118.818305,292.689024 136.40339,302.463415 141.296949,307.908537 L141.296949,340.743902 C141.296949,347.268293 139.332203,348.091463 137.886102,349.335366 C137.324746,349.817073 136.842712,349.853659 134.877966,351.20122 C134.877966,351.20122 137.367458,352.128049 137.989831,352.762195 C139.64339,354 204.181017,392.939024 204.181017,392.939024 L229.173559,374.646341 L241.511186,394.286585 L207.213559,436.853659 L183.587797,415.304878 L183.587797,455.493902 L210.52678,480.353659 L258.101695,420.670732 L297.170847,482.835366 L328.68,457.567073 L328.68,417.79878 L303.400678,436.853659 L277.761356,396.006098 L324.122034,337.841463 L339.461695,350.268293 L339.461695,350.268293 Z" id="Fill-6" fill="#1A1918"></path>
            </g>
        </g>
    </g>
</svg>