<?xml version="1.0" encoding="UTF-8" standalone="no"?>
<svg width="500px" height="500px" viewBox="0 0 500 500" version="1.1" xmlns="http://www.w3.org/2000/svg" xmlns:xlink="http://www.w3.org/1999/xlink">
    <!-- Generator: Sketch 39.1 (31720) - http://www.bohemiancoding.com/sketch -->
    <title>CIN</title>
    <desc>Created with Sketch.</desc>
    <defs>
        <polygon id="path-1" points="0.322580645 344 495.66129 344 495.66129 5.23525 0.322580645 5.23525"></polygon>
    </defs>
    <g id="MLB" stroke="none" stroke-width="1" fill="none" fill-rule="evenodd">
        <g id="CIN">
            <g transform="translate(0.000000, 78.000000)">
                <g id="Group-3">
                    <mask id="mask-2" fill="white">
                        <use xlink:href="#path-1"></use>
                    </mask>
                    <g id="Clip-2"></g>
                    <path d="M278.602151,344 C416.634409,344 495.66129,253.915 495.66129,172.145125 C495.66129,74.234125 386.268817,5.23525 269.462366,5.23525 L269.462366,5.240625 C175.688172,5.240625 110.688172,60.710625 75.344086,102.71625 C26.811828,160.40075 0,167.743 0,167.743 C37.5860215,200.67025 55.2688172,217.413375 72.7150538,236.290375 C121.935484,289.535125 162.704301,344 278.602151,344" id="Fill-1" fill="#CB2437" mask="url(#mask-2)"></path>
                </g>
                <path d="M276.204301,320.78 C175.935484,320.78 136.510753,277.785375 90.0752688,228.49125 C71.0376344,208.28125 59.1290323,190.017 28.2956989,167.28075 L34.6290323,181.933 C64.2741935,206.179625 76.516129,223.69675 95.5591398,243.901375 C141.989247,293.200875 180.736559,332.003 281.005376,332.003 C368.795699,332.003 436.741935,288.642875 468.698925,235.2745 L463.892473,224.0515 C431.94086,277.4145 363.983871,320.78 276.204301,320.78" id="Fill-4" fill="#1A1918"></path>
                <path d="M278.768817,69.7675 C180.709677,69.7675 142.209677,134.939375 142.209677,166.152 C142.209677,184.24425 147.478495,200.15425 156.451613,213.71 C150.575269,202.685875 149.193548,186.077125 149.193548,175.337875 C149.193548,144.119875 186.215054,81.210875 282.096774,81.210875 C339.768817,81.210875 383.27957,107.8225 397.897849,130.918875 L470.505376,130.918875 C469.177419,128.2905 465.935484,119.480875 465.935484,119.480875 L396.596774,119.480875 C381.983871,96.3845 336.435484,69.7675 278.768817,69.7675" id="Fill-5" fill="#1A1918"></path>
                <path d="M90.0752688,228.49125 C136.510753,277.785375 175.935484,320.78 276.204301,320.78 C363.983871,320.78 431.94086,277.4145 463.892473,224.0515 L395.327957,224.0515 C363.258065,248.405625 323.951613,268.056625 273.994624,268.056625 C227.88172,268.056625 179.704301,248.83025 156.451613,213.71 C147.478495,200.15425 142.209677,184.24425 142.209677,166.152 C142.209677,134.939375 180.709677,69.7675 278.768817,69.7675 C336.435484,69.7675 381.983871,96.3845 396.596774,119.480875 L465.935484,119.480875 C433.774194,55.991375 350.763441,17.7375 267.752688,17.7375 C186.215054,17.7375 123.919355,64.752625 88.155914,107.0915 C40.7688172,163.21725 28.2956989,167.28075 28.2956989,167.28075 C59.1290323,190.017 71.0376344,208.28125 90.0752688,228.49125" id="Fill-6" fill="#FFFFFF"></path>
                <polyline id="Fill-7" fill="#1A1918" points="319.629032 159.782625 304.193548 159.782625 304.193548 152.386625 281.139785 152.386625 281.139785 167.40975 288.736559 167.40975 288.736559 159.976125 303.94086 159.976125 311.784946 167.372125 327.215054 167.372125 327.215054 146.861125 319.629032 139.277 319.629032 159.782625"></polyline>
                <polyline id="Fill-8" fill="#1A1918" points="255.543011 207.948 263.026882 215.542875 327.215054 215.542875 327.215054 195.48875 319.629032 187.89925 319.629032 207.948 255.543011 207.948"></polyline>
                <polyline id="Fill-9" fill="#1A1918" points="281.139785 180.28825 281.139785 195.29525 288.736559 195.29525 288.736559 187.87775 307.709677 187.87775 307.709677 174.99925 300.11828 167.40975 300.11828 180.28825 281.139785 180.28825"></polyline>
                <polyline id="Fill-10" fill="#1A1918" points="255.543011 152.386625 263.026882 159.976125 265.72043 159.976125 265.72043 152.386625 255.543011 152.386625"></polyline>
                <polyline id="Fill-11" fill="#1A1918" points="167.354839 152.386625 174.94086 159.976125 177.639785 159.976125 177.639785 152.386625 167.354839 152.386625"></polyline>
                <polyline id="Fill-12" fill="#1A1918" points="167.354839 207.948 174.94086 215.542875 210.935484 215.542875 210.935484 202.900875 203.33871 195.311375 203.33871 207.948 167.354839 207.948"></polyline>
                <polyline id="Fill-13" fill="#1A1918" points="222.580645 176.778375 230.580645 195.311375 234.897849 195.311375 230.166667 184.367875 241.596774 174.99925 241.596774 159.900875 234 152.311375 234 167.40975 222.580645 176.778375"></polyline>
                <polyline id="Fill-14" fill="#1A1918" points="193.05914 180.132375 193.05914 195.311375 200.650538 195.311375 200.650538 187.7165 210.88172 187.7165 207.61828 180.132375 193.05914 180.132375"></polyline>
                <polyline id="Fill-15" fill="#1A1918" points="239.177419 207.948 219.575269 207.948 227.166667 215.542875 246.768817 215.542875 246.768817 202.900875 239.177419 195.311375 239.177419 207.948"></polyline>
                <polyline id="Fill-16" fill="#1A1918" points="218.575269 159.976125 218.575269 155.643875 214.677419 152.386625 193.05914 152.386625 193.05914 167.47425 200.650538 167.47425 200.650538 159.976125 218.575269 159.976125"></polyline>
                <polyline id="Fill-17" fill="#FFFFFF" points="281.139785 152.386625 304.193548 152.386625 304.193548 159.782625 319.629032 159.782625 319.629032 139.277 255.44086 139.277 255.44086 152.386625 265.72043 152.386625 265.72043 195.29525 255.543011 195.29525 255.543011 195.311375 255.44086 195.311375 255.44086 207.948 319.629032 207.948 319.629032 187.89925 304.193548 187.89925 304.193548 195.29525 281.139785 195.29525 281.139785 180.28825 300.11828 180.28825 300.11828 167.40975 281.139785 167.40975 281.139785 152.386625"></polyline>
                <path d="M200.650538,167.47425 L193.05914,167.47425 L193.05914,152.386625 L214.677419,152.386625 L218.575269,155.643875 L218.575269,164.3675 L214.854839,167.47425 L200.650538,167.47425 L200.650538,167.47425 Z M239.177419,195.311375 L230.580645,195.311375 L222.580645,176.778375 L234,167.40975 L234,152.311375 L218.489247,139.277 L167.354839,139.277 L167.354839,152.386625 L177.639785,152.386625 L177.639785,195.311375 L167.354839,195.311375 L167.354839,207.948 L203.33871,207.948 L203.33871,195.311375 L193.05914,195.311375 L193.05914,180.132375 L207.61828,180.132375 L219.575269,207.948 L239.177419,207.948 L239.177419,195.311375 L239.177419,195.311375 Z" id="Fill-18" fill="#FFFFFF"></path>
                <polyline id="Fill-19" fill="#1A1918" points="335.913978 152.386625 343.392473 159.976125 346.086022 159.976125 346.086022 152.386625 335.913978 152.386625"></polyline>
                <polyline id="Fill-20" fill="#1A1918" points="384.564516 159.976125 384.564516 155.643875 380.666667 152.386625 361.510753 152.386625 361.510753 195.29525 369.096774 195.29525 369.096774 159.976125 384.564516 159.976125"></polyline>
                <polyline id="Fill-21" fill="#1A1918" points="399.978495 195.23075 384.478495 207.948 335.913978 207.948 343.392473 215.542875 387.231183 215.542875 407.575269 198.875 407.575269 159.900875 399.978495 152.311375 399.978495 195.23075"></polyline>
                <polyline id="Fill-22" fill="#1A1918" points="450.704301 180.28825 431.247312 180.28825 415.822581 167.40975 440.258065 187.87775 454.569892 187.87775 454.569892 183.518625 450.704301 180.28825"></polyline>
                <polyline id="Fill-23" fill="#1A1918" points="477.494624 187.87775 469.908602 180.28825 469.994624 195.053375 454.5 208.093125 435.198925 208.093125 431.155914 204.685375 431.155914 208.2705 415.822581 208.2705 423.413978 215.86 438.741935 215.86 438.741935 212.2695 442.790323 215.67725 457.591398 215.67725 477.564516 199.305 477.494624 187.87775"></polyline>
                <polyline id="Fill-24" fill="#1A1918" points="454.569892 159.782625 454.569892 155.64925 450.634409 152.354375 435.44086 152.38125 431.478495 155.6815 431.478495 164.200875 435.333333 167.40975 439.069892 167.40975 439.069892 163.265625 443.032258 159.97075 454.33871 159.954625 462.16129 167.372125 477.494624 167.372125 477.494624 146.861125 469.908602 139.277 469.908602 159.782625 454.569892 159.782625"></polyline>
                <polyline id="Fill-25" fill="#1A1918" points="434.913978 195.18775 439.043011 195.22 431.155914 187.7595 431.155914 192.0595 434.913978 195.18775"></polyline>
                <path d="M369.096774,195.29525 L361.510753,195.29525 L361.510753,152.386625 L380.666667,152.386625 L384.564516,155.643875 L384.564516,192.1885 L380.844086,195.29525 L369.096774,195.29525 L369.096774,195.29525 Z M399.978495,195.23075 L399.978495,152.311375 L384.478495,139.277 L335.795699,139.277 L335.795699,152.386625 L346.086022,152.386625 L346.086022,195.29525 L335.913978,195.29525 L335.913978,195.311375 L335.795699,195.311375 L335.795699,207.948 L384.478495,207.948 L399.978495,195.23075 L399.978495,195.23075 Z" id="Fill-26" fill="#FFFFFF"></path>
                <polyline id="Fill-27" fill="#FFFFFF" points="431.155914 204.685375 435.198925 208.093125 454.5 208.093125 469.994624 195.053375 469.908602 180.28825 454.483871 167.40975 435.333333 167.40975 431.478495 164.200875 431.478495 155.6815 435.44086 152.38125 450.634409 152.354375 454.569892 155.64925 454.569892 159.782625 469.908602 159.782625 469.908602 139.277 454.569892 139.277 454.569892 142.614875 450.602151 139.277 431.564516 139.277 415.822581 152.311375 415.822581 167.40975 431.247312 180.28825 450.704301 180.28825 454.569892 183.518625 454.569892 192.17775 450.827957 195.306 439.043011 195.22 434.913978 195.18775 431.155914 192.0595 431.155914 187.7595 415.822581 187.7595 415.822581 208.2705 431.155914 208.2705 431.155914 204.685375"></polyline>
            </g>
        </g>
    </g>
</svg>