<svg width="500" height="500" viewBox="0 0 500 500" fill="none" xmlns="http://www.w3.org/2000/svg">
<path d="M386.273 191.909C393.372 145.594 405.036 71.5574 411.628 21.0165C386.048 15.7201 357.988 13.9171 324.97 13.579C323.336 17.9175 320.181 26.4819 318.603 30.8767C300.517 21.8616 268.964 7.32477 250.427 0C205.126 17.2414 142.358 45.2445 92.0989 71.501C102.973 124.07 106.016 161.314 106.016 218.729C106.016 304.091 98.1278 375.873 89 434.922C130.3 455.094 199.491 483.998 246.821 500C311.222 477.575 371.285 453.291 409.092 434.359C405.824 406.468 394.556 347.419 385.371 308.655C358.833 309.5 322.491 312.711 301.08 316.092V383.029C289.023 387.593 263.386 395.03 247.44 398.298C233.298 394.185 215.493 388.1 200.111 382.071C198.815 339.869 198.477 266.115 198.477 226.842C198.477 197.093 199.041 145.087 199.548 119.901C216.338 113.027 232.904 106.378 250.089 100.575C266.034 105.42 282.43 111.224 297.981 117.309C298.376 138.438 298.995 174.555 299.221 196.529C325.759 197.769 357.763 195.853 386.273 191.909Z" fill="white"/>
<path d="M315.674 328.882V393.228C293.7 401.228 271.162 408.215 246.765 413.286C225.974 406.919 205.408 399.989 185.687 392.044C184.561 343.87 183.265 278.736 183.828 226.561C184.279 184.979 184.053 149.989 185.124 110.041C205.577 101.026 230.538 91.6161 249.807 85.0801C271.951 91.6724 291.84 99.0536 312.462 107.054C312.744 123.056 313.533 160.694 313.758 182.274C328.802 182.838 349.706 181.316 373.54 178.612C381.033 129.818 388.696 79.2767 395.514 33.0743C377.033 29.8627 355.171 28.6231 335.113 28.3414L326.605 51.3299C301.87 38.596 277.022 26.8201 250.202 15.7202C200.675 35.1027 154.98 55.7811 108.496 79.4457C117.116 123.789 120.553 158.722 120.553 218.616C120.553 297.104 113.623 370.183 105.059 426.189C151.993 448.163 197.689 467.095 246.765 484.336C296.968 466.757 346.325 447.882 393.147 425.569C390.443 405.623 381.653 358.632 373.709 323.699C354.664 324.656 335.563 326.347 315.674 328.882Z" fill="#CE0E2D"/>
</svg>
