<?xml version="1.0" encoding="UTF-8" standalone="no"?>
<svg width="500px" height="500px" viewBox="0 0 500 500" version="1.1" xmlns="http://www.w3.org/2000/svg" xmlns:xlink="http://www.w3.org/1999/xlink">
    <!-- Generator: Sketch 39.1 (31720) - http://www.bohemiancoding.com/sketch -->
    <title>COL</title>
    <desc>Created with Sketch.</desc>
    <defs></defs>
    <g id="MLB" stroke="none" stroke-width="1" fill="none" fill-rule="evenodd">
        <g id="COL">
            <g id="Page-1" transform="translate(43.000000, 0.000000)">
                <path d="M100.275169,32.8439425 C100.275169,32.8439425 17.9008438,65.1101363 17.8167979,170.038268 C17.7140752,277.523801 97.2401778,297.843009 97.2401778,297.843009 C97.2401778,297.843009 56.3004838,246.452305 56.4218834,163.971439 C56.5712984,75.1717379 100.275169,32.8439425 100.275169,32.8439425" id="Fill-1" fill="#24358E"></path>
                <g id="Group-5" transform="translate(0.000000, 0.228673)" fill="#C4CED3">
                    <path d="M322.847401,475.377077 C322.847401,475.377077 278.247041,395.668284 257.73984,367.107523 C257.73984,367.107523 272.793396,364.727459 280.133405,362.61807 C286.829062,360.704685 291.703724,358.781968 291.703724,358.781968 C309.185272,367.583536 334.174921,406.597909 347.528882,438.509427 C361.919408,467.303528 372.210362,475.48908 372.210362,475.48908 L322.847401,475.377077 Z M219.265493,342.056188 L219.265493,325.51708 C220.787658,325.461079 222.328499,325.377077 223.822649,325.377077 C228.706649,325.377077 233.161082,325.377077 236.803072,326.385104 C240.86529,326.889117 244.936847,327.906478 248.578837,329.427851 L249.81151,325.871757 C261.568598,291.402837 271.308585,253.89117 274.549021,224.985066 L255.479939,224.985066 C245.786645,250.960426 233.674696,270.402277 219.265493,283.394624 L219.265493,203.303155 L238.913558,203.303155 C277.798796,203.303155 298.259305,229.343849 298.259305,268.918238 C298.259305,320.51428 277.425259,343.064215 219.265493,342.056188 L219.265493,342.056188 Z M355.074336,272.268994 C355.251766,325.003733 290.704512,338.294755 290.704512,338.294755 C290.704512,338.294755 314.545533,323.930371 314.56421,272.85701 C314.592225,221.298301 291.750416,206.709912 291.750416,206.709912 C291.750416,206.709912 354.906244,212.403397 355.074336,272.268994 L355.074336,272.268994 Z M202.951249,475.237073 L168.324336,475.237073 L168.324336,206.747247 L202.951249,204.35785 L202.951249,475.237073 Z M17.8167979,169.804928 C17.9008438,64.8861303 100.275169,32.6106029 100.275169,32.6106029 C100.275169,32.6106029 56.5712984,74.9477319 56.4218834,163.747433 C56.3004838,246.218966 97.2401778,297.60967 97.2401778,297.60967 C97.2401778,297.60967 17.7140752,277.290461 17.8167979,169.804928 L17.8167979,169.804928 Z M380.381492,463.980773 C363.348189,447.226993 332.260542,359.276647 306.570511,353.489826 C315.992991,348.767034 375.245353,334.962666 375.516168,270.924958 C375.245353,201.679111 311.090313,179.250513 246.935272,179.250513 C233.301159,179.250513 208.442248,180.25854 183.181784,181.751913 C151.104264,183.758634 134.668621,185.26134 110.229939,187.258727 L110.229939,210.807355 C144.68876,210.807355 151.907369,218.824902 151.907369,256.401904 L151.907369,301.193765 C104.430772,291.178831 73.2590797,238.369423 73.2590797,164.148777 C73.2590797,85.5600149 110.201924,30.2958746 164.159395,30.2958746 C184.46115,30.2958746 202.306897,38.4160911 216.510655,53.1164831 C230.73309,67.8075415 240.86529,89.1067762 245.329062,114.970133 L264.398144,114.970133 L260.774831,9.00597349 L245.730614,9.00597349 C244.115065,14.0741086 242.097964,16.1088296 238.418621,16.1088296 C228.28642,16.1088296 204.361352,0.895090536 160.928297,0.895090536 C113.853252,0.895090536 73.6699707,18.1342169 45.6826845,48.5523614 C17.2658303,79.4745193 1.02629388,121.559642 1.02629388,172.25966 C1.02629388,207.241926 11.167833,246.788314 34.327149,278.214486 C57.4397727,309.659324 94.7841697,332.470599 149.143193,332.470599 C150.086375,332.470599 150.982865,332.395931 151.907369,332.377263 L151.907369,431.229233 C151.907369,467.798208 143.894993,475.311742 110.229939,475.311742 L110.229939,498.86037 L262.175596,498.86037 L262.175596,475.311742 C230.891843,475.311742 219.265493,470.803621 219.265493,433.739966 L219.265493,366.603509 L240.519768,366.603509 C240.519768,366.603509 318.831874,498.88837 320.970376,498.879037 C326.517405,498.86037 414.504129,498.823035 414.504129,498.823035 L414.504129,475.395744 C414.504129,475.395744 396.826474,478.298488 380.381492,463.980773 L380.381492,463.980773 Z" id="Fill-3"></path>
                </g>
                <polygon id="Fill-6" fill="#24358E" points="168.32527 475.464812 202.952183 475.464812 202.952183 204.585589 168.32527 206.974986"></polygon>
                <path d="M314.567012,273.087549 C314.548335,324.160911 290.697975,338.525294 290.697975,338.525294 C290.697975,338.525294 355.24523,325.234273 355.077138,272.499533 C354.899707,212.633937 291.753218,206.940452 291.753218,206.940452 C291.753218,206.940452 314.595027,221.528841 314.567012,273.087549" id="Fill-8" fill="#24358E"></path>
                <path d="M347.525146,438.7409 C334.171186,406.829382 309.190875,367.805675 291.699989,359.01344 C291.699989,359.01344 286.825326,360.936158 280.129669,362.849543 C272.78966,364.949599 257.745443,367.338996 257.745443,367.338996 C278.243306,395.890424 322.843666,475.60855 322.843666,475.60855 L372.206627,475.711219 C372.206627,475.711219 361.915673,467.535001 347.525146,438.7409" id="Fill-10" fill="#24358E"></path>
            </g>
        </g>
    </g>
</svg>