<?xml version="1.0" encoding="UTF-8" standalone="no"?>
<svg width="500px" height="500px" viewBox="0 0 500 500" version="1.1" xmlns="http://www.w3.org/2000/svg" xmlns:xlink="http://www.w3.org/1999/xlink">
    <!-- Generator: Sketch 39.1 (31720) - http://www.bohemiancoding.com/sketch -->
    <title>DET</title>
    <desc>Created with Sketch.</desc>
    <defs></defs>
    <g id="MLB" stroke="none" stroke-width="1" fill="none" fill-rule="evenodd">
        <g id="DET">
            <g transform="translate(53.000000, 0.000000)">
                <g id="Group-3" fill="#FFFFFF">
                    <path d="M289.00777,334.514141 C275.838514,337.566731 269.296413,337.694514 255.375842,334.514141 L255.375842,394.12483 C258.23934,395.431054 262.633818,397.425886 265.419349,398.313267 C271.940187,395.189687 284.875544,389.467856 289.00777,387.302647 L289.00777,334.514141 L289.00777,334.514141 Z M289.00777,212.65192 C276.107853,207.973648 266.943241,209.507042 255.375842,211.672251 L255.375842,269.266811 C264.143533,273.249375 281.530071,271.169355 289.00777,269.408791 L289.00777,212.65192 L289.00777,212.65192 Z M289.00777,112.150727 C276.107853,107.472456 266.943241,109.00585 255.375842,111.178158 L255.375842,147.894423 C264.441224,145.473648 273.329409,143.940254 289.00777,148.015107 L289.00777,112.150727 L289.00777,112.150727 Z M282.416054,11.7205248 C334.526051,11.7205248 390.201245,44.2767492 387.25978,122.863187 C385.494901,169.489721 374.650465,357.742219 393.915287,435.015334 C322.944477,429.577465 282.43023,457.796172 249.152695,500 C214.762365,481.116538 185.914747,475.004259 147.108676,475.004259 C116.063819,475.004259 86.6846114,481.350806 50.0899549,492.19105 C45.0433937,493.688948 16.0398426,504.117447 15.7988552,497.131985 C15.5366041,489.557303 20.1153661,473.421172 23.9853414,467.181111 C39.3305731,442.48353 45.45449,440.85075 43.1792848,440.659075 C37.2113009,440.155043 8.57631887,439.324455 16.2099514,414.697865 C20.5051988,400.790834 37.8350332,397.773739 37.8350332,357.784814 C37.8350332,357.784814 39.9897447,303.753975 36.7931167,305.592628 C25.2044545,312.329623 11.6382773,314.317356 4.57876197,301.70945 C-8.94488794,277.572694 11.7942104,245.080361 11.7942104,245.080361 C-16.1532485,233.579907 14.4167211,162.305486 38.9549161,151.699512 C41.1025398,120.548898 46.0994859,108.85677 64.9673874,95.6312472 C39.9897447,89.3769877 -3.91959036,27.0189687 6.23732281,0.283961836 C6.23732281,0.283961836 20.6753076,6.92156974 32.6041874,8.95189687 C43.8880714,10.8686393 53.9528423,11.7205248 69.4823586,11.7205248 L282.416054,11.7205248 L282.416054,11.7205248 Z" id="Fill-1"></path>
                </g>
                <path d="M304.601077,102.148171 C286.739653,91.0168673 259.649826,90.6193208 240.108577,99.9119718 L240.108577,168.403567 C262.343215,157.825988 284.025,157.825988 304.601077,170.632667 L304.601077,102.148171 L304.601077,102.148171 Z M240.108577,279.205475 C262.343215,289.775954 284.025,289.775954 304.601077,276.976374 L304.601077,203.472853 C284.025,190.673274 262.343215,190.673274 240.108577,201.257951 L240.108577,279.205475 L240.108577,279.205475 Z M240.108577,403.374886 L265.6816,415.613642 C276.809551,408.933439 293.480214,401.138687 304.601077,397.787937 L304.601077,310.931111 C284.025,323.744889 262.343215,323.744889 240.108577,313.16731 L240.108577,403.374886 L240.108577,403.374886 Z M178.968638,117.737676 L178.968638,388.332008 L200.090481,391.66856 L200.090481,93.7925943 C190.075325,94.9071445 178.968638,101.587347 178.968638,117.737676 L178.968638,117.737676 Z M71.1196558,26.9905725 L284.584941,26.9905725 C336.850871,26.9905725 372.410699,62.6135847 372.410699,111.611199 C372.410699,158.372615 359.071334,343.224671 376.868967,420.064743 C327.934335,416.728192 279.028054,438.9908 245.67964,481.32241 C211.211344,462.382156 188.976706,460.153055 150.057229,460.153055 C118.934405,460.153055 74.4509532,470.176908 39.9897447,483.544412 C26.877191,488.627328 31.0944718,481.861938 38.8698617,470.730634 C58.8930855,442.11438 98.9111817,406.69724 141.169044,390.007383 L141.169044,102.708996 C125.604088,118.291402 118.934405,135.002556 118.934405,166.174466 L118.934405,336.558667 C118.934405,366.616027 107.799367,387.771184 91.1357918,402.253237 C74.4509532,416.728192 53.3361979,421.179294 42.208247,423.408394 C31.0944718,425.623296 26.6432914,423.408394 35.5385643,412.27709 C44.4409251,401.138687 53.3361979,392.222285 53.3361979,352.141072 L53.3361979,270.864096 C44.4409251,274.186449 33.6461039,283.301624 27.7631744,292.005055 C21.9156843,300.644593 16.6493992,298.159927 16.6493992,288.668503 C16.6493992,261.947694 33.320062,236.334337 53.3361979,226.303385 L53.3361979,206.262778 C44.4409251,209.606429 34.4328571,218.515731 27.7631744,227.425034 C21.5612909,235.695423 16.6493992,233.984552 16.6493992,224.081383 C16.6493992,197.346377 33.320062,171.740118 53.3361979,161.716265 C53.3361979,120.513403 69.9997729,106.038448 96.6926794,91.5634939 C58.333144,84.9187869 23.8648476,40.379373 19.8814665,18.4717174 C32.200179,24.7898682 54.4419052,26.9479782 71.1196558,26.9905725 L71.1196558,26.9905725 Z" id="Fill-4" fill="#111B2B"></path>
            </g>
        </g>
    </g>
</svg>