<?xml version="1.0" encoding="UTF-8" standalone="no"?>
<svg width="500px" height="500px" viewBox="0 0 500 500" version="1.1" xmlns="http://www.w3.org/2000/svg" xmlns:xlink="http://www.w3.org/1999/xlink">
    <!-- Generator: Sketch 39.1 (31720) - http://www.bohemiancoding.com/sketch -->
    <title>HOU</title>
    <desc>Created with Sketch.</desc>
    <defs></defs>
    <g id="MLB" stroke="none" stroke-width="1" fill="none" fill-rule="evenodd">
        <g id="HOU">
            <g transform="translate(1.000000, 0.000000)">
                <g id="Group-3" fill="#17203C">
                    <path d="M498.993491,249.537881 C498.993491,387.312332 387.289087,499.001996 249.49783,499.001996 C111.702235,499.001996 0,387.312332 0,249.537881 C0,111.765599 111.702235,0.0759350863 249.49783,0.0759350863 C387.289087,0.0759350863 498.993491,111.765599 498.993491,249.537881" id="Fill-1"></path>
                </g>
                <path d="M248.545391,22.1274842 C374.749,22.1274842 476.935522,124.290549 476.935522,250.388354 C476.935522,376.460123 374.749,478.647054 248.545391,478.647054 C122.330935,478.647054 20.2550609,376.460123 20.2550609,250.388354 C20.2550609,124.290549 122.330935,22.1274842 248.545391,22.1274842 L248.545391,22.1274842 Z M248.545391,12.6876681 C117.41253,12.6876681 11.0105435,119.105268 11.0105435,250.388354 C11.0105435,381.667101 117.41253,488.063004 248.545391,488.063004 C379.673913,488.063004 486.199565,381.667101 486.199565,250.388354 C486.199565,119.105268 379.673913,12.6876681 248.545391,12.6876681 L248.545391,12.6876681 Z" id="Fill-5" fill="#D9562A"></path>
                <path d="M249.174565,107.28326 C328.038261,107.28326 391.780087,171.068732 391.780087,249.778703 C391.780087,328.493014 328.038261,392.300182 249.174565,392.300182 C170.319548,392.300182 106.571213,328.493014 106.571213,249.778703 C106.571213,171.068732 170.319548,107.28326 249.174565,107.28326 L249.174565,107.28326 Z M249.174565,97.886835 C165.403313,97.886835 97.3527304,165.861755 97.3527304,249.778703 C97.3527304,333.699991 165.403313,401.757355 249.174565,401.757355 C332.965343,401.757355 401.087522,333.699991 401.087522,249.778703 C401.087522,165.861755 332.965343,97.886835 249.174565,97.886835 L249.174565,97.886835 Z" id="Fill-6" fill="#D9562A"></path>
                <polyline id="Fill-7" fill="#E67C2B" points="249.456609 100.034713 215.71987 202.980995 107.840409 202.980995 195.95513 266.920507 161.962383 369.973097 249.456609 305.970667 337.193826 370.016489 303.565565 267.135295 392.734696 202.980995 282.412304 202.980995 249.456609 100.034713"></polyline>
                <polyline id="Fill-8" fill="#D9562A" points="369.043043 210.682982 280.134261 210.682982 282.412304 202.980995 249.456609 100.034713 249.456609 249.54005 161.962383 369.973097 249.456609 305.970667 337.193826 370.016489 303.565565 267.135295 392.734696 202.980995 369.043043 210.682982"></polyline>
                <polyline id="Fill-9" fill="#DD672B" points="195.95513 266.920507 205.371043 263.859238 132.018043 211.398941 107.840409 202.980995 195.95513 266.920507"></polyline>
                <polyline id="Fill-10" fill="#17203C" points="315.042565 301.653215 310.573261 287.770112 310.573261 300.071596 315.042565 301.653215"></polyline>
                <polyline id="Fill-11" fill="#17203C" points="183.927061 303.152391 188.381178 289.264948 188.381178 301.566432 183.927061 303.152391"></polyline>
                <polyline id="Fill-12" fill="#FFFFFF" points="168.848583 306.797275 168.848583 331.291764 238.934217 331.291764 238.934217 306.797275 219.581696 299.876334 219.581696 270.151002 279.353217 270.151002 279.353217 299.876334 260.000696 306.797275 260.000696 331.291764 330.121043 331.291764 330.121043 306.816801 310.790217 299.89803 310.790217 209.036275 330.121043 202.115335 330.121043 177.577454 260.000696 177.577454 260.000696 202.115335 279.353217 209.036275 279.353217 238.757268 219.56 238.757268 219.56 209.036275 238.86913 202.115335 238.86913 177.59698 168.76397 177.59698 168.76397 202.134861 188.114322 209.036275 188.114322 299.919726 168.848583 306.797275"></polyline>
                <polyline id="Fill-13" fill="#C5C3BF" points="330.164435 202.091469 330.164435 177.570945 323.939952 183.830166 323.939952 197.689404 304.606957 204.608175 304.606957 304.2784 310.833609 299.876334 310.833609 209.01241 330.164435 202.091469"></polyline>
                <polyline id="Fill-14" fill="#C5C3BF" points="330.164435 306.797275 323.939952 311.177645 323.939952 325.043391 266.31413 325.043391 260.041917 331.291764 330.164435 331.291764 330.164435 306.797275"></polyline>
                <polyline id="Fill-15" fill="#C5C3BF" points="219.625087 270.151002 279.394439 270.151002 285.644957 263.926495 213.376739 263.926495 213.376739 304.258874 219.625087 299.89803 219.625087 270.151002"></polyline>
                <polyline id="Fill-16" fill="#C5C3BF" points="238.955913 312.850386 238.955913 306.797275 232.707565 311.155949 232.707565 325.062918 175.077404 325.062918 168.865939 331.291764 238.955913 331.291764 238.955913 312.850386"></polyline>
                <polyline id="Fill-17" fill="#C5C3BF" points="194.419078 204.653736 175.062217 197.732795 168.842074 202.134861 188.192426 209.055801 194.419078 204.653736"></polyline>
                <polyline id="Fill-18" fill="#C5C3BF" points="266.292435 197.70893 260.041917 202.115335 279.394439 209.036275 285.644957 204.653736 266.292435 197.70893"></polyline>
                <polyline id="Fill-19" fill="#C5C3BF" points="238.999304 202.091469 238.999304 177.581793 232.750957 183.827996 232.750957 197.689404 213.42013 204.608175 213.42013 244.964419 219.668478 238.735572 219.668478 209.01241 238.999304 202.091469"></polyline>
                <path d="M331.769913,393.927363 L317.21213,401.260522 L314.695435,408.96034 L331.249217,441.831554 L338.951174,444.34826 L353.506787,437.012931 L356.045178,429.310943 L339.474039,396.444068 L331.769913,393.927363 L331.769913,393.927363 Z M347.15213,431.547774 L338.343696,436.017096 L336.738217,435.450837 L323.028735,408.355029 L323.571126,406.727849 L332.377391,402.278053 L333.9807,402.820446 L347.694522,429.94012 L347.15213,431.547774 L347.15213,431.547774 Z" id="Fill-20" fill="#FFFFFF"></path>
                <polyline id="Fill-21" fill="#FFFFFF" points="205.826652 424.23414 211.510913 425.145361 214.157783 419.875466 218.844043 420.610952 213.767261 453.176256 210.339348 454.17426 209.406435 460.162284 223.486913 462.353554 224.419826 456.36553 221.425826 454.391218 226.502609 421.804218 231.18887 422.520177 232.100087 428.334635 237.784348 429.22416 239.845435 416.054847 207.866043 411.066996 205.826652 424.23414"></polyline>
                <polyline id="Fill-22" fill="#FFFFFF" points="160.042317 396.767335 152.626743 411.542133 155.182491 419.24629 166.587896 424.971796 167.136796 426.57728 162.598065 435.624403 160.9774 436.166797 151.201339 431.26356 151.64393 426.490497 146.432635 423.843617 140.96533 434.802135 160.369922 444.543522 168.071878 441.981255 175.489622 427.18693 172.938213 419.504469 161.519791 413.755098 160.9774 412.149614 165.509622 403.102491 167.136796 402.560097 176.908517 407.465504 176.450739 412.258093 181.668543 414.861581 187.161883 403.948624 167.726917 394.209407 160.042317 396.767335"></polyline>
                <polyline id="Fill-23" fill="#FFFFFF" points="386.245526 376.353814 377.135522 385.33368 375.443261 385.33368 368.327087 378.087304 368.327087 376.397206 376.113657 368.73644 380.476652 370.710752 384.663913 366.590732 376.072435 357.912436 360.603435 373.142845 360.603435 381.278747 372.212778 393.037837 380.324783 393.037837 389.415261 384.077497 391.127048 384.077497 398.223696 391.278313 398.223696 392.994446 390.458822 400.650872 386.07413 398.67656 381.906396 402.80092 390.478348 411.498742 405.945178 396.224941 405.945178 388.1346 394.340174 376.353814 386.245526 376.353814"></polyline>
                <path d="M294.386135,450.705112 L288.684517,438.813677 L292.696043,433.261737 L290.135957,416.922676 L283.58387,412.173479 L258.915913,416.054847 L259.848826,422.042871 L263.296265,423.021349 L268.483696,455.738523 L265.489696,457.756227 L266.446474,463.742081 L280.524783,461.50959 L279.568004,455.519396 L276.120565,454.543088 L274.167957,442.00512 L281.110565,440.920333 L286.599565,452.332292 L284.104565,454.000694 L285.037478,459.988718 L299.117957,457.775753 L298.163348,451.789898 L294.386135,450.705112 L294.386135,450.705112 Z M283.58387,432.673783 L272.95517,434.346524 L270.978696,421.977784 L281.63343,420.309381 L282.995917,421.305216 L284.560174,431.285256 L283.58387,432.673783 L283.58387,432.673783 Z" id="Fill-24" fill="#FFFFFF"></path>
                <path d="M127.179913,362.054153 L93.8619,386.396772 L90.5120913,385.203506 L86.261913,389.520958 L96.4436826,399.503168 L100.680843,395.16402 L99.4398522,391.864098 L103.677013,388.785473 L112.517991,397.439903 L109.497957,401.779051 L106.180691,400.587955 L101.930513,404.881541 L112.112283,414.863751 L116.36463,410.546299 L115.108452,407.226851 L138.8218,373.468281 L127.179913,362.054153 L127.179913,362.054153 Z M110.014313,384.142584 L126.435752,372.164367 L128.705117,374.379502 L117.024178,391.041829 L110.014313,384.142584 L110.014313,384.142584 Z" id="Fill-25" fill="#FFFFFF"></path>
                <polyline id="Fill-26" fill="#FFFFFF" points="102.885122 156.573809 107.677691 160.28378 116.421039 149.047557 111.641487 145.31372 108.450057 146.964766 98.4310043 139.173826 105.781491 129.714484 115.807052 137.503254 114.989126 140.998438 119.777357 144.727935 128.527213 133.491712 123.738983 129.73618 120.541043 131.406752 94.3891043 111.056149 95.2070304 107.58483 90.4274783 103.853163 81.6776217 115.091556 86.4767 118.847088 89.655113 117.174347 99.6611478 124.965287 92.3236783 134.422459 82.2916087 126.633689 83.1160435 123.140675 78.3213043 119.409008 69.5649391 130.669097 74.3726957 134.402933 77.5424304 132.751888 103.709557 153.080795 102.885122 156.573809"></polyline>
                <path d="M350.927174,116.848911 L358.911174,115.395296 L379.847478,85.1514363 L378.415565,77.1674043 L365.029348,67.881628 L357.045348,69.3569383 L336.109043,99.602968 L337.562652,107.58483 L350.927174,116.848911 L350.927174,116.848911 Z M361.601435,76.3863577 L363.250304,76.1064827 L371.386174,81.7039833 L371.670387,83.3723857 L354.376783,108.368047 L352.727913,108.669617 L344.592043,103.050421 L344.286135,101.379849 L361.601435,76.3863577 L361.601435,76.3863577 Z" id="Fill-27" fill="#FFFFFF"></path>
                <path d="M147.899261,116.935694 L161.259443,107.649918 L162.704374,99.6897509 L141.71817,69.4437213 L133.747187,68.0139721 L120.365309,77.275883 L118.907361,85.2816107 L139.906583,115.505945 L147.899261,116.935694 L147.899261,116.935694 Z M127.409887,81.8102925 L135.52623,76.1910961 L137.198965,76.4948364 L154.522943,101.466632 L154.221374,103.137204 L146.113709,108.7564 L144.432296,108.454829 L127.108317,83.5242558 L127.409887,81.8102925 L127.409887,81.8102925 Z" id="Fill-28" fill="#FFFFFF"></path>
                <polyline id="Fill-29" fill="#FFFFFF" points="174.363617 55.6018398 184.814413 88.9698863 192.000013 92.7015534 207.540609 87.8438775 211.293957 80.6387226 200.858348 47.270676 203.505217 44.8841448 201.682783 39.0913825 188.077439 43.3437473 189.908552 49.1603749 193.453622 49.5921201 202.962826 79.903237 202.160087 81.4219387 192.752852 84.3725592 191.236326 83.5915126 181.740139 53.2803957 184.408704 50.8743383 182.5841 45.081576 168.987435 49.353467 170.799022 55.1267031 174.363617 55.6018398"></polyline>
                <polyline id="Fill-30" fill="#FFFFFF" points="293.976087 82.265903 292.153652 88.0825306 305.756826 92.3110301 307.557565 86.5182678 304.910696 84.1100408 314.7193 52.6512193 319.251522 54.0419162 319.251522 59.9409876 324.740522 61.654951 328.732522 48.9195522 297.835743 39.2866441 293.867609 52.0025167 299.356609 53.7360062 302.74113 48.9195522 307.275522 50.351471 297.466917 81.8102925 293.91317 82.265903 293.976087 82.265903"></polyline>
                <polyline id="Fill-31" fill="#FFFFFF" points="263.233348 76.909225 263.233348 60.3770719 257.503526 54.6472273 244.726957 54.6472273 243.533696 53.4322659 243.533696 43.3220515 244.726957 42.1092597 255.683261 42.1092597 257.399387 46.5764124 263.233348 46.5764124 263.233348 34.3855767 241.516 34.3855767 235.788348 40.0893864 235.788348 56.664931 241.516 62.3709104 254.294739 62.3709104 255.488 63.5858717 255.488 73.6982557 254.294739 74.913217 243.36013 74.913217 241.624478 70.4438948 235.788348 70.4438948 235.788348 82.6347305 257.503526 82.6347305 263.233348 76.909225"></polyline>
                <polyline id="Fill-32" fill="#FFFFFF" points="420.852261 119.628135 416.077048 123.379328 416.881957 126.852816 399.067657 140.714224 415.688696 113.008765 408.138609 103.31077 403.34387 107.066302 404.168304 110.513755 378.025043 130.888224 374.855309 129.280569 370.043213 132.990541 378.806087 144.228933 383.602996 140.499436 382.795917 137.004252 400.590691 123.118979 383.991348 150.848303 389.545435 157.986202 421.633304 132.949319 424.824735 134.617721 429.617304 130.866528 420.852261 119.628135"></polyline>
            </g>
        </g>
    </g>
</svg>