<?xml version="1.0" encoding="UTF-8" standalone="no"?>
<svg width="500px" height="500px" viewBox="0 0 500 500" version="1.1" xmlns="http://www.w3.org/2000/svg" xmlns:xlink="http://www.w3.org/1999/xlink">
    <!-- Generator: Sketch 39.1 (31720) - http://www.bohemiancoding.com/sketch -->
    <title>LAA</title>
    <desc>Created with Sketch.</desc>
    <defs>
        <path d="M159.378518,344.139759 L171.521109,302.410111 L183.636984,344.139759 L159.378518,344.139759 Z M202.331765,493.374489 L343.013498,493.374489 C330.022662,484.549246 318.521264,469.101732 313.411758,451.417868 L274.07858,316.535841 C269.837356,302.016246 276.743538,287.496651 287.810795,277.676732 C272.121606,272.850219 258.189018,261.982219 253.820892,246.941922 L231.793243,171.446705 C263.104831,160.97257 283.522818,142.434219 283.522818,120.885138 C283.522818,92.7538405 248.691348,69.7227595 200.194455,63.1271919 L181.780196,0.0020027027 L161.175194,0.0020027027 L142.767614,63.1338676 C94.2640416,69.7294351 59.3924977,92.7605162 59.3924977,120.885138 C59.3924977,142.434219 79.8438801,160.97257 111.182184,171.446705 L89.1612147,246.941922 C84.8064461,261.982219 70.8605002,272.850219 55.1646319,277.676732 C66.2051724,287.496651 73.1447499,302.016246 68.910205,316.535841 L29.5636688,451.417868 C24.3539764,469.101732 12.9594439,484.549246 0.00200372787,493.374489 L140.683737,493.374489 C129.182339,484.549246 122.897313,469.101732 128.053573,451.417868 L131.506664,439.675354 L211.515517,439.675354 L214.928534,451.417868 C220.078114,469.101732 213.793088,484.549246 202.331765,493.374489 L202.331765,493.374489 Z" id="path-1"></path>
        <mask id="mask-2" maskContentUnits="userSpaceOnUse" maskUnits="objectBoundingBox" x="-1.976" y="-1.976" width="346.963494" height="497.324486">
            <rect x="-1.97399627" y="-1.9739973" width="346.963494" height="497.324486" fill="white"></rect>
            <use xlink:href="#path-1" fill="black"></use>
        </mask>
    </defs>
    <g id="MLB" stroke="none" stroke-width="1" fill="none" fill-rule="evenodd">
        <g id="LAA">
            <g id="Page-1" transform="translate(76.000000, 3.000000)">
                <g id="Fill-1">
                    <use fill="#FEFEFE" fill-rule="evenodd" xlink:href="#path-1"></use>
                    <use stroke="#FFFFFF" mask="url(#mask-2)" stroke-width="3.952" xlink:href="#path-1"></use>
                </g>
                <path d="M146.483861,353.736043 L171.523781,268.033719 L196.470193,353.736043 L146.483861,353.736043 Z M319.345464,483.804908 C312.632976,475.046422 307.296381,464.839314 304.163886,454.144881 L265.091193,320.150719 C258.906353,298.895368 270.367676,283.781638 271.857114,281.378395 C258.285197,274.028476 248.346707,262.826692 244.57302,249.61553 L220.802128,168.078827 C254.324495,159.146773 277.166993,141.396151 277.166993,120.8818 C277.166993,94.9601514 240.44534,73.3176108 191.794828,68.5244757 L174.62288,9.59828649 L168.397965,9.59828649 L151.219338,68.5244757 C102.548788,73.3109351 65.7803821,94.9534757 65.7803821,120.8818 C65.7803821,141.396151 88.6562752,159.146773 122.192001,168.078827 L98.4144299,249.61553 C94.5806306,262.826692 84.6755359,274.028476 71.09694,281.378395 C72.6197732,283.781638 84.0877757,298.895368 77.8695402,320.150719 L38.8235632,454.144881 C35.6910687,464.839314 30.3477943,475.046422 23.6152687,483.804908 L121.01648,483.804908 C113.168546,466.468178 117.302905,453.831124 120.822787,441.915043 L124.275878,430.065719 L218.711572,430.065719 L222.198058,441.915043 C225.64447,453.831124 229.792187,466.468178 221.937574,483.804908 L319.345464,483.804908 Z" id="Fill-3" fill="#003263"></path>
                <path d="M126.289624,368.873805 L171.520441,214.071562 L216.624355,368.873805 L126.289624,368.873805 Z M293.447282,468.641778 C291.363405,464.142373 289.506617,459.529481 288.117366,454.796427 L250.761199,327.017319 C244.896956,307.063724 248.116278,298.438751 252.384219,286.395832 C241.149984,277.797562 233.689438,266.602454 230.049332,253.985427 L171.520441,53.0208865 L112.904722,253.985427 C109.264616,266.602454 101.870861,277.797562 90.5965517,286.395832 C94.8310966,298.438751 98.0838148,307.063724 92.2262504,327.017319 L54.8433675,454.796427 C53.440758,459.529481 51.644082,464.142373 49.4666977,468.641778 L102.712426,468.641778 C101.436719,460.597589 102.645635,449.983265 104.936564,442.446427 L112.904722,414.929292 L230.049332,414.929292 L238.124355,442.446427 C240.261665,449.983265 241.510655,460.597589 240.261665,468.641778 L293.447282,468.641778 Z" id="Fill-5" fill="#CD1041"></path>
                <polygon id="Fill-7" fill="#910027" points="171.523781 214.068224 216.627695 368.870468 246.550031 391.928251 171.523781 134.841305"></polygon>
                <path d="M293.449953,468.643781 L263.788102,450.899835 L246.556042,391.926916 L96.4300715,391.926916 L112.907394,414.931295 L230.052004,414.931295 L238.127027,442.441754 C240.264337,449.985268 241.513327,460.599592 240.264337,468.643781 L293.449953,468.643781 Z" id="Fill-9" fill="#910027"></path>
                <path d="M184.849239,98.7793054 C180.481112,98.5857108 176.052874,98.4254946 171.524449,98.4254946 L171.524449,53.0175486 L158.172942,98.7793054 L158.146226,98.7793054 L112.908729,253.982089 C109.268624,266.605792 101.868189,277.794224 90.6005592,286.392495 C94.8351041,298.442089 98.0878223,307.067062 92.2302578,327.020657 L54.8406959,454.799765 C53.4380864,459.532819 51.6480895,464.145711 49.4640261,468.645116 L102.709755,468.645116 L78.7451693,452.463278 L171.524449,134.841305 L171.524449,106.916954 C176.907797,106.916954 182.210997,107.117224 187.327182,107.404278 L184.849239,98.7793054 Z" id="Fill-11" fill="#910027"></path>
                <path d="M141.304893,156.686119 L145.59955,141.872795 C118.408962,138.628416 99.106384,130.424011 99.106384,120.88447 C99.106384,108.481065 131.506664,98.4274973 171.521109,98.4274973 C211.488801,98.4274973 243.915797,108.481065 243.915797,120.88447 C243.915797,130.424011 224.579823,138.628416 197.382557,141.872795 L201.650497,156.686119 C236.689018,151.445714 261.829124,137.453497 261.829124,120.88447 C261.829124,99.956227 221.380537,82.9332541 171.521109,82.9332541 C121.541457,82.9332541 81.1863778,99.956227 81.1863778,120.88447 C81.1863778,137.453497 106.259692,151.445714 141.304893,156.686119" id="Fill-13" fill="#999596"></path>
            </g>
        </g>
    </g>
</svg>