<?xml version="1.0" encoding="UTF-8" standalone="no"?>
<svg width="500px" height="500px" viewBox="0 0 500 500" version="1.1" xmlns="http://www.w3.org/2000/svg" xmlns:xlink="http://www.w3.org/1999/xlink">
    <!-- Generator: Sketch 39.1 (31720) - http://www.bohemiancoding.com/sketch -->
    <title>LAD</title>
    <desc>Created with Sketch.</desc>
    <defs>
        <polygon id="path-1" points="4.79486378 413.411221 113.771887 413.411221 113.771887 5.8958786 4.79486378 5.8958786 4.79486378 413.411221"></polygon>
    </defs>
    <g id="MLB" stroke="none" stroke-width="1" fill="none" fill-rule="evenodd">
        <g id="LAD">
            <g id="LA" transform="translate(18.000000, 0.000000)">
                <g id="Group-3" transform="translate(0.000000, 211.963004)" fill="#1E2E53">
                    <path d="M20.8172918,155.616405 C19.2642171,151.64902 30.0261114,142.235609 39.6673557,141.821833 C36.0008812,148.284045 22.3825476,159.589875 20.8172918,155.616405 L20.8172918,155.616405 Z M0.456786685,63.709383 C-1.27900272,79.4511379 1.69315598,89.9476695 13.8924057,95.0651089 C22.8393342,98.8134356 33.2236182,90.8360716 36.2079579,86.3636364 C41.1108016,79.0434465 41.762484,71.2242911 41.762484,71.2242911 C41.762484,71.2242911 24.6908429,87.641475 14.8607935,72.6603383 C9.18445761,64.0014604 12.2175212,38.2560545 45.648216,20.1229159 C79.0789109,1.99586224 95.6633128,16.7883656 95.6633128,16.7883656 C115.768017,28.1367896 116.651138,61.792625 110.725092,87.9213825 C106.291216,107.399294 97.0580348,127.948156 76.0884807,131.751247 C68.2073878,133.199465 65.1925957,132.335402 58.0240899,132.03724 C59.5954361,128.459292 65.4666677,115.352318 67.1720046,94.3896799 C72.1540247,32.919557 78.8474723,27.0110746 84.907509,17.865401 C39.4541886,40.9273457 52.5791927,119.508336 43.693169,132.420591 C10.347741,137.325058 2.7468106,164.536936 9.36717228,168.784228 C14.3796448,171.997079 37.0179929,165.863454 52.4330209,141.000365 C63.6212495,140.799562 99.2871538,150.57807 121.048471,110.989412 C135.781365,84.154801 140.422317,37.416332 116.815582,14.2874528 C82.7575663,-19.0641353 5.83468859,15.0176463 0.456786685,63.709383 L0.456786685,63.709383 Z" id="Fill-1"></path>
                </g>
                <path d="M448.680244,212.437629 C434.6843,233.564561 396.369033,248.35098 284.821724,288.882804 C285.808383,281.842522 287.550263,269.07022 288.975438,260.563466 C291.478629,256.18839 294.414245,251.381283 297.617842,246.738469 L298.494872,245.478885 C301.016335,241.894852 303.70224,238.469028 306.449051,235.456979 C309.04969,239.722526 313.03896,245.539735 321.273302,245.320677 C348.881489,244.608738 360.989381,192.838019 365.295357,172.642083 C367.378304,173.0802 370.100753,173.457466 372.074071,173.378362 C370.070301,179.925764 354.643092,214.908117 375.113226,220.853109 C395.510274,226.804186 408.099315,170.524522 411.741427,158.251187 C424.117301,172.587319 421.017242,187.690155 414.695314,190.848241 C411.467355,192.448582 407.776519,187.544116 404.195311,190.951686 C398.8235,196.0387 402.386436,204.51503 409.78638,205.798953 C420.322926,207.569673 427.320898,200.322502 434.349323,192.990142 C436.535808,190.720458 444.764059,185.724717 449.861799,189.27224 C457.523634,194.578313 451.99956,207.387124 448.680244,212.437629 L448.680244,212.437629 Z M265.886393,255.001825 C254.570265,257.125472 258.261101,213.161738 274.961222,211.1963 C278.146548,210.800779 281.484136,214.725569 280.832454,221.114762 C280.448753,224.735305 279.516908,232.457101 277.519228,238.74285 C275.387557,245.46063 271.81853,253.876111 265.886393,255.001825 L265.886393,255.001825 Z M331.310428,186.485335 C339.660488,190.756967 325.134672,208.245102 318.496039,215.431423 C319.476607,199.245467 327.583048,184.568577 331.310428,186.485335 L331.310428,186.485335 Z M271.355653,293.446513 C271.355653,293.446513 267.469921,295.095534 265.661045,295.716198 C268.188598,292.004381 272.756465,283.327248 273.749215,281.690398 C273.347243,284.599002 271.355653,293.446513 271.355653,293.446513 L271.355653,293.446513 Z M252.511679,345.618839 C245.111735,346.933187 248.924381,328.173299 254.667712,319.210174 C262.183376,316.344165 268.535756,313.313862 268.535756,313.313862 C264.631753,331.793842 261.373341,344.048923 252.511679,345.618839 L252.511679,345.618839 Z M223.600127,244.511379 C223.460046,246.422052 221.322285,263.064379 220.877679,264.889862 C218.746008,273.420957 214.464394,279.432883 208.495714,279.201655 C198.239331,278.830473 202.868102,235.456979 217.491367,236.923451 C220.402621,237.203359 223.989919,239.150542 223.600127,244.511379 L223.600127,244.511379 Z M156.452485,304.186443 C148.023248,302.549592 148.346044,280.102227 154.15028,270.299379 C157.920293,277.163198 167.835609,277.887307 173.895646,276.974565 C174.358523,286.728733 166.775864,306.194475 156.452485,304.186443 L156.452485,304.186443 Z M173.591121,266.575392 C173.591121,266.575392 170.880854,267.311671 168.255853,267.001339 C164.016872,266.508458 160.953356,264.494341 160.581836,262.735792 C158.571975,253.267616 173.128244,254.600219 173.591121,266.575392 L173.591121,266.575392 Z M462.444749,188.901059 C457.523634,174.863089 438.831923,177.643909 434.087432,182.098089 C434.087432,163.581599 424.738531,158.652793 415.060744,147.280029 C412.910801,139.302665 419.165733,136.686138 420.042764,129.864914 C421.809006,116.046002 400.102502,120.092491 406.241715,148.32664 C403.659348,161.500548 389.681676,201.849824 382.403541,202.872094 C378.207194,203.480589 377.987936,196.701959 380.137879,188.675916 C382.287822,180.619447 393.896294,166.076427 386.739969,158.731897 C382.592346,154.45418 374.808701,160.873798 367.877724,157.009858 C367.877724,157.009858 368.103073,151.186564 366.294197,149.014239 C364.485322,146.854083 361.330449,147.663381 359.418035,149.123768 C354.186305,153.164172 353.912233,164.238773 356.762582,169.891688 C354.62482,183.668005 352.889031,189.229646 346.15295,207.794816 C339.252426,226.889376 322.838557,235.99854 319.153811,224.364123 C351.87801,192.880613 344.648599,180.771571 339.422959,176.481684 C330.993722,169.581356 304.853343,182.085919 303.562159,221.778021 C303.531707,223.408787 303.781417,225.514178 304.116394,227.503955 C301.534026,230.540343 296.97834,236.120239 291.271552,244.030668 C293.945277,226.420835 297.709199,200.943167 298.927297,191.505416 C298.927297,191.505416 292.398293,195.716198 285.174973,196.59243 L284.206585,203.145917 C277.208613,192.618961 244.642767,202.488743 245.79387,253.930875 C244.1738,269.721309 235.671477,271.516369 235.452219,267.701107 C234.331569,248.941219 246.000946,193.659486 249.947583,173.60959 C249.947583,173.60959 242.243115,177.917732 236.310978,178.002921 C236.310978,178.002921 226.261671,228.909578 226.030233,228.970427 C220.786321,224.826579 217.259928,225.386394 213.209753,226.317391 C200.949598,229.140806 191.405802,246.355117 190.827205,257.326275 C188.677263,259.468176 186.167981,261.439698 183.646519,262.699282 C182.105625,256.145795 179.103014,250.127784 172.397385,248.107582 C150.16101,241.341122 132.023533,274.218084 137.888674,305.196544 C137.888674,305.196544 140.032526,313.824997 148.382587,319.283193 C164.004691,327.065839 184.40783,305.969332 184.633178,273.061945 C187.64797,271.102592 190.3826,267.451625 190.3826,267.013509 C189.048783,277.00499 192.063575,295.704028 203.361432,297.322624 C215.40842,299.044664 222.174953,284.580747 224.050824,278.568821 C225.506451,282.244128 229.215558,285.43264 233.734701,285.237921 C244.033718,284.811975 247.273859,271.631982 249.204544,266.033832 C258.37682,280.564683 273.164528,267.165632 276.386397,258.573689 L275.30838,265.693075 C266.952229,275.727151 251.360577,300.705854 251.360577,300.705854 C222.473387,311.159791 166.197267,331.927711 142.974232,366.666667 C161.842568,362.936595 178.031088,367.749787 178.031088,367.749787 C181.79501,357.545333 204.768335,337.08166 238.479192,325.842765 C230.196127,342.600706 231.816197,367.238652 245.970494,366.964829 C270.442079,366.484118 278.505887,324.461482 281.916561,308.512839 C303.629155,299.172447 342.468204,284.233905 383.030861,266.81879 C420.730989,250.638919 474.66227,223.59742 462.444749,188.901059 L462.444749,188.901059 Z" id="Fill-4" fill="#1E2E53"></path>
                <path d="M331.919477,81.349641 C339.977194,76.4634295 346.262579,68.7781429 349.307823,59.322137 C352.389611,49.7687721 351.64048,39.9050748 347.974006,31.3253012 C330.920636,41.6514543 324.044474,63.0522088 331.919477,81.349641" id="Fill-5" fill="#FFFFFF"></path>
                <path d="M298.817668,85.1831569 C302.82521,86.4792503 306.972833,87.1364245 311.132637,87.1364245 C316.443544,87.1364245 321.541283,86.0898138 326.243141,84.1852258 C316.845516,62.7844712 324.939776,37.6232202 345.050571,25.7088962 C340.208632,17.9992698 332.747783,11.8778143 323.417154,8.87185104 C319.415702,7.58792747 315.27417,6.93075332 311.114366,6.93075332 C305.681649,6.93075332 300.4621,8.00778873 295.681066,9.99756602 C300.151485,20.3298041 300.760534,31.7755872 297.264593,42.5763661 C293.805196,53.3649751 286.64278,62.2855057 277.013717,68.0601193 C281.849565,75.9036145 289.37741,82.1467689 298.817668,85.1831569" id="Fill-6" fill="#FFFFFF"></path>
                <path d="M291.24719,40.6413533 C294.207168,31.4409152 293.744291,21.6989169 290.035183,12.8818304 C282.111457,17.7680419 275.947882,25.398564 272.926999,34.7389558 C269.881754,44.1767068 270.56998,53.9247901 274.114644,62.4315444 C282.251538,57.4358038 288.281122,49.8174516 291.24719,40.6413533" id="Fill-7" fill="#FFFFFF"></path>
                <path d="M297.264593,42.5763661 C300.760534,31.7755872 300.151485,20.3298041 295.681066,9.99756602 C300.4621,8.00778873 305.681649,6.93075332 311.114366,6.93075332 C315.27417,6.93075332 319.415702,7.58792747 323.417154,8.87185104 C332.747783,11.8778143 340.208632,17.9992698 345.050571,25.7088962 C324.939776,37.6232202 316.845516,62.7844712 326.243141,84.1852258 C321.541283,86.0898138 316.443544,87.1364245 311.132637,87.1364245 C306.972833,87.1364245 302.82521,86.4792503 298.817668,85.1831569 C289.37741,82.1467689 281.849565,75.9036145 277.013717,68.0601193 C286.64278,62.2855057 293.805196,53.3649751 297.264593,42.5763661 L297.264593,42.5763661 Z M272.926999,34.7389558 C275.947882,25.398564 282.111457,17.7680419 290.035183,12.8818304 C293.744291,21.6989169 294.207168,31.4409152 291.24719,40.6413533 C288.281122,49.8174516 282.251538,57.4358038 274.114644,62.4315444 C270.56998,53.9247901 269.881754,44.1767068 272.926999,34.7389558 L272.926999,34.7389558 Z M349.307823,59.322137 C346.262579,68.7781429 339.977194,76.4634295 331.919477,81.349641 C324.044474,63.0522088 330.920636,41.6514543 347.974006,31.3253012 C351.64048,39.9050748 352.389611,49.7687721 349.307823,59.322137 L349.307823,59.322137 Z M352.468787,25.8549349 C346.798542,14.8229281 337.181659,6.64476086 325.347839,2.8538396 C320.731248,1.35694292 315.931943,0.596324693 311.114366,0.596324693 C290.87567,0.596324693 273.103623,13.5390045 266.897415,32.803943 C259.046774,57.1619813 272.500665,83.369843 296.880893,91.2194231 C301.509664,92.7041499 306.302879,93.4586832 311.132637,93.4586832 C331.371333,93.4586832 349.137289,80.5220884 355.337407,61.2632348 C359.143963,49.4523549 358.11467,36.8808568 352.468787,25.8549349 L352.468787,25.8549349 Z" id="Fill-8" fill="#D72331"></path>
                <path d="M97.1128492,361.530972 C95.5780459,360.672995 93.6595418,361.23281 92.8007829,362.754046 L67.6166103,408.032129 C66.7700323,409.55945 67.3181764,411.482293 68.8529796,412.3281 C69.3402187,412.595838 69.8700913,412.729707 70.3877829,412.729707 C71.5023424,412.729707 72.580359,412.145552 73.1589554,411.105026 L98.3370375,365.826944 C99.1957965,364.299623 98.641562,362.37678 97.1128492,361.530972" id="Fill-9" fill="#D72331"></path>
                <path d="M171.83706,233.272484 L220.353897,146.501156 C221.206565,144.973835 220.652331,143.038822 219.123618,142.193014 C217.588815,141.341122 215.66422,141.894852 214.811552,143.428258 L166.294715,230.199586 C165.448137,231.732993 165.996281,233.66192 167.518904,234.513813 C168.018324,234.78155 168.548196,234.909334 169.059797,234.909334 C170.174357,234.909334 171.264554,234.331264 171.83706,233.272484" id="Fill-10" fill="#D72331"></path>
                <path d="M261.647413,65.7235001 C260.11261,64.8837775 258.188015,65.4253377 257.341437,66.964829 L224.452796,126.098333 C223.606218,127.619569 224.160452,129.542412 225.676984,130.400389 C226.176404,130.674212 226.700186,130.795911 227.223968,130.795911 C228.332437,130.795911 229.410454,130.205671 229.989051,129.17123 L262.889873,70.0377267 C263.73036,68.5104053 263.170035,66.5753925 261.647413,65.7235001" id="Fill-11" fill="#D72331"></path>
                <path d="M151.695813,377.00499 C150.087924,376.305221 148.218143,377.029329 147.523828,378.623585 L130.458277,417.530729 C129.763961,419.13107 130.48873,420.999148 132.084438,421.705002 C132.504682,421.869295 132.937106,421.978824 133.36344,421.978824 C134.581538,421.978824 135.744822,421.260801 136.262513,420.074236 L153.321973,381.179263 C154.02847,379.572837 153.291521,377.698673 151.695813,377.00499" id="Fill-12" fill="#D72331"></path>
                <g id="Group-16" transform="translate(164.443207, 86.223683)">
                    <mask id="mask-2" fill="white">
                        <use xlink:href="#path-1"></use>
                    </mask>
                    <g id="Clip-14"></g>
                    <path d="M85.7845394,65.7539248 C86.1986927,65.9303882 86.6432984,66.0216624 87.0513611,66.0216624 C88.2755495,66.0216624 89.4388329,65.3036388 89.9565245,64.1231593 L113.502355,10.3444079 C114.208852,8.73189729 113.477993,6.86990386 111.876195,6.16405014 C110.280487,5.45819642 108.398526,6.19447487 107.70421,7.80090057 L84.1583788,61.5796519 C83.4518821,63.1678228 84.1949217,65.0419861 85.7845394,65.7539248" id="Fill-13" fill="#D72331" mask="url(#mask-2)"></path>
                    <path d="M42.6273334,298.509188 C40.9585394,297.985883 39.1801166,298.910795 38.662425,300.59024 L4.9332962,409.675064 C4.4277856,411.342339 5.34744946,413.119143 7.02842446,413.636364 C7.34512989,413.727638 7.64965435,413.776317 7.97245027,413.776317 C9.31235788,413.776317 10.5669986,412.894 10.9933329,411.543142 L44.7163712,302.464403 C45.2340628,300.791043 44.2961274,299.026409 42.6273334,298.509188" id="Fill-15" fill="#D72331" mask="url(#mask-2)"></path>
                </g>
                <path d="M218.758189,346.933187 C217.089395,346.422052 215.310972,347.346964 214.799371,349.014239 L208.794148,368.406961 C208.282547,370.074236 209.214392,371.851041 210.895367,372.362176 C211.205982,372.46562 211.522687,372.5143 211.833302,372.5143 C213.185391,372.5143 214.440032,371.631982 214.848095,370.281124 L220.847226,350.894487 C221.364918,349.221127 220.433073,347.444323 218.758189,346.933187" id="Fill-17" fill="#D72331"></path>
                <path d="M294.627412,101.582086 C292.952527,101.07095 291.174104,102.001947 290.650322,103.675307 L265.679317,184.446878 C265.161625,186.120239 266.099561,187.897043 267.762264,188.408178 C268.08506,188.517707 268.407856,188.542047 268.70629,188.542047 C270.058379,188.542047 271.313019,187.690155 271.727173,186.321042 L296.716449,105.543386 C297.228051,103.870026 296.290115,102.093221 294.627412,101.582086" id="Fill-18" fill="#D72331"></path>
                <path d="M255.50211,377.370086 C253.784592,376.99282 252.091436,378.057685 251.719916,379.755385 L242.334472,421.680662 C241.956862,423.390532 243.028788,425.076062 244.740215,425.465498 C244.971654,425.520263 245.209183,425.544603 245.434531,425.544603 C246.890158,425.544603 248.199613,424.540587 248.516318,423.05586 L257.901762,381.136668 C258.279373,379.432883 257.201356,377.735183 255.50211,377.370086" id="Fill-19" fill="#D72331"></path>
                <path d="M301.856822,316.989169 C300.139304,316.678837 298.476601,317.804552 298.147714,319.526591 L286.338256,380.625532 C286.021551,382.347572 287.142201,383.990507 288.865809,384.319095 C289.109429,384.361689 289.340867,384.379944 289.566215,384.367774 C291.021842,384.319095 292.294754,383.272484 292.568826,381.787757 L304.378285,320.682731 C304.701081,318.972861 303.56825,317.317756 301.856822,316.989169" id="Fill-20" fill="#D72331"></path>
                <path d="M316.735887,103.511014 C315.02446,103.127662 313.331304,104.204698 312.947603,105.902397 L298.232981,171.723257 C297.84928,173.427041 298.927297,175.124741 300.632634,175.495923 C300.870163,175.550688 301.095511,175.568942 301.320859,175.568942 C302.770396,175.568942 304.079851,174.577096 304.420918,173.110624 L319.13554,107.289765 C319.50706,105.579895 318.441224,103.882195 316.735887,103.511014" id="Fill-21" fill="#D72331"></path>
                <path d="M343.095524,88.4872825 C341.371916,88.1586954 339.721393,89.3148351 339.410778,91.0247049 L327.315067,156.930753 C327.004452,158.640623 328.137283,160.301813 329.860891,160.612146 C330.049696,160.64257 330.244592,160.66691 330.439488,160.66691 C331.925567,160.66691 333.259384,159.59596 333.545637,158.074723 L345.635258,92.1747596 C345.951964,90.45272 344.819133,88.7976147 343.095524,88.4872825" id="Fill-22" fill="#D72331"></path>
            </g>
        </g>
    </g>
</svg>