<?xml version="1.0" encoding="UTF-8"?>
<svg width="475px" height="499px" viewBox="0 0 475 499" version="1.1" xmlns="http://www.w3.org/2000/svg" xmlns:xlink="http://www.w3.org/1999/xlink">
    <!-- Generator: Sketch 52.3 (67297) - http://www.bohemiancoding.com/sketch -->
    <title>Group 3</title>
    <desc>Created with Sketch.</desc>
    <defs>
        <polygon id="path-1" points="0.0274891387 0.900454453 416.821945 0.900454453 416.821945 203.187878 0.0274891387 203.187878"></polygon>
        <polygon id="path-3" points="0 4.32340665 57.355526 4.32340665 57.355526 134.840667 0 134.840667"></polygon>
    </defs>
    <g id="Page-1" stroke="none" stroke-width="1" fill="none" fill-rule="evenodd">
        <g id="MIA" transform="translate(-12.000000, -1.000000)">
            <g id="Group-3" transform="translate(12.000000, 0.000000)">
                <path d="M186.533143,243.567439 C185.816853,244.35563 185.113993,245.152778 184.424564,245.954404 C183.050182,247.553178 181.733999,249.174343 180.493922,250.804465 C177.861556,254.002013 173.926437,260.361281 171.714891,264.741115 C171.714891,264.741115 171.003078,266.147319 170.904588,266.353324 C167.735004,272.927553 165.330955,279.757049 163.670057,286.770157 C163.177608,291.897877 163.311912,296.810635 163.871514,301.450214 C165.142929,289.587044 168.670658,278.426976 173.908529,268.417847 C174.163708,267.929706 174.436793,267.450521 174.700925,266.966859 C176.697584,263.343867 178.958375,259.904488 181.429576,256.657679 C183.354606,254.131885 185.42737,251.753877 187.571764,249.447523 C187.580717,249.443045 187.585194,249.438566 187.589671,249.429609 C187.804558,248.453327 188.037352,247.477045 188.283577,246.500763 C188.861086,244.180974 189.519178,241.883577 190.284713,239.689181 L190.280236,239.69366 C189.004344,240.956556 187.746359,242.237367 186.533143,243.567439" id="Fill-1" fill="#FEFEFE"></path>
                <g id="Group-2" transform="translate(57.747130, 0.559795)">
                    <mask id="mask-2" fill="white">
                        <use xlink:href="#path-1"></use>
                    </mask>
                    <g id="Clip-4"></g>
                    <path d="M289.802663,102.886097 L289.444518,102.877141 C287.913448,102.827879 286.35104,102.801009 284.788632,102.801009 C276.16629,102.801009 269.030249,103.513068 265.547288,103.934033 L264.580297,104.05047 L263.698364,103.647418 C252.264583,98.2330836 240.342829,96.4193487 240.342829,96.4193487 L239.631016,94.945969 C228.859803,72.6034417 209.900499,39.3247647 180.743013,7.59559942 C177.559999,4.38909521 175.711075,2.62910058 173.70994,0.900454453 C172.693703,3.97260793 171.690897,7.4702054 171.256646,9.06897914 C168.991378,16.6911442 167.384202,26.6554904 167.702056,43.583683 C167.831884,50.8654928 166.779832,70.2075203 158.211212,85.5369392 C153.080784,94.7220511 144.964321,102.303911 132.017377,111.077014 L131.90098,111.153146 C130.907127,111.766681 126.931717,114.256648 125.933388,114.843313 C119.809107,118.452869 111.47328,123.450717 104.892365,128.367953 C84.4646656,143.634675 70.1612469,161.427191 60.7420317,180.155683 C40.9142254,185.449102 20.3164072,192.896612 0.0274891387,203.187878 C0.0274891387,203.187878 0.0588268321,203.183399 0.103594966,203.178921 C51.5511339,186.434341 105.469874,184.423558 145.577644,186.174596 C156.514499,179.83772 167.993049,174.598041 179.301479,170.437647 C163.435653,168.198468 136.780706,167.289361 105.178881,171.400494 C100.939339,171.95581 96.614737,172.591737 92.2140295,173.335145 C84.3437916,174.660738 76.5317523,176.223685 68.2675549,178.234468 C68.2451708,178.238946 68.1153432,178.274773 67.9720852,178.3106 C72.6593088,169.783807 78.3761994,161.59289 85.1540948,153.863245 C94.5733101,143.070402 106.087674,133.209058 120.01504,124.534479 L120.028471,124.530001 C121.161105,123.786593 126.291533,120.436782 131.498067,117.382542 C136.440468,114.41339 144.677805,109.961903 154.634238,99.3571514 C156.263798,97.6195486 157.781438,95.7431167 159.124482,93.7726392 C164.286247,86.186301 165.141319,83.6067669 165.879993,82.2498245 C172.313174,67.3234578 173.127954,53.1539337 173.083186,40.4219623 C173.083186,39.7188602 173.078709,39.015758 173.078709,38.3126558 C173.074232,36.2078276 173.074232,34.1253912 173.119,32.0384765 C173.266735,25.0880651 173.915873,18.1242187 176.543762,10.3587462 C178.227044,12.1903946 179.874511,14.0265213 181.490641,15.8671263 C187.95516,23.2385033 193.88246,30.6770557 199.290451,38.0126058 C203.346444,43.5120292 207.115921,48.953234 210.598881,54.2556097 C211.26145,55.2677186 211.915065,56.2708707 212.555249,57.2695445 C213.137235,58.1741728 213.678929,59.0519309 214.243008,59.9476025 C215.084648,61.2731964 215.85466,62.4957881 216.288911,63.1988903 C225.318644,77.825207 232.069678,90.9826223 236.721087,100.879793 C239.183335,101.327629 241.417264,101.797856 243.494506,102.272562 C255.004393,104.919272 260.792913,107.807813 263.747609,109.285671 L263.752086,109.285671 C263.752086,109.285671 275.548489,107.431631 290.169762,107.969034 L294.342152,107.216669 L308.560511,104.655049 L393.593104,89.3032381 L412.333044,84.5069169 L416.823288,80.1226045 L289.802663,102.886097 Z" id="Fill-3" fill="#00A0DD" mask="url(#mask-2)"></path>
                </g>
                <path d="M110.698163,222.852795 C111.239858,219.449243 111.893473,216.054648 112.694822,212.686923 C113.876701,207.680119 115.36748,202.727055 117.135821,197.841166 C117.117914,197.841166 117.100007,197.845645 117.082099,197.845645 C115.080964,197.921777 113.120119,198.006866 111.199567,198.10539 C96.0679375,242.441132 105.214067,289.172796 123.654061,318.546345 C103.2577,282.446303 107.54201,240.59157 110.698163,222.852795" id="Fill-6" fill="#00A0DD"></path>
                <path d="M451.598546,89.8513891 C451.598546,89.8513891 365.95263,121.213329 347.114199,128.338396 C328.271292,135.467942 328.72345,153.197761 328.72345,153.197761 L330.151553,153.108194 L365.522856,150.96306 C370.738343,150.63614 375.30917,150.63614 379.311441,150.846623 C379.378593,150.846623 379.459176,150.846623 379.526328,150.851101 C380.430644,150.900363 381.254378,150.976495 382.096019,151.043671 C382.516839,151.079497 382.973474,151.101889 383.380864,151.142194 C386.810103,151.473593 389.697648,151.970691 392.159895,152.530485 C392.32106,152.566312 392.509086,152.602139 392.670252,152.642444 C400.347987,154.460658 403.356405,156.905841 403.356405,156.905841 L336.920495,164.017473 L315.933194,184.42535 L315.834704,184.519395 C315.807844,184.519395 315.776506,184.523874 315.749645,184.519395 C269.759341,184.192475 181.40943,213.162972 165.561511,276.160032 C164.795976,279.075443 164.254281,281.94607 163.900613,284.754 C163.882706,284.861481 163.770786,285.591453 163.654388,286.82748 C163.658865,286.809567 163.663342,286.791653 163.667819,286.769261 C165.333193,279.756153 167.737242,272.926657 170.902349,266.352428 C170.951594,266.253904 171.148574,265.864287 171.332123,265.497062 C171.394799,265.376146 171.452997,265.25523 171.515673,265.138793 L171.614163,264.937267 L171.515673,265.138793 C171.457474,265.250752 171.403752,265.362711 171.345554,265.47467 C171.538057,265.09401 171.717129,264.740219 171.717129,264.740219 C173.924198,260.360385 177.859317,254.001117 180.49616,250.80357 C181.736238,249.173447 183.047944,247.552282 184.422326,245.953508 C185.111755,245.151882 185.814615,244.354734 186.535381,243.566543 C187.744121,242.236471 189.006582,240.955661 190.282474,239.692764 L190.282474,239.688286 C205.149971,225.017185 223.997356,215.052839 236.984591,209.029448 C250.867189,202.594048 265.900328,197.484241 280.29776,194.116516 C292.738824,191.201105 304.705346,189.584418 315.028878,189.584418 L315.051262,189.584418 L317.885085,189.60681 L340.484039,167.501636 L414.320121,159.557029 C407.403444,154.375569 394.308765,147.272893 374.158629,146.874319 C371.485971,146.825057 368.661102,146.95493 365.231863,147.169891 L335.111863,149.006018 L336.750376,144.169391 C338.648545,138.562487 343.188034,133.922909 348.904925,131.759862 C366.789794,124.997541 458.022773,91.4277711 466.909247,88.1585698 L470.078831,85.0685029 L451.338891,89.8648242 L451.598546,89.8513891 Z" id="Fill-8" fill="#42738D"></path>
                <path d="M243.439708,407.324863 C242.862199,403.424213 242.280214,400.065445 241.711658,397.118685 C240.874494,397.226166 239.947794,397.454562 238.958418,397.781482 C238.962895,397.826266 238.971848,397.875528 238.980802,397.920312 L239.244934,399.622088 C239.719476,402.658414 240.776004,409.425213 242.132479,418.578976 L244.106753,411.955485 C243.882913,410.347755 243.659072,408.793764 243.439708,407.324863" id="Fill-10" fill="#00A0DD"></path>
                <path d="M171.614163,264.938163 L171.515673,265.139689 C171.452997,265.256126 171.394799,265.377042 171.3366,265.497957 C171.291832,265.578568 171.251541,265.663657 171.211249,265.748745 C171.251541,265.6547 171.300786,265.565133 171.345554,265.475566 C171.403752,265.363607 171.457474,265.251648 171.515673,265.139689 L171.614163,264.938163 Z" id="Fill-12" fill="#FFF100"></path>
                <path d="M267.319031,447.360934 C267.413044,450.074819 267.587639,452.699137 267.847295,455.193582 C267.990553,456.604265 268.160671,457.983599 268.348698,459.31815 C268.630737,461.333411 268.957544,463.245669 269.311212,465.077318 C270.967633,473.590676 273.250808,480.039511 274.799786,483.814767 C275.699625,486.112165 277.262033,489.01414 277.262033,489.01414 L277.288894,489.058924 C280.919589,492.699829 284.921861,495.94216 289.143496,499.059097 C289.210648,499.07701 289.29123,499.099402 289.349429,499.117316 L282.370077,486.53313 L280.454001,482.937009 C280.136147,482.314517 273.152318,468.333084 272.064453,447.087754 C270.609488,447.26241 269.181385,447.378848 267.802526,447.378848 C267.641361,447.378848 267.480196,447.365413 267.319031,447.360934" id="Fill-14" fill="#42738D"></path>
                <path d="M346.587726,298.252219 L346.592203,298.252219 C346.601156,298.252219 345.813237,298.565704 345.186483,298.812013 L345.101424,298.84784 L344.425425,299.116542 C344.420948,299.116542 344.371703,299.134455 344.291121,299.170282 C344.134432,299.237457 343.830009,299.36733 343.400235,299.559899 C343.185348,299.653945 342.939123,299.770382 342.666037,299.900254 C339.532268,301.378113 332.548439,305.027974 324.302149,311.579812 C323.20533,312.453091 322.077173,313.393547 320.940062,314.374307 C314.672524,319.990168 306.587399,329.031972 305.89797,329.77538 C292.431715,344.294216 276.355478,364.809573 276.162975,365.073796 C275.025865,366.6457 274.587137,367.689157 274.296144,369.086405 C274.246899,369.319279 274.143932,370.089557 274.126025,370.398563 C274.085734,371.128536 274.014105,372.301866 273.888754,373.640895 L278.414812,373.640895 C278.593885,372.033164 278.705805,370.443347 278.786388,369.001316 L278.799818,368.813225 C278.969937,367.877248 279.207208,367.501066 280.165246,366.269518 C282.466328,363.29141 288.008623,356.340998 292.798814,350.451958 C300.682482,341.580331 307.379795,333.850685 313.629426,326.909231 C329.025187,309.806382 345.504337,302.040909 345.656549,301.978212 L357.20225,296.989322 L358.997453,296.389222 C358.992976,296.389222 358.984022,296.384744 358.979545,296.384744 C355.321989,296.734055 350.4736,297.204283 346.7086,298.22087 C346.704123,298.22087 346.641448,298.238784 346.587726,298.252219" id="Fill-16" fill="#42738D"></path>
                <path d="M327.830326,134.348353 C306.623661,141.397288 303.288435,154.751751 303.288435,154.751751 L319.346764,153.77099 C321.159874,138.186305 327.830326,134.348353 327.830326,134.348353" id="Fill-18" fill="#42738D"></path>
                <path d="M242.895328,40.9521999 C242.913235,41.9867006 242.908758,43.0391147 242.940096,43.4376885 C245.021814,73.2411599 234.492349,95.0641976 225.305928,107.451335 C239.282539,101.486163 256.903277,96.5778826 277.102658,96.4480102 C270.62471,83.7876926 258.917843,62.6767138 242.895328,40.9521999" id="Fill-20" fill="#00A0DD"></path>
                <path d="M186.288261,295.177826 C194.650949,340.091277 226.767608,354.959425 229.314914,355.958099 C240.600961,360.736506 248.744284,357.149342 250.776758,355.675962 C253.789653,353.795052 257.026389,351.242388 260.057192,348.56433 C260.558595,348.116494 278.268868,332.464633 278.268868,332.464633 C279.764124,331.16591 289.541484,322.665986 292.026116,320.511896 C292.849849,319.795359 293.709397,319.051952 294.586853,318.286153 C296.605896,316.539593 298.56674,314.927384 300.469386,313.440569 C304.2702,310.46694 307.847174,308.003843 311.1824,305.961712 C311.737525,305.621357 312.29265,305.294436 312.834344,304.976473 C322.065533,299.58453 329.376169,297.497615 334.609564,296.848254 C342.358928,295.82271 346.576086,298.245501 346.589517,298.254458 C346.638762,298.241023 346.705914,298.223109 346.710391,298.223109 C350.470914,297.202044 355.319303,296.731816 358.976859,296.382504 C358.770926,296.306372 358.542608,296.221283 358.318768,296.136195 C356.035593,295.294263 353.121187,294.246328 352.977929,294.197066 C347.731104,292.405723 342.573815,291.420484 338.459624,291.420484 C324.178589,291.420484 308.066538,299.109824 290.575628,314.282501 C283.645521,320.292457 261.812102,340.651072 261.592739,340.857076 L260.612316,341.766183 C256.332483,345.760878 248.372709,353.194952 240.878523,353.239735 C235.927168,353.239735 227.707738,351.063254 221.34171,346.284846 C203.286722,332.7199 192.909468,313.592834 188.231198,284.25959 C187.076181,277.627142 185.634647,269.713883 185.710752,260.91391 C185.540634,262.423117 185.379468,264.017412 185.254118,265.701275 C184.51992,273.780232 184.385616,284.09389 186.288261,295.177826" id="Fill-22" fill="#00A0DD"></path>
                <path d="M395.273071,268.620268 L395.322316,268.56205 L395.349177,268.485918 C395.922209,266.730401 395.993838,265.516766 396.065467,264.343437 C396.092328,263.926949 396.522102,259.788947 396.522102,259.788947 L395.398422,262.892449 C394.449337,265.516766 393.29432,266.967754 391.861739,267.330501 C391.602084,267.402155 391.378243,267.433504 391.167833,267.433504 L390.706721,267.437982 L390.782827,267.890296 C390.814165,268.127649 391.606561,273.649464 385.768796,277.366501 L385.598677,277.473982 L385.585247,277.67103 C385.527048,278.575658 385.419605,279.560897 385.253963,280.770053 L385.142042,281.598549 L385.853856,281.15967 C386.896953,280.519265 387.872899,279.816163 388.745877,279.081712 C391.978136,276.363349 393.706186,273.246412 393.764385,270.0623 C394.046424,269.851817 394.632887,269.372633 395.273071,268.620268" id="Fill-24" fill="#EE3742"></path>
                <path d="M391.076059,284.543965 L391.183502,284.467833 L391.223793,284.342439 C392.016189,281.852472 392.669804,279.483421 393.309988,277.078543 L394.353086,273.325679 L392.777248,276.693404 C391.644614,278.932583 389.218181,282.828754 386.585815,283.764731 L386.321683,283.858777 L386.321683,284.140913 C386.321683,284.221524 386.294822,286.129304 384.468282,287.611641 C384.226534,287.808688 384.00717,287.960952 383.78333,288.095303 L383.649025,288.175914 L383.608734,288.328178 C383.246112,289.591075 382.825292,290.907712 382.319412,292.345265 L381.965743,293.357374 L382.892444,292.819971 C385.11742,291.530204 388.860036,288.919321 389.236088,285.735209 C389.553942,285.551596 390.238894,285.135109 391.076059,284.543965" id="Fill-26" fill="#EE3742"></path>
                <path d="M386.031138,298.429562 L386.089336,298.295211 C386.957838,296.230688 388.171054,292.643523 389.088801,290.037119 C388.072564,291.841897 385.672993,294.510999 380.923094,296.351604 L380.766405,296.409822 L380.70373,296.566565 C380.072499,298.084728 379.454699,299.473019 378.814514,300.803091 L378.393694,301.685328 L379.311441,301.344973 C379.69197,301.206144 383.139116,299.916377 385.905787,298.496737 L386.031138,298.429562 Z" id="Fill-28" fill="#EE3742"></path>
                <path d="M359.981008,331.824676 L360.088452,331.811241 L360.173511,331.744066 C362.541746,329.903461 364.79806,328.000158 366.879778,326.083421 L367.810955,325.223577 L366.557447,325.398233 C365.165158,325.590802 363.835545,325.693804 362.604421,325.702761 L362.438779,325.702761 L362.322382,325.823677 C360.477935,327.731457 358.481276,329.621324 356.386127,331.439537 L355.504195,332.205337 L356.672643,332.133683 C357.693357,332.070986 358.808083,331.967984 359.981008,331.824676" id="Fill-30" fill="#EE3742"></path>
                <path d="M371.335102,321.700453 L371.415685,321.619842 C373.439205,319.474709 375.314989,317.2624 376.975887,315.041134 L377.781714,313.966329 L376.523729,314.432078 C374.433057,315.206834 372.39163,315.793499 370.45317,316.178637 L370.296482,316.209986 L370.206945,316.339858 C368.859425,318.27003 367.341785,320.218116 365.698794,322.130375 L365.018319,322.918566 L366.047986,322.779737 C367.664115,322.560297 369.405596,322.210985 371.227659,321.731801 L371.335102,321.700453 Z" id="Fill-32" fill="#EE3742"></path>
                <path d="M354.339328,334.883842 C353.663329,334.883842 353.023145,334.865929 352.445636,334.825624 L352.293425,334.812189 L352.177027,334.906234 L352.024816,335.022671 L351.890511,335.130152 C346.030363,339.671207 336.150036,345.757295 328.593175,349.657945 C331.131528,348.627923 343.872539,343.325547 354.939221,335.604858 L355.991272,334.870407 L354.710904,334.883842 L354.339328,334.883842 Z" id="Fill-34" fill="#EE3742"></path>
                <path d="M380.553309,309.754433 L380.611507,309.655909 C381.918737,307.474949 383.055847,305.253683 383.991501,303.041375 L384.461567,301.939699 L383.427423,302.548755 L383.422946,302.553234 L375.557185,307.08981 L375.306484,307.237596 C375.306484,307.237596 375.194563,307.537646 375.073689,307.828739 C374.782696,308.53632 374.115651,310.027613 372.915865,312.101093 L372.409985,312.974372 L373.3725,312.674322 C375.691489,311.962263 378.068677,310.994938 380.450342,309.803695 L380.553309,309.754433 Z" id="Fill-36" fill="#EE3742"></path>
                <path d="M200.348141,262.281153 C199.981043,255.214304 199.036435,250.937473 199.027481,250.897167 L198.920038,250.462767 L198.503694,250.619509 L193.977636,252.321285 L193.650829,252.446679 L193.731411,252.782556 C193.735888,252.818383 194.577529,257.534094 194.783462,263.848578 L194.810323,264.578551 L194.8148,264.708423 L194.895383,264.815903 L195.33411,265.357785 C195.378879,265.416003 199.945228,271.12591 202.255264,279.16904 L202.376138,279.585528 L207.757267,277.50757 L207.658778,277.162736 C205.496477,269.639095 201.606126,263.982929 200.348141,262.281153" id="Fill-38" fill="#EE3742"></path>
                <path d="M208.624426,262.182629 C208.669194,262.222934 213.356418,266.27137 215.581394,273.839795 L215.702268,274.256282 L221.002815,272.111148 L220.899848,271.770793 C218.822607,264.71738 214.963594,260.247978 213.280312,258.550681 C213.177345,254.318633 212.129771,249.30735 211.261269,245.827666 L211.149349,245.37983 L210.724052,245.558965 C209.197458,246.203848 207.679819,246.839775 206.171132,247.466745 L205.853279,247.601096 L205.933861,247.928016 C206.802363,251.439049 207.814123,256.405547 207.73354,260.149455 L207.711156,261.224261 L207.706679,261.412352 L207.854414,261.533267 L208.624426,262.182629 Z" id="Fill-40" fill="#EE3742"></path>
                <path d="M228.619218,268.694609 L228.740092,269.124532 L233.951102,266.952528 L233.852612,266.616651 C231.793278,259.4468 227.737285,255.053531 225.942083,253.387582 C226.219646,246.786483 224.0081,241.197492 223.560419,240.136121 L223.40373,239.768896 L223.036631,239.930117 L218.259872,242.106599 L218.412083,242.446954 C218.438944,242.505173 220.954913,248.201644 220.337113,254.551955 L220.216239,255.877549 L220.193855,256.096989 L220.372927,256.226861 L221.384687,256.988182 C221.433932,257.028487 226.479301,260.924658 228.619218,268.694609" id="Fill-42" fill="#EE3742"></path>
                <path d="M242.233207,263.206382 L242.354081,263.631826 C242.354081,263.631826 245.716168,262.234578 247.197993,261.621043 L247.529277,261.482214 L247.421834,261.13738 C245.331162,254.384017 241.476626,250.331103 239.251649,248.450193 C239.927648,241.074337 236.93266,234.701634 236.802832,234.428454 L236.632713,234.074664 L236.274568,234.244842 L231.963397,236.300408 L231.605252,236.470585 L231.775371,236.824376 C231.802232,236.887073 234.595763,242.950769 233.543712,249.22047 L233.27958,250.783417 L233.234812,251.043162 L233.454176,251.181991 L234.792743,252.032879 C234.841988,252.068706 239.9948,255.467779 242.233207,263.206382" id="Fill-44" fill="#EE3742"></path>
                <path d="M255.104045,257.792047 L255.193582,258.177186 L260.44936,256.215665 L260.368778,255.879788 C258.627297,248.951769 254.822006,244.91229 252.579123,243.044815 C254.007226,235.480868 251.052529,228.642416 250.922702,228.355801 L250.766013,227.993054 L250.403391,228.149797 L246.029545,230.079969 L245.6714,230.236711 L245.828088,230.599458 C245.854949,230.662155 248.594759,237.110991 246.772696,243.420997 L246.248909,245.21234 L246.163849,245.507912 L246.432458,245.664654 L248.044111,246.600631 C248.097832,246.631979 253.308843,249.784743 255.104045,257.792047" id="Fill-46" fill="#EE3742"></path>
                <path d="M267.920267,252.729711 L267.987419,253.119328 L273.301396,251.224983 L273.234244,250.893585 C271.797187,243.965565 268.11277,240.015653 265.910177,238.19744 C268.094862,230.418533 265.167026,223.141201 265.041676,222.832194 L264.889464,222.469447 L264.526842,222.617233 L260.10375,224.435447 L259.736652,224.587711 L259.888863,224.950458 C259.915724,225.022111 262.624196,231.802345 260.023168,238.215354 L259.194957,240.208223 L259.056176,240.539621 L259.37403,240.709799 L261.285629,241.721908 C261.491563,241.833867 266.532454,244.691059 267.920267,252.729711" id="Fill-48" fill="#EE3742"></path>
                <path d="M280.744994,247.829492 L280.794239,248.223588 L281.188198,248.174326 C281.188198,248.174326 284.568192,247.144303 285.875422,246.696468 L286.193276,246.588987 L286.139554,246.257589 C285.024827,239.21761 281.434423,235.299047 279.240784,233.503226 C282.182051,225.522792 279.276599,217.793146 279.151248,217.466226 L279.00799,217.099001 L278.640891,217.23783 L274.177509,218.953041 L273.81041,219.096348 L273.949191,219.468052 C273.980529,219.539706 276.64871,226.72747 273.286623,233.216611 L272.153989,235.411006 L271.965963,235.773753 L272.333061,235.948409 L274.562515,237.014258 C274.607283,237.03665 279.728757,239.647532 280.744994,247.829492" id="Fill-50" fill="#EE3742"></path>
                <path d="M293.574198,243.64178 L293.614489,244.134399 L294.084554,243.986613 C295.642485,243.493994 297.191463,243.019288 298.735964,242.558017 L299.053817,242.463972 L299.013526,242.132573 C298.167408,235.07916 294.702355,231.142683 292.549007,229.333427 C296.117028,221.487344 293.601059,213.574085 293.296635,212.68737 L293.175761,212.329102 L288.255743,213.954746 L287.884168,214.084618 L288.013996,214.456322 C288.040856,214.532454 290.650839,222.203881 286.559031,228.733327 L285.09959,231.017289 L284.857842,231.397949 L285.265232,231.586041 L287.718526,232.728022 C287.924459,232.831024 292.920583,235.37921 293.574198,243.64178" id="Fill-52" fill="#EE3742"></path>
                <path d="M306.322819,239.948478 L306.367587,240.414227 L306.815269,240.293312 C308.391107,239.881303 309.957992,239.487207 311.484585,239.12446 L311.829299,239.04385 L311.784531,238.69006 C310.951844,232.012828 307.719585,227.816607 305.718449,225.796867 C309.577462,218.850934 308.337385,211.721389 307.621095,208.953764 L307.522605,208.58206 L307.15103,208.667149 C305.655774,209.003025 304.088889,209.374729 302.490667,209.777781 L302.101184,209.876305 L302.204151,210.265922 C302.718984,212.178181 304.070982,218.882283 299.826963,224.686235 L298.340661,226.719409 L298.094436,227.059764 L298.443628,227.288161 L300.552207,228.663016 C300.601452,228.698843 305.566238,232.075525 306.322819,239.948478" id="Fill-54" fill="#EE3742"></path>
                <path d="M318.92281,237.350583 C318.92281,237.350583 322.710194,236.826615 324.183066,236.59374 L324.518827,236.544478 L324.518827,236.204123 C324.527781,229.298495 321.823785,225.236625 319.442121,223.006403 C323.807014,216.064948 322.741532,208.523393 322.302804,206.360347 L322.226698,205.9976 L321.864077,206.042383 C320.346437,206.234952 318.743738,206.467827 317.105224,206.73205 L316.68888,206.799226 L316.782893,207.211235 C316.979873,208.066601 318.560188,215.764898 313.443191,221.788289 L311.415194,224.175254 L311.079433,224.569349 L311.549499,224.788789 L314.387798,226.114383 C314.432566,226.141253 319.263048,228.573001 318.936241,236.956487 L318.92281,237.350583 Z" id="Fill-56" fill="#EE3742"></path>
                <path d="M332.521578,235.806893 L332.996121,235.771066 C334.607773,235.65015 336.223903,235.56954 337.799741,235.529235 L338.157886,235.520278 L338.184747,235.166488 C338.730919,228.269817 336.12989,223.710848 334.38841,221.476148 C338.717488,215.891635 338.484694,209.263666 337.951953,205.779504 L337.902708,205.452583 L337.571424,205.443627 C336.783505,205.421235 335.982155,205.4078 335.185282,205.4078 C334.361549,205.4078 333.537815,205.421235 332.705128,205.443627 L332.235062,205.452583 L332.324599,205.913854 C332.727512,207.91568 333.654212,214.803395 328.684949,219.487757 L326.625615,221.400016 L326.280901,221.717979 L326.652476,222.000116 L328.886406,223.710848 C329.065479,223.858634 333.443802,227.450277 332.5753,235.332187 L332.521578,235.806893 Z" id="Fill-58" fill="#EE3742"></path>
                <path d="M351.755312,207.412761 L351.71502,207.144059 L351.450888,207.08584 C349.785514,206.718615 348.061941,206.409608 346.324937,206.167777 L345.725044,206.082688 L345.886209,206.664875 C346.409996,208.53235 347.708272,214.945358 342.434586,219.016186 L340.482696,220.520914 L340.164842,220.771702 L340.42002,221.085187 L341.982428,222.992968 C342.022719,223.037751 345.957838,227.986336 345.102767,235.272625 L345.053522,235.680155 L345.465389,235.711504 C347.059134,235.836898 348.648403,236.02051 350.18395,236.257863 L350.586863,236.32056 L350.636108,235.91303 C351.40612,229.392541 349.239342,224.287213 347.761994,221.685287 C352.556661,216.562046 352.158225,210.014687 351.755312,207.412761" id="Fill-60" fill="#EE3742"></path>
                <path d="M354.302171,237.062176 L354.731945,237.169657 C356.316737,237.563753 357.84333,238.029502 359.271434,238.55347 L359.647486,238.68782 L359.78179,238.311638 C362.158978,231.661277 360.914424,225.893152 359.893711,222.924001 C361.671005,220.6893 363.891505,217.133484 363.524406,211.768411 L363.493068,211.4191 L363.484115,211.302662 L363.466208,211.065309 L363.251321,210.971264 C361.612807,210.254726 359.902664,209.605365 358.165661,209.041092 L357.552337,208.844044 L357.655304,209.479971 C357.807516,210.429382 357.910482,211.351924 357.968681,212.229682 C358.161184,215.185398 356.876338,218.459078 354.843865,220.192203 L353.420238,221.414794 L353.182967,221.61632 L353.321749,221.893978 L354.158913,223.568884 C354.279787,223.810716 357.086749,229.565405 354.458859,236.645689 L354.302171,237.062176 Z" id="Fill-62" fill="#EE3742"></path>
                <path d="M363.347572,240.302716 L363.696764,240.481851 C365.115913,241.211823 366.481341,242.026884 367.76171,242.918077 L368.128809,243.173344 L368.339219,242.77477 C371.567001,236.621506 371.190949,230.808598 370.626871,227.740922 C372.681728,226.191411 374.06954,224.162715 374.750016,221.72201 C374.99624,220.844251 375.143975,219.890361 375.19322,218.891687 L375.202174,218.69464 L375.054439,218.569246 C373.424879,217.180955 371.674445,215.873274 369.861335,214.686509 L369.019695,214.135671 L369.256966,215.111953 C369.740462,217.082431 369.780753,218.806599 369.37784,220.239673 C368.925681,221.860839 367.869154,223.092387 366.14558,224.005972 L364.359332,224.973297 L364.068339,225.13004 L364.175783,225.448003 L364.820444,227.369219 C364.901026,227.615528 366.799195,233.482177 363.526645,239.948926 L363.347572,240.302716 Z" id="Fill-64" fill="#EE3742"></path>
                <path d="M381.370775,224.923588 L381.030537,224.529492 L380.488843,223.898044 L380.341108,224.717583 C380.269479,225.1072 380.179943,225.460991 380.063545,225.796867 C379.436792,227.628516 378.06241,228.998893 375.859818,229.979654 L374.158629,230.740974 L373.849728,230.879803 L373.939265,231.202245 L374.413807,233.002545 C374.427237,233.060764 375.873248,239.012501 371.396435,245.362813 L371.199455,245.644949 L371.454633,245.882302 C372.497731,246.849628 373.518444,247.924433 374.485436,249.07985 L374.807767,249.46051 L375.107713,249.066415 C379.772553,242.922108 380.036685,236.903195 379.745692,233.732517 C383.340573,230.655886 383.492784,229.128766 383.591274,228.116657 L383.613658,227.919609 L383.631566,227.767345 L383.542029,227.641951 C382.615329,226.36114 382.221369,225.908826 381.370775,224.923588" id="Fill-66" fill="#EE3742"></path>
                <path d="M387.371048,233.342452 L387.066625,232.849833 L386.457778,231.851159 L386.336904,233.015532 C385.974282,236.59374 385.602707,238.152209 382.536089,239.468846 L380.167855,240.243602 L380.311113,240.628741 C380.311113,240.628741 380.915483,241.909551 381.045311,242.581305 C381.170661,243.24858 382.639056,247.243275 377.244496,252.227687 L377.002748,252.456084 L377.181821,252.73822 C377.902588,253.844375 378.583063,255.017704 379.20534,256.217904 L379.433658,256.661262 L379.814187,256.334342 C385.768349,251.242449 386.269752,245.966943 385.978759,243.118708 C387.95751,241.905073 389.049853,239.876377 389.318462,236.934095 L389.327415,236.817658 L389.27817,236.719134 C388.467867,235.120361 388.118676,234.565044 387.371048,233.342452" id="Fill-68" fill="#EE3742"></path>
                <path d="M392.025143,242.37127 L391.599846,241.439771 L390.977569,240.055959 L390.843264,241.565165 C390.641808,243.929738 389.99267,246.836192 388.06764,247.257158 L386.424649,247.619905 L386.097842,247.691559 L386.111273,248.027436 L386.196332,249.70682 C386.196332,249.751603 386.317206,254.744972 381.15544,259.8503 L380.967414,260.038391 L381.065904,260.280223 C381.571784,261.54312 382.05528,262.909019 382.502961,264.342093 L382.682034,264.919801 L383.138668,264.521228 C388.958526,259.487553 390.476166,254.144872 390.856695,251.278723 C392.069911,250.5801 393.399525,248.7798 393.399525,245.7793 L393.399525,245.712125 L393.372664,245.640471 C392.728003,243.907346 392.539976,243.490859 392.025143,242.37127" id="Fill-70" fill="#EE3742"></path>
                <path d="M391.41943,257.254196 L389.673473,257.231804 L389.660042,257.540811 L389.59289,259.242587 C389.498877,259.941211 389.288467,264.043387 383.759602,267.948515 L383.540239,268.100779 L383.602914,268.360524 C383.916291,269.659247 384.171469,270.881839 384.399787,272.108909 L384.502754,272.673182 L384.995203,272.373132 C391.115007,268.624747 393.071374,263.823947 393.693651,261.168281 C394.262207,260.886144 395.018788,260.160651 395.556006,259.054496 C396.272296,257.576638 396.822944,255.001582 395.341119,251.109889 L394.768086,249.605161 L394.58006,251.203935 C394.275637,253.792426 393.689174,255.650944 392.887825,256.573486 C392.54311,256.967581 391.871588,257.249718 391.41943,257.254196" id="Fill-72" fill="#EE3742"></path>
                <path d="M244.106306,411.954141 L247.705664,399.898402 C247.660895,399.007209 247.141585,398.236931 246.232792,397.72192 C245.225509,397.153169 243.689962,396.862076 241.711211,397.117342 C242.279766,400.064101 242.861752,403.427348 243.43926,407.323519 C243.658624,408.792421 243.882465,410.346411 244.106306,411.954141" id="Fill-74" fill="#000000"></path>
                <path d="M225.307271,107.452231 C234.493692,95.0650933 245.01868,73.2420556 242.936962,43.4385842 C242.910101,43.0400103 242.914578,41.9875962 242.896671,40.9530956 C258.914709,62.6776094 270.626053,83.7885883 277.099525,96.4444275 C256.90462,96.5787782 239.283882,101.487058 225.307271,107.452231 M327.830773,134.349248 C327.830773,134.349248 321.160322,138.187201 319.347212,153.771886 L303.288883,154.752647 C303.288883,154.752647 306.624109,141.398183 327.830773,134.349248 M165.55972,276.156449 C181.412116,213.163868 269.762028,184.193371 315.747854,184.520291 C315.774715,184.520291 315.806053,184.520291 315.83739,184.520291 L315.93588,184.426246 L336.918705,164.013891 L403.354614,156.902258 C403.354614,156.902258 400.341719,154.461553 392.668461,152.638862 C392.511773,152.603035 392.323746,152.567208 392.158104,152.531381 C389.700334,151.971586 386.808312,151.474489 383.38355,151.14309 C382.97616,151.102785 382.519525,151.080393 382.094228,151.044566 C381.252587,150.977391 380.428853,150.901259 379.529014,150.851997 C379.461862,150.847518 379.381279,150.847518 379.30965,150.84304 C375.307379,150.637036 370.741029,150.637036 365.521065,150.963956 L330.149763,153.109089 L328.721659,153.198656 C328.721659,153.198656 328.273978,135.464359 347.112408,128.339292 C365.955316,121.214225 451.583325,89.8567631 451.596755,89.8522848 L366.308984,105.213052 L352.086148,107.774673 L347.913758,108.527037 C333.296963,107.994112 321.500559,109.848153 321.500559,109.848153 C318.545863,108.370294 312.757343,105.477275 301.238502,102.835044 C299.165738,102.35586 296.931808,101.890111 294.465084,101.437796 C289.813675,91.5406257 283.06264,78.3876887 274.037384,63.7568937 C273.374816,62.6865661 272.676433,61.5938468 271.991481,60.5100842 C271.422925,59.6144127 270.881231,58.7321762 270.303722,57.8275479 C269.659061,56.8288741 269.005446,55.8257219 268.342878,54.8180914 C264.859917,49.5112374 261.094917,44.074511 257.038924,38.5750876 C251.626457,31.2395374 245.703633,23.7965067 239.239114,16.4296081 C237.618508,14.589003 235.97104,12.7528763 234.287759,10.9212279 L234.287759,10.9167496 C231.664346,18.6822221 231.015208,25.6505469 230.867473,32.6009582 C230.818228,34.6833946 230.818228,36.7703094 230.822705,38.8751375 C230.827182,39.5737614 230.827182,40.2768635 230.827182,40.9844441 C230.876427,53.711937 230.061647,67.8859396 223.628466,82.8123063 C222.885315,84.1647703 222.034721,86.7443044 216.872955,94.3306426 C215.529911,96.3011201 214.012271,98.1820303 212.382711,99.9196332 C202.426278,110.524385 194.184465,114.975872 189.242063,117.945023 C184.040006,120.994785 178.909578,124.344597 177.772467,125.088004 L177.763513,125.096961 C177.700838,125.137266 177.638163,125.177571 177.575487,125.217877 C177.55758,125.226833 177.539673,125.244747 177.539673,125.244747 L177.535196,125.244747 C163.827193,133.807367 152.335214,143.664233 142.902568,154.425726 C136.124673,162.150894 130.403305,170.34181 125.716082,178.873082 C125.863816,178.832777 125.993644,178.801428 126.011551,178.79695 C134.280225,176.781689 142.092265,175.218742 149.958026,173.893148 C153.566337,169.03413 157.546224,164.394551 161.933501,160.010239 C165.474661,156.611165 169.239661,153.395704 173.228502,150.381769 C197.989756,131.680147 232.537325,121.60832 269.838133,120.443947 C270.684251,120.417077 271.539322,120.40812 272.389917,120.390207 C228.552961,125.970241 189.085374,142.799909 162.927354,171.962976 C194.529179,167.847365 221.184126,168.756471 237.049952,171.000129 C225.741522,175.160523 214.262973,180.400202 203.321641,186.737078 C196.619851,190.619814 190.119518,194.910081 183.990761,199.6034 C170.466308,198.313633 157.452211,197.686663 145.239464,197.50305 C133.899696,219.344002 128.406646,245.905142 130.824126,277.432781 C128.590196,268.695505 127.220291,259.720876 126.817378,250.638766 C125.989167,231.914752 129.199042,214.037148 136.35299,197.444832 C129.633293,197.458267 123.21802,197.606053 117.13403,197.843406 C115.365689,202.729294 113.879387,207.682358 112.693032,212.689162 C111.896159,216.056887 111.242544,219.447004 110.696373,222.855034 C107.540219,240.589331 103.255909,282.448542 123.652271,318.548584 C126.812901,324.137575 130.595808,329.57878 135.03233,334.782631 C136.182871,334.039224 137.351319,333.327165 138.551105,332.641976 L138.560059,332.637498 C142.799601,330.263968 147.670374,328.280056 152.272538,327.048507 C156.798597,325.834872 157.81931,325.713957 157.859601,325.709478 L159.220553,325.552736 C165.076224,324.146532 170.309619,323.783785 174.074619,323.783785 C182.696962,323.79722 186.42167,324.276404 186.42167,324.276404 C182.95214,327.115683 181.197229,328.468147 177.857526,331.531344 C171.119922,337.371122 165.935773,345.570995 162.372229,356.511624 C166.070077,358.732889 170.099209,360.936241 174.486486,363.058983 C174.173109,361.943872 173.994037,360.770542 173.994037,359.552429 C173.994037,355.203943 176.156337,351.370469 179.460226,349.041723 C179.545285,348.965591 179.625868,348.88498 179.715404,348.813327 C180.373496,347.87735 181.147984,347.013027 182.043347,346.260663 C184.442919,344.254358 187.473722,343.152682 190.585107,343.152682 C197.936034,343.152682 203.917057,349.135768 203.917057,356.489232 C203.917057,361.742346 200.837009,366.462535 196.06025,368.625582 C195.836409,368.804716 195.612568,368.974894 195.375297,369.136114 C194.712729,369.731736 193.983008,370.260182 193.204043,370.708018 C203.111231,374.048873 214.276403,376.780671 226.775666,378.460055 C226.914447,378.374967 227.048751,378.276443 227.187533,378.195832 C229.090178,377.044894 231.037592,376.046221 232.971576,375.235638 C242.046076,371.424555 251.098193,371.30364 258.458074,374.895283 C259.34896,375.329683 260.230892,375.831259 261.072533,376.386576 C263.105006,374.640016 265.625452,373.645821 268.047408,373.641342 L273.889649,373.641342 C274.015,372.302313 274.086629,371.128984 274.126921,370.399011 C274.144828,370.090005 274.247795,369.319727 274.292563,369.086852 C274.583556,367.689605 275.02676,366.646147 276.163871,365.074244 C276.351897,364.810021 292.43261,344.294663 305.894388,329.775827 C306.588294,329.03242 314.673419,319.986137 320.940958,314.374755 C322.149697,313.290992 323.300238,312.323667 324.303045,311.580259 C332.549335,305.028422 339.533163,301.37856 342.662456,299.900702 C342.940018,299.77083 343.186243,299.654393 343.40113,299.560347 C343.830904,299.367778 344.130851,299.237905 344.292016,299.17073 C344.372599,299.134903 344.417367,299.11699 344.42632,299.11699 C344.42632,299.11699 344.771035,298.978161 345.182902,298.812461 C345.814133,298.566152 346.602052,298.252667 346.593098,298.252667 L346.588621,298.252667 C346.575191,298.248188 342.358033,295.820918 334.608669,296.850941 C329.379751,297.500302 322.064638,299.587217 312.833449,304.974682 C312.291754,305.292645 311.741106,305.619565 311.185981,305.964399 C307.846279,308.002052 304.273782,310.469627 300.46849,313.443256 C298.565845,314.925593 296.605,316.537802 294.590434,318.28884 C293.708502,319.054639 292.848954,319.793568 292.02522,320.514583 C289.540589,322.668673 279.767705,331.164118 278.27245,332.46732 C278.27245,332.46732 260.557699,348.119181 260.056296,348.562538 C257.025494,351.240596 253.788758,353.797739 250.775862,355.674171 C248.743389,357.152029 240.604542,360.734715 229.318496,355.956307 C226.766712,354.962112 194.650053,340.089485 186.287366,295.176035 C184.38472,284.096577 184.519025,273.778441 185.253222,265.703962 C185.38305,264.015621 185.539738,262.421326 185.709857,260.916597 C186.278412,255.950098 187.02604,251.99123 187.572211,249.447523 C185.427818,251.753877 183.355053,254.131885 181.430024,256.657679 C178.954346,259.904488 176.698032,263.343867 174.701373,266.966859 C174.437241,267.450521 174.164155,267.929706 173.908977,268.417847 C168.671106,278.426976 165.143377,289.587044 163.871962,301.450214 C163.124334,294.795374 163.392943,289.560174 163.652598,286.828376 C163.768995,285.587871 163.885392,284.862377 163.898823,284.754896 C164.252491,281.942487 164.794185,279.076338 165.55972,276.156449" id="Fill-76" fill="#000000"></path>
                <path d="M277.26069,489.015484 C277.26069,489.015484 275.698282,486.113508 274.798443,483.81611 C273.249465,480.040855 270.96629,473.59202 269.314346,465.074183 C268.960678,463.247013 268.633871,461.330276 268.351831,459.319493 C268.163805,457.980464 267.993686,456.605608 267.845951,455.190447 C267.586296,452.70048 267.416177,450.076163 267.317687,447.362278 C262.675232,447.263754 258.511796,445.826201 255.136278,443.860202 C252.705369,442.449519 250.587836,440.662654 248.828448,438.499608 C248.640422,438.616045 248.452396,438.732482 248.268847,438.844441 C252.682985,462.387168 260.356243,486.426993 277.287551,489.060267 L277.26069,489.015484 Z" id="Fill-78" fill="#000000"></path>
                <path d="M439.160615,443.917077 C433.018427,443.876772 427.444795,442.269041 423.03961,439.27302 C421.9025,438.498264 420.832541,437.620506 419.856596,436.653181 C412.353457,441.467415 403.937048,444.006644 395.480347,444.006644 C387.023647,444.006644 380.008481,440.844924 375.728647,435.09919 C371.211542,429.039972 370.208736,420.719183 372.903778,411.663944 L376.11813,401.354764 C377.138843,398.309481 377.089598,395.976256 375.988302,394.946234 C374.775086,393.81321 372.088998,393.786339 369.456632,394.870102 C368.207601,395.389592 366.891418,396.218088 365.65134,397.266023 C365.557327,397.346634 365.481221,397.436201 365.387208,397.516811 C365.633433,397.404853 365.83489,397.315285 365.964717,397.261545 C368.068819,396.365874 370.056525,396.392744 371.041423,397.315285 C372.017369,398.22887 372.151673,400.262045 371.404045,402.75649 L368.68662,411.677379 C365.682678,421.753684 366.864557,431.077625 372.008415,437.938469 C373.467856,439.882077 375.21829,441.964513 379.193701,444.230562 C382.855734,446.317477 387.193766,447.378848 392.082446,447.378848 C399.540817,447.378848 407.858736,444.933664 416.81684,440.110473 C421.826394,445.009796 428.895282,447.83564 436.313362,447.884902 L452.282155,447.884902 L456.472452,443.917077 L439.160615,443.917077 Z" id="Fill-80" fill="#EE3742"></path>
                <path d="M323.882672,441.046002 L336.252107,400.373556 C337.080317,397.699976 336.941536,395.523494 335.876055,394.556169 C334.792666,393.561974 332.58112,393.54406 330.253177,394.506907 C329.035484,395.012962 327.80436,395.733977 326.604574,396.652041 C326.362826,396.835653 326.138986,397.028223 325.910668,397.220792 C327.974479,396.414688 329.895032,396.405731 330.862024,397.314838 C331.837969,398.228423 331.972273,400.266075 331.224646,402.756042 L318.403052,445.143699 L344.426768,445.143699 L349.472137,441.019132 L323.882672,441.046002 Z" id="Fill-82" fill="#EE3742"></path>
                <path d="M285.154207,441.041523 C274.365087,444.798866 264.847382,444.646601 257.635236,440.584731 C255.589332,439.438271 253.753838,437.987283 252.182477,436.276551 C251.627352,436.684081 251.045366,437.091612 250.418612,437.517056 C249.881395,437.875324 249.357608,438.170896 248.829344,438.502295 C250.584255,440.660863 252.701787,442.447728 255.132697,443.862889 C258.508214,445.82441 262.676127,447.266441 267.318583,447.360486 C267.479748,447.364965 267.640913,447.3784 267.806556,447.3784 C269.180937,447.3784 270.609041,447.261962 272.064005,447.091785 C274.893351,446.75143 277.848048,446.12446 280.910188,445.143699 L304.314968,445.143699 L309.754297,441.019132 L285.154207,441.041523 Z" id="Fill-84" fill="#EE3742"></path>
                <path d="M196.061593,368.626925 C195.972056,368.66723 195.89595,368.720971 195.806414,368.756797 C194.149993,369.464378 192.390606,369.822647 190.58645,369.822647 C183.235522,369.822647 177.2545,363.839561 177.2545,356.490575 C177.2545,353.700558 178.140909,351.035936 179.716747,348.810192 C179.627211,348.886324 179.546628,348.966934 179.461569,349.043066 C176.15768,351.367334 173.990903,355.205287 173.990903,359.553772 C173.990903,360.771885 174.169975,361.940737 174.487829,363.055848 C176.009946,368.447791 180.956824,372.406659 186.839357,372.406659 C189.158346,372.406659 191.325124,371.784167 193.205386,370.709361 C193.984351,370.261526 194.709595,369.733079 195.37664,369.137458 C195.609434,368.976237 195.837752,368.806059 196.061593,368.626925" id="Fill-86" fill="#EE3742"></path>
                <path d="M444.937943,369.810107 C437.587015,369.810107 431.605993,363.8315 431.605993,356.478036 C431.605993,353.643235 432.514786,350.933829 434.144346,348.681215 C434.005565,348.797652 433.875737,348.923046 433.741433,349.043962 C430.437544,351.36823 428.270767,355.206182 428.270767,359.550189 C428.270767,366.648387 434.023472,372.407555 441.119221,372.407555 C444.400725,372.407555 447.38676,371.162571 449.660981,369.138354 C449.862438,368.995046 450.059417,368.851739 450.25192,368.694996 C450.216106,368.708431 450.189245,368.730823 450.157907,368.744258 C448.497009,369.451839 446.742099,369.810107 444.937943,369.810107" id="Fill-88" fill="#EE3742"></path>
                <path d="M415.497523,410.336111 L424.187018,381.549227 C424.276554,381.262612 424.379521,380.96704 424.513825,380.653555 L424.589931,380.474421 C424.724235,380.174371 424.818248,379.977323 424.921215,379.780275 L425.042089,379.560836 C425.185347,379.310048 425.288314,379.135392 425.400234,378.960736 L425.530062,378.75921 C425.704657,378.499465 425.830008,378.333766 425.959836,378.163588 C426.976072,376.837994 428.269871,375.75871 429.680068,374.979476 C426.331411,375.579576 424.016899,377.075347 422.405246,378.81295 C420.032535,381.096912 419.195371,384.07502 418.644723,385.893234 L409.955228,414.680118 C409.373242,416.58342 408.204794,418.482244 406.597618,420.260152 C406.660293,420.224325 406.731922,420.197455 406.799075,420.15715 C411.047571,417.75675 414.37832,413.990451 415.497523,410.336111" id="Fill-90" fill="#EE3742"></path>
                <path d="M293.307827,410.92188 L302.288315,381.543853 C302.373374,381.257238 302.480818,380.970623 302.606169,380.657138 L302.686751,380.473525 C302.821056,380.177953 302.910592,379.985384 303.009082,379.792815 L303.138909,379.564418 C303.282167,379.31363 303.385134,379.134496 303.492578,378.964318 L303.676127,378.68666 C303.801478,378.507526 303.926829,378.33287 304.056656,378.167171 C304.508814,377.580506 305.023648,377.05206 305.569819,376.55944 C304.746085,376.88636 304.025318,377.293891 303.353796,377.73277 C299.817114,379.824163 297.475741,383.496417 296.754974,385.874425 L287.59989,415.25693 C286.78511,417.693157 285.285378,420.102514 283.369302,422.189428 C283.557328,422.099861 283.749831,422.023729 283.937857,421.920727 C288.217691,419.609894 291.812572,415.400238 293.307827,410.92188" id="Fill-92" fill="#EE3742"></path>
                <path d="M246.62899,439.799675 C240.800179,442.961395 234.689329,444.645258 228.891856,444.645258 C223.944977,444.645258 219.441303,443.458493 215.501707,441.12079 C212.900678,439.580235 210.662272,437.600801 208.844685,435.23175 C208.150779,435.688542 207.421059,436.140856 206.668954,436.579736 C206.055631,436.942483 205.388586,437.300751 204.70811,437.654541 C206.579418,440.22064 208.898407,442.370252 211.651647,444.000374 C215.568859,446.320164 220.036719,447.497972 224.943306,447.497972 L224.95226,447.497972 C231.985334,447.497972 238.821428,445.205053 245.303853,440.731173 C245.581416,440.538604 245.863455,440.368426 246.141017,440.1669 L246.62899,439.799675 Z" id="Fill-94" fill="#EE3742"></path>
                <path d="M185.455574,442.572226 L185.3347,442.572226 C176.121418,442.509529 168.215366,438.908929 163.64454,432.684012 C159.346799,426.839755 158.290271,419.342984 160.658505,411.586468 L169.835972,381.545644 C169.921032,381.267986 170.023999,380.976892 170.158303,380.649972 L170.234409,380.479795 C170.368713,380.175266 170.467203,379.97374 170.57017,379.781171 L170.691044,379.561731 C170.834302,379.306465 170.941745,379.122852 171.058142,378.943718 L171.2014,378.733235 C171.362566,378.491404 171.492393,378.316748 171.626698,378.142092 C172.051995,377.595732 172.531014,377.103113 173.036894,376.641842 C170.664183,377.725605 168.806305,379.163158 167.414016,380.672364 C165.712827,382.392054 164.701067,384.272964 164.213095,385.889651 L156.499545,411.147589 C153.826888,419.8983 155.084872,428.393745 159.995937,435.070977 C165.390497,442.419962 175.414082,446.262393 182.523261,446.262393 C187.984974,446.262393 192.475217,445.268198 196.705806,443.02454 C199.297881,441.779557 201.782512,440.082259 204.298481,437.865472 C198.241353,440.942104 191.732066,442.572226 185.455574,442.572226" id="Fill-96" fill="#EE3742"></path>
                <path d="M199.856587,417.467 C201.27126,416.441456 202.524768,415.290518 203.576819,414.045535 C204.279679,407.224996 206.858323,400.256671 211.039667,393.879489 C214.795713,388.147191 219.653056,383.220998 225.164013,379.495004 C222.692812,380.89673 220.458882,382.441763 218.417455,384.098756 C212.176778,388.85925 207.758163,394.645288 204.494566,400.525372 C201.324982,406.2308 199.292509,412.370629 198.558311,418.335801 C198.997039,418.062622 199.43129,417.776007 199.856587,417.467" id="Fill-98" fill="#EE3742"></path>
                <path d="M241.713001,397.117342 C243.687276,396.862076 245.2273,397.153169 246.234583,397.72192 C247.143376,398.236931 247.662686,399.007209 247.702978,399.898402 L244.108096,411.954141 L242.129345,418.577633 L241.972656,419.106079 C242.402431,418.765724 242.836681,418.429847 243.257502,418.053665 C244.757234,416.705679 246.131616,415.174081 247.340356,413.503653 C247.694024,413.015512 248.016354,412.536328 248.329731,412.043709 L252.211129,399.307259 C251.951473,396.378413 250.697966,394.663202 248.38793,394.049667 C247.837282,393.906359 247.237389,393.830227 246.601681,393.830227 C244.152865,393.830227 241.247413,394.927425 238.422543,396.924773 C238.010677,397.211387 237.576426,397.538308 237.142175,397.892098 C236.690017,398.254845 236.296057,398.599678 235.857329,398.998252 C235.7857,399.060949 235.727502,399.137081 235.655873,399.204257 C236.833275,398.586243 237.930094,398.120494 238.955284,397.780139 C239.94466,397.457697 240.875837,397.224823 241.713001,397.117342" id="Fill-100" fill="#EE3742"></path>
                <path d="M444.937943,365.707484 C439.847806,365.707484 435.706754,361.565003 435.706754,356.47311 C435.706754,351.385695 439.847806,347.243214 444.937943,347.243214 C450.023603,347.243214 454.164655,351.385695 454.164655,356.47311 C454.164655,361.565003 450.023603,365.707484 444.937943,365.707484 M458.265416,356.477588 C458.265416,349.124125 452.28887,343.141038 444.937943,343.141038 C441.822081,343.141038 438.786801,344.242715 436.396183,346.24454 C435.532158,346.965556 434.789007,347.794052 434.144346,348.680767 C432.514786,350.933381 431.605993,353.642788 431.605993,356.477588 C431.605993,363.831052 437.587015,369.809659 444.937943,369.809659 C446.742099,369.809659 448.497009,369.451391 450.157907,368.74381 C450.189245,368.730375 450.216106,368.707983 450.25192,368.694548 C455.118216,366.571807 458.265416,361.788921 458.265416,356.477588" id="Fill-102" fill="#00A0DD"></path>
                <path d="M230.055379,422.655625 C228.976467,422.167484 228.175118,421.235986 227.673715,419.883522 C226.572419,416.941241 227.078298,412.628582 229.034666,408.347272 C230.547829,405.024331 232.898156,401.795435 235.655873,399.202465 C235.727502,399.139768 235.7857,399.059158 235.857329,398.996461 C236.296057,398.597887 236.690017,398.257532 237.142175,397.894785 C237.576426,397.540995 238.010677,397.214074 238.422543,396.922981 C241.247413,394.930112 244.152865,393.828436 246.601681,393.828436 C247.237389,393.828436 247.837282,393.904568 248.38793,394.047876 C250.697966,394.661411 251.951473,396.3811 252.211129,399.305468 L248.329731,412.046396 C248.016354,412.539015 247.694024,413.013721 247.340356,413.501862 C246.131616,415.172289 244.757234,416.703888 243.257502,418.051873 C242.836681,418.432534 242.402431,418.768411 241.972656,419.108766 C237.670439,422.494404 232.929493,423.958827 230.055379,422.655625 Z M256.352181,399.793609 C256.164155,394.733064 253.648186,391.195162 249.435504,390.084529 C248.522234,389.842698 247.577627,389.72626 246.601681,389.72626 C238.986622,389.72626 229.791247,396.802066 225.301004,406.641018 C222.870094,411.970264 222.332876,417.32638 223.828132,421.325553 C224.719018,423.699083 226.285902,425.450121 228.363144,426.390576 C234.572484,429.211941 244.372228,424.608189 250.666628,415.90674 C251.159077,415.22603 251.629143,414.522928 252.094731,413.757128 L256.352181,399.793609 Z" id="Fill-104" fill="#00A0DD"></path>
                <path d="M280.060937,377.734561 L269.558333,412.388094 C268.049646,416.893322 268.389884,421.138806 270.476079,424.040781 C272.159361,426.378484 274.876787,427.663773 278.126953,427.663773 C285.777827,427.663773 294.319587,420.735753 297.171317,412.217917 L306.210003,382.741365 C307.042691,379.991654 309.961573,377.747996 312.71929,377.747996 L324.73058,377.734561 L323.042822,383.27429 C330.295259,377.752475 339.396621,375.670038 347.01168,377.828607 C352.365949,379.342292 356.292114,382.763757 358.09627,387.470511 C369.879243,377.362858 382.759035,374.277269 390.991894,379.610993 C397.832465,384.044568 399.851508,393.484946 396.404362,404.868932 L393.069136,415.769255 C391.927548,419.49077 392.075283,422.477835 393.503387,424.403528 C394.577822,425.863473 396.381978,426.665099 398.575616,426.665099 C407.215866,426.665099 416.957412,419.59825 419.419659,411.532728 L428.113631,382.736887 C428.950795,379.982697 431.869677,377.743518 434.622917,377.73904 L446.629731,377.73904 L435.088506,415.737906 C434.179713,418.711536 434.502043,421.456769 435.992822,423.47203 C437.514939,425.532075 440.174166,426.665099 443.4691,426.665099 L457.360652,426.665099 L453.434487,439.813558 L439.18479,439.813558 C431.081758,439.764296 424.32177,436.607054 420.574677,431.152414 C415.269653,435.187414 406.674172,439.903125 395.477661,439.903125 C388.350575,439.903125 382.503856,437.328069 379.016419,432.648185 C375.29171,427.650338 374.521698,420.614838 376.836211,412.83593 L380.010271,402.643188 C381.58611,397.954347 381.151859,394.1567 378.788101,391.948869 C376.366145,389.68282 372.086312,389.346943 367.891538,391.080068 C362.779017,393.193853 357.908244,398.585796 356.5652,403.623948 L346.429694,436.91606 L329.422281,436.933974 L340.175586,401.568382 C341.523107,397.219896 340.972459,393.650645 338.640039,391.523425 C336.316573,389.400684 332.591864,389.100634 328.683606,390.712842 C323.342768,392.925151 318.355598,398.187222 317.084183,402.956673 L316.855866,403.820996 L316.815574,403.722472 L306.715883,436.91606 L289.703993,436.933974 L290.482958,434.38131 C281.739742,438.608879 273.614325,440.346482 266.94835,439.406027 C260.756918,438.537226 255.913006,435.429245 252.918017,430.413485 C245.4686,437.041454 236.81492,440.565922 228.97602,440.565922 C224.857351,440.565922 220.967001,439.594118 217.591483,437.592292 C214.292072,435.63525 211.731335,432.849711 209.989854,429.311809 C202.835907,435.142631 193.927048,438.47005 185.45244,438.47005 C185.385288,438.47005 185.318136,438.47005 185.246507,438.465572 C177.41656,438.41631 170.750585,435.424767 166.949771,430.256742 C163.439949,425.478334 162.602785,419.275809 164.586013,412.786668 L173.759004,382.750322 C174.591691,379.996132 177.510573,377.756953 180.263814,377.752475 L192.270627,377.752475 L181.1547,414.394399 C180.245906,417.36355 180.568237,420.108783 182.054539,422.124044 C183.581132,424.184089 186.235883,425.317113 189.535294,425.317113 C195.901323,425.317113 203.301495,421.331375 207.567898,415.612512 C208.024533,409.060674 210.410675,402.325224 214.471144,396.131655 C219.525467,388.419923 226.661507,382.338313 234.558606,379.01985 C242.527334,375.670038 250.375187,375.513296 256.656157,378.580971 C258.558802,379.507991 260.268945,380.712669 261.755247,382.159179 C262.802821,379.660255 265.479956,377.747996 268.049646,377.747996 L280.060937,377.734561 Z M268.04517,373.641342 C265.623214,373.645821 263.107245,374.640016 261.074771,376.386576 C260.228654,375.831259 259.351198,375.329683 258.455835,374.895283 C251.100431,371.299161 242.048315,371.424555 232.969337,375.235638 C231.039831,376.046221 229.092417,377.044894 227.185294,378.195832 C227.046513,378.276443 226.912209,378.374967 226.777904,378.460055 C226.23621,378.791454 225.694515,379.136287 225.166251,379.499034 C219.650817,383.22055 214.797952,388.146743 211.041905,393.879041 C206.860562,400.256223 204.281917,407.224548 203.574581,414.045087 C202.52253,415.29007 201.273499,416.441008 199.854349,417.466552 C199.429052,417.775559 198.999278,418.062174 198.556073,418.335354 C195.601376,420.180437 192.382547,421.214938 189.535294,421.214938 C187.569973,421.214938 186.083671,420.668578 185.35395,419.678861 C184.655568,418.742884 184.557078,417.287418 185.080865,415.59012 L197.812922,373.645821 L180.263814,373.650299 C177.707553,373.650299 175.084141,374.774367 173.038237,376.641842 C172.52788,377.103113 172.053338,377.595732 171.628041,378.142092 C171.493736,378.316748 171.363909,378.491404 171.202743,378.733235 L171.059485,378.943718 C170.943088,379.122852 170.835645,379.306465 170.68791,379.561731 L170.567036,379.781171 C170.468546,379.97374 170.370056,380.175266 170.235752,380.479795 L170.159646,380.649972 C170.025342,380.976892 169.917898,381.267986 169.837315,381.545644 L160.659848,411.586468 C158.287137,419.347462 159.348142,426.839755 163.645883,432.68849 C168.216709,438.908929 176.122761,442.509529 185.331566,442.572226 L185.456917,442.572226 C191.733409,442.572226 198.242696,440.942104 204.299824,437.865472 C204.349069,437.838602 204.402791,437.820688 204.452036,437.793818 C204.541572,437.744556 204.617678,437.699773 204.707215,437.650511 C205.38769,437.301199 206.054735,436.94293 206.668059,436.580183 C207.420163,436.141304 208.154361,435.68899 208.84379,435.232198 C210.665853,437.601249 212.90426,439.580683 215.500811,441.121238 C219.440407,443.458941 223.944081,444.645706 228.89096,444.645706 C234.688433,444.641227 240.799284,442.961843 246.628095,439.800123 L246.140122,440.167348 C245.86256,440.368874 245.58052,440.539052 245.302958,440.731621 C248.042768,460.051257 252.224111,472.814577 258.818457,482.008645 C264.696513,490.199562 271.098356,493.083624 272.320526,493.576244 C272.387679,493.607592 273.914272,494.342043 276.027328,495.054102 C281.126418,496.773791 286.556793,498.336738 289.144391,499.062232 C284.922756,495.945295 280.916008,492.698485 277.285312,489.05758 C260.354004,486.428784 252.680746,462.384481 248.266608,438.846232 C248.454634,438.734273 248.638184,438.613358 248.82621,438.501399 C249.358951,438.17 249.878261,437.874429 250.415479,437.51616 C251.046709,437.090716 251.624218,436.683186 252.179343,436.275655 C253.755181,437.986388 255.590675,439.437376 257.632102,440.588314 C264.848725,444.645706 274.36643,444.802448 285.15555,441.040628 L309.751163,441.018236 L321.041686,404.018044 C321.628149,401.814692 323.468119,399.275463 325.907982,397.224375 C326.1363,397.031805 326.364617,396.839236 326.601888,396.655623 C327.806151,395.733082 329.032798,395.012066 330.250491,394.51049 C332.582911,393.543165 334.78998,393.561078 335.877845,394.555273 C336.93885,395.522599 337.077631,397.699081 336.249421,400.37266 L323.884462,441.045106 L349.469451,441.018236 L360.495842,404.801756 L360.531656,404.680841 C361.171841,402.280441 362.98495,399.633731 365.388999,397.515468 C365.483012,397.434858 365.559118,397.34529 365.653131,397.26468 C366.893208,396.216744 368.209391,395.388248 369.453945,394.873237 C372.090789,393.784996 374.7724,393.816344 375.985616,394.944891 C377.086912,395.979391 377.140634,398.308137 376.119921,401.353421 L372.905569,411.667079 C370.210527,420.71784 371.213333,429.043107 375.730438,435.102325 C380.010271,440.84358 387.025438,444.005301 395.482138,444.005301 C403.934362,444.005301 412.355248,441.466072 419.858387,436.656315 C420.834332,437.619162 421.904291,438.496921 423.041401,439.271676 C427.446585,442.272176 433.020218,443.879907 439.162406,443.915733 L456.469766,443.915733 L462.98353,422.562923 L443.4691,422.562923 C441.508256,422.562923 440.021954,422.016564 439.287757,421.026847 C438.593851,420.09087 438.495361,418.635404 439.014671,416.933628 L452.167549,373.618951 L434.61844,373.636864 C432.944112,373.636864 431.238446,374.125005 429.680515,374.980371 C428.270319,375.759606 426.97652,376.83889 425.960283,378.164484 C425.830456,378.330183 425.705105,378.500361 425.530509,378.760105 L425.400682,378.957153 C425.288761,379.131809 425.185795,379.310943 425.042537,379.561731 L424.921663,379.781171 C424.814219,379.97374 424.724683,380.175266 424.590379,380.475316 L424.514273,380.649972 C424.379968,380.967936 424.277002,381.263507 424.187465,381.550122 L415.497971,410.337006 C414.378767,413.991346 411.048018,417.757645 406.799522,420.158045 C406.73237,420.19835 406.660741,420.220742 406.598066,420.261047 C403.911978,421.738906 401.073678,422.562923 398.575616,422.562923 C398.07869,422.562923 397.187804,422.486791 396.802798,421.967302 C396.225289,421.188067 396.301395,419.226547 396.990824,416.969454 L400.330527,406.060175 C404.341752,392.826627 401.682525,381.648646 393.221347,376.167136 C388.364005,373.014372 382.199433,372.145571 375.399154,373.645821 C370.152328,374.805715 364.596603,377.443468 359.300533,381.290378 C356.556246,377.694256 352.477869,375.029633 347.754831,373.771215 C342.185675,372.288878 335.882322,372.687452 329.878916,374.890804 L330.250491,373.641342 L312.714813,373.641342 C310.18989,373.645821 307.602292,374.73854 305.569819,376.561232 C305.023648,377.049373 304.508814,377.577819 304.056656,378.168962 C303.926829,378.334661 303.801478,378.504839 303.676127,378.688452 L303.492578,378.96611 C303.385134,379.136287 303.282167,379.315422 303.138909,379.561731 L303.009082,379.790128 C302.910592,379.982697 302.821056,380.179745 302.686751,380.470838 L302.606169,380.654451 C302.480818,380.967936 302.373374,381.259029 302.288315,381.545644 L293.307827,410.923671 C291.812572,415.397551 288.217691,419.611686 283.937857,421.922518 C283.749831,422.021042 283.557328,422.097174 283.369302,422.19122 C281.560669,423.073456 279.765467,423.561597 278.13143,423.561597 C276.201924,423.561597 274.706668,422.8988 273.806828,421.64486 C272.486168,419.813212 272.347387,416.911236 273.435253,413.673383 L285.594278,373.641342 L278.413469,373.641342 L273.891888,373.641342 L268.04517,373.641342 Z" id="Fill-106" fill="#00A0DD"></path>
                <path d="M190.586002,347.258441 C195.676139,347.258441 199.812714,351.396443 199.812714,356.488336 C199.812714,361.580229 195.676139,365.72271 190.586002,365.72271 C185.500342,365.72271 181.35929,361.580229 181.35929,356.488336 C181.35929,351.396443 185.500342,347.258441 190.586002,347.258441 M177.254052,356.488336 C177.254052,363.8418 183.235075,369.824886 190.586002,369.824886 C192.390158,369.824886 194.149546,369.462139 195.810443,368.759037 C195.895503,368.718731 195.976085,368.664991 196.061145,368.624686 C200.837905,366.466117 203.917952,361.74145 203.917952,356.488336 C203.917952,349.134873 197.93693,343.151787 190.586002,343.151787 C187.474617,343.151787 184.439337,344.257941 182.044242,346.259767 C181.14888,347.012131 180.374391,347.876454 179.716299,348.812431 C178.140461,351.038175 177.254052,353.702798 177.254052,356.488336" id="Fill-108" fill="#00A0DD"></path>
                <path d="M454.162417,356.475349 C454.162417,351.387934 450.025841,347.245453 444.935704,347.245453 C439.850045,347.245453 435.708992,351.387934 435.708992,356.475349 C435.708992,361.567242 439.850045,365.709723 444.935704,365.709723 C450.025841,365.709723 454.162417,361.567242 454.162417,356.475349" id="Fill-110" fill="#000000"></path>
                <path d="M190.586002,365.720919 C195.676139,365.720919 199.812714,361.578438 199.812714,356.486545 C199.812714,351.39913 195.676139,347.256649 190.586002,347.256649 C185.500342,347.256649 181.35929,351.39913 181.35929,356.486545 C181.35929,361.578438 185.500342,365.720919 190.586002,365.720919" id="Fill-112" fill="#000000"></path>
                <path d="M252.096074,413.758024 C251.630486,414.523823 251.16042,415.226925 250.667971,415.907636 C244.373571,424.604607 234.573827,429.212837 228.36001,426.391471 C226.282769,425.451016 224.720361,423.699978 223.829475,421.32197 C222.334219,417.322797 222.871437,411.971159 225.302347,406.641913 C229.79259,396.802961 238.987965,389.727156 246.603024,389.727156 C247.57897,389.727156 248.523577,389.843593 249.432371,390.080946 C253.645052,391.196057 256.165498,394.73396 256.353524,399.794504 L252.096074,413.758024 Z M268.051437,377.747549 C265.481746,377.747549 262.800135,379.659807 261.757038,382.158731 C260.270736,380.712222 258.556116,379.512022 256.657947,378.585002 C250.376978,375.512848 242.524648,375.669591 234.560397,379.019402 C226.658821,382.337865 219.527257,388.419475 214.468458,396.131208 C210.412465,402.324776 208.026324,409.060227 207.565212,415.612064 C203.303286,421.330927 195.898637,425.321144 189.537085,425.321144 C186.237673,425.321144 183.582923,424.183641 182.05633,422.123596 C180.565551,420.108335 180.247697,417.363102 181.15649,414.393951 L192.272418,377.752027 L180.265604,377.752027 C177.512364,377.756505 174.593482,379.995684 173.756318,382.749874 L164.583327,412.78622 C162.600099,419.275361 163.44174,425.477886 166.951562,430.256294 C170.747899,435.424319 177.418351,438.415862 185.248298,438.465124 C185.31545,438.469603 185.387079,438.469603 185.454231,438.469603 C193.928839,438.469603 202.837697,435.142183 209.987168,429.311361 C211.733125,432.849263 214.289386,435.634802 217.593274,437.591844 C220.968791,439.59367 224.859142,440.565474 228.973334,440.565474 C236.816711,440.565474 245.470391,437.041006 252.919808,430.413037 C255.914796,435.428798 260.758708,438.536778 266.945664,439.410058 C273.616116,440.346034 281.741532,438.608432 290.480272,434.380862 L289.701307,436.933526 L306.713197,436.915612 L316.817365,403.722024 L316.853179,403.820548 L317.085974,402.956225 C318.357389,398.186774 323.344559,392.924703 328.685397,390.712395 C332.593655,389.100186 336.313887,389.400236 338.64183,391.522977 C340.97425,393.650197 341.520421,397.219449 340.177377,401.567934 L329.419594,436.933526 L346.431485,436.915612 L356.562514,403.6235 C357.910035,398.585348 362.776331,393.193405 367.888852,391.07962 C372.088102,389.346495 376.363459,389.686851 378.785415,391.948421 C381.149173,394.156252 381.583424,397.953899 380.012062,402.647218 L376.838001,412.835482 C374.519012,420.61439 375.293501,427.654368 379.018209,432.647737 C382.50117,437.327621 388.352365,439.902677 395.479452,439.902677 C406.675962,439.902677 415.266967,435.186966 420.571991,431.151966 C424.32356,436.611084 431.083549,439.763848 439.186581,439.81311 L453.436278,439.81311 L457.362443,426.664651 L443.470891,426.664651 C440.17148,426.664651 437.516729,425.531627 435.990136,423.471582 C434.503834,421.456321 434.181503,418.711088 435.090297,415.737458 L446.627045,377.738592 L434.624708,377.74307 C431.871468,377.74307 428.948109,379.982249 428.115421,382.736439 L419.42145,411.53228 C416.959203,419.597803 407.217657,426.664651 398.57293,426.664651 C396.379292,426.664651 394.579613,425.863025 393.500701,424.403081 C392.077074,422.477387 391.924862,419.490322 393.070927,415.768807 L396.401676,404.868484 C399.853299,393.484498 397.829779,384.04412 390.989208,379.610546 C382.760825,374.276821 369.881033,377.366888 358.098061,387.470064 C356.289428,382.763309 352.36774,379.341844 347.008994,377.828159 C339.398411,375.669591 330.292573,377.752027 323.040135,383.273842 L324.727894,377.734114 L312.721081,377.747549 C309.963364,377.747549 307.044481,379.991206 306.211794,382.740918 L297.168631,412.217469 C294.321378,420.735306 285.779618,427.663325 278.128744,427.663325 C274.874101,427.663325 272.156675,426.378036 270.47787,424.040334 C268.387198,421.138358 268.051437,416.892874 269.560123,412.387647 L280.062727,377.734114 L268.051437,377.747549 Z" id="Fill-114" fill="#000000"></path>
                <path d="M98.6604601,380.756557 L99.2021545,380.022107 C104.005775,373.532966 110.582214,364.638947 116.813938,356.537598 L116.925859,356.398769 C128.140276,343.057741 135.280793,336.505904 144.283665,331.351314 C146.830972,329.927196 149.539444,328.677734 152.328498,327.643233 C154.687779,326.760997 156.997815,326.089243 159.222791,325.55184 L157.86184,325.708583 C157.817072,325.713061 156.800835,325.833977 152.274777,327.047612 C147.672613,328.27916 142.80184,330.267551 138.557821,332.636602 L138.553344,332.641081 C137.353558,333.326269 136.18511,334.038328 135.034568,334.781736 C127.146423,339.891542 120.176025,346.626992 110.031566,358.68721 C109.968891,358.758864 109.910692,358.834996 109.852493,358.911128 L97.5143959,375.315353 L98.6604601,380.756557 Z" id="Fill-116" fill="#EE3742"></path>
                <g id="Group-120" transform="translate(-0.000000, 324.461808)">
                    <mask id="mask-4" fill="white">
                        <use xlink:href="#path-3"></use>
                    </mask>
                    <g id="Clip-119"></g>
                    <path d="M47.5746477,121.513074 C42.6904443,125.606294 34.8202065,128.602315 24.8592968,130.017476 C19.9571862,130.711621 14.6924537,131.226633 11.0572813,131.240068 C14.1776202,128.794884 18.0232028,125.431638 21.3942433,121.468291 C23.8520138,118.781276 26.8828164,114.495488 29.0585477,108.194438 C30.6433396,103.599643 52.8483338,31.6458678 55.3732565,23.4549513 L55.4717464,23.1414663 C55.7896002,22.0666604 56.0626858,21.0814217 56.2910033,20.1320098 C56.4521685,19.4647345 56.5864729,18.8646345 56.6983933,18.2958831 C57.4415443,14.5878028 57.352008,12.8546783 57.352008,12.7337627 C57.3967762,10.0691398 57.0117702,7.72248025 56.3402482,5.84604832 C56.1835597,5.41164761 55.9955336,4.91454989 55.7493089,4.52493276 L55.6284349,4.33236337 L55.6284349,4.33684173 L55.6239581,4.32340665 L51.6798855,8.27779662 L51.7918059,8.47484437 C52.0201233,8.87789657 52.1812886,9.38842936 52.3111162,9.83626515 C53.1482803,12.738241 52.9557773,16.5403668 51.6888392,21.3053396 L24.8682504,107.567468 C20.2705631,121.898213 1.63358919,133.425506 1.44556303,133.537465 L-0.000447681334,134.419702 L1.68731095,134.580923 C1.73655589,134.585401 4.50770335,134.840667 8.73829196,134.840667 C12.4092789,134.840667 17.1726083,134.648098 22.2090233,133.931561 C36.6512231,131.880473 46.4241067,126.649751 51.4336608,118.293135 C52.1096596,117.209373 53.4034587,115.019456 54.2988213,113.429639 C53.1885716,115.180676 51.9395407,116.900366 50.5114372,118.485705 C49.9204979,119.144023 48.9848439,120.236742 47.5746477,121.513074" id="Fill-118" fill="#EE3742" mask="url(#mask-4)"></path>
                </g>
                <polygon id="Fill-121" fill="#EE3742" points="106.109877 445.421357 123.600787 388.9627 116.352826 398.703128 115.229146 402.317163 115.229146 402.321642 100.737701 449.035392 100.518338 449.738494 135.970222 449.738494 140.106798 445.609448 139.941156 445.501968 139.878481 445.582578 139.166667 445.488533 139.238296 445.421357"></polygon>
                <polygon id="Fill-123" fill="#EE3742" points="72.5754118 384.559131 70.099734 392.656002 80.9828673 444.116812 84.5777484 441.385013"></polygon>
                <path d="M158.133135,356.193212 L135.887849,427.752892 C135.202897,430.099552 134.732831,431.90433 134.504514,433.637454 C134.115031,436.548387 134.182183,438.877133 134.714924,440.955091 L134.808937,441.308881 L111.690673,441.308881 L111.80707,440.941656 L134.634341,367.2458 L86.7190082,431.617715 L73.3064754,368.101166 L57.2033778,420.739784 C56.2856311,423.892548 53.4965764,433.489669 47.4528784,440.198249 C45.5636631,442.29412 39.8154348,448.67578 23.5153574,450.382034 L22.7184847,450.462645 L23.28704,449.898372 C26.1835382,447.027744 30.2081934,441.94033 32.95248,433.995723 C34.6178545,429.163575 59.1597453,349.614505 59.40597,348.812879 C60.3371472,345.67355 60.8654111,343.282107 61.2325098,340.568222 C61.613039,337.693116 61.5458868,335.297195 61.0176228,333.246107 L60.9280865,332.892317 L84.3821116,332.887838 L96.4829381,390.519825 C96.4829381,390.519825 113.897742,367.048752 120.05336,359.041448 C130.918586,346.116907 137.794972,339.802423 146.332255,334.921013 C156.713985,329.112583 167.149437,327.894469 174.07059,327.894469 C174.383967,327.894469 174.701821,327.898948 175.015198,327.907904 L175.749395,327.925818 L175.189793,328.400524 C167.516535,334.929969 161.938426,344.021036 158.133135,356.193212 M177.857974,331.530896 C181.197677,328.467699 182.948111,327.115235 186.422118,324.275956 C186.422118,324.275956 182.697409,323.796772 174.075067,323.783337 C170.310067,323.783337 165.076672,324.146084 159.221,325.552288 C156.996024,326.089691 154.685988,326.761445 152.326708,327.643681 C149.537653,328.678182 146.833658,329.927644 144.281874,331.351762 C135.279002,336.506351 128.138485,343.058189 116.924068,356.399217 L116.812147,356.538046 C110.580423,364.639395 104.003984,373.533414 99.2003638,380.022554 L98.6586694,380.757005 L97.5126051,375.3158 L87.7218144,328.772227 L55.6230627,328.781184 L55.6275395,328.799098 L55.6320163,328.794619 L55.7484135,328.987189 C55.9946382,329.376806 56.1871412,329.873903 56.3438297,330.308304 C57.0153517,332.184736 57.4003576,334.531396 57.3511127,337.196018 C57.3511127,337.316934 57.4406489,339.04558 56.6974979,342.758139 C56.5855776,343.322412 56.45575,343.92699 56.2901079,344.594266 C56.0617904,345.543677 55.7931816,346.528916 55.4708511,347.603722 L55.3723612,347.917207 C52.8474384,356.108124 30.6424443,428.057421 29.0576524,432.656694 C26.8863979,438.957744 23.8511184,443.243532 21.3978247,445.930547 C18.0223075,449.893893 14.1767248,453.25714 11.0563859,455.702323 C14.6915583,455.688888 19.9562908,455.173877 24.8584014,454.479732 C34.8193111,453.060092 42.689549,450.064071 47.5737523,445.97533 C48.9839485,444.698998 49.9240793,443.606279 50.5105419,442.94796 C51.9386453,441.362622 53.1921531,439.642932 54.297926,437.891894 C58.3583957,431.460973 60.3819153,424.555345 61.1519272,421.904157 L70.0966002,392.656002 L72.5767548,384.559131 L84.5746146,441.385013 L116.351036,398.701785 L123.598996,388.961357 L106.108087,445.420014 L139.236505,445.420014 L140.109484,445.420014 C139.460346,443.216662 139.030572,441.66715 138.66795,439.974331 C138.238176,437.488842 138.269514,436.517039 138.582891,434.183814 C138.779871,432.696999 139.200691,431.089269 139.818491,428.971006 L162.063777,357.415804 C162.15779,357.106797 162.274187,356.820183 162.372677,356.511176 C165.93622,345.570548 171.12037,337.370674 177.857974,331.530896" id="Fill-125" fill="#00A0DD"></path>
                <path d="M175.012959,327.906113 C174.699582,327.897156 174.386205,327.892678 174.072828,327.892678 C167.147198,327.892678 156.716223,329.11527 146.330016,334.919221 C137.792733,339.80511 130.920825,346.115116 120.055599,359.044135 C113.895504,367.04696 96.4806997,390.518034 96.4806997,390.518034 L84.3798732,332.886047 L60.9258481,332.895004 L61.0198612,333.244316 C61.5436484,335.299882 61.6108006,337.695803 61.2302714,340.566431 C60.8676495,343.284794 60.3393856,345.671759 59.4082084,348.811087 C59.1575069,349.617192 34.6156161,429.166262 32.9502416,433.993932 C30.2104318,441.938539 26.1812998,447.030431 23.2892784,449.901059 L22.7162463,450.465332 L23.5175958,450.380243 C39.8131964,448.678467 45.5614247,442.292329 47.45064,440.196457 C53.4988148,433.492356 56.2878695,423.890756 57.2056162,420.737993 L73.3087138,368.103853 L86.7212466,431.615924 L134.63658,367.248487 L111.804832,440.944343 L111.692911,441.30709 L134.806699,441.30709 L134.717162,440.957778 C134.179945,438.875342 134.112793,436.551074 134.502275,433.635663 C134.730593,431.907017 135.205135,430.09776 135.885611,427.751101 L158.130896,356.191421 C161.940664,344.023723 167.518774,334.932656 175.187555,328.403211 L175.751634,327.924026 L175.012959,327.906113 Z" id="Fill-127" fill="#000000"></path>
                <path d="M126.817378,250.636975 C127.220291,259.719084 128.590196,268.698192 130.824126,277.43099 C128.406646,245.903351 133.899696,219.346689 145.239464,197.505737 C142.226569,197.460954 139.258442,197.438562 136.35299,197.44304 C129.199042,214.039835 125.989167,231.912961 126.817378,250.636975" id="Fill-129" fill="#EE3742"></path>
                <path d="M272.388126,120.390655 C271.537532,120.408568 270.68246,120.417525 269.836343,120.444395 C232.540011,121.60429 197.992442,131.680595 173.226711,150.382217 C169.23787,153.396152 165.477347,156.611613 161.936188,160.010686 C157.544434,164.394999 153.564547,169.034577 149.960712,173.893596 C154.361419,173.154667 158.690498,172.514262 162.925563,171.963423 C189.083584,142.795879 228.55117,125.970689 272.388126,120.390655" id="Fill-131" fill="#EE3742"></path>
                <path d="M117.135821,197.841614 C123.215334,197.604261 129.635084,197.460954 136.350304,197.44304 C139.260233,197.438562 142.22836,197.460954 145.236778,197.505737 C157.449525,197.68935 170.463622,198.311842 183.988075,199.601609 C190.121309,194.90829 196.617165,190.618023 203.323432,186.735287 C163.215661,184.979771 109.301398,186.995032 57.849382,203.735133 C59.1655651,203.484345 79.937979,199.668784 111.199567,198.105837 C113.120119,198.007313 115.085441,197.922225 117.082099,197.841614 C117.100007,197.841614 117.117914,197.841614 117.135821,197.841614" id="Fill-133" fill="#42738D"></path>
                <polygon id="Fill-135" fill="#000000" points="467.55167 445.596461 467.533763 445.596461 466.580202 442.613875 465.125237 442.613875 465.125237 447.177322 465.962401 447.177322 465.962401 443.545373 465.984785 443.545373 467.135326 447.172843 467.936676 447.172843 469.127508 443.545373 469.145416 443.545373 469.145416 447.172843 469.987057 447.172843 469.987057 442.613875 468.545523 442.613875"></polygon>
                <polygon id="Fill-137" fill="#000000" points="461.061634 443.431623 462.297234 443.431623 462.297234 447.17553 463.129922 447.17553 463.129922 443.431623 464.378952 443.431623 464.378952 442.616562 461.061634 442.616562"></polygon>
            </g>
        </g>
    </g>
</svg>