<?xml version="1.0" encoding="UTF-8"?>
<svg width="500px" height="500px" viewBox="0 0 500 500" version="1.1" xmlns="http://www.w3.org/2000/svg" xmlns:xlink="http://www.w3.org/1999/xlink">
    <!-- Generator: Sketch 59.1 (86144) - https://sketch.com -->
    <title>Team Logos / MLB / Regular / Dark / MIL</title>
    <desc>Created with Sketch.</desc>
    <defs>
        <polygon id="path-1" points="0 0.14020979 498.459371 0.14020979 498.459371 498.601399 0 498.601399"></polygon>
    </defs>
    <g id="Team-Logos-/-MLB-/-Regular-/-Dark-/-MIL" stroke="none" stroke-width="1" fill="none" fill-rule="evenodd">
        <g id="Group-50" transform="translate(1.000000, 0.000000)">
            <path d="M249.226573,12.1520979 C118.118182,12.1520979 11.4517483,118.817832 11.4517483,249.929021 C11.4517483,381.042308 118.118182,487.707343 249.226573,487.707343 C380.337762,487.707343 487.005594,381.042308 487.005594,249.929021 C487.005594,118.817832 380.337762,12.1520979 249.226573,12.1520979" id="Fill-1" fill="#11284B"></path>
            <g id="Group-5" transform="translate(0.000000, 0.559441)">
                <mask id="mask-2" fill="white">
                    <use xlink:href="#path-1"></use>
                </mask>
                <g id="Clip-4"></g>
                <path d="M11.4530769,249.36958 C11.4530769,118.258392 118.116713,11.5926573 249.227203,11.5926573 C380.338392,11.5926573 487.006224,118.258392 487.006224,249.36958 C487.006224,380.482867 380.338392,487.148601 249.227203,487.148601 C118.116713,487.148601 11.4530769,380.482867 11.4530769,249.36958 M249.227203,0.14020979 C111.802727,0.14020979 -6.99300699e-05,111.944406 -6.99300699e-05,249.36958 C-6.99300699e-05,386.796154 111.802727,498.601748 249.227203,498.601748 C386.654476,498.601748 498.459371,386.796154 498.459371,249.36958 C498.459371,111.944406 386.654476,0.14020979 249.227203,0.14020979" id="Fill-3" fill="#FEC52F" mask="url(#mask-2)"></path>
            </g>
            <path d="M249.227552,29.16 C127.494685,29.16 28.4583217,128.198462 28.4583217,249.933427 C28.4583217,371.665594 127.494685,470.704755 249.227552,470.704755 C370.962517,470.704755 470.003776,371.665594 470.003776,249.933427 C470.003776,128.198462 370.962517,29.16 249.227552,29.16 M249.227552,476.476084 C124.312867,476.476084 22.6848951,374.848112 22.6848951,249.933427 C22.6848951,125.013846 124.312867,23.3858741 249.227552,23.3858741 C374.147133,23.3858741 475.775105,125.013846 475.775105,249.933427 C475.775105,374.848112 374.147133,476.476084 249.227552,476.476084" id="Fill-6" fill="#003E9F"></path>
            <path d="M361.175105,200.40951 L361.175105,233.753566 C361.175105,261.583636 356.626154,278.436783 334.775105,324.650769 C311.765315,373.303217 283.392587,387.749371 249.439441,387.749371 C227.117063,387.749371 206.124056,380.397622 189.172308,366.814406 L189.01986,366.871748 L185.23035,363.486434 L184.533147,362.865455 C179.724056,358.568951 175.621259,353.944476 172.083497,349.187832 C171.785594,348.793427 171.495385,348.399021 171.213566,347.994825 C171.162517,347.937483 171.105175,347.865455 171.07021,347.794126 C170.853427,347.508112 170.647832,347.215105 170.445035,346.924196 C168.416364,344.06965 166.547832,341.110909 164.862517,338.058462 C164.661818,337.73049 164.48,337.393427 164.304476,337.07035 C158.717063,327.010909 155.02965,316.996224 151.937343,308.628392 C151.051329,306.225594 150.220559,303.966853 149.401678,301.866853 C142.995385,285.408811 130.591888,253.241678 124.589091,237.036783 C118.347133,220.20951 117.393986,208.264755 121.388392,197.095524 C125.664615,185.132587 135.22965,175.560559 148.284196,164.882937 C161.35972,154.184336 172.58,145.29972 188.086993,134.105315 C197.791189,127.103916 208.207972,123.390629 218.205175,123.390629 C222.439441,123.390629 226.440839,124.071049 230.107972,125.405315 C230.763217,125.640979 231.49049,125.910909 232.436643,126.27035 C235.807972,127.53958 238.798182,129.27035 241.374406,131.40042 C241.641538,131.248671 241.90028,131.098322 242.142238,130.950769 C249.270909,126.787832 257.264615,124.590629 265.26951,124.590629 C271.604476,124.590629 277.807273,125.957063 283.21007,128.547972 C284.386294,129.101818 285.07021,129.455664 285.845035,129.87035 C286.221259,130.068951 286.641538,130.290629 287.209371,130.576643 C291.46042,132.752867 295.121958,135.545175 298.076503,138.78993 C302.813566,137.197622 307.407972,136.399021 311.79049,136.399021 C318.473706,136.399021 324.722657,138.222098 330.356224,141.813007 L331.703077,142.668951 C334.283497,144.312308 335.584895,145.136084 337.592587,146.52979 C352.89049,157.12 361.175105,168.842378 361.175105,200.40951" id="Fill-8" fill="#FEC52F"></path>
            <path d="M252.221469,259.768741 C276.255734,259.768741 295.735455,279.254755 295.735455,303.28972 C295.735455,327.317692 276.255734,346.803007 252.221469,346.803007 C228.187203,346.803007 208.705385,327.317692 208.705385,303.28972 C208.705385,279.254755 228.187203,259.768741 252.221469,259.768741 M331.942448,154.691119 C329.787203,153.20021 328.531958,152.422587 325.024266,150.189021 C318.203287,145.840769 309.163427,144.403706 296.836154,149.916294 C296.019371,150.281329 295.255035,150.624685 294.502587,150.957552 C291.761329,145.335874 286.896993,141.565245 282.687203,139.414196 C280.961329,138.528182 280.485804,138.246364 278.927762,137.498811 C270.560629,133.49951 258.45014,132.92049 247.151538,139.527483 C244.883007,140.847063 241.906084,142.605804 239.346643,144.121888 C236.734755,139.661049 232.71028,136.977133 228.934755,135.558252 C228.027762,135.219091 227.338252,134.962448 226.708182,134.734476 C218.361329,131.692517 206.15993,133.305804 193.901888,142.153357 C179.299091,152.69951 168.586503,161.097413 154.578811,172.568741 C128.952238,193.531678 123.515175,205.582727 133.894895,233.588322 C139.604685,248.98972 151.71028,280.427483 158.652238,298.265944 C162.630559,308.493916 166.784406,321.756154 174.30049,334.554056 L174.30049,334.561049 C174.987902,335.728881 175.699091,336.893916 176.448741,338.052657 C176.642448,338.364545 176.852937,338.657552 177.055734,338.963846 C180.462028,344.137972 184.514476,349.14986 189.392797,353.791119 C189.782308,354.169441 190.172517,354.542867 190.571818,354.912797 C190.772517,355.09042 190.95014,355.279231 191.155734,355.464545 C191.160629,355.464545 191.164825,355.454755 191.16972,355.447762 C206.457832,369.363147 226.712378,377.822587 249.44035,377.822587 C291.138252,377.822587 324.938252,344.024685 324.938252,302.331678 L324.938252,302.244266 C324.938252,262.441469 292.673217,230.184825 252.872517,230.184825 C231.256434,230.184825 209.536154,242.68972 196.717273,262.402308 C191.278112,249.070839 179.617273,220.545664 170.838951,199.174336 C166.117273,187.672238 167.197692,181.847762 174.413077,175.16035 C178.101189,171.744965 182.587203,168.32049 187.564825,164.944266 C192.646643,161.507902 198.392797,163.52958 198.392797,170.254056 L198.392797,241.471538 C209.997692,229.753357 224.248042,222.112098 242.49,218.742867 L242.203986,159.966643 C243.50049,159.156853 244.723566,158.415594 245.635455,157.882727 C250.285105,155.186923 253.608182,158.180629 253.608182,162.512098 L253.608182,217.247762 C253.901189,217.242867 254.192098,217.231678 254.48021,217.231678 C269.859231,217.231678 284.265524,221.415594 296.66972,228.672937 L296.66972,167.309301 C297.836853,166.838671 298.931259,166.405105 299.776014,166.065944 C304.437552,164.212098 307.587203,167.104406 307.587203,171.32049 C307.587203,175.52958 307.264126,236.369441 307.264126,236.369441 C324.394196,250.48972 335.503287,271.286923 337.255035,294.73028 C345.428462,277.344266 351.245944,261.147063 351.245944,233.751958 L351.245944,200.408601 C351.245944,172.64007 344.951538,163.70021 331.942448,154.691119" id="Fill-10" fill="#11284B"></path>
            <path d="M277.805385,324.124895 C268.582308,311.822797 268.582308,294.752867 277.805385,282.452867 C282.43965,288.143776 285.224266,295.394126 285.224266,303.291329 C285.224266,311.183636 282.43965,318.433986 277.805385,324.124895 M232.410979,329.681538 C244.551538,314.250769 244.551538,292.320699 232.410979,276.891329 C237.930559,272.733287 244.794196,270.259161 252.22007,270.259161 C259.650839,270.259161 266.511678,272.733287 272.034056,276.891329 C259.891399,292.320699 259.891399,314.250769 272.034056,329.681538 C266.511678,333.840979 259.650839,336.314406 252.22007,336.314406 C244.794196,336.314406 237.930559,333.840979 232.410979,329.681538 M219.222867,303.291329 C219.222867,295.394126 222.003287,288.143776 226.63965,282.452867 C235.861329,294.752867 235.861329,311.822797 226.63965,324.124895 C222.003287,318.433986 219.222867,311.183636 219.222867,303.291329" id="Fill-12" fill="#FEFEFE"></path>
            <polygon id="Fill-14" fill="#FEFEFE" points="90.2534266 180.671329 77.2702098 180.851748 95.1226573 188.99021 91.8114685 196.258042 86.6100699 193.887413 87.4499301 192.062238 64.1093706 181.423776 63.2813986 183.248951 58.1261538 180.902098 61.4352448 173.634965 64.2296503 174.906993 82.7555245 174.812587 70.6569231 160.813986 67.8618182 159.53986 71.200979 152.222378 76.3471329 154.569231 75.4890909 156.445455 98.828951 167.088811 99.686993 165.212587 104.88 167.577622 101.552028 174.895105 83.6974825 166.755944 92.0974825 176.628671"></polygon>
            <polygon id="Fill-16" fill="#FEFEFE" points="98.921958 114.422448 103.209371 118.116853 101.900979 119.637832 121.375105 136.407762 122.686294 134.886783 126.973706 138.579091 120.242238 146.390979 115.991888 142.65951 117.30028 141.138531 97.8233566 124.368601 96.514965 125.88958 92.2268531 122.197273"></polygon>
            <polygon id="Fill-18" fill="#FEFEFE" points="153.534336 105.837203 158.698671 102.239301 163.115455 108.572168 145.981189 120.523217 142.743427 115.880559 144.395874 114.730909 129.686783 93.6553846 128.034336 94.8022378 124.798671 90.1630769 133.263706 84.2623776 136.501469 88.9057343 134.721748 90.1448951 149.41965 111.221119 154.713357 107.528811"></polygon>
            <polygon id="Fill-20" fill="#FEFEFE" points="204.309091 51.971958 206.034965 57.3069231 204.087413 57.988042 207.574126 86.8733566 208.441958 89.5362937 202.502098 91.4537762 201.634266 88.7866434 191.739161 72.4202098 193.234266 91.4999301 194.090909 94.1677622 188.152448 96.0859441 187.294406 93.4202098 173.231469 67.9481818 171.258042 68.5341958 169.534266 63.1985315 176.783217 60.8635664 177.639161 63.5265035 186.752448 80.0327972 185.441259 61.0083217 190.172028 59.478951 200.187413 75.695035 197.918881 56.9796503 197.060839 54.3097203"></polygon>
            <path d="M255.803357,60.423986 L252.741119,53.4988112 L249.57049,53.4477622 L246.286573,60.2666434 L246.139021,69.0456643 L255.655804,69.1974126 L255.803357,60.423986 Z M261.678881,79.3470629 L263.587273,79.3792308 L263.494965,85.037972 L255.406853,84.9016084 L255.563497,74.9113986 L246.046713,74.7596503 L245.89007,84.751958 L237.748112,84.6176923 L237.84042,78.958951 L239.73972,78.9918182 L240.062797,59.3204895 L245.64042,47.7246853 L256.846713,47.9051049 L262.001958,59.6253846 L261.678881,79.3470629 Z" id="Fill-22" fill="#FEFEFE"></path>
            <polygon id="Fill-24" fill="#FEFEFE" points="322.818741 61.1294406 321.094965 66.5755944 319.131329 65.9476224 311.919441 88.6301399 306.320839 94.7245455 292.867692 90.4511189 291.76 82.2196503 298.971189 59.5441259 297.007552 58.9161538 298.731329 53.4748951 306.598462 55.9741958 298.142517 82.583986 298.573986 86.2741958 303.96979 87.9881818 306.487273 85.290979 314.961399 58.6301399"></polygon>
            <polygon id="Fill-26" fill="#FEFEFE" points="369.490909 87.1213986 374.101399 90.2969231 370.891608 94.9584615 369.241958 93.8206993 357.068531 101.040979 354.661538 114.984336 356.313986 116.124196 353.103497 120.785734 348.446853 117.575944 351.433566 100.561259 349.037762 98.9109091 340.127972 111.843776 333.331469 107.166154 336.541958 102.506713 338.200699 103.646573 352.772028 82.478042 351.120979 81.3381818 354.329371 76.6815385 361.125175 81.3612587 352.245455 94.2493706 354.643357 95.8997203"></polygon>
            <polygon id="Fill-28" fill="#FEFEFE" points="403.233566 130.611189 404.745455 129.376224 400.743357 124.456643 393.033566 130.735664 399.017483 138.076224 394.591608 141.681119 388.607692 134.347552 380.897902 140.631469 384.911189 145.546154 386.467832 144.277622 390.414685 149.113986 384.467832 153.96014 371.260839 137.841259 375.686713 134.234266 376.988811 135.830769 396.834965 119.658741 395.523776 118.062238 399.95035 114.455245 413.12028 130.602098 407.18042 135.448252"></polygon>
            <polygon id="Fill-30" fill="#FEFEFE" points="430.041189 176.835734 431.83 176.056014 429.302727 170.237832 420.182448 174.193776 423.953776 182.877692 418.718112 185.15042 414.944685 176.466503 405.824406 180.424545 408.350979 186.242028 410.195035 185.443427 412.676154 191.166503 405.63979 194.21965 397.302727 175.125944 402.54049 172.85042 403.362168 174.747622 426.85028 164.561608 426.030699 162.666503 431.267063 160.397972 439.557972 179.510559 432.522308 182.561608"></polygon>
            <path d="M112.007203,353.11993 L104.121888,359.262587 L109.028182,365.56049 L110.782028,365.136014 L115.78972,361.24021 L116.821189,359.295455 L112.007203,353.11993 Z M103.69042,370.66049 L104.564545,369.036014 L99.658951,362.738112 L91.7295804,368.908741 L96.5435664,375.086364 L98.7197902,374.528322 L103.69042,370.66049 Z M94.837972,382.108741 L82.1666434,365.833217 L86.6295804,362.35979 L87.9009091,363.984266 L108.181329,348.195455 L106.909301,346.568182 L111.372937,343.090559 L124.041469,359.36958 L121.200909,364.928322 L114.607902,370.06049 L109.793916,371.196154 L107.516294,375.584965 L100.923287,380.715035 L94.837972,382.108741 Z" id="Fill-32" fill="#FEFEFE"></path>
            <path d="M141.536294,398.51028 L148.129301,403.107483 L149.668462,402.184406 L154.244685,395.637552 L154.65028,393.475315 L148.193636,388.966224 L141.536294,398.51028 Z M145.067063,418.125664 L146.70972,419.272517 L143.472657,423.915874 L138.833497,420.673217 L141.564266,405.490699 L138.261469,403.19 L130.248881,414.685105 L123.478252,409.963427 L126.716014,405.324965 L128.366364,406.474615 L143.075455,385.396294 L141.425105,384.248741 L144.660769,379.606084 L160.837692,390.892797 L159.362867,399.212378 L154.786643,405.758531 L147.806224,409.848042 L146.682448,409.063427 L145.067063,418.125664 Z" id="Fill-34" fill="#FEFEFE"></path>
            <polygon id="Fill-36" fill="#FEFEFE" points="199.706993 416.788392 200.306993 414.924056 194.274825 412.964615 191.202797 422.421958 200.205594 425.345035 198.444755 430.777902 189.442657 427.853427 186.373427 437.310769 192.403497 439.26951 193.030769 437.356923 198.959441 439.286294 196.58951 446.578601 176.763636 440.193287 178.524476 434.76042 180.488811 435.397483 188.392308 411.056224 186.428671 410.414965 188.18951 404.984196 208.007692 411.420559 205.646853 418.715664"></polygon>
            <polygon id="Fill-38" fill="#FEFEFE" points="268.945245 415.962098 269.037552 421.565594 266.978811 421.653706 261.890699 450.294266 261.937552 453.093566 255.692098 453.194266 255.645944 450.397762 250.963427 431.855804 246.821469 450.538322 246.867622 453.337622 240.624965 453.439021 240.57951 450.63972 234.565524 422.177483 232.49979 422.160699 232.407483 416.553706 240.025664 416.428531 240.071119 419.232727 243.962028 437.68028 248.271119 419.098462 253.238951 419.02014 258.080909 437.44951 261.383007 418.886573 261.336853 416.082378"></polygon>
            <polygon id="Fill-40" fill="#FEFEFE" points="309.862587 413.125944 309.226224 411.277692 303.231119 413.347622 306.468182 422.744825 315.422028 419.657413 317.286364 425.054615 308.33951 428.144825 311.577273 437.541329 317.582168 435.471399 316.926923 433.572098 322.817832 431.534336 325.326224 438.782587 305.647203 445.632238 303.784965 440.235035 305.72972 439.560909 297.376573 415.367203 295.43042 416.040629 293.566084 410.640629 313.255594 403.840629 315.763287 411.088881"></polygon>
            <path d="M353.361958,401.160699 L359.871748,396.443916 L359.514406,394.683077 L354.817902,388.214545 L352.918601,387.116643 L346.537483,391.741119 L353.361958,401.160699 Z M373.050769,404.264196 L374.673147,403.083077 L378.003217,407.666294 L373.417902,410.987273 L359.964056,403.424336 L356.719301,405.785175 L364.934685,417.127832 L358.258462,421.971888 L354.938182,417.390769 L356.562657,416.211049 L341.484336,395.401259 L339.852867,396.582378 L336.531888,391.999161 L352.503217,380.426434 L359.871748,384.552308 L364.556364,391.015944 L366.134685,398.957203 L365.017902,399.764895 L373.050769,404.264196 Z" id="Fill-42" fill="#FEFEFE"></path>
            <polygon id="Fill-44" fill="#FEFEFE" points="415.83049 366.44972 406.156364 379.227343 400.080839 377.877692 396.833287 375.41965 400.594825 370.442028 402.327692 371.753217 404.386434 372.186783 408.572448 366.662308 407.622098 364.753916 404.128392 362.102168 387.131888 368.074196 379.587832 362.360909 376.647972 356.877692 386.319301 344.107063 392.389231 345.456713 395.596224 347.881888 391.862657 352.816154 390.259161 351.602867 388.082238 351.147622 383.894126 356.67 384.955664 358.598671 388.304615 361.195175 405.291329 355.223147 412.878042 360.971399"></polygon>
            <polygon id="Fill-46" fill="#11284B" points="418.777972 446.515524 423.875874 446.515524 423.875874 460.377762 427.326224 460.377762 427.326224 446.515524 432.428322 446.515524 432.428322 443.525315 418.777972 443.525315"></polygon>
            <polygon id="Fill-48" fill="#11284B" points="445.487273 454.520559 445.404755 454.520559 441.474685 443.524056 435.490769 443.524056 435.490769 460.379301 438.943217 460.379301 438.943217 446.964615 439.034825 446.964615 443.761399 460.379301 447.086573 460.379301 451.962797 446.964615 452.043916 446.964615 452.043916 460.379301 455.491469 460.379301 455.491469 443.524056 449.572587 443.524056"></polygon>
        </g>
    </g>
</svg>