<?xml version="1.0" encoding="UTF-8" standalone="no"?>
<svg width="500px" height="500px" viewBox="0 0 500 500" version="1.1" xmlns="http://www.w3.org/2000/svg" xmlns:xlink="http://www.w3.org/1999/xlink">
    <!-- Generator: Sketch 39.1 (31720) - http://www.bohemiancoding.com/sketch -->
    <title>NYM</title>
    <desc>Created with Sketch.</desc>
    <defs></defs>
    <g id="MLB" stroke="none" stroke-width="1" fill="none" fill-rule="evenodd">
        <g id="NYM">
            <g>
                <g id="Group-3" fill="#FFFFFF">
                    <path d="M249.62987,500 C387.493506,500 499.266234,388.233766 499.266234,250.37013 C499.266234,112.506494 387.493506,0.746753247 249.62987,0.746753247 C111.766234,0.746753247 0,112.506494 0,250.37013 C0,388.233766 111.766234,500 249.62987,500" id="Fill-1"></path>
                </g>
                <path d="M438.727273,139.136364 L434.331169,131.727273 C434.331169,132.707792 434.441558,139.090909 432.590909,140.019481 C433.136364,144.376623 431.831169,149.24026 430.155844,152.116883 L434.558442,157.441558 C436.74026,153.038961 437.753247,146.246753 437.435065,142.746753 C437.980519,140.922078 438.564935,141.162338 438.727273,139.136364" id="Fill-4" fill="#DE4A2A"></path>
                <path d="M426.214286,120.597403 L421.584416,115.5 C420.883117,118.051948 418.805195,118.980519 416.714286,120.597403 C417.87013,125.694805 420.188312,133.11039 418.805195,140.532468 L423.88961,145.857143 C425.058442,137.512987 424.363636,128.707792 422.967532,124.305195 C424.590909,123.149351 426.214286,120.597403 426.214286,120.597403" id="Fill-5" fill="#DE4A2A"></path>
                <path d="M409.292208,105.538961 L405.136364,101.363636 C404.435065,103.915584 401.642857,104.844156 399.564935,106.461039 C401.88961,110.636364 403.74026,119.902597 402.811688,129.402597 L409.292208,134.038961 C409.766234,119.675325 407.668831,113.883117 405.363636,109.474026 C407.909091,107.857143 409.292208,105.538961 409.292208,105.538961" id="Fill-6" fill="#DE4A2A"></path>
                <path d="M387.045455,97.1948052 C389.597403,95.5714286 392.149351,92.7922078 392.149351,92.7922078 L386.590909,89.5454545 C384.967532,92.7922078 382.88961,92.5584416 380.798701,94.1818182 C383.116883,98.3506494 387.519481,106.928571 386.590909,116.428571 L393.071429,121.058442 C392.149351,106.233766 390.525974,98.1233766 387.045455,97.1948052" id="Fill-7" fill="#DE4A2A"></path>
                <path d="M369.201299,79.3506494 C367.577922,81.6688312 363.422078,83.2922078 361.331169,84.9155844 C363.649351,89.0844156 368.051948,94.4090909 367.123377,103.915584 L374.532468,108.084416 C374.071429,96.0324675 371.298701,88.3896104 367.824675,87.461039 C371.298701,85.8376623 375.467532,81.6688312 375.467532,81.6688312 L369.201299,79.3506494" id="Fill-8" fill="#DE4A2A"></path>
                <path d="M343.025974,76.1038961 C345.337662,80.2792208 349.506494,86.538961 348.584416,96.0324675 L356,99.7402597 C355.532468,88.1558442 352.753247,80.2792208 349.279221,79.3506494 C353.909091,77.2662338 357.850649,72.8636364 357.850649,72.8636364 L350.902597,70.5454545 C349.279221,73.7922078 345.103896,74.487013 343.025974,76.1038961" id="Fill-9" fill="#DE4A2A"></path>
                <path d="M321.24026,68.9220779 C323.558442,73.0909091 327.25974,78.1883117 326.337662,87.6948052 L333.285714,90.474026 C331.88961,76.1038961 330.506494,72.3961039 327.032468,71.474026 C331.207792,69.1558442 336.305195,64.2857143 336.305195,64.2857143 L329.116883,62.4350649 C327.493506,65.6818182 323.318182,67.2987013 321.24026,68.9220779" id="Fill-10" fill="#DE4A2A"></path>
                <path d="M308.720779,55.2467532 C307.097403,58.4935065 302.935065,60.1168831 300.844156,61.7402597 C303.168831,65.9090909 307.337662,72.8636364 306.409091,82.3636364 L313.590909,84.4480519 C312.194805,70.5454545 310.571429,64.5194805 307.097403,63.5909091 C309.649351,61.9675325 315.909091,56.4090909 315.909091,56.4090909 L308.720779,55.2467532" id="Fill-11" fill="#DE4A2A"></path>
                <path d="M286.941558,49.6883117 C284.168831,52.9350649 278.824675,55.4805195 276.746753,57.1038961 C279.058442,61.2727273 285.090909,67.9935065 284.168831,77.4935065 L290.649351,78.4220779 C288.798701,63.1298701 286.019481,60.8116883 282.545455,59.8896104 C285.090909,58.2662338 294.590909,50.8506494 294.590909,50.8506494 L286.941558,49.6883117" id="Fill-12" fill="#DE4A2A"></path>
                <path d="M267.006494,45.5194805 C262.149351,51.0779221 257.733766,53.1623377 255.655844,54.7857143 C259.357143,56.6428571 262.376623,62.8961039 261.454545,72.3961039 L268.87013,74.2532468 C268.402597,62.2012987 265.623377,57.5649351 262.149351,56.6428571 C264.701299,55.0194805 274.655844,46.2142857 274.655844,46.2142857 L267.006494,45.5194805" id="Fill-13" fill="#DE4A2A"></path>
                <path d="M225.532468,52.474026 C225.935065,52.7987013 227.279221,53.2272727 228.422078,54.1558442 C230.480519,55.8246753 233.383117,60.6233766 233.181818,71.1233766 L239.662338,71.5844156 C239.318182,59.538961 236.305195,55.6818182 235.123377,54.7142857 C234.266234,53.7727273 232.428571,53.6298701 231.558442,53.3961039 C236.454545,51.461039 244.071429,43.4285714 244.071429,43.4285714 L237.357143,42.7337662 C236.194805,45.5194805 227.623377,50.8506494 225.532468,52.474026" id="Fill-14" fill="#DE4A2A"></path>
                <path d="M200.506494,42.9675325 L193.558442,43.6623377 C192.850649,47.3701299 190.772727,52.0064935 188.694805,53.6298701 C191.006494,57.7987013 191.006494,63.8246753 187.298701,71.474026 L194.246753,71.012987 C197.954545,61.7402597 197.025974,57.1038961 194.941558,53.8571429 C197.493506,52.2337662 200.506494,42.9675325 200.506494,42.9675325" id="Fill-15" fill="#DE4A2A"></path>
                <path d="M222.753247,42.038961 L214.642857,43.2012987 C213.019481,46.4415584 208.616883,51.3116883 206.538961,52.9350649 C208.727273,53.8571429 210.467532,55.9415584 210.012987,71.012987 L217.305195,70.5454545 C216.850649,53.8571429 213.714286,53.8571429 212.551948,53.8571429 C215.103896,52.2337662 222.753247,42.038961 222.753247,42.038961" id="Fill-16" fill="#DE4A2A"></path>
                <path d="M169.454545,55.9415584 C171.668831,56.6818182 170.577922,59.3766234 169.168831,62.8766234 C167.915584,65.987013 166.331169,68.3376623 164.584416,71.9350649 L171.532468,71.474026 C176.175325,63.5909091 179.649351,55.9415584 176.175325,55.0194805 C178.720779,53.3961039 181.967532,45.2857143 181.967532,45.2857143 L174.324675,47.3701299 C173.396104,51.538961 171.532468,54.3181818 169.454545,55.9415584" id="Fill-17" fill="#DE4A2A"></path>
                <path d="M151.974026,58.4935065 C152.571429,62.1103896 151.318182,65.3441558 146.051948,73.3246753 L152.571429,72.487013 C158.935065,64.2987013 158.37013,60.461039 158.305195,57.6428571 C161.045455,55.974026 164.24026,49.5 164.24026,49.5 L157.305195,50.7987013 C156.077922,54.1753247 154.272727,56.8181818 151.974026,58.4935065" id="Fill-18" fill="#DE4A2A"></path>
                <path d="M59.6103896,182.24026 C57.2922078,174.363636 60.5714286,166.87013 61.9675325,161.311688 L57.2922078,159.993506 C53.5844156,167.876623 54.512987,175.292208 55.9025974,180.850649 C52.1883117,184.558442 49.2402597,186.798701 46.9220779,193.753247 L50.5909091,196.071429 C51.0519481,190.974026 54.9805195,185.948052 59.6103896,182.24026" id="Fill-19" fill="#DE4A2A"></path>
                <path d="M68.8766234,163.24026 C66.3896104,171.668831 66.1038961,179.454545 67.4935065,185.025974 C63.7792208,188.727273 58.512987,191.396104 56.1948052,198.350649 L60.7857143,200.707792 C62.6363636,195.61039 67.4935065,188.727273 72.5909091,187.337662 C70.2662338,179.454545 72.8376623,170.863636 74.2337662,165.305195 L68.8766234,163.24026" id="Fill-20" fill="#DE4A2A"></path>
                <path d="M108.876623,395.175325 L122.779221,395.201299 L122.779221,368.746753 C118.038961,366.922078 113.396104,364.980519 108.876623,362.928571 L108.876623,395.175325" id="Fill-21" fill="#212F57"></path>
                <path d="M91.2597403,395.149351 L105.162338,395.175325 L105.162338,361.194805 C100.357143,358.902597 95.7012987,356.467532 91.2597403,353.883117 L91.2597403,395.149351" id="Fill-22" fill="#212F57"></path>
                <path d="M438.993506,337.084416 L438.298701,337.084416 L438.298701,365.461039 C442.064935,359.311688 445.538961,352.961039 448.707792,346.435065 L439.62987,337.727273 C439.62987,337.727273 439.311688,337.402597 438.993506,337.084416" id="Fill-23" fill="#212F57"></path>
                <path d="M283.772727,415.227273 L287.019481,418.974026 C283.772727,424.324675 277.37013,431.090909 272.272727,433.87013 L268.097403,431.090909 C274.123377,428.305195 281.961039,418.142857 283.772727,415.227273 L283.772727,415.227273 Z M295.012987,425.896104 L298.727273,429.142857 C295.480519,434.24026 289.025974,438.798701 283.928571,441.584416 L280.220779,439.25974 C286.246753,436.487013 292.701299,430.064935 295.012987,425.896104 L295.012987,425.896104 Z M306.097403,434.279221 L309.811688,436.844156 C306.564935,441.948052 301.071429,445.285714 295.974026,448.064935 L294.896104,447.461039 L295.974026,448.272727 C299.220779,448.733766 294.058442,455.649351 279.701299,458.435065 L274.311688,456.61039 C289.396104,453.415584 292.194805,449.318182 294.045455,446.987013 L291.805195,445.733766 C297.824675,442.954545 303.785714,438.448052 306.097403,434.279221 L306.097403,434.279221 Z M316.584416,440.571429 L319.831169,442.422078 C314.779221,448.409091 311.318182,450.207792 306.298701,452.948052 L307.564935,453.37013 C310.344156,454.298701 301.811688,462.103896 293.857143,463.032468 L287.538961,461.675325 C298.448052,459.201299 302.38961,455.603896 304.785714,452.448052 L305.149351,452.564935 L302.467532,451.409091 C309.415584,448.636364 311.954545,446.136364 316.584416,440.571429 L316.584416,440.571429 Z M326.11039,445.38961 L329.357143,446.311688 C323.785714,452.337662 322.38961,453.733766 317.292208,456.512987 L314.058442,455.142857 C320.084416,452.363636 322.863636,449.558442 326.11039,445.38961 L326.11039,445.38961 Z M260.525974,449.220779 C269.798701,448.292208 276.746753,446.188312 282.772727,441.090909 L285.779221,442.714286 C288.097403,445.032468 275.616883,451.980519 265.88961,452.448052 L260.525974,449.220779 L260.525974,449.220779 Z M250.311688,441.532468 L244.285714,437.357143 C251.701299,438.285714 264.383117,436.422078 271.798701,433.87013 L276.441558,437.11039 C269.025974,438.974026 258.649351,442 250.311688,441.532468 L250.311688,441.532468 Z M231.636364,424.649351 C251.487013,424.87013 255.428571,423.714286 258.675325,422.318182 L262.603896,426.025974 C255.194805,427.883117 251.162338,428.824675 236.331169,429.292208 L231.636364,424.649351 L231.636364,424.649351 Z M224.61039,415.831169 L220.363636,410.967532 C225.915584,411.896104 238.045455,411.422078 248.24026,410.038961 L251.025974,413.519481 C243.61039,415.37013 233.409091,416.292208 224.61039,415.831169 L224.61039,415.831169 Z M274.831169,407.077922 C271.584416,412.181818 264,419.305195 258.902597,422.090909 L255.194805,418.844156 C260.207792,416.525974 266.220779,410.090909 269.441558,405.597403 L92.1623377,405.357143 C132.285714,446.11039 188.051948,471.428571 249.62987,471.428571 C269.201299,471.428571 288.181818,468.863636 306.25974,464.064935 C311.467532,461.214286 314.032468,458.668831 315.694805,456.194805 L319.142857,457.545455 L314.948052,461.577922 C318.24026,460.558442 321.493506,459.461039 324.714286,458.292208 L320.538961,458.935065 C327.493506,456.155844 331.461039,452.616883 335.162338,448.915584 L338.155844,449.662338 C333.896104,454.285714 332.350649,455.090909 329.564935,456.474026 C358.779221,445.097403 384.993506,427.694805 406.681818,405.785714 L273.402597,405.603896 L274.831169,407.077922 L274.831169,407.077922 Z" id="Fill-24" fill="#212F57"></path>
                <path d="M427.811688,337.084416 C423.37013,340.896104 418.350649,344.558442 412.896104,348.058442 L412.896104,395.597403 L416.149351,395.603896 C420.344156,390.798701 424.337662,385.805195 428.103896,380.649351 L428.103896,337.084416 L427.811688,337.084416" id="Fill-25" fill="#212F57"></path>
                <path d="M282.415584,281.75974 C283.331169,280.616883 283.811688,279.545455 283.811688,278.714286 C283.811688,278.318182 283.694805,277.980519 283.467532,277.714286 C282.681818,276.811688 280.181818,276.383117 277.077922,278.233766 C272.116883,281.175325 268.25974,286.285714 266.337662,290.318182 C271.292208,289.376623 278.662338,286.454545 282.415584,281.75974" id="Fill-26" fill="#212F57"></path>
                <path d="M87.5454545,351.636364 C82.0844156,348.266234 76.9415584,344.662338 72.2532468,340.792208 L71.8116883,340.792208 L71.8116883,381.545455 C75.2727273,386.220779 78.8961039,390.766234 82.7077922,395.136364 L87.5454545,395.149351 L87.5454545,351.636364" id="Fill-27" fill="#212F57"></path>
                <path d="M395.279221,395.571429 L409.181818,395.590909 L409.181818,350.37013 C404.792208,353.032468 400.149351,355.597403 395.279221,358.045455 L395.279221,395.571429" id="Fill-28" fill="#212F57"></path>
                <path d="M377.662338,395.545455 L391.577922,395.571429 L391.577922,359.883117 C387.090909,362.045455 382.441558,364.11039 377.662338,366.090909 L377.662338,395.545455" id="Fill-29" fill="#212F57"></path>
                <path d="M360.058442,395.525974 L373.961039,395.545455 L373.961039,367.603896 C369.422078,369.422078 364.772727,371.136364 360.058442,372.772727 L360.058442,395.525974" id="Fill-30" fill="#212F57"></path>
                <path d="M51.7012987,348.733766 C54.7402597,354.818182 58.0454545,360.753247 61.6103896,366.5 L61.6103896,340.883117 C60.3051948,342.077922 56.1038961,345.818182 51.7012987,348.733766" id="Fill-31" fill="#212F57"></path>
                <path d="M399.857143,252.435065 C399.857143,252.435065 390.006494,252.584416 383.266234,252.688312 C386.681818,254.448052 397.590909,260.045455 397.590909,260.045455 L395.941558,262.311688 C393.857143,265.181818 393.084416,267.753247 393.084416,270.428571 C393.084416,273.38961 394.038961,276.480519 395.175325,280.246753 C396.779221,285.428571 398.642857,291.519481 398.642857,299.5 C398.642857,302.668831 398.337662,306.12987 397.61039,309.961039 C395.636364,320.467532 381.987013,341.811688 354.350649,336.876623 C349.428571,336 344.551948,333 340.214286,330 C332.422078,336.662338 322.149351,339.896104 313.246753,337.850649 C306.168831,336.227273 300.935065,331.525974 298.474026,325.168831 C280.590909,342.545455 256.493506,340.668831 247.909091,335.642857 L247.844156,335.603896 C245.519481,334.162338 243.844156,332.337662 242.12987,330.506494 C238.077922,334.506494 229.045455,341.136364 218.409091,339.935065 C211.344156,338.954545 206.006494,334.961039 202.967532,328.376623 C201.071429,324.25974 200.155844,319.168831 200.155844,313.655844 C200.155844,307.097403 201.798701,300.084416 204.207792,293.201299 C199.701299,300.233766 195.175325,307.564935 190.935065,314.551948 C184.681818,324.883117 179.279221,333.805195 175.642857,338.571429 L174.915584,339.512987 L145.292208,339.512987 L147.636364,335.824675 C152.227273,328.616883 158.649351,308.428571 162.694805,289.350649 C154.512987,306.337662 139.279221,332.5 120,339.967532 C112.681818,342.811688 105.454545,342.655844 98.5064935,339.512987 C93.3181818,337.175325 89.9415584,332.883117 88.7402597,327.103896 C86.1883117,314.831169 93.987013,296.915584 102.662338,287.344156 L103.064935,286.902597 L129.136364,277.532468 L124.857143,283.694805 C118.935065,292.207792 113.454545,304.779221 115.032468,309.214286 C115.279221,309.909091 115.649351,310.155844 116.123377,310.292208 C126.675325,313.324675 144.058442,273.097403 156.75974,243.727273 C166.012987,222.292208 174.766234,202.051948 182.019481,193.318182 L182.733766,192.461039 L213.545455,192.233766 L217.577922,192.201299 L215.681818,195.753247 C210.058442,206.272727 204.415584,230.12987 199.88961,249.305195 C199.88961,249.305195 198.292208,255.772727 196.779221,261.87013 C199.681818,257.116883 202.675325,252.220779 202.675325,252.220779 C215.142857,231.5 230.655844,205.714286 243.136364,193.155844 L243.844156,192.454545 L281.272727,192.454545 L279.337662,196 C263.772727,224.396104 222.441558,299.811688 231.084416,314.149351 C231.253247,314.415584 231.357143,314.422078 231.409091,314.428571 C232.051948,314.493506 233.246753,313.753247 234.272727,312.928571 C234.168831,311.831169 234.071429,310.74026 234.071429,309.642857 C234.071429,289 250.188312,266.772727 271.318182,259.435065 C284.435065,254.883117 297.422078,257.519481 303.623377,266 C305.954545,269.188312 307.11039,272.863636 307.11039,276.785714 C307.11039,282.025974 305.045455,287.694805 300.974026,293.155844 C296.974026,298.506494 286.603896,307.441558 263.681818,310.188312 C264.584416,313.25974 266.12987,315.11039 269.266234,315.279221 C287.792208,316.272727 303.623377,295.38961 309.37013,284.305195 C309.37013,284.305195 321.032468,258.980519 323.662338,253.25974 C318.25974,253.474026 300.311688,254.168831 300.311688,254.168831 L311.727273,230.915584 C311.727273,230.915584 332.058442,230.571429 334.655844,230.525974 C335.798701,228.11039 346.577922,205.279221 346.577922,205.279221 L378.688312,205.012987 C378.688312,205.012987 369.181818,224.974026 366.707792,230.149351 C373.097403,230.045455 409.266234,229.493506 409.266234,229.493506 L399.857143,252.435065 L399.857143,252.435065 Z M225.532468,378.753247 C224.564935,380.311688 228.11039,383.62987 228.37013,383.850649 L228.376623,383.850649 L228.37013,383.850649 C223.727273,382.928571 204.12987,383.636364 199.506494,384.103896 L195.123377,377.824675 C203.922078,376.902597 220.818182,377.818182 224.149351,379.681818 C227.409091,381.506494 224.376623,379.681818 224.376623,379.681818 L221.11039,378.577922 C218.792208,373.012987 232.058442,360.175325 233.915584,357.396104 L237.75974,363.149351 C229.415584,371.623377 227.175325,376.11039 225.532468,378.753247 L225.532468,378.753247 Z M184.928571,362.428571 C193.616883,361.519481 205.220779,360.87013 209.071429,361.746753 L207.474026,359.766234 C207.422078,356.688312 212.623377,349.915584 216.974026,345.12987 C216.974026,345.12987 221.694805,346.084416 224.701299,345.337662 C220.688312,349.844156 216.62987,354.175325 214.376623,357.181818 C212.194805,360.090909 211.571429,363.25974 212.441558,365.733766 L214.272727,367.993506 C209.636364,367.064935 192.915584,367.311688 188.285714,367.785714 L184.928571,362.428571 L184.928571,362.428571 Z M195.409091,338.88961 C194.474026,335.188312 195.87013,333.337662 197.266234,329.623377 L200.506494,334.720779 C199.116883,337.967532 199.116883,343.525974 199.116883,343.525974 L197.883117,341.987013 L200.506494,347.24026 C195.87013,345.844156 182.896104,346.311688 179.188312,346.311688 L182.896104,341.441558 C188.422078,340.987013 192.116883,340.75974 197.623377,341.655844 L195.409091,338.88961 L195.409091,338.88961 Z M110.88961,211.5 L109.545455,209.824675 C106.88961,208.194805 111.051948,195.279221 114.298701,187.766234 L119.175325,191.974026 C117.350649,197.012987 113.019481,206.577922 113.246753,214.181818 L114.766234,216.071429 C105.948052,218.38961 97.8311688,222.350649 96.974026,225.941558 L92.5909091,221.987013 C93.8961039,216.584416 104.831169,213.811688 110.88961,211.5 L110.88961,211.5 Z M127.532468,198.636364 L132.383117,203.564935 C130.532468,208.62987 126.402597,219.194805 127.266234,227.967532 L128.668831,229.512987 C122.181818,230.441558 112.441558,235.538961 109.194805,240.175325 L105.571429,235.214286 C109.707792,228.772727 120.155844,225.850649 123.941558,224.448052 L122.642857,223.025974 C121.253247,217 123.350649,210.688312 127.532468,198.636364 L127.532468,198.636364 Z M141.181818,262.422078 L140.714286,268.214286 C136.603896,268.850649 132.279221,270.357143 129.246753,272.422078 L127.207792,267.558442 L128.207792,267.058442 C132.837662,264.733766 137.935065,263.350649 141.181818,262.422078 L141.181818,262.422078 Z M136.084416,241.103896 C135.623377,235.538961 140.798701,226.084416 145.857143,218.779221 L150.019481,224.844156 C145.883117,229.448052 140.331169,238.668831 140.714286,246.058442 L142.11039,247.590909 C135.623377,248.512987 123.798701,250.831169 120.558442,255.467532 L116.428571,249.409091 C122.88961,244.324675 127.935065,244.577922 137.363636,242.512987 L136.084416,241.103896 L136.084416,241.103896 Z M74.9025974,208.662338 L70.2662338,204.948052 C72.5714286,198.051948 79.8766234,196.175325 83.6103896,192.525974 L82.7857143,192.11039 C81.8571429,182.844156 80.6818182,176.857143 83.461039,168.974026 L88.8116883,171.720779 C87.4220779,177.279221 86.025974,187.012987 88.3441558,194.896104 L89.7337662,195.681818 C84.6363636,197.071429 76.7532468,203.564935 74.9025974,208.662338 L74.9025974,208.662338 Z M454.025974,288.376623 L454.025974,266.12987 L442.902597,266.12987 L442.902597,279.103896 L433.62987,279.103896 L433.62987,160.454545 L407.668831,160.454545 L407.668831,220.707792 L388.214286,220.707792 L388.214286,150.25974 L384.688312,147.220779 L384.688312,138.876623 L377.077922,135.428571 L377.077922,125.272727 L364.409091,125.272727 L364.409091,135.428571 L356.798701,138.876623 L356.798701,147.220779 L353.285714,150.25974 L353.285714,164.168831 L334.441558,164.168831 L334.441558,123.376623 L318.688312,123.376623 L318.688312,103.915584 L308.493506,103.915584 L308.493506,93.7207792 L285.318182,93.7207792 L285.318182,103.915584 L276.974026,103.915584 L276.974026,136.357143 L264.409091,136.357143 L264.409091,98.538961 L259.597403,95.2922078 L259.597403,79.0714286 L252.214286,73.512987 L252.214286,50.9285714 L249.448052,47.6883117 L248.318182,36.8441558 L246.779221,36.8441558 L245.409091,47.6883117 L242.422078,50.9285714 L242.422078,73.512987 L235.019481,79.0714286 L235.019481,95.2922078 L230.220779,98.538961 L230.220779,131.467532 L209.311688,131.467532 L209.311688,105.766234 L178.720779,105.766234 L178.720779,130.792208 L172.233766,133.577922 L172.233766,178.993506 L149.987013,178.993506 L149.987013,140.993506 L147.668831,138.675325 L147.668831,118.746753 L145.357143,118.746753 L139.88961,97.7792208 C140.077922,96.7792208 140.207792,95.5064935 140.207792,94.1038961 C140.207792,90.9350649 139.61039,89.7012987 138.896104,89.7012987 C138.168831,89.7012987 137.577922,90.9350649 137.577922,94.1038961 C137.577922,95.6558442 137.720779,97.0714286 137.954545,98.1038961 L132.383117,118.746753 L130.058442,118.746753 L130.058442,138.675325 L127.74026,140.993506 L127.74026,182.331169 L103.181818,182.331169 L103.181818,179.61039 C101.785714,185.168831 98.1168831,194.441558 99.9350649,202.071429 L99.3441558,201.694805 L101.318182,203.097403 C96.2207792,204.487013 87.8766234,211.441558 86.025974,216.538961 L81.3961039,212.831169 C83.6948052,205.935065 89.5714286,204.409091 96.4545455,199.857143 L94.8246753,198.824675 C94.5454545,192.058442 94.5844156,184.532468 98.2922078,176.649351 L103.181818,179.61039 L103.181818,151.75974 C103.181818,147.590909 97.1493506,147.480519 97.1493506,147.480519 L97.1493506,140.025974 L92.0519481,138.636364 L91.5844156,135.428571 L90.2012987,134.967532 L88.8116883,135.428571 L88.3441558,138.636364 L83.2467532,140.025974 L83.2467532,147.480519 C83.2467532,147.480519 77.2272727,147.12987 77.2272727,152.227273 L77.2272727,192.064935 L67.4935065,198.461039 L67.4935065,222.103896 L63.7792208,224.181818 L63.7792208,242.25974 L60.3051948,244.344156 L60.3051948,277.954545 L53.3571429,277.954545 L53.3571429,244.577922 L51.7337662,244.577922 L47.5584416,208.25974 L45.4805195,208.194805 L41.0649351,244.577922 L38.525974,244.577922 L38.525974,271.233766 L33.1883117,271.233766 C33.1883117,271.233766 29.8701299,274.038961 30.0324675,275.441558 C30.7987013,282.318182 31.8831169,289.084416 33.2662338,295.75974 C33.3441558,296.142857 33.4285714,296.532468 33.5194805,296.915584 C33.7727273,298.103896 34.025974,299.292208 34.2987013,300.467532 C37.9480519,316.136364 43.2597403,331.168831 50.0519481,345.376623 C54.8636364,342.116883 59.6753247,337.636364 59.7337662,337.584416 L60.2662338,337.084416 L73.4935065,337.084416 L74.012987,337.519481 C115.019481,371.766234 191.136364,386.337662 239.162338,388.655844 L235.733766,387.097403 C240.363636,383.850649 246.38961,376.727273 246.857143,374.87013 L250.311688,379.045455 C248.188312,382.435065 244.720779,386.350649 241.662338,388.772727 C244.636364,388.896104 247.506494,388.961039 250.227273,388.987013 C304.012987,389.474026 387.480519,367.428571 426,333.831169 L426.519481,333.376623 L440.532468,333.376623 L442.266234,335.11039 L450.363636,342.902597 C457.577922,327.337662 463.019481,310.798701 466.448052,293.538961 L464.220779,288.376623 L454.025974,288.376623 L454.025974,288.376623 Z" id="Fill-32" fill="#212F57"></path>
                <path d="M330.88961,306.11039 C334.24026,302.175325 339.435065,295.616883 344.305195,289.454545 C362.37013,266.603896 370.993506,256.383117 375.915584,252.805195 C365.792208,252.954545 357.051948,253.097403 355.655844,253.11039 C355.571429,253.311688 332.246753,302.857143 332.246753,302.857143 C331.623377,304.071429 331.246753,305.103896 330.88961,306.11039" id="Fill-33" fill="#212F57"></path>
                <path d="M355.863636,313.857143 C355.863636,314.285714 355.928571,314.701299 356.038961,315.084416 C356.422078,316.37013 357.37013,317.11039 358.142857,317.266234 C360.590909,317.785714 362.863636,317.311688 364.88961,315.857143 C368.11039,313.545455 370.233766,309.116883 370.584416,306.123377 C370.850649,303.863636 370.967532,301.785714 370.967532,299.818182 C370.967532,295.850649 370.525974,292.324675 370.064935,288.662338 C370.064935,288.662338 369.941558,287.324675 369.850649,286.435065 C366.324675,290.675325 362.623377,295.324675 358.37013,301.974026 C359.058442,302.707792 361.337662,305.12987 361.337662,305.12987 L359.707792,306.772727 C357.220779,309.266234 355.863636,311.779221 355.863636,313.857143" id="Fill-34" fill="#212F57"></path>
                <path d="M161.707792,395.253247 L175.616883,395.272727 L175.616883,384.019481 C170.993506,383.038961 166.350649,381.987013 161.707792,380.844156 L161.707792,395.253247" id="Fill-35" fill="#212F57"></path>
                <path d="M126.487013,395.201299 L140.38961,395.220779 L140.38961,374.87013 C135.694805,373.402597 131.058442,371.818182 126.487013,370.136364 L126.487013,395.201299" id="Fill-36" fill="#212F57"></path>
                <path d="M179.318182,395.279221 L193.227273,395.292208 L193.227273,387.324675 C188.642857,386.564935 184.006494,385.727273 179.318182,384.785714 L179.318182,395.279221" id="Fill-37" fill="#212F57"></path>
                <path d="M144.097403,395.227273 L158,395.246753 L158,379.896104 C153.344156,378.694805 148.701299,377.409091 144.097403,376.012987 L144.097403,395.227273" id="Fill-38" fill="#212F57"></path>
                <path d="M342.441558,395.5 L356.344156,395.519481 L356.344156,374.045455 C351.766234,375.584416 347.123377,377.025974 342.441558,378.383117 L342.441558,395.5" id="Fill-39" fill="#212F57"></path>
                <path d="M196.935065,387.935065 L196.935065,395.305195 L303.506494,395.441558 L303.506494,387.564935 C284.435065,391.032468 266.045455,392.844156 250.194805,392.701299 C235.467532,392.571429 216.883117,391.077922 196.935065,387.935065" id="Fill-40" fill="#212F57"></path>
                <path d="M324.824675,395.474026 L338.74026,395.493506 L338.74026,379.454545 C334.116883,380.753247 329.474026,381.948052 324.824675,383.071429 L324.824675,395.474026" id="Fill-41" fill="#212F57"></path>
                <path d="M307.227273,395.448052 L321.123377,395.467532 L321.123377,383.941558 C316.474026,385.019481 311.831169,386 307.227273,386.883117 L307.227273,395.448052" id="Fill-42" fill="#212F57"></path>
                <path d="M88.3441558,194.896104 C86.025974,187.012987 87.4220779,177.279221 88.8116883,171.720779 L83.461039,168.974026 C80.6818182,176.857143 81.8571429,182.844156 82.7857143,192.11039 L83.6103896,192.525974 C79.8766234,196.175325 72.5714286,198.051948 70.2662338,204.948052 L74.9025974,208.662338 C76.7532468,203.564935 84.6363636,197.071429 89.7337662,195.681818 L88.3441558,194.896104" id="Fill-43" fill="#DE4A2A"></path>
                <path d="M94.8246753,198.824675 L96.4545455,199.857143 C89.5714286,204.409091 83.6948052,205.935065 81.3961039,212.831169 L86.025974,216.538961 C87.8766234,211.441558 96.2207792,204.487013 101.318182,203.097403 L99.3441558,201.694805 L99.9350649,202.071429 C98.1168831,194.441558 101.785714,185.168831 103.181818,179.61039 L98.2922078,176.649351 C94.5844156,184.532468 94.5454545,192.058442 94.8246753,198.824675" id="Fill-44" fill="#DE4A2A"></path>
                <path d="M114.766234,216.071429 L113.246753,214.181818 C113.019481,206.577922 117.350649,197.012987 119.175325,191.974026 L114.298701,187.766234 C111.051948,195.279221 106.88961,208.194805 109.545455,209.824675 L110.88961,211.5 C104.831169,213.811688 93.8961039,216.584416 92.5909091,221.987013 L96.974026,225.941558 C97.8311688,222.350649 105.948052,218.38961 114.766234,216.071429" id="Fill-45" fill="#DE4A2A"></path>
                <path d="M123.941558,224.448052 C120.155844,225.850649 109.707792,228.772727 105.571429,235.214286 L109.194805,240.175325 C112.441558,235.538961 122.181818,230.441558 128.668831,229.512987 L127.266234,227.967532 C126.402597,219.194805 130.532468,208.62987 132.383117,203.564935 L127.532468,198.636364 C123.350649,210.688312 121.253247,217 122.642857,223.025974 L123.941558,224.448052" id="Fill-46" fill="#DE4A2A"></path>
                <path d="M129.246753,272.422078 C132.279221,270.357143 136.603896,268.850649 140.714286,268.214286 L141.181818,262.422078 C137.935065,263.350649 132.837662,264.733766 128.207792,267.058442 L127.207792,267.558442 L129.246753,272.422078" id="Fill-47" fill="#DE4A2A"></path>
                <path d="M120.558442,255.467532 C123.798701,250.831169 135.623377,248.512987 142.11039,247.590909 L140.714286,246.058442 C140.331169,238.668831 145.883117,229.448052 150.019481,224.844156 L145.857143,218.779221 C140.798701,226.084416 135.623377,235.538961 136.084416,241.103896 L137.363636,242.512987 C127.935065,244.577922 122.88961,244.324675 116.428571,249.409091 L120.558442,255.467532" id="Fill-48" fill="#DE4A2A"></path>
                <path d="M182.896104,341.441558 L179.188312,346.311688 C182.896104,346.311688 195.87013,345.844156 200.506494,347.24026 L197.883117,341.987013 L199.116883,343.525974 C199.116883,343.525974 199.116883,337.967532 200.506494,334.720779 L197.266234,329.623377 C195.87013,333.337662 194.474026,335.188312 195.409091,338.88961 L197.623377,341.655844 C192.116883,340.75974 188.422078,340.987013 182.896104,341.441558" id="Fill-49" fill="#DE4A2A"></path>
                <path d="M214.272727,367.993506 L212.441558,365.733766 C211.571429,363.25974 212.194805,360.090909 214.376623,357.181818 C216.62987,354.175325 220.688312,349.844156 224.701299,345.337662 C221.694805,346.084416 216.974026,345.12987 216.974026,345.12987 C212.623377,349.915584 207.422078,356.688312 207.474026,359.766234 L209.071429,361.746753 C205.220779,360.87013 193.616883,361.519481 184.928571,362.428571 L188.285714,367.785714 C192.915584,367.311688 209.636364,367.064935 214.272727,367.993506" id="Fill-50" fill="#DE4A2A"></path>
                <path d="M221.11039,378.577922 L224.376623,379.681818 C224.376623,379.681818 227.409091,381.506494 224.149351,379.681818 C220.818182,377.818182 203.922078,376.902597 195.123377,377.824675 L199.506494,384.103896 C204.12987,383.636364 223.727273,382.928571 228.37013,383.850649 C228.11039,383.62987 224.564935,380.311688 225.532468,378.753247 C227.175325,376.11039 229.415584,371.623377 237.75974,363.149351 L233.915584,357.396104 C232.058442,360.175325 218.792208,373.012987 221.11039,378.577922" id="Fill-51" fill="#DE4A2A"></path>
                <path d="M250.311688,379.045455 L246.857143,374.87013 C246.38961,376.727273 240.363636,383.850649 235.733766,387.097403 L239.162338,388.655844 C240,388.694805 240.837662,388.733766 241.662338,388.772727 C244.720779,386.350649 248.188312,382.435065 250.311688,379.045455" id="Fill-52" fill="#DE4A2A"></path>
                <path d="M248.24026,410.038961 C238.045455,411.422078 225.915584,411.896104 220.363636,410.967532 L224.61039,415.831169 C233.409091,416.292208 243.61039,415.37013 251.025974,413.519481 L248.24026,410.038961" id="Fill-53" fill="#DE4A2A"></path>
                <path d="M258.675325,422.318182 C255.428571,423.714286 251.487013,424.87013 231.636364,424.649351 L236.331169,429.292208 C251.162338,428.824675 255.194805,427.883117 262.603896,426.025974 L258.675325,422.318182" id="Fill-54" fill="#DE4A2A"></path>
                <path d="M271.798701,433.87013 C264.383117,436.422078 251.701299,438.285714 244.285714,437.357143 L250.311688,441.532468 C258.649351,442 269.025974,438.974026 276.441558,437.11039 L271.798701,433.87013" id="Fill-55" fill="#DE4A2A"></path>
                <path d="M285.779221,442.714286 L282.772727,441.090909 C276.746753,446.188312 269.798701,448.292208 260.525974,449.220779 L265.88961,452.448052 C275.616883,451.980519 288.097403,445.032468 285.779221,442.714286" id="Fill-56" fill="#DE4A2A"></path>
                <path d="M255.194805,418.844156 L258.902597,422.090909 C264,419.305195 271.584416,412.181818 274.831169,407.077922 L273.402597,405.603896 L269.441558,405.597403 C266.220779,410.090909 260.207792,416.525974 255.194805,418.844156" id="Fill-57" fill="#DE4A2A"></path>
                <path d="M272.272727,433.87013 C277.37013,431.090909 283.772727,424.324675 287.019481,418.974026 L283.772727,415.227273 C281.961039,418.142857 274.123377,428.305195 268.097403,431.090909 L272.272727,433.87013" id="Fill-58" fill="#DE4A2A"></path>
                <path d="M283.928571,441.584416 C289.025974,438.798701 295.480519,434.24026 298.727273,429.142857 L295.012987,425.896104 C292.701299,430.064935 286.246753,436.487013 280.220779,439.25974 L283.928571,441.584416" id="Fill-59" fill="#DE4A2A"></path>
                <path d="M294.045455,446.987013 C292.194805,449.318182 289.396104,453.415584 274.311688,456.61039 L279.701299,458.435065 C294.058442,455.649351 299.220779,448.733766 295.974026,448.272727 L294.896104,447.461039 L295.974026,448.064935 C301.071429,445.285714 306.564935,441.948052 309.811688,436.844156 L306.097403,434.279221 C303.785714,438.448052 297.824675,442.954545 291.805195,445.733766 L294.045455,446.987013" id="Fill-60" fill="#DE4A2A"></path>
                <path d="M305.149351,452.564935 L304.785714,452.448052 C302.38961,455.603896 298.448052,459.201299 287.538961,461.675325 L293.857143,463.032468 C301.811688,462.103896 310.344156,454.298701 307.564935,453.37013 L306.298701,452.948052 C311.318182,450.207792 314.779221,448.409091 319.831169,442.422078 L316.584416,440.571429 C311.954545,446.136364 309.415584,448.636364 302.467532,451.409091 L305.149351,452.564935" id="Fill-61" fill="#DE4A2A"></path>
                <path d="M317.292208,456.512987 C322.38961,453.733766 323.785714,452.337662 329.357143,446.311688 L326.11039,445.38961 C322.863636,449.558442 320.084416,452.363636 314.058442,455.142857 L317.292208,456.512987" id="Fill-62" fill="#DE4A2A"></path>
                <path d="M409.181818,395.590909 L395.279221,395.571429 L395.279221,358.045455 C400.149351,355.597403 404.792208,353.032468 409.181818,350.37013 L409.181818,395.590909 L409.181818,395.590909 Z M391.577922,395.571429 L377.662338,395.545455 L377.662338,366.090909 C382.441558,364.11039 387.090909,362.045455 391.577922,359.883117 L391.577922,395.571429 L391.577922,395.571429 Z M373.961039,395.545455 L360.058442,395.525974 L360.058442,372.772727 C364.772727,371.136364 369.422078,369.422078 373.961039,367.603896 L373.961039,395.545455 L373.961039,395.545455 Z M356.344156,395.519481 L342.441558,395.5 L342.441558,378.383117 C347.123377,377.025974 351.766234,375.584416 356.344156,374.045455 L356.344156,395.519481 L356.344156,395.519481 Z M338.74026,395.493506 L324.824675,395.474026 L324.824675,383.071429 C329.474026,381.948052 334.116883,380.753247 338.74026,379.454545 L338.74026,395.493506 L338.74026,395.493506 Z M321.123377,395.467532 L307.227273,395.448052 L307.227273,386.883117 C311.831169,386 316.474026,385.019481 321.123377,383.941558 L321.123377,395.467532 L321.123377,395.467532 Z M303.506494,395.441558 L196.935065,395.305195 L196.935065,387.935065 C216.883117,391.077922 235.467532,392.571429 250.194805,392.701299 C266.045455,392.844156 284.435065,391.032468 303.506494,387.564935 L303.506494,395.441558 L303.506494,395.441558 Z M193.227273,395.292208 L179.318182,395.279221 L179.318182,384.785714 C184.006494,385.727273 188.642857,386.564935 193.227273,387.324675 L193.227273,395.292208 L193.227273,395.292208 Z M175.616883,395.272727 L161.707792,395.253247 L161.707792,380.844156 C166.350649,381.987013 170.993506,383.038961 175.616883,384.019481 L175.616883,395.272727 L175.616883,395.272727 Z M158,395.246753 L144.097403,395.227273 L144.097403,376.012987 C148.701299,377.409091 153.344156,378.694805 158,379.896104 L158,395.246753 L158,395.246753 Z M140.38961,395.220779 L126.487013,395.201299 L126.487013,370.136364 C131.058442,371.818182 135.694805,373.402597 140.38961,374.87013 L140.38961,395.220779 L140.38961,395.220779 Z M122.779221,395.201299 L108.876623,395.175325 L108.876623,362.928571 C113.396104,364.980519 118.038961,366.922078 122.779221,368.746753 L122.779221,395.201299 L122.779221,395.201299 Z M105.162338,395.175325 L91.2597403,395.149351 L91.2597403,353.883117 C95.7012987,356.467532 100.357143,358.902597 105.162338,361.194805 L105.162338,395.175325 L105.162338,395.175325 Z M440.532468,333.376623 L426.519481,333.376623 L426,333.831169 C387.480519,367.428571 304.012987,389.474026 250.227273,388.987013 C247.506494,388.961039 244.636364,388.896104 241.662338,388.772727 C240.837662,388.733766 240,388.694805 239.162338,388.655844 C191.136364,386.337662 115.019481,371.766234 74.012987,337.519481 L73.4935065,337.084416 L60.2662338,337.084416 L59.7337662,337.584416 C59.6753247,337.636364 54.8636364,342.116883 50.0519481,345.376623 C50.5909091,346.5 51.1428571,347.616883 51.7012987,348.733766 C56.1038961,345.818182 60.3051948,342.077922 61.6103896,340.883117 L61.6103896,366.5 C64.8116883,371.662338 68.2142857,376.681818 71.8116883,381.545455 L71.8116883,340.792208 L72.2532468,340.792208 C76.9415584,344.662338 82.0844156,348.266234 87.5454545,351.636364 L87.5454545,395.149351 L82.7077922,395.136364 C85.7467532,398.649351 88.9090909,402.051948 92.1623377,405.357143 L269.441558,405.597403 L273.402597,405.603896 L406.681818,405.785714 C409.941558,402.487013 413.097403,399.097403 416.149351,395.603896 L412.896104,395.597403 L412.896104,348.058442 C418.350649,344.558442 423.37013,340.896104 427.811688,337.084416 L428.103896,337.084416 L428.103896,380.649351 C431.701299,375.733766 435.11039,370.675325 438.298701,365.461039 L438.298701,337.084416 L438.993506,337.084416 C439.311688,337.402597 439.62987,337.727273 439.62987,337.727273 L448.707792,346.435065 C449.272727,345.272727 449.818182,344.084416 450.363636,342.902597 L442.266234,335.11039 L440.532468,333.376623 L440.532468,333.376623 Z" id="Fill-63" fill="#FFFFFF"></path>
                <path d="M450.363636,342.902597 C449.818182,344.084416 449.272727,345.272727 448.707792,346.435065 C445.538961,352.961039 442.064935,359.311688 438.298701,365.461039 C435.11039,370.675325 431.701299,375.733766 428.103896,380.649351 C424.337662,385.805195 420.344156,390.798701 416.149351,395.603896 C413.097403,399.097403 409.941558,402.487013 406.681818,405.785714 C384.993506,427.694805 358.779221,445.097403 329.564935,456.474026 C332.350649,455.090909 333.896104,454.285714 338.155844,449.662338 L335.162338,448.915584 C331.461039,452.616883 327.493506,456.155844 320.538961,458.935065 L324.714286,458.292208 C321.493506,459.461039 318.24026,460.558442 314.948052,461.577922 L319.142857,457.545455 L315.694805,456.194805 C314.032468,458.668831 311.467532,461.214286 306.25974,464.064935 C288.181818,468.863636 269.201299,471.428571 249.62987,471.428571 C188.051948,471.428571 132.285714,446.11039 92.1623377,405.357143 C88.9090909,402.051948 85.7467532,398.649351 82.7077922,395.136364 C78.8961039,390.766234 75.2727273,386.220779 71.8116883,381.545455 C68.2142857,376.681818 64.8116883,371.662338 61.6103896,366.5 C58.0454545,360.753247 54.7402597,354.818182 51.7012987,348.733766 C51.1428571,347.616883 50.5909091,346.5 50.0519481,345.376623 C43.2597403,331.168831 37.9480519,316.136364 34.2987013,300.467532 C34.025974,299.292208 33.7727273,298.103896 33.5194805,296.915584 C33.4285714,296.532468 33.3441558,296.142857 33.2662338,295.75974 C30.1948052,281.103896 28.5714286,265.922078 28.5714286,250.37013 C28.5714286,220.831169 34.4090909,192.62987 44.974026,166.850649 C44.2727273,170.175325 44.4415584,172.993506 45.2402597,176.214286 C41.5324675,179.922078 38.9285714,184.168831 37.3636364,190.116883 L40.3961039,191.974026 C41.3571429,187.123377 45.2402597,180.850649 48.487013,177.142857 C46.1688312,169.266234 49.6623377,164.805195 51.0519481,159.24026 L48.5454545,158.597403 C63.4285714,126.116883 85.9480519,97.8376623 113.805195,76.0844156 C112.435065,78.5 110.844156,81.5779221 110.123377,83.987013 L113.37013,81.9025974 C113.37013,81.9025974 117.149351,75.6168831 120.792208,70.8506494 C127.883117,65.7467532 135.292208,61.0519481 142.980519,56.8051948 L136.928571,60.2922078 C130.948052,67.3376623 130.162338,71.8636364 127.974026,77.0324675 L134.967532,75.2662338 C136.214286,70.8376623 139.564935,61.7402597 145.863636,55.2337662 C176.818182,38.7012987 212.149351,29.3181818 249.62987,29.3181818 C333.837662,29.3181818 407.188312,76.6428571 444.5,146.090909 C444.811688,148.279221 445.766234,153.824675 444.181818,154.623377 C444.727273,158.980519 442.253247,163.837662 440.584416,166.714286 L442.435065,172.974026 C445.311688,169.487013 447.480519,163.162338 447.175325,159.668831 C449.188312,158.181818 448.253247,155.38961 448.24026,153.376623 C449.928571,156.818182 451.538961,160.311688 453.051948,163.850649 C452.805195,165.123377 452,168.720779 450.5,170.590909 C451.350649,174.636364 449.487013,178.766234 447.772727,181.779221 L450.084416,187.571429 C451.123377,186.876623 454.116883,179.123377 454.064935,174.837662 C455.181818,173.37013 455.474026,171.772727 455.727273,170.409091 C457.071429,173.876623 458.337662,177.396104 459.519481,180.948052 C459.305195,182.714286 458.74026,186.103896 457.363636,187.409091 C458.220779,191.285714 456.344156,194.058442 455.181818,196.61039 L457.272727,202.402597 C457.272727,202.402597 460.746753,194.642857 460.655844,191.857143 C461.227273,190.564935 461.75974,189.798701 461.954545,188.785714 C463.155844,192.941558 464.246753,197.142857 465.220779,201.396104 C464.435065,205.019481 462.38961,208.441558 460.746753,212.136364 L461.201299,215.616883 C461.201299,215.616883 463.980519,212.149351 466.448052,207.201299 C466.974026,209.824675 467.441558,212.474026 467.876623,215.123377 C467.422078,216.467532 465.448052,222.207792 464.220779,223.025974 L464.681818,225.577922 C464.681818,225.577922 467.136364,222.279221 468.590909,219.961039 C469.967532,229.902597 470.688312,240.051948 470.688312,250.37013 C470.688312,265.142857 469.227273,279.577922 466.448052,293.538961 C463.019481,310.798701 457.577922,327.337662 450.363636,342.902597 L450.363636,342.902597 Z M249.62987,16.1493506 C120.480519,16.1493506 15.4090909,121.220779 15.4090909,250.37013 C15.4090909,379.519481 120.480519,484.590909 249.62987,484.590909 C378.779221,484.590909 483.857143,379.519481 483.857143,250.37013 C483.857143,121.220779 378.779221,16.1493506 249.62987,16.1493506 L249.62987,16.1493506 Z" id="Fill-64" fill="#DE4A2A"></path>
                <path d="M352.298701,302.506494 L353.272727,300.948052 C358.337662,292.766234 362.532468,287.720779 366.590909,282.837662 L369.785714,278.948052 L373.467532,274.590909 L374.837662,288.071429 C375.506494,293.590909 376.220779,299.298701 375.344156,306.681818 C374.87013,310.668831 372.272727,316.454545 367.694805,319.753247 C364.564935,322 360.922078,322.75974 357.155844,321.961039 C354.519481,321.402597 352.272727,319.246753 351.448052,316.454545 C351.246753,315.785714 351.077922,314.902597 351.077922,313.857143 C351.077922,311.675325 352.246753,308.649351 354.922078,305.305195 C354.24026,304.577922 352.298701,302.506494 352.298701,302.506494 L352.298701,302.506494 Z M260.402597,292.61039 C261.642857,286.935065 267.298701,278.461039 274.62987,274.11039 C279.311688,271.331169 284.435065,271.512987 287.084416,274.564935 C287.974026,275.590909 288.603896,277.019481 288.603896,278.720779 C288.603896,280.487013 287.922078,282.545455 286.155844,284.753247 C280.461039,291.87013 268.402597,295.883117 262.590909,295.519481 L259.805195,295.337662 L260.402597,292.61039 L260.402597,292.61039 Z M371.071429,209.87013 C365.805195,209.915584 351.902597,210.025974 349.636364,210.045455 C348.480519,212.480519 337.714286,235.272727 337.714286,235.272727 C337.714286,235.272727 317.305195,235.616883 314.746753,235.662338 C313.857143,237.441558 310.24026,244.831169 308.149351,249.064935 C313.655844,248.850649 331.285714,248.168831 331.285714,248.168831 C331.285714,248.168831 313.714286,286.311688 313.681818,286.409091 C306.935065,299.435065 289.922078,321.188312 269,320.071429 C264.649351,319.831169 259.246753,317.655844 258.168831,308.603896 L257.876623,306.142857 L260.337662,305.928571 C283.733766,303.87013 293.422078,295.253247 297.12987,290.292208 C303.012987,282.402597 303.967532,274.577922 299.753247,268.831169 C294.805195,262.058442 284,260.11039 272.902597,263.961039 C252.493506,271.045455 236.707792,294.298701 239.11039,313.727273 L239.25974,314.883117 L238.435065,315.707792 C237.792208,316.357143 234.422078,319.545455 230.928571,319.194805 C229.350649,319.038961 228.019481,318.207792 227.032468,316.694805 C225.850649,314.746753 225.292208,312.116883 225.292208,308.88961 C225.292208,288.357143 247.772727,243.818182 273.207792,197.246753 L245.941558,197.246753 C233.954545,209.603896 218.928571,234.512987 206.792208,254.694805 C206.792208,254.694805 196.188312,272.019481 195.883117,272.5 C193.246753,276.493506 192.357143,277.837662 190.266234,276.88961 C189.227273,276.415584 188.811688,275.792208 188.811688,274.707792 C188.811688,273.590909 189.25974,271.980519 189.935065,269.558442 L195.220779,248.207792 C199.636364,229.506494 204.623377,208.967532 209.954545,197.051948 C204.636364,197.090909 187.149351,197.220779 185.142857,197.24026 C178.409091,205.818182 170.032468,225.077922 161.149351,245.62987 C141.967532,290.012987 128.376623,318.811688 114.798701,314.896104 C112.733766,314.298701 111.253247,312.896104 110.512987,310.818182 C110.142857,309.779221 109.974026,308.603896 109.974026,307.337662 C109.974026,301.201299 113.837662,292.928571 117.272727,286.896104 C112.116883,288.746753 106.701299,290.694805 105.909091,290.980519 C99.1038961,298.668831 93.038961,311.850649 93.038961,321.954545 C93.038961,323.422078 93.1623377,324.818182 93.4350649,326.136364 C94.3311688,330.467532 96.6428571,333.415584 100.474026,335.149351 C106.292208,337.772727 112.116883,337.88961 118.266234,335.506494 C140.090909,327.038961 157.435065,290.051948 162.220779,278.915584 C164.837662,272.863636 165.811688,270.597403 168.311688,271.324675 C169.694805,271.727273 170.142857,272.61039 170.142857,274.11039 C170.142857,275.162338 169.922078,276.519481 169.642857,278.220779 C169.642857,278.220779 169.285714,280.461039 169.285714,280.506494 C166.253247,298.396104 159.590909,322.707792 153.662338,334.720779 L172.493506,334.720779 C175.974026,329.974026 181.006494,321.707792 186.837662,312.071429 C193.655844,300.805195 201.38961,288.032468 208.292208,278.324675 C214.753247,269.227273 215.577922,268.058442 217.883117,269.448052 C220.155844,270.824675 219.532468,272.077922 214.461039,282.071429 C205.474026,296.116883 202.337662,315.584416 207.318182,326.376623 C209.668831,331.467532 213.623377,334.428571 219.006494,335.175325 C229.246753,336.331169 238.298701,328.032468 240.162338,325.74026 L242.071429,323.396104 L243.922078,325.798701 C245.636364,328.032468 247.688312,329.850649 250.357143,331.525974 C257.077922,335.422078 279.753247,337.88961 296.201299,320.87013 L296.454545,320.5 L299.272727,318.844156 L300.642857,318.207792 L301.668831,320.818182 C301.668831,320.818182 302.188312,322.103896 302.428571,322.597403 C305.032468,329.681818 310.331169,332.25974 314.311688,333.181818 C322.279221,335.012987 331.792208,331.974026 338.564935,325.448052 L339.993506,324.064935 L341.616883,325.220779 C345.818182,328.201299 350.714286,331.357143 355.188312,332.155844 C381.720779,336.88961 391.831169,314.792208 392.909091,309.077922 C393.577922,305.551948 393.844156,302.376623 393.844156,299.480519 C393.844156,292.246753 392.149351,286.701299 390.597403,281.649351 C389.396104,277.727273 388.279221,274.071429 388.279221,270.357143 C388.279221,267.642857 389.181818,264.844156 390.779221,261.935065 C387.279221,260.12987 380.707792,256.746753 379.474026,256.116883 C375.253247,258.051948 358.311688,279.467532 348.077922,292.422078 C330.116883,315.155844 329.915584,315.064935 327.480519,313.857143 L325.461039,311.5 C324.422078,308.396104 326.590909,303.38961 327.974026,300.681818 C327.974026,300.681818 351.331169,251.058442 351.298701,251.149351 L352.435065,248.37013 C352.435065,248.37013 393.694805,247.733766 396.636364,247.688312 C397.435065,245.714286 400.428571,238.415584 402.077922,234.396104 C395.987013,234.493506 359.058442,235.064935 359.058442,235.064935 C359.058442,235.064935 368.61039,215.019481 371.071429,209.87013 L371.071429,209.87013 Z" id="Fill-65" fill="#DE4A2A"></path>
                <path d="M358.37013,301.974026 C362.623377,295.324675 366.324675,290.675325 369.850649,286.435065 C369.941558,287.324675 370.064935,288.662338 370.064935,288.662338 C370.525974,292.324675 370.967532,295.850649 370.967532,299.818182 C370.967532,301.785714 370.850649,303.863636 370.584416,306.123377 C370.233766,309.116883 368.11039,313.545455 364.88961,315.857143 C362.863636,317.311688 360.590909,317.785714 358.142857,317.266234 C357.37013,317.11039 356.422078,316.37013 356.038961,315.084416 C355.928571,314.701299 355.863636,314.285714 355.863636,313.857143 C355.863636,311.779221 357.220779,309.266234 359.707792,306.772727 L361.337662,305.12987 C361.337662,305.12987 359.058442,302.707792 358.37013,301.974026 L358.37013,301.974026 Z M351.448052,316.454545 C352.272727,319.246753 354.519481,321.402597 357.155844,321.961039 C360.922078,322.75974 364.564935,322 367.694805,319.753247 C372.272727,316.454545 374.87013,310.668831 375.344156,306.681818 C376.220779,299.298701 375.506494,293.590909 374.837662,288.071429 L373.467532,274.590909 L369.785714,278.948052 L366.590909,282.837662 C362.532468,287.720779 358.337662,292.766234 353.272727,300.948052 L352.298701,302.506494 C352.298701,302.506494 354.24026,304.577922 354.922078,305.305195 C352.246753,308.649351 351.077922,311.675325 351.077922,313.857143 C351.077922,314.902597 351.246753,315.785714 351.448052,316.454545 L351.448052,316.454545 Z" id="Fill-66" fill="#FFFFFF"></path>
                <path d="M375.915584,252.805195 C370.993506,256.383117 362.37013,266.603896 344.305195,289.454545 C339.435065,295.616883 334.24026,302.175325 330.88961,306.11039 C331.246753,305.103896 331.623377,304.071429 332.246753,302.857143 C332.246753,302.857143 355.571429,253.311688 355.655844,253.11039 C357.051948,253.097403 365.792208,252.954545 375.915584,252.805195 L375.915584,252.805195 Z M402.077922,234.396104 C400.428571,238.415584 397.435065,245.714286 396.636364,247.688312 C393.694805,247.733766 352.435065,248.37013 352.435065,248.37013 L351.298701,251.149351 C351.331169,251.058442 327.974026,300.681818 327.974026,300.681818 C326.590909,303.38961 324.422078,308.396104 325.461039,311.5 L327.480519,313.857143 C329.915584,315.064935 330.116883,315.155844 348.077922,292.422078 C358.311688,279.467532 375.253247,258.051948 379.474026,256.116883 C380.707792,256.746753 387.279221,260.12987 390.779221,261.935065 C389.181818,264.844156 388.279221,267.642857 388.279221,270.357143 C388.279221,274.071429 389.396104,277.727273 390.597403,281.649351 C392.149351,286.701299 393.844156,292.246753 393.844156,299.480519 C393.844156,302.376623 393.577922,305.551948 392.909091,309.077922 C391.831169,314.792208 381.720779,336.88961 355.188312,332.155844 C350.714286,331.357143 345.818182,328.201299 341.616883,325.220779 L339.993506,324.064935 L338.564935,325.448052 C331.792208,331.974026 322.279221,335.012987 314.311688,333.181818 C310.331169,332.25974 305.032468,329.681818 302.428571,322.597403 C302.188312,322.103896 301.668831,320.818182 301.668831,320.818182 L300.642857,318.207792 L299.272727,318.844156 L296.454545,320.5 L296.201299,320.87013 C279.753247,337.88961 257.077922,335.422078 250.357143,331.525974 C247.688312,329.850649 245.636364,328.032468 243.922078,325.798701 L242.071429,323.396104 L240.162338,325.74026 C238.298701,328.032468 229.246753,336.331169 219.006494,335.175325 C213.623377,334.428571 209.668831,331.467532 207.318182,326.376623 C202.337662,315.584416 205.474026,296.116883 214.461039,282.071429 C219.532468,272.077922 220.155844,270.824675 217.883117,269.448052 C215.577922,268.058442 214.753247,269.227273 208.292208,278.324675 C201.38961,288.032468 193.655844,300.805195 186.837662,312.071429 C181.006494,321.707792 175.974026,329.974026 172.493506,334.720779 L153.662338,334.720779 C159.590909,322.707792 166.253247,298.396104 169.285714,280.506494 C169.285714,280.461039 169.642857,278.220779 169.642857,278.220779 C169.922078,276.519481 170.142857,275.162338 170.142857,274.11039 C170.142857,272.61039 169.694805,271.727273 168.311688,271.324675 C165.811688,270.597403 164.837662,272.863636 162.220779,278.915584 C157.435065,290.051948 140.090909,327.038961 118.266234,335.506494 C112.116883,337.88961 106.292208,337.772727 100.474026,335.149351 C96.6428571,333.415584 94.3311688,330.467532 93.4350649,326.136364 C93.1623377,324.818182 93.038961,323.422078 93.038961,321.954545 C93.038961,311.850649 99.1038961,298.668831 105.909091,290.980519 C106.701299,290.694805 112.116883,288.746753 117.272727,286.896104 C113.837662,292.928571 109.974026,301.201299 109.974026,307.337662 C109.974026,308.603896 110.142857,309.779221 110.512987,310.818182 C111.253247,312.896104 112.733766,314.298701 114.798701,314.896104 C128.376623,318.811688 141.967532,290.012987 161.149351,245.62987 C170.032468,225.077922 178.409091,205.818182 185.142857,197.24026 C187.149351,197.220779 204.636364,197.090909 209.954545,197.051948 C204.623377,208.967532 199.636364,229.506494 195.220779,248.207792 L189.935065,269.558442 C189.25974,271.980519 188.811688,273.590909 188.811688,274.707792 C188.811688,275.792208 189.227273,276.415584 190.266234,276.88961 C192.357143,277.837662 193.246753,276.493506 195.883117,272.5 C196.188312,272.019481 206.792208,254.694805 206.792208,254.694805 C218.928571,234.512987 233.954545,209.603896 245.941558,197.246753 L273.207792,197.246753 C247.772727,243.818182 225.292208,288.357143 225.292208,308.88961 C225.292208,312.116883 225.850649,314.746753 227.032468,316.694805 C228.019481,318.207792 229.350649,319.038961 230.928571,319.194805 C234.422078,319.545455 237.792208,316.357143 238.435065,315.707792 L239.25974,314.883117 L239.11039,313.727273 C236.707792,294.298701 252.493506,271.045455 272.902597,263.961039 C284,260.11039 294.805195,262.058442 299.753247,268.831169 C303.967532,274.577922 303.012987,282.402597 297.12987,290.292208 C293.422078,295.253247 283.733766,303.87013 260.337662,305.928571 L257.876623,306.142857 L258.168831,308.603896 C259.246753,317.655844 264.649351,319.831169 269,320.071429 C289.922078,321.188312 306.935065,299.435065 313.681818,286.409091 C313.714286,286.311688 331.285714,248.168831 331.285714,248.168831 C331.285714,248.168831 313.655844,248.850649 308.149351,249.064935 C310.24026,244.831169 313.857143,237.441558 314.746753,235.662338 C317.305195,235.616883 337.714286,235.272727 337.714286,235.272727 C337.714286,235.272727 348.480519,212.480519 349.636364,210.045455 C351.902597,210.025974 365.805195,209.915584 371.071429,209.87013 C368.61039,215.019481 359.058442,235.064935 359.058442,235.064935 C359.058442,235.064935 395.987013,234.493506 402.077922,234.396104 L402.077922,234.396104 Z M378.688312,205.012987 L346.577922,205.279221 C346.577922,205.279221 335.798701,228.11039 334.655844,230.525974 C332.058442,230.571429 311.727273,230.915584 311.727273,230.915584 L300.311688,254.168831 C300.311688,254.168831 318.25974,253.474026 323.662338,253.25974 C321.032468,258.980519 309.37013,284.305195 309.37013,284.305195 C303.623377,295.38961 287.792208,316.272727 269.266234,315.279221 C266.12987,315.11039 264.584416,313.25974 263.681818,310.188312 C286.603896,307.441558 296.974026,298.506494 300.974026,293.155844 C305.045455,287.694805 307.11039,282.025974 307.11039,276.785714 C307.11039,272.863636 305.954545,269.188312 303.623377,266 C297.422078,257.519481 284.435065,254.883117 271.318182,259.435065 C250.188312,266.772727 234.071429,289 234.071429,309.642857 C234.071429,310.74026 234.168831,311.831169 234.272727,312.928571 C233.246753,313.753247 232.051948,314.493506 231.409091,314.428571 C231.357143,314.422078 231.253247,314.415584 231.084416,314.149351 C222.441558,299.811688 263.772727,224.396104 279.337662,196 L281.272727,192.454545 L243.844156,192.454545 L243.136364,193.155844 C230.655844,205.714286 215.142857,231.5 202.675325,252.220779 C202.675325,252.220779 199.681818,257.116883 196.779221,261.87013 C198.292208,255.772727 199.88961,249.305195 199.88961,249.305195 C204.415584,230.12987 210.058442,206.272727 215.681818,195.753247 L217.577922,192.201299 L213.545455,192.233766 L182.733766,192.461039 L182.019481,193.318182 C174.766234,202.051948 166.012987,222.292208 156.75974,243.727273 C144.058442,273.097403 126.675325,313.324675 116.123377,310.292208 C115.649351,310.155844 115.279221,309.909091 115.032468,309.214286 C113.454545,304.779221 118.935065,292.207792 124.857143,283.694805 L129.136364,277.532468 L103.064935,286.902597 L102.662338,287.344156 C93.987013,296.915584 86.1883117,314.831169 88.7402597,327.103896 C89.9415584,332.883117 93.3181818,337.175325 98.5064935,339.512987 C105.454545,342.655844 112.681818,342.811688 120,339.967532 C139.279221,332.5 154.512987,306.337662 162.694805,289.350649 C158.649351,308.428571 152.227273,328.616883 147.636364,335.824675 L145.292208,339.512987 L174.915584,339.512987 L175.642857,338.571429 C179.279221,333.805195 184.681818,324.883117 190.935065,314.551948 C195.175325,307.564935 199.701299,300.233766 204.207792,293.201299 C201.798701,300.084416 200.155844,307.097403 200.155844,313.655844 C200.155844,319.168831 201.071429,324.25974 202.967532,328.376623 C206.006494,334.961039 211.344156,338.954545 218.409091,339.935065 C229.045455,341.136364 238.077922,334.506494 242.12987,330.506494 C243.844156,332.337662 245.519481,334.162338 247.844156,335.603896 L247.909091,335.642857 C256.493506,340.668831 280.590909,342.545455 298.474026,325.168831 C300.935065,331.525974 306.168831,336.227273 313.246753,337.850649 C322.149351,339.896104 332.422078,336.662338 340.214286,330 C344.551948,333 349.428571,336 354.350649,336.876623 C381.987013,341.811688 395.636364,320.467532 397.61039,309.961039 C398.337662,306.12987 398.642857,302.668831 398.642857,299.5 C398.642857,291.519481 396.779221,285.428571 395.175325,280.246753 C394.038961,276.480519 393.084416,273.38961 393.084416,270.428571 C393.084416,267.753247 393.857143,265.181818 395.941558,262.311688 L397.590909,260.045455 C397.590909,260.045455 386.681818,254.448052 383.266234,252.688312 C390.006494,252.584416 399.857143,252.435065 399.857143,252.435065 L409.266234,229.493506 C409.266234,229.493506 373.097403,230.045455 366.707792,230.149351 C369.181818,224.974026 378.688312,205.012987 378.688312,205.012987 L378.688312,205.012987 Z" id="Fill-67" fill="#FFFFFF"></path>
                <path d="M277.077922,278.233766 C280.181818,276.383117 282.681818,276.811688 283.467532,277.714286 C283.694805,277.980519 283.811688,278.318182 283.811688,278.714286 C283.811688,279.545455 283.331169,280.616883 282.415584,281.75974 C278.662338,286.454545 271.292208,289.376623 266.337662,290.318182 C268.25974,286.285714 272.116883,281.175325 277.077922,278.233766 L277.077922,278.233766 Z M286.155844,284.753247 C287.922078,282.545455 288.603896,280.487013 288.603896,278.720779 C288.603896,277.019481 287.974026,275.590909 287.084416,274.564935 C284.435065,271.512987 279.311688,271.331169 274.62987,274.11039 C267.298701,278.461039 261.642857,286.935065 260.402597,292.61039 L259.805195,295.337662 L262.590909,295.519481 C268.402597,295.883117 280.461039,291.87013 286.155844,284.753247 L286.155844,284.753247 Z" id="Fill-68" fill="#FFFFFF"></path>
            </g>
        </g>
    </g>
</svg>