<?xml version="1.0" encoding="UTF-8" standalone="no"?>
<svg width="500px" height="500px" viewBox="0 0 500 500" version="1.1" xmlns="http://www.w3.org/2000/svg" xmlns:xlink="http://www.w3.org/1999/xlink">
    <!-- Generator: Sketch 39.1 (31720) - http://www.bohemiancoding.com/sketch -->
    <title>NYY</title>
    <desc>Created with Sketch.</desc>
    <defs>
        <polygon id="path-1" points="0.340434783 498.694517 449.044826 498.694517 449.044826 0.944516971 0.340434783 0.944516971"></polygon>
    </defs>
    <g id="MLB" stroke="none" stroke-width="1" fill="none" fill-rule="evenodd">
        <g id="NYY">
            <g transform="translate(25.000000, 0.000000)">
                <polyline id="Fill-1" fill="#FFFFFF" points="271.275457 146.376335 268.319348 139.461562 264.608609 145.705881 257.050957 146.313835 261.765978 151.785426 259.870891 159.132017 266.71363 156.092244 273.085435 160.319517 272.608826 152.779744 278.396217 148.313835 271.275457 146.376335"></polyline>
                <polyline id="Fill-2" fill="#FFFFFF" points="241.169674 145.637699 238.258957 141.614972 236.783739 146.177472 232.006304 147.67179 235.836196 150.512699 235.688674 155.524062 239.654739 152.563835 244.375435 154.353608 242.968304 149.563835 246.037891 145.842244 241.169674 145.637699"></polyline>
                <polyline id="Fill-3" fill="#FFFFFF" points="326.465609 189.120653 323.396022 184.717244 321.739239 189.552472 316.581652 191.012699 320.876804 194.114972 320.576087 199.524062 325.007413 196.541108 329.796196 198.48429 328.428783 193.433153 331.594826 189.154744 326.465609 189.120653"></polyline>
                <path d="M87.5711739,368.29679 C87.7811087,368.126335 87.9740217,367.972926 88.1896304,367.79679 C88.149913,367.739972 88.0761522,367.620653 88.0534565,367.586562 C87.8208261,367.495653 86.975413,367.17179 85.9597826,366.779744 C86.4874565,367.29679 87.0378261,367.785426 87.5711739,368.29679" id="Fill-4" fill="#FFFFFF"></path>
                <polyline id="Fill-5" fill="#FFFFFF" points="309.500609 154.961562 301.755717 158.501335 294.056217 154.035426 294.952696 162.472926 288.212087 168.302472 296.853457 169.944517 300.184043 178.291108 304.757217 170.688835 313.319152 170.251335 307.741696 163.614972 309.500609 154.961562"></polyline>
                <path d="M258.656674,215.632017 C249.527348,211.319517 239.722826,212.217244 236.789413,216.580881 C236.057478,217.666108 235.172348,219.052472 234.996457,219.626335 C234.803543,220.251335 234.587935,220.876335 234.389348,221.501335 C234.576587,220.916108 234.79787,220.285426 234.979435,219.705881 C235.155326,219.137699 236.034783,217.751335 236.772391,216.660426 C239.70013,212.29679 249.504652,211.399062 258.639652,215.711562 C267.808696,220.035426 274.328022,230.205881 271.780435,236.876335 C271.791783,236.870653 271.791783,236.864972 271.791783,236.85929 C274.396109,230.183153 267.848413,219.967244 258.656674,215.632017" id="Fill-6" fill="#FFFFFF"></path>
                <path d="M102.669457,305.870653 C109.211478,313.137699 128.968043,290.154744 124.939565,283.654744 C119.594739,276.92179 96.8196522,299.382017 102.669457,305.870653" id="Fill-7" fill="#FFFFFF"></path>
                <path d="M83.7015652,263.137699 C70.7650435,276.001335 49.6126957,278.541108 39.2805,267.353608 C26.5085217,253.541108 42.3727826,229.524062 55.4681739,206.660426 C68.8642826,183.268381 79.0092391,162.649062 63.230087,159.552472 C53.0567609,157.54679 41.5727609,170.67179 36.1768696,180.614972 C30.9341739,190.279744 24.5113043,204.529744 26.0602826,226.785426 C26.0602826,261.774062 35.6038043,294.507017 51.9219783,322.887699 L83.7015652,263.137699" id="Fill-8" fill="#FFFFFF"></path>
                <path d="M89.784,370.35929 C89.7272609,370.268381 89.6818696,370.194517 89.6251304,370.103608 C89.6081087,370.120653 89.591087,370.137699 89.5683913,370.154744 C89.6421522,370.228608 89.7102391,370.291108 89.784,370.35929" id="Fill-9" fill="#FFFFFF"></path>
                <path d="M355.680587,275.92179 C352.179783,271.018381 338.54537,282.200199 337.790739,288.995653 C348.696,288.563835 358.494848,279.847926 355.680587,275.92179" id="Fill-10" fill="#FFFFFF"></path>
                <path d="M287.729804,291.444517 C297.30737,290.200199 306.90763,282.200199 305.301913,278.541108 C303.043696,273.416108 289.800783,282.660426 287.729804,291.444517" id="Fill-11" fill="#FFFFFF"></path>
                <path d="M357.286304,78.0979261 C356.287696,79.2115624 355.203978,80.4786079 354.097565,81.8081533 C356.900478,82.7797442 362.449565,84.7058806 365.224109,85.6661079 C362.648152,83.069517 360.004109,80.5467897 357.286304,78.0979261" id="Fill-12" fill="#FFFFFF"></path>
                <path d="M387.987848,283.489972 C385.735304,285.666108 383.238783,287.60929 380.878435,289.228608 C380.82737,296.54679 373.286739,296.836562 372.895239,296.444517 C371.595913,297.870653 372.600196,304.007017 379.085478,304.330881 C389.882935,304.876335 389.718391,290.660426 388.294239,285.376335 C388.129696,284.762699 388.061609,284.120653 387.987848,283.489972" id="Fill-13" fill="#FFFFFF"></path>
                <g id="Group-17">
                    <mask id="mask-2" fill="white">
                        <use xlink:href="#path-1"></use>
                    </mask>
                    <g id="Clip-15"></g>
                    <path d="M256.733217,281.143381 C255.354457,278.075199 247.201043,279.217244 242.23637,281.205881 L237.186587,289.04679 L235.183696,292.268381 C246.264848,293.154744 259.093565,286.42179 256.733217,281.143381" id="Fill-14" fill="#FFFFFF" mask="url(#mask-2)"></path>
                    <path d="M401.179696,298.018381 C400.66337,299.836562 399.920087,301.620653 398.6775,303.29679 C393.945457,309.711562 385.843109,310.580881 379.108174,309.433153 C374.807348,308.705881 369.990196,305.842244 367.998652,302.60929 C367.164587,301.268381 366.648261,299.972926 366.268109,298.722926 C349.274739,308.944517 328.184804,311.751335 323.032891,301.711562 C322.335,300.347926 321.960522,298.972926 321.813,297.592244 C302.941565,311.166108 278.089826,315.404744 272.813087,303.830881 C272.154913,302.399062 271.85987,300.933153 271.80313,299.472926 L271.298152,301.535426 C259.167326,312.563835 246.123,316.683153 241.827848,313.393381 C234.656022,307.910426 241.19237,300.779744 237.549717,297.705881 C236.551109,296.870653 234.888652,296.654744 232.1595,296.853608 L237.186587,289.04679 L242.020761,281.279744 C242.088848,281.251335 242.168283,281.23429 242.23637,281.205881 L246.259174,274.955881 C253.828174,271.069517 266.180283,268.98429 268.256935,276.069517 C271.15063,285.978608 257.351674,294.541108 247.774109,296.126335 C255.065087,297.461562 247.853543,305.586562 255.314739,306.563835 C258.560217,306.989972 267.854087,300.370653 273.000326,293.535426 C279.837391,277.507017 313.449652,263.399062 318.159,275.438835 C322.221522,285.819517 302.975609,295.10929 287.105674,295.257017 C286.441826,295.262699 286.674457,295.092244 286.60637,295.262699 C285.221935,299.285426 287.185109,303.700199 294.617935,303.632017 C301.823804,303.563835 312.417,300.614972 322.613022,291.910426 C328.519565,276.035426 363.073696,262.649062 366.239739,273.836562 C369.02563,283.632017 351.867717,292.007017 337.331152,293.132017 C336.672978,293.188835 336.894261,292.967244 336.837522,293.137699 C335.453087,297.160426 337.404913,301.580881 344.849087,301.507017 C350.937196,301.450199 357.54163,298.961562 365.740435,294.399062 C366.324848,286.507017 375.255587,282.183153 379.437261,286.018381 C382.433087,283.899062 385.593457,281.274062 388.021891,278.404744 C388.180761,277.007017 388.390696,275.632017 388.606304,274.330881 C390.030457,265.620653 401.293174,256.552472 405.281935,259.399062 C408.011087,261.353608 406.513174,267.830881 399.131413,274.188835 C397.758326,275.535426 396.8505,275.757017 398.853391,279.870653 C399.817957,281.864972 401.060543,285.137699 401.639283,288.847926 C414.723326,279.188835 421.895152,263.188835 423.18313,226.29679 L423.058304,226.137699 C423.058304,172.529744 401.888935,123.904744 367.51637,88.069517 C367.204304,88.5865624 366.631239,88.882017 366.041152,88.6774715 L352.332978,83.9217897 C350.840739,85.7513352 349.354174,87.6036079 347.986761,89.3365624 C351.20387,90.8706533 358.438109,94.319517 358.438109,94.319517 C358.897696,94.5411079 359.170043,95.0013352 359.170043,95.4842897 C359.170043,95.6661079 359.124652,95.8592897 359.050891,96.0354261 C358.738826,96.6774715 357.972848,96.9501988 357.331696,96.6490624 C357.331696,96.6490624 349.58113,92.9501988 346.369696,91.382017 C345.354065,92.6831533 344.434891,93.8649715 343.731326,94.7683806 C367.77737,112.177472 384.560804,139.330881 387.658761,169.842244 C387.636065,170.143381 351.425152,190.751335 341.495804,196.393381 C341.087283,193.683153 340.531239,191.018381 339.85037,188.404744 L379.59613,162.688835 C379.970609,159.802472 377.621609,149.944517 376.804565,148.336562 L335.844587,176.728608 C333.115435,170.507017 329.591935,164.711562 325.427283,159.444517 L365.16737,124.512699 C359.42537,115.478608 353.564217,109.274062 346.199478,102.842244 L312.156,146.251335 C304.989848,140.626335 296.85913,136.200199 288.0135,133.313835 L307.242391,83.3081533 C297.9315,80.2967897 287.349652,79.1547442 276.767804,80.1547442 L268.546304,129.660426 C266.917891,129.558153 265.3065,129.410426 263.649717,129.410426 C258.270848,129.410426 253.016804,129.961562 247.932978,130.995653 L248.8635,86.0297442 C244.500261,87.6036079 238.854717,90.3251988 234.701413,93.6206533 L235.495761,134.705881 C232.204891,135.972926 228.982109,137.387699 225.918196,139.063835 C225.203283,127.614972 223.120957,94.0183806 223.359261,93.8479261 C240.267522,81.8536079 260.920565,74.8024715 283.219043,74.8024715 C304.706152,74.8024715 324.8145,81.7229261 341.614957,93.2854261 C342.335543,92.3592897 343.249043,91.194517 344.224957,89.9388352 L334.08,79.7797442 C333.575022,79.2740624 333.575022,78.4558806 334.08,77.9501988 C334.579304,77.4501988 335.402022,77.4501988 335.901326,77.9501988 C335.901326,77.9501988 343.589478,85.6547442 345.807978,87.9331533 C347.169717,86.194517 348.66763,84.3422442 350.15987,82.5126988 L342.522783,71.5865624 C342.114261,71.0013352 342.256109,70.194517 342.834848,69.7854261 C343.424935,69.3763352 344.219283,69.5183806 344.633478,70.1036079 C344.633478,70.1036079 350.097457,77.9217897 351.867717,80.4558806 C353.076261,79.007017 354.250761,77.6376988 355.345826,76.4104261 C320.286717,45.5411079 274.328022,26.7740624 223.977717,26.7740624 C168.83863,26.7740624 118.947913,49.2342897 82.8958696,85.4956533 C83.5313478,86.0240624 84.1498043,86.5524715 84.7796087,87.0865624 L99.3615652,81.6774715 C100.025413,81.4331533 100.768696,81.7740624 101.018348,82.444517 C101.069413,82.5922442 101.097783,82.7399715 101.097783,82.8876988 C101.097783,83.4161079 100.77437,83.9047442 100.258043,84.0979261 C100.258043,84.0979261 90.9585,87.5467897 87.0378261,89.0013352 C89.1712174,90.882017 91.2365217,92.819517 93.2677826,94.7854261 L106.794391,89.7058806 C107.458239,89.4558806 108.201522,89.7911079 108.451174,90.4615624 C108.700826,91.1263352 108.366065,91.8706533 107.696543,92.1206533 L95.3501087,96.757017 C96.3543913,97.757017 97.3132826,98.7911079 98.2948696,99.8081533 L112.003043,95.4104261 C112.683913,95.194517 113.4045,95.569517 113.625783,96.2456533 C113.841391,96.9274715 113.466913,97.6490624 112.791717,97.8706533 L100.258043,101.887699 C101.738935,103.467244 103.202804,105.052472 104.615609,106.67179 L121.926717,103.967244 C122.630283,103.853608 123.288457,104.336562 123.396261,105.041108 C123.509739,105.745653 123.027457,106.404744 122.323891,106.512699 L106.561761,108.978608 C108.002935,110.683153 109.444109,112.382017 110.82287,114.132017 L127.935391,111.683153 C128.64463,111.586562 129.29713,112.075199 129.393587,112.779744 C129.495717,113.48429 129.007761,114.137699 128.304196,114.23429 L112.587457,116.48429 C115.095326,119.779744 117.484043,123.149062 119.759283,126.586562 L139.470457,124.870653 C140.174022,124.808153 140.798152,125.336562 140.860565,126.04679 C140.922978,126.751335 140.400978,127.376335 139.691739,127.438835 L121.39337,129.035426 C123.634565,132.541108 125.779304,136.103608 127.776522,139.739972 L146.982717,139.194517 C147.691957,139.17179 148.282043,139.73429 148.304739,140.444517 L148.304739,140.48429 C148.304739,141.177472 147.75437,141.751335 147.050804,141.774062 C147.050804,141.774062 133.705761,142.154744 129.09287,142.279744 C130.857457,145.614972 132.508565,149.001335 134.074565,152.438835 L152.242435,153.524062 C152.957348,153.563835 153.49637,154.17179 153.450978,154.887699 C153.411261,155.597926 152.804152,156.137699 152.089239,156.097926 C152.089239,156.097926 139.930043,155.370653 135.260413,155.086562 C137.104435,159.319517 138.846326,163.597926 140.378283,167.955881 L159.714978,169.569517 C160.424217,169.626335 160.951891,170.251335 160.889478,170.961562 C160.832739,171.67179 160.208609,172.200199 159.49937,172.137699 C159.49937,172.137699 146.125957,171.024062 141.235043,170.614972 C142.681891,174.950199 143.958522,179.353608 145.08763,183.802472 L163.085283,188.518381 C163.771826,188.694517 164.186022,189.399062 164.004457,190.092244 C163.822891,190.779744 163.119326,191.194517 162.427109,191.012699 L145.830913,186.666108 C146.943,191.364972 147.873522,196.120653 148.633826,200.927472 C148.792696,201.211562 148.832413,201.489972 148.758652,201.802472 C148.764326,201.830881 148.77,201.864972 148.77,201.893381 L165.468326,207.745653 C166.143522,207.978608 166.495304,208.717244 166.262674,209.393381 C166.02437,210.063835 165.292435,210.416108 164.622913,210.183153 L149.178522,204.768381 C150.006913,210.813835 150.557283,216.927472 150.801261,223.097926 L168.691109,230.700199 C169.354957,230.967244 169.655674,231.73429 169.377652,232.387699 C169.105304,233.04679 168.345,233.347926 167.6925,233.069517 C167.6925,233.069517 155.181522,227.757017 150.880696,225.933153 C150.920413,227.535426 151.01687,229.132017 151.01687,230.739972 C151.01687,234.989972 150.858,239.10929 150.597,243.166108 L167.244261,249.887699 C167.902435,250.154744 168.220174,250.904744 167.9535,251.563835 C167.686826,252.228608 166.93787,252.54679 166.279696,252.279744 C166.279696,252.279744 154.285043,247.433153 150.353022,245.847926 C149.910457,251.330881 149.229587,256.762699 148.259348,262.239972 L165.258391,269.376335 C165.910891,269.649062 166.222957,270.404744 165.950609,271.063835 C165.672587,271.717244 164.917957,272.024062 164.259783,271.757017 C164.259783,271.757017 151.2495,266.291108 147.816783,264.847926 C147.181304,268.166108 146.432348,271.529744 145.586935,274.950199 L153.853826,281.904744 C154.398522,282.35929 154.472283,283.166108 154.012696,283.717244 C153.553109,284.262699 152.741739,284.330881 152.197043,283.876335 L143.328717,276.42179 C143.266304,276.376335 143.277652,276.285426 143.226587,276.228608 C143.118783,276.097926 143.062043,275.978608 143.010978,275.808153 C142.954239,275.643381 142.92587,275.512699 142.942891,275.336562 C142.942891,275.268381 142.891826,275.200199 142.908848,275.120653 C143.748587,271.779744 144.446478,268.524062 145.081957,265.29679 C140.724391,267.069517 130.619152,271.188835 130.619152,271.188835 C129.960978,271.455881 129.212022,271.137699 128.945348,270.478608 C128.678674,269.819517 128.990739,269.063835 129.654587,268.79679 L145.643674,262.285426 C146.608239,256.950199 147.272087,251.666108 147.720326,246.336562 C144.123065,248.739972 135.141261,254.73429 135.141261,254.73429 C134.551174,255.126335 133.751152,254.967244 133.353978,254.376335 C132.962478,253.785426 133.121348,252.98429 133.711435,252.586562 L148.021043,243.035426 C148.282043,239.018381 148.440913,234.950199 148.440913,230.739972 C148.440913,229.251335 148.35013,227.779744 148.316087,226.29679 C144.792587,229.086562 134.942674,236.904744 134.942674,236.904744 C134.380957,237.347926 133.569587,237.257017 133.132696,236.700199 C132.69013,236.137699 132.780913,235.325199 133.34263,234.887699 L148.225304,223.075199 C147.969978,216.791108 147.391239,210.563835 146.52313,204.404744 L135.050478,215.893381 C134.5455,216.393381 133.73413,216.393381 133.229152,215.893381 C132.729848,215.387699 132.729848,214.569517 133.229152,214.063835 L146.074891,201.205881 C145.303239,196.35929 144.344348,191.558153 143.203891,186.813835 L139.34563,190.677472 C138.846326,191.177472 138.029283,191.177472 137.524304,190.677472 C137.019326,190.17179 137.019326,189.35929 137.524304,188.853608 L142.454935,183.916108 C141.35987,179.637699 140.12863,175.410426 138.727174,171.23429 C135.929935,174.041108 126.755217,183.228608 126.755217,183.228608 C126.250239,183.728608 125.43887,183.728608 124.933891,183.228608 C124.434587,182.722926 124.434587,181.910426 124.933891,181.404744 L137.825022,168.495653 C136.298739,164.166108 134.562522,159.927472 132.724174,155.73429 C130.00637,158.393381 121.308261,166.904744 121.308261,166.904744 C120.797609,167.404744 119.980565,167.393381 119.486935,166.887699 C118.98763,166.376335 118.998978,165.558153 119.503957,165.063835 L131.606413,153.222926 C130.063109,149.847926 128.429022,146.518381 126.68713,143.239972 C123.975,146.080881 115.901022,154.552472 115.901022,154.552472 C115.413065,155.069517 114.596022,155.086562 114.079696,154.592244 C113.569043,154.103608 113.552022,153.285426 114.039978,152.774062 L125.433196,140.819517 C123.447326,137.205881 121.302587,133.677472 119.072739,130.200199 L109.052609,141.069517 C108.570326,141.592244 107.753283,141.626335 107.231283,141.143381 C106.709283,140.660426 106.675239,139.842244 107.157522,139.319517 L117.461348,128.149062 C117.512413,128.092244 117.591848,128.103608 117.642913,128.063835 C115.85563,125.35929 114.000261,122.700199 112.07113,120.086562 L103.741826,132.603608 C103.344652,133.194517 102.54463,133.353608 101.954543,132.961562 C101.358783,132.563835 101.199913,131.762699 101.597087,131.17179 L110.425696,117.899062 C110.102283,117.472926 109.790217,117.035426 109.455457,116.603608 C109.183109,116.450199 109.007217,116.200199 108.910761,115.882017 C107.815696,114.48429 106.669565,113.126335 105.529109,111.751335 L98.3686304,125.325199 C98.0395435,125.955881 97.2622174,126.194517 96.632413,125.864972 C96.0026087,125.529744 95.7586304,124.751335 96.0933913,124.120653 L103.741826,109.626335 C103.628348,109.501335 103.520543,109.364972 103.407065,109.23429 C102.975848,109.075199 102.612717,108.785426 102.538957,108.302472 C102.533283,108.279744 102.561652,108.257017 102.561652,108.228608 C101.699217,107.245653 100.825435,106.279744 99.9459783,105.313835 L94.419587,118.904744 C94.152913,119.563835 93.3982826,119.882017 92.7401087,119.614972 C92.0819348,119.347926 91.7641957,118.592244 92.0365435,117.933153 L98.0055,103.251335 C96.2806304,101.42179 94.544413,99.5979261 92.7344348,97.8308806 L86.975413,111.472926 C86.6860435,112.126335 85.937087,112.433153 85.284587,112.154744 C84.632087,111.870653 84.3256957,111.120653 84.6037174,110.467244 L90.7428913,95.9388352 C88.8705,94.1547442 86.9867609,92.3933806 85.0349348,90.6831533 C83.8888043,94.2058806 80.4333913,104.779744 80.4333913,104.779744 C80.2121087,105.455881 79.4858478,105.825199 78.8106522,105.603608 C78.1297826,105.382017 77.7609783,104.654744 77.9822609,103.978608 L82.9128913,88.882017 C82.3114565,88.3706533 81.7043478,87.8536079 81.0915652,87.3422442 C60.03,109.086562 43.848,135.603608 34.3782391,165.143381 L13.6173913,187.166108 C31.4618478,86.8763352 118.981957,10.7286079 224.261413,10.7286079 C342.426326,10.7286079 438.224674,106.660426 438.224674,224.995653 L438.360848,225.353608 C438.457304,230.882017 437.628913,246.802472 434.644435,252.972926 C424.266848,274.382017 407.897609,292.29679 401.179696,298.018381 L401.179696,298.018381 Z M384.078522,320.211562 L380.816022,329.183153 L378.597522,329.183153 L375.437152,320.211562 L375.386087,320.211562 L375.386087,329.183153 L373.082478,329.183153 L373.082478,317.904744 L377.065565,317.904744 L379.692587,325.274062 L379.743652,325.274062 L382.478478,317.904744 L386.433196,317.904744 L386.433196,329.183153 L384.129587,329.183153 L384.129587,320.211562 L384.078522,320.211562 L384.078522,320.211562 Z M361.933239,319.910426 L361.933239,317.904744 L371.028522,317.904744 L371.028522,319.910426 L367.629848,319.910426 L367.629848,329.183153 L365.326239,329.183153 L365.326239,319.910426 L361.933239,319.910426 L361.933239,319.910426 Z M313.103543,306.495653 C313.035457,305.785426 313.557457,305.154744 314.261022,305.086562 L319.986,304.512699 C320.689565,304.444517 321.31937,304.955881 321.39313,305.666108 C321.461217,306.370653 320.950565,307.007017 320.241326,307.075199 L314.516348,307.649062 C313.812783,307.722926 313.182978,307.205881 313.103543,306.495653 L313.103543,306.495653 Z M293.931391,274.92179 C292.717174,275.364972 289.692978,276.98429 287.349652,278.467244 C282.628957,273.092244 266.027087,261.575199 257.153087,258.489972 C257.016913,258.444517 259.399957,255.313835 259.399957,255.313835 C268.557652,259.035426 290.351152,271.700199 293.789543,274.853608 L293.931391,274.92179 L293.931391,274.92179 Z M226.014652,142.387699 C239.030609,133.364972 270.515152,125.597926 298.691804,140.813835 C319.441304,152.018381 334.460152,170.467244 338.74963,197.399062 L323.010196,206.427472 C308.13887,189.518381 294.686022,179.495653 284.38787,174.336562 C274.084043,169.177472 250.049348,158.864972 227.160783,157.717244 L226.014652,142.387699 L226.014652,142.387699 Z M143.828022,294.211562 C144.378391,294.660426 144.457826,295.467244 144.009587,296.018381 C143.555674,296.575199 142.744304,296.649062 142.193935,296.205881 L139.050587,293.626335 C138.500217,293.177472 138.415109,292.364972 138.869022,291.813835 C139.317261,291.257017 140.12863,291.183153 140.679,291.632017 L143.828022,294.211562 L143.828022,294.211562 Z M149.18987,299.67179 C149.575696,299.069517 150.370043,298.893381 150.971478,299.279744 L153.819783,301.10929 C154.415543,301.489972 154.591435,302.291108 154.205609,302.887699 C153.819783,303.489972 153.025435,303.666108 152.429674,303.274062 L149.58137,301.444517 C148.985609,301.063835 148.809717,300.268381 149.18987,299.67179 L149.18987,299.67179 Z M139.481804,310.67179 C139.958413,310.143381 140.769783,310.103608 141.30313,310.580881 L147.311804,316.029744 C147.839478,316.507017 147.879196,317.313835 147.402587,317.847926 C146.925978,318.376335 146.108935,318.416108 145.581261,317.938835 L139.572587,312.495653 C139.044913,312.024062 139.005196,311.200199 139.481804,310.67179 L139.481804,310.67179 Z M224.545109,439.830881 C200.879217,439.830881 178.1325,435.92179 156.855326,428.819517 C149.490587,443.257017 142.931543,456.643381 139.147043,465.399062 C136.491652,471.54679 135.861848,474.330881 138.500217,477.433153 C139.01087,478.029744 139.827913,479.524062 139.964087,480.069517 C140.514457,482.177472 138.120065,484.910426 136.854783,485.739972 C134.239109,487.450199 128.604913,487.882017 118.494,483.239972 C108.377413,478.603608 105.8355,472.961562 105.67663,469.836562 C105.60287,468.325199 106.402891,464.779744 108.434152,463.98429 C108.950478,463.774062 110.63563,463.558153 111.424304,463.620653 C115.475478,463.938835 117.693978,461.302472 121.104,455.529744 C125.938174,447.347926 132.684457,435.370653 139.856283,422.353608 C63.9620217,389.558153 10.7917826,314.052472 10.5931957,226.069517 C10.5931957,226.194517 10.5648261,226.308153 10.5648261,226.433153 L10.5818478,225.569517 C10.5818478,225.73429 10.5931957,225.899062 10.5931957,226.069517 C10.9903696,206.217244 22.3381957,190.097926 28.3752391,179.597926 C35.7910435,166.711562 59.1959348,139.529744 80.7341087,157.73429 C107.713565,180.529744 34.4122826,250.637699 53.1305217,263.580881 C62.5605652,270.10929 79.0603043,261.35929 89.2166087,251.825199 L120.735196,193.10929 L138.579652,192.60929 L61.6016739,338.120653 C67.6727609,346.779744 74.4417391,354.899062 81.7440652,362.472926 C81.8121522,362.489972 81.8802391,362.450199 81.9426522,362.467244 L89.3811522,365.330881 C89.6421522,365.433153 89.8634348,365.620653 90.0109565,365.853608 L90.1868478,366.143381 C92.1103043,364.364972 93.8862391,362.455881 95.7302609,360.603608 C95.7132391,360.580881 95.6508261,360.518381 95.6394783,360.507017 C94.9699565,360.313835 84.2689565,357.177472 84.2689565,357.177472 C83.7072391,357.012699 83.3441087,356.501335 83.3441087,355.938835 C83.3441087,355.819517 83.3554565,355.700199 83.3951739,355.575199 C83.5937609,354.887699 84.3086739,354.501335 84.9895435,354.700199 L96.7231957,358.143381 C96.9558261,358.205881 97.1657609,358.342244 97.3246304,358.518381 L97.5572609,358.785426 C99.117587,357.166108 100.672239,355.541108 102.170152,353.85929 C102.107739,353.791108 101.977239,353.660426 101.954543,353.637699 C101.330413,353.444517 89.1144783,349.717244 89.1144783,349.717244 C88.5584348,349.552472 88.2009783,349.041108 88.2009783,348.48429 C88.2009783,348.364972 88.2236739,348.23429 88.2633913,348.10929 C88.4676522,347.433153 89.1882391,347.04679 89.8634348,347.257017 L103.026913,351.262699 C103.242522,351.325199 103.435435,351.450199 103.58863,351.614972 L103.843957,351.882017 C106.221326,349.143381 108.587348,346.382017 110.7945,343.495653 C110.709391,343.370653 110.56187,343.17179 110.527826,343.114972 C109.466804,343.012699 97.3700217,341.745653 97.3700217,341.745653 C96.7061739,341.67179 96.2182174,341.120653 96.2182174,340.461562 C96.2182174,340.42179 96.2182174,340.376335 96.2238913,340.330881 C96.2976522,339.620653 96.9274565,339.10929 97.6366957,339.183153 L111.373239,340.620653 C111.742043,340.654744 112.076804,340.853608 112.292413,341.149062 L112.377522,341.274062 C114.261261,338.728608 116.133652,336.177472 117.886891,333.524062 C114.42013,333.114972 105.092217,332.018381 105.092217,332.018381 C104.439717,331.938835 103.957435,331.387699 103.957435,330.739972 C103.957435,330.688835 103.957435,330.637699 103.963109,330.586562 C104.048217,329.876335 104.68937,329.370653 105.392935,329.455881 L119.452891,331.10929 C120.956478,328.751335 122.340913,326.302472 123.74237,323.864972 L112.848457,322.853608 C112.144891,322.785426 111.622891,322.160426 111.685304,321.450199 C111.753391,320.739972 112.383196,320.217244 113.086761,320.285426 L125.194891,321.410426 C125.359435,321.120653 125.541,320.853608 125.69987,320.563835 C125.733913,320.524062 125.716891,320.455881 125.756609,320.410426 C125.767957,320.393381 125.790652,320.399062 125.807674,320.387699 C125.966543,320.086562 126.159457,319.819517 126.318326,319.524062 C126.658761,318.893381 127.436087,318.654744 128.060217,319.001335 C128.690022,319.336562 128.922652,320.120653 128.587891,320.745653 C128.525478,320.85929 128.451717,320.967244 128.389304,321.075199 L138.449152,330.35929 C138.971152,330.842244 139.005196,331.660426 138.522913,332.183153 C138.04063,332.705881 137.223587,332.739972 136.701587,332.257017 L127.044587,323.353608 C125.291348,326.472926 123.492717,329.569517 121.574935,332.575199 L130.573761,343.978608 C131.016326,344.535426 130.91987,345.347926 130.363826,345.791108 C129.802109,346.23429 128.990739,346.132017 128.553848,345.580881 C128.553848,345.580881 122.465739,337.864972 120.094043,334.85929 C118.142217,337.819517 116.065565,340.666108 113.95487,343.495653 L121.444435,354.04679 C121.85863,354.626335 121.722457,355.427472 121.143717,355.842244 C120.559304,356.257017 119.759283,356.114972 119.345087,355.535426 C119.345087,355.535426 114.9705,349.376335 112.371848,345.717244 C110.232783,348.489972 107.917826,351.126335 105.619891,353.768381 L113.319391,361.927472 C113.807348,362.450199 113.784652,363.262699 113.268326,363.751335 C112.752,364.239972 111.934957,364.217244 111.447,363.700199 C111.447,363.700199 106.731978,358.700199 103.946087,355.745653 C102.431152,357.444517 100.842457,359.080881 99.2594348,360.717244 L105.909261,368.262699 C106.380196,368.79679 106.32913,369.614972 105.795783,370.080881 C105.262435,370.552472 104.451065,370.501335 103.98013,369.972926 C103.98013,369.972926 99.8892391,365.330881 97.4324348,362.541108 C95.5316739,364.455881 93.6933261,366.438835 91.7017826,368.268381 C91.6563913,368.308153 91.6280217,368.336562 91.5826304,368.370653 L95.7359348,375.024062 C95.8834565,375.262699 95.8777826,375.529744 95.8607609,375.785426 C111.401609,389.120653 128.865913,400.097926 147.62387,408.188835 C158.778783,387.677472 169.735109,366.961562 175.250152,355.73429 C178.189239,349.739972 187.579565,331.330881 198.348652,308.586562 C192.998152,312.688835 181.990761,318.058153 179.170826,313.677472 C173.309674,304.552472 191.227891,290.075199 187.840565,286.029744 C185.797957,283.603608 177.383543,289.938835 170.512435,297.85929 C170.512435,297.85929 166.693891,305.183153 161.496587,314.416108 L149.26363,314.529744 C148.514674,313.955881 164.8215,290.058153 161.655457,287.274062 C157.156043,283.342244 130.778022,326.035426 118.380522,316.972926 C117.336522,316.205881 114.539283,313.029744 118.267043,305.052472 C112.717957,312.387699 99.2310652,318.325199 93.5571522,313.399062 C81.369587,302.819517 114.4485,267.353608 127.782196,279.643381 C128.83187,280.603608 129.206348,281.535426 129.132587,282.279744 L130.91987,279.450199 L142.988283,279.342244 C137.501609,294.114972 126.136761,307.489972 129.053152,309.592244 C134.12563,313.239972 163.295217,268.467244 173.224565,278.222926 C176.311174,281.257017 176.095565,285.23429 175.295543,287.393381 C182.331196,280.04679 197.174152,272.967244 201.979957,277.955881 C207.818413,284.024062 190.047717,301.927472 193.962717,304.433153 C195.557087,305.450199 199.511804,303.04679 201.6225,301.60929 C210.031239,283.60929 218.905239,263.586562 226.094087,244.98429 C225.725283,244.819517 210.428413,238.103608 195.931565,232.444517 C179.051674,225.853608 161.610065,207.524062 165.888196,186.024062 C170.92663,160.705881 203.194174,160.200199 217.679674,159.092244 C221.798935,158.779744 224.454326,160.126335 217.679674,160.813835 C210.031239,161.586562 205.946022,161.955881 198.507522,165.393381 C216.533543,164.825199 249.062087,171.149062 275.621674,184.450199 C295.071848,194.194517 316.252565,209.972926 328.406087,222.416108 C334.579304,228.728608 336.786457,229.825199 332.133848,220.98429 C331.243043,219.29679 330.233087,217.694517 328.128065,214.967244 C325.160609,211.126335 320.905174,204.85929 329.841587,213.245653 C338.999283,221.842244 350.659174,243.762699 344.928522,270.694517 C344.928522,270.694517 344.832065,272.154744 344.656174,272.893381 C344.497304,273.092244 339.124109,275.291108 337.149587,276.694517 C339.918457,270.870653 342.182348,263.524062 342.14263,255.364972 C341.28587,242.024062 338.999283,237.79679 325.937935,225.177472 C314.544717,214.17179 291.361109,197.302472 274.044326,188.603608 C234.077283,168.529744 173.905435,157.972926 169.893978,190.035426 C167.476891,209.353608 185.917109,223.563835 196.220935,227.575199 C204.147391,230.660426 219.1095,235.597926 227.69413,240.177472 L226.349413,244.308153 C228.21613,239.461562 229.997739,234.683153 231.575087,230.10929 C232.13113,228.501335 232.590717,227.007017 233.10137,225.444517 C232.619087,226.882017 232.119783,228.330881 231.592109,229.842244 C217.100935,220.160426 208.590065,209.751335 212.527761,202.23429 C219.835761,188.279744 242.644891,190.632017 266.469652,202.347926 C290.305761,214.063835 306.419674,231.853608 299.684739,244.660426 C295.695978,252.251335 282.03887,252.103608 265.380261,246.535426 C265.351891,246.575199 265.329196,246.60929 265.295152,246.649062 C241.425,279.882017 205.163022,340.052472 191.551304,363.847926 C185.480217,374.467244 174.716804,394.364972 164.248435,414.467244 C183.437609,420.751335 203.648087,424.114972 224.261413,423.938835 C281.862978,423.438835 333.654457,399.933153 370.007217,361.569517 L362.041043,367.029744 C361.45663,367.433153 360.656609,367.279744 360.259435,366.694517 C360.100565,366.472926 360.026804,366.222926 360.026804,365.967244 C360.026804,365.552472 360.225391,365.149062 360.588522,364.899062 C360.588522,364.899062 365.904978,361.262699 369.014283,359.132017 C367.306435,357.98429 365.519152,356.620653 363.652435,355.069517 L351.731543,363.024062 C351.135783,363.42179 350.341435,363.257017 349.938587,362.67179 C349.552761,362.075199 349.705957,361.274062 350.301717,360.882017 C350.301717,360.882017 359.839565,354.507017 361.660891,353.342244 C360.667957,352.472926 359.669348,351.569517 358.653717,350.620653 C358.330304,350.67179 357.984196,350.603608 357.694826,350.387699 C357.343043,350.132017 357.223891,349.739972 357.229565,349.330881 C357.121761,349.535426 357.030978,349.751335 356.821043,349.887699 L344.23063,357.330881 C343.623522,357.700199 342.8235,357.489972 342.471717,356.882017 C342.102913,356.268381 342.307174,355.478608 342.92563,355.10929 L355.516043,347.666108 C355.527391,347.654744 355.550087,347.666108 355.567109,347.654744 C354.341543,346.433153 353.10463,345.177472 351.867717,343.887699 L337.24037,350.518381 C336.593543,350.819517 335.833239,350.529744 335.532522,349.882017 C335.243152,349.228608 335.532522,348.467244 336.179348,348.177472 C336.179348,348.177472 347.016522,343.262699 350.074761,341.961562 C348.389609,340.166108 346.715804,338.325199 345.076043,336.461562 C344.917174,336.632017 344.724261,336.768381 344.508652,336.836562 L330.772109,340.842244 C330.091239,341.041108 329.376326,340.654744 329.177739,339.961562 C329.138022,339.847926 329.126674,339.722926 329.126674,339.60929 C329.126674,339.04679 329.495478,338.535426 330.051522,338.364972 C330.051522,338.364972 342.426326,334.751335 343.351174,334.48429 C341.563891,332.404744 339.810652,330.336562 338.142522,328.29679 L321.302348,328.85929 C320.587435,328.882017 319.997348,328.325199 319.974652,327.614972 C319.946283,326.904744 320.508,326.302472 321.217239,326.279744 L336.122609,325.779744 C333.404804,322.376335 330.925304,319.126335 328.86,316.245653 L316.337674,318.524062 C315.639783,318.649062 314.964587,318.188835 314.845435,317.48429 C314.828413,317.410426 314.822739,317.330881 314.822739,317.251335 C314.822739,316.643381 315.253957,316.097926 315.872413,315.989972 C315.872413,315.989972 324.462717,314.42179 327.231587,313.916108 C325.671261,311.649062 324.39463,309.654744 323.566239,308.137699 C323.22013,307.512699 323.441413,306.728608 324.071217,306.382017 C324.695348,306.041108 325.472674,306.268381 325.813109,306.893381 C326.630152,308.370653 327.855717,310.291108 329.35363,312.478608 C330.635935,311.200199 332.366478,309.467244 332.366478,309.467244 C332.860109,308.961562 333.682826,308.961562 334.18213,309.467244 C334.687109,309.967244 334.687109,310.791108 334.18213,311.291108 L330.857217,314.626335 C332.718261,317.239972 334.925413,320.166108 337.359522,323.251335 L344.900152,314.683153 C345.371087,314.154744 346.182457,314.097926 346.715804,314.569517 C347.249152,315.041108 347.300217,315.853608 346.823609,316.387699 L338.987935,325.291108 C340.900043,327.666108 342.92563,330.103608 345.030652,332.54679 C347.600935,329.48429 352.32163,323.870653 352.32163,323.870653 C352.775543,323.330881 353.586913,323.262699 354.131609,323.717244 C354.676304,324.177472 354.750065,324.995653 354.284804,325.535426 L346.732826,334.518381 C348.452022,336.478608 350.205261,338.404744 351.969848,340.29679 C354.199696,337.524062 359.170043,331.342244 359.170043,331.342244 C359.612609,330.791108 360.423978,330.705881 360.980022,331.154744 C361.530391,331.597926 361.621174,332.404744 361.178609,332.961562 C361.178609,332.961562 356.1345,339.222926 353.694717,342.149062 C355.32313,343.847926 356.94587,345.455881 358.551587,347.024062 L366.568826,335.978608 C366.983022,335.404744 367.794391,335.279744 368.367457,335.700199 C368.946196,336.114972 369.065348,336.92179 368.651152,337.501335 L360.429652,348.819517 C361.428261,349.751335 362.409848,350.626335 363.380087,351.478608 C365.655326,348.711562 370.046935,343.370653 370.046935,343.370653 C370.495174,342.813835 371.312217,342.739972 371.862587,343.194517 C372.412957,343.649062 372.492391,344.455881 372.038478,345.007017 C372.038478,345.007017 367.726304,350.245653 365.320565,353.137699 C367.397217,354.85929 369.388761,356.353608 371.238457,357.535426 C371.669674,356.666108 375.039978,349.916108 375.039978,349.916108 C375.352043,349.274062 376.12937,349.018381 376.770522,349.342244 C377.400326,349.654744 377.667,350.427472 377.343587,351.069517 L374.37613,357.012699 C390.943957,338.353608 403.959913,316.438835 412.397022,292.092244 C412.397022,292.092244 428.266957,278.001335 434.281304,268.541108 C434.281304,268.541108 433.36213,272.751335 432.499696,276.194517 C409.781348,370.092244 325.291109,439.830881 224.545109,439.830881 L224.545109,439.830881 Z M224.522413,0.944516971 C100.71763,0.944516971 0,101.802472 0,225.779744 C0,311.967244 47.9105217,389.103608 125.041696,427.342244 C124.718283,427.978608 123.975,429.427472 123.975,429.427472 C120.394761,436.427472 112.939239,450.995653 110.658326,452.063835 L106.442609,453.382017 C104.365957,453.882017 102.221217,454.399062 100.32613,455.85929 C98.2891957,457.427472 95.1628696,463.364972 95.1628696,466.427472 L95.0096739,467.478608 C94.8337826,468.393381 94.5898043,469.67179 94.5898043,471.23429 C94.5898043,476.217244 97.0466087,484.092244 112.003043,492.376335 C112.020065,492.387699 115.027239,493.972926 115.027239,493.972926 C135.379565,503.569517 142.488978,496.035426 145.161391,493.205881 L145.921696,492.461562 C148.395522,490.67179 151.38,484.660426 151.453761,482.086562 C151.459435,482.001335 151.459435,481.899062 151.459435,481.802472 C151.459435,479.535426 150.659413,477.575199 149.876413,475.677472 L148.48063,471.478608 C148.469283,471.416108 148.463609,471.353608 148.463609,471.279744 C148.463609,468.427472 156.287935,453.364972 160.100804,446.029744 C160.100804,446.029744 161.763261,442.813835 162.285261,441.808153 C182.427652,447.620653 203.353043,450.614972 224.522413,450.614972 C348.327196,450.614972 449.044826,349.751335 449.044826,225.779744 C449.044826,101.802472 348.327196,0.944516971 224.522413,0.944516971 L224.522413,0.944516971 Z" id="Fill-16" fill="#FFFFFF" mask="url(#mask-2)"></path>
                </g>
                <path d="M242.23637,281.205881 C242.168283,281.23429 242.088848,281.251335 242.020761,281.279744 L237.186587,289.04679 L242.23637,281.205881" id="Fill-18" fill="#D72331"></path>
                <path d="M234.996457,219.626335 C235.172348,219.052472 236.057478,217.666108 236.789413,216.580881 C239.722826,212.217244 249.527348,211.319517 258.656674,215.632017 C267.848413,219.967244 274.396109,230.183153 271.791783,236.85929 C271.791783,236.864972 271.791783,236.870653 271.780435,236.876335 C271.780435,236.899062 271.780435,236.916108 271.769087,236.938835 C271.292478,238.160426 270.339261,239.785426 269.981804,240.262699 C268.512261,242.217244 266.968957,244.319517 265.380261,246.535426 C282.03887,252.103608 295.695978,252.251335 299.684739,244.660426 C306.419674,231.853608 290.305761,214.063835 266.469652,202.347926 C242.644891,190.632017 219.835761,188.279744 212.527761,202.23429 C208.590065,209.751335 217.100935,220.160426 231.592109,229.842244 C232.119783,228.330881 232.619087,226.882017 233.10137,225.444517 C233.538261,224.120653 233.992174,222.785426 234.389348,221.501335 C234.587935,220.876335 234.803543,220.251335 234.996457,219.626335" id="Fill-19" fill="#253666"></path>
                <path d="M257.153087,258.489972 C266.027087,261.575199 282.628957,273.092244 287.349652,278.467244 C289.692978,276.98429 292.717174,275.364972 293.931391,274.92179 L293.789543,274.853608 C290.351152,271.700199 268.557652,259.035426 259.399957,255.313835 C259.399957,255.313835 257.016913,258.444517 257.153087,258.489972" id="Fill-20" fill="#253666"></path>
                <path d="M379.085478,304.330881 C372.600196,304.007017 371.595913,297.870653 372.895239,296.444517 C373.286739,296.836562 380.82737,296.54679 380.878435,289.228608 C383.238783,287.60929 385.735304,285.666108 387.987848,283.489972 C388.061609,284.120653 388.129696,284.762699 388.294239,285.376335 C389.718391,290.660426 389.882935,304.876335 379.085478,304.330881 L379.085478,304.330881 Z M305.301913,278.541108 C306.90763,282.200199 297.30737,290.200199 287.729804,291.444517 C289.800783,282.660426 303.043696,273.416108 305.301913,278.541108 L305.301913,278.541108 Z M355.680587,275.92179 C358.494848,279.847926 348.696,288.563835 337.790739,288.995653 C338.54537,282.200199 352.179783,271.018381 355.680587,275.92179 L355.680587,275.92179 Z M354.097565,81.8081533 C355.203978,80.4786079 356.287696,79.2115624 357.286304,78.0979261 C360.004109,80.5467897 362.648152,83.069517 365.224109,85.6661079 C362.449565,84.7058806 356.900478,82.7797442 354.097565,81.8081533 L354.097565,81.8081533 Z M438.360848,225.353608 L438.224674,224.995653 C438.224674,106.660426 342.426326,10.7286079 224.261413,10.7286079 C118.981957,10.7286079 31.4618478,86.8763352 13.6173913,187.166108 L34.3782391,165.143381 C43.848,135.603608 60.03,109.086562 81.0915652,87.3422442 C81.7043478,87.8536079 82.3114565,88.3706533 82.9128913,88.882017 L77.9822609,103.978608 C77.7609783,104.654744 78.1297826,105.382017 78.8106522,105.603608 C79.4858478,105.825199 80.2121087,105.455881 80.4333913,104.779744 C80.4333913,104.779744 83.8888043,94.2058806 85.0349348,90.6831533 C86.9867609,92.3933806 88.8705,94.1547442 90.7428913,95.9388352 L84.6037174,110.467244 C84.3256957,111.120653 84.632087,111.870653 85.284587,112.154744 C85.937087,112.433153 86.6860435,112.126335 86.975413,111.472926 L92.7344348,97.8308806 C94.544413,99.5979261 96.2806304,101.42179 98.0055,103.251335 L92.0365435,117.933153 C91.7641957,118.592244 92.0819348,119.347926 92.7401087,119.614972 C93.3982826,119.882017 94.152913,119.563835 94.419587,118.904744 L99.9459783,105.313835 C100.825435,106.279744 101.699217,107.245653 102.561652,108.228608 C102.561652,108.257017 102.533283,108.279744 102.538957,108.302472 C102.612717,108.785426 102.975848,109.075199 103.407065,109.23429 C103.520543,109.364972 103.628348,109.501335 103.741826,109.626335 L96.0933913,124.120653 C95.7586304,124.751335 96.0026087,125.529744 96.632413,125.864972 C97.2622174,126.194517 98.0395435,125.955881 98.3686304,125.325199 L105.529109,111.751335 C106.669565,113.126335 107.815696,114.48429 108.910761,115.882017 C109.007217,116.200199 109.183109,116.450199 109.455457,116.603608 C109.790217,117.035426 110.102283,117.472926 110.425696,117.899062 L101.597087,131.17179 C101.199913,131.762699 101.358783,132.563835 101.954543,132.961562 C102.54463,133.353608 103.344652,133.194517 103.741826,132.603608 L112.07113,120.086562 C114.000261,122.700199 115.85563,125.35929 117.642913,128.063835 C117.591848,128.103608 117.512413,128.092244 117.461348,128.149062 L107.157522,139.319517 C106.675239,139.842244 106.709283,140.660426 107.231283,141.143381 C107.753283,141.626335 108.570326,141.592244 109.052609,141.069517 L119.072739,130.200199 C121.302587,133.677472 123.447326,137.205881 125.433196,140.819517 L114.039978,152.774062 C113.552022,153.285426 113.569043,154.103608 114.079696,154.592244 C114.596022,155.086562 115.413065,155.069517 115.901022,154.552472 C115.901022,154.552472 123.975,146.080881 126.68713,143.239972 C128.429022,146.518381 130.063109,149.847926 131.606413,153.222926 L119.503957,165.063835 C118.998978,165.558153 118.98763,166.376335 119.486935,166.887699 C119.980565,167.393381 120.797609,167.404744 121.308261,166.904744 C121.308261,166.904744 130.00637,158.393381 132.724174,155.73429 C134.562522,159.927472 136.298739,164.166108 137.825022,168.495653 L124.933891,181.404744 C124.434587,181.910426 124.434587,182.722926 124.933891,183.228608 C125.43887,183.728608 126.250239,183.728608 126.755217,183.228608 C126.755217,183.228608 135.929935,174.041108 138.727174,171.23429 C140.12863,175.410426 141.35987,179.637699 142.454935,183.916108 L137.524304,188.853608 C137.019326,189.35929 137.019326,190.17179 137.524304,190.677472 C138.029283,191.177472 138.846326,191.177472 139.34563,190.677472 L143.203891,186.813835 C144.344348,191.558153 145.303239,196.35929 146.074891,201.205881 L133.229152,214.063835 C132.729848,214.569517 132.729848,215.387699 133.229152,215.893381 C133.73413,216.393381 134.5455,216.393381 135.050478,215.893381 L146.52313,204.404744 C147.391239,210.563835 147.969978,216.791108 148.225304,223.075199 L133.34263,234.887699 C132.780913,235.325199 132.69013,236.137699 133.132696,236.700199 C133.569587,237.257017 134.380957,237.347926 134.942674,236.904744 C134.942674,236.904744 144.792587,229.086562 148.316087,226.29679 C148.35013,227.779744 148.440913,229.251335 148.440913,230.739972 C148.440913,234.950199 148.282043,239.018381 148.021043,243.035426 L133.711435,252.586562 C133.121348,252.98429 132.962478,253.785426 133.353978,254.376335 C133.751152,254.967244 134.551174,255.126335 135.141261,254.73429 C135.141261,254.73429 144.123065,248.739972 147.720326,246.336562 C147.272087,251.666108 146.608239,256.950199 145.643674,262.285426 L129.654587,268.79679 C128.990739,269.063835 128.678674,269.819517 128.945348,270.478608 C129.212022,271.137699 129.960978,271.455881 130.619152,271.188835 C130.619152,271.188835 140.724391,267.069517 145.081957,265.29679 C144.446478,268.524062 143.748587,271.779744 142.908848,275.120653 C142.891826,275.200199 142.942891,275.268381 142.942891,275.336562 C142.92587,275.512699 142.954239,275.643381 143.010978,275.808153 C143.062043,275.978608 143.118783,276.097926 143.226587,276.228608 C143.277652,276.285426 143.266304,276.376335 143.328717,276.42179 L152.197043,283.876335 C152.741739,284.330881 153.553109,284.262699 154.012696,283.717244 C154.472283,283.166108 154.398522,282.35929 153.853826,281.904744 L145.586935,274.950199 C146.432348,271.529744 147.181304,268.166108 147.816783,264.847926 C151.2495,266.291108 164.259783,271.757017 164.259783,271.757017 C164.917957,272.024062 165.672587,271.717244 165.950609,271.063835 C166.222957,270.404744 165.910891,269.649062 165.258391,269.376335 L148.259348,262.239972 C149.229587,256.762699 149.910457,251.330881 150.353022,245.847926 C154.285043,247.433153 166.279696,252.279744 166.279696,252.279744 C166.93787,252.54679 167.686826,252.228608 167.9535,251.563835 C168.220174,250.904744 167.902435,250.154744 167.244261,249.887699 L150.597,243.166108 C150.858,239.10929 151.01687,234.989972 151.01687,230.739972 C151.01687,229.132017 150.920413,227.535426 150.880696,225.933153 C155.181522,227.757017 167.6925,233.069517 167.6925,233.069517 C168.345,233.347926 169.105304,233.04679 169.377652,232.387699 C169.655674,231.73429 169.354957,230.967244 168.691109,230.700199 L150.801261,223.097926 C150.557283,216.927472 150.006913,210.813835 149.178522,204.768381 L164.622913,210.183153 C165.292435,210.416108 166.02437,210.063835 166.262674,209.393381 C166.495304,208.717244 166.143522,207.978608 165.468326,207.745653 L148.77,201.893381 C148.77,201.864972 148.764326,201.830881 148.758652,201.802472 C148.832413,201.489972 148.792696,201.211562 148.633826,200.927472 C147.873522,196.120653 146.943,191.364972 145.830913,186.666108 L162.427109,191.012699 C163.119326,191.194517 163.822891,190.779744 164.004457,190.092244 C164.186022,189.399062 163.771826,188.694517 163.085283,188.518381 L145.08763,183.802472 C143.958522,179.353608 142.681891,174.950199 141.235043,170.614972 C146.125957,171.024062 159.49937,172.137699 159.49937,172.137699 C160.208609,172.200199 160.832739,171.67179 160.889478,170.961562 C160.951891,170.251335 160.424217,169.626335 159.714978,169.569517 L140.378283,167.955881 C138.846326,163.597926 137.104435,159.319517 135.260413,155.086562 C139.930043,155.370653 152.089239,156.097926 152.089239,156.097926 C152.804152,156.137699 153.411261,155.597926 153.450978,154.887699 C153.49637,154.17179 152.957348,153.563835 152.242435,153.524062 L134.074565,152.438835 C132.508565,149.001335 130.857457,145.614972 129.09287,142.279744 C133.705761,142.154744 147.050804,141.774062 147.050804,141.774062 C147.75437,141.751335 148.304739,141.177472 148.304739,140.48429 L148.304739,140.444517 C148.282043,139.73429 147.691957,139.17179 146.982717,139.194517 L127.776522,139.739972 C125.779304,136.103608 123.634565,132.541108 121.39337,129.035426 L139.691739,127.438835 C140.400978,127.376335 140.922978,126.751335 140.860565,126.04679 C140.798152,125.336562 140.174022,124.808153 139.470457,124.870653 L119.759283,126.586562 C117.484043,123.149062 115.095326,119.779744 112.587457,116.48429 L128.304196,114.23429 C129.007761,114.137699 129.495717,113.48429 129.393587,112.779744 C129.29713,112.075199 128.64463,111.586562 127.935391,111.683153 L110.82287,114.132017 C109.444109,112.382017 108.002935,110.683153 106.561761,108.978608 L122.323891,106.512699 C123.027457,106.404744 123.509739,105.745653 123.396261,105.041108 C123.288457,104.336562 122.630283,103.853608 121.926717,103.967244 L104.615609,106.67179 C103.202804,105.052472 101.738935,103.467244 100.258043,101.887699 L112.791717,97.8706533 C113.466913,97.6490624 113.841391,96.9274715 113.625783,96.2456533 C113.4045,95.569517 112.683913,95.194517 112.003043,95.4104261 L98.2948696,99.8081533 C97.3132826,98.7911079 96.3543913,97.757017 95.3501087,96.757017 L107.696543,92.1206533 C108.366065,91.8706533 108.700826,91.1263352 108.451174,90.4615624 C108.201522,89.7911079 107.458239,89.4558806 106.794391,89.7058806 L93.2677826,94.7854261 C91.2365217,92.819517 89.1712174,90.882017 87.0378261,89.0013352 C90.9585,87.5467897 100.258043,84.0979261 100.258043,84.0979261 C100.77437,83.9047442 101.097783,83.4161079 101.097783,82.8876988 C101.097783,82.7399715 101.069413,82.5922442 101.018348,82.444517 C100.768696,81.7740624 100.025413,81.4331533 99.3615652,81.6774715 L84.7796087,87.0865624 C84.1498043,86.5524715 83.5313478,86.0240624 82.8958696,85.4956533 C118.947913,49.2342897 168.83863,26.7740624 223.977717,26.7740624 C274.328022,26.7740624 320.286717,45.5411079 355.345826,76.4104261 C354.250761,77.6376988 353.076261,79.007017 351.867717,80.4558806 C350.097457,77.9217897 344.633478,70.1036079 344.633478,70.1036079 C344.219283,69.5183806 343.424935,69.3763352 342.834848,69.7854261 C342.256109,70.194517 342.114261,71.0013352 342.522783,71.5865624 L350.15987,82.5126988 C348.66763,84.3422442 347.169717,86.194517 345.807978,87.9331533 C343.589478,85.6547442 335.901326,77.9501988 335.901326,77.9501988 C335.402022,77.4501988 334.579304,77.4501988 334.08,77.9501988 C333.575022,78.4558806 333.575022,79.2740624 334.08,79.7797442 L344.224957,89.9388352 C343.249043,91.194517 342.335543,92.3592897 341.614957,93.2854261 C324.8145,81.7229261 304.706152,74.8024715 283.219043,74.8024715 C260.920565,74.8024715 240.267522,81.8536079 223.359261,93.8479261 C223.120957,94.0183806 225.203283,127.614972 225.918196,139.063835 C228.982109,137.387699 232.204891,135.972926 235.495761,134.705881 L234.701413,93.6206533 C238.854717,90.3251988 244.500261,87.6036079 248.8635,86.0297442 L247.932978,130.995653 C253.016804,129.961562 258.270848,129.410426 263.649717,129.410426 C265.3065,129.410426 266.917891,129.558153 268.546304,129.660426 L276.767804,80.1547442 C287.349652,79.1547442 297.9315,80.2967897 307.242391,83.3081533 L288.0135,133.313835 C296.85913,136.200199 304.989848,140.626335 312.156,146.251335 L346.199478,102.842244 C353.564217,109.274062 359.42537,115.478608 365.16737,124.512699 L325.427283,159.444517 C329.591935,164.711562 333.115435,170.507017 335.844587,176.728608 L376.804565,148.336562 C377.621609,149.944517 379.970609,159.802472 379.59613,162.688835 L339.85037,188.404744 C340.531239,191.018381 341.087283,193.683153 341.495804,196.393381 C351.425152,190.751335 387.636065,170.143381 387.658761,169.842244 C384.560804,139.330881 367.77737,112.177472 343.731326,94.7683806 C344.434891,93.8649715 345.354065,92.6831533 346.369696,91.382017 C349.58113,92.9501988 357.331696,96.6490624 357.331696,96.6490624 C357.972848,96.9501988 358.738826,96.6774715 359.050891,96.0354261 C359.124652,95.8592897 359.170043,95.6661079 359.170043,95.4842897 C359.170043,95.0013352 358.897696,94.5411079 358.438109,94.319517 C358.438109,94.319517 351.20387,90.8706533 347.986761,89.3365624 C349.354174,87.6036079 350.840739,85.7513352 352.332978,83.9217897 L366.041152,88.6774715 C366.631239,88.882017 367.204304,88.5865624 367.51637,88.069517 C401.888935,123.904744 423.058304,172.529744 423.058304,226.137699 L423.18313,226.29679 C421.895152,263.188835 414.723326,279.188835 401.639283,288.847926 C401.060543,285.137699 399.817957,281.864972 398.853391,279.870653 C396.8505,275.757017 397.758326,275.535426 399.131413,274.188835 C406.513174,267.830881 408.011087,261.353608 405.281935,259.399062 C401.293174,256.552472 390.030457,265.620653 388.606304,274.330881 C388.390696,275.632017 388.180761,277.007017 388.021891,278.404744 C385.593457,281.274062 382.433087,283.899062 379.437261,286.018381 C375.255587,282.183153 366.324848,286.507017 365.740435,294.399062 C357.54163,298.961562 350.937196,301.450199 344.849087,301.507017 C337.404913,301.580881 335.453087,297.160426 336.837522,293.137699 C336.894261,292.967244 336.672978,293.188835 337.331152,293.132017 C351.867717,292.007017 369.02563,283.632017 366.239739,273.836562 C363.073696,262.649062 328.519565,276.035426 322.613022,291.910426 C312.417,300.614972 301.823804,303.563835 294.617935,303.632017 C287.185109,303.700199 285.221935,299.285426 286.60637,295.262699 C286.674457,295.092244 286.441826,295.262699 287.105674,295.257017 C302.975609,295.10929 322.221522,285.819517 318.159,275.438835 C313.449652,263.399062 279.837391,277.507017 273.000326,293.535426 C267.854087,300.370653 258.560217,306.989972 255.314739,306.563835 C247.853543,305.586562 255.065087,297.461562 247.774109,296.126335 C257.351674,294.541108 271.15063,285.978608 268.256935,276.069517 C266.180283,268.98429 253.828174,271.069517 246.259174,274.955881 L242.23637,281.205881 C247.201043,279.217244 255.354457,278.075199 256.733217,281.143381 C259.093565,286.42179 246.264848,293.154744 235.183696,292.268381 L237.186587,289.04679 L232.1595,296.853608 C234.888652,296.654744 236.551109,296.870653 237.549717,297.705881 C241.19237,300.779744 234.656022,307.910426 241.827848,313.393381 C246.123,316.683153 259.167326,312.563835 271.298152,301.535426 L271.80313,299.472926 C271.85987,300.933153 272.154913,302.399062 272.813087,303.830881 C278.089826,315.404744 302.941565,311.166108 321.813,297.592244 C321.960522,298.972926 322.335,300.347926 323.032891,301.711562 C328.184804,311.751335 349.274739,308.944517 366.268109,298.722926 C366.648261,299.972926 367.164587,301.268381 367.998652,302.60929 C369.990196,305.842244 374.807348,308.705881 379.108174,309.433153 C385.843109,310.580881 393.945457,309.711562 398.6775,303.29679 C399.920087,301.620653 400.66337,299.836562 401.179696,298.018381 C407.897609,292.29679 424.266848,274.382017 434.644435,252.972926 C437.628913,246.802472 438.457304,230.882017 438.360848,225.353608 L438.360848,225.353608 Z" id="Fill-21" fill="#D72331"></path>
                <path d="M148.236652,433.433153 L148.032391,433.808153 C148.032391,433.893381 148.032391,433.967244 148.038065,434.058153 C147.913239,433.955881 147.992674,434.239972 147.873522,434.137699 C147.913239,434.291108 147.862174,434.455881 147.771391,434.535426 C147.584152,434.711562 147.56713,434.836562 147.476348,435.058153 C147.470674,435.069517 147.550109,435.143381 147.510391,435.177472 C147.351522,435.313835 147.385565,435.54679 147.243717,435.722926 C147.056478,435.972926 146.494761,436.143381 146.335891,436.444517 C146.716043,435.677472 147.107543,434.910426 147.521739,434.370653 C147.839478,433.944517 147.555783,434.228608 147.748696,433.813835 C147.879196,433.518381 148.656522,431.353608 148.792696,431.029744 C152.372935,422.614972 213.963261,313.433153 249.09613,256.364972 C257.249543,243.67179 266.628522,228.512699 267.468261,227.17179 C267.967565,227.580881 268.909435,229.097926 268.818652,230.387699 C268.733543,231.529744 251.96713,256.535426 250.906109,258.143381 C212.573152,316.54679 152.747413,424.961562 148.236652,433.433153 L148.236652,433.433153 Z M145.411043,438.842244 C145.365652,438.995653 145.450761,439.194517 145.371326,439.319517 C144.923087,439.961562 144.95713,440.580881 144.730174,441.313835 C144.701804,441.404744 144.4635,441.444517 144.4635,441.495653 C144.520239,442.200199 143.6805,442.67179 143.527304,443.302472 C143.237935,444.444517 142.73863,445.342244 142.301739,446.472926 C142.267696,446.552472 142.040739,446.580881 142.029391,446.654744 C141.966978,447.10929 141.49037,447.274062 141.35987,447.654744 C141.320152,447.751335 141.382565,447.92179 141.3315,447.950199 C141.04213,448.154744 140.934326,448.438835 140.718717,448.67179 C140.639283,448.762699 140.735739,448.989972 140.679,449.137699 C140.571196,449.438835 140.304522,449.67179 140.247783,449.98429 C139.986783,451.35929 139.555565,452.643381 139.005196,453.830881 C138.869022,454.132017 138.647739,454.54679 138.766891,454.955881 C138.386739,454.944517 138.88037,455.495653 138.443478,455.455881 C138.443478,455.785426 138.528587,456.143381 138.409435,456.433153 C138.069,457.308153 137.972543,458.17179 137.768283,459.092244 C137.728565,459.251335 137.507283,459.416108 137.51863,459.597926 C137.552674,460.302472 136.769674,460.882017 136.764,461.592244 C136.764,462.200199 136.40087,462.597926 136.13987,463.228608 C135.986674,463.586562 135.680283,463.92179 135.424957,464.285426 C135.044804,464.830881 134.415,465.364972 134.114283,465.938835 C134.017826,466.126335 134.454717,466.450199 134.233435,466.552472 C134.114283,466.60929 133.989457,466.626335 133.927043,466.751335 C133.694413,467.205881 134.18237,467.847926 133.60363,468.075199 C133.246174,469.302472 131.912804,470.370653 131.532652,471.592244 C131.402152,471.995653 131.941174,472.501335 131.770957,472.864972 C131.345413,473.774062 131.317043,474.438835 131.010652,475.382017 C130.970935,475.512699 130.834761,475.632017 130.709935,475.535426 C130.573761,475.427472 130.539717,475.251335 130.505674,475.063835 C130.482978,474.938835 130.148217,474.927472 130.187935,474.563835 C130.335457,473.319517 131.107109,472.808153 131.4135,471.660426 C131.816348,470.10929 132.066,468.745653 132.349696,467.279744 C132.423457,466.882017 132.576652,466.535426 132.622043,466.10929 C132.639065,465.98429 132.542609,465.893381 132.553957,465.762699 C132.61637,465.29679 133.024891,464.944517 132.905739,464.444517 C133.614978,463.563835 133.427739,462.364972 134.159674,461.42179 C134.273152,461.279744 134.624935,460.978608 134.721391,460.802472 C135.266087,459.779744 135.118565,458.774062 135.74837,457.751335 C135.810783,457.637699 135.87887,457.688835 135.935609,457.563835 C136.043413,457.336562 136.639174,456.910426 136.707261,456.654744 C136.758326,456.444517 136.457609,456.200199 136.610804,455.955881 C136.66187,455.876335 136.60513,455.739972 136.639174,455.643381 C136.815065,455.177472 137.200891,454.819517 137.354087,454.330881 C137.535652,453.757017 137.734239,453.143381 138.148435,452.700199 C138.244891,452.592244 138.381065,452.455881 138.392413,452.308153 C138.409435,452.149062 138.250565,451.978608 138.738522,451.813835 C138.698804,451.160426 139.311587,450.791108 139.470457,450.17179 C139.53287,449.893381 139.878978,449.597926 139.986783,449.29679 C140.122957,448.927472 140.2875,448.569517 140.372609,448.154744 C140.406652,448.024062 140.525804,447.938835 140.684674,447.98429 C140.684674,447.819517 140.639283,447.632017 140.70737,447.501335 C141.218022,446.518381 142.023717,445.791108 142.335783,444.666108 C142.358478,444.586562 142.568413,444.569517 142.613804,444.478608 C142.681891,444.347926 142.579761,444.120653 142.66487,444.018381 C143.266304,443.285426 143.408152,442.467244 143.907457,441.649062 C143.981217,441.529744 143.890435,441.319517 143.947174,441.177472 C144.106043,440.762699 144.378391,440.399062 144.559957,439.995653 C144.616696,439.85929 144.525913,439.649062 144.599674,439.524062 C144.792587,439.217244 144.996848,438.944517 145.184087,438.649062 C145.541543,438.075199 145.910348,437.308153 146.284826,436.54679 C146.108935,437.154744 146.375609,438.058153 146.006804,438.637699 C145.978435,438.683153 145.445087,438.705881 145.411043,438.842244 L145.411043,438.842244 Z M126.585,468.893381 C125.943848,471.126335 125.1495,474.444517 124.514022,477.347926 C124.122522,479.154744 123.169304,479.529744 122.170696,479.160426 C121.557913,478.927472 120.922435,478.478608 120.389087,478.04679 C120.082696,477.802472 119.6685,477.728608 119.186217,477.48429 C119.04437,477.416108 118.896848,477.649062 118.743652,477.54679 C118.499674,477.382017 118.233,476.870653 117.966326,476.757017 C117.563478,476.575199 116.973391,476.205881 116.542174,475.989972 C116.17337,475.808153 115.85563,475.330881 115.537891,475.188835 C115.299587,475.086562 115.061283,475.308153 114.800283,475.17179 C114.142109,474.842244 113.682522,474.35929 113.160522,474.063835 C112.825761,473.876335 112.235674,473.529744 112.048435,473.370653 C111.617217,473.007017 111.690978,472.711562 111.844174,472.48429 C112.07113,472.143381 112.814413,471.955881 113.1435,471.910426 C113.50663,471.85929 114.766239,472.319517 116.184717,473.007017 C117.330848,473.552472 118.567761,474.29679 119.532326,474.586562 C120.338022,474.819517 121.308261,474.597926 121.750826,474.166108 C122.074239,473.847926 121.892674,473.427472 121.921043,472.989972 C121.955087,472.42179 122.443043,471.825199 122.142326,471.410426 C121.767848,470.893381 121.39337,470.745653 121.024565,470.524062 C120.564978,470.251335 120.111065,469.955881 119.651478,469.779744 C118.823087,469.461562 118.476978,468.137699 119.469913,467.961562 C119.469913,467.961562 120.355043,467.626335 120.911087,467.086562 C121.228826,466.785426 121.098326,466.416108 121.472804,466.007017 C121.637348,465.819517 122.091261,465.632017 122.221761,465.433153 C122.329565,465.274062 122.102609,465.120653 122.25013,464.955881 C122.414674,464.79679 122.323891,464.575199 122.584891,464.29679 C122.806174,464.063835 123.373565,463.785426 123.594848,463.478608 C123.810457,463.222926 124.026065,462.950199 124.253022,462.654744 C128.77513,456.808153 136.253348,443.711562 142.693239,431.870653 C139.731457,437.427472 137.047696,442.558153 135.867522,445.132017 C133.376674,450.558153 129.42763,459.950199 127.509848,465.251335 C127.407717,465.535426 127.640348,465.808153 127.543891,466.063835 C127.061609,467.416108 126.7155,468.416108 126.585,468.893381 L126.585,468.893381 Z M116.048543,464.762699 C118.420239,464.149062 122.931,458.416108 123.174978,457.916108 C123.418957,457.416108 124.07713,456.910426 123.753717,457.989972 C123.265761,460.478608 121.535217,462.910426 120.111065,464.489972 C119.259978,465.438835 118.72663,466.075199 118.051435,466.239972 C116.354935,466.637699 115.730804,466.007017 115.560587,465.518381 C115.554913,464.688835 115.719457,464.853608 116.048543,464.762699 L116.048543,464.762699 Z M154.460935,409.54679 C155.760261,407.291108 154.625478,409.541108 154.466609,410.035426 C154.387174,410.268381 151.136022,416.211562 147.323152,423.262699 C150.761543,416.779744 153.450978,411.552472 154.460935,409.54679 L154.460935,409.54679 Z M208.947522,314.694517 C212.516413,307.705881 255.479283,235.472926 262.327696,225.149062 C262.639761,223.489972 260.642543,222.353608 260.642543,222.353608 C253.845196,234.086562 178.688543,362.268381 176.169326,367.132017 C179.420478,361.149062 201.117522,317.291108 209.157457,301.779744 C217.600239,285.48429 244.988217,218.35929 245.623696,215.376335 C253.221065,215.137699 261.561717,218.563835 266.038435,224.700199 C266.11787,224.535426 264.330587,227.489972 264.330587,227.489972 C262.611391,230.120653 234.168065,276.126335 231.603457,280.717244 C228.99913,285.376335 163.272522,397.541108 163.272522,397.541108 C179.511261,365.944517 205.372957,321.677472 208.947522,314.694517 L208.947522,314.694517 Z M239.297283,219.739972 L240.948391,219.387699 C228.08563,258.257017 202.348761,312.35929 197.089043,319.597926 C224.61887,267.154744 237.935543,224.808153 239.297283,219.739972 L239.297283,219.739972 Z M88.0534565,367.586562 C88.0761522,367.620653 88.149913,367.739972 88.1896304,367.79679 C87.9740217,367.972926 87.7811087,368.126335 87.5711739,368.29679 C87.0378261,367.785426 86.4874565,367.29679 85.9597826,366.779744 C86.975413,367.17179 87.8208261,367.495653 88.0534565,367.586562 L88.0534565,367.586562 Z M89.784,370.35929 C89.7102391,370.291108 89.6421522,370.228608 89.5683913,370.154744 C89.591087,370.137699 89.6081087,370.120653 89.6251304,370.103608 C89.6818696,370.194517 89.7272609,370.268381 89.784,370.35929 L89.784,370.35929 Z M36.1768696,180.614972 C41.5727609,170.67179 53.0567609,157.54679 63.230087,159.552472 C79.0092391,162.649062 68.8642826,183.268381 55.4681739,206.660426 C42.3727826,229.524062 26.5085217,253.541108 39.2805,267.353608 C49.6126957,278.541108 70.7650435,276.001335 83.7015652,263.137699 L51.9219783,322.887699 C35.6038043,294.507017 26.0602826,261.774062 26.0602826,226.785426 C24.5113043,204.529744 30.9341739,190.279744 36.1768696,180.614972 L36.1768696,180.614972 Z M102.669457,305.870653 C96.8196522,299.382017 119.594739,276.92179 124.939565,283.654744 C128.968043,290.154744 109.211478,313.137699 102.669457,305.870653 L102.669457,305.870653 Z M434.281304,268.541108 C428.266957,278.001335 412.397022,292.092244 412.397022,292.092244 C403.959913,316.438835 390.943957,338.353608 374.37613,357.012699 L377.343587,351.069517 C377.667,350.427472 377.400326,349.654744 376.770522,349.342244 C376.12937,349.018381 375.352043,349.274062 375.039978,349.916108 C375.039978,349.916108 371.669674,356.666108 371.238457,357.535426 C369.388761,356.353608 367.397217,354.85929 365.320565,353.137699 C367.726304,350.245653 372.038478,345.007017 372.038478,345.007017 C372.492391,344.455881 372.412957,343.649062 371.862587,343.194517 C371.312217,342.739972 370.495174,342.813835 370.046935,343.370653 C370.046935,343.370653 365.655326,348.711562 363.380087,351.478608 C362.409848,350.626335 361.428261,349.751335 360.429652,348.819517 L368.651152,337.501335 C369.065348,336.92179 368.946196,336.114972 368.367457,335.700199 C367.794391,335.279744 366.983022,335.404744 366.568826,335.978608 L358.551587,347.024062 C356.94587,345.455881 355.32313,343.847926 353.694717,342.149062 C356.1345,339.222926 361.178609,332.961562 361.178609,332.961562 C361.621174,332.404744 361.530391,331.597926 360.980022,331.154744 C360.423978,330.705881 359.612609,330.791108 359.170043,331.342244 C359.170043,331.342244 354.199696,337.524062 351.969848,340.29679 C350.205261,338.404744 348.452022,336.478608 346.732826,334.518381 L354.284804,325.535426 C354.750065,324.995653 354.676304,324.177472 354.131609,323.717244 C353.586913,323.262699 352.775543,323.330881 352.32163,323.870653 C352.32163,323.870653 347.600935,329.48429 345.030652,332.54679 C342.92563,330.103608 340.900043,327.666108 338.987935,325.291108 L346.823609,316.387699 C347.300217,315.853608 347.249152,315.041108 346.715804,314.569517 C346.182457,314.097926 345.371087,314.154744 344.900152,314.683153 L337.359522,323.251335 C334.925413,320.166108 332.718261,317.239972 330.857217,314.626335 L334.18213,311.291108 C334.687109,310.791108 334.687109,309.967244 334.18213,309.467244 C333.682826,308.961562 332.860109,308.961562 332.366478,309.467244 C332.366478,309.467244 330.635935,311.200199 329.35363,312.478608 C327.855717,310.291108 326.630152,308.370653 325.813109,306.893381 C325.472674,306.268381 324.695348,306.041108 324.071217,306.382017 C323.441413,306.728608 323.22013,307.512699 323.566239,308.137699 C324.39463,309.654744 325.671261,311.649062 327.231587,313.916108 C324.462717,314.42179 315.872413,315.989972 315.872413,315.989972 C315.253957,316.097926 314.822739,316.643381 314.822739,317.251335 C314.822739,317.330881 314.828413,317.410426 314.845435,317.48429 C314.964587,318.188835 315.639783,318.649062 316.337674,318.524062 L328.86,316.245653 C330.925304,319.126335 333.404804,322.376335 336.122609,325.779744 L321.217239,326.279744 C320.508,326.302472 319.946283,326.904744 319.974652,327.614972 C319.997348,328.325199 320.587435,328.882017 321.302348,328.85929 L338.142522,328.29679 C339.810652,330.336562 341.563891,332.404744 343.351174,334.48429 C342.426326,334.751335 330.051522,338.364972 330.051522,338.364972 C329.495478,338.535426 329.126674,339.04679 329.126674,339.60929 C329.126674,339.722926 329.138022,339.847926 329.177739,339.961562 C329.376326,340.654744 330.091239,341.041108 330.772109,340.842244 L344.508652,336.836562 C344.724261,336.768381 344.917174,336.632017 345.076043,336.461562 C346.715804,338.325199 348.389609,340.166108 350.074761,341.961562 C347.016522,343.262699 336.179348,348.177472 336.179348,348.177472 C335.532522,348.467244 335.243152,349.228608 335.532522,349.882017 C335.833239,350.529744 336.593543,350.819517 337.24037,350.518381 L351.867717,343.887699 C353.10463,345.177472 354.341543,346.433153 355.567109,347.654744 C355.550087,347.666108 355.527391,347.654744 355.516043,347.666108 L342.92563,355.10929 C342.307174,355.478608 342.102913,356.268381 342.471717,356.882017 C342.8235,357.489972 343.623522,357.700199 344.23063,357.330881 L356.821043,349.887699 C357.030978,349.751335 357.121761,349.535426 357.229565,349.330881 C357.223891,349.739972 357.343043,350.132017 357.694826,350.387699 C357.984196,350.603608 358.330304,350.67179 358.653717,350.620653 C359.669348,351.569517 360.667957,352.472926 361.660891,353.342244 C359.839565,354.507017 350.301717,360.882017 350.301717,360.882017 C349.705957,361.274062 349.552761,362.075199 349.938587,362.67179 C350.341435,363.257017 351.135783,363.42179 351.731543,363.024062 L363.652435,355.069517 C365.519152,356.620653 367.306435,357.98429 369.014283,359.132017 C365.904978,361.262699 360.588522,364.899062 360.588522,364.899062 C360.225391,365.149062 360.026804,365.552472 360.026804,365.967244 C360.026804,366.222926 360.100565,366.472926 360.259435,366.694517 C360.656609,367.279744 361.45663,367.433153 362.041043,367.029744 L370.007217,361.569517 C333.654457,399.933153 281.862978,423.438835 224.261413,423.938835 C203.648087,424.114972 183.437609,420.751335 164.248435,414.467244 C174.716804,394.364972 185.480217,374.467244 191.551304,363.847926 C205.163022,340.052472 241.425,279.882017 265.295152,246.649062 C265.329196,246.60929 265.351891,246.575199 265.380261,246.535426 C266.968957,244.319517 268.512261,242.217244 269.981804,240.262699 C270.339261,239.785426 271.292478,238.160426 271.769087,236.938835 C271.780435,236.916108 271.780435,236.899062 271.780435,236.876335 C274.328022,230.205881 267.808696,220.035426 258.639652,215.711562 C249.504652,211.399062 239.70013,212.29679 236.772391,216.660426 C236.034783,217.751335 235.155326,219.137699 234.979435,219.705881 C234.79787,220.285426 234.576587,220.916108 234.389348,221.501335 C233.992174,222.785426 233.538261,224.120653 233.10137,225.444517 C232.590717,227.007017 232.13113,228.501335 231.575087,230.10929 C229.997739,234.683153 228.21613,239.461562 226.349413,244.308153 C226.264304,244.535426 226.179196,244.757017 226.094087,244.98429 C218.905239,263.586562 210.031239,283.60929 201.6225,301.60929 C199.511804,303.04679 195.557087,305.450199 193.962717,304.433153 C190.047717,301.927472 207.818413,284.024062 201.979957,277.955881 C197.174152,272.967244 182.331196,280.04679 175.295543,287.393381 C176.095565,285.23429 176.311174,281.257017 173.224565,278.222926 C163.295217,268.467244 134.12563,313.239972 129.053152,309.592244 C126.136761,307.489972 137.501609,294.114972 142.988283,279.342244 L130.91987,279.450199 L129.132587,282.279744 C129.206348,281.535426 128.83187,280.603608 127.782196,279.643381 C114.4485,267.353608 81.369587,302.819517 93.5571522,313.399062 C99.2310652,318.325199 112.717957,312.387699 118.267043,305.052472 C114.539283,313.029744 117.336522,316.205881 118.380522,316.972926 C130.778022,326.035426 157.156043,283.342244 161.655457,287.274062 C164.8215,290.058153 148.514674,313.955881 149.26363,314.529744 L161.496587,314.416108 C166.693891,305.183153 170.512435,297.85929 170.512435,297.85929 C177.383543,289.938835 185.797957,283.603608 187.840565,286.029744 C191.227891,290.075199 173.309674,304.552472 179.170826,313.677472 C181.990761,318.058153 192.998152,312.688835 198.348652,308.586562 C187.579565,331.330881 178.189239,349.739972 175.250152,355.73429 C169.735109,366.961562 158.778783,387.677472 147.62387,408.188835 C128.865913,400.097926 111.401609,389.120653 95.8607609,375.785426 C95.8777826,375.529744 95.8834565,375.262699 95.7359348,375.024062 L91.5826304,368.370653 C91.6280217,368.336562 91.6563913,368.308153 91.7017826,368.268381 C93.6933261,366.438835 95.5316739,364.455881 97.4324348,362.541108 C99.8892391,365.330881 103.98013,369.972926 103.98013,369.972926 C104.451065,370.501335 105.262435,370.552472 105.795783,370.080881 C106.32913,369.614972 106.380196,368.79679 105.909261,368.262699 L99.2594348,360.717244 C100.842457,359.080881 102.431152,357.444517 103.946087,355.745653 C106.731978,358.700199 111.447,363.700199 111.447,363.700199 C111.934957,364.217244 112.752,364.239972 113.268326,363.751335 C113.784652,363.262699 113.807348,362.450199 113.319391,361.927472 L105.619891,353.768381 C107.917826,351.126335 110.232783,348.489972 112.371848,345.717244 C114.9705,349.376335 119.345087,355.535426 119.345087,355.535426 C119.759283,356.114972 120.559304,356.257017 121.143717,355.842244 C121.722457,355.427472 121.85863,354.626335 121.444435,354.04679 L113.95487,343.495653 C116.065565,340.666108 118.142217,337.819517 120.094043,334.85929 C122.465739,337.864972 128.553848,345.580881 128.553848,345.580881 C128.990739,346.132017 129.802109,346.23429 130.363826,345.791108 C130.91987,345.347926 131.016326,344.535426 130.573761,343.978608 L121.574935,332.575199 C123.492717,329.569517 125.291348,326.472926 127.044587,323.353608 L136.701587,332.257017 C137.223587,332.739972 138.04063,332.705881 138.522913,332.183153 C139.005196,331.660426 138.971152,330.842244 138.449152,330.35929 L128.389304,321.075199 C128.451717,320.967244 128.525478,320.85929 128.587891,320.745653 C128.922652,320.120653 128.690022,319.336562 128.060217,319.001335 C127.436087,318.654744 126.658761,318.893381 126.318326,319.524062 C126.159457,319.819517 125.966543,320.086562 125.807674,320.387699 C125.790652,320.399062 125.767957,320.393381 125.756609,320.410426 C125.716891,320.455881 125.733913,320.524062 125.69987,320.563835 C125.541,320.853608 125.359435,321.120653 125.194891,321.410426 L113.086761,320.285426 C112.383196,320.217244 111.753391,320.739972 111.685304,321.450199 C111.622891,322.160426 112.144891,322.785426 112.848457,322.853608 L123.74237,323.864972 C122.340913,326.302472 120.956478,328.751335 119.452891,331.10929 L105.392935,329.455881 C104.68937,329.370653 104.048217,329.876335 103.963109,330.586562 C103.957435,330.637699 103.957435,330.688835 103.957435,330.739972 C103.957435,331.387699 104.439717,331.938835 105.092217,332.018381 C105.092217,332.018381 114.42013,333.114972 117.886891,333.524062 C116.133652,336.177472 114.261261,338.728608 112.377522,341.274062 L112.292413,341.149062 C112.076804,340.853608 111.742043,340.654744 111.373239,340.620653 L97.6366957,339.183153 C96.9274565,339.10929 96.2976522,339.620653 96.2238913,340.330881 C96.2182174,340.376335 96.2182174,340.42179 96.2182174,340.461562 C96.2182174,341.120653 96.7061739,341.67179 97.3700217,341.745653 C97.3700217,341.745653 109.466804,343.012699 110.527826,343.114972 C110.56187,343.17179 110.709391,343.370653 110.7945,343.495653 C108.587348,346.382017 106.221326,349.143381 103.843957,351.882017 L103.58863,351.614972 C103.435435,351.450199 103.242522,351.325199 103.026913,351.262699 L89.8634348,347.257017 C89.1882391,347.04679 88.4676522,347.433153 88.2633913,348.10929 C88.2236739,348.23429 88.2009783,348.364972 88.2009783,348.48429 C88.2009783,349.041108 88.5584348,349.552472 89.1144783,349.717244 C89.1144783,349.717244 101.330413,353.444517 101.954543,353.637699 C101.977239,353.660426 102.107739,353.791108 102.170152,353.85929 C100.672239,355.541108 99.117587,357.166108 97.5572609,358.785426 L97.3246304,358.518381 C97.1657609,358.342244 96.9558261,358.205881 96.7231957,358.143381 L84.9895435,354.700199 C84.3086739,354.501335 83.5937609,354.887699 83.3951739,355.575199 C83.3554565,355.700199 83.3441087,355.819517 83.3441087,355.938835 C83.3441087,356.501335 83.7072391,357.012699 84.2689565,357.177472 C84.2689565,357.177472 94.9699565,360.313835 95.6394783,360.507017 C95.6508261,360.518381 95.7132391,360.580881 95.7302609,360.603608 C93.8862391,362.455881 92.1103043,364.364972 90.1868478,366.143381 L90.0109565,365.853608 C89.8634348,365.620653 89.6421522,365.433153 89.3811522,365.330881 L81.9426522,362.467244 C81.8802391,362.450199 81.8121522,362.489972 81.7440652,362.472926 C74.4417391,354.899062 67.6727609,346.779744 61.6016739,338.120653 L138.579652,192.60929 L120.735196,193.10929 L89.2166087,251.825199 C79.0603043,261.35929 62.5605652,270.10929 53.1305217,263.580881 C34.4122826,250.637699 107.713565,180.529744 80.7341087,157.73429 C59.1959348,139.529744 35.7910435,166.711562 28.3752391,179.597926 C22.3381957,190.097926 10.9903696,206.217244 10.5931957,226.069517 C10.7917826,314.052472 63.9620217,389.558153 139.856283,422.353608 C132.684457,435.370653 125.938174,447.347926 121.104,455.529744 C117.693978,461.302472 115.475478,463.938835 111.424304,463.620653 C110.63563,463.558153 108.950478,463.774062 108.434152,463.98429 C106.402891,464.779744 105.60287,468.325199 105.67663,469.836562 C105.8355,472.961562 108.377413,478.603608 118.494,483.239972 C128.604913,487.882017 134.239109,487.450199 136.854783,485.739972 C138.120065,484.910426 140.514457,482.177472 139.964087,480.069517 C139.827913,479.524062 139.01087,478.029744 138.500217,477.433153 C135.861848,474.330881 136.491652,471.54679 139.147043,465.399062 C142.931543,456.643381 149.490587,443.257017 156.855326,428.819517 C178.1325,435.92179 200.879217,439.830881 224.545109,439.830881 C325.291109,439.830881 409.781348,370.092244 432.499696,276.194517 C433.36213,272.751335 434.281304,268.541108 434.281304,268.541108 L434.281304,268.541108 Z" id="Fill-22" fill="#D72331"></path>
                <path d="M10.5648261,226.433153 C10.5648261,226.308153 10.5931957,226.194517 10.5931957,226.069517 C10.5931957,225.899062 10.5818478,225.73429 10.5818478,225.569517 L10.5648261,226.433153" id="Fill-23" fill="#D72331"></path>
                <path d="M138.869022,291.813835 C138.415109,292.364972 138.500217,293.177472 139.050587,293.626335 L142.193935,296.205881 C142.744304,296.649062 143.555674,296.575199 144.009587,296.018381 C144.457826,295.467244 144.378391,294.660426 143.828022,294.211562 L140.679,291.632017 C140.12863,291.183153 139.317261,291.257017 138.869022,291.813835" id="Fill-24" fill="#D72331"></path>
                <path d="M152.429674,303.274062 C153.025435,303.666108 153.819783,303.489972 154.205609,302.887699 C154.591435,302.291108 154.415543,301.489972 153.819783,301.10929 L150.971478,299.279744 C150.370043,298.893381 149.575696,299.069517 149.18987,299.67179 C148.809717,300.268381 148.985609,301.063835 149.58137,301.444517 L152.429674,303.274062" id="Fill-25" fill="#D72331"></path>
                <path d="M147.402587,317.847926 C147.879196,317.313835 147.839478,316.507017 147.311804,316.029744 L141.30313,310.580881 C140.769783,310.103608 139.958413,310.143381 139.481804,310.67179 C139.005196,311.200199 139.044913,312.024062 139.572587,312.495653 L145.581261,317.938835 C146.108935,318.416108 146.925978,318.376335 147.402587,317.847926" id="Fill-26" fill="#D72331"></path>
                <path d="M320.241326,307.075199 C320.950565,307.007017 321.461217,306.370653 321.39313,305.666108 C321.31937,304.955881 320.689565,304.444517 319.986,304.512699 L314.261022,305.086562 C313.557457,305.154744 313.035457,305.785426 313.103543,306.495653 C313.182978,307.205881 313.812783,307.722926 314.516348,307.649062 L320.241326,307.075199" id="Fill-27" fill="#D72331"></path>
                <path d="M329.796196,198.48429 L325.007413,196.541108 L320.576087,199.524062 L320.876804,194.114972 L316.581652,191.012699 L321.739239,189.552472 L323.396022,184.717244 L326.465609,189.120653 L331.594826,189.154744 L328.428783,193.433153 L329.796196,198.48429 L329.796196,198.48429 Z M304.757217,170.688835 L300.184043,178.291108 L296.853457,169.944517 L288.212087,168.302472 L294.952696,162.472926 L294.056217,154.035426 L301.755717,158.501335 L309.500609,154.961562 L307.741696,163.614972 L313.319152,170.251335 L304.757217,170.688835 L304.757217,170.688835 Z M273.085435,160.319517 L266.71363,156.092244 L259.870891,159.132017 L261.765978,151.785426 L257.050957,146.313835 L264.608609,145.705881 L268.319348,139.461562 L271.275457,146.376335 L278.396217,148.313835 L272.608826,152.779744 L273.085435,160.319517 L273.085435,160.319517 Z M244.375435,154.353608 L239.654739,152.563835 L235.688674,155.524062 L235.836196,150.512699 L232.006304,147.67179 L236.783739,146.177472 L238.258957,141.614972 L241.169674,145.637699 L246.037891,145.842244 L242.968304,149.563835 L244.375435,154.353608 L244.375435,154.353608 Z M284.38787,174.336562 C294.686022,179.495653 308.13887,189.518381 323.010196,206.427472 L338.74963,197.399062 C334.460152,170.467244 319.441304,152.018381 298.691804,140.813835 C270.515152,125.597926 239.030609,133.364972 226.014652,142.387699 L227.160783,157.717244 C250.049348,158.864972 274.084043,169.177472 284.38787,174.336562 L284.38787,174.336562 Z" id="Fill-28" fill="#253666"></path>
                <path d="M227.69413,240.177472 C219.1095,235.597926 204.147391,230.660426 196.220935,227.575199 C185.917109,223.563835 167.476891,209.353608 169.893978,190.035426 C173.905435,157.972926 234.077283,168.529744 274.044326,188.603608 C291.361109,197.302472 314.544717,214.17179 325.937935,225.177472 C338.999283,237.79679 341.28587,242.024062 342.14263,255.364972 C342.182348,263.524062 339.918457,270.870653 337.149587,276.694517 C339.124109,275.291108 344.497304,273.092244 344.656174,272.893381 C344.832065,272.154744 344.928522,270.694517 344.928522,270.694517 C350.659174,243.762699 338.999283,221.842244 329.841587,213.245653 C320.905174,204.85929 325.160609,211.126335 328.128065,214.967244 C330.233087,217.694517 331.243043,219.29679 332.133848,220.98429 C336.786457,229.825199 334.579304,228.728608 328.406087,222.416108 C316.252565,209.972926 295.071848,194.194517 275.621674,184.450199 C249.062087,171.149062 216.533543,164.825199 198.507522,165.393381 C205.946022,161.955881 210.031239,161.586562 217.679674,160.813835 C224.454326,160.126335 221.798935,158.779744 217.679674,159.092244 C203.194174,160.200199 170.92663,160.705881 165.888196,186.024062 C161.610065,207.524062 179.051674,225.853608 195.931565,232.444517 C210.428413,238.103608 225.725283,244.819517 226.094087,244.98429 C226.179196,244.757017 226.264304,244.535426 226.349413,244.308153 L227.69413,240.177472" id="Fill-31" fill="#253666"></path>
                <path d="M118.051435,466.239972 C118.72663,466.075199 119.259978,465.438835 120.111065,464.489972 C121.535217,462.910426 123.265761,460.478608 123.753717,457.989972 C124.07713,456.910426 123.418957,457.416108 123.174978,457.916108 C122.931,458.416108 118.420239,464.149062 116.048543,464.762699 C115.719457,464.853608 115.554913,464.688835 115.560587,465.518381 C115.730804,466.007017 116.354935,466.637699 118.051435,466.239972" id="Fill-32" fill="#FFFFFF"></path>
                <path d="M135.867522,445.132017 C137.047696,442.558153 139.731457,437.427472 142.693239,431.870653 C136.253348,443.711562 128.77513,456.808153 124.253022,462.654744 C124.026065,462.950199 123.810457,463.222926 123.594848,463.478608 C123.373565,463.785426 122.806174,464.063835 122.584891,464.29679 C122.323891,464.575199 122.414674,464.79679 122.25013,464.955881 C122.102609,465.120653 122.329565,465.274062 122.221761,465.433153 C122.091261,465.632017 121.637348,465.819517 121.472804,466.007017 C121.098326,466.416108 121.228826,466.785426 120.911087,467.086562 C120.355043,467.626335 119.469913,467.961562 119.469913,467.961562 C118.476978,468.137699 118.823087,469.461562 119.651478,469.779744 C120.111065,469.955881 120.564978,470.251335 121.024565,470.524062 C121.39337,470.745653 121.767848,470.893381 122.142326,471.410426 C122.443043,471.825199 121.955087,472.42179 121.921043,472.989972 C121.892674,473.427472 122.074239,473.847926 121.750826,474.166108 C121.308261,474.597926 120.338022,474.819517 119.532326,474.586562 C118.567761,474.29679 117.330848,473.552472 116.184717,473.007017 C114.766239,472.319517 113.50663,471.85929 113.1435,471.910426 C112.814413,471.955881 112.07113,472.143381 111.844174,472.48429 C111.690978,472.711562 111.617217,473.007017 112.048435,473.370653 C112.235674,473.529744 112.825761,473.876335 113.160522,474.063835 C113.682522,474.35929 114.142109,474.842244 114.800283,475.17179 C115.061283,475.308153 115.299587,475.086562 115.537891,475.188835 C115.85563,475.330881 116.17337,475.808153 116.542174,475.989972 C116.973391,476.205881 117.563478,476.575199 117.966326,476.757017 C118.233,476.870653 118.499674,477.382017 118.743652,477.54679 C118.896848,477.649062 119.04437,477.416108 119.186217,477.48429 C119.6685,477.728608 120.082696,477.802472 120.389087,478.04679 C120.922435,478.478608 121.557913,478.927472 122.170696,479.160426 C123.169304,479.529744 124.122522,479.154744 124.514022,477.347926 C125.1495,474.444517 125.943848,471.126335 126.585,468.893381 C126.7155,468.416108 127.061609,467.416108 127.543891,466.063835 C127.640348,465.808153 127.407717,465.535426 127.509848,465.251335 C129.42763,459.950199 133.376674,450.558153 135.867522,445.132017" id="Fill-33" fill="#FFFFFF"></path>
                <path d="M264.330587,227.489972 C264.330587,227.489972 266.11787,224.535426 266.038435,224.700199 C261.561717,218.563835 253.221065,215.137699 245.623696,215.376335 C244.988217,218.35929 217.600239,285.48429 209.157457,301.779744 C201.117522,317.291108 179.420478,361.149062 176.169326,367.132017 C178.688543,362.268381 253.845196,234.086562 260.642543,222.353608 C260.642543,222.353608 262.639761,223.489972 262.327696,225.149062 C255.479283,235.472926 212.516413,307.705881 208.947522,314.694517 C205.372957,321.677472 179.511261,365.944517 163.272522,397.541108 C163.272522,397.541108 228.99913,285.376335 231.603457,280.717244 C234.168065,276.126335 262.611391,230.120653 264.330587,227.489972" id="Fill-34" fill="#FFFFFF"></path>
                <path d="M145.184087,438.649062 C144.996848,438.944517 144.792587,439.217244 144.599674,439.524062 C144.525913,439.649062 144.616696,439.85929 144.559957,439.995653 C144.378391,440.399062 144.106043,440.762699 143.947174,441.177472 C143.890435,441.319517 143.981217,441.529744 143.907457,441.649062 C143.408152,442.467244 143.266304,443.285426 142.66487,444.018381 C142.579761,444.120653 142.681891,444.347926 142.613804,444.478608 C142.568413,444.569517 142.358478,444.586562 142.335783,444.666108 C142.023717,445.791108 141.218022,446.518381 140.70737,447.501335 C140.639283,447.632017 140.684674,447.819517 140.684674,447.98429 C140.525804,447.938835 140.406652,448.024062 140.372609,448.154744 C140.2875,448.569517 140.122957,448.927472 139.986783,449.29679 C139.878978,449.597926 139.53287,449.893381 139.470457,450.17179 C139.311587,450.791108 138.698804,451.160426 138.738522,451.813835 C138.250565,451.978608 138.409435,452.149062 138.392413,452.308153 C138.381065,452.455881 138.244891,452.592244 138.148435,452.700199 C137.734239,453.143381 137.535652,453.757017 137.354087,454.330881 C137.200891,454.819517 136.815065,455.177472 136.639174,455.643381 C136.60513,455.739972 136.66187,455.876335 136.610804,455.955881 C136.457609,456.200199 136.758326,456.444517 136.707261,456.654744 C136.639174,456.910426 136.043413,457.336562 135.935609,457.563835 C135.87887,457.688835 135.810783,457.637699 135.74837,457.751335 C135.118565,458.774062 135.266087,459.779744 134.721391,460.802472 C134.624935,460.978608 134.273152,461.279744 134.159674,461.42179 C133.427739,462.364972 133.614978,463.563835 132.905739,464.444517 C133.024891,464.944517 132.61637,465.29679 132.553957,465.762699 C132.542609,465.893381 132.639065,465.98429 132.622043,466.10929 C132.576652,466.535426 132.423457,466.882017 132.349696,467.279744 C132.066,468.745653 131.816348,470.10929 131.4135,471.660426 C131.107109,472.808153 130.335457,473.319517 130.187935,474.563835 C130.148217,474.927472 130.482978,474.938835 130.505674,475.063835 C130.539717,475.251335 130.573761,475.427472 130.709935,475.535426 C130.834761,475.632017 130.970935,475.512699 131.010652,475.382017 C131.317043,474.438835 131.345413,473.774062 131.770957,472.864972 C131.941174,472.501335 131.402152,471.995653 131.532652,471.592244 C131.912804,470.370653 133.246174,469.302472 133.60363,468.075199 C134.18237,467.847926 133.694413,467.205881 133.927043,466.751335 C133.989457,466.626335 134.114283,466.60929 134.233435,466.552472 C134.454717,466.450199 134.017826,466.126335 134.114283,465.938835 C134.415,465.364972 135.044804,464.830881 135.424957,464.285426 C135.680283,463.92179 135.986674,463.586562 136.13987,463.228608 C136.40087,462.597926 136.764,462.200199 136.764,461.592244 C136.769674,460.882017 137.552674,460.302472 137.51863,459.597926 C137.507283,459.416108 137.728565,459.251335 137.768283,459.092244 C137.972543,458.17179 138.069,457.308153 138.409435,456.433153 C138.528587,456.143381 138.443478,455.785426 138.443478,455.455881 C138.88037,455.495653 138.386739,454.944517 138.766891,454.955881 C138.647739,454.54679 138.869022,454.132017 139.005196,453.830881 C139.555565,452.643381 139.986783,451.35929 140.247783,449.98429 C140.304522,449.67179 140.571196,449.438835 140.679,449.137699 C140.735739,448.989972 140.639283,448.762699 140.718717,448.67179 C140.934326,448.438835 141.04213,448.154744 141.3315,447.950199 C141.382565,447.92179 141.320152,447.751335 141.35987,447.654744 C141.49037,447.274062 141.966978,447.10929 142.029391,446.654744 C142.040739,446.580881 142.267696,446.552472 142.301739,446.472926 C142.73863,445.342244 143.237935,444.444517 143.527304,443.302472 C143.6805,442.67179 144.520239,442.200199 144.4635,441.495653 C144.4635,441.444517 144.701804,441.404744 144.730174,441.313835 C144.95713,440.580881 144.923087,439.961562 145.371326,439.319517 C145.450761,439.194517 145.365652,438.995653 145.411043,438.842244 C145.445087,438.705881 145.978435,438.683153 146.006804,438.637699 C146.375609,438.058153 146.108935,437.154744 146.284826,436.54679 C145.910348,437.308153 145.541543,438.075199 145.184087,438.649062" id="Fill-35" fill="#FFFFFF"></path>
                <path d="M250.906109,258.143381 C251.96713,256.535426 268.733543,231.529744 268.818652,230.387699 C268.909435,229.097926 267.967565,227.580881 267.468261,227.17179 C266.628522,228.512699 257.249543,243.67179 249.09613,256.364972 C213.963261,313.433153 152.372935,422.614972 148.792696,431.029744 C148.656522,431.353608 147.879196,433.518381 147.748696,433.813835 C147.555783,434.228608 147.839478,433.944517 147.521739,434.370653 C147.107543,434.910426 146.716043,435.677472 146.335891,436.444517 C146.494761,436.143381 147.056478,435.972926 147.243717,435.722926 C147.385565,435.54679 147.351522,435.313835 147.510391,435.177472 C147.550109,435.143381 147.470674,435.069517 147.476348,435.058153 C147.56713,434.836562 147.584152,434.711562 147.771391,434.535426 C147.862174,434.455881 147.913239,434.291108 147.873522,434.137699 C147.992674,434.239972 147.913239,433.955881 148.038065,434.058153 C148.032391,433.967244 148.032391,433.893381 148.032391,433.808153 L148.236652,433.433153 C152.747413,424.961562 212.573152,316.54679 250.906109,258.143381" id="Fill-36" fill="#FFFFFF"></path>
                <path d="M240.948391,219.387699 L239.297283,219.739972 C237.935543,224.808153 224.61887,267.154744 197.089043,319.597926 C202.348761,312.35929 228.08563,258.257017 240.948391,219.387699" id="Fill-37" fill="#FFFFFF"></path>
                <path d="M154.466609,410.035426 C154.625478,409.541108 155.760261,407.291108 154.460935,409.54679 C153.450978,411.552472 150.761543,416.779744 147.323152,423.262699 C151.136022,416.211562 154.387174,410.268381 154.466609,410.035426" id="Fill-38" fill="#FFFFFF"></path>
            </g>
        </g>
    </g>
</svg>