<?xml version="1.0" encoding="UTF-8" standalone="no"?>
<svg width="500px" height="500px" viewBox="0 0 500 500" version="1.1" xmlns="http://www.w3.org/2000/svg" xmlns:xlink="http://www.w3.org/1999/xlink">
    <!-- Generator: Sketch 39.1 (31720) - http://www.bohemiancoding.com/sketch -->
    <title>OAK</title>
    <desc>Created with Sketch.</desc>
    <defs></defs>
    <g id="MLB" stroke="none" stroke-width="1" fill="none" fill-rule="evenodd">
        <g id="OAK">
            <g transform="translate(0.000000, 1.000000)">
                <g id="Group-3" fill="#FFFFFF">
                    <path d="M249.286772,499 C386.957884,499 498.573545,387.294607 498.573545,249.505154 C498.573545,111.709488 386.957884,0.00409522799 249.286772,0.00409522799 C111.615661,0.00409522799 0,111.709488 0,249.505154 C0,387.294607 111.615661,499 249.286772,499" id="Fill-1"></path>
                </g>
                <path d="M249.280564,391.998189 C170.772769,391.998189 106.909912,328.080435 106.909912,249.505154 C106.909912,170.929874 170.772769,107.005907 249.280564,107.005907 C327.78836,107.005907 391.663633,170.929874 391.663633,249.505154 C391.663633,328.080435 327.78836,391.998189 249.280564,391.998189 L249.280564,391.998189 Z M249.280564,16.7555547 C121.051993,16.7555547 16.7370723,121.166358 16.7370723,249.505154 C16.7370723,377.850164 121.051993,482.254754 249.280564,482.254754 C377.515344,482.254754 481.836473,377.850164 481.836473,249.505154 C481.836473,121.166358 377.515344,16.7555547 249.280564,16.7555547 L249.280564,16.7555547 Z" id="Fill-4" fill="#143C31"></path>
                <path d="M249.280564,482.254754 C121.051993,482.254754 16.7370723,377.850164 16.7370723,249.505154 C16.7370723,121.166358 121.051993,16.7555547 249.280564,16.7555547 C377.515344,16.7555547 481.836473,121.166358 481.836473,249.505154 C481.836473,377.850164 377.515344,482.254754 249.280564,482.254754 L249.280564,482.254754 Z M249.280564,9.67222243 C117.159506,9.67222243 9.66603175,117.264312 9.66603175,249.505154 C9.66603175,381.745997 117.159506,489.338086 249.280564,489.338086 C381.407831,489.338086 488.907513,381.745997 488.907513,249.505154 C488.907513,117.264312 381.407831,9.67222243 249.280564,9.67222243 L249.280564,9.67222243 Z" id="Fill-5" fill="#F2AF35"></path>
                <path d="M249.280564,113.660511 C174.441764,113.660511 113.558801,174.602022 113.558801,249.505154 C113.558801,324.402073 174.441764,385.343584 249.280564,385.343584 C324.125573,385.343584 385.008536,324.402073 385.008536,249.505154 C385.008536,174.602022 324.125573,113.660511 249.280564,113.660511" id="Fill-6" fill="#FFFFFF"></path>
                <path d="M249.280564,385.343584 C174.441764,385.343584 113.558801,324.402073 113.558801,249.505154 C113.558801,174.602022 174.441764,113.660511 249.280564,113.660511 C324.125573,113.660511 385.008536,174.602022 385.008536,249.505154 C385.008536,324.402073 324.125573,385.343584 249.280564,385.343584 L249.280564,385.343584 Z M249.280564,107.005907 C170.772769,107.005907 106.909912,170.929874 106.909912,249.505154 C106.909912,328.080435 170.772769,391.998189 249.280564,391.998189 C327.78836,391.998189 391.663633,328.080435 391.663633,249.505154 C391.663633,170.929874 327.78836,107.005907 249.280564,107.005907 L249.280564,107.005907 Z" id="Fill-7" fill="#F2AF35"></path>
                <path d="M224.671605,261.335562 L244.146455,193.975557 L259.573616,261.335562 L224.671605,261.335562 L224.671605,261.335562 Z M325.15612,303.543523 C321.418836,306.24016 317.0297,308.060701 312.870265,307.290233 C309.524092,306.687529 305.017002,304.227003 302.484092,295.8637 C302.484092,295.8637 274.969735,181.815837 274.920071,181.554872 C272.834145,167.692667 265.489947,160.074978 259.679153,156.135651 C252.229418,151.07169 242.923457,149.182801 234.797037,151.077903 C222.101446,154.041718 217.401905,160.640402 215.645009,165.803778 C220.97157,163.150635 226.583704,164.337404 230.122328,166.63638 C232.388289,168.028193 237.68381,171.302681 234.19485,180.684989 L229.296649,193.546829 L226.664409,192.788789 C223.715556,191.943759 220.636332,191.78221 217.513651,192.316566 C212.143633,193.229943 208.387725,195.342516 206.33284,198.579723 C205.04776,200.611521 204.656649,202.804869 204.544903,204.755892 C209.014744,202.245658 213.53425,202.960205 216.774885,205.066565 C219.071887,206.557792 221.083316,208.527456 221.083316,212.572411 C221.083316,213.877236 220.878448,215.405744 220.388007,217.195218 L191.16642,315.131606 L189.707513,315.616256 C174.764586,320.630509 170.747937,328.888183 169.742222,334.182042 C174.298977,331.56618 181.636966,328.217131 191.930018,327.191912 C196.201199,326.769397 201.347725,328.080435 206.320423,329.341765 C210.349489,330.360771 214.515132,331.417057 217.544691,331.348709 C221.362681,331.249294 224.268078,330.1433 226.173968,328.055581 C228.154356,325.911941 228.682046,323.103462 228.750335,320.736138 C227.05552,319.791694 224.038377,318.107849 221.3006,316.566913 C220.64254,317.523784 219.829277,318.325319 218.835979,318.88453 C217.215661,319.80412 214.378554,320.555948 210.150829,318.909384 L207.611711,317.915232 L219.140176,277.695574 L261.678166,277.695574 L263.981376,277.63344 L271.623563,307.551198 C276.739048,328.384894 291.862011,333.374294 303.260106,331.317642 C314.105679,329.366619 321.896861,318.822395 325.15612,303.543523 L325.15612,303.543523 Z" id="Fill-8" fill="#143C31"></path>
                <path d="M232.605573,255.364437 C234.070688,250.300476 239.856649,230.268315 243.475979,217.760642 C246.368959,230.405011 250.969171,250.493093 252.086631,255.364437 L232.605573,255.364437 L232.605573,255.364437 Z M240.949277,205.035497 L224.671605,261.335562 L259.573616,261.335562 L244.146455,193.975557 L240.949277,205.035497 L240.949277,205.035497 Z" id="Fill-9" fill="#F2AF35"></path>
                <path d="M271.623563,307.551198 L263.981376,277.63344 L261.678166,277.695574 L219.140176,277.695574 L207.611711,317.915232 L210.150829,318.909384 C214.378554,320.555948 217.215661,319.80412 218.835979,318.88453 C219.829277,318.325319 220.64254,317.523784 221.3006,316.566913 C224.038377,318.107849 227.05552,319.791694 228.750335,320.736138 C228.682046,323.103462 228.154356,325.911941 226.173968,328.055581 C224.268078,330.1433 221.362681,331.249294 217.544691,331.348709 C214.515132,331.417057 210.349489,330.360771 206.320423,329.341765 C201.347725,328.080435 196.201199,326.769397 191.930018,327.191912 C181.636966,328.217131 174.298977,331.56618 169.742222,334.182042 C170.747937,328.888183 174.764586,320.630509 189.707513,315.616256 L191.16642,315.131606 L220.388007,217.195218 C220.878448,215.405744 221.083316,213.877236 221.083316,212.572411 C221.083316,208.527456 219.071887,206.557792 216.774885,205.066565 C213.53425,202.960205 209.014744,202.245658 204.544903,204.755892 C204.656649,202.804869 205.04776,200.611521 206.33284,198.579723 C208.387725,195.342516 212.143633,193.229943 217.513651,192.316566 C220.636332,191.78221 223.715556,191.943759 226.664409,192.788789 L229.296649,193.546829 L234.19485,180.684989 C237.68381,171.302681 232.388289,168.028193 230.122328,166.63638 C226.583704,164.337404 220.97157,163.150635 215.645009,165.803778 C217.401905,160.640402 222.101446,154.041718 234.797037,151.077903 C242.923457,149.182801 252.229418,151.07169 259.679153,156.135651 C265.489947,160.074978 272.834145,167.692667 274.920071,181.554872 C274.969735,181.815837 302.484092,295.8637 302.484092,295.8637 C305.017002,304.227003 309.524092,306.687529 312.870265,307.290233 C317.0297,308.060701 321.418836,306.24016 325.15612,303.543523 C321.896861,318.822395 314.105679,329.366619 303.260106,331.317642 C291.862011,333.374294 276.739048,328.384894 271.623563,307.551198 L271.623563,307.551198 Z M326.168042,294.490528 C323.18194,298.380147 317.880212,302.139284 313.93806,301.418524 C311.454815,300.971155 309.524092,298.56655 308.226596,294.297911 C308.263845,294.44082 280.768113,180.411597 280.768113,180.411597 C278.949136,168.189743 272.623069,157.72008 263.031534,151.195959 C254.22843,145.21862 243.159365,143.000419 233.449877,145.268328 C206.283175,151.61226 208.698131,173.259917 208.722963,173.483601 L209.660388,180.939741 L214.080564,174.869201 C218.593862,168.674392 224.125291,169.86116 226.422293,171.352388 C228.14194,172.421102 229.395979,173.191569 229.395979,175.17366 C229.395979,176.037329 229.153862,177.130896 228.619965,178.57863 C228.619965,178.57863 226.577496,183.94705 225.540741,186.662327 C222.579471,186.152825 219.574744,185.916714 216.507937,186.43243 C209.381023,187.656479 204.253122,190.682429 201.254603,195.448145 C196.704056,202.705454 199.063139,211.174385 199.162469,211.528552 L200.745538,217.027455 L204.346243,212.591052 C208.263563,207.750775 211.783563,208.937543 213.540459,210.074605 C214.955908,210.994195 215.738131,211.509911 214.664127,215.573507 C214.682751,215.505159 189.701305,299.225176 186.311675,310.589575 C165.86836,318.120276 163.478236,331.963841 163.478236,337.692641 C163.478236,339.25843 163.645855,340.215302 163.652063,340.265009 L164.601905,345.192275 L168.481975,341.992348 C168.568889,341.930214 177.595485,334.616984 192.519788,333.131969 C195.754215,332.815083 200.373051,333.983212 204.855309,335.120273 C209.275485,336.251121 213.844656,337.413036 217.699894,337.307407 C223.113369,337.170711 227.570794,335.362598 230.563104,332.094323 C233.605079,328.788768 235.045362,324.197029 234.741164,318.834822 L234.641834,317.194472 L217.668854,307.700321 L216.942504,311.832265 C216.849383,312.360408 216.588642,313.298639 215.911958,313.690086 C215.669841,313.820569 215.340811,313.870276 214.962116,313.888917 C216.340317,309.110774 222.641552,287.121377 223.628642,283.666699 L259.374956,283.666699 C260.324797,287.363701 265.837601,308.980292 265.837601,308.980292 C271.536649,332.231019 289.279436,339.904629 304.315485,337.189352 C320.003386,334.368446 330.892416,318.238331 332.72381,295.087019 L332.978342,291.868452 L329.750123,291.868452 C328.185679,291.868452 327.471746,292.800469 326.168042,294.490528 L326.168042,294.490528 Z" id="Fill-10" fill="#F2AF35"></path>
                <path d="M337.075697,218.133449 C337.075697,218.133449 333.568113,217.077162 333.51224,217.064735 C330.836543,216.194852 325.857637,214.585569 325.857637,209.844707 C325.857637,205.656842 330.004656,203.146609 334.021305,203.146609 C336.83358,203.146609 339.608607,204.215322 342.191182,205.768684 C343.221728,203.749313 344.370229,201.524898 345.444233,199.443393 C341.328254,197.52965 336.399012,196.199972 332.053333,196.199972 C322.511464,196.199972 316.110899,202.413422 316.110899,211.665248 C316.110899,219.99127 319.76127,221.867732 329.191393,224.551942 C332.537566,225.490173 338.745679,227.254792 338.745679,232.648066 C338.745679,237.127963 335.076684,240.259542 329.805996,240.259542 C326.006631,240.259542 322.256931,238.550843 318.451358,235.773431 C317.290441,237.948139 315.906032,240.570214 314.813404,242.620652 C319.599859,245.547187 324.963668,247.355301 330.296437,247.355301 C335.641623,247.355301 340.459118,245.777085 343.830123,242.912685 C346.921764,240.278182 348.498624,236.071677 348.498624,230.405011 C348.498624,224.166708 345.09037,220.494559 337.075697,218.133449" id="Fill-11" fill="#143C31"></path>
                <path d="M343.830123,242.912685 C340.459118,245.777085 335.641623,247.355301 330.296437,247.355301 C324.963668,247.355301 319.599859,245.547187 314.813404,242.620652 C315.906032,240.570214 317.290441,237.948139 318.451358,235.773431 C322.256931,238.550843 326.006631,240.259542 329.805996,240.259542 C335.076684,240.259542 338.745679,237.127963 338.745679,232.648066 C338.745679,227.254792 332.537566,225.490173 329.191393,224.551942 C319.76127,221.867732 316.110899,219.99127 316.110899,211.665248 C316.110899,202.413422 322.511464,196.199972 332.053333,196.199972 C336.399012,196.199972 341.328254,197.52965 345.444233,199.443393 C344.370229,201.524898 343.221728,203.749313 342.191182,205.768684 C339.608607,204.215322 336.83358,203.146609 334.021305,203.146609 C330.004656,203.146609 325.857637,205.656842 325.857637,209.844707 C325.857637,214.585569 330.836543,216.194852 333.51224,217.064735 C333.568113,217.077162 337.075697,218.133449 337.075697,218.133449 C345.09037,220.494559 348.498624,224.166708 348.498624,230.405011 C348.498624,236.071677 346.921764,240.278182 343.830123,242.912685 L343.830123,242.912685 Z M338.385608,213.765394 L334.878025,212.715321 C333.232875,212.174751 330.408183,211.267587 330.408183,209.844707 C330.408183,208.521242 332.506526,207.70728 334.021305,207.70728 C336.647337,207.70728 339.360282,208.763567 341.6697,210.683523 L343.854956,212.504063 L351.627513,197.368101 L349.721623,196.286961 C344.748924,193.466055 337.808254,191.6393 332.053333,191.6393 C319.978554,191.6393 311.554145,199.878334 311.554145,211.665248 C311.554145,224.266123 320.028219,226.676941 327.508995,228.801941 C330.141235,229.547555 334.188924,230.703257 334.188924,232.648066 C334.188924,235.618095 330.259189,235.705083 329.805996,235.705083 C326.379118,235.705083 322.877743,234.102013 319.10321,230.796458 L316.948995,228.901356 L308.77291,244.304497 L310.424268,245.460199 C316.3406,249.616996 323.399224,251.909759 330.296437,251.909759 C336.721834,251.909759 342.582293,249.952523 346.772769,246.386003 C350.944621,242.838123 353.049171,237.469703 353.049171,230.405011 C353.049171,219.376138 344.674427,215.623215 338.385608,213.765394 L338.385608,213.765394 Z" id="Fill-12" fill="#F2AF35"></path>
                <path d="M297.890088,198.629431 C299.268289,198.548656 301.329383,198.424387 302.527549,200.083378 C303.005573,200.754431 303.185608,201.506258 303.185608,202.264299 C303.185608,203.357866 302.806914,204.470073 302.459259,205.339956 C301.670829,207.290979 300.94448,208.353479 300.18709,209.27307 C301.093474,208.738713 302.030899,208.154649 302.496508,207.756988 C304.675556,205.874313 306.662152,202.655746 306.662152,198.797194 C306.662152,197.299753 306.376578,195.715323 305.68127,194.062546 C304.750053,191.869198 302.664127,191.24164 301.509418,191.06145 C299.485573,190.756991 297.331358,191.334841 296.381517,192.453262 C294.928818,194.174388 294.885362,196.23104 295.48134,197.417808 C295.903492,198.287691 296.636049,198.697779 297.890088,198.629431" id="Fill-13" fill="#143C31"></path>
                <path d="M296.381517,192.453262 C297.331358,191.334841 299.485573,190.756991 301.509418,191.06145 C302.664127,191.24164 304.750053,191.869198 305.68127,194.062546 C306.376578,195.715323 306.662152,197.299753 306.662152,198.797194 C306.662152,202.655746 304.675556,205.874313 302.496508,207.756988 C302.030899,208.154649 301.093474,208.738713 300.18709,209.27307 C300.94448,208.353479 301.670829,207.290979 302.459259,205.339956 C302.806914,204.470073 303.185608,203.357866 303.185608,202.264299 C303.185608,201.506258 303.005573,200.754431 302.527549,200.083378 C301.329383,198.424387 299.268289,198.548656 297.890088,198.629431 C296.636049,198.697779 295.903492,198.287691 295.48134,197.417808 C294.885362,196.23104 294.928818,194.174388 296.381517,192.453262 L296.381517,192.453262 Z M297.88388,203.190103 C297.970794,203.190103 298.188078,203.183889 298.368113,203.183889 C298.31224,203.376506 298.231534,203.625044 298.231534,203.625044 C296.940247,206.837398 296.406349,207.079722 294.966067,207.732134 L292.48903,208.856769 L293.469912,211.360789 L296.43739,215.660496 L297.939753,215.318756 C300.18709,214.809253 304.141658,212.3363 305.45157,211.224093 C309.9897,207.30962 313.093757,199.946682 309.871746,192.291713 C308.568042,189.203628 305.768183,187.109696 302.204727,186.562912 C298.554356,185.997488 294.916402,187.15319 292.91739,189.508087 C290.48381,192.366274 289.869206,196.361522 291.396402,199.443393 C292.650441,201.941199 295.071605,203.351652 297.88388,203.190103 L297.88388,203.190103 Z" id="Fill-14" fill="#F2AF35"></path>
                <path d="M103.216085,356.357843 L108.747513,350.809233 L108.6606,350.691177 L101.701305,354.24527 L89.2602469,360.266103 L93.829418,366.622461 L103.216085,356.357843 L103.216085,356.357843 Z M123.019965,348.15609 L89.4651146,388.966025 L82.5492769,379.353819 L88.3104056,372.624653 L81.7360141,363.490883 L73.5785538,366.88964 L67.1345326,357.936059 L116.191041,338.643299 L123.019965,348.15609 L123.019965,348.15609 Z" id="Fill-15" fill="#FFFFFF"></path>
                <polyline id="Fill-16" fill="#FFFFFF" points="156.270617 380.764272 150.124586 387.971873 143.426032 382.261713 116.433157 413.919238 107.990123 406.705423 134.989206 375.054112 128.358942 369.39366 134.511182 362.173632 156.270617 380.764272"></polyline>
                <polyline id="Fill-17" fill="#FFFFFF" points="177.434074 392.787297 169.152451 410.974063 179.383422 415.65279 187.665044 397.459811 197.765644 402.07019 176.589771 448.565432 166.489171 443.955052 175.447478 424.283271 165.216508 419.610758 156.245785 439.294965 146.151393 434.678372 167.339683 388.176917 177.434074 392.787297"></polyline>
                <path d="M217.886138,448.820183 L217.861305,448.807756 L217.886138,448.820183 L217.886138,448.820183 Z M229.321481,450.702858 L229.309065,450.771206 L229.315273,450.702858 L229.321481,450.702858 L229.321481,450.702858 Z M227.831534,459.923617 C227.992945,459.146936 229.35873,450.678004 229.35873,450.678004 L229.321481,450.678004 L229.309065,450.678004 C228.980035,450.584803 217.867513,448.782902 217.867513,448.782902 C217.892346,448.782902 224.535026,407.743069 224.535026,407.743069 L224.547443,407.705789 L213.565291,405.922529 L213.559083,405.953596 L213.552875,405.953596 L213.50321,406.295336 C212.857566,410.073113 205.358166,456.394378 205.358166,456.394378 C205.382998,456.425445 227.806702,460.066526 227.806702,460.066526 L227.81291,460.047886 L227.831534,459.923617 L227.831534,459.923617 Z" id="Fill-18" fill="#FFFFFF"></path>
                <polyline id="Fill-19" fill="#FFFFFF" points="268.445009 408.762075 268.941658 418.237585 257.704974 418.821649 258.282328 429.925083 268.17806 429.403154 268.662293 438.878664 258.772769 439.388167 259.36254 450.907902 270.748219 450.311411 271.244868 459.786921 248.777707 460.95505 246.126843 409.90535 268.445009 408.762075"></polyline>
                <polyline id="Fill-20" fill="#FFFFFF" points="308.568042 398.491243 311.318236 407.569093 302.91866 410.129034 315.030688 449.951031 304.408607 453.175811 292.296578 413.372454 283.965291 415.907542 281.202681 406.829692 308.568042 398.491243"></polyline>
                <polyline id="Fill-21" fill="#FFFFFF" points="331.084868 386.604914 355.954568 431.236121 346.263704 436.648036 321.387795 392.023042 331.084868 386.604914"></polyline>
                <path d="M331.060035,386.573847 L321.375379,391.985762 C321.375379,392.060323 346.238871,436.654249 346.238871,436.654249 C346.27612,436.672889 355.966984,431.260975 355.966984,431.260975 C355.966984,431.192627 331.1097,386.586274 331.1097,386.586274 L331.084868,386.56142 L331.060035,386.573847" id="Fill-22" fill="#FFFFFF"></path>
                <path d="M371.872169,366.672169 C370.58709,367.355648 369.451005,368.095049 368.395626,369.027066 C361.082469,375.507694 363.242892,384.368073 368.451499,390.245996 C373.473862,395.931302 382.848113,400.12538 390.099189,393.713101 C391.154568,392.762443 392.005079,391.575674 392.79351,390.326771 L399.113369,397.484664 C398.293898,399.031813 397.188854,400.373918 395.847901,401.554474 C383.853827,412.179472 368.507372,408.209078 359.629771,398.155717 C351.236402,388.661566 349.535379,372.792417 360.865185,362.763909 C362.299259,361.477725 363.931993,360.489787 365.726138,359.713106 L371.872169,366.672169" id="Fill-23" fill="#FFFFFF"></path>
                <path d="M395.419541,338.01574 C392.706596,338.873197 389.919153,340.30229 388.193298,342.82495 C386.268783,345.664497 386.604021,348.51647 389.186596,350.274876 C396.121058,355.009524 406.041623,341.308869 417.445926,349.100534 C424.945326,354.220416 427.360282,362.81983 421.481199,371.444098 C419.705679,374.028893 416.800282,376.731743 413.975591,377.868805 L406.029206,372.450677 C408.841481,371.2142 411.169524,369.729186 413.013333,367.013909 C415.037178,364.06252 414.844727,360.496 412.044868,358.588471 C408.804233,356.37027 405.644303,358.358574 402.198801,359.806307 C395.345044,362.888178 389.987443,364.000386 383.828995,359.806307 C377.186314,355.245636 374.318166,347.062523 379.694392,339.177656 C381.699612,336.238694 384.244938,334.076414 387.311746,332.473344 L395.419541,338.01574" id="Fill-24" fill="#FFFFFF"></path>
                <path d="M118.469418,143.25517 C123.137919,137.54501 113.447055,128.939383 110.311958,126.367015 C106.798166,123.496401 96.8217284,116.009195 92.1470194,121.719355 C87.4785185,127.435728 96.7968959,135.730683 100.30448,138.613724 C103.451993,141.186092 113.800917,148.977757 118.469418,143.25517 L118.469418,143.25517 Z M117.80515,117.195964 C132.64254,129.33083 131.972063,141.496764 125.701869,149.176587 C119.431675,156.856411 107.642469,159.925855 92.8112875,147.784775 C77.9738977,135.643695 78.6381658,123.477761 84.9145679,115.804151 C91.1847619,108.118114 102.96776,105.054884 117.80515,117.195964 L117.80515,117.195964 Z" id="Fill-25" fill="#FFFFFF"></path>
                <path d="M142.960423,91.9879996 L137.596614,86.2902665 L137.472451,86.3710414 L140.8,93.4419467 L146.436966,106.080103 L152.924444,101.699621 L142.960423,91.9879996 L142.960423,91.9879996 Z M135.380317,71.9247716 L175.118448,106.751155 L165.291005,113.387119 L158.753862,107.415994 L149.429277,113.710219 L152.570582,121.967893 L143.426032,128.144061 L125.677037,78.4675338 L135.380317,71.9247716 L135.380317,71.9247716 Z" id="Fill-26" fill="#FFFFFF"></path>
                <polyline id="Fill-27" fill="#FFFFFF" points="183.716684 49.2021873 190.353157 71.0548887 190.495944 71.017608 192.693616 46.4682696 203.526772 43.1751414 200.472381 68.7559124 219.65545 91.689754 208.474638 95.0947243 191.141587 73.1550346 190.998801 73.1985287 198.560282 98.1082472 187.944409 101.339241 173.094603 52.4331809 183.716684 49.2021873"></polyline>
                <polyline id="Fill-28" fill="#FFFFFF" points="244.351323 38.9499958 245.450159 80.5614662 257.071746 80.2507937 257.313862 89.7387309 234.604586 90.3476489 233.257425 39.2420279 244.351323 38.9499958"></polyline>
                <path d="M295.704832,65.7113222 L296.33806,57.9010164 L296.213898,57.8699491 L293.171922,65.0713369 L287.528748,77.7032795 L295.12127,79.6108084 L295.704832,65.7113222 L295.704832,65.7113222 Z M305.550899,46.6608865 L306.177919,99.5124868 L294.699118,96.6232328 L294.767407,87.7690675 L283.859753,85.0289363 L279.805855,92.8827363 L269.115485,90.1923127 L294.202469,43.8089132 L305.550899,46.6608865 L305.550899,46.6608865 Z" id="Fill-29" fill="#FFFFFF"></path>
                <path d="M354.930229,67.5070091 L350.361058,101.009928 L350.572134,100.972647 C351.286067,98.5494021 352.496649,96.1882913 353.905891,93.9452361 L366.067584,74.4598589 L375.472875,80.3439955 L348.424127,123.682805 L339.503069,118.115554 L344.20261,84.69341 L344.010159,84.7369042 L341.731781,89.3721374 L340.676402,91.1988915 L328.260176,111.088143 L318.842469,105.204006 L345.903633,61.8589836 L354.930229,67.5070091" id="Fill-30" fill="#FFFFFF"></path>
                <path d="M394.922892,136.146984 C399.901799,131.965333 406.34582,123.626884 400.466737,116.605686 L375.243175,137.774908 C380.675273,144.889307 390.037108,140.241647 394.922892,136.146984 L394.922892,136.146984 Z M361.169383,135.103125 L400.280494,102.258831 L405.693968,108.708392 C406.923175,110.193406 423.840282,126.360801 401.993933,144.696691 C390.85037,154.066572 378.788007,156.11701 367.532698,142.69596 L361.169383,135.103125 L361.169383,135.103125 Z" id="Fill-31" fill="#FFFFFF"></path>
            </g>
        </g>
    </g>
</svg>