<?xml version="1.0" encoding="UTF-8" standalone="no"?>
<svg width="500px" height="500px" viewBox="0 0 500 500" version="1.1" xmlns="http://www.w3.org/2000/svg" xmlns:xlink="http://www.w3.org/1999/xlink">
    <!-- Generator: Sketch 39.1 (31720) - http://www.bohemiancoding.com/sketch -->
    <title>PHI</title>
    <desc>Created with Sketch.</desc>
    <defs></defs>
    <g id="MLB" stroke="none" stroke-width="1" fill="none" fill-rule="evenodd">
        <g id="PHI">
            <g transform="translate(0.000000, 16.000000)">
                <g id="Group-3" fill="#FFFFFF">
                    <path d="M249.970696,0.85748596 C153.421847,1.57497421 30.0512813,58.4607095 0.058295405,216.42479 L0,216.745618 L249.970696,466.659026 L499.614939,216.973114 C469.569487,44.6184361 323.172236,0.297495129 249.970696,0.85748596" id="Fill-1"></path>
                </g>
                <path d="M250.063969,12.8622894 C318.345377,12.337298 454.93734,53.6949542 483.117339,213.99233 C483.070703,213.99233 249.999844,447.100179 249.999844,447.100179 C249.999844,446.977681 17.6751668,214.703985 16.9173265,213.945664 C44.9166095,66.5980762 160.003398,13.5272785 250.063969,12.8622894" id="Fill-4" fill="#B02534"></path>
                <path d="M250.040651,34.4919352 C131.922501,35.5710842 54.2905106,125.397113 41.2148513,209.372405 L41.0049878,210.73155 L250.063969,419.106471 L458.102781,210.73155 L457.887088,209.384072 C445.137883,125.397113 367.978085,35.565251 250.093117,34.4919352 L250.040651,34.4919352" id="Fill-5" fill="#FFFFFF"></path>
                <path d="M250.063969,39.8993467 C364.346281,40.9551628 439.285024,127.497079 452.296558,208.89408 C450.297026,210.89488 253.783216,407.737491 250.063969,411.459096 C246.327234,407.737491 48.8282312,210.906547 46.8170397,208.89408 C60.1433693,127.502912 135.542646,40.9551628 250.063969,39.8993467" id="Fill-6" fill="#253666"></path>
                <path d="M130.127003,138.901059 L128.057516,139.041057 L128.057516,167.915584 L130.686639,167.408092 C140.491926,165.535623 146.029989,159.17156 145.13807,150.800864 C144.199514,142.30767 139.151132,138.311902 130.127003,138.901059" id="Fill-8" fill="#FFFFFF"></path>
                <path d="M350.285429,193.20267 C350.285429,192.887675 350.262111,192.584347 350.238793,192.304351 C350.238793,192.304351 349.702475,190.892708 349.702475,190.846042 C348.75809,190.239385 347.219091,190.134387 345.499377,190.566046 C342.491334,191.324367 339.646518,193.4185 338.282405,195.897626 L338.22411,195.967625 C335.186919,199.590065 333.741193,204.157491 334.137602,206.315789 C334.230875,206.846613 334.434909,207.196607 334.842976,207.447437 L336.661793,208.059927 C339.553245,208.019094 344.170241,205.364971 346.945103,202.145023 C349.201135,199.496734 350.285429,195.786794 350.285429,193.20267" id="Fill-9" fill="#FFFFFF"></path>
                <path d="M407.356631,217.509772 C406.721211,222.386359 402.558919,230.471226 395.31863,233.177849 C390.783247,234.869488 383.309776,235.038652 373.347091,225.711304 C373.539466,225.367143 378.168121,217.381441 381.601721,216.42479 C385.216036,220.08223 388.451431,221.50554 390.736611,220.426391 C392.572916,219.557238 393.66304,217.101445 393.66304,213.980663 C393.66304,213.496504 393.639722,212.989013 393.581427,212.475688 C393.085916,207.704099 390.002089,201.625865 383.117401,199.765062 C382.400368,202.395853 375.743033,225.676305 358.749922,232.67619 C349.725793,236.391963 339.325893,234.735323 327.899994,228.038766 C327.474437,229.112082 325.929609,230.44206 324.069986,231.48621 C317.319378,235.260315 307.409159,236.216966 299.591745,228.003767 C298.350053,228.954585 281.205374,241.571878 266.905512,227.023783 C265.891172,227.933768 258.42353,234.367829 249.580117,234.006168 C245.207962,233.825338 241.319658,231.871203 237.944354,228.347928 C237.099071,229.211247 232.044859,234.111167 224.956138,234.192832 C220.554835,234.245331 216.380884,232.26203 212.533387,228.452926 C209.717719,232.536193 201.148295,234.892821 194.712482,233.201182 C189.827327,231.917869 187.099102,228.575424 187.023318,223.786336 L187.034977,199.251738 C186.038126,194.730978 182.662822,195.069306 181.660141,195.285136 C179.380791,195.763461 177.492019,197.606764 177.800985,199.158406 L177.800985,225.501308 C177.946724,228.435426 176.646736,230.827054 174.140034,232.238697 C171.201945,233.889504 167.162074,233.778672 164.527121,231.982035 C162.370191,230.506226 161.402488,228.120432 161.798896,225.314644 L161.798896,151.489186 C161.390829,148.076742 162.719964,145.119291 165.448189,143.375152 C168.252198,141.578515 171.90732,141.467684 174.548102,143.095157 C176.85077,144.506801 178.069144,147.003426 178.069144,150.182541 C178.069144,150.620034 178.045826,151.075026 177.999189,151.541685 L177.999189,180.818706 C179.998722,179.657892 187.425556,175.796288 193.698142,178.75374 C198.064468,180.812873 200.751886,185.765292 201.690442,193.540998 L201.690442,214.651485 C201.941112,217.673103 204.832564,219.183911 207.560789,219.113912 C210.032514,219.049747 212.562535,217.655603 212.655808,214.692318 L212.655808,195.104305 C212.393478,191.359367 213.699295,188.30275 216.229316,186.721943 C218.351269,185.391964 221.009539,185.333632 223.15481,186.576112 C225.737297,188.069421 227.142216,191.13187 227.013966,194.970141 L227.013966,213.193176 C226.850739,215.316474 227.649386,217.048946 229.24668,218.081429 C230.878951,219.131412 233.006734,219.213077 234.668153,218.291426 C236.440333,217.317275 237.390548,215.386473 237.3614,212.854848 L237.3614,163.925649 C237.122389,157.74825 238.235831,153.443321 240.754193,150.771698 C242.701259,148.718398 245.476121,147.685915 249.236174,147.62175 C253.532546,147.505085 256.983634,149.214223 259.216348,152.568335 C261.285835,155.659951 262.294345,159.994047 262.294345,165.302293 C262.294345,174.927136 258.965677,187.736926 252.541524,202.104191 C251.970229,205.143308 251.742877,207.394938 251.742877,209.144909 C251.742877,212.35319 252.512376,213.846499 253.305194,215.392307 C253.305194,215.392307 253.631648,216.039796 253.637477,216.098128 C256.097543,218.20976 258.831598,218.962248 261.116778,218.157261 C263.098822,217.463106 265.710456,215.304808 266.876364,209.069077 L266.882193,162.922332 C266.439148,157.334091 267.412682,153.233324 269.750327,150.748365 C272.449405,147.878412 276.495106,147.557584 280.097762,147.62175 C283.41477,147.720915 286.422813,149.780048 288.568084,153.419988 C289.390049,154.808299 290.025469,156.546603 290.573446,158.436572 C291.383752,161.236527 291.815138,164.567305 291.780161,168.393909 C291.710206,177.149599 289.156868,188.407748 282.248862,201.830029 C279.625569,211.536536 282.470385,215.958131 284.394133,217.731435 C286.655995,219.819734 289.973003,220.414724 293.033512,219.306409 C296.379668,218.093096 298.664848,215.16481 299.1487,211.52487 L299.15453,194.602647 C298.752291,189.976889 302.436561,186.529446 306.138319,186.202785 C309.373714,185.922789 313.028836,187.958589 313.61179,194.561814 L313.582642,215.748134 C314.486221,217.923932 316.40414,219.131412 318.240445,218.676419 C320.018455,218.238927 321.942203,216.004797 321.522476,211.087377 C323.417077,184.096986 338.09586,179.897054 342.53797,179.249565 C350.716815,178.071251 358.545888,182.335348 361.18667,189.393566 C364.596951,198.545916 358.306877,209.360739 344.549161,218.075596 C344.502525,218.250593 344.479207,218.483923 344.794002,218.728919 C346.204751,219.872233 351.696178,219.656403 357.403298,216.704785 C363.33777,213.630669 373.119739,205.709132 372.146206,186.739442 L382.132209,179.617059 L382.388709,180.025386 C382.388709,180.025386 383.805287,182.399513 383.805287,182.457846 L386.650103,184.534479 C397.428923,192.380183 407.659767,199.835061 407.659767,213.356507 C407.659767,214.680652 407.566494,216.063129 407.356631,217.509772 L407.356631,217.509772 Z M314.806846,238.573594 C319.039092,238.36943 323.026498,237.14445 326.232745,235.353646 C327.375335,234.717823 327.964119,234.012002 328.815232,233.341179 C334.207557,236.117801 339.419166,237.861939 344.420912,238.573594 L314.806846,238.573594 L314.806846,238.573594 Z M377.614315,243.409348 C382.009789,243.30435 391.908348,244.838491 389.051874,256.586632 C385.682399,264.251507 374.046636,267.004795 366.783029,255.262487 L113.221335,255.262487 C106.383284,255.058324 105.153251,244.424331 113.122233,243.409348 L377.614315,243.409348 L377.614315,243.409348 Z M309.029771,238.153601 C310.166532,238.381097 311.309122,238.521095 312.434223,238.573594 L309.123044,238.573594 C309.093896,238.439429 309.064748,238.293598 309.029771,238.153601 L309.029771,238.153601 Z M157.374275,163.289826 C152.034416,174.256313 140.270403,179.488728 127.649448,183.83449 L127.649448,217.45144 C127.649448,222.077197 125.562473,226.382127 121.767442,229.567074 C117.832502,232.880354 112.53345,234.431995 107.939772,233.621175 C104.500343,233.020351 102.086913,231.101216 101.130869,228.219597 C100.810244,227.251279 100.664505,226.212963 100.664505,225.116314 C100.664505,220.292226 103.672548,214.35399 109.10568,208.765748 L109.10568,142.389335 C103.934877,144.810129 100.128188,149.686716 100.128188,152.719999 C100.128188,152.953329 100.151506,153.169159 100.192312,153.373322 C100.559574,155.105794 102.483322,155.426622 104.02815,155.385789 L104.552809,155.374123 L104.471195,155.904947 C104.40707,156.289941 102.850583,165.483124 96.7004177,168.796403 C93.6690567,170.435543 90.0664006,170.330544 85.9857223,168.498908 C82.5229752,166.947266 80.2028181,163.750652 79.4391483,159.486555 C78.0633768,151.728349 81.980828,142.453501 89.9323212,134.666128 C102.407538,122.497994 127.346312,118.840554 144.397718,126.680426 C146.618773,127.707076 148.56584,128.926222 150.349679,130.256201 C154.966675,133.697811 158.07965,138.096072 159.484569,143.252654 C160.213261,145.912611 160.528057,148.753398 160.335682,151.775015 C160.055864,156.243275 158.971569,159.994047 157.374275,163.289826 L157.374275,163.289826 Z M189.745714,162.834834 C189.745714,162.834834 196.379731,130.343699 196.583765,129.317049 L224.075878,129.317049 L224.075878,135.716111 C211.145957,136.18277 200.029023,149.453386 198.647422,166.509774 L198.332627,176.472944 C197.475684,175.813788 196.577935,175.207131 195.586913,174.740472 C191.039872,172.593841 186.288796,173.124665 182.42964,174.238814 L182.42964,162.817334 L189.745714,162.834834 L189.745714,162.834834 Z M232.971756,162.893166 L234.429141,162.893166 C234.598198,162.893166 234.743937,162.998164 234.808062,163.149829 C234.860527,163.301493 234.813891,163.47649 234.691471,163.587321 C234.691471,163.587321 233.951119,164.240644 232.942609,165.121463 C230.51752,167.238928 226.413523,170.80887 226.302762,170.698038 C226.308592,170.721371 229.987032,182.656176 229.987032,182.656176 C230.00452,182.691175 230.00452,182.732008 230.00452,182.772841 C230.00452,182.895339 229.946225,183.02367 229.835464,183.099502 C229.689725,183.192834 229.50318,183.187001 229.37493,183.082002 C229.37493,183.082002 220.473222,176.192948 220.461562,175.848787 C220.432415,175.87212 211.122639,183.082002 211.122639,183.082002 C210.98273,183.187001 210.796184,183.192834 210.650446,183.099502 C210.551344,183.02367 210.487219,182.895339 210.487219,182.772841 C210.487219,182.732008 210.493048,182.691175 210.498878,182.656176 C210.498878,182.656176 214.072386,171.094699 214.293909,171.088865 C214.28225,171.071366 205.794439,163.587321 205.794439,163.587321 C205.712825,163.511489 205.666189,163.400658 205.666189,163.289826 C205.666189,163.24316 205.666189,163.196495 205.689507,163.149829 C205.741973,162.998164 205.887711,162.893166 206.056768,162.893166 L215.523942,163.155662 L219.872779,150.748365 C219.925245,150.590868 220.070983,150.485869 220.24004,150.485869 C220.409097,150.485869 220.554835,150.590868 220.61896,150.748365 C220.61896,150.748365 224.618025,162.158178 224.618025,162.864 C224.618025,162.8815 224.612195,162.893166 224.612195,162.893166 L232.971756,162.893166 L232.971756,162.893166 Z M277.07806,129.317049 L304.570173,129.317049 C304.645957,129.713709 305.695274,134.881958 306.954455,141.036024 C305.776888,143.958476 301.999345,153.355822 300.524472,157.019096 C296.583702,144.792629 287.460471,136.095272 277.07806,135.716111 L277.07806,129.317049 L277.07806,129.317049 Z M322.210362,163.587321 C322.210362,163.587321 313.973222,170.855536 313.821653,170.698038 C313.821653,170.721371 317.500094,182.656176 317.500094,182.656176 C317.517582,182.691175 317.523412,182.732008 317.523412,182.772841 C317.523412,182.895339 317.465116,183.02367 317.354355,183.099502 C317.220276,183.192834 317.022071,183.187001 316.887992,183.082002 C316.887992,183.082002 307.992113,176.192948 307.986283,175.848787 C307.951306,175.87212 298.64153,183.082002 298.64153,183.082002 C298.501621,183.187001 298.309246,183.192834 298.175167,183.099502 C298.064406,183.02367 298.01194,182.895339 298.01194,182.772841 C298.01194,182.732008 298.01194,182.691175 298.023599,182.656176 C298.023599,182.656176 301.585448,171.094699 301.824459,171.088865 C301.801141,171.071366 293.3075,163.587321 293.3075,163.587321 C293.225887,163.511489 293.179251,163.400658 293.179251,163.289826 C293.179251,163.24316 293.179251,163.196495 293.202569,163.149829 C293.260864,162.998164 293.412432,162.893166 293.56983,162.893166 L303.042833,163.155662 L307.39167,150.748365 C307.444136,150.590868 307.595704,150.485869 307.758931,150.485869 C307.927988,150.485869 308.073727,150.590868 308.137851,150.748365 C308.137851,150.748365 312.131087,162.158178 312.131087,162.864 C312.131087,162.8815 312.125257,162.893166 312.125257,162.893166 L321.953862,162.893166 C322.11126,162.893166 322.262828,162.998164 322.315294,163.149829 C322.373589,163.301493 322.326953,163.47649 322.210362,163.587321 L322.210362,163.587321 Z M321.569113,192.047689 C320.08841,195.395967 318.852547,199.368402 318.04807,204.128324 L318.04807,194.561814 C317.820718,191.96019 317.208616,189.831058 316.340015,188.069421 C318.386184,189.621062 320.292443,191.073538 321.569113,192.047689 L321.569113,192.047689 Z M389.244248,180.947037 C389.244248,180.947037 388.025874,180.048719 387.203909,179.459562 C386.749205,178.695407 383.467174,173.217997 383.467174,173.217997 L367.371812,184.709476 L367.53504,187.404432 C367.599165,188.296917 367.622483,189.171903 367.622483,190.029389 C367.622483,196.352618 366.048507,201.707531 363.116248,205.924962 C365.558825,201.5267 366.456575,197.507599 366.456575,194.340151 C366.456575,191.388533 365.809496,189.119403 365.337303,187.841924 C361.985317,178.847072 352.127564,173.387161 341.90838,174.868803 C338.34653,175.376295 329.409845,177.913754 323.271339,188.693577 C321.86059,182.860339 319.289762,172.220513 319.167342,171.683856 C319.517115,171.333861 324.548008,166.247278 327.981607,162.788168 L350.804258,162.729836 L350.804258,130.238701 L343.243344,130.238701 L343.243344,80.00869 C343.150072,79.6645289 335.694089,67.6072264 335.694089,67.6072264 L335.501715,67.2922315 L312.463371,67.1872332 C312.224359,67.2280659 294.659954,73.8721238 294.659954,73.8721238 L249.556799,73.8312911 L206.254972,73.8312911 C206.254972,73.7846252 188.929578,67.2280659 188.929578,67.2280659 C188.690567,67.1872332 166.019484,67.2922315 166.019484,67.2922315 L165.646393,67.2922315 L158.003866,79.6645289 C158.003866,79.6645289 157.904763,128.937889 157.898934,130.238701 L156.954548,130.238701 C154.098073,127.22875 150.512906,124.667959 146.228194,122.696324 C127.381289,114.0223 100.751948,117.988901 86.8718125,131.527846 C77.8768315,140.330202 73.4813579,151.069193 75.1311179,160.256543 C76.1337989,165.90895 79.4333188,170.37721 84.1902238,172.506342 C90.6785024,175.411295 95.5869755,174.203814 98.5717002,172.675506 C100.617869,171.61969 102.290947,170.138048 103.695866,168.504741 L103.695866,207.301606 C98.7232683,213.111511 95.7618617,219.084746 95.7618617,224.445492 C95.7618617,226.078798 96.0008729,227.647939 96.4963838,229.141248 C98.0353825,233.813672 101.929516,237.021952 107.176102,237.943604 C113.017302,238.98192 119.412308,237.14445 124.291633,233.049517 C129.02522,229.071249 131.735956,223.389676 131.735956,217.45144 L131.735956,187.159436 C141.652004,183.396997 151.113349,178.812072 157.374275,171.263862 L157.374275,225.308811 C157.333468,225.705471 157.281003,226.113798 157.281003,226.510458 C157.281003,230.27873 158.95991,233.545343 162.032078,235.639475 C166.042802,238.38693 171.90732,238.56776 176.302793,236.111967 C180.109483,233.971169 182.243095,230.302062 182.243095,225.962134 C182.243095,225.734637 182.231436,225.507141 182.219777,225.273811 C182.219777,225.273811 182.225606,201.065874 182.225606,199.817562 C182.342197,199.765062 182.417981,199.712563 182.517083,199.68923 C182.546231,199.782562 182.55789,199.794229 182.592867,199.893394 L182.592867,223.786336 C182.68614,230.173731 186.329603,235.003652 192.351518,237.068618 C192.246586,237.55861 192.129996,238.077768 192.025064,238.56776 L112.813268,238.56776 L112.510132,238.614426 C106.709739,239.355248 102.774799,243.68351 102.774799,249.230919 C102.774799,249.423416 102.780628,249.615913 102.798117,249.80841 C103.066276,255.50165 107.490897,259.923244 113.075597,260.092408 L184.435002,260.092408 C177.497849,272.960531 170.828855,279.674587 165.68137,284.767004 C159.502057,290.88607 155.258152,295.091835 155.258152,305.463332 C155.258152,306.344151 155.2873,307.265802 155.351425,308.239953 L155.386402,308.852443 L238.183366,308.852443 C238.311615,305.346667 237.851082,302.657544 237.419696,300.300916 C237.419696,300.300916 236.830912,294.193516 236.830912,294.170183 C237.017457,292.046885 236.055583,290.716907 234.843039,289.042767 C233.782062,287.561125 232.575348,285.892819 232.143962,283.472025 L230.908099,281.675388 C230.908099,281.675388 229.170896,278.262944 229.176725,278.210445 C229.293316,277.032131 228.768658,276.244644 227.841761,274.955498 C227.841761,274.955498 225.830569,271.006396 225.82474,270.936397 C225.340888,268.148109 225.993796,266.357305 226.553432,264.776498 C227.060602,263.376521 227.480329,262.169041 227.153875,260.220739 C227.153875,260.220739 227.148045,260.115741 227.148045,260.092408 L230.062816,260.092408 C230.1386,260.605733 230.196895,261.107391 230.196895,261.550717 C230.196895,263.283189 229.730532,264.578168 229.299146,265.768148 C228.914396,266.841464 228.570453,267.803948 228.570453,269.069761 C228.570453,269.466421 228.61126,269.898081 228.687044,270.370573 L230.220213,273.246359 C231.117962,274.494672 232.114814,275.894649 232.114814,277.866284 C232.114814,278.047114 232.108984,278.239611 232.091496,278.437941 L233.018393,279.645421 C233.018393,279.645421 235.035414,283.046199 235.029584,283.005366 C235.344379,284.726171 236.247958,285.986151 237.215662,287.327795 C238.527308,289.147766 240.013841,291.218565 239.745682,294.39768 L240.299489,299.770092 C240.754193,302.255051 241.232215,305.095838 241.103965,308.852443 L241.337147,308.852443 L241.337147,312.784045 C240.497693,313.431535 235.927333,317.193973 235.507606,323.161375 C235.490118,323.441371 235.472629,323.721366 235.472629,324.007195 C235.472629,328.032129 237.512968,332.05123 241.541181,335.953666 L241.337147,344.983518 L241.337147,345.642674 L259.810961,345.642674 L259.810961,335.47534 C263.646798,332.022064 265.675479,328.032129 265.675479,324.007195 C265.675479,323.721366 265.663819,323.447204 265.640501,323.161375 C265.226604,317.193973 260.650415,313.431535 259.810961,312.784045 L259.810961,308.852443 L345.761706,308.852443 L345.796683,308.239953 C345.866638,307.259969 345.884126,306.338317 345.884126,305.457499 C345.884126,295.091835 341.64605,290.88607 335.466737,284.767004 C330.336742,279.680421 323.673577,272.97803 316.736424,260.092408 L364.439554,260.092408 C368.619334,265.470653 374.110761,268.416438 380.010256,268.008112 C385.92141,267.599785 391.074724,263.965678 393.476495,258.534934 L393.645551,258.144107 L393.744654,257.729947 C395.423561,250.823393 393.476495,246.51263 391.541087,244.121003 C387.355477,238.917755 380.330881,238.515261 377.491895,238.573594 L353.82396,238.573594 C356.085822,238.229433 358.295218,237.657775 360.440489,236.771123 C364.445383,235.12615 367.77988,232.600358 370.787923,229.800404 C382.161357,239.769407 391.237951,239.43108 396.869287,237.331114 C405.310462,234.181166 410.842696,225.063815 411.752104,218.087262 C411.979456,216.442289 412.096047,214.861482 412.096047,213.356507 C412.096047,197.583432 400.017239,188.786909 389.244248,180.947037 L389.244248,180.947037 Z" id="Fill-10" fill="#FFFFFF"></path>
                <path d="M249.679219,158.59407 C249.142902,158.261575 248.536629,158.232409 247.947846,158.489072 L247.685517,158.61157 L247.685517,187.719426 L248.198516,187.637761 C250.600287,187.264434 252.08682,181.407863 252.83883,169.210563 C252.698921,165.90895 251.841979,159.924048 249.679219,158.59407" id="Fill-11" fill="#FFFFFF"></path>
                <path d="M279.188353,158.59407 C278.652036,158.261575 278.051593,158.232409 277.45698,158.489072 L277.194651,158.61157 L277.194651,187.719426 L277.70765,187.637761 C280.086103,187.270267 281.613442,181.227033 282.347964,169.175563 C282.219714,165.90895 281.351113,159.929881 279.188353,158.59407" id="Fill-12" fill="#FFFFFF"></path>
                <path d="M113.221335,255.262487 L366.783029,255.262487 C374.046636,267.004795 385.682399,264.251507 389.051874,256.586632 C391.908348,244.838491 382.009789,243.30435 377.614315,243.409348 L113.122233,243.409348 C105.153251,244.424331 106.383284,255.058324 113.221335,255.262487" id="Fill-13" fill="#B02534"></path>
                <path d="M130.686639,167.408092 L128.057516,167.915584 L128.057516,139.041057 L130.127003,138.901059 C139.151132,138.311902 144.199514,142.30767 145.13807,150.800864 C146.029989,159.17156 140.491926,165.535623 130.686639,167.408092 L130.686639,167.408092 Z M150.349679,130.256201 C148.56584,128.926222 146.618773,127.707076 144.397718,126.680426 C127.346312,118.840554 102.407538,122.497994 89.9323212,134.666128 C81.980828,142.453501 78.0633768,151.728349 79.4391483,159.486555 C80.2028181,163.750652 82.5229752,166.947266 85.9857223,168.498908 C90.0664006,170.330544 93.6690567,170.435543 96.7004177,168.796403 C102.850583,165.483124 104.40707,156.289941 104.471195,155.904947 L104.552809,155.374123 L104.02815,155.385789 C102.483322,155.426622 100.559574,155.105794 100.192312,153.373322 C100.151506,153.169159 100.128188,152.953329 100.128188,152.719999 C100.128188,149.686716 103.934877,144.810129 109.10568,142.389335 L109.10568,208.765748 C103.672548,214.35399 100.664505,220.292226 100.664505,225.116314 C100.664505,226.212963 100.810244,227.251279 101.130869,228.219597 C102.086913,231.101216 104.500343,233.020351 107.939772,233.621175 C112.53345,234.431995 117.832502,232.880354 121.767442,229.567074 C125.562473,226.382127 127.649448,222.077197 127.649448,217.45144 L127.649448,183.83449 C140.270403,179.488728 152.034416,174.256313 157.374275,163.289826 C158.971569,159.994047 160.055864,156.243275 160.335682,151.775015 C160.528057,148.753398 160.213261,145.912611 159.484569,143.252654 C158.07965,138.096072 154.966675,133.697811 150.349679,130.256201 L150.349679,130.256201 Z" id="Fill-14" fill="#B02534"></path>
                <path d="M334.842976,207.447437 C334.434909,207.196607 334.230875,206.846613 334.137602,206.315789 C333.741193,204.157491 335.186919,199.590065 338.22411,195.967625 L338.282405,195.897626 C339.646518,193.4185 342.491334,191.324367 345.499377,190.566046 C347.219091,190.134387 348.75809,190.239385 349.702475,190.846042 C349.702475,190.892708 350.238793,192.304351 350.238793,192.304351 C350.262111,192.584347 350.285429,192.887675 350.285429,193.20267 C350.285429,195.786794 349.201135,199.496734 346.945103,202.145023 C344.170241,205.364971 339.553245,208.019094 336.661793,208.059927 L334.842976,207.447437 L334.842976,207.447437 Z M277.70765,187.637761 L277.194651,187.719426 L277.194651,158.61157 L277.45698,158.489072 C278.051593,158.232409 278.652036,158.261575 279.188353,158.59407 C281.351113,159.929881 282.219714,165.90895 282.347964,169.175563 C281.613442,181.227033 280.086103,187.270267 277.70765,187.637761 L277.70765,187.637761 Z M248.198516,187.637761 L247.685517,187.719426 L247.685517,158.61157 L247.947846,158.489072 C248.536629,158.232409 249.142902,158.261575 249.679219,158.59407 C251.841979,159.924048 252.698921,165.90895 252.83883,169.210563 C252.08682,181.407863 250.600287,187.264434 248.198516,187.637761 L248.198516,187.637761 Z M386.650103,184.534479 L383.805287,182.457846 C383.805287,182.399513 382.388709,180.025386 382.388709,180.025386 L382.132209,179.617059 L372.146206,186.739442 C373.119739,205.709132 363.33777,213.630669 357.403298,216.704785 C351.696178,219.656403 346.204751,219.872233 344.794002,218.728919 C344.479207,218.483923 344.502525,218.250593 344.549161,218.075596 C358.306877,209.360739 364.596951,198.545916 361.18667,189.393566 C358.545888,182.335348 350.716815,178.071251 342.53797,179.249565 C338.09586,179.897054 323.417077,184.096986 321.522476,211.087377 C321.942203,216.004797 320.018455,218.238927 318.240445,218.676419 C316.40414,219.131412 314.486221,217.923932 313.582642,215.748134 L313.61179,194.561814 C313.028836,187.958589 309.373714,185.922789 306.138319,186.202785 C302.436561,186.529446 298.752291,189.976889 299.15453,194.602647 L299.1487,211.52487 C298.664848,215.16481 296.379668,218.093096 293.033512,219.306409 C289.973003,220.414724 286.655995,219.819734 284.394133,217.731435 C282.470385,215.958131 279.625569,211.536536 282.248862,201.830029 C289.156868,188.407748 291.710206,177.149599 291.780161,168.393909 C291.815138,164.567305 291.383752,161.236527 290.573446,158.436572 C290.025469,156.546603 289.390049,154.808299 288.568084,153.419988 C286.422813,149.780048 283.41477,147.720915 280.097762,147.62175 C276.495106,147.557584 272.449405,147.878412 269.750327,150.748365 C267.412682,153.233324 266.439148,157.334091 266.882193,162.922332 L266.876364,209.069077 C265.710456,215.304808 263.098822,217.463106 261.116778,218.157261 C258.831598,218.962248 256.097543,218.20976 253.637477,216.098128 C253.631648,216.039796 253.305194,215.392307 253.305194,215.392307 C252.512376,213.846499 251.742877,212.35319 251.742877,209.144909 C251.742877,207.394938 251.970229,205.143308 252.541524,202.104191 C258.965677,187.736926 262.294345,174.927136 262.294345,165.302293 C262.294345,159.994047 261.285835,155.659951 259.216348,152.568335 C256.983634,149.214223 253.532546,147.505085 249.236174,147.62175 C245.476121,147.685915 242.701259,148.718398 240.754193,150.771698 C238.235831,153.443321 237.122389,157.74825 237.3614,163.925649 L237.3614,212.854848 C237.390548,215.386473 236.440333,217.317275 234.668153,218.291426 C233.006734,219.213077 230.878951,219.131412 229.24668,218.081429 C227.649386,217.048946 226.850739,215.316474 227.013966,213.193176 L227.013966,194.970141 C227.142216,191.13187 225.737297,188.069421 223.15481,186.576112 C221.009539,185.333632 218.351269,185.391964 216.229316,186.721943 C213.699295,188.30275 212.393478,191.359367 212.655808,195.104305 L212.655808,214.692318 C212.562535,217.655603 210.032514,219.049747 207.560789,219.113912 C204.832564,219.183911 201.941112,217.673103 201.690442,214.651485 L201.690442,193.540998 C200.751886,185.765292 198.064468,180.812873 193.698142,178.75374 C187.425556,175.796288 179.998722,179.657892 177.999189,180.818706 L177.999189,151.541685 C178.045826,151.075026 178.069144,150.620034 178.069144,150.182541 C178.069144,147.003426 176.85077,144.506801 174.548102,143.095157 C171.90732,141.467684 168.252198,141.578515 165.448189,143.375152 C162.719964,145.119291 161.390829,148.076742 161.798896,151.489186 L161.798896,225.314644 C161.402488,228.120432 162.370191,230.506226 164.527121,231.982035 C167.162074,233.778672 171.201945,233.889504 174.140034,232.238697 C176.646736,230.827054 177.946724,228.435426 177.800985,225.501308 L177.800985,199.158406 C177.492019,197.606764 179.380791,195.763461 181.660141,195.285136 C182.662822,195.069306 186.038126,194.730978 187.034977,199.251738 L187.023318,223.786336 C187.099102,228.575424 189.827327,231.917869 194.712482,233.201182 C201.148295,234.892821 209.717719,232.536193 212.533387,228.452926 C216.380884,232.26203 220.554835,234.245331 224.956138,234.192832 C232.044859,234.111167 237.099071,229.211247 237.944354,228.347928 C241.319658,231.871203 245.207962,233.825338 249.580117,234.006168 C258.42353,234.367829 265.891172,227.933768 266.905512,227.023783 C281.205374,241.571878 298.350053,228.954585 299.591745,228.003767 C307.409159,236.216966 317.319378,235.260315 324.069986,231.48621 C325.929609,230.44206 327.474437,229.112082 327.899994,228.038766 C339.325893,234.735323 349.725793,236.391963 358.749922,232.67619 C375.743033,225.676305 382.400368,202.395853 383.117401,199.765062 C390.002089,201.625865 393.085916,207.704099 393.581427,212.475688 C393.639722,212.989013 393.66304,213.496504 393.66304,213.980663 C393.66304,217.101445 392.572916,219.557238 390.736611,220.426391 C388.451431,221.50554 385.216036,220.08223 381.601721,216.42479 C378.168121,217.381441 373.539466,225.367143 373.347091,225.711304 C383.309776,235.038652 390.783247,234.869488 395.31863,233.177849 C402.558919,230.471226 406.721211,222.386359 407.356631,217.509772 C407.566494,216.063129 407.659767,214.680652 407.659767,213.356507 C407.659767,199.835061 397.428923,192.380183 386.650103,184.534479 L386.650103,184.534479 Z" id="Fill-15" fill="#B02534"></path>
                <path d="M220.61896,150.748365 C220.554835,150.590868 220.409097,150.485869 220.24004,150.485869 C220.070983,150.485869 219.925245,150.590868 219.872779,150.748365 L215.523942,163.155662 L206.056768,162.893166 C205.887711,162.893166 205.741973,162.998164 205.689507,163.149829 C205.666189,163.196495 205.666189,163.24316 205.666189,163.289826 C205.666189,163.400658 205.712825,163.511489 205.794439,163.587321 C205.794439,163.587321 214.28225,171.071366 214.293909,171.088865 C214.072386,171.094699 210.498878,182.656176 210.498878,182.656176 C210.493048,182.691175 210.487219,182.732008 210.487219,182.772841 C210.487219,182.895339 210.551344,183.02367 210.650446,183.099502 C210.796184,183.192834 210.98273,183.187001 211.122639,183.082002 C211.122639,183.082002 220.432415,175.87212 220.461562,175.848787 C220.473222,176.192948 229.37493,183.082002 229.37493,183.082002 C229.50318,183.187001 229.689725,183.192834 229.835464,183.099502 C229.946225,183.02367 230.00452,182.895339 230.00452,182.772841 C230.00452,182.732008 230.00452,182.691175 229.987032,182.656176 C229.987032,182.656176 226.308592,170.721371 226.302762,170.698038 C226.413523,170.80887 230.51752,167.238928 232.942609,165.121463 C233.951119,164.240644 234.691471,163.587321 234.691471,163.587321 C234.813891,163.47649 234.860527,163.301493 234.808062,163.149829 C234.743937,162.998164 234.598198,162.893166 234.429141,162.893166 L232.971756,162.893166 L224.612195,162.893166 C224.612195,162.893166 224.618025,162.8815 224.618025,162.864 C224.618025,162.158178 220.61896,150.748365 220.61896,150.748365" id="Fill-16" fill="#253666"></path>
                <path d="M312.125257,162.893166 C312.125257,162.893166 312.131087,162.8815 312.131087,162.864 C312.131087,162.158178 308.137851,150.748365 308.137851,150.748365 C308.073727,150.590868 307.927988,150.485869 307.758931,150.485869 C307.595704,150.485869 307.444136,150.590868 307.39167,150.748365 L303.042833,163.155662 L293.56983,162.893166 C293.412432,162.893166 293.260864,162.998164 293.202569,163.149829 C293.179251,163.196495 293.179251,163.24316 293.179251,163.289826 C293.179251,163.400658 293.225887,163.511489 293.3075,163.587321 C293.3075,163.587321 301.801141,171.071366 301.824459,171.088865 C301.585448,171.094699 298.023599,182.656176 298.023599,182.656176 C298.01194,182.691175 298.01194,182.732008 298.01194,182.772841 C298.01194,182.895339 298.064406,183.02367 298.175167,183.099502 C298.309246,183.192834 298.501621,183.187001 298.64153,183.082002 C298.64153,183.082002 307.951306,175.87212 307.986283,175.848787 C307.992113,176.192948 316.887992,183.082002 316.887992,183.082002 C317.022071,183.187001 317.220276,183.192834 317.354355,183.099502 C317.465116,183.02367 317.523412,182.895339 317.523412,182.772841 C317.523412,182.732008 317.517582,182.691175 317.500094,182.656176 C317.500094,182.656176 313.821653,170.721371 313.821653,170.698038 C313.973222,170.855536 322.210362,163.587321 322.210362,163.587321 C322.326953,163.47649 322.373589,163.301493 322.315294,163.149829 C322.262828,162.998164 322.11126,162.893166 321.953862,162.893166 L312.125257,162.893166" id="Fill-17" fill="#253666"></path>
            </g>
        </g>
    </g>
</svg>