<svg width="500" height="500" viewBox="0 0 500 500" fill="none" xmlns="http://www.w3.org/2000/svg">
<path d="M354.038 106.411L151.782 106.429C151.782 106.429 163.868 123.816 163.868 156.857V182.434H121.062C110.787 182.434 102.457 174.104 102.457 163.829V59.8359C102.457 49.6038 110.829 41.2315 121.062 41.2315H259.871C270.552 41.3769 277.573 51.9786 276.113 62.556C274.701 72.8003 269.352 78.9372 269.352 78.9372H324.432V55.0924C324.432 24.6626 299.77 0 269.34 0H105.086C74.6626 0 50 24.6626 50 55.0924V169.585C50 200.008 74.6626 224.671 105.086 224.671H256.642C266.917 224.671 275.247 233.001 275.247 243.276V342.465C275.247 352.691 266.88 361.057 256.654 361.057H216.325V244.487H163.874V361.057H118.087C107.819 361.057 99.5008 352.733 99.5008 342.465V332.56C99.5008 299.61 108.358 291.995 108.358 291.995H53.2774V348.208C53.2774 378.626 77.94 403.288 108.358 403.288H163.874V449.566C163.874 482.607 151.788 499.994 151.788 499.994H354.069C393.743 499.994 425.912 467.831 425.912 428.151V178.272C425.906 138.579 393.731 106.411 354.038 106.411ZM373.455 429.163C373.455 444.829 360.751 457.533 345.084 457.533H216.325V403.294H272.623C303.041 403.294 327.704 378.632 327.704 348.214V237.52C327.704 207.096 303.041 182.428 272.611 182.428H216.319V148.878H345.09C360.757 148.878 373.455 161.576 373.455 177.242V429.163Z" fill="#2F241D"/>
<path d="M431.431 481.62V484.946H427.22V499.994H423.149V484.952H418.69V481.62H431.431ZM445.237 481.614L441.221 491.785L437.204 481.614H433.133V500H437.204V489.798L440.869 498.879H441.566L445.231 489.798V500H449.302V481.614H445.237Z" fill="#2F241D"/>
</svg>
