<?xml version="1.0" encoding="UTF-8" standalone="no"?>
<svg width="500px" height="500px" viewBox="0 0 500 500" version="1.1" xmlns="http://www.w3.org/2000/svg" xmlns:xlink="http://www.w3.org/1999/xlink">
    <!-- Generator: Sketch 39.1 (31720) - http://www.bohemiancoding.com/sketch -->
    <title>SEA</title>
    <desc>Created with Sketch.</desc>
    <defs></defs>
    <g id="MLB" stroke="none" stroke-width="1" fill="none" fill-rule="evenodd">
        <g id="SEA">
            <g>
                <g id="Group-3" fill="#FFFFFF">
                    <path d="M249.415473,500 C387.161908,500 498.807071,388.3429 498.807071,250.596465 C498.807071,112.873904 387.161908,1.19889783 249.415473,1.19889783 C111.669038,1.19889783 0,112.873904 0,250.596465 C0,388.3429 111.669038,500 249.415473,500" id="Fill-1"></path>
                </g>
                <path d="M249.409504,40.4851027 C133.502665,40.4851027 39.1907051,134.731407 39.1907051,250.596465 C39.1907051,366.47346 133.502665,460.73767 249.409504,460.73767 C365.304405,460.73767 459.610397,366.47346 459.610397,250.596465 C459.610397,134.731407 365.304405,40.4851027 249.409504,40.4851027 L249.409504,40.4851027 Z M249.409504,454.106407 C137.233124,454.106407 45.9592491,362.826563 45.9592491,250.596465 C45.9592491,138.390241 137.233124,47.0984596 249.409504,47.0984596 C361.585884,47.0984596 452.841853,138.390241 452.841853,250.596465 C452.841853,362.826563 361.585884,454.106407 249.409504,454.106407 L249.409504,454.106407 Z" id="Fill-4" fill="#005D53"></path>
                <path d="M27.295019,250.596465 C27.295019,128.076269 126.937058,28.3864796 249.409504,28.3864796 C371.88195,28.3864796 471.523989,128.076269 471.523989,250.596465 C471.523989,373.140535 371.88195,472.824356 249.409504,472.824356 C126.937058,472.824356 27.295019,373.140535 27.295019,250.596465 L27.295019,250.596465 Z M15.4530514,250.596465 C15.4530514,379.52708 120.407264,484.415636 249.409504,484.415636 C378.405776,484.415636 483.359988,379.52708 483.359988,250.596465 C483.359988,121.689724 378.405776,16.8071363 249.409504,16.8071363 C120.407264,16.8071363 15.4530514,121.689724 15.4530514,250.596465 L15.4530514,250.596465 Z" id="Fill-5" fill="#C1C9CA"></path>
                <path d="M217.685685,186.175922 C207.449307,179.950533 170.514783,160.337274 170.514783,160.337274 L202.119227,196.609269 C206.804683,192.490842 212.033294,188.96929 217.685685,186.175922" id="Fill-6" fill="#C1C9CA"></path>
                <path d="M296.222282,196.13177 C300.895801,200.154696 305.056008,204.762559 308.565623,209.841951 C313.662922,197.45086 327.074666,164.097577 328.37585,160.438743 L296.222282,196.13177" id="Fill-7" fill="#C1C9CA"></path>
                <path d="M190.157885,291.034635 C185.156086,303.192945 172.573996,334.552672 170.825157,339.835001 L202.548976,304.864191 C197.851583,300.805452 193.685407,296.167746 190.157885,291.034635" id="Fill-8" fill="#C1C9CA"></path>
                <path d="M170.616251,340.616905 C170.616251,340.616905 170.896782,340.396062 171.404124,340.008095 C171.105687,340.151344 170.843063,340.276688 170.658032,340.372187 C170.616251,340.497531 170.592376,340.604968 170.616251,340.616905" id="Fill-9" fill="#C1C9CA"></path>
                <path d="M281.801822,314.611133 C292.026262,320.926053 327.790914,341.243622 327.790914,341.243622 L297.236967,304.082287 C292.593292,308.230557 287.406463,311.764047 281.801822,314.611133" id="Fill-10" fill="#C1C9CA"></path>
                <path d="M204.238128,203.359906 C204.781283,203.210688 206.076498,198.58492 206.076498,198.58492 C205.992936,198.334233 205.378156,197.761234 205.067782,197.480704 C204.751439,197.755266 204.429127,198.035796 204.112785,198.316327 L203.1936,201.628974 L202.387821,200.972413 C202.286352,200.948538 201.647698,201.103725 200.847887,201.330537 C199.970483,202.190035 199.110986,203.079376 198.281332,203.992592 C199.463141,203.71803 202.787726,202.727221 203.37863,202.548159 C203.736754,202.924189 204.238128,203.359906 204.238128,203.359906" id="Fill-11" fill="#CB2437"></path>
                <path d="M209.090708,206.565116 C209.580145,206.362179 210.87536,201.533474 210.87536,201.533474 C210.73211,201.157444 209.377208,200.363602 209.377208,200.363602 L208.98924,200.148728 L208.881803,200.566539 L207.688056,204.929683 L206.524153,204.243279 C206.249591,204.207467 200.74045,205.89065 200.74045,205.89065 C200.674794,206.487523 202.119227,207.352989 202.119227,207.352989 C202.387821,207.382833 207.270245,205.896618 207.855181,205.717556 C208.296867,206.105524 209.090708,206.565116 209.090708,206.565116" id="Fill-12" fill="#CB2437"></path>
                <path d="M207.819368,210.83873 C208.087961,210.856636 213.018135,209.042141 213.412072,208.898891 C213.907476,209.245078 214.772943,209.65692 214.772943,209.65692 C215.250442,209.418171 216.086064,204.547684 216.086064,204.547684 C215.889096,204.195529 214.384975,203.467344 214.384975,203.467344 L213.98507,203.276344 L213.907476,203.723999 L213.167353,208.116987 L211.890044,207.49027 C211.615483,207.472364 206.261529,209.453984 206.261529,209.453984 C206.231685,210.056826 207.819368,210.83873 207.819368,210.83873" id="Fill-13" fill="#CB2437"></path>
                <path d="M212.767448,213.023286 L212.767448,213.023286 C213.167353,213.542566 214.331257,214.037971 214.331257,214.037971 C214.587912,214.037971 219.398711,211.978758 219.762804,211.823571 C220.288053,212.15782 221.219175,212.53385 221.219175,212.53385 C221.696674,212.271226 222.09061,207.358958 222.09061,207.358958 C221.875736,207.030678 220.317896,206.386054 220.317896,206.386054 L219.87621,206.206992 L219.846366,206.660616 L219.476305,211.065542 L218.103496,210.504481 C217.828934,210.504481 212.630167,212.718881 212.630167,212.718881 C212.630167,212.814381 212.689855,212.921818 212.767448,213.023286" id="Fill-14" fill="#CB2437"></path>
                <path d="M219.267399,215.721154 C219.279337,215.810685 219.350962,215.906185 219.440493,216.001684 L219.446461,216.001684 C219.92396,216.479183 221.24305,216.831338 221.24305,216.831338 C221.487768,216.801495 225.880756,214.252845 226.179193,214.067815 C226.776066,214.336408 227.856407,214.634844 227.856407,214.634844 C228.274218,214.270752 227.719126,209.370421 227.719126,209.382359 C227.474408,209.089891 225.707663,208.62433 225.707663,208.62433 L225.230164,208.493017 L225.271945,208.988422 L225.76735,213.351567 L224.233386,212.933755 C223.97673,212.975536 219.267399,215.721154 219.267399,215.721154" id="Fill-15" fill="#CB2437"></path>
                <path d="M242.426086,216.795526 L242.432055,216.795526 C242.432055,216.795526 242.438023,216.795526 242.438023,216.801495 C242.432055,216.795526 242.426086,216.795526 242.426086,216.795526" id="Fill-16" fill="#CB2437"></path>
                <path d="M249.731816,217.255118 C249.731816,217.255118 249.737785,217.267056 249.737785,217.273025 C249.737785,217.261087 249.731816,217.261087 249.719878,217.255118 L249.731816,217.255118" id="Fill-17" fill="#CB2437"></path>
                <path d="M271.123757,215.398842 C271.183445,215.034749 271.225226,214.736313 271.249101,214.575157 C271.869849,214.497563 272.974065,214.199127 272.974065,214.199127 C272.986002,214.133471 272.944221,214.020065 272.85469,213.894721 L272.884534,213.888753 L272.800971,213.823097 C272.395097,213.262036 271.332663,212.277195 270.40154,211.453509 C270.658196,212.832287 270.896945,214.151377 271.123757,215.398842" id="Fill-18" fill="#CB2437"></path>
                <path d="M276.543367,212.241382 C276.322524,212.504006 275.659995,216.68212 275.659995,216.68212 C276.101681,217.034275 277.838583,216.365777 277.838583,216.365777 C278.023613,216.138965 278.608549,212.611444 278.69808,212.038445 C279.283016,211.865352 280.11267,211.549009 280.11267,211.549009 C280.11267,211.489322 280.052983,211.375916 279.945546,211.256541 L279.981358,211.244604 L279.861983,211.161041 C278.901017,210.134419 275.39737,207.824519 275.39737,207.824519 C275.075059,207.794676 273.463501,208.415424 273.463501,208.415424 L272.878565,208.654173 L277.683395,211.799696 L276.543367,212.241382" id="Fill-19" fill="#CB2437"></path>
                <path d="M282.130102,209.955357 C281.939103,210.247825 282.070415,214.37222 282.070415,214.37222 C282.56582,214.652751 284.123659,213.835034 284.123659,213.835034 C284.272877,213.578378 284.183346,210.289606 284.153503,209.573358 C284.714564,209.370421 285.472593,209.012297 285.472593,209.012297 C285.472593,208.940672 285.400968,208.845173 285.287562,208.719829 L285.311437,208.707892 L285.209969,208.648204 C284.201253,207.687238 280.494669,205.562369 280.494669,205.562369 C280.172357,205.5564 278.69808,206.278617 278.69808,206.278617 L278.148957,206.541241 L283.138818,209.42414 L282.130102,209.955357" id="Fill-20" fill="#CB2437"></path>
                <path d="M287.310963,207.299271 C287.13787,207.621582 287.6094,211.698227 287.6094,211.698227 C288.116742,211.960852 289.579082,211.089417 289.579082,211.089417 C289.716363,210.814855 289.364207,207.526083 289.298551,206.851616 C289.811862,206.606898 290.474392,206.21893 290.474392,206.21893 C290.474392,206.147305 290.396798,206.051805 290.277423,205.944368 L290.301298,205.926462 L290.217736,205.89065 C289.203051,205.001308 285.335312,203.067439 285.335312,203.067439 C285.007032,203.073407 283.652129,203.873218 283.652129,203.873218 L283.138818,204.183592 L288.236117,206.762085 L287.310963,207.299271" id="Fill-21" fill="#CB2437"></path>
                <path d="M293.834789,208.00955 L293.834789,208.015519 L293.834789,208.00955 L293.834789,208.00955 Z M292.294855,204.225373 C292.199356,204.583497 293.643789,208.451236 293.643789,208.451236 C294.169038,208.600455 295.344878,207.603676 295.344878,207.603676 C295.416503,207.293302 294.324225,204.28506 294.055632,203.533 C294.503287,203.240532 295.10016,202.727221 295.10016,202.727221 C294.998692,202.172128 289.746206,200.148728 289.746206,200.148728 C289.40002,200.208415 288.349523,201.133569 288.349523,201.133569 L287.93768,201.491693 L293.130478,203.509125 L292.294855,204.225373 L292.294855,204.225373 Z" id="Fill-22" fill="#CB2437"></path>
                <path d="M297.971121,204.875965 C298.508307,205.019214 299.678179,204.010498 299.678179,204.010498 C299.708023,203.879186 299.552836,203.324094 299.331992,202.661565 C298.567995,201.861754 297.798028,201.085819 296.992249,200.333759 L296.622187,200.650101 C296.526688,201.002257 297.971121,204.875965 297.971121,204.875965" id="Fill-23" fill="#CB2437"></path>
                <path d="M292.270981,197.904484 L295.917877,199.307136 C295.058379,198.531201 294.180975,197.779141 293.297603,197.039018 C292.963354,197.289704 292.676854,197.54636 292.676854,197.54636 L292.270981,197.904484" id="Fill-24" fill="#CB2437"></path>
                <path d="M295.046442,297.833023 C294.491349,297.994178 293.21404,302.613978 293.21404,302.613978 C293.273728,302.799009 293.643789,303.181008 293.960132,303.485413 C294.425693,303.103414 294.879317,302.691572 295.326972,302.297635 L296.079033,299.581862 L296.884812,300.232454 C296.956436,300.244391 297.284717,300.178735 297.738341,300.05936 C298.627682,299.187925 299.511054,298.286646 300.352646,297.367461 C298.890306,297.761398 296.41925,298.495552 295.894002,298.650739 C295.553784,298.262771 295.046442,297.833023 295.046442,297.833023" id="Fill-25" fill="#CB2437"></path>
                <path d="M297.153405,293.869783 C296.896749,293.822034 292.050137,295.290342 291.441327,295.475373 C290.987703,295.093374 290.193861,294.63975 290.193861,294.63975 C289.692488,294.848656 288.397272,299.677361 288.397272,299.677361 C288.552459,300.047423 289.913331,300.841264 289.913331,300.841264 L290.301298,301.05017 L291.596514,296.269214 L292.760417,296.94965 C293.02901,296.979494 298.54412,295.314217 298.54412,295.314217 C298.609776,294.723312 297.153405,293.869783 297.153405,293.869783" id="Fill-26" fill="#CB2437"></path>
                <path d="M291.47117,290.372106 C291.208546,290.348231 286.170935,292.192569 285.866529,292.305975 C285.371124,291.959789 284.511627,291.547946 284.511627,291.547946 C284.028159,291.780727 283.22238,296.657182 283.22238,296.657182 C283.401442,297.015306 284.887657,297.725585 284.887657,297.725585 L285.2995,297.928522 L286.09931,293.075942 L287.388556,293.720565 C287.657149,293.738471 293.005135,291.756852 293.005135,291.756852 C293.058853,291.15401 291.47117,290.372106 291.47117,290.372106" id="Fill-27" fill="#CB2437"></path>
                <path d="M286.517121,288.18158 L286.529059,288.18158 L286.511153,288.169643 C286.117216,287.656332 284.965251,287.178833 284.965251,287.178833 C284.702626,287.178833 279.820202,289.261921 279.521765,289.381296 C278.990548,289.041078 278.047488,288.671016 278.047488,288.671016 C277.581927,288.927672 277.176053,293.845909 277.176053,293.845909 C277.384959,294.174189 278.972642,294.812843 278.972642,294.812843 L279.414328,294.997874 L279.808265,290.11545 L281.181073,290.700386 C281.455635,290.700386 286.654402,288.485986 286.654402,288.485986 C286.654402,288.390486 286.600684,288.271111 286.517121,288.18158" id="Fill-28" fill="#CB2437"></path>
                <path d="M280.035077,285.489681 C280.01717,285.394182 279.951514,285.298682 279.867952,285.209151 L279.861983,285.209151 C279.378516,284.731652 278.059426,284.379497 278.059426,284.379497 C277.80277,284.403372 273.32622,287.00574 273.117314,287.131083 C272.532378,286.86249 271.428163,286.570022 271.428163,286.570022 C270.998414,286.922178 271.589318,291.840414 271.577381,291.816539 C271.834036,292.109007 273.594813,292.574568 273.594813,292.574568 L274.072312,292.717818 L273.499313,287.829425 L275.06909,288.259174 C275.331714,288.241268 280.035077,285.489681 280.035077,285.489681" id="Fill-29" fill="#CB2437"></path>
                <path d="M271.845974,282.899251 L271.840005,282.899251 C271.774349,282.839564 271.696756,282.785845 271.601256,282.738095 C271.553506,283.018626 271.505756,283.28125 271.458006,283.56178 C271.810162,283.329 272.042942,283.167844 272.042942,283.167844 C272.013099,283.072344 271.941474,282.982813 271.845974,282.899251" id="Fill-30" fill="#CB2437"></path>
                <path d="M222.765077,288.975422 C222.973983,288.718766 223.630544,284.522747 223.630544,284.522747 C223.170951,284.182529 221.440018,284.845058 221.440018,284.845058 C221.254988,285.077839 220.693927,288.563579 220.598427,289.160453 C220.013491,289.321608 219.177868,289.649889 219.177868,289.649889 C219.1719,289.721514 219.422586,290.043825 219.422586,290.043825 C220.383552,291.070447 223.887199,293.392285 223.887199,293.392285 C224.197573,293.404222 225.809131,292.783474 225.809131,292.783474 L226.406005,292.550693 L221.625049,289.405171 L222.765077,288.975422" id="Fill-31" fill="#CB2437"></path>
                <path d="M217.172374,291.243541 C217.339498,290.945104 217.220124,286.838615 217.220124,286.838615 C216.712781,286.546147 215.184785,287.363864 215.184785,287.363864 C215.017661,287.620519 215.095254,290.945104 215.113161,291.631508 C214.558068,291.828477 213.823914,292.180632 213.823914,292.180632 C213.817945,292.246288 214.086538,292.550693 214.086538,292.550693 C215.101223,293.517628 218.783932,295.642497 218.783932,295.642497 C219.106243,295.642497 220.592458,294.932218 220.592458,294.932218 L221.14755,294.663625 L216.133814,291.780727 L217.172374,291.243541" id="Fill-32" fill="#CB2437"></path>
                <path d="M211.973607,293.881721 C212.134763,293.565378 211.681139,289.488733 211.681139,289.488733 C211.179765,289.244015 209.711457,290.11545 209.711457,290.11545 C209.55627,290.384043 209.926331,293.672815 209.997956,294.347282 C209.478676,294.592 208.816147,294.985937 208.816147,294.985937 C208.822115,295.045624 208.89374,295.141124 209.007146,295.242592 L208.995209,295.25453 L209.03699,295.278405 C210.009893,296.155808 213.949258,298.137428 213.949258,298.137428 C214.277538,298.125491 215.626472,297.319712 215.626472,297.319712 L216.15172,297.015306 L211.042484,294.430844 L211.973607,293.881721" id="Fill-33" fill="#CB2437"></path>
                <path d="M206.995683,296.979494 C207.091183,296.62137 205.64078,292.735724 205.64078,292.735724 C205.109563,292.598443 203.94566,293.60119 203.94566,293.60119 C203.868066,293.905596 204.972282,296.937713 205.240875,297.671867 C204.799189,297.952397 204.202316,298.483615 204.202316,298.483615 C204.291847,299.032738 209.538363,301.05017 209.538363,301.05017 C209.88455,300.978545 210.958922,300.047423 210.958922,300.047423 L211.358827,299.707205 L206.148123,297.707679 L206.995683,296.979494" id="Fill-34" fill="#CB2437"></path>
                <path d="M201.313448,296.328902 C200.776262,296.203558 199.612359,297.194368 199.612359,297.194368 C199.570578,297.355524 199.827234,298.17324 200.12567,299.044676 C200.7882,299.719142 201.468636,300.375703 202.15504,301.026295 L202.67432,300.572671 C202.769819,300.208579 201.313448,296.328902 201.313448,296.328902" id="Fill-35" fill="#CB2437"></path>
                <path d="M207.037464,303.300383 L202.85935,301.700762 C203.838223,302.578166 204.835001,303.425726 205.855655,304.267318 C206.243622,303.986787 206.63159,303.664475 206.63159,303.664475 L207.037464,303.300383" id="Fill-36" fill="#CB2437"></path>
                <path d="M227.951907,286.617772 C227.337127,286.725209 226.316474,287.00574 226.316474,287.00574 C226.304536,287.071396 226.346317,287.178833 226.441817,287.316114 L226.417942,287.328051 L226.495536,287.387739 C226.841722,287.865237 227.65347,288.635204 228.459249,289.357421 C228.280187,288.414361 228.113063,287.507113 227.951907,286.617772" id="Fill-37" fill="#CB2437"></path>
                <path d="M453.981881,250.57259 C453.916225,250.560652 453.79685,250.548715 453.647632,250.530808 C453.761038,250.560652 453.8446,250.578558 453.89235,250.596465 C453.9401,250.584527 453.981881,250.578558 453.981881,250.57259" id="Fill-38" fill="#C1C9CA"></path>
                <path d="M375.588533,261.226779 C375.421409,263.196461 375.212503,265.142268 374.955848,267.094044 C374.955848,267.135825 374.94391,267.195513 374.937942,267.243263 C374.687255,269.153257 374.388818,271.057283 374.054569,272.955341 C374.042631,273.015028 374.030694,273.074715 374.024725,273.128434 C373.67257,275.03246 373.290571,276.906642 372.87276,278.774856 C372.860822,278.8047 372.854853,278.840512 372.836947,278.876325 C367.160682,303.676413 354.184655,325.695071 336.290391,342.586588 C336.290391,342.586588 336.278454,342.598525 336.266516,342.610462 C334.911614,343.89374 333.526867,345.141206 332.118246,346.364796 C332.082434,346.388671 332.046622,346.424483 332.010809,346.448358 C330.602188,347.660011 329.175661,348.847789 327.707352,349.987817 C327.683477,350.011692 327.653634,350.035567 327.629759,350.059442 C306.763066,366.47346 280.655825,376.488995 252.25659,377.115712 C250.639063,384.367723 249.564691,388.892023 249.42741,388.868148 C249.29013,388.892023 248.215757,384.367723 246.598231,377.115712 C218.175121,376.500932 192.032068,366.485397 171.159406,350.047505 C171.1415,350.035567 171.117625,350.011692 171.099719,349.987817 C169.625442,348.847789 168.192945,347.660011 166.772387,346.436421 C166.748512,346.412546 166.718668,346.388671 166.694793,346.364796 C165.274235,345.141206 163.877551,343.881803 162.51668,342.586588 L162.510711,342.586588 C144.598541,325.683134 131.616546,303.628663 125.94028,278.8047 C125.934311,278.786794 125.928342,278.762919 125.922374,278.739044 C125.492625,276.858893 125.104657,274.972773 124.764439,273.062778 C124.752502,273.015028 124.746533,272.967278 124.734596,272.907591 C124.400347,271.009534 124.10191,269.099539 123.851223,267.171638 C123.845254,267.135825 123.833317,267.082107 123.827348,267.046294 C123.58263,265.100487 123.367756,263.136774 123.2066,261.167092 C123.2066,261.167092 123.2066,261.167092 123.2066,261.155154 C84.6784243,256.123512 49.4032084,251.384337 45.9592491,250.650183 C45.9950615,362.850438 137.25103,454.106407 249.409504,454.106407 C361.51426,454.106407 452.734416,362.928032 452.841853,250.811339 C446.359808,251.903617 412.391745,256.439855 375.588533,261.226779" id="Fill-39" fill="#111B2B"></path>
                <path d="M123.224506,239.8229 C123.385662,237.883062 123.600536,235.937255 123.851223,234.015322 C123.857192,233.949666 123.869129,233.878042 123.875098,233.806417 C124.125785,231.920297 124.424222,230.040146 124.758471,228.177901 C124.776377,228.082401 124.794283,227.99287 124.806221,227.903339 C125.146438,226.041094 125.522469,224.196756 125.94028,222.370323 C125.958186,222.29273 125.982061,222.215136 125.999967,222.137543 C126.423747,220.281266 126.889309,218.448865 127.396651,216.628401 C127.408588,216.592589 127.420526,216.562745 127.432463,216.526933 C133.711571,194.084494 146.042975,174.142955 162.558461,158.570529 C162.570398,158.558592 162.582336,158.552623 162.588305,158.546654 C163.937238,157.263377 165.327953,156.027849 166.730606,154.816196 C166.772387,154.774415 166.814168,154.738602 166.855949,154.70279 C168.252633,153.497106 169.673191,152.333203 171.123594,151.187206 C171.165375,151.145425 171.213125,151.109612 171.254906,151.085737 C172.717246,149.933772 174.20346,148.817618 175.719519,147.731309 C175.731456,147.719371 175.743394,147.707434 175.7613,147.695496 C195.816245,133.328755 220.20449,124.668122 246.562418,124.083186 L246.586293,124.083186 C248.20382,116.777456 249.29013,112.223312 249.42741,112.241219 C249.61841,112.181531 250.740532,116.747613 252.393871,124.089155 C280.745356,124.745716 306.804847,134.749313 327.629759,151.145425 C327.659602,151.169299 327.689446,151.199143 327.71929,151.223018 C329.175661,152.363046 330.602188,153.550824 332.010809,154.756508 C332.046622,154.786352 332.088403,154.822164 332.124215,154.852008 C333.526867,156.06963 334.905645,157.317095 336.260547,158.582467 C336.266516,158.594404 336.290391,158.61231 336.29636,158.618279 C352.782002,174.190705 365.0955,194.114338 371.368639,216.53887 C371.380576,216.568714 371.398482,216.604526 371.404451,216.640339 C371.905825,218.460803 372.383324,220.293204 372.801135,222.143511 C372.819041,222.221105 372.836947,222.29273 372.860822,222.376292 C373.278634,224.208693 373.654664,226.041094 373.988913,227.909308 C374.00085,227.99287 374.024725,228.082401 374.036663,228.171932 C374.376881,230.040146 374.66338,231.914328 374.920035,233.806417 C374.926004,233.878042 374.931973,233.937729 374.94391,234.009354 C375.200566,235.931286 375.409471,237.865156 375.576596,239.816932 L375.576596,239.828869 C412.451432,244.627731 446.431433,249.199781 452.841853,250.369653 C452.71651,138.258929 361.502322,47.0984596 249.409504,47.0984596 C137.274905,47.0984596 46.0428114,138.306678 45.9592491,250.459184 C49.4270833,249.605655 84.6963305,244.848574 123.218537,239.834838 C123.218537,239.834838 123.218537,239.828869 123.224506,239.8229" id="Fill-40" fill="#111B2B"></path>
                <polyline id="Fill-41" fill="#FFFFFF" points="329.378598 367.559769 332.392808 372.806286 324.770735 377.235086 330.655907 387.459527 338.295886 383.006852 341.333971 388.283212 333.705929 392.72395 341.829376 406.774349 349.463386 402.309736 352.513409 407.604003 338.03923 415.984105 314.886512 375.975684 329.378598 367.559769"></polyline>
                <path d="M398.335377,297.051119 L395.392792,304.338942 L389.107715,301.7127 C388.14078,301.318763 387.520032,301.282951 387.114158,301.7127 C387.01269,301.832074 385.472756,305.956469 385.383225,306.159406 C385.043008,306.983091 385.592131,307.46059 386.756034,307.926151 L393.399235,310.624019 C394.78995,311.179111 395.374886,311.226861 396.81335,310.09877 L402.23296,303.950975 C405.038265,301.7127 407.736133,300.745765 410.523532,301.879824 L419.452757,305.467033 C426.543613,308.337994 427.59411,309.686928 424.884305,316.658409 C424.794774,316.915064 423.230965,321.123021 423.129497,321.379677 C420.151099,328.774938 418.408229,329.306155 411.168155,326.381476 L404.465267,323.617952 L407.46754,316.22866 L415.167206,319.398057 C416.378859,319.875556 417.136888,319.833775 417.500981,318.932496 C417.590512,318.687778 419.058821,314.539508 419.005102,314.34254 C418.885727,313.87101 418.372416,313.512886 417.518887,313.160731 L408.434475,309.513834 C407.061666,308.952773 405.151671,312.838419 403.635613,314.01426 L398.997907,317.601468 C396.311977,319.702463 393.960296,319.445807 390.946085,318.222217 L384.834102,315.751161 C377.546278,312.802607 376.728562,311.202986 379.70696,303.801756 C379.808428,303.545101 381.372236,299.325206 381.455799,299.080488 C384.350634,292.216444 386.183036,292.04932 393.106767,294.848656 L398.335377,297.051119" id="Fill-42" fill="#FFFFFF"></path>
                <polyline id="Fill-43" fill="#FFFFFF" points="236.89307 391.291454 231.491366 437.202953 223.630544 436.2778 229.038216 390.372269 236.89307 391.291454"></polyline>
                <polyline id="Fill-44" fill="#FFFFFF" points="119.195611 304.732879 101.552034 319.344339 101.725128 319.690525 123.815411 314.724539 128.130805 323.946232 86.2123888 343.463991 83.2339907 337.071478 108.117641 325.790571 107.526737 324.507293 80.673404 331.556368 78.9424712 327.796066 101.24166 310.910518 101.056629 310.492707 76.3997907 322.292893 73.3975177 315.888442 115.315934 296.364714 119.195611 304.732879"></polyline>
                <path d="M179.843914,396.436502 C180.416912,396.758814 184.756181,398.800121 185.13818,398.835933 C185.937991,398.949339 186.409521,398.436028 186.97655,397.182594 L190.70104,389.124804 C191.441163,387.489371 191.775412,386.779091 190.921883,386.116562 C190.635384,385.895719 186.337896,383.842474 185.75296,383.597756 L179.843914,396.436502 L179.843914,396.436502 Z M193.763,380.708889 C200.537513,383.8186 200.6927,386.223999 197.642677,392.831387 L195.111934,398.298747 C193.363095,402.088893 192.085786,404.070513 188.516484,404.0347 C190.677165,406.284913 190.384697,408.547063 188.797014,411.996991 L182.21947,426.280171 L175.080864,422.991398 L182.249313,407.436879 C182.64325,406.565443 182.702937,405.96857 182.392563,405.479134 C182.12397,405.085198 177.748888,402.948391 176.949078,402.691735 L168.921131,420.1085 L161.734776,416.789884 L181.091379,374.805812 L193.763,380.708889 L193.763,380.708889 Z" id="Fill-45" fill="#FFFFFF"></path>
                <polyline id="Fill-46" fill="#FFFFFF" points="273.642563 389.530678 285.209969 410.737588 285.544218 410.677901 280.936355 388.074307 287.633274 386.731342 296.658 432.093717 289.787987 433.44862 278.041519 411.644836 277.719208 411.716461 282.494195 434.916928 275.749526 436.253925 266.712863 390.921393 273.642563 389.530678"></polyline>
                <path d="M368.921458,358.487294 C369.410894,358.021733 372.431073,354.619555 372.610135,354.255462 C372.92051,353.545182 372.556417,352.936372 371.523826,352.052999 L364.803032,346.245421 C363.454098,345.057643 362.845287,344.544332 361.961915,345.188955 C361.669447,345.397861 358.63733,348.764227 358.255331,349.241726 L368.921458,358.487294 L368.921458,358.487294 Z M356.715398,341.792746 C361.597822,336.152293 364.767219,335.83595 370.282329,340.581093 L374.842442,344.544332 C377.999902,347.260106 379.533866,349.044757 378.537088,352.458873 C381.300612,351.026377 383.371762,351.915718 386.248692,354.416618 L398.144378,364.676871 L393.005298,370.633667 L380.053146,359.418416 C379.354804,358.815574 378.769869,358.582794 378.232682,358.74395 C377.767121,358.893168 374.621599,362.313252 374.132162,363.011594 L388.642154,375.545935 L383.467262,381.532575 L348.508389,351.29497 L356.715398,341.792746 L356.715398,341.792746 Z" id="Fill-47" fill="#FFFFFF"></path>
                <polyline id="Fill-48" fill="#FFFFFF" points="260.935129 64.1033817 260.899316 70.2631149 254.691833 70.2869898 254.524709 110.355099 246.598231 110.313318 246.777293 70.2571461 240.354935 70.2869898 240.390748 64.1451629 260.935129 64.1033817"></polyline>
                <path d="M97.5231391,169.2665 L94.3119604,176.417043 L87.9433216,173.516238 C86.9584805,173.068583 86.3735446,173.026802 85.9557333,173.438645 C85.8303898,173.558019 84.1889881,177.431727 84.0994571,177.604821 C83.7234269,178.440443 84.2606129,178.947786 85.400641,179.449159 L91.9483418,182.403683 C93.2972756,182.98265 94.3059916,182.009746 95.7683314,180.929405 L101.438628,175.020359 C104.321527,172.889521 106.589645,173.289426 109.341232,174.518985 L118.103333,178.476256 C125.080782,181.603872 126.065623,182.98265 123.075288,189.852662 C122.967851,190.115286 121.344355,194.060619 121.219012,194.323244 C117.948146,201.587193 116.1814,202.046785 109.06667,198.847544 L101.468472,195.511022 L104.721432,188.223198 L113.322377,192.019313 C114.522092,192.556499 115.28609,192.526655 115.680027,191.637314 C115.769558,191.404533 117.357241,187.495012 117.303522,187.286107 C117.202054,186.838452 116.724555,186.456453 115.871026,186.074454 L106.941801,182.051527 C105.586898,181.442717 104.011153,183.997335 102.453313,185.119456 L97.6723574,188.533572 C94.8849588,190.533098 92.1512788,191.219502 89.1728807,189.888475 L83.1504284,187.172701 C75.9819793,183.961522 75.2537938,182.302214 78.5127224,175.050203 C78.6320971,174.78161 80.291405,170.818371 80.380936,170.58559 C83.5443649,163.84689 85.3827348,163.739453 92.1990286,166.81335 L97.5231391,169.2665" id="Fill-49" fill="#FFFFFF"></path>
                <polyline id="Fill-50" fill="#FFFFFF" points="128.023368 108.958415 132.213419 113.315591 125.707499 119.457418 133.884664 127.950926 140.384615 121.797161 144.610479 126.196118 138.104559 132.343914 149.331747 144.036663 155.86751 137.87693 160.087405 142.281855 147.863439 153.902979 115.817308 120.585508 128.023368 108.958415"></polyline>
                <path d="M191.232257,105.669643 L196.353431,103.574617 L186.582614,84.7731064 L185.538085,85.2923862 L191.232257,105.669643 L191.232257,105.669643 Z M188.868639,74.0174483 L211.143953,114.939086 L204.011316,117.774235 L199.37361,109.006165 L192.825909,111.644345 L195.458121,121.18835 L188.361296,124.011561 L176.364142,78.8222789 L188.868639,74.0174483 L188.868639,74.0174483 Z" id="Fill-51" fill="#FFFFFF"></path>
                <polyline id="Fill-52" fill="#FFFFFF" points="327.731227 80.8576171 325.481015 86.5816327 319.876374 84.2836702 305.13957 121.576318 297.78609 118.663576 312.49305 81.3888344 306.679504 79.1087781 308.929716 73.3787938 327.731227 80.8576171"></polyline>
                <polyline id="Fill-53" fill="#FFFFFF" points="377.546278 114.419806 350.710852 144.269443 357.169021 150.220271 353.098345 154.744571 340.737098 143.499477 371.661107 109.131508 377.546278 114.419806"></polyline>
                <polyline id="Fill-54" fill="#FFFFFF" points="421.9835 176.984072 416.587765 179.670003 412.517089 171.839024 401.970336 177.109416 406.035044 184.940394 400.58559 187.656168 396.520882 179.819221 382.010891 187.071232 386.063661 194.902211 380.632113 197.635891 373.021978 182.714057 414.385302 162.05627 421.9835 176.984072"></polyline>
                <path d="M234.660763,180.320595 C228.703967,181.579997 223.003827,183.543711 217.685685,186.175922 C212.033294,188.96929 206.804683,192.490842 202.119227,196.609269 L170.52672,160.349212 C190.623446,142.753385 216.617282,131.74704 245.117985,130.732355 C242.193305,144.114256 238.236035,162.826236 234.660763,180.320595 L234.660763,180.320595 Z M249.42741,112.241219 C249.29013,112.223312 248.20382,116.777456 246.586293,124.083186 L246.562418,124.083186 C220.20449,124.668122 195.804307,133.340692 175.7613,147.695496 C175.743394,147.707434 175.731456,147.719371 175.719519,147.731309 C174.20346,148.817618 172.717246,149.933772 171.254906,151.085737 C171.213125,151.109612 171.165375,151.145425 171.123594,151.187206 C169.673191,152.333203 168.246664,153.497106 166.855949,154.70279 C166.814168,154.738602 166.772387,154.774415 166.730606,154.816196 C165.327953,156.027849 163.937238,157.263377 162.588305,158.546654 C162.582336,158.552623 162.570398,158.558592 162.558461,158.570529 C146.048944,174.142955 133.711571,194.084494 127.432463,216.526933 C127.420526,216.562745 127.408588,216.592589 127.396651,216.628401 C126.889309,218.448865 126.423747,220.281266 125.999967,222.137543 C125.982061,222.215136 125.958186,222.29273 125.94028,222.370323 C125.522469,224.196756 125.146438,226.041094 124.806221,227.903339 C124.794283,227.99287 124.776377,228.082401 124.758471,228.177901 C124.424222,230.040146 124.125785,231.920297 123.875098,233.806417 C123.869129,233.878042 123.857192,233.949666 123.851223,234.015322 C123.600536,235.937255 123.385662,237.883062 123.224506,239.8229 C123.218537,239.828869 123.218537,239.834838 123.218537,239.834838 C125.492625,239.54237 127.772681,239.243933 130.070644,238.945496 C133.090823,207.711113 148.149938,179.962471 170.514783,160.367118 C170.323783,161.053522 184.947181,197.003205 190.27726,209.89567 C185.579867,216.705995 182.040408,224.351943 179.90957,232.56492 C180.85263,232.445546 181.801658,232.33214 182.726812,232.212765 C185.651491,221.564544 191.047227,211.936977 198.281332,203.992592 C199.110986,203.079376 199.970483,202.190035 200.847887,201.330537 C201.904353,200.286009 202.996631,199.28923 204.112785,198.316327 C204.429127,198.035796 204.751439,197.755266 205.067782,197.480704 C213.340447,190.551004 223.242576,185.513393 234.11164,183.036368 C229.945464,203.515094 226.42988,221.77345 225.922537,227.008029 C226.059818,226.996092 226.215005,226.984154 226.328411,226.978186 C232.219551,232.421671 247.630822,248.292533 249.439348,250.548715 L249.42741,112.241219 L249.42741,112.241219 Z" id="Fill-55" fill="#005D53"></path>
                <path d="M179.891663,268.478791 C182.004595,276.649987 185.51421,284.266091 190.157885,291.034635 C193.685407,296.167746 197.851583,300.805452 202.548976,304.864191 L170.825157,339.835001 L170.186502,340.533343 C147.958938,320.914116 133.019198,293.219192 130.058706,262.056433 C147.19494,264.294708 164.623643,266.544921 179.891663,268.478791 L179.891663,268.478791 Z M123.2066,261.167092 C123.367756,263.136774 123.58263,265.100487 123.827348,267.046294 C123.833317,267.082107 123.845254,267.135825 123.851223,267.171638 C124.10191,269.099539 124.400347,271.009534 124.734596,272.907591 C124.746533,272.967278 124.752502,273.015028 124.764439,273.062778 C125.104657,274.972773 125.492625,276.858893 125.922374,278.739044 C125.928342,278.762919 125.934311,278.786794 125.94028,278.8047 C131.610577,303.628663 144.60451,325.683134 162.510711,342.586588 L162.51668,342.586588 C163.877551,343.881803 165.274235,345.141206 166.694793,346.364796 C166.718668,346.388671 166.748512,346.412546 166.772387,346.436421 C168.192945,347.648074 169.625442,348.847789 171.099719,349.987817 C171.117625,350.011692 171.1415,350.035567 171.159406,350.047505 C192.026099,366.47346 218.175121,376.500932 246.598231,377.115712 C246.150576,375.09828 245.667108,372.871942 245.135891,370.460574 C216.462094,369.457826 190.330979,358.314201 170.186502,340.533343 C170.210377,340.557218 170.365564,340.497531 170.658032,340.372187 C170.843063,340.276688 171.105687,340.151344 171.404124,340.008095 C177.635482,336.934197 206.392841,321.057365 217.339498,314.748414 C222.765077,317.45225 228.572655,319.48162 234.654795,320.776835 C234.475733,319.851681 234.284733,318.956371 234.105671,318.049123 C223.582794,315.655661 213.961195,310.868737 205.855655,304.267318 C204.835001,303.425726 203.838223,302.578166 202.85935,301.700762 C202.620601,301.467981 202.393789,301.247138 202.15504,301.026295 C201.468636,300.375703 200.7882,299.719142 200.12567,299.044676 C191.960443,290.736198 185.884272,280.380445 182.714874,268.830946 C204.691752,271.624313 221.66683,273.701432 225.922537,274.077463 C226.059818,274.083431 226.215005,274.107306 226.328411,274.107306 C232.219551,268.687696 247.630822,252.810865 249.439348,250.548715 L45.6608124,250.57259 C45.6608124,250.578558 45.7742183,250.614371 45.9592491,250.650183 C49.4032084,251.384337 84.6784243,256.123512 123.2066,261.155154 L123.2066,261.167092 L123.2066,261.167092 Z" id="Fill-56" fill="#005D53"></path>
                <path d="M249.445317,250.596465 L249.409504,250.596465 C249.415473,250.584527 249.433379,250.566621 249.445317,250.554683 C249.451285,250.542746 249.47516,250.512902 249.487098,250.506934 C251.546311,247.982159 266.647207,232.356015 272.448816,226.966248 C272.592066,226.972217 272.777096,226.990123 272.962127,227.00206 C272.448816,221.761512 268.980982,203.521062 264.850618,183.060243 C264.677525,182.158965 264.486525,181.251717 264.301495,180.338501 C260.762036,162.850111 256.804765,144.126194 253.868148,130.738324 C253.3429,128.332925 252.847495,126.112556 252.393871,124.089155 C250.740532,116.747613 249.61841,112.181531 249.42741,112.241219 L249.439348,250.548715 C247.630822,252.810865 232.219551,268.687696 226.328411,274.107306 C226.215005,274.107306 226.059818,274.083431 225.922537,274.077463 C226.423911,279.300105 229.939495,297.552492 234.105671,318.049123 C234.284733,318.956371 234.475733,319.851681 234.654795,320.776835 C238.242004,338.307005 242.211211,357.078673 245.135891,370.460574 C245.667108,372.871942 246.150576,375.09828 246.598231,377.115712 C248.215757,384.367723 249.29013,388.892023 249.42741,388.868148 L249.445317,250.596465" id="Fill-57" fill="#C1C9CA"></path>
                <path d="M249.439348,250.548715 C247.630822,248.292533 232.219551,232.421671 226.328411,226.978186 C226.215005,226.984154 226.059818,226.996092 225.922537,227.008029 C221.672799,227.384059 204.69772,229.449241 182.726812,232.212765 C181.801658,232.33214 180.85263,232.445546 179.90957,232.56492 C164.641549,234.486852 147.212847,236.725128 130.070644,238.945496 C127.772681,239.243933 125.492625,239.54237 123.218537,239.834838 C84.6963305,244.848574 49.4270833,249.605655 45.9592491,250.459184 C45.7682496,250.506934 45.6488749,250.548715 45.6608124,250.57259 L249.439348,250.548715" id="Fill-58" fill="#C1C9CA"></path>
                <path d="M249.487098,250.596465 C251.45678,253.007833 266.706894,268.711571 272.556253,274.107306 C272.66369,274.107306 272.80694,274.095369 272.944221,274.083431 C277.128303,273.71337 294.121288,271.636251 316.16979,268.854821 C317.100912,268.735446 318.043972,268.616071 318.987032,268.502665 C334.231178,266.568796 351.630037,264.342458 368.754333,262.11612 C371.040358,261.811715 373.320415,261.519247 375.588533,261.226779 C412.391745,256.439855 446.359808,251.903617 452.841853,250.811339 C453.259664,250.733745 453.570039,250.674058 453.749101,250.632277 L249.487098,250.596465" id="Fill-59" fill="#C1C9CA"></path>
                <path d="M318.975095,232.558951 C316.838288,224.328068 313.280923,216.664214 308.565623,209.841951 C305.056008,204.762559 300.895801,200.154696 296.222282,196.13177 L327.964008,160.844617 L328.351975,160.420837 C350.686977,180.004252 365.716248,207.734988 368.742396,238.933559 C351.618099,236.707221 334.219241,234.480884 318.975095,232.558951 L318.975095,232.558951 Z M375.576596,239.816932 C375.409471,237.871124 375.200566,235.931286 374.94391,234.009354 C374.931973,233.937729 374.926004,233.878042 374.920035,233.806417 C374.66338,231.914328 374.376881,230.040146 374.036663,228.171932 C374.024725,228.082401 374.00085,227.99287 373.988913,227.909308 C373.654664,226.041094 373.278634,224.208693 372.860822,222.376292 C372.836947,222.29273 372.819041,222.221105 372.801135,222.143511 C372.383324,220.293204 371.905825,218.460803 371.404451,216.640339 C371.398482,216.604526 371.380576,216.568714 371.368639,216.53887 C365.0955,194.114338 352.782002,174.190705 336.29636,158.618279 C336.290391,158.61231 336.266516,158.594404 336.260547,158.582467 C334.905645,157.317095 333.526867,156.06963 332.124215,154.852008 C332.088403,154.822164 332.046622,154.786352 332.010809,154.756508 C330.602188,153.550824 329.175661,152.363046 327.71929,151.223018 C327.689446,151.199143 327.659602,151.169299 327.629759,151.145425 C306.810816,134.755282 280.739387,124.745716 252.393871,124.089155 C252.847495,126.112556 253.3429,128.332925 253.868148,130.738324 C282.339008,131.788821 308.285093,142.82501 328.351975,160.420837 C328.316163,160.414868 292.682823,179.658065 281.372073,186.259485 C276.018119,183.603398 270.294103,181.609841 264.301495,180.338501 C264.486525,181.251717 264.677525,182.158965 264.850618,183.060243 C275.457058,185.483549 285.144313,190.360005 293.297603,197.039018 C294.180975,197.779141 295.058379,198.531201 295.917877,199.307136 C296.28197,199.641385 296.628156,199.981603 296.992249,200.333759 C297.798028,201.085819 298.567995,201.861754 299.331992,202.661565 C307.198783,210.844698 313.048142,220.967671 316.157853,232.200827 C294.30035,229.449241 277.396896,227.401966 272.962127,227.00206 C272.777096,226.990123 272.592066,226.972217 272.448816,226.966248 C266.647207,232.356015 251.546311,247.982159 249.487098,250.506934 C249.47516,250.512902 249.451285,250.542746 249.445317,250.554683 C249.433379,250.566621 249.415473,250.584527 249.409504,250.596465 L249.445317,250.596465 L249.42741,388.868148 C249.564691,388.892023 250.639063,384.367723 252.25659,377.115712 C280.655825,376.488995 306.769035,366.47346 327.629759,350.059442 C327.653634,350.035567 327.683477,350.011692 327.707352,349.987817 C329.175661,348.847789 330.602188,347.660011 332.010809,346.448358 C332.046622,346.424483 332.082434,346.388671 332.118246,346.364796 C333.526867,345.141206 334.911614,343.89374 336.266516,342.610462 C336.278454,342.598525 336.290391,342.586588 336.290391,342.586588 C354.184655,325.695071 367.160682,303.676413 372.836947,278.876325 C372.854853,278.840512 372.860822,278.8047 372.87276,278.774856 C373.290571,276.906642 373.67257,275.03246 374.024725,273.128434 C374.030694,273.074715 374.042631,273.015028 374.054569,272.955341 C374.388818,271.069221 374.687255,269.153257 374.937942,267.243263 C374.94391,267.195513 374.955848,267.135825 374.955848,267.094044 C375.212503,265.142268 375.421409,263.196461 375.588533,261.226779 C373.320415,261.519247 371.040358,261.811715 368.754333,262.11612 C363.078068,321.475177 313.985234,368.317798 253.71893,370.460574 C256.649578,357.078673 260.612817,338.307005 264.200026,320.776835 C270.389603,319.469682 276.304618,317.392563 281.801822,314.611133 C287.406463,311.764047 292.593292,308.230557 297.236967,304.082287 L327.790914,341.243622 C328.220663,341.082467 314.223983,303.348133 309.049091,290.569074 C313.53161,283.913936 316.933788,276.476894 318.987032,268.502665 C318.043972,268.616071 317.100912,268.735446 316.16979,268.854821 C313.209298,279.634354 307.718063,289.369358 300.352646,297.367461 C299.511054,298.286646 298.627682,299.187925 297.738341,300.05936 C296.950468,300.829327 296.150657,301.575419 295.326972,302.297635 C294.879317,302.691572 294.425693,303.103414 293.960132,303.485413 C285.657624,310.492707 275.689838,315.578068 264.743181,318.061061 C268.921294,297.540555 272.436879,279.252355 272.944221,274.083431 C272.80694,274.095369 272.66369,274.107306 272.556253,274.107306 C266.706894,268.711571 251.45678,253.007833 249.487098,250.596465 L453.749101,250.632277 L453.969944,250.632277 C453.969944,250.626308 453.928163,250.614371 453.89235,250.596465 C453.8446,250.578558 453.761038,250.560652 453.647632,250.530808 C453.462601,250.489027 453.182071,250.435309 452.841853,250.369653 C446.431433,249.199781 412.451432,244.627731 375.576596,239.828869 L375.576596,239.816932 L375.576596,239.816932 Z" id="Fill-60" fill="#005D53"></path>
                <path d="M156.016729,356.577299 L127.40262,393.344698 L121.965103,387.937026 L128.142743,380.171703 L123.218537,375.205717 L115.506934,381.407231 L110.093292,376.023433 L146.759223,347.00345 L156.016729,356.577299 L156.016729,356.577299 Z M128.065149,371.355884 L131.920951,375.253467 L145.273008,358.779762 L144.479167,357.98592 L128.065149,371.355884 L128.065149,371.355884 Z" id="Fill-62" fill="#FFFFFF"></path>
            </g>
        </g>
    </g>
</svg>