<?xml version="1.0" encoding="UTF-8" standalone="no"?>
<svg width="500px" height="502px" viewBox="0 0 500 502" version="1.1" xmlns="http://www.w3.org/2000/svg" xmlns:xlink="http://www.w3.org/1999/xlink">
    <!-- Generator: Sketch 39.1 (31720) - http://www.bohemiancoding.com/sketch -->
    <title>STL</title>
    <desc>Created with Sketch.</desc>
    <defs></defs>
    <g id="MLB" stroke="none" stroke-width="1" fill="none" fill-rule="evenodd">
        <g id="STL">
            <g transform="translate(0.000000, 13.000000)">
                <g id="Group-4">
                    <path d="M282.94382,255.320471 L296.623596,259.937388 L277.634831,264.734259 C277.634831,264.734259 276.101124,263.705153 274.044944,263.536447 L282.94382,255.320471 L282.94382,255.320471 Z M269.258427,250.090588 L271.398876,251.024094 L255.573034,266.275106 C249.247191,266.275106 247.08427,272.595953 247.08427,272.595953 L235.758427,275.762 C235.247191,275.244635 232.5,275.008447 232.5,275.008447 L246.679775,262.681671 C258.308989,259.088235 269.258427,250.090588 269.258427,250.090588 L269.258427,250.090588 Z M383.438202,358.377271 L363.207865,358.377271 L363.02809,359.0296 C360.382022,358.607835 357.488764,358.664071 354.483146,359.232047 C343.264045,361.340871 334.679775,368.134094 328.752809,379.443012 C329.410112,373.549553 328.735955,368.960753 325.955056,365.395435 C322.724719,361.273388 318.174157,358.967741 312.786517,358.737176 C310.825843,358.652824 308.780899,358.860894 306.685393,359.338894 L306.837079,358.697812 L276.719101,358.697812 L276.735955,358.641576 L272.713483,358.641576 C278.168539,355.9704 281.94382,350.374988 281.94382,343.902306 C281.94382,334.854047 274.58427,327.4816 265.539326,327.4816 C258.640449,327.4816 252.735955,331.777976 250.320225,337.828894 L254.859551,320.013553 L219.573034,333.937412 L213.803371,359.232047 C201.55618,357.460635 193.286517,363.893953 188.073034,370.338518 C189,368.640212 190.460674,365.957788 190.337079,366.154612 L193.91573,360.407365 L159.129213,360.390494 L160.106742,356.690212 L132.08427,356.690212 C132.08427,356.690212 126.842697,377.7672 124.44382,385.257741 C125.668539,379.842282 130.61236,358.664071 130.61236,358.664071 L106.483146,358.664071 C157.966292,340.814988 194.303371,327.273529 214.764045,318.275882 C224.331461,314.069482 272.41573,296.574682 288.511236,290.7712 C300.657303,286.396094 315.308989,281.318047 332.033708,275.683271 C343.106742,292.553859 371.449438,335.478259 388.44382,358.444753 C387.38764,358.388518 385.848315,358.377271 383.438202,358.377271 L383.438202,358.377271 Z M101.623596,441.616753 C85.5449438,444.512871 68.9325843,447.498965 54.7247191,440.458306 C44.5786517,435.442118 36.4325843,421.630729 36.1741573,409.022776 C35.9438202,397.607012 37.4606742,385.741365 41.5842697,373.229012 C42.752809,374.483059 44.1797753,375.186 45.5955056,375.697741 C48.7696629,376.850565 53.3483146,376.805576 57.1685393,375.512165 C63.0730337,373.527059 68.8202247,371.575694 74.4438202,369.658071 C74.1235955,369.995482 73.8089888,370.293529 73.488764,370.647812 C61.5,384.121788 56.5168539,400.058871 59.5393258,414.781271 C57.8146067,415.821624 55.4157303,417.148776 52.8483146,418.369082 C52.8483146,418.369082 46.2359551,421.523882 45.9157303,421.686965 L44.1179775,422.766682 L44.1179775,424.864259 C44.1123596,426.961835 44.1123596,426.961835 52.1179775,431.7812 C52.1460674,431.803694 55.4438202,433.963129 57.258427,437.747765 L59.3932584,442.212847 L64.3370787,442.089129 C68.8539326,441.976659 72.4494382,439.5248 74.6685393,437.567812 C82.3146067,440.913812 90.3988764,440.126518 97.4831461,435.346518 C103.477528,438.923082 109.702247,439.626024 112.921348,439.716 C109.11236,440.272729 105.325843,440.953176 101.623596,441.616753 L101.623596,441.616753 Z M487.662921,411.598353 C484,409.765082 480.08427,408.724729 475.97191,408.482918 C475.601124,403.202424 473.882022,398.062518 472.410112,393.749271 C471.780899,391.882259 471.174157,390.122094 470.792135,388.648729 C468.949438,381.6868 468.449438,378.841294 470.101124,374.314353 C473.623596,364.675624 461.359551,359.136447 456.511236,356.937647 C456.511236,356.937647 455.005618,356.2572 455.011236,356.2572 C453.589888,355.610494 452.769663,355.925412 450.589888,356.768941 C448.831461,357.455012 446.803371,358.815906 444.129213,361.279012 C446.348315,357.623718 447.780899,353.023671 448.151685,348.153694 C449.595506,347.107718 450.932584,345.460024 452.011236,343.294965 C455.668539,335.995624 455.825843,323.860047 445.337079,311.668235 C441.089888,306.719529 411.207865,280.811929 384.921348,258.272824 L384.820225,258.188471 C394.061798,255.208 408.202247,250.641694 408.08427,250.675435 C410.067416,250.146824 413.264045,248.667835 416.191011,251.322141 C418.780899,253.835859 423.865169,254.763741 428.252809,251.665176 C435.865169,246.305953 431.640449,234.513412 430.08427,230.121435 C427.348315,222.400329 423.477528,219.487341 420.713483,218.402 C418.02809,217.356024 415.196629,217.294165 412.741573,218.598824 C408.926966,220.634541 408.005618,223.901812 407.567416,226.567365 C407.078652,229.463482 402.466292,230.143929 394.247191,232.213388 C394.247191,232.213388 366.089888,239.900753 364.08427,240.468729 L363.94382,240.350635 L357.123596,234.547153 C355.797753,232.348353 353.179775,228.423129 350.101124,225.915035 C349.567416,217.097341 342.730337,206.609459 337.123596,202.318706 C336.825843,196.183435 331.910112,187.303882 326.674157,184.064729 C303.151685,142.523718 282.151685,115.862565 262.488764,102.607906 L261.842697,102.174894 C258.320225,99.8130118 258.022472,99.4756 257.893258,97.6367059 C256.679775,81.2666118 252.297753,65.5769647 246.741573,57.1585412 C248.938202,53.6269647 252.258427,47.3398588 254.55618,38.6177647 C254.55618,38.6177647 257.033708,29.2039765 257.033708,29.2096 L254.191011,31.0934824 C254.904494,28.7203529 255.629213,25.8917176 256.331461,22.4557412 L256.398876,22.0002353 C256.606742,19.1772235 254.696629,18.1143765 254.106742,17.8556941 C253.865169,17.7488471 253.629213,17.6926118 253.393258,17.642 C253.601124,14.5209412 253.286517,10.7588 251.668539,6.60863529 L249.488764,0.990729412 L245.466292,5.46705882 C237.230337,14.6446588 224.713483,19.4246588 213.657303,23.6479294 C211.129213,24.6151765 208.735955,25.5318118 206.466292,26.4709412 C188.438202,33.9221176 177.286517,41.9131529 166.775281,64.486 C166.533708,64.6940706 166.258427,64.9246353 165.955056,65.1776941 C161.179775,69.1985176 151.235955,77.5663294 145.606742,94.1388706 L144.668539,96.8887765 L147.106742,98.4577412 C152.910112,102.169271 159.185393,104.784212 167.106742,107.562235 C137.376404,174.082965 193.97191,213.548894 241.325843,237.724447 C238.58427,242.774376 236.382022,247.498141 235.803371,253.071059 L214.589888,275.452706 C212.544944,275.992565 208.691011,277.252235 206.449438,279.647859 C205.685393,280.457647 204.97191,281.559859 204.314607,282.909506 C203.730337,283.038847 203.213483,283.145694 202.764045,283.235671 C189.5,285.901224 168.303371,290.754329 112.061798,306.387741 C103.926966,298.919694 90.3876404,294.134071 77.0674157,294.134071 C55.9662921,294.134071 42.3370787,305.482353 28.3707865,322.521647 C8.20224719,347.118965 -14.5730337,414.443859 15.6123596,450.080165 C20.7696629,456.176071 40.1797753,475.835929 73.4382022,473.294094 C82.3426966,472.613647 89.005618,471.134659 94.8820225,469.841247 C106.5,467.276918 111.803371,466.107224 123.365169,473.884565 L127.988764,477 L132.359551,473.541529 C138.949438,468.328518 150.140449,470.083059 159.146067,472.180635 L176.601124,476.252071 L167.449438,460.826729 C155.235955,440.250235 137.926966,437.297882 120.483146,438.821859 C130.303371,436.077576 136.831461,427.344235 141.58427,416.985694 C140.955056,423.807035 142.129213,431.055765 148.561798,435.638941 C158.938202,443.011388 171.938202,439.777859 181.550562,433.816918 C186.106742,437.702776 192.213483,439.974682 197.837079,439.727247 C202.719101,439.637271 206.910112,438.675647 210.837079,436.758024 C213.438202,438.596918 216.353933,439.693506 219.533708,440.008424 C224.808989,440.525788 230.455056,438.810612 236.348315,434.952871 C239.410112,438.028941 243.432584,439.710376 248.005618,439.732871 C250.134831,439.744118 252.359551,439.457318 254.617978,438.889341 L254.393258,439.732871 L286.146067,439.732871 L290.41573,424.105082 C290.786517,427.1924 291.713483,430.144753 293.5,432.7372 C295.483146,435.593953 299.325843,439.119906 306.382022,439.704753 C313.949438,440.334588 323.022472,437.483459 330.342697,432.343553 C338.297753,440.177129 348.325843,441.459294 360.252809,436.111318 C362.61236,438.141412 366.674157,440.531412 372.786517,439.687882 C376.977528,439.406706 381.191011,437.624047 385.578652,434.306165 C389.196629,437.888353 393.853933,439.8116 399.061798,439.732871 C407.657303,439.603529 414.876404,434.469247 420.539326,429.177506 C426.780899,435.571459 436.252809,442.083506 450.780899,439.626024 C453.286517,439.198635 455.342697,438.653153 457.162921,438.163906 C461.97191,436.870494 462.58427,436.713035 466.421348,439.957812 L477.764045,449.574047 L478.94382,435.042847 C479.162921,434.317412 480.747191,429.902941 488.449438,424.830518 L499.505618,417.525553 L487.662921,411.598353 L487.662921,411.598353 Z" id="Fill-1" fill="#FFFFFF"></path>
                    <path d="M450.505618,415.506706 C449.589888,416.395224 447.837079,416.996941 445.97191,417.030682 C443.657303,417.086918 441.516854,416.338988 440.106742,414.978094 C432.949438,408.252353 432.949438,408.252353 436.398876,403.776024 C438.623596,400.874282 440.573034,398.180612 442.47191,395.571294 C444.140449,393.248776 445.724719,391.106212 447.292135,389.070494 C447.848315,393.085694 448.994382,396.814094 450.078652,400.300682 C452.303371,407.510047 453.421348,411.795176 450.505618,415.506706 L450.505618,415.506706 Z M349.016854,414.758776 C348.960674,414.758776 348.88764,414.758776 348.713483,414.522588 C348.449438,414.196424 346.286517,410.979765 349.106742,399.721459 C351.241573,391.241176 354.067416,386.033788 357.522472,384.251129 C358.696629,383.643788 360.022472,383.486329 361.488764,383.660659 C359.460674,399.249082 354.264045,414.758776 349.016854,414.758776 L349.016854,414.758776 Z M209.606742,399.586494 C208.617978,403.556706 207.589888,407.673129 206.668539,411.907647 C206.539326,412.514988 204.949438,413.780282 202.741573,413.988353 C201.94382,414.078329 200.511236,414.010847 200.196629,413.274165 C198.207865,408.685365 200.949438,393.872988 207.382022,386.219365 C209.280899,383.969953 211.151685,382.817129 212.960674,382.749647 C213.033708,385.887576 211.078652,393.698659 209.606742,399.586494 L209.606742,399.586494 Z M86.8764045,414.623812 C86.8258427,414.623812 86.758427,414.623812 86.5730337,414.398871 C86.3146067,414.072706 84.1460674,410.856047 86.9719101,399.592118 C89.0561798,391.286165 92.1123596,385.724494 95.5786517,383.913718 C96.241573,383.570682 97.1797753,383.210776 98.511236,383.261388 C96.7303371,398.726094 91.8146067,414.623812 86.8764045,414.623812 L86.8764045,414.623812 Z M276.022472,268.530141 C274.668539,267.529153 273.241573,266.944306 271.91573,266.972424 C266.932584,267.051153 268.629213,265.240376 269.764045,263.946965 L283.08427,251.496471 C283.08427,251.496471 293.58427,255.871576 306.191011,260.297294 C287.926966,265.307859 278.016854,267.995906 276.022472,268.530141 L276.022472,268.530141 Z M258.044944,268.732588 C255.314607,269.272447 253.988764,269.654847 252.140449,271.370024 C250.837079,272.567835 249.949438,274.254894 249.477528,275.508941 C244.331461,276.847341 239.033708,278.208235 233.88764,279.518518 C232.713483,278.826824 230.460674,277.915812 226.977528,278.168871 C226.657303,278.135129 225.730337,277.966424 225.803371,277.0048 C225.870787,276.161271 245.02809,258.795812 245.02809,258.795812 C250.38764,257.704847 270.005618,246.289082 270.005618,246.289082 L276.011236,248.740941 L275.567416,249.730682 L274.713483,251.249035 L259.174157,267.765341 C258.837079,268.136494 258.516854,268.636988 258.044944,268.732588 L258.044944,268.732588 Z M486.011236,414.910612 C481.022472,412.419388 476.157303,411.952635 472.308989,412.1832 C472.769663,406.334729 470.685393,400.188212 468.904494,394.952706 C468.252809,393.018212 467.634831,391.196188 467.207865,389.599106 C465.382022,382.682165 464.522472,378.801929 466.629213,373.043435 C468.966292,366.638235 459.331461,362.291247 455.224719,360.424235 L453.477528,359.636941 C453.466292,359.631318 451.932584,360.221788 451.932584,360.221788 C446.567416,362.308118 435.61236,375.349082 415.977528,400.295059 C413.679775,403.224918 411.337079,406.199765 409.466292,408.533529 C410.679775,403.0056 414.61236,385.100282 416.505618,376.513153 C424.073034,377.204847 429.910112,372.402353 431.325843,365.176118 C437.601124,366.739459 444.567416,357.488753 444.567416,345.724329 C447.876404,345.949271 457.320225,331.277482 442.533708,314.080729 C438.02809,308.845224 402.073034,277.837082 377.47191,256.771341 L377.382022,256.692612 L407.123596,247.093247 C408.960674,246.598376 412.342697,245.811082 414.005618,245.951671 C415.073034,246.041647 417.370787,247.604988 418.488764,248.842165 C419.578652,249.899388 422.567416,251.226541 426.067416,248.667835 C430.814607,245.214988 428.634831,237.133976 426.595506,231.358612 C424.325843,224.959035 421.505618,222.192259 419.455056,221.393718 C417.786517,220.741388 415.859551,220.550188 414.005618,221.511812 C409.741573,223.716235 411.707865,228.350024 409.370787,230.110188 C409.370787,230.110188 408.696629,232.174024 395.44382,235.407553 L364.983146,244.073412 L363.196629,244.579529 L363.050562,244.450188 C357.623596,239.833271 354.264045,236.976518 354.264045,236.976518 C352.123596,233.321224 349.101124,229.328518 346.404494,227.827035 C347.022472,218.868753 337.926966,206.401388 333.280899,204.247576 C334.55618,200.305482 329.224719,189.142776 323.977528,186.814635 C307.235955,157.1224 284.522472,121.930353 260.41573,105.683976 C256.561798,103.091529 254.488764,101.921835 254.191011,97.9066353 C252.842697,79.5683059 247.651685,63.7549412 242.241573,57.2541412 C244.230337,54.448 248.320225,47.7278824 250.966292,37.6730118 C250.966292,37.6730118 247.893258,39.7199765 245.539326,40.4679059 C246.803371,39.0170353 249.91573,35.4629647 252.702247,21.7246824 C252.820225,20.0601176 251.41573,23.1699294 248.073034,25.0988 C248.617978,22.6863059 251.460674,16.2867294 248.224719,7.95265882 C237.438202,19.9645176 220.162921,24.812 207.876404,29.8956706 C189.224719,37.6055294 179.47191,45.6528 169.786517,66.7804 C166.353933,69.8733412 155.089888,77.7462824 149.106742,95.3310588 C155.067416,99.1494353 161.550562,101.758753 170.747191,104.907929 C170.747191,104.907929 170.820225,107.860282 170.876404,108.192071 C142.91573,169.336706 189.005618,207.430494 246.426966,236.149859 C242.730337,242.808118 239.691011,248.105482 239.359551,254.701882 L216.522472,278.798706 C216.522472,278.798706 211.314607,279.8728 209.146067,282.184071 C208.191011,283.201929 207.426966,284.888988 206.949438,286.131788 C205.606742,286.424212 204.432584,286.677271 203.494382,286.874094 C189.58427,289.668988 167.196629,294.887624 110.983146,310.532282 C110.792135,310.329835 110.606742,310.116141 110.410112,309.919318 C103.073034,302.586235 89.988764,297.8456 77.0674157,297.8456 C57.4213483,297.8456 44.5337079,308.654024 31.2359551,324.872282 C11.7303371,348.659812 -10.4606742,413.572212 18.4382022,447.684541 C23.3033708,453.443035 41.6516854,472.011929 73.1573034,469.599435 C81.7977528,468.935859 88.3258427,467.496235 94.0842697,466.225318 C105.994382,463.587882 112.550562,462.148259 125.432584,470.808494 L127.814607,472.4112 L130.067416,470.628541 C137.893258,464.448282 150.168539,466.281553 159.988764,468.564706 L168.983146,470.667906 L164.264045,462.721859 C148.926966,436.876118 125.207865,441.144376 102.275281,445.266424 C85.6123596,448.269388 68.3876404,451.362329 53.0842697,443.787435 C41.6235955,438.118918 32.7640449,423.205318 32.4775281,409.107129 C32.1910112,395.217012 35.3314607,379.791671 40.1460674,366.520141 C43.9269663,371.406988 48.741573,374.027553 53.0898876,372.874729 C53.6741573,372.722894 54.2191011,372.514824 54.7359551,372.284259 C55.1573034,372.2224 55.5786517,372.143671 55.9831461,371.997459 C133.97191,345.696212 186.898876,326.474988 213.275281,314.884894 C222.938202,310.639129 271.134831,293.093718 287.252809,287.284612 C301.539326,282.133459 317.735955,276.566165 333.55618,271.246306 C343.08427,285.8 380.617978,342.861953 396.926966,363.483435 C393.707865,382.445976 388.117978,405.024447 378.640449,410.867294 C378.235955,411.120353 377.747191,411.440894 377.325843,411.699576 C379.38764,400.632471 386.191011,371.373247 387.258427,366.970024 L388.44382,362.094424 L366.067416,362.0888 L365.696629,363.562165 C362.786517,362.398094 359.202247,362.111294 355.162921,362.870471 C337.837079,366.132118 327.337079,382.102941 323.932584,410.338682 C323.870787,410.8448 323.808989,411.373412 323.747191,411.778306 C320.376404,415.669788 317.713483,416.417718 316.91573,416.119671 C316.640449,416.0072 316.58427,415.377365 316.595506,415.023082 C316.713483,411.671459 318.533708,405.389976 320.297753,399.305318 C324.780899,383.829365 327.393258,373.257129 323.039326,367.684212 C320.488764,364.433812 316.893258,362.617412 312.634831,362.437459 C308.88764,362.28 305.033708,363.387835 301.539326,365.131129 L302.168539,362.409341 L278.97191,362.409341 L278.314607,365.552894 C275.679775,378.352047 267.983146,405.468706 262.707865,411.660212 C261.662921,412.880518 259.606742,413.634071 258.174157,413.836518 C259.634831,406.8296 266.213483,382.558447 270.460674,367.3468 L271.859551,362.347482 L248.320225,362.341859 L247.629213,365.423553 C247.55618,365.766588 239.882022,399.8508 233.898876,410.310565 C232.174157,413.307906 230.567416,414.134565 229.955056,413.943365 C229.55618,413.825271 229.168539,413.184188 229.224719,412.363153 C229.814607,404.377741 242.674157,352.787482 247.578652,333.588753 L249.477528,326.120706 L222.747191,336.664824 L216.595506,363.652141 C215.803371,363.387835 214.91573,363.157271 213.910112,362.982941 C196.707865,360.086824 188.337079,375.787718 185.185393,381.698047 C181.146067,389.261694 177.073034,401.706565 176.702247,411.592729 C174.207865,414.539459 171.168539,416.777624 170.140449,416.648282 C169.280899,416.530188 169.061798,416.215271 168.859551,415.832871 C165.606742,409.427671 175.803371,385.134024 184.089888,369.922376 L187.258427,364.090776 L154.325843,364.102024 L155.297753,360.396118 L135.02809,360.396118 L134.320225,363.444071 C130.185393,381.214424 122.775281,404.518329 116.269663,413.673435 C115.488764,414.775647 114.803371,415.349247 114.342697,415.636047 C114.752809,411.4184 119.932584,387.934541 124.803371,367.217459 L125.94382,362.369976 L102.775281,362.369976 L101.786517,366.132118 C94.2752809,363.359718 84.4382022,363.9052 76.252809,373.110918 C64.3089888,386.545529 59.8258427,402.218306 63.7359551,416.445835 C62,417.750494 58.1741573,419.943671 54.4325843,421.720706 L47.8202247,424.869882 L54.0955056,428.648894 C54.1179775,428.665765 58.2696629,431.275082 60.5955056,436.145059 L61.6966292,438.450706 L64.247191,438.388847 C68.488764,438.282 71.8089888,435.352141 73.9662921,433.091482 C81.741573,437.494706 90.258427,436.668047 97.3707865,430.830824 C103.797753,435.6052 111.353933,436.021341 113.775281,436.021341 C133.651685,436.021341 141.252809,409.675106 146.803371,390.437012 C147.539326,387.872682 148.247191,385.432071 148.932584,383.222024 L156.544944,383.222024 C156.073034,384.3636 155.58427,385.544541 155.08427,386.764847 C152.870787,392.084706 150.365169,398.124376 148.426966,404.006588 C146.275281,410.552376 141.235955,425.882118 150.707865,432.613482 C160.044944,439.249247 172.719101,435.723294 181.983146,429.098776 C186.38764,434.109341 192.837079,436.240659 197.764045,436.021341 C202.932584,435.920118 207.230337,434.750424 211.241573,432.337929 C213.735955,434.654824 216.629213,435.998847 219.898876,436.319388 C226.005618,436.909859 232.123596,433.704447 237.033708,429.947929 C239.505618,433.822541 243.297753,435.998847 248.022472,436.021341 C251.932584,436.043835 256.05618,434.930376 260.073034,432.905906 L259.230337,436.021341 L283.320225,436.021341 L291.117978,407.453812 C295.629213,389.250447 300.146067,387.141624 301.011236,386.905435 C301.398876,386.798588 301.707865,386.899812 301.921348,387.012282 C301.904494,388.210094 300.91573,391.241176 300.02809,393.974212 C299.213483,396.442941 298.202247,399.513388 297.179775,403.191176 L296.882022,404.237153 C294.870787,411.373412 291.488764,423.312165 296.544944,430.622753 C298.073034,432.827176 301.067416,435.543341 306.685393,436.010094 C314.404494,436.651176 324,433.068988 330.769663,427.349859 C340.438202,439.193012 352.02809,436.240659 361,431.646235 C363.477528,434.396141 366.814607,436.769271 372.533708,435.9876 C377.55618,435.655812 382.157303,432.619106 386.039326,429.143765 C389.123596,433.648212 393.657303,436.105694 399.011236,436.021341 C407.702247,435.892 414.977528,429.661129 420.696629,423.857647 C427.679775,431.983647 436.370787,438.304494 450.162921,435.970729 C452.5,435.571459 454.47191,435.048471 456.207865,434.581718 C461.365169,433.198329 463.494382,432.624729 468.814607,437.129176 L474.657303,442.083506 L475.280899,434.446753 C475.280899,434.486118 476.219101,428.452071 486.404494,421.731953 L492.106742,417.969812 L486.011236,414.910612 L486.011236,414.910612 Z" id="Fill-3" fill="#111B2B"></path>
                </g>
                <path d="M278.241573,343.902306 C278.241573,336.895388 272.539326,331.187506 265.539326,331.187506 C258.544944,331.187506 252.842697,336.895388 252.842697,343.902306 C252.842697,350.909224 258.544944,356.611482 265.539326,356.611482 C272.539326,356.611482 278.241573,350.909224 278.241573,343.902306" id="Fill-5" fill="#111B2B"></path>
                <path d="M236.893258,302.648094 C250.58427,297.541929 266.11236,291.873412 274.623596,288.786094 L276.342697,288.161882 C278.297753,284.579694 278.196629,277.460306 274.578652,274.507953 C273.769663,273.85 272.629213,273.377624 271.516854,273.034588 C270.314607,273.332635 269.292135,273.529459 268.685393,273.518212 C266.769663,274.018706 242.382022,280.3508 236.960674,281.767929 C242.617978,286.722259 243.567416,296.861482 236.893258,302.648094" id="Fill-6" fill="#FCD81D"></path>
                <path d="M279.11236,287.155271 C282.02809,286.103671 285.865169,284.714659 285.865169,284.714659 C298.657303,280.097741 314.095506,274.749765 331.747191,268.816941 C331.747191,268.816941 331.820225,268.794447 331.932584,268.760706 C331.550562,268.170235 331.331461,267.832824 331.331461,267.832824 C325.106742,266.449435 317.977528,264.278753 311.123596,261.978729 L279.241573,270.700824 C279.016854,270.779553 278.758427,270.863906 278.494382,270.948259 C282.073034,275.368353 283.921348,282.454 279.11236,287.155271" id="Fill-7" fill="#FCD81D"></path>
                <path d="M172.882022,101.010824 C172.882022,101.010824 181.769663,104.508659 184.342697,93.2334824 C185.730337,87.1150824 181.123596,78.2692706 175.196629,80.7492471 C175.134831,80.7717412 176.258427,74.2990588 171.280899,72.1002588 C158.994382,79.6414118 153.477528,93.6271294 153.477528,93.6271294 C164.286517,91.3102353 165.97191,88.2116706 174.202247,88.9258588 C177.140449,89.1789176 178.52809,90.5229412 180.865169,92.2437412 C177.286517,91.4339529 174.52809,91.2483765 171.522472,91.1808941 C167.337079,91.0852941 159.067416,94.0207765 154.865169,94.4425412 C154.865169,94.4425412 168.646067,100.380988 172.882022,101.010824" id="Fill-8" fill="#FCD81D"></path>
                <path d="M269.651685,180.921176 C265.932584,181.528518 261.297753,181.663482 254.213483,179.0148 C253.938202,181.0224 248.696629,183.974753 246.331461,184.396518 C263.432584,198.944588 323.651685,221.393718 340.859551,225.431412 C343.629213,226.072494 339.601124,213.678235 332.033708,208.594565 C326.494382,204.860541 291.696629,196.813271 269.651685,180.921176" id="Fill-9" fill="#B02534"></path>
                <path d="M274.320225,179.762729 C298.106742,193.911529 323.483146,201.627012 329.050562,203.235341 C330.202247,202.419929 327.292135,191.544024 319.325843,188.715388 C307.44382,184.486494 297.544944,180.291341 290.511236,175.876871 C288.039326,177.243388 284.353933,178.041929 277.685393,175.365129 C277.426966,177.012824 276.926966,178.587412 274.320225,179.762729" id="Fill-10" fill="#B02534"></path>
                <path d="M200.960674,82.3800706 C199.741573,84.3539294 197.483146,85.5967294 195.005618,85.4280235 C191.460674,85.1805882 188.792135,82.1045176 189.033708,78.5560706 C189.286517,75.002 192.359551,72.3308235 195.904494,72.5838824 C198.252809,72.7413412 200.219101,74.1528471 201.207865,76.1098353 C196.780899,75.6374588 195.808989,79.9225882 195.808989,79.9225882 C192.938202,76.4022588 196.646067,74.3721647 196.646067,74.3721647 C194.179775,74.046 191.837079,75.9298824 191.634831,78.7641412 C191.438202,81.5984 193.573034,84.0558824 196.404494,84.2527059 C198.314607,84.3876706 199.960674,83.7634588 200.960674,82.3800706" id="Fill-11" fill="#FFFFFF"></path>
                <path d="M499.41573,403.539835 L497.505618,403.539835 L497.505618,396.083035 L497.455056,396.083035 L494.747191,403.539835 L492.910112,403.539835 L490.286517,396.083035 L490.247191,396.083035 L490.247191,403.545459 L488.325843,403.545459 L488.325843,394.176659 L491.640449,394.176659 L493.814607,400.300682 L493.859551,400.300682 L496.129213,394.176659 L499.41573,394.176659 L499.41573,403.539835 L499.41573,403.539835 Z M486.617978,395.852471 L483.786517,395.852471 L483.786517,403.545459 L481.88764,403.545459 L481.88764,395.852471 L479.061798,395.852471 L479.061798,394.176659 L486.617978,394.176659 L486.617978,395.852471 L486.617978,395.852471 Z" id="Fill-12" fill="#111B2B"></path>
                <path d="M168.640449,130.506235 C171.365169,125.073906 186.269663,104.930424 201.129213,104.930424 C199.94382,102.124282 201.404494,85.4730118 214.02809,72.7975765 C211.162921,73.4780235 207.292135,72.4939059 204.522472,71.3129647 C203.477528,70.6156471 202.235955,69.2884941 199.949438,67.9669647 C196.808989,66.1561882 192.882022,67.0222118 189.988764,68.7430118 C188.280899,69.7552471 176.932584,69.4740706 175.117978,66.3642588 C179.955056,54.6054588 189.662921,42.4361412 208.370787,34.5575765 C221.129213,29.1814824 236.05618,25.9592 245.466292,16.0842824 C245.88764,31.3802824 223.196629,41.7275765 223.207865,41.7500706 C236.859551,38.6627529 246.191011,29.3614353 246.191011,29.4907765 C240.320225,44.7530353 225.691011,53.3064235 225.691011,53.3064235 C230.359551,52.4966353 239.337079,48.4983059 243.073034,45.6134353 C243.073034,45.6134353 241.426966,53.5932235 228.606742,64.9752471 C228.578652,64.9415059 235,63.5356235 238.550562,60.7576 C244.949438,69.1704 249.747191,83.7859529 250.089888,101.308871 C250.157303,104.699859 251.724719,112.218518 253.52809,113.078918 C256.123596,114.321718 253.949438,109.164941 254.640449,106.898659 C280.713483,122.807624 300.707865,154.721153 318.797753,185.082588 C312.898876,183.249318 300.213483,178.193765 292.752809,174.274165 C293.516854,173.441882 293.651685,172.761435 293.724719,171.754824 C294.146067,166.030071 289.101124,162.402894 286.52809,161.171341 C285.865169,160.856424 285.365169,161.002635 285.162921,161.283812 C284.949438,161.570612 285.050562,162.014871 285.241573,162.138588 C286.539326,163.027106 291.5,166.024447 291.151685,170.933788 C291.061798,172.2272 289.264045,174.077341 286.674157,174.240424 C280.297753,174.920871 269.741573,169.443553 256.595506,155.941459 C256.185393,155.564682 255.511236,154.653671 254.623596,155.182282 C253.752809,155.710894 253.94382,156.396965 254.179775,156.751247 C260.932584,167.9252 274.702247,174.274165 274.702247,174.274165 C273.747191,178.131906 269.005618,178.283741 264.702247,178.148776 C248.426966,177.659529 237.432584,159.523647 234.44382,154.889859 C233.865169,153.995718 233.241573,153.765153 232.707865,154.046329 C232.134831,154.355624 231.797753,154.603059 232.095506,155.519694 C232.55618,156.919953 239.061798,170.467035 250.640449,177.192776 C252.185393,178.092541 246.303371,181.815318 242.567416,181.730965 C235.820225,181.567882 219.859551,175.320141 214.404494,151.870024 C214.337079,151.510118 214.005618,150.919647 213.196629,151.0996 C212.325843,151.302047 212.292135,151.898141 212.41573,152.601082 C215.511236,178.435576 234.561798,184.239059 241.702247,185.088212 C253.589888,196.847012 296.544944,216.422518 341.174157,229.547835 C349.567416,231.920965 358.151685,255.044918 351.516854,253.093553 C349.129213,252.413106 346.033708,251.249035 342.685393,250.118706 C320.685393,242.735012 287.292135,229.255412 251.219101,211.760612 C226.303371,199.6644 184.061798,172.440894 204.477528,134.448329 C207.146067,128.785435 210.005618,126.024282 210.410112,125.619388 C210.679775,125.4788 210.870787,124.770235 210.808989,124.511553 C209.904494,122.025953 207.494382,122.239647 201.146067,132.873741 C179.426966,174.639694 222.994382,201.908188 249.314607,214.994141 C266.303371,223.429435 296.224719,236.2792 317.505618,244.781976 L329.219101,263.767012 C318.41573,261.624447 283.511236,247.880541 273.297753,243.269247 C273.297753,243.269247 277.016854,239.968235 275.707865,236.880918 C274.803371,234.738353 274.286517,233.399953 271.410112,230.964965 C268.382022,229.1092 267.61236,230.408235 268.938202,231.892847 C270.162921,233.264988 272.758427,237.482635 270.252809,240.384376 C266.129213,245.17 254.432584,250.534847 247.808989,254.280118 C244.910112,254.859341 243.505618,254.791859 243.191011,252.300635 C242.803371,249.190824 247.230337,242.476329 252.47191,234.102894 C243.466292,229.913365 152.747191,190.424941 168.640449,130.506235" id="Fill-13" fill="#B02534"></path>
                <path d="M430.140449,359.653812 C436.966292,362.673647 441.848315,349.194047 439.219101,345.330682 C438.337079,344.026024 433.331461,338.565576 426.308989,331.086282 L422.08427,350.689906 C426.460674,355.9704 429.44382,359.333271 430.140449,359.653812" id="Fill-14" fill="#B02534"></path>
                <path d="M400.162921,340.224518 L400.573034,336.7548 L404.573034,335.191459 L352.44382,268.260212 L357.095506,268.260212 C357.095506,268.260212 386.780899,306.702659 408.348315,333.723718 L423.286517,327.875247 C401.432584,304.723176 365.033708,267.124259 365.033708,267.124259 L369.786517,267.247976 C369.764045,266.865576 440.264045,340.145788 440.264045,340.145788 C444.129213,344.4984 450.707865,329.764753 440.11236,317.983459 C434.275281,308.620282 356.797753,244.095906 356.797753,244.095906 C357.5,245.631129 357.870787,247.633106 358.213483,249.488871 C361.224719,263.856988 350.38764,255.894071 322.702247,246.559012 C344.904494,281.655459 378.707865,333.481906 397.859551,357.730565 C398.94382,350.560565 399.691011,344.284706 400.162921,340.224518" id="Fill-15" fill="#B02534"></path>
                <path d="M417.466292,372.160541 C423.140449,371.963718 428.88764,367.015012 426.05618,362.774871 L420.910112,356.1616 L417.466292,372.160541" id="Fill-16" fill="#B02534"></path>
                <path d="M453.449438,418.149765 C450.050562,421.720706 441.955056,422.2212 437.376404,417.817976 C428.08427,409.090259 428.275281,407.864329 433.275281,401.369153 C440.488764,392.005976 445.185393,384.155529 451.634831,378.357671 C447.606742,394.637788 461.994382,407.695624 453.449438,418.149765 L453.449438,418.149765 Z M349.016854,418.695247 C345.050562,418.695247 341.629213,413.369765 345.286517,398.765459 C347.932584,388.232588 353.252809,375.798965 365.803371,380.719553 C365.803371,380.719553 361.988764,418.695247 349.016854,418.695247 L349.016854,418.695247 Z M210.516854,412.734306 C209.404494,417.885459 198.97191,420.348565 196.589888,414.843129 C192.601124,405.643035 201.724719,375.765224 215.117978,379.026871 C219.769663,380.1572 214.089888,396.206753 210.516854,412.734306 L210.516854,412.734306 Z M86.8764045,418.565906 C82.9157303,418.565906 79.488764,413.240424 83.1516854,398.630494 C85.7977528,388.097624 91.4213483,375.866447 102.769663,380.224682 C102.769663,380.224682 99.511236,418.565906 86.8764045,418.565906 L86.8764045,418.565906 Z M466.904494,417.120659 C471.185393,409.275835 465.438202,398.315576 463.410112,390.605718 C461.573034,383.683153 460.359551,378.734447 462.932584,371.688165 C464.067416,368.583976 454.882022,364.602518 453.348315,363.9052 C445.511236,366.936282 411.893258,412.880518 408.393258,415.821624 C406.769663,417.193765 402.949438,419.409435 405.264045,409.309576 C405.264045,409.309576 422.151685,332.683365 422.02809,332.610259 L404.202247,339.566565 C402.202247,356.510259 396.904494,404.242776 380.696629,414.224541 C379.230337,415.124306 374.308989,418.773976 372.842697,415.922847 C372.033708,414.348259 383.314607,366.537012 383.438202,366.030894 L369.123596,366.030894 L368,370.406 C365.640449,366.030894 359.696629,366.030894 355.88764,366.750706 C328.741573,371.845624 328.308989,412.188824 327.404494,413.594706 C319.533708,423.289671 312.455056,420.832188 312.668539,414.876871 C313.022472,404.568941 325.404494,377.114871 319.938202,370.113576 C313.91573,362.409341 301.505618,367.9204 295.297753,374.601153 L297.219101,366.340188 L282.174157,366.340188 C280.011236,376.8112 272.179775,406.615906 265.702247,414.218918 C262.292135,418.217247 253.601124,419.392565 253.977528,415.118682 C254.410112,410.220588 266.668539,366.283953 266.668539,366.283953 L251.47191,366.283953 C251.47191,366.283953 243.662921,401.172329 237.308989,412.261929 C231.876404,421.760071 224.893258,417.593035 225.297753,412.076353 C226.050562,401.993365 243.758427,332.610259 243.758427,332.610259 L226.129213,339.577812 L219.016854,370.765906 C219.016854,370.765906 218.955056,367.830424 213.252809,366.8688 C200.719101,364.754353 193.764045,373.976941 188.657303,383.553812 C184.842697,390.701318 180.606742,403.584824 180.606742,413.0436 C180.606742,413.0436 174.426966,421.1696 169.634831,420.545388 C153.191011,418.402824 180.629213,368.032871 180.629213,368.032871 L149.213483,368.038494 L150.196629,364.332588 L138.157303,364.332588 C134.820225,378.666965 127.202247,405.086306 119.477528,415.967835 C115.286517,421.861294 110.522472,420.2136 110.38764,416.142165 C110.252809,411.980753 120.97191,366.312071 120.97191,366.312071 L105.814607,366.312071 L104.382022,371.789388 C100.129213,369.0676 89.0393258,364.653129 79.1966292,375.731482 C66.3258427,390.200824 64.1910112,405.581176 68.0505618,417.160024 C68.5842697,419.347576 56.1235955,425.2804 56.1235955,425.2804 C56.1235955,425.2804 61.247191,428.367718 64.1460674,434.446753 C68.9213483,434.328659 72.9494382,427.749129 73.4606742,428.080918 C80.8202247,433.636965 89.8202247,433.558235 97.2921348,425.533459 C101.848315,430.341576 108.657303,432.090494 113.775281,432.090494 C134.191011,432.090494 140.348315,396.099906 146.073034,379.291176 L162.320225,379.279929 C159.949438,385.803224 155.269663,395.807482 152.168539,405.238141 C148.91573,415.135553 146.926966,425.094824 152.988764,429.396824 C162.292135,436.010094 175.432584,429.970424 182.831461,423.407765 C185.932584,429.408071 192.404494,432.309812 197.595506,432.084871 C203.320225,431.978024 207.634831,430.487788 211.876404,427.124918 C219.792135,438.073929 231.876404,429.728612 238.52809,423.525859 C239.685393,428.114659 242.567416,432.062376 248.044944,432.084871 C254.52809,432.118612 261.393258,428.502682 266.735955,423.385271 L264.376404,432.084871 L280.314607,432.084871 L287.320225,406.413459 C295.033708,375.326588 304.573034,383.587553 305.331461,384.824729 C307.095506,387.557765 304.174157,392.7764 300.97191,404.254024 C298.741573,412.216941 292.814607,430.909553 307.016854,432.084871 C315.157303,432.759694 325.808989,427.743506 331.308989,421.327059 C339.404494,434.384894 349.151685,434.013741 361.988764,426.624424 C364.769663,430.245976 366.848315,432.810306 372.039326,432.084871 C378.011236,431.831812 383.904494,425.960847 387.134831,422.564235 C388.949438,427.766 392.735955,432.174847 398.955056,432.084871 C407.634831,431.955529 415.314607,423.863271 420.94382,417.9192 C428.578652,427.794118 436.292135,434.317412 449.505618,432.084871 C458.775281,430.515906 462.38764,426.517576 471.359551,434.126212 C471.359551,434.126212 471.977528,426.528824 484.247191,418.436565 C477.494382,415.062447 470.696629,415.945341 466.904494,417.120659 L466.904494,417.120659 Z" id="Fill-17" fill="#B02534"></path>
                <path d="M256.775281,343.902306 C256.775281,339.060447 260.707865,335.1296 265.539326,335.1296 C270.376404,335.1296 274.303371,339.060447 274.303371,343.902306 C274.303371,348.744165 270.376404,352.669388 265.539326,352.669388 C260.707865,352.669388 256.775281,348.744165 256.775281,343.902306" id="Fill-18" fill="#B02534"></path>
                <g id="Group-22" transform="translate(6.617978, 218.317647)">
                    <path d="M359.123596,28.4269412 L368.393258,36.2155294 L399.651685,26.1325412 C399.651685,26.1325412 411.224719,23.2364235 411.224719,17.7928471 C411.224719,9.39691765 415.578652,25.3733647 413.803371,28.5337882 C413.803371,28.5337882 415.275281,29.9509176 417.820225,28.1064 C420.365169,26.2506353 419.904494,21.1500941 417.359551,13.9688471 C414.808989,6.7876 412.089888,5.22425882 409.780899,5.65164706 C406.921348,6.18588235 406.831461,9.45315294 406.831461,9.45315294 C406.831461,9.45315294 407.292135,12.3492706 404.044944,14.7842588 C402.404494,16.0214353 397.488764,18.1864941 389.58427,19.7610824 L359.123596,28.4269412" id="Fill-19" fill="#FCD81D"></path>
                    <path d="M44.7191011,229.006988 C31.4382022,222.427459 22.2303371,205.933647 21.9213483,190.868212 C21.6011236,175.634071 25.2640449,158.690376 30.8483146,144.192918 C29.6348315,141.932259 28.6235955,139.412918 27.8988764,136.691129 C24.9494382,125.511553 28.6685393,114.286988 35.2303371,111.767647 C35.5842697,111.593318 35.9662921,111.447106 36.3876404,111.329012 C43.0168539,109.417012 49.3539326,107.780565 55.4382022,106.042894 C57.5730337,104.147765 59.7359551,102.522565 61.8876404,101.257271 C69.5449438,96.7640706 84.2022472,96.5728706 92.758427,102.814988 C88.7865169,107.493765 85.3651685,113.865224 90.988764,119.106353 C95.3876404,123.352118 102.629213,121.608824 105.601124,116.547647 C110.185393,108.742188 106.44382,99.9694824 101.011236,94.3909412 C94.488764,87.8620235 82.4382022,83.4644235 70.4494382,83.4644235 C53.5786517,83.4644235 41.6460674,91.9953176 27.6573034,109.057106 C7.5505618,133.581318 -11.8314607,195.350165 14.8202247,226.819435 C23.752809,237.363553 41.7865169,249.217953 66.2359551,247.345318 C92.9662921,245.303976 100.224719,235.243482 121.011236,249.217953 C130.792135,241.479976 145.702247,244.415459 154.258427,246.411812 C129.814607,205.225082 83.0505618,247.975153 44.7191011,229.006988" id="Fill-21" fill="#B02534"></path>
                </g>
                <path d="M231.853933,286.047435 C230.691011,285.220776 228.938202,284.669671 227.483146,284.326635 L226.831461,284.326635 C224.382022,284.950847 222.398876,285.451341 222.398876,285.451341 C213.353933,287.700753 207.050562,289.185365 203.657303,289.865812 C185.213483,293.571718 157.219101,300.719224 113.005618,313.017882 C117.707865,319.366847 120.578652,328.403859 115.606742,336.861647 C113.460674,340.522565 109.651685,343.047529 105.41573,343.626753 C101.494382,344.166612 97.6516854,342.940682 94.9269663,340.303247 C91.8033708,337.401506 87.9325843,331.434941 93.5898876,322.375435 C91.3258427,321.402565 88.7977528,320.828965 86.2191011,320.542165 L43.3876404,332.767718 C43.1741573,332.829576 42.9606742,332.885812 42.747191,332.942047 C37.252809,334.9384 34.7696629,344.745835 37.2303371,354.075271 C39.7640449,363.685882 46.2247191,371.030212 52.0898876,369.489365 C57.9438202,367.942894 60.2191011,358.304165 57.6853933,348.693553 C56.7191011,345.010141 55.9213483,342.518918 54.0393258,339.825247 C54.0393258,339.825247 58.0505618,343.188118 59.9438202,351.364729 C61.5617978,358.377271 61.3146067,364.012047 59.3483146,367.819176 C134.679775,342.355835 185.94382,323.702588 211.702247,312.393671 C214.730337,311.055271 221.589888,308.384094 232.089888,304.442 C232.089888,304.442 233.140449,304.053976 233.94382,303.744682 C236.353933,299.577647 236.825843,289.562141 231.853933,286.047435" id="Fill-23" fill="#FCD81D"></path>
            </g>
        </g>
    </g>
</svg>