<?xml version="1.0" encoding="UTF-8"?>
<svg width="500px" height="502px" viewBox="0 0 500 502" version="1.1" xmlns="http://www.w3.org/2000/svg" xmlns:xlink="http://www.w3.org/1999/xlink">
    <!-- Generator: Sketch 54.1 (76490) - https://sketchapp.com -->
    <title>TB</title>
    <desc>Created with Sketch.</desc>
    <g id="TB" stroke="none" stroke-width="1" fill="none" fill-rule="evenodd">
        <g id="Asset-1" transform="translate(0.000000, 130.000000)" fill-rule="nonzero">
            <path d="M353.19,186.76 L358.42,192.98 L355,196.45 C348.79,202.68 288.83,244.33 222.82,236.04 C193.82,232.41 168.08,219.86 145.91,198.65 C169,222.82 196.24,237 227.24,240.87 C293.85,249.22 352.83,207.31 359.43,200.69 L362.93,197.18 L358.41,191.93 L367.12,191.93 L367.12,174.71 L361.95,173.92 L361.95,186.76 L353.19,186.76 Z" id="Path" fill="#79BDE8"></path>
            <path d="M306.25,66.53 C310.25,74.15 319.03,91 324.25,100.96 C325.07,99.54 325.98,97.96 326.93,96.29 C321.88,86.37 316.04,74.87 313.19,69.29 L324.48,66.55 L324.48,52 L319.3,52 L319.3,63.76 L306.25,66.53 Z" id="Path" fill="#79BDE8"></path>
            <path d="M259.24,72.26 C257.77,69.8 256.77,68.12 256.45,67.56 L242.58,64.84 L242.58,69 L259.24,72.26 Z" id="Path" fill="#79BDE8"></path>
            <path d="M335.08,64.84 L335.08,69 L341.82,70.32 C342.61,68.93 343.34,67.67 343.95,66.58 L335.08,64.84 Z" id="Path" fill="#79BDE8"></path>
            <path d="M339.07,128.87 L339.07,166 L344.24,166.8 L344.24,131.72 L369.45,89.48 C369.414982,84.0337801 370.314702,78.6219299 372.11,73.48 L339.07,128.87 Z" id="Path" fill="#79BDE8"></path>
            <path d="M424.84,64.77 C416.77,64.77 408.19,68.63 408.19,75.77 C408.19,80.29 409.8,83.2 414.05,86.17 C413.086283,84.4277051 412.603114,82.4605131 412.65,80.47 C412.65,73.31 421.24,69.47 429.32,69.47 C439.58,69.47 446.92,73.67 451.43,93.98 L451,91.72 C447.45,73.59 438.9,64.77 424.84,64.77 Z" id="Path" fill="#79BDE8"></path>
            <path d="M451.87,96.05 C451.92,96.33 451.98,96.6 452.04,96.88 L452.88,101.22 L472.62,101.22 L470.9,57.22 L467.46,56 C466.92,55.8 466.39,55.62 465.86,55.45 L467.45,96.07 L451.87,96.05 Z" id="Path" fill="#79BDE8"></path>
            <path d="M401.47,163.82 C397.99,159.13 395.64,152.82 394.39,144.76 L393.68,140.23 L389.33,140.23 C391.18,151.39 395.19,159.22 401.47,163.82 Z" id="Path" fill="#79BDE8"></path>
            <path d="M430.79,147.94 C426.31,144.32 420.52,141.79 414.4,139.11 L405,134.79 C396.38,130.55 389.5,126.23 384.17,121.59 C389.92,128.25 398.43,134.18 410.17,139.96 L419.54,144.28 C424.78,146.57 429.75,148.76 433.89,151.6 C433.122931,150.177356 432.067029,148.930711 430.79,147.94 Z" id="Path" fill="#79BDE8"></path>
            <path d="M468.56,119.72 C473.22,126.55 475.51,134.86 475.51,144.9 C475.51,172.55 454.31,189.74 420.18,189.74 C404.47,189.74 390.56,186.85 377.74,180.92 L377.81,183.61 L380.7,185 C394.31,191.73 408.21,194.86 424.42,194.86 C458.55,194.86 479.75,177.68 479.75,150.03 C479.75,137.33 476.08,127.38 468.56,119.72 Z" id="Path" fill="#79BDE8"></path>
            <path d="M190,156.54 L221.86,156.54 C221.19,154.6 220.57,152.83 220.06,151.37 L185.55,151.37 C184.32,154.68 182.43,159.79 180.81,164.14 C183.59,167.14 186.57,170.25 189.81,173.36 C188.3,171.81 186.87,170.27 185.48,168.77 C187.17,164.22 189.07,159.09 190,156.54 Z" id="Path" fill="#79BDE8"></path>
            <path d="M274.75,186.76 L214.39,186.76 L214.39,191.93 L325.15,191.93 C328.96,190.34 332.85,188.62 336.78,186.76 L274.78,186.76 L274.75,186.76 Z" id="Path" fill="#79BDE8"></path>
            <path d="M280.1,167.88 C273.9,152.09 249.78,90.69 239.37,64.21 L237.37,63.82 L237.37,59.21 C235.57,54.65 234.53,51.95 234.53,51.95 L229.53,51.95 C238.32,74.34 272.81,162.13 274.41,166.2 L280.1,167.88 Z" id="Path" fill="#79BDE8"></path>
            <path d="M203.79,101.71 C199.17,114.12 193.12,130.37 193.12,130.39 L199.5,130.39 C201.45,125.21 204.5,117.13 206.78,110.87 C205.84,108 204.83,104.9 203.79,101.71 Z" id="Path" fill="#79BDE8"></path>
            <path d="M159.63,74.38 L166.25,76.17 C168.826778,69.4693369 170.138951,62.3490189 170.12,55.17 C170.12,38.24 164.24,26.96 155.26,19.48 C161.26,26.72 164.95,36.58 164.95,50 C164.992852,58.419191 163.176282,66.7439997 159.63,74.38 Z" id="Path" fill="#79BDE8"></path>
            <path d="M138.82,97.71 L142.46,103.82 C151.723597,98.5145268 159.234796,90.617514 164.07,81.1 L155.84,81.19 C151.435711,87.869011 145.627328,93.5067597 138.82,97.71 L138.82,97.71 Z" id="Path" fill="#79BDE8"></path>
            <path d="M134.22,100.34 L133.39,100.7 C137,106 142,113.35 142,113.35 C142,113.35 153.48,130.24 153.58,130.35 C153.68,130.46 154.51,131.57 154.51,131.57 C156.27,133.923333 158.056667,136.29 159.87,138.67 L160.31,137.59 C160.15,137.37 159.97,137.15 159.81,136.92 L158.75,135.52 L147.15,118.52 L138.58,105.88 L139.41,105.52 C139.69,105.38 139.95,105.22 140.23,105.07 L134.85,100.07 L134.22,100.34 Z" id="Path" fill="#79BDE8"></path>
            <path d="M78.28,37.06 L82.28,40.06 L82.28,26.54 C83.28,26.48 84.34,26.42 85.28,26.42 C94.46,26.42 101.72,28.42 107.11,32.35 C101.6,24.92 92.65,21.25 80.11,21.25 C79.18,21.25 78.11,21.31 77.11,21.38 L77.11,88.38 L82.28,88.44 L82.28,42 L78.28,37.06 Z" id="Path" fill="#79BDE8"></path>
            <polygon id="Path" fill="#79BDE8" points="5.16 186.77 5.16 192 107.91 192 107.91 171.54 102.74 170.62 102.74 186.77"></polygon>
            <path d="M87.73,111.47 C87.73,111.47 86.73,109.53 86.65,109.47 L86.55,109.3 L77.13,106.12 L77.13,161.88 L82.3,162.79 L82.3,111.29 L88.76,113.47 L88,112.09 L87.73,111.47 Z" id="Path" fill="#79BDE8"></path>
            <polygon id="Path" fill="#79BDE8" points="5.16 21.07 5.16 27.07 25.1 30.89 25.1 24.89"></polygon>
            <path d="M155.84,81.19 L149.31,81.27 C145.655487,85.9826102 141.180427,89.9969529 136.1,93.12 L138.82,97.71 C145.627328,93.5067597 151.435711,87.869011 155.84,81.19 L155.84,81.19 Z" id="Path" fill="#FFFFFF"></path>
            <path d="M475.51,144.9 C475.51,134.9 473.22,126.55 468.56,119.72 C466.876418,117.261321 464.913297,115.006248 462.71,113 C454,105 443.89,100.53 435,96.64 L429.5,94.2 L428.55,93.76 C421.93,90.76 417.25,88.44 414.05,86.2 C409.8,83.2 408.19,80.32 408.19,75.8 C408.19,68.63 416.77,64.8 424.84,64.8 C438.9,64.8 447.45,73.62 450.99,91.8 L451.43,94.07 L451.83,96.13 L467.45,96.13 L465.86,55.51 L465.72,52 L462.28,50.8 C448.08,45.8 436.72,43.61 425.42,43.61 C417.570393,43.5220274 409.750379,44.5867083 402.21,46.77 L329.91,46.77 L329.91,63.77 L335.08,64.77 L344,66.58 C343.39,67.67 342.66,68.93 341.87,70.32 L326.97,96.32 C326.02,97.99 325.11,99.57 324.29,100.99 C319.08,90.99 310.29,74.18 306.29,66.56 L319.29,63.79 L319.29,46.79 L237.41,46.79 L237.41,63.79 L239.41,64.18 L242.62,64.81 L256.49,67.53 C256.81,68.09 257.81,69.77 259.28,72.23 C267.72,86.45 291.72,126.82 292.91,128.83 L292.91,166.15 L281.76,168.33 C281.22,168.18 280.68,168.01 280.14,167.85 L274.49,166.17 C272.89,162.1 238.4,74.31 229.61,51.92 L227.61,46.75 L197.62,46.75 L160.29,137.58 L159.85,138.66 C158.03,136.28 156.243333,133.913333 154.49,131.56 C154.49,131.56 153.69,130.5 153.56,130.34 C153.43,130.18 141.98,113.34 141.98,113.34 C141.98,113.34 136.98,105.95 133.39,100.69 L134.22,100.33 L134.83,99.99 L130.65,96.06 C129.12,96.77 127.65,97.42 126.3,97.94 L125.39,98.44 C134.45,111.62 142.18,123.37 149.2,133.44 C153.05,138.54 157.04,143.87 161.28,149.27 L201.2,52.15 L223.88,52.15 L270.42,170.6 L281.42,173.87 L298.2,170.6 L298.2,127.38 L259.8,62.76 L242.74,59.41 L242.74,52.15 L313.9,52.15 L313.9,59.41 L298.2,62.76 L324,112.12 L352.3,62.76 L335.24,59.41 L335.24,52.15 L403,52.15 C410.266867,49.9532565 417.829143,48.8907601 425.42,49 C437.06,49 448.3,51.62 460.52,55.9 L461.88,90.72 L456.24,90.72 C452.18,69.87 441.33,59.44 424.84,59.44 C412.84,59.44 402.84,65.95 402.84,75.83 C402.84,88.12 412.33,92.22 427.27,99.1 C436.95,103.58 449.21,107.86 459.11,116.99 C466.66,123.88 470.11,132.99 470.11,144.93 C470.11,168.76 452.53,184.41 420.11,184.41 C404.61,184.41 390.64,181.41 377.84,175.1 L376.84,140.46 L383.84,140.46 C387.31,162.81 399.13,174.17 418.54,174.17 C432.3,174.17 440.45,166.9 440.45,156.84 C440.465883,151.744524 438.098014,146.934789 434.05,143.84 C426.67,137.84 416.99,134.9 407.29,130.06 C385.38,119.27 374.71,108.06 374.71,89.64 C374.71,77.64 379.06,67.71 387.17,60.72 L372.17,62.83 L333.59,127.45 L333.59,170.6 L356.47,174.14 L356.47,181.4 L214.47,181.4 L214.47,174.14 L232.32,170.6 L223.88,146 L181.82,146 L174.67,165.27 C174.98,165.63 175.27,165.99 175.55,166.33 C209.76,203.93 256,233.84 347,187.72 L351.14,192.67 C339.92,203.92 201.14,294.94 117.14,153.15 C114.34,148.92 111.72,144.54 109.23,140.15 L108.11,144.84 L107.9,137.84 C102.51,128.12 97.64,118.31 92.64,109.5 C92.2414934,108.593786 91.7769081,107.718093 91.25,106.88 C90.85,106.15 90.49,105.51 90.14,104.88 L77.6,100.65 L77.6,93.79 C79.36,93.79 82.7,93.85 83.6,93.85 C93.25,93.85 100.81,91.92 106.46,88.04 L106.5,86 L106.5,86 L106.22,81.88 L106.28,81.38 C101.46,86.15 94.06,88.52 83.7,88.52 L82.3,88.52 L77.13,88.46 L77.13,21.46 C78.13,21.39 79.2,21.33 80.13,21.33 C92.67,21.33 101.62,25 107.13,32.43 C109.957968,36.4433318 111.850983,41.0391897 112.67,45.88 L118.24,58.76 L119.07,58.06 C119.07,57.93 119.07,57.8 119.07,57.66 C119.07,30.29 105.99,15.97 80.07,15.97 C77.45,15.97 74.59,16.22 71.72,16.48 L71.72,166.48 L97.33,171 L97.33,181.54 L5.33,181.54 L5.33,170.87 L30.42,166.35 L30.42,20.42 L5.37,15.65 L5.37,5.36 L92.68,5.36 C138.16,5.36 159.58,18.15 159.58,50.04 C159.636581,57.9836864 157.882165,65.8358114 154.45,73 L159.63,74.4 C163.196393,66.761832 165.030145,58.4297012 165,50 C165,36.58 161.31,26.72 155.31,19.48 C141.19,2.56 114.42,0 92.68,0 L0,0 L0,20.09 L5.16,21.09 L25.1,24.86 L25.1,161.86 L0,166.39 L0,186.77 L102.74,186.77 L102.74,166.38 L82.3,162.76 L77.13,161.85 L77.13,106.09 L86.55,109.27 L86.65,109.44 C86.65,109.53 87.73,111.44 87.73,111.44 L88.03,112.06 L88.76,113.41 L96,126.76 C101.11,136.46 106.4,146.49 112.68,155.96 C122.68,172.786667 133.753333,187.016667 145.9,198.65 C168.07,219.86 193.8,232.41 222.81,236.04 C288.81,244.33 348.81,202.68 354.99,196.45 L358.46,192.98 L353.23,186.76 L362,186.76 L362,169.55 L344.29,166.8 L339.12,166 L339.12,128.87 L372.12,73.52 C370.324702,78.6619299 369.424982,84.0737801 369.46,89.52 L369.46,89.61 C369.46,102.61 373.93,112.68 384.2,121.61 C389.53,126.25 396.41,130.61 405.03,134.81 L414.41,139.13 C420.53,141.81 426.32,144.34 430.8,147.96 C432.080646,148.949679 433.140016,150.196398 433.91,151.62 C434.763597,153.22351 435.206789,155.013458 435.2,156.83 C435.2,164.21 428.86,168.83 418.65,168.83 C411.73,168.83 406.02,167.19 401.48,163.83 C395.2,159.23 391.19,151.4 389.34,140.24 C389.34,140.03 389.26,139.83 389.23,139.61 L388.53,135.08 L371.44,135.08 L372.64,178.45 L375.53,179.88 C376.26,180.24 377,180.59 377.74,180.88 C390.56,186.81 404.47,189.7 420.18,189.7 C454.31,189.74 475.51,172.55 475.51,144.9 Z M325.15,191.9 C293.15,205.21 265.53,208.9 241.2,203.17 C219.44,198.04 202.72,185.75 189.81,173.33 C186.57,170.22 183.59,167.12 180.81,164.11 C182.43,159.76 184.32,154.65 185.55,151.34 L220.07,151.34 C220.58,152.8 221.2,154.57 221.87,156.51 C222.94,159.61 224.18,163.14 225.34,166.51 L209.22,169.7 L209.22,186.7 L336.78,186.7 C332.85,188.62 329,190.34 325.15,191.93 L325.15,191.9 Z" id="Shape" fill="#FFFFFF"></path>
            <path d="M113.48,63.14 L113.48,63.14 L113.48,63 C113.485481,63.0364618 113.485481,63.0735382 113.48,63.11 L113.48,63.14 Z" id="Path" fill="#FFFFFF"></path>
            <path d="M204.12,85.48 L188.21,128.2 L185.38,135.77 L220.55,135.68 L204.12,85.48 Z M193.12,130.39 C193.12,130.39 199.12,114.12 203.79,101.71 C204.79,104.9 205.84,107.96 206.79,110.85 C209.35,118.66 211.54,125.32 213.19,130.34 L199.51,130.34 L193.12,130.39 Z" id="Shape" fill="#FFFFFF"></path>
            <path d="M149.31,81.27 L129.21,81.5 L136.1,93.12 C141.180427,89.9969529 145.655487,85.9826102 149.31,81.27 Z" id="Path" fill="#002D62"></path>
            <path d="M109.28,140.12 C111.77,144.54 114.39,148.92 117.19,153.12 C201.19,294.91 339.93,203.89 351.19,192.64 L347,187.72 C256,233.84 209.75,203.93 175.54,166.34 C175.26,166 174.97,165.64 174.66,165.28 L181.82,146 L223.88,146 L232.43,170.59 L214.58,174.13 L214.58,181.39 L356.58,181.39 L356.58,174.13 L333.7,170.59 L333.7,127.38 L372.28,62.76 L387.28,60.65 C379.17,67.65 374.82,77.52 374.82,89.57 C374.82,108.02 385.49,119.2 407.4,129.99 C417.1,134.83 426.78,137.81 434.16,143.77 C438.208014,146.864789 440.575883,151.674524 440.56,156.77 C440.56,166.83 432.41,174.1 418.65,174.1 C399.24,174.1 387.42,162.74 383.95,140.39 L376.95,140.39 L377.95,175.03 C390.75,181.36 404.72,184.34 420.22,184.34 C452.61,184.34 470.22,168.69 470.22,144.86 C470.22,132.94 466.72,123.81 459.22,116.92 C449.32,107.79 437.06,103.51 427.38,99.03 C412.44,92.15 402.95,88.03 402.95,75.76 C402.95,65.88 412.95,59.37 424.95,59.37 C441.44,59.37 452.29,69.8 456.35,90.65 L461.99,90.65 L460.63,55.83 C448.41,51.55 437.17,48.93 425.53,48.93 C417.898691,48.8320799 410.298361,49.9183233 403,52.15 L335.26,52.15 L335.26,59.41 L352.32,62.76 L324,112.12 L298.23,62.76 L313.93,59.41 L313.93,52.15 L242.77,52.15 L242.77,59.41 L259.83,62.76 L298.23,127.38 L298.23,170.6 L281.45,173.87 L270.45,170.6 L223.88,52.15 L201.2,52.15 L161.28,149.32 C157.04,143.92 153.05,138.59 149.2,133.49 C142.2,123.38 134.45,111.63 125.39,98.49 L126.3,97.99 C127.66,97.47 129.12,96.82 130.65,96.11 L121.81,87.81 L109.28,140.12 Z M188.21,128.2 L204.12,85.48 L220.55,135.68 L185.38,135.77 L188.21,128.2 Z" id="Shape" fill="#002D62"></path>
            <path d="M83.7,93.85 C82.7,93.85 79.41,93.85 77.7,93.79 L77.7,100.61 L90.24,104.84 C90.59,105.44 90.95,106.08 91.35,106.84 C91.8769081,107.678093 92.3414934,108.553786 92.74,109.46 C97.74,118.27 102.61,128.08 108,137.8 L106.56,88 C100.91,91.92 93.35,93.85 83.7,93.85 Z" id="Path" fill="#002D62"></path>
            <path d="M130.79,66.57 L154.45,73 C157.888104,65.8236545 159.642672,57.9571709 159.58,50 C159.58,18.11 138.16,5.32 92.68,5.32 L5.37,5.32 L5.37,15.65 L30.46,20.42 L30.46,166.35 L5.37,170.87 L5.37,181.41 L97.37,181.41 L97.37,170.87 L71.76,166.35 L71.76,16.4 C74.63,16.14 77.49,15.89 80.11,15.89 C105.99,15.89 119.11,30.21 119.11,57.58 C119.11,57.72 119.11,57.85 119.11,57.98 L143.88,37.68 L130.79,66.57 Z" id="Path" fill="#002D62"></path>
            <path d="M82.3,40 L78.3,37 L82.3,42 L106.92,72.41 L83.41,81.19 L106.31,81.13 C106.857095,74.5505521 109.353423,68.2836211 113.48,63.13 L113.48,63.13 L82.3,40 Z" id="Path" fill="#FFD200"></path>
            <path d="M154.45,73 L130.79,66.59 L143.84,37.7 L119.07,58 L118.24,58.7 L112.67,45.8 L110.83,41.53 L113.47,63 L113.47,63.12 C113.96,62.52 114.47,61.91 114.97,61.33 L122.07,55.6 L120.26,63.54 L129,58.64 L123.95,68.89 L151,77.16 L123.11,77.79 L129.22,89.4 L119.22,80.87 L111.33,112.26 L110.21,83.26 L106.5,86 L106.56,88.07 L108,137.77 L108.21,144.77 L109.33,140.08 L121.86,87.73 L130.7,96.03 L134.88,99.96 L140.26,104.96 L147,111.29 L142.51,103.73 L138.87,97.62 L136.15,93.03 L129.21,81.5 L149.31,81.27 L155.84,81.19 L164.07,81.1 L183.59,80.87 L166.25,76.17 L159.63,74.38 L154.45,73 Z" id="Path" fill="#FFD200"></path>
            <path d="M111.31,112.26 L119.2,80.87 L129.2,89.4 L123.09,77.79 L151,77.16 L123.92,68.89 L129,58.64 L120.28,63.56 L122.09,55.62 L115,61.35 C114.47,61.93 114,62.54 113.5,63.14 L113.5,63.14 C109.373423,68.2936211 106.877095,74.5605521 106.33,81.14 C106.335518,81.2165674 106.335518,81.2934326 106.33,81.37 L106.27,81.87 L106.5,86 L106.5,86 L110.19,83.3 L111.31,112.26 Z" id="Path" fill="#FFFFFF"></path>
            <polygon id="Path" fill="#002D62" points="479.1 170.76 481.99 170.76 481.99 178.64 483.96 178.64 483.96 170.76 486.86 170.76 486.86 169.05 479.1 169.05"></polygon>
            <polygon id="Path" fill="#002D62" points="496.62 169.05 494.3 175.31 494.23 175.31 492.01 169.05 488.6 169.05 488.6 178.64 490.57 178.64 490.57 170.99 490.61 170.99 493.31 178.64 495.19 178.64 497.98 170.99 498.02 170.99 498.02 178.64 500 178.64 500 169.05"></polygon>
        </g>
    </g>
</svg>