<?xml version="1.0" encoding="UTF-8" standalone="no"?>
<svg width="500px" height="502px" viewBox="0 0 500 502" version="1.1" xmlns="http://www.w3.org/2000/svg" xmlns:xlink="http://www.w3.org/1999/xlink">
    <!-- Generator: Sketch 39.1 (31720) - http://www.bohemiancoding.com/sketch -->
    <title>TEX</title>
    <desc>Created with Sketch.</desc>
    <defs></defs>
    <g id="MLB" stroke="none" stroke-width="1" fill="none" fill-rule="evenodd">
        <g id="TEX">
            <g transform="translate(0.000000, 1.000000)">
                <g id="Group-3" fill="#FFFFFF">
                    <path d="M249.494015,1.02507432 C111.924386,1.02507432 0,112.94946 0,250.519089 C0,388.088719 111.924386,500 249.494015,500 C387.057092,500 498.974926,388.088719 498.974926,250.519089 C498.974926,112.94946 387.057092,1.02507432 249.494015,1.02507432" id="Fill-1"></path>
                </g>
                <path d="M479.534599,250.505985 C479.514943,249.071057 479.462525,247.642681 479.429765,246.207753 L407.670259,246.207753 C406.543284,207.405727 391.322563,168.937862 361.706697,139.328548 C300.135836,77.7445822 200.267466,77.7511344 138.690052,139.321996 C108.982456,169.036145 93.7486309,207.65471 92.7002816,246.581228 L19.5255046,246.509153 C19.4992959,247.87856 19.4730872,249.175892 19.4468784,250.473224 C19.4403262,250.866355 19.4272219,251.226725 19.4272219,251.646065 C19.4272219,252.68131 19.4927437,253.70345 19.5058481,254.738695 L92.6871773,254.738695 C93.643796,293.783152 108.890725,332.545865 138.690052,362.345192 C200.267466,423.929158 300.122731,423.929158 361.706697,362.332088 C391.597755,332.447583 406.851236,293.534169 407.722676,254.365221 L479.47563,254.365221 C479.495286,253.329976 479.554256,252.307835 479.554256,251.27259 C479.554256,251.017055 479.534599,250.76152 479.534599,250.505985" id="Fill-4" fill="#FFFFFF"></path>
                <path d="M249.494015,20.445744 C123.97385,20.445744 21.6877249,121.486954 19.5255046,246.502601 L92.7002816,246.581228 C93.7486309,207.65471 108.982456,169.036145 138.690052,139.321996 C200.267466,77.7511344 300.135836,77.7445822 361.706697,139.328548 C391.322563,168.937862 406.543284,207.405727 407.670259,246.207753 L479.429765,246.207753 C479.462525,247.642681 479.514943,249.071057 479.534599,250.505985 C479.534599,250.512537 479.554256,250.512537 479.554256,250.519089 C479.554256,123.649175 376.350825,20.445744 249.494015,20.445744" id="Fill-5" fill="#B02534"></path>
                <path d="M479.554256,251.27259 C479.554256,252.307835 479.495286,253.329976 479.47563,254.365221 L407.722676,254.365221 C406.851236,293.534169 391.597755,332.447583 361.706697,362.332088 C318.468843,405.583046 256.400016,418.327042 201.925168,400.858923 L203.104561,399.122594 C199.645009,398.277363 195.287807,395.341985 192.725904,392.904573 C187.032057,394.359157 183.932874,391.738284 180.008117,390.578548 L179.647747,391.78415 C164.885679,384.393287 151.001604,374.656744 138.690052,362.345192 C132.85861,356.520302 127.754459,350.256415 123.036888,343.81562 C124.602859,344.74603 126.398158,345.741961 127.859294,346.259584 L126.450575,343.887694 C126.450575,343.887694 122.434087,341.247164 119.203861,338.613187 C116.596092,334.714638 114.204545,330.717806 111.983355,326.648901 C116.655062,330.894715 119.845975,331.635112 123.377601,333.312471 L122.296491,328.254186 C119.289039,327.304119 113.28724,324.735663 108.851412,320.37191 C98.7151854,299.686669 93.2375606,277.291308 92.6871773,254.738695 L19.5058481,254.738695 C19.4927437,253.70345 19.4272219,252.68131 19.4272219,251.646065 C19.4272219,251.226725 19.4403262,250.866355 19.4468784,250.473224 C19.4468784,250.499433 19.4272219,250.492881 19.4272219,250.519089 C19.4272219,249.16934 19.5058481,247.845799 19.5255046,246.502601 C21.6877249,121.486954 123.97385,20.445744 249.494015,20.445744 C376.350825,20.445744 479.554256,123.649175 479.554256,250.519089 C479.554256,250.512537 479.534599,250.512537 479.534599,250.505985 C479.534599,250.76152 479.554256,251.017055 479.554256,251.27259 L479.554256,251.27259 Z M187.706932,395.525446 C189.128755,395.610624 190.471953,395.512342 191.972403,395.197837 C193.67597,397.071761 195.137107,398.126662 196.729287,399.043968 C193.695627,397.949754 190.681623,396.809674 187.706932,395.525446 L187.706932,395.525446 Z M249.494015,9.48394226 C116.373318,9.48394226 8.45886794,117.404944 8.45886794,250.519089 C8.45886794,383.626682 116.373318,491.547684 249.494015,491.547684 C382.614712,491.547684 490.516058,383.626682 490.516058,250.519089 C490.516058,117.404944 382.614712,9.48394226 249.494015,9.48394226 L249.494015,9.48394226 Z" id="Fill-6" fill="#212F57"></path>
                <path d="M82.8457988,308.289685 C82.2757589,309.816343 80.9915311,310.969527 79.1634721,311.664059 C77.1650563,312.371695 75.0552535,312.253755 73.4106556,311.356106 L73.4041034,311.356106 C72.1526365,310.681231 71.2156744,309.587017 70.6980519,308.197954 C70.6980519,308.197954 69.8004029,305.786751 69.3679588,304.61391 C70.6128736,304.188018 80.342865,300.918479 81.5419144,300.512244 C81.8891801,301.442654 82.6623377,303.604874 82.6623377,303.604874 C83.0227077,304.587701 83.1930645,305.505007 83.1930645,306.356791 C83.1930645,307.051322 83.0816774,307.693436 82.8457988,308.289685 L82.8457988,308.289685 Z M82.9309772,322.285147 C85.6763417,321.269559 87.5699225,319.343217 88.6575849,316.519226 C90.1580347,312.633782 89.8762909,307.123396 87.9106361,301.776815 L82.3805938,286.719899 L81.52881,287.538922 C81.52881,287.538922 78.4754929,290.4743 78.4623885,290.493956 C78.4034189,290.467748 74.7341965,291.791289 74.7341965,291.791289 C74.7341965,291.791289 67.3891997,294.431818 67.3105735,294.464579 C67.3105735,294.281118 62.8878501,292.420298 62.8878501,292.420298 L62.1867665,292.132002 C62.1867665,292.132002 59.9917853,296.987169 59.7493546,297.531001 C59.1989712,297.734118 47.4378032,302.025798 47.4115944,302.03235 C47.3984901,301.986485 43.3951064,301.763711 43.3951064,301.763711 L42.2419222,301.691637 L47.2215811,315.588816 C47.2215811,315.588816 51.1135777,311.500254 51.1266821,311.48715 C51.1790995,311.533015 61.0794477,307.850688 63.8248122,306.8351 C63.9296472,307.129948 64.5521045,308.866277 64.7421178,309.436317 C64.1655257,310.078431 50.6156118,325.030512 50.6156118,325.030512 L54.566578,336.293714 C54.566578,336.293714 58.0654436,330.940581 58.1637263,330.802985 C58.3930527,330.560554 69.6300462,318.792834 70.4556212,317.921393 C73.9413824,321.931329 78.8096542,323.772493 82.9309772,322.285147 L82.9309772,322.285147 Z" id="Fill-7" fill="#FFFFFF"></path>
                <path d="M110.122536,371.478935 C108.700712,373.95566 104.808715,380.704409 104.029006,382.067263 C103.019969,380.914078 99.4621343,376.864829 98.4006806,375.659228 C99.9732045,375.09574 107.416484,372.442106 110.122536,371.478935 L110.122536,371.478935 Z M119.151443,361.152695 C119.151443,361.152695 102.862717,366.846542 102.8103,366.859646 C102.803747,366.748259 97.9354757,365.555762 97.9354757,365.555762 L97.3261227,365.405062 C97.3261227,365.405062 95.3866766,369.51328 95.1376936,370.017798 C94.5348928,370.220916 81.5091535,374.597774 81.5091535,374.597774 C81.5091535,374.597774 81.5943319,374.637087 81.6074362,374.643639 C80.9915311,374.669848 79.8645556,374.827101 77.4074871,375.200575 C77.4009349,375.200575 75.468041,375.528184 75.468041,375.528184 L83.7958653,385.094371 C83.7958653,385.094371 85.7418636,380.973048 85.9580856,380.494739 C86.4167384,380.304725 91.1932796,378.411145 91.959885,378.109744 C92.5757902,378.804276 100.222187,387.485918 100.818436,388.173897 C100.399096,388.901189 97.9158191,393.245286 97.6930449,393.658074 C97.1819747,393.808774 92.7920122,395.138867 92.7920122,395.138867 L103.642427,407.548701 C103.642427,407.548701 105.044594,401.206188 105.051146,401.17998 C105.064251,401.304471 107.862033,396.632765 107.862033,396.632765 C107.862033,396.632765 112.271652,389.300872 112.310965,389.248455 C112.35683,389.379499 116.64851,387.695588 116.64851,387.695588 L117.225102,387.479366 C117.225102,387.479366 116.347109,381.569297 116.340557,381.54964 C116.465049,381.575849 123.901776,366.263398 123.901776,366.263398 L124.117998,365.811297 L119.859079,360.910264 L119.151443,361.152695 L119.151443,361.152695 Z" id="Fill-8" fill="#FFFFFF"></path>
                <path d="M185.518503,414.703685 C185.433324,414.644715 179.968804,425.79653 179.968804,425.79653 C179.968804,425.79653 178.376623,429.052965 177.302065,431.241394 C176.587877,427.303532 172.040663,402.228329 172.040663,402.228329 L161.393366,397.019344 L161.485096,398.32978 C161.485096,398.32978 161.806153,403.289783 161.806153,403.315991 C161.740631,403.217708 158.903536,409.01639 158.903536,409.01639 C158.903536,409.01639 157.11479,412.659404 156.878912,413.15737 C156.341633,413.360487 151.761657,415.116472 151.761657,415.116472 C151.761657,415.116472 153.249003,420.685828 153.262107,420.731693 C153.09175,420.705484 149.383215,428.207734 149.383215,428.207734 C149.383215,428.207734 147.227547,432.564935 147.201338,432.604248 C147.14892,432.538726 143.813859,434.982691 143.813859,434.982691 L142.804823,435.723087 L154.932913,441.744543 C154.932913,441.744543 154.205621,435.624804 154.192517,435.6117 C154.297352,435.6117 161.891332,420.345114 164.636696,414.821624 C165.33778,418.877425 170.6516,449.607162 170.6516,449.607162 L175.644363,452.123201 C175.644363,452.123201 183.723205,435.592043 183.755965,435.513417 C183.841144,435.651013 187.94281,433.757432 187.94281,433.757432 L188.51285,433.488793 C188.51285,433.488793 187.261383,428.391195 187.248279,428.332225 C187.418636,428.332225 190.491609,422.04213 190.491609,422.04213 C190.491609,422.04213 192.509682,417.894598 192.529338,417.861837 C192.607964,417.881494 195.785773,415.372008 195.785773,415.372008 L196.722735,414.631611 L184.994328,408.682229 C184.994328,408.682229 185.518503,414.690581 185.518503,414.703685" id="Fill-9" fill="#FFFFFF"></path>
                <path d="M260.842396,448.506396 C260.770322,448.506396 260.750665,452.326318 260.750665,452.326318 L260.724456,459.77615 C259.86612,460.038237 258.883293,460.837604 255.862737,460.811395 C248.445666,460.752425 244.081912,454.108512 243.046667,447.556329 C243.112189,447.510464 246.375176,444.254029 246.375176,444.254029 L246.873142,443.762615 C246.873142,443.762615 243.852586,440.178571 243.439798,439.687158 C243.466007,439.529905 243.65602,438.389826 243.65602,438.389826 C245.182679,433.148079 249.317106,427.513202 256.327942,427.683559 C261.386227,427.788394 265.14718,429.020204 266.922821,431.149664 C266.916269,431.136559 267.551831,431.922821 267.551831,431.922821 L268.849163,433.534658 L269.091594,425.514786 L268.587076,425.167521 C264.963719,422.710452 261.857984,421.858668 256.301733,421.806251 C245.621675,421.707968 235.904788,428.253599 232.661458,437.721503 C232.648353,437.767368 232.130731,439.687158 232.111074,439.726471 C232.078313,439.654397 229.031548,442.819101 229.031548,442.819101 L228.586,443.29741 L231.966926,447.746343 C233.794985,458.432953 244.081912,466.544555 255.810319,466.642838 C264.046413,466.721464 266.444512,465.522414 269.255398,464.126799 L270.893444,463.307777 C270.893444,463.307777 270.958966,448.30983 270.958966,448.250861 C271.063801,448.250861 273.108082,444.614399 273.108082,444.614399 L273.743643,443.480872 L258.182209,443.362932 C258.182209,443.362932 260.829291,448.46053 260.842396,448.506396" id="Fill-10" fill="#FFFFFF"></path>
                <path d="M345.974906,437.072837 C345.948697,437.007315 339.462036,439.850962 339.462036,439.850962 C339.462036,439.850962 336.939446,440.951729 335.950066,441.390725 C335.648666,440.650329 331.121108,429.852331 330.610038,428.607417 C331.75667,428.116003 337.588112,425.599965 337.601217,425.593413 C337.614321,425.626174 341.853583,425.383743 341.853583,425.383743 L342.928141,425.331325 L339.199949,416.348283 C339.199949,416.348283 335.137596,420.12234 335.131044,420.12234 C335.117939,420.096131 328.362639,423.024957 328.362639,423.024957 C328.362639,423.024957 328.27746,423.06427 328.238147,423.077374 C327.740182,421.897982 324.280629,413.884662 323.782663,412.718373 C324.844117,412.259721 333.787846,408.413589 334.122008,408.256337 C334.534795,408.289098 341.709435,408.682229 341.709435,408.682229 L338.033661,399.961274 L336.998416,400.413374 L309.636501,412.299034 L314.445803,415.817556 C314.445803,416.020674 318.894735,426.392779 319.281314,427.310084 C319.032331,427.847363 316.909423,432.388026 316.909423,432.388026 C316.909423,432.388026 321.744934,434.163668 322.30187,434.366785 C322.531196,434.923721 327.189798,446.350728 327.202903,446.383488 C327.137381,446.396593 326.803219,450.550677 326.803219,450.550677 L326.698384,451.828352 L354.708966,439.628188 L351.105265,431.162768 C351.105265,431.162768 346.001115,437.059732 345.974906,437.072837" id="Fill-11" fill="#FFFFFF"></path>
                <path d="M394.212076,372.881102 C394.212076,374.270165 393.727214,375.574049 392.7837,376.674816 C392.7837,376.681368 391.145654,378.633919 390.333183,379.603642 C389.330699,378.686336 381.73672,371.799992 380.80631,370.954761 C381.435319,370.207812 382.942321,368.464931 382.942321,368.464931 C384.161027,367.023451 385.504225,366.197876 386.912944,366.007863 C388.524781,365.765432 390.149722,366.309263 391.630516,367.580386 C393.248905,368.976001 394.179315,370.882687 394.212076,372.756611 L394.212076,372.881102 L394.212076,372.881102 Z M401.360507,372.114497 C401.963308,370.44369 402.402304,368.746675 402.402304,367.14139 C402.402304,363.904612 401.242568,360.982338 399.02793,359.069101 C396.80674,357.155864 394.192419,356.441676 391.211176,356.880672 C387.096405,357.483473 382.444355,360.438507 378.768581,364.776052 L368.389923,377.008977 C368.389923,377.008977 373.716848,378.588054 373.743057,378.588054 L373.743057,378.594606 C373.743057,378.712545 382.444355,386.306525 382.536086,386.385151 C382.509877,386.385151 382.496773,386.476882 382.496773,386.634134 C382.496773,387.649722 382.90956,391.246871 382.90956,391.246871 L382.994739,391.993819 C382.994739,391.993819 388.321663,391.522062 388.891703,391.476197 C389.370013,391.882432 398.883782,400.059556 398.883782,400.059556 C398.883782,400.1906 400.593902,403.696018 400.593902,403.696018 L401.104972,404.737815 L410.73668,393.572895 C410.73668,393.572895 405.304921,392.170728 405.298369,392.170728 C405.298369,392.105207 397.212975,385.231967 394.978681,383.344938 C395.358708,382.905942 396.44637,381.674132 396.80674,381.267896 C397.645419,381.45791 417.269207,385.978916 417.269207,385.978916 L425.112169,376.995873 C425.112169,376.995873 418.697583,376.53722 418.605852,376.530668 C418.487913,376.504459 402.625078,372.442106 401.360507,372.114497 L401.360507,372.114497 Z" id="Fill-12" fill="#FFFFFF"></path>
                <path d="M454.354561,305.373963 C452.768933,301.829233 449.761481,299.24112 445.869484,298.087936 C444.14626,297.550657 442.075771,297.668596 440.765334,297.996206 L440.765334,298.002758 C438.583457,298.599006 436.657115,300.001174 435.851197,300.74157 C435.824988,300.767779 433.197563,303.342787 433.197563,303.342787 C433.125489,303.408309 432.280257,304.437001 431.972305,304.810476 C431.421921,304.82358 428.119621,304.862893 428.119621,304.862893 C428.119621,304.862893 426.868154,309.816343 426.822289,310.032565 C426.750215,310.039118 426.34398,310.478114 426.34398,310.478114 C423.369289,313.629714 421.397082,313.636266 420.486328,313.361074 C418.566539,312.607573 415.297,309.659091 416.869524,305.301889 C418.160304,301.691637 419.523158,299.843921 421.9016,298.513828 L422.497849,298.173115 L422.530609,297.34754 L420.859803,293.580034 L419.850767,294.110761 C416.94815,295.630868 414.399351,299.326299 412.669574,304.515627 C410.34355,311.500254 411.719508,320.450536 418.881044,323.267974 C420.008019,323.693866 421.678826,324.211489 423.297215,323.896984 C425.275974,323.497301 427.353016,322.442399 429.154866,320.955054 C429.181075,320.928845 430.347363,319.860839 430.347363,319.860839 C430.314603,319.8936 430.806016,319.487365 430.871538,319.434948 C430.910851,319.579096 434.134525,319.631513 434.134525,319.631513 L434.724222,319.638065 C434.724222,319.638065 436.30985,314.022845 436.30985,314.003188 C436.375372,314.022845 440.162533,309.750821 440.162533,309.750821 C441.610566,308.374863 443.654847,307.568945 444.958731,307.883449 C447.160264,308.505907 448.680371,309.829448 449.584572,311.598537 C450.7181,313.806623 450.849143,316.5913 449.971151,319.65117 C448.123435,324.807737 444.50663,326.426127 441.800579,326.865123 L440.850512,327.022375 L440.765334,327.992098 L442.28544,331.877543 L443.084807,331.798916 C446.282272,331.484412 451.871284,327.671041 454.249726,320.168792 C456.077785,314.455289 456.110546,309.331482 454.354561,305.373963" id="Fill-13" fill="#FFFFFF"></path>
                <path d="M119.446292,134.185084 C119.446292,134.047489 109.375587,125.55586 109.211782,125.411712 C109.224887,125.411712 109.231439,125.378951 109.231439,125.319981 C109.231439,124.651659 108.556564,120.897258 108.556564,120.897258 L108.432072,120.196174 C108.432072,120.196174 103.897962,120.667931 103.347579,120.720349 C102.90203,120.353427 95.904299,114.456462 94.9149194,113.624335 C95.6815248,112.687373 99.0755555,108.585706 99.0886598,108.559498 C99.1279729,108.62502 104.526972,106.200712 104.526972,106.200712 L105.69326,105.68309 L98.3548154,99.9433774 L97.8830582,100.519969 L75.5925325,127.121831 L82.6623377,132.94017 C82.6623377,132.94017 84.3724574,126.152108 84.3790095,126.132452 C84.4248748,126.165213 87.6616531,122.319082 88.7558676,121.008645 C89.7583516,121.83422 96.7953959,127.62635 97.2147356,127.973615 C97.2868096,128.517446 97.8109842,133.130183 97.8109842,133.130183 C97.8109842,133.130183 102.44993,132.920513 102.980656,132.894304 C103.4131,133.254675 113.22827,141.516977 113.22827,141.516977 C113.22827,141.674229 114.918733,145.317243 114.918733,145.317243 L115.429804,146.41801 L124.943573,135.036868 C124.943573,135.036868 119.465948,134.191637 119.446292,134.185084" id="Fill-14" fill="#FFFFFF"></path>
                <path d="M151.329213,80.3916641 C151.106439,80.9485996 149.363558,85.4958144 149.363558,85.4958144 C149.363558,85.4958144 154.212173,86.8979815 154.782213,87.0683383 C155.063957,87.6383782 160.68573,99.0260718 160.705386,99.0588327 C160.633312,99.0719371 160.607104,102.83289 160.607104,102.83289 L160.593999,104.110566 L187.156548,90.1609685 L183.14006,82.1017838 C183.14006,82.1017838 178.723889,88.024957 178.723889,88.0380613 C178.684576,87.9790917 170.212604,92.4607847 168.436962,93.3977468 C167.821057,92.2118018 162.579311,81.9510836 161.989614,80.7978994 C163.11659,80.2082029 169.229776,76.9976334 169.255985,76.9910812 C169.255985,77.0369465 173.043147,76.5389806 173.043147,76.5389806 L174.1046,76.3948326 L170.179843,68.5125567 C170.179843,68.5125567 166.654768,72.2669574 166.648216,72.2735096 C166.635112,72.2407487 161.078861,75.1302613 159.460472,75.9689407 C158.877327,74.8485174 154.808422,66.9990025 154.212173,65.8720271 C155.417775,65.2430175 164.951201,60.3026717 164.97741,60.2895674 C164.983962,60.3616414 170.776091,60.2502543 170.776091,60.2502543 L172.007902,60.2240455 L167.676909,51.8438038 L166.995482,52.2041738 L140.780199,65.9834142 L145.504322,68.9187921 C145.504322,69.1219097 150.549503,78.8781098 151.329213,80.3916641" id="Fill-15" fill="#FFFFFF"></path>
                <path d="M325.060339,77.7838953 C326.318358,76.6045024 333.250567,70.1309459 335.432444,68.0801127 C335.091731,71.0482514 334.023725,80.2999335 333.840264,81.9248748 C332.405336,81.25 326.567341,78.4915311 325.060339,77.7838953 L325.060339,77.7838953 Z M315.671061,87.0421296 C316.031431,86.6752073 319.92998,82.7766586 320.565541,82.147649 C321.443534,82.5538844 332.490514,87.7694218 333.381611,88.1887615 C333.276776,89.0864106 332.680527,94.4264395 332.62811,94.9506141 C332.228427,95.2782233 328.978544,98.0432444 328.978544,98.0432444 L342.901932,104.569218 C342.901932,104.569218 341.807718,98.7639845 341.807718,98.7574323 C341.853583,98.7574323 343.688194,85.4040839 343.720955,85.2009662 C343.845447,85.3058011 347.619504,81.9183226 347.619504,81.9183226 L348.150231,81.4400133 C348.150231,81.4400133 344.317204,76.5651893 344.297547,76.552085 C344.474456,76.5389806 345.286927,58.841535 345.286927,58.841535 L345.319688,58.3304647 L339.842063,55.7030394 L339.462036,56.0568573 C339.462036,56.0568573 326.075927,68.4339305 326.030062,68.4666914 C326.010405,68.3553043 320.945568,69.1350141 320.945568,69.1350141 L320.296902,69.239849 C320.296902,69.239849 320.323111,73.7870638 320.329663,74.3833125 C319.838249,74.8223087 309.767544,83.8774253 309.767544,83.8774253 C309.872379,83.7987991 306.150739,86.124824 306.150739,86.124824 L304.958242,86.8717728 L315.526913,91.8317752 C315.526913,91.8317752 315.644852,87.5663042 315.671061,87.0421296 L315.671061,87.0421296 Z" id="Fill-16" fill="#FFFFFF"></path>
                <path d="M388.832734,145.965909 C392.174347,147.014258 395.692869,146.62768 398.982065,144.852038 C400.567693,144.019911 401.943651,142.467043 402.546452,141.399038 C403.752054,139.348205 404.073111,136.897688 404.079663,136.124531 L404.151737,132.376682 C404.151737,132.304608 404.020693,130.817263 403.98138,130.312744 C404.374511,129.906509 406.615358,127.62635 406.615358,127.62635 C406.615358,127.62635 404.079663,123.308461 404.014141,123.190522 C404.033798,123.177417 404.04035,123.059478 404.04035,122.91533 C404.04035,122.699108 404.033798,122.174934 404.033798,122.037338 C404.033798,118.715381 404.924894,116.487639 406.582597,115.766899 C408.581012,114.882354 413.147884,114.993741 415.106986,119.25266 C416.777793,122.849808 417.111954,125.228251 416.338797,128.006376 L416.155336,128.674699 L420.014571,130.181701 L420.270106,129.395439 C421.573991,125.300325 419.47074,119.966848 418.101334,117.142857 C414.897317,110.63654 407.76199,105.342376 400.82978,108.323619 C399.755222,108.769168 398.261325,109.581638 397.363675,110.898627 C396.256357,112.517016 395.522512,114.692341 395.30629,117.018366 L395.201455,118.643307 C395.201455,118.558129 395.129381,119.377151 395.116277,119.481986 C394.985233,119.396808 392.757491,121.53282 392.757491,121.53282 L392.325047,121.945607 C392.325047,121.945607 395.070412,126.93837 395.076964,126.964579 C395.070412,126.964579 395.070412,127.023549 395.070412,127.128384 C395.070412,128.071898 395.319394,132.796022 395.319394,132.796022 C395.24732,134.925481 394.297254,137.087701 393.045787,137.873963 C391.453607,138.909208 389.409326,139.204056 387.41091,138.692986 C385.530433,138.221229 382.830934,136.819062 380.668714,132.854991 C378.250958,127.62635 379.744856,123.75401 381.422215,121.441089 L381.985703,120.661379 L377.929901,118.89229 L377.556427,119.337838 C375.243506,122.188038 374.522766,128.70746 377.80541,135.194121 C380.694923,140.887967 384.508293,144.616159 388.832734,145.965909" id="Fill-17" fill="#FFFFFF"></path>
                <path d="M239.154671,75.8772101 C239.554354,75.3661399 246.663472,66.1668753 247.764239,64.7450516 C248.786379,66.265158 255.397532,76.1196409 255.42374,76.158954 C255.417188,76.158954 255.417188,76.1851627 255.417188,76.231028 C255.417188,76.7158895 255.718589,79.349867 255.718589,79.349867 L255.797215,80.031294 L270.467552,80.0116375 L265.120971,74.7698913 C265.120971,74.7436825 256.950399,62.6221444 255.580993,60.5909678 C255.961019,59.9750626 257.441813,57.6359333 257.441813,57.6359333 C257.441813,57.6359333 255.548232,55.5130261 254.97164,54.86436 C255.666171,53.9339501 264.865436,41.6027421 264.865436,41.6027421 L269.11125,36.6951573 L255.915154,36.6558442 L256.367255,37.7238499 C256.367255,37.7238499 257.415604,40.1678141 257.684243,40.809928 C257.219038,41.4258332 250.752034,50.0091926 249.65782,51.457225 C248.642231,49.9043577 242.568358,40.593706 242.548701,40.5543929 C242.555253,40.5543929 242.555253,40.5281842 242.555253,40.4757667 C242.555253,39.984353 242.266957,37.3438233 242.266957,37.3438233 L242.188331,36.6558442 L228.494269,36.6951573 L232.858023,41.6879205 C232.858023,41.7010249 240.465107,53.2787318 241.768992,55.257491 C241.408621,55.8733962 239.908172,58.2977038 239.908172,58.2977038 C239.908172,58.2977038 242.090049,60.4009545 242.764923,61.0561727 C242.011422,62.0586567 232.156939,75.0712917 232.156939,75.0778438 C232.137283,75.0778438 228.369778,78.6356791 228.369778,78.6356791 L226.947954,79.9854287 L240.065424,79.8412807 C240.065424,79.8412807 239.285714,76.4406979 239.154671,75.8772101" id="Fill-18" fill="#FFFFFF"></path>
                <polyline id="Fill-19" fill="#FFFFFF" points="434.311434 173.779925 439.952863 191.143209 458.233453 191.143209 443.438625 201.888789 449.086606 219.252073 434.311434 208.519598 419.52971 219.252073 425.177691 201.888789 410.395967 191.143209 428.670005 191.143209 434.311434 173.779925"></polyline>
                <polyline id="Fill-20" fill="#FFFFFF" points="63.1499374 173.779925 68.7979189 191.143209 87.0588523 191.143209 72.2902324 201.875685 77.9316617 219.252073 63.1499374 208.519598 48.3878697 219.252073 54.0227468 201.875685 39.2475747 191.143209 57.5085081 191.143209 63.1499374 173.779925"></polyline>
                <path d="M238.984314,96.811434 C238.984314,96.811434 236.736915,94.9899272 235.13163,93.8760562 C233.965342,93.9743389 232.805606,94.1250391 231.652421,94.2560828 C232.713875,94.6557659 236.605872,96.1824245 237.143151,97.0866257 L238.984314,96.811434" id="Fill-22" fill="#212F57"></path>
                <path d="M231.750704,99.0129675 C231.750704,99.0129675 229.339501,96.916269 225.85374,95.0095838 C224.451573,95.232358 223.069062,95.5075497 221.679999,95.7565326 C224.268111,96.4248553 226.672762,97.9646182 229.267427,99.2357417 L231.750704,99.0129675" id="Fill-23" fill="#212F57"></path>
                <path d="M218.010777,102.787025 L222.210726,101.450379 C222.210726,101.450379 216.75931,98.7705367 214.773999,98.7246714 C213.784619,98.2529143 213.24734,97.8466789 212.454526,97.7156353 C210.567497,98.1808402 208.71323,98.6853583 206.839305,99.2160851 C208.058011,99.4060984 210.560945,99.9106165 211.484803,100.965518 C214.289137,100.467552 216.235135,101.876271 218.010777,102.787025" id="Fill-24" fill="#212F57"></path>
                <path d="M207.186571,107.674953 L211.412729,106.187608 C210.940972,105.407898 205.483003,103.036008 202.436238,102.977038 C201.32892,102.099046 200.149527,101.836958 199.160147,101.633841 C197.535206,102.177672 195.929921,102.747712 194.324636,103.350512 C194.868467,103.468452 197.830054,104.156431 199.264982,105.388241 C202.193808,104.890275 205.08332,106.338308 207.186571,107.674953" id="Fill-25" fill="#212F57"></path>
                <path d="M187.674171,109.483355 C190.819218,109.181955 194.213249,111.101745 196.25753,112.392525 L200.765432,111.23934 C198.341124,109.057464 193.905297,107.33424 191.356497,107.465283 C190.288492,105.866551 188.027989,106.698678 186.593061,106.521769 L181.023705,109.050911 C181.744445,109.050911 187.084474,108.127054 187.674171,109.483355" id="Fill-26" fill="#212F57"></path>
                <path d="M185.492294,119.409912 L189.430156,116.422117 C186.344078,114.75131 181.521671,113.834005 178.999081,113.958496 C177.741062,113.5195 177.917971,113.106713 176.469938,112.929804 L171.057835,115.871734 C171.745814,115.911047 176.319238,116.002777 176.928591,117.345975 C180.04743,117.077335 183.50043,118.164998 185.492294,119.409912" id="Fill-27" fill="#212F57"></path>
                <path d="M162.598967,128.150524 C166.274742,127.469097 171.660636,126.00796 176.922039,127.193905 L180.873005,123.681936 C174.930175,122.640138 168.626975,122.941539 165.436062,123.780218 C164.662905,122.587721 162.867607,121.369015 162.867607,121.369015 L159.106654,124.533719 C160.901952,125.097207 161.504753,126.617313 162.598967,128.150524" id="Fill-28" fill="#212F57"></path>
                <path d="M152.030297,139.996871 C155.070509,138.483316 161.753736,137.415311 168.522141,138.332616 L172.007902,133.837819 C161.753736,133.103974 157.547234,134.407859 154.356321,135.954174 C153.262107,134.099906 151.65027,133.018796 151.65027,133.018796 L148.537983,135.895204 C150.333281,136.45214 150.909873,138.483316 152.030297,139.996871" id="Fill-29" fill="#212F57"></path>
                <path d="M145.039118,148.691617 C143.977664,146.830797 142.04477,144.937216 142.04477,144.937216 L139.581149,148.822661 C141.841652,150.067575 141.62543,151.528712 142.713093,153.068475 C145.772962,151.528712 152.01064,148.612991 158.798701,149.556505 L162.271358,145.061708 C151.65027,145.297586 145.812275,146.234549 145.039118,148.691617" id="Fill-30" fill="#212F57"></path>
                <path d="M137.556525,162.189114 C136.481967,159.620658 133.625215,156.541132 133.625215,156.541132 L131.784052,160.957303 C133.415545,162.189114 134.437686,165.20967 135.564661,166.749433 C138.604874,165.170357 142.536184,162.189114 149.27838,163.171941 L152.475845,157.949851 C143.872829,157.949851 138.32313,159.699284 137.556525,162.189114" id="Fill-31" fill="#212F57"></path>
                <path d="M131.233668,175.221405 C129.877367,171.820822 126.817497,168.905101 126.817497,168.905101 L124.982886,173.799581 C127.269598,175.037944 127.63652,178.0585 128.737287,179.552398 C131.784052,178.045396 136.364028,175.227957 143.178298,176.132159 L145.989184,170.955934 C137.707225,170.955934 131.980617,172.74468 131.233668,175.221405" id="Fill-32" fill="#212F57"></path>
                <path d="M124.982886,190.868018 C123.449675,187.827805 120.094958,184.040643 120.094958,184.040643 L118.587956,189.125137 C120.841907,190.389708 121.890256,193.410264 122.991023,194.963132 C126.04434,193.410264 129.785636,190.887674 136.573697,191.824636 L138.74247,186.930156 C128.435886,187.559165 125.756044,188.424053 124.982886,190.868018" id="Fill-33" fill="#212F57"></path>
                <path d="M118.784521,204.902793 C117.690307,203.048525 113.890041,198.416132 113.890041,198.416132 L112.874452,203.494074 C115.161164,204.758645 116.183305,207.766097 117.31028,209.325516 C120.330836,207.766097 125.41533,204.994524 132.183735,205.892173 L133.88075,200.84044 C123.927985,201.436688 119.577335,202.412964 118.784521,204.902793" id="Fill-34" fill="#212F57"></path>
                <path d="M115.115299,221.833633 C114.034189,219.966261 109.349378,213.4796 109.349378,213.4796 L108.287924,218.898255 C110.535323,220.988402 112.219234,224.867294 113.320001,226.433266 C116.366766,224.880398 121.136755,220.634584 127.872399,221.597755 L128.933852,217.063644 C119.085922,217.804041 117.513398,218.898255 115.115299,221.833633" id="Fill-35" fill="#212F57"></path>
                <path d="M110.993976,243.724476 C112.310965,241.103603 117.284071,238.646534 124.091789,239.210022 L124.937021,234.269676 C116.864732,234.734881 113.22827,236.064974 112.166817,238.377895 C110.974319,236.530179 104.965968,230.299053 104.965968,230.299053 L104.173154,235.553904 C108.176537,238.9938 109.827687,242.289548 110.993976,243.724476" id="Fill-36" fill="#212F57"></path>
                <path d="M108.700712,261.762635 C108.949695,261.480891 109.277304,260.557033 109.952179,259.724906 C111.164333,258.263769 114.650094,256.199832 122.145791,256.514337 L122.571683,251.875391 C113.935906,251.973674 111.15778,254.090029 110.423936,254.941813 C109.742509,255.538061 109.47387,256.691246 109.290408,257.339912 C107.960315,253.808285 102.246812,248.12099 102.246812,248.12099 L101.906098,253.179276 C103.897962,254.070372 107.586841,260.242529 108.700712,261.762635" id="Fill-37" fill="#212F57"></path>
                <path d="M121.084337,290.736387 L120.940189,285.776385 C114.433872,282.854111 111.085706,283.371734 108.700712,284.787005 C107.593393,282.893424 101.060867,280.495325 101.060867,280.495325 L101.368819,285.481537 C104.015901,286.103994 107.239575,287.735487 108.366551,289.268698 C111.400211,287.715831 115.7181,287.859979 121.084337,290.736387" id="Fill-38" fill="#212F57"></path>
                <path d="M107.934107,276.000528 C109.342826,273.641742 110.921902,272.423036 121.025368,274.552496 L121.071233,269.730089 C109.159365,269.153497 109.323169,270.228055 108.949695,271.754714 C107.934107,269.861133 101.073971,263.990377 101.073971,263.990377 L101.172254,269.559732 C103.406548,270.896378 106.898862,274.4149 107.934107,276.000528" id="Fill-39" fill="#212F57"></path>
                <path d="M109.493526,303.061043 C110.07667,301.501623 111.976803,302.366512 114.433872,303.454174 C116.622301,304.46321 118.247242,305.622946 120.756728,306.998905 L120.625685,302.006141 C115.134955,298.481067 109.762166,295.794672 108.99556,298.245189 C107.921002,296.390921 102.214051,293.802809 102.214051,293.802809 L103.491727,299.345955 C106.446761,300.112561 108.386207,301.514728 109.493526,303.061043" id="Fill-40" fill="#212F57"></path>
                <path d="M110.810515,315.621577 C113.411731,315.307072 115.685339,316.303004 121.254694,320.286731 L120.841907,315.56916 C115.154612,310.812275 112.389591,311.080915 110.371519,311.080915 C109.2642,309.05629 104.749746,306.579565 104.749746,306.579565 L105.450829,311.605089 C107.842376,312.581364 109.683539,313.944218 110.810515,315.621577" id="Fill-41" fill="#212F57"></path>
                <path d="M342.901932,272.737541 C341.119739,271.492626 338.079526,269.76285 332.457753,263.597246 L328.297117,266.132941 C330.177593,267.54166 338.656118,277.337173 342.620189,275.85638 C342.620189,275.85638 340.82489,287.977918 341.139395,294.241805 L345.693162,291.326084 C345.53591,288.030336 345.758684,274.133156 346.571155,270.889826 C346.748064,270.719469 344.028908,273.530355 342.901932,272.737541" id="Fill-42" fill="#212F57"></path>
                <path d="M354.925188,264.422821 C350.672821,258.198248 347.829174,255.41357 345.359001,253.729659 L342.312236,256.003266 C343.589912,256.370189 347.03636,259.803532 351.911184,267.063351 L354.826905,264.6587 C355.239693,272.711332 355.875254,280.364282 354.997262,284.040056 L358.515784,281.307796 C359.22342,275.417384 359.039959,268.570353 358.194727,262.31957 L354.925188,264.422821" id="Fill-43" fill="#212F57"></path>
                <path d="M196.67687,385.094371 C190.983023,386.542403 185.715068,383.993604 181.796863,382.827316 L180.7092,386.168929 C186.226138,389.025681 191.539959,388.586684 195.569551,387.721796 C197.777637,390.873396 199.651561,392.642486 204.552593,394.470545 L206.302026,391.928298 C201.086489,391.292736 199.042208,388.619445 196.67687,385.094371" id="Fill-44" fill="#212F57"></path>
                <path d="M200.69991,375.973733 C194.973302,377.421765 188.938742,375.331619 184.987776,374.171882 L183.343178,377.939387 C189.312216,379.983668 194.842259,380.403008 198.884955,379.557777 C200.942341,382.945255 203.176635,386.162377 208.097324,387.996988 L209.905727,384.786418 C205.830269,383.115612 202.030003,380.946839 200.69991,375.973733" id="Fill-45" fill="#212F57"></path>
                <path d="M207.127601,363.930821 L206.524801,364.887439 C200.824402,366.355128 193.911849,365.084005 189.973987,363.930821 L187.949362,367.508312 C193.453196,369.218432 198.249394,369.487072 204.369132,368.805645 L204.683637,368.242157 C206.911379,372.324167 207.481419,374.755027 213.214579,378.116296 L215.999257,374.905727 C212.389004,373.451142 207.992489,367.632804 207.127601,363.930821" id="Fill-46" fill="#212F57"></path>
                <path d="M212.755926,356.612033 L212.434869,357.070685 C206.957245,358.119035 200.457479,355.262283 196.539274,354.109099 L194.285323,357.496577 C199.802261,360.38609 205.175051,360.608864 210.017114,360.608864 L210.30541,360.189524 C212.323482,364.651561 214.262928,369.277402 219.150857,371.125117 L221.928982,367.901443 C218.331834,366.459963 213.627367,360.320568 212.755926,356.612033" id="Fill-47" fill="#212F57"></path>
                <path d="M202.364164,346.161301 C202.86213,346.39718 203.419066,346.652715 203.982554,346.901698 L203.982554,344.424973 L202.364164,346.161301" id="Fill-48" fill="#212F57"></path>
                <path d="M296.591105,319.703587 C293.629518,316.610957 293.747457,307.457558 294.05541,302.504107 L292.686004,303.316578 C287.155962,302.412377 281.180371,296.908543 278.41535,293.154143 L278.074636,293.291738 L278.074636,264.409717 C278.074636,253.991746 292.502543,250.001467 292.502543,250.001467 C292.502543,250.001467 288.577785,248.442047 284.829937,245.624609 L278.972285,247.275759 C278.841242,247.30852 266.123455,250.990847 266.123455,259.626623 L266.123455,310.582949 C266.123455,314.042501 267.545279,316.34887 274.477488,316.34887 L278.061532,316.34887 C278.074636,316.014708 278.094293,315.680547 278.074636,315.326729 L278.074636,299.902891 C281.671785,303.061043 285.452394,305.655707 288.315698,305.976764 L289.567165,305.24292 C289.61303,311.447837 289.088855,315.117059 290.576201,319.461156 L287.516332,316.617509 L287.516332,347.517603 L204.238089,347.517603 L217.322798,359.881572 L222.996988,359.881572 C223.835667,361.250978 224.80539,362.312432 225.997888,362.646593 L228.710491,359.881572 L297.600141,359.881572 L297.600141,326.000235 L292.620482,321.367841 L296.591105,319.703587" id="Fill-49" fill="#212F57"></path>
                <path d="M312.984666,293.213112 L311.628364,294.019031 C306.085217,293.121382 300.116179,287.617548 297.344606,283.850043 L292.188038,285.992607 C296.859744,290.867431 303.051557,296.194355 307.244954,296.685769 L308.502973,295.945372 C308.55539,303.270713 307.618428,306.9858 310.376897,312.548604 L315.526913,310.412592 C312.558774,307.326514 312.689818,298.146906 312.984666,293.213112" id="Fill-50" fill="#212F57"></path>
                <path d="M332.320157,283.679686 L332.136696,283.371734 C330.308637,284.007295 327.989164,283.45036 325.90557,281.687823 C323.848185,279.918733 316.98805,271.787475 316.98805,271.787475 L311.333516,274.873553 C314.609607,278.247927 325.328978,286.772317 327.523959,286.844391 L327.838464,286.608512 C327.871225,293.783152 326.967024,297.511344 329.718941,303.02173 L334.842748,300.872614 C331.887713,297.79964 332.025309,288.61348 332.320157,283.679686" id="Fill-51" fill="#212F57"></path>
                <path d="M364.773118,256.632276 C362.663316,252.963054 358.351979,248.055469 355.08244,245.794966 L352.14051,248.409286 C355.08244,250.152167 361.123553,255.760836 362.938507,260.150798 L364.891058,258.073756 C365.474202,265.071487 365.434889,272.940659 364.62897,276.603329 L368.252327,273.720368 C368.835472,267.410616 368.448893,260.111485 367.32847,254.764904 L364.773118,256.632276" id="Fill-52" fill="#212F57"></path>
                <path d="M373.847892,249.555918 C374.752093,251.908152 375.459729,254.764904 374.745541,268.943827 L378.198541,265.726706 C378.296824,255.092513 377.720232,252.189896 376.580152,246.836763 L373.847892,249.555918" id="Fill-53" fill="#212F57"></path>
                <path d="M382.45746,240.474593 C384.056192,245.840831 385.058676,254.974574 384.174132,260.268737 L387.358492,256.068788 C387.895771,250.080093 386.021847,242.610605 384.914528,237.264024 L382.45746,240.474593" id="Fill-54" fill="#212F57"></path>
                <path d="M389.173447,230.73805 L387.935084,232.860957 C391.401189,237.309889 392.731282,242.315757 393.130965,248.998983 L395.581482,245.23803 C395.502856,238.259955 390.903223,229.145869 389.173447,230.73805" id="Fill-55" fill="#212F57"></path>
                <path d="M393.452022,223.602723 L392.770595,224.43485 L393.281666,223.602723 C391.43395,219.887635 389.186551,215.864595 385.648373,213.407526 L383.728583,215.96943 C386.637752,217.77128 389.664861,222.121929 391.506024,226.511892 L392.449538,224.959024 C394.054823,226.341535 396.918127,228.438233 398.798604,239.301752 L400.246636,235.521143 C398.661008,225.194903 393.845153,221.302906 393.452022,223.602723" id="Fill-56" fill="#212F57"></path>
                <path d="M397.389884,215.451807 L397.068827,216.349456 C395.240768,212.680234 394.041719,210.164196 389.920396,206.396691 L388.49202,208.670298 C392.357808,212.116746 394.067928,214.023431 395.869778,219.075164 L396.780531,217.148823 L396.669144,217.443671 C398.837917,219.238969 401.294985,222.121929 402.782331,230.043518 L403.909306,225.542169 C403.47031,219.828665 398.15649,213.486152 397.389884,215.451807" id="Fill-57" fill="#212F57"></path>
                <path d="M363.403712,237.585081 L360.474887,240.199402 C363.39716,241.93573 369.444825,247.544398 371.246675,251.940913 L373.66443,249.372457 C371.823267,245.65737 366.961547,240.035597 363.403712,237.585081" id="Fill-58" fill="#212F57"></path>
                <path d="M372.255711,229.165526 L369.484138,231.406372 C371.50221,232.756122 378.539254,238.666191 380.360761,243.07581 L382.483668,240.146984 C380.642505,236.405688 375.951142,231.661907 372.255711,229.165526" id="Fill-59" fill="#212F57"></path>
                <path d="M386.565678,234.643151 L388.308559,232.041934 C386.473948,228.300638 383.38787,223.569962 379.836587,221.106341 L377.418831,223.674797 C380.321448,225.45699 384.724515,230.246636 386.565678,234.643151" id="Fill-60" fill="#212F57"></path>
                <path d="M398.837917,210.865279 L399.925579,208.617881 C398.084416,204.856928 397.10814,203.854444 392.99337,199.687256 L392.220212,201.987072 C395.09662,204.457245 397.029514,206.494973 398.837917,210.865279" id="Fill-61" fill="#212F57"></path>
                <path d="M399.643835,209.731752 C400.921511,210.655609 402.199186,211.952942 403.529279,214.062744 C403.136148,212.385386 402.703704,210.708027 402.251604,209.043772 L400.711841,207.320548 L399.643835,209.731752" id="Fill-62" fill="#212F57"></path>
                <path d="M398.222011,196.352194 C397.625763,195.592141 396.80674,194.694492 395.601138,193.508547 L394.972129,195.657663 C397.121245,197.983688 399.211391,200.453861 400.882198,204.227918 C400.069727,201.567732 399.172078,198.953411 398.222011,196.352194" id="Fill-63" fill="#212F57"></path>
                <polyline id="Fill-64" fill="#212F57" points="305.842787 224.271045 318.403321 236.163257 338.93131 236.163257 338.93131 168.413687 327.550168 157.772942 327.550168 224.271045 305.842787 224.271045"></polyline>
                <path d="M266.123455,230.030414 C266.123455,238.06339 279.037807,243.206853 279.168851,243.259271 L284.482671,245.342865 C281.167266,242.774409 278.074636,239.242783 278.074636,234.800403 L278.074636,191.516684 L280.118917,191.641175 C288.060163,192.322602 293.78677,194.425853 297.855676,197.505379 C291.26418,190.907331 280.629987,187.30363 266.123455,187.264317 L266.123455,230.030414" id="Fill-65" fill="#212F57"></path>
                <path d="M225.028165,187.133273 C198.550794,187.133273 187.746245,196.319434 187.720036,219.081716 L187.693827,224.271045 L161.524409,224.271045 L173.455934,235.455621 L198.334572,235.455621 L198.354229,231.275329 C198.354229,207.962662 200.64094,193.266116 225.368878,190.802496 L225.368878,187.133273 L225.028165,187.133273" id="Fill-66" fill="#212F57"></path>
                <path d="M261.890745,310.582949 L261.890745,259.626623 C261.890745,251.63296 268.685358,247.242998 273.416034,245.034912 C268.744328,242.420591 261.890745,237.473693 261.890745,230.030414 L261.890745,182.776072 L264.125039,182.900563 C264.125039,182.900563 266.143111,183.005398 266.031724,183.005398 C293.865397,183.005398 309.819962,195.585589 309.819962,217.535401 C309.819962,217.535401 309.806857,218.79342 309.800305,220.038335 L323.317458,220.038335 L323.317458,161.743565 L165.560554,161.743565 L165.560554,220.038335 L183.657683,220.038335 C183.76907,218.845838 183.867353,217.653341 183.867353,217.653341 L183.513535,218.832734 C183.513535,193.980304 196.309948,182.900563 225.028165,182.900563 L229.601588,182.900563 L229.601588,230.030414 C229.601588,238.109255 223.743937,242.708887 219.543988,245.113539 C223.776698,247.295415 229.601588,251.554334 229.601588,259.626623 L229.601588,310.117744 C229.601588,316.669926 225.087134,320.58158 217.519363,320.58158 L208.215264,320.58158 L208.215264,343.278341 L283.270517,343.278341 L283.270517,320.58158 L274.477488,320.58158 C266.116903,320.58158 261.890745,317.22031 261.890745,310.582949" id="Fill-67" fill="#B02534"></path>
            </g>
        </g>
    </g>
</svg>