<?xml version="1.0" encoding="UTF-8" standalone="no"?>
<svg width="500px" height="502px" viewBox="0 0 500 502" version="1.1" xmlns="http://www.w3.org/2000/svg" xmlns:xlink="http://www.w3.org/1999/xlink">
    <!-- Generator: Sketch 39.1 (31720) - http://www.bohemiancoding.com/sketch -->
    <title>TOR</title>
    <desc>Created with Sketch.</desc>
    <defs></defs>
    <g id="MLB" stroke="none" stroke-width="1" fill="none" fill-rule="evenodd">
        <g id="TOR">
            <g transform="translate(0.000000, 1.000000)">
                <g id="Group-3" fill="#FFFFFF">
                    <path d="M493.176522,284.504783 C484.073043,349.597174 450.18087,407.231522 397.735,446.816522 C370.103043,467.690217 339.142391,482.234348 305.70413,490.045435 C273.394348,497.610652 240.391087,498.556304 207.570652,492.888696 L207.551739,492.888696 C145.781739,482.202826 90.9591304,448.739348 53.1771739,398.68913 C13.5921739,346.243261 -3.21521739,281.522826 5.88826087,216.443043 C14.9791304,151.350652 48.8713043,93.7226087 101.317174,54.1313043 C128.955435,33.2702174 159.916087,18.7323913 193.360652,10.9023913 C225.657826,3.35608696 258.686304,2.40413043 291.506739,8.07804348 C353.283043,18.7576087 408.099348,52.2084783 445.881304,102.258696 C485.466304,154.704565 502.273696,219.437609 493.176522,284.504783 L493.176522,284.504783 Z M448.648913,100.171957 C410.343696,49.4093478 354.745652,15.4919565 292.099348,4.65478261 C258.818696,-1.09478261 225.336304,-0.123913043 192.566304,7.52326087 C158.642609,15.4730435 127.240652,30.218913 99.2304348,51.3573913 C46.0343478,91.5097826 11.6630435,149.957391 2.4523913,215.957609 C-6.77717391,281.957826 10.2634783,347.586087 50.4158696,400.782174 C88.7273913,451.544783 144.331739,485.468478 206.95913,496.305652 L206.978043,496.305652 C240.252391,502.055217 273.728478,501.090652 306.48587,493.424565 C340.384348,485.493696 371.792609,470.75413 399.815435,449.596739 C453.017826,409.450652 487.38913,350.996739 496.606087,284.996522 C505.829348,219.002609 488.795,153.361739 448.648913,100.171957 L448.648913,100.171957 Z" id="Fill-1"></path>
                </g>
                <path d="M323.621087,94.3152174 C329.187826,98.4382609 337.37087,97.2215217 341.493913,91.661087 C345.610652,86.1069565 344.406522,77.9176087 338.852391,73.7945652 C333.279348,69.6715217 325.108913,70.8819565 320.973261,76.436087 C316.850217,81.9965217 318.054348,90.1858696 323.621087,94.3152174" id="Fill-4" fill="#FFFFFF"></path>
                <path d="M93.253913,149.881739 C98.8143478,154.011087 106.997391,152.800652 111.120435,147.233913 C115.249783,141.673478 114.039348,133.490435 108.478913,129.361087 C102.924783,125.238043 94.7354348,126.461087 90.606087,132.008913 C86.4830435,137.569348 87.6997826,145.758696 93.253913,149.881739" id="Fill-5" fill="#FFFFFF"></path>
                <path d="M177.297174,86.7626087 C182.851304,90.8919565 191.034348,89.6815217 195.157391,84.1147826 C199.286739,78.5606522 198.07,70.383913 192.522174,66.2482609 C186.94913,62.1315217 178.772391,63.3356522 174.649348,68.9023913 C170.52,74.4628261 171.736739,82.6395652 177.297174,86.7626087" id="Fill-6" fill="#FFFFFF"></path>
                <path d="M94.3508696,329.461087 C96.5952174,328.401957 96.9419565,325.791957 95.6558696,323.087391 L93.9536957,319.487609 L86.9180435,322.822609 L88.6265217,326.422391 C89.4523913,328.168696 91.5958696,330.766087 94.3508696,329.461087" id="Fill-7" fill="#FFFFFF"></path>
                <polyline id="Fill-8" fill="#FFFFFF" points="334.420435 411.272609 335.000435 418.673913 340.245652 415.918913 334.420435 411.272609"></polyline>
                <path d="M407.683261,282.953913 L415.677174,292.574348 L391.052391,290.563261 L382.957609,289.913913 L375.802174,289.321304 L373.412826,293.923478 L372.296957,296.08587 L368.772826,289.321304 L331.696957,292.347391 L328.90413,292.574348 L336.891739,282.953913 L288.026739,240.803043 L291.84087,239.485435 L296.972609,237.720217 L294.892174,212.427174 L317.915652,216.361087 L322.297174,205.233913 C322.297174,205.233913 336.217174,218.781957 338.877609,221.35413 C338.978478,221.429783 339.041522,221.49913 339.11087,221.562174 C339.659348,222.091739 340.233043,222.482609 340.813043,222.80413 C341.33,223.087826 341.834348,223.283261 342.332391,223.377826 C342.559348,223.421957 342.805217,223.472391 343.02587,223.472391 C343.98413,223.472391 344.81,223.024783 345.371087,222.07913 C345.698913,221.480217 345.919565,220.660652 345.995217,219.651957 C346.051957,219.027826 346.058261,218.321739 345.988913,217.521087 C345.585435,213.530435 342.653913,183.162391 342.647609,183.105652 L356.101087,188.533696 L372.284348,162.099565 L372.296957,162.099565 L388.473913,188.533696 L401.94,183.105652 C401.933696,183.162391 399.916304,203.95413 399.002174,213.385435 C398.806739,215.352391 398.655435,216.827609 398.598696,217.521087 C398.264565,221.190217 399.311087,222.993261 400.861957,223.38413 C401.082609,223.447174 401.31587,223.472391 401.561739,223.472391 C402.784783,223.472391 404.184348,222.766304 405.476739,221.562174 C405.539783,221.49913 405.615435,221.429783 405.703696,221.35413 C408.351522,218.794565 422.277826,205.246522 422.28413,205.233913 L426.671957,216.361087 L449.670217,212.427174 L447.596087,237.720217 L452.078478,239.258478 L456.554565,240.803043 L407.683261,282.953913 L407.683261,282.953913 Z M436.368043,354.779348 C436.368043,354.779348 436.235652,355.069348 435.964565,355.542174 C434.628043,357.937826 429.426957,365.793043 418.696957,366.291087 L418.665435,366.291087 L417.001087,360.541522 L417.038913,360.541522 C419.371522,360.428043 420.392826,360.327174 422.151739,359.911087 C426.287391,358.952826 429.761087,356.292391 431.955,352.415217 C434.010217,348.739783 434.590217,344.692391 433.55,341.042174 C432.78087,338.299783 431.003043,336.074348 428.279565,334.422609 C425.587609,332.802391 422.71913,332.62587 422.397609,332.613261 C418.085435,332.474565 415.166522,334.983696 412.064783,337.637826 C411.787391,337.877391 411.497391,338.110652 411.226304,338.350217 L409.688043,339.617391 L409.517826,339.756087 C406.157609,342.77587 402.349783,346.180217 397.230652,343.292826 C391.796304,340.222609 390.396739,334.605435 393.782174,329.070217 C397.753913,322.570435 403.616957,322.015652 405.949565,322.072391 L406.018913,322.072391 L408.471304,328.887391 L408.370435,328.836957 C402.166957,325.71 398.781522,330.633696 398.409565,331.201087 C396.713696,333.848913 396.90913,336.320217 398.901304,337.719783 C399.191304,337.915217 399.399348,338.066522 399.815435,338.261957 C401.612174,339.106739 403.408913,338.211522 407.210435,334.636957 L407.380652,334.473043 C411.276739,330.791304 419.396739,323.131522 430.94,329.637609 C435.91413,332.430435 438.946522,337.328913 439.268043,343.06587 C439.488696,346.949348 438.492609,350.98413 436.368043,354.779348 L436.368043,354.779348 Z M416.33913,358.253043 L414.334348,351.280435 L414.416304,351.324565 C414.45413,351.343478 419.075217,353.323043 421.981522,351.784783 C422.498478,351.551522 424.251087,350.656304 425.436304,348.348913 C426.886304,345.543478 426.066739,342.372391 424.37087,341.426739 C421.622174,339.882174 418.728478,341.691522 414.636957,345.348043 L414.246087,345.701087 C409.246739,350.196087 403.011739,355.781739 393.151739,350.233913 C392.477174,349.855652 391.846739,349.44587 391.260435,349.023478 C387.080652,345.984783 384.716522,341.729348 384.432826,336.666957 C384.212174,332.896957 385.239783,328.956739 387.48413,324.953478 C390.44087,319.708261 396.524565,315.377174 401.958913,314.639565 L403.263913,314.469348 L403.276522,314.469348 L403.276522,314.513478 L405.136304,319.657826 L405.098478,319.657826 C397.218043,319.475 392.962609,325.684783 391.846739,327.588696 C389.728478,331.182174 389.116957,335.015217 390.075217,338.362826 C390.945217,341.319565 392.962609,343.73413 395.925652,345.335435 C402.047174,348.670435 406.491739,345.436304 411.667609,340.871957 C411.69913,340.840435 414.851304,338.154783 417.423478,336.458913 C420.430652,334.485652 423.652174,334.536087 427.283478,336.603913 C431.929783,339.251739 433.15913,345.335435 430.164565,350.763478 L430.07,350.94 C430.006957,351.04087 429.943913,351.173261 429.861957,351.305652 C427.951739,354.735217 425.114783,356.891304 421.445652,357.685652 C421.401522,357.691957 418.249348,358.461087 416.408478,358.253043 L416.33913,358.253043 L416.33913,358.253043 Z M397.955652,402.875217 L397.917826,402.913043 L383.058478,387.461087 L371.149565,351.728043 L377.901522,345.221957 C376.224565,350.517609 377.094565,352.427826 377.371957,353.556304 L387.868696,384.788043 L397.508043,394.698478 C399.701957,396.539348 402.021957,397.100435 405.098478,396.003478 L397.955652,402.875217 L397.955652,402.875217 Z M389.003478,411.493261 C389.917609,409.091304 390.012174,405.831957 387.269783,403.09587 L378.456304,393.86 L347.539783,382.152826 C344.494783,381.238696 343.11413,381.005435 339.445,382.228478 L346.039348,375.892609 L381.318478,389.144348 L396.203043,404.571087 L389.003478,411.493261 L389.003478,411.493261 Z M367.76413,428.716739 L326.527391,396.186304 L330.032609,448.588043 L321.906304,452.868696 C323.324783,450.908043 324.150652,447.818913 324.213696,442.447609 L321.111957,385.966957 L366.055652,420.476957 C369.264565,422.626739 372.309565,424.530652 375.512174,424.631522 L367.76413,428.716739 L367.76413,428.716739 Z M330.871087,425.923913 L329.175217,401.261304 L348.58,416.606087 L330.871087,425.923913 L330.871087,425.923913 Z M365.242391,430.040652 L356.07587,434.869783 C358.345435,431.717609 356.151522,429.479565 354.751957,428.332174 L349.248261,424.051522 L336.595435,430.708913 L337.017826,437.334783 C337.547391,440.266304 339.457609,442.18913 341.588478,442.504348 L332.510217,447.276739 L332.352609,447.358696 L331.123261,428.521304 L350.572174,418.276739 L365.431522,429.946087 L365.242391,430.040652 L365.242391,430.040652 Z M301.776522,455.743478 C299.078261,458.593043 295.396522,460.654565 291.128478,461.72 C291.128478,461.72 279.648261,465.653913 270.355652,456.645 L273.463696,451.425 C275.153261,453.051522 275.903478,453.713478 277.473261,454.772609 C281.041522,457.161957 285.826522,457.596957 289.823478,456.619783 C294.10413,455.554348 297.224783,453.221739 299.229565,450.132609 C302.047609,445.776304 300.238261,440.430217 300.238261,440.430217 L291.109565,403.638043 L299.929348,401.44413 C299.929348,401.44413 296.991522,404.898913 297.886739,408.769783 L305.647391,440.058261 C305.779783,440.480652 306.063478,442.006304 306.076087,442.119783 C306.801087,447.100217 305.376304,451.96087 301.776522,455.743478 L301.776522,455.743478 Z M358.761522,333.621957 C357.361957,333.823696 355.956087,334.056957 354.537609,334.328043 C355.647174,331.308261 357.387174,327.418478 358.900217,324.758043 C356.964783,321.423043 355.401304,318.831957 354.77087,314.835 C356.101087,314.64587 357.418696,314.469348 358.723696,314.343261 C359.083043,316.827174 359.978261,320.622391 363.073696,324.253696 C361.718261,326.794348 360.066522,330.413043 358.761522,333.621957 L358.761522,333.621957 Z M342.660217,320.338696 C344.072391,318.907609 345.377391,317.59 346.600435,316.411087 C347.079565,318.932826 348.283696,322.923478 352.583261,325.646957 C351.486304,327.910217 349.834565,331.963913 348.453913,335.557391 C346.821087,335.916739 345.169348,336.295 343.523913,336.711087 C344.33087,334.157826 345.465652,331.11913 346.461739,328.748696 C346.79587,327.960652 347.117391,327.248261 347.401087,326.643043 C345.068478,324.707609 343.593261,322.778478 342.660217,320.338696 L342.660217,320.338696 Z M334.212391,329.29087 C335.069783,328.338913 335.92087,327.40587 336.746739,326.516957 C337.717609,327.286087 338.896522,327.922826 340.340217,328.326304 C339.148696,330.59587 337.717609,334.775652 336.614348,338.539348 C335.019348,338.980652 333.436957,339.434565 331.892391,339.894783 C332.756087,336.244565 334.061087,332.62587 335.082391,329.757391 C334.779783,329.618696 334.496087,329.448478 334.212391,329.29087 L334.212391,329.29087 Z M285.177174,411.921957 C284.414348,408.782391 281.848478,406.714565 279.931957,406.405652 L288.764348,404.230652 C288.764348,404.230652 298.113696,441.918043 298.12,441.981087 C299.620435,448.102609 294.879565,453.02 289.37587,454.381739 C287.963696,454.734783 283.493913,455.743478 279.282609,453.146087 C279.282609,453.146087 276.117826,451.09087 274.648913,449.420217 L278.393696,443.128478 C278.393696,443.128478 279.944565,448.083696 283.166087,449.180652 C283.235435,449.199565 285.505,450.094783 288.379783,449.275217 C291.248261,448.468261 293.574565,445.883478 292.874783,442.989783 L285.177174,411.921957 L285.177174,411.921957 Z M356.183043,370.023261 C356.183043,370.023261 357.002609,371.328261 359.007391,372.362174 L371.962826,377.670435 L367.089565,364.456522 C366.043043,361.619565 365.236087,361.310652 364.807391,361.083696 C364.208478,360.913478 362.89087,360.762174 360.766304,361.726739 L369.207826,353.59413 L380.164783,386.187609 L347.968478,374.03913 L348.145,373.862609 L356.460435,365.862391 C356.063261,367.035 355.363478,368.566957 356.183043,370.023261 L356.183043,370.023261 Z M365.797174,319.733478 C365.091087,317.898913 364.637174,315.957174 364.378696,313.838913 C365.715217,313.738043 367.026522,313.662391 368.331522,313.63087 C368.463913,315.440217 368.791739,317.829565 369.932826,320.225217 C372.505,315.786957 374.818696,311.241522 376.861304,306.601522 C378.513043,302.875652 379.956739,299.105652 381.255435,295.278913 L389.413261,295.934565 C382.945,315.843696 372.120435,334.681087 356.863913,350.946304 C337.131304,372.015435 312.66413,385.954348 286.658696,392.7 C288.846304,389.194783 291.033913,385.796739 293.202609,382.50587 C314.593261,375.463913 334.578043,363.126304 351.063913,345.53087 C357.481739,338.696957 363.048478,331.371304 367.814565,323.705217 C366.976087,322.406522 366.320435,321.095217 365.797174,319.733478 L365.797174,319.733478 Z M161.24,282.128043 C147.94413,272.835435 139.49,267.760435 120.961522,264.305652 C82.4608696,257.137609 51.058913,244.98913 41.8104348,238.281304 C39.6732609,236.598043 40.1776087,235.81 42.1382609,235.822609 C44.1682609,235.847826 46.4126087,235.879348 48.8397826,235.929783 C82.7319565,237.01413 112.627174,240.166304 139.943913,244.068696 C138.014783,256.538696 152.886739,265.093696 168.628696,271.549348 C222.96587,293.860435 253.031304,334.441522 265.88587,365.969565 C278.727826,343.488261 297.836304,323.194565 307.73413,310.926304 L288.455435,311.001957 C292.874783,298.809348 302.161087,283.016957 311.686957,268.466522 L329.219348,283.590652 L324.680217,289.06913 L316.333261,299.118261 L329.345435,298.052826 L356.485652,295.833696 C352.337391,299.07413 299.32413,341.515 253.70587,430.122609 C229.63587,359.495 190.183261,302.365 161.24,282.128043 L161.24,282.128043 Z M209.096304,371.700217 C207.558043,371.769565 206.032391,371.801087 204.519348,371.82 C203.888913,367.968043 203.876304,364.607826 204.613913,361.651087 C200.181957,359.728261 198.372609,353.341957 198.448261,348.840652 C200.074783,348.973043 201.707609,349.061304 203.359348,349.111739 C203.548478,352.402609 205.250652,358.744783 210.073478,361.455652 C208.402826,361.62587 208.566739,367.236739 209.096304,371.700217 L209.096304,371.700217 Z M194.741304,361.09 C193.020217,361.033261 192.673478,365.585 192.812174,370.634783 C191.280217,370.464565 189.754565,370.256522 188.25413,370.010652 C187.976739,365.887609 188.16587,362.685 189.351087,360.346087 C188.83413,360.018261 188.355,359.64 187.926304,359.211304 C184.956957,356.191522 184.320217,350.687826 184.969565,346.823261 C186.551957,347.17 188.153261,347.491522 189.779783,347.775217 C189.458261,351.034565 190.170652,357.85587 194.741304,361.09 L194.741304,361.09 Z M181.029348,358.549348 C179.301957,358.278261 178.495,361.884348 177.965435,367.741087 C176.528043,367.362826 175.103261,366.946739 173.691087,366.486522 C173.89913,361.991522 174.441304,359.406739 175.979565,357.067826 C172.291522,354.148913 172.051957,347.75 173.199348,343.463043 C174.687174,343.992609 176.206522,344.484348 177.738478,344.938261 C177.133261,348.37413 177.278261,355.832174 181.029348,358.549348 L181.029348,358.549348 Z M149.06,357.704565 C123.395,333.647174 108.283478,302.535217 103.914565,270.187609 C106.638043,270.811739 109.399348,271.416957 112.204783,271.990652 C114.26,285.173043 118.200217,298.090652 124.031739,310.327391 C124.126304,310.182391 124.227174,310.043696 124.328043,309.898696 C124.397391,309.785217 124.479348,309.678043 124.555,309.577174 C125.399783,310.661522 126.263478,311.739565 127.152391,312.805 C126.805652,313.328261 126.452609,313.895652 126.124783,314.50087 C126.509348,315.251087 126.912826,315.982391 127.316304,316.72 C127.650435,317.350435 127.984565,317.999783 128.350217,318.630217 C128.42587,318.41587 128.507826,318.220435 128.583478,318.018696 C128.955435,317.104565 129.346304,316.228261 129.800217,315.402391 C130.771087,316.373261 131.767174,317.331522 132.782174,318.289783 C132.359783,319.134565 131.962609,320.080217 131.609565,321.076304 C131.376304,321.731957 131.155652,322.406522 130.991739,323.106304 C132.006739,324.764348 133.06587,326.416087 134.162826,328.048913 C134.427609,325.728913 135.253478,323.459348 136.318913,321.511304 C137.371739,322.406522 138.418261,323.308043 139.49,324.190652 C139.294565,324.613043 139.105435,325.073261 138.922609,325.546087 C138.128261,327.632826 137.497826,330.198696 137.516739,332.808696 C138.052609,333.552609 138.62,334.265 139.168478,334.977391 C140.347391,336.503043 141.545217,338.022391 142.787174,339.510217 C142.799783,339.485 142.812391,339.472391 142.818696,339.447174 C142.818696,339.44087 142.843913,339.428261 142.856522,339.421957 L142.856522,339.409348 C142.408913,338.375435 142.131522,337.328913 141.992826,336.269783 C141.589348,333.142826 142.440435,330.097826 143.890435,327.632826 C144.268696,327.922826 144.684783,328.193913 145.081957,328.490217 C145.888913,329.070217 146.670652,329.650217 147.483913,330.211304 C147.263261,330.671522 147.061522,331.207391 146.872391,331.774783 C145.958261,334.555 145.466522,338.564565 146.910217,342.397609 C146.815652,342.353478 146.721087,342.328261 146.626522,342.328261 C146.424783,342.347174 146.210435,342.460652 145.996087,342.637174 C145.907826,342.71913 145.813261,342.794783 145.725,342.908261 C146.595,343.891739 147.483913,344.868913 148.398043,345.82087 C149.30587,346.77913 150.232609,347.731087 151.159348,348.670435 C151.348478,348.216522 151.550217,347.775217 151.751957,347.365435 C151.796087,347.27087 151.840217,347.182609 151.884348,347.100652 C152.073478,346.747609 152.25,346.407174 152.445435,346.091957 C150.049783,341.861739 150.541522,336.988478 152.357174,333.401304 C153.580217,334.16413 154.834783,334.908043 156.12087,335.626739 C155.881304,336.206739 155.660652,336.950652 155.48413,337.78913 C155.005,340.090217 154.885217,343.179348 155.780435,346.218043 C156.026304,347.043913 156.328913,347.869783 156.738696,348.670435 C156.656739,348.645217 156.55587,348.632609 156.455,348.645217 C156.391957,348.670435 156.322609,348.708261 156.253261,348.746087 C156.215435,348.765 156.196522,348.771304 156.171304,348.783913 C156.127174,348.821739 156.076739,348.86587 156.032609,348.903696 C155.982174,348.960435 155.91913,348.991957 155.868696,349.055 C155.376957,349.597174 154.878913,350.631087 154.418696,351.828913 C154.425,351.847826 154.450217,351.860435 154.462826,351.885652 C154.475435,351.898261 154.475435,351.898261 154.488043,351.91087 C154.771739,352.169348 155.055435,352.415217 155.332826,352.673696 C156.732391,353.966087 158.157174,355.214348 159.60087,356.431087 C160.042174,356.809348 160.483478,357.193913 160.931087,357.572174 C161.309348,355.58 161.952391,353.903043 163.219565,351.873043 C161.025652,347.93913 160.628478,342.466957 161.901957,338.696957 C162.885435,339.169783 163.89413,339.63 164.90913,340.090217 C165.211739,340.222609 165.526957,340.386522 165.848478,340.531522 C165.098261,343.475652 164.921739,349.609783 167.72087,353.890435 C167.443478,353.833696 167.191304,353.915652 166.932826,354.136304 C166.006087,354.911739 165.236957,357.452391 164.669565,360.566739 C182.529783,374.379565 202.918043,383.211957 224.012391,387.139565 C225.386739,390.064783 226.723261,392.977391 228.009348,395.858478 C199.406522,391.647174 171.761957,378.962826 149.06,357.704565 L149.06,357.704565 Z M227.656304,412.735217 L201.411304,406.500217 L191.00913,450.334348 L218.754565,456.903478 L216.667826,461.757826 L216.661522,461.757826 L179.995435,453.051522 C183.954565,452.597609 185.631522,449.58413 186.22413,447.421739 C186.28087,447.182174 186.198913,447.535217 195.907609,406.638913 C196.601087,403.701087 195.409565,401.053261 193.461522,399.250217 L227.996739,407.464783 L227.656304,412.735217 L227.656304,412.735217 Z M226.950217,423.521957 C226.950217,423.521957 225.405652,420.048261 219.000435,418.51 L207.198696,415.71087 L205.345217,423.534565 L215.13587,425.86087 C219.536304,426.907391 221.976087,424.196522 221.976087,424.196522 L220.21087,431.66087 L199.122826,426.661522 L203.214348,409.406522 L227.505,415.175 L226.950217,423.521957 L226.950217,423.521957 Z M219.731739,454.640217 L194.148696,448.581739 L198.795,429.063478 L219.649783,434.025 L217.89087,441.426304 C217.89087,441.426304 216.938913,438.141739 212.500652,436.931304 L212.368261,436.893478 L202.987391,434.680652 L200.591739,444.742391 C200.591739,444.742391 213.862391,447.90087 213.963261,447.913478 C218.918478,448.922174 221.238478,447.617174 223.287391,446.400435 L219.731739,454.640217 L219.731739,454.640217 Z M141.242609,419.953696 C144.552391,422.059348 148.763696,421.580217 150.573043,418.945 C156.35413,409.816304 167.298478,392.567609 167.298478,392.567609 C169.019565,389.831522 169.353696,387.700652 167.645217,384.945652 L175.34913,389.831522 L154.733913,422.349348 C151.468261,427.424348 144.312826,428.067391 138.411957,424.328913 C132.517391,420.58413 130.16587,413.674565 133.343261,408.675217 L153.914348,376.239348 L161.624565,381.137826 C158.503913,380.980217 156.461304,382.196957 154.872609,384.687174 C154.872609,384.687174 154.771739,384.857391 154.563696,385.191522 C154.500652,385.292391 140.032174,408.095217 138.159783,411.051957 C136.577391,413.819565 137.920217,417.860652 141.242609,419.953696 L141.242609,419.953696 Z M178.356304,399.578043 L161.151739,426.711957 C155.263478,435.985652 144.46413,437.151957 134.175435,430.563913 C123.64087,423.83087 120.791304,414.134783 126.610217,404.816957 C126.610217,404.816957 143.802174,377.689348 143.814783,377.683043 C145.775435,374.549783 145.649348,372.664783 144.17413,370.061087 L151.865435,374.946957 L131.61587,406.878478 C131.048478,407.78 130.884565,408.063696 130.884565,408.063696 C128.615,411.65087 129.031087,416.353913 131.445652,420.395 C131.489783,420.483261 131.540217,420.54 131.584348,420.621957 C132.92087,422.784348 134.831087,424.763913 137.251957,426.29587 C144.268696,430.765652 152.848913,429.845217 156.385652,424.246957 C156.385652,424.246957 156.871087,423.496739 157.154783,423.042826 L177.391739,391.130217 L185.051522,395.978261 C182.529783,395.681957 180.222391,396.728478 178.356304,399.578043 L178.356304,399.578043 Z M107.180217,399.55913 L107.173913,399.565435 L91.186087,381.623261 L126.912826,349.792609 L126.950652,349.82413 L132.996522,356.613913 C130.077609,354.829783 125.544783,358.196304 125.544783,358.196304 C125.46913,358.265652 125.393478,358.322391 125.32413,358.37913 C125.311522,358.385435 125.305217,358.385435 125.292609,358.398043 C122.014348,361.291739 102.225,378.962826 98.6441304,382.165435 C101.273043,385.103261 105.679783,390.058478 105.679783,390.058478 L105.856304,390.253913 C109.815435,394.610217 114.745435,394.868696 114.745435,394.868696 L107.180217,399.55913 L107.180217,399.55913 Z M105.137609,400.889348 L100.655217,403.694783 L77.2597826,377.437174 C80.33,378.521522 82.8580435,378.483696 85.676087,376.132174 C88.903913,373.263696 116.441304,348.727174 116.510652,348.657826 C116.706087,348.487609 116.813261,348.393043 116.813261,348.386739 C119.511522,345.890217 119.952826,343.456739 119.240435,341.161957 L125.305217,347.983261 L87.7565217,381.415217 L105.112391,400.895652 L105.137609,400.883043 L105.137609,400.889348 L105.137609,400.889348 Z M57.0417391,341.061087 L47.85,321.69413 C50.1132609,324.045652 52.906087,324.398696 56.4365217,322.803696 L94.0041304,304.981304 C97.1121739,303.581739 98.2847826,301.192391 98.2973913,298.708478 L107.249565,317.583696 C111.876957,327.210435 108.831957,337.896304 100.289565,341.962609 L100.289565,341.975217 L100.276957,341.975217 C94.4454348,344.717609 90.4673913,342.870435 90.4673913,342.870435 C89.4019565,347.926522 86.3065217,351.305652 82.1204348,353.291522 L82.1141304,353.291522 L82.1141304,353.30413 C76.6482609,355.876304 64.4493478,356.63913 57.0417391,341.061087 L57.0417391,341.061087 Z M40.6,231.838261 C45.8515217,226.044565 65.811087,216.720435 124.126304,207.068478 C129.478696,198.582826 133.135217,195.039783 140.265435,192.02 C141.545217,203.531739 147.912609,217.130217 163.988696,218.252391 L164.146304,218.252391 C179.390217,218.252391 182.252391,202.289783 198.523913,202.289783 C214.965652,202.289783 217.739565,218.30913 233.412174,218.30913 L289.867609,218.30913 L290.643043,227.671087 L234.231739,227.671087 C233.765217,227.671087 233.26087,227.683696 232.743913,227.683696 C217.682826,228.156522 214.738696,243.677826 198.536522,243.677826 C182.189348,243.677826 179.346087,227.87913 163.95087,227.671087 L161.517391,227.671087 C153.233478,227.671087 148.902391,230.476522 146.506739,233.641304 C142.749348,233.565652 138.903696,233.49 134.976087,233.433261 C87.4286957,231.831957 60.2695652,232.790217 40.8963043,233.603478 C40.165,233.382826 39.8434783,232.891087 40.6,231.838261 L40.6,231.838261 Z M64.5880435,158.064783 L74.2526087,160.088478 C72.9728261,160.983696 71.321087,162.471522 70.3943478,164.722174 L67.8158696,171.045435 L94.413913,181.939348 C96.3052174,182.727391 98.1334783,182.595 99.6023913,181.977174 L94.7480435,193.810435 C94.2247826,192.328913 93.1467391,191.131087 91.0032609,190.261087 L64.4052174,179.367174 L62.0663043,185.091522 C61.2404348,187.247609 60.9063043,188.87413 61.3917391,191.15 L53.196087,185.88587 L64.5880435,158.064783 L64.5880435,158.064783 Z M83.7280435,126.902391 C90.7952174,117.395435 104.236087,115.346522 113.686304,122.356957 C123.136522,129.361087 125.071957,142.814565 118.004783,152.340435 C110.937609,161.86 97.4967391,163.915217 88.0465217,156.898478 C78.5963043,149.881739 76.6671739,136.44087 83.7280435,126.902391 L83.7280435,126.902391 Z M125.361957,86.1321739 L125.494348,86.0376087 C127.335217,84.6947826 129.686739,83.6482609 130.172174,83.4591304 C132.599348,82.5134783 135.007609,82.1478261 137.144783,82.3936957 C138.525435,82.5765217 139.786304,82.9547826 141.23,83.6230435 L141.47587,83.7428261 C143.266304,84.6569565 144.823478,86.0123913 146.109565,87.783913 C147.07413,89.0763043 147.773913,90.4695652 148.208913,91.9258696 C148.398043,92.5373913 149.230217,95.8093478 147.483913,100.27913 L147.206522,100.985217 L161.750652,105.946739 C163.85,106.520435 165.766522,106.867174 167.317391,106.955435 L157.854565,113.839783 L135.776739,106.022391 L144.293913,117.729565 C145.561087,119.280435 146.658043,120.415217 148.593478,120.57913 L138.531739,127.898478 C138.765,126.486304 138.43087,125.187609 137.958043,124.147391 L118.294783,96.8054348 C117.16,95.2545652 115.514565,94.6556522 114.064565,94.3530435 L125.361957,86.1321739 L125.361957,86.1321739 Z M167.771304,63.7895652 C174.832174,54.27 188.266739,52.2273913 197.723261,59.2441304 C207.173478,66.2482609 209.108913,79.7080435 202.041739,89.2276087 C194.968261,98.7534783 181.533696,100.796087 172.083478,93.7856522 C162.626957,86.768913 160.697826,73.3154348 167.771304,63.7895652 L167.771304,63.7895652 Z M245.743478,48.0917391 C245.566957,46.2193478 245.302174,44.9963043 244.463696,44.0065217 L255.313478,43.3634783 C254.462391,44.6432609 254.380435,46.2571739 254.449783,47.763913 L256.637391,85.0856522 L230.669783,64.6847826 L231.634348,81.5173913 L231.640652,81.5867391 C231.81087,83.868913 231.918043,85.173913 233.002391,86.3023913 L221.553696,86.9769565 C222.846087,85.5143478 222.972174,83.7554348 222.871304,82.0154348 L220.708913,45.1917391 L246.771087,65.5673913 L245.743478,48.0917391 L245.743478,48.0917391 Z M275.449565,45.2295652 L304.916087,51.206087 L304.74587,61.085 C303.623696,59.9880435 301.864783,58.6515217 299.475435,58.1723913 L292.767609,56.8169565 L287.062174,84.9784783 C286.646087,86.9832609 287.125217,88.7547826 288.001522,90.0723913 L275.588261,87.5569565 C277.031957,86.6995652 277.82,85.3441304 278.261304,83.1880435 L283.966739,55.0265217 L277.901957,53.7971739 C275.638696,53.4 273.968043,53.3684783 271.818261,54.2763043 L275.449565,45.2295652 L275.449565,45.2295652 Z M314.095217,71.3295652 C321.156087,61.81 334.603261,59.7673913 344.059783,66.7841304 C353.503696,73.7945652 355.43913,87.2417391 348.371957,96.7676087 C341.304783,106.287174 327.863913,108.336087 318.42,101.319348 C308.969783,94.3152174 307.034348,80.8617391 314.095217,71.3295652 L314.095217,71.3295652 Z M218.842826,140.21087 C217.159565,140.078478 215.501522,139.990217 213.862391,139.92087 C214.738696,137.60087 214.593696,132.75913 211.056957,127.778696 C213.074348,126.347609 215.741087,121.537391 217.424348,118.063696 C218.937391,118.196087 220.469348,118.347391 222.020217,118.555435 C220.708913,121.619348 218.332174,126.259348 216.913696,128.056087 C219.71913,131.529783 219.977609,136.421957 218.842826,140.21087 L218.842826,140.21087 Z M232.876304,142.266087 C231.300217,141.969783 229.711522,141.692391 228.116522,141.421304 C228.734348,139.164348 228.538913,134.782826 226.218913,130.558913 C225.891087,129.947391 225.51913,129.348478 225.109348,128.762174 C227.120435,127.331087 230.36087,123.315217 232.422391,120.282826 C233.973261,120.566522 235.517826,120.875435 237.056087,121.184348 C235.372826,124.05913 231.75413,127.936304 230.335652,129.739348 C233.267174,133.15 233.941739,138.376304 232.876304,142.266087 L232.876304,142.266087 Z M248.013043,141.572609 C246.336087,141.812174 244.665435,142.051739 243.02,142.285 C242.761522,139.088696 241.633043,134.801739 238.922174,131.529783 C240.863913,129.91587 243.751304,126.045 245.573261,123.069348 C247.073696,123.441304 248.555217,123.800652 250.02413,124.166304 C248.536304,127.028478 245.812826,130.653478 244.545652,132.532174 C246.758478,134.732391 247.823913,138.243913 248.013043,141.572609 L248.013043,141.572609 Z M260.785652,139.611957 C259.247391,139.857826 257.728043,140.103696 256.208696,140.330652 C255.59087,138.262826 254.638913,136.220217 253.132174,134.6 C255.029783,132.834783 257.70913,129.398913 259.285217,126.637609 C260.747826,127.053696 262.20413,127.482391 263.628913,127.88587 C262.286087,130.779565 259.657174,134.20913 258.497174,136.163478 C259.474348,137.077609 260.23087,138.275435 260.785652,139.611957 L260.785652,139.611957 Z M277.321957,132.267391 C276.533913,133.969565 275.291957,135.728478 274.144565,137.298261 C271.723696,137.758478 269.302826,138.174565 266.888261,138.584348 C266.84413,138.540217 266.806304,138.483478 266.768478,138.426739 C267.285435,137.985435 267.840217,137.449565 268.407609,136.856957 C270.122391,135.104348 271.931739,132.828478 273.098043,130.855217 C274.52913,131.328043 275.947609,131.80087 277.321957,132.267391 L277.321957,132.267391 Z M145.920435,162.351739 C144.89913,163.127174 143.877826,163.915217 142.881739,164.722174 C142.68,164.325 142.446739,163.927826 142.188261,163.524348 C142.018043,163.259565 141.847826,162.994783 141.646087,162.736304 C140.498696,164.142174 139.376522,165.573261 138.28587,167.023261 C138.418261,167.225 138.525435,167.445652 138.651522,167.666304 C138.714565,167.792391 138.790217,167.918478 138.853261,168.05087 C138.159783,168.656087 137.478913,169.280217 136.804348,169.891739 C136.552174,170.112391 136.293696,170.339348 136.05413,170.553696 C136.022609,170.503261 135.984783,170.440217 135.953261,170.377174 C135.940652,170.358261 135.921739,170.326739 135.90913,170.288913 C129.699348,179.07087 124.65587,188.395 120.728261,198.059565 C117.595,198.582826 114.556304,199.125 111.568043,199.667174 C118.168696,181.712391 128.413261,164.728478 142.326957,149.881739 C190.479565,98.495 266.881957,89.4230435 324.951304,124.153696 C321.641522,125.36413 318.256087,126.486304 314.820217,127.558043 C307.69,123.76913 300.288696,120.63587 292.742391,118.177174 C292.496522,118.095217 292.256957,118.013261 292.004783,117.931304 C291.878696,117.887174 291.752609,117.855652 291.620217,117.811522 C263.862174,109.042174 233.960652,109.218696 206.385435,118.202391 L206.385435,118.208696 L206.37913,118.208696 C205.528043,121.354565 203.661957,125.956739 202.495652,127.961522 C202.495652,127.961522 202.495652,127.961522 202.495652,127.967826 C203.806957,129.071087 204.746304,130.476957 205.357826,132.002609 C205.836957,133.181522 206.095435,134.429783 206.215217,135.684348 C206.353913,137.146957 206.29087,138.609565 206.045,139.939783 C205.887391,139.952391 205.742391,139.965 205.584783,139.971304 C204.046522,140.034348 202.508261,140.128913 200.995217,140.267609 C201.15913,139.511087 201.184348,138.47087 201.039348,137.279348 L201.039348,137.260435 C201.039348,137.191087 201.020435,137.121739 201.020435,137.058696 C200.667391,134.448696 199.507391,131.16413 196.973043,128.434348 C197.15587,128.251522 197.351304,128.037174 197.540435,127.778696 C198.908478,126.045 200.238696,122.836087 201.228478,120.005435 C200.453043,120.282826 199.696522,120.598043 198.927391,120.900652 C196.588478,121.814783 194.249565,122.779348 191.948478,123.82587 C191.292826,125.963043 190.523696,128.106522 189.90587,129.474565 C189.868043,129.588043 189.830217,129.67 189.779783,129.764565 C189.729348,129.85913 189.691522,129.96 189.641087,130.048261 C192.496957,133.528261 193.587609,137.714348 193.070652,141.339348 C191.336957,141.635652 189.634783,141.982391 187.945217,142.373261 L187.957826,142.278696 L187.995652,142.09587 C188.569348,139.763261 188.45587,136.169783 184.225652,131.384783 C185.101957,130.426522 185.959348,128.503696 186.703261,126.341304 L186.703261,126.335 C183.935652,127.747174 181.199565,129.247609 178.520217,130.842609 C178.45087,131.088478 178.387826,131.30913 178.331087,131.536087 C178.116739,132.317826 177.915,132.986087 177.72587,133.471522 C177.72587,133.471522 177.72587,133.477826 177.732174,133.477826 L177.72587,133.477826 C178.053696,133.786739 178.337391,134.114565 178.614783,134.455 C179.806304,135.873478 180.707826,137.468478 181.319348,139.101304 C181.899348,140.677391 182.233478,142.297609 182.296522,143.848478 C180.62587,144.327609 178.986739,144.838261 177.360217,145.399348 C177.492609,142.96587 176.729783,139.252609 172.474348,135.350217 C172.695,135.066522 172.896739,134.675652 173.104783,134.240652 C172.07087,134.915217 171.043261,135.615 170.034565,136.327391 C169.07,136.995652 168.105435,137.682826 167.166087,138.376304 L167.159783,138.388913 C169.467174,140.475652 171.011739,143.218043 171.755652,145.973043 C171.875435,146.44587 171.995217,146.931304 172.07087,147.40413 C172.01413,147.429348 171.951087,147.46087 171.894348,147.479783 C170.52,148.034565 169.17087,148.62087 167.840652,149.238696 C167.783913,149.263913 167.72087,149.28913 167.670435,149.320652 C167.651522,149.150435 167.613696,148.967609 167.594783,148.791087 C167.443478,147.826522 167.14087,146.748478 166.573478,145.594783 C166.100652,144.64913 165.438696,143.646739 164.568696,142.650652 C164.177826,142.209348 163.774348,141.780652 163.307826,141.339348 L163.301522,141.339348 C161.769565,142.543478 160.275435,143.785435 158.787609,145.077826 C159.134348,145.411957 159.443261,145.790217 159.758478,146.149565 C160.376304,146.874565 160.937391,147.637391 161.416522,148.444348 C162.028043,149.484565 162.538696,150.543696 162.910652,151.621739 C161.618261,152.302609 160.338478,152.996087 159.083913,153.702174 C158.592174,151.968478 157.596087,149.862826 155.610217,147.908478 C155.282391,148.198478 154.967174,148.501087 154.658261,148.791087 C153.391087,149.976304 152.142826,151.17413 150.919783,152.416087 C151.203478,152.750217 151.468261,153.103261 151.733043,153.462609 C152.514783,154.572174 153.176739,155.751087 153.687391,156.955217 C153.504565,157.068696 153.328043,157.194783 153.145217,157.308261 C152.25,157.90087 151.342174,158.493478 150.46587,159.092391 C149.980435,157.913478 149.255435,156.583261 148.14587,155.284565 C148.139565,155.284565 148.139565,155.297174 148.133261,155.303478 C148.126957,155.309783 148.120652,155.309783 148.114348,155.322391 C147.376739,156.110435 146.664348,156.93 145.945652,157.743261 C145.378261,158.386304 144.773043,159.016739 144.224565,159.666087 C144.880217,160.504565 145.447609,161.412391 145.920435,162.351739 L145.920435,162.351739 Z M378.128478,101.678696 C378.128478,101.678696 377.882609,111.98 374.39,120.282826 C383.550217,115.062826 392.868043,112.263696 402.633478,110.788478 C392.578043,122.31913 385.138913,132.412391 380.114348,146.004565 C388.978261,139.801087 394.696304,137.5 402.822609,137.203696 C394.715217,144.93913 391.935,161.61413 388.070435,177.356087 L376.974783,159.224783 L372.284348,151.577609 L353.863043,181.712391 L336.305435,174.62 L337.175435,183.628913 C337.200652,183.887391 339.356739,206.204783 340.207826,214.999348 C335.391304,210.321522 326.243696,201.419783 326.130217,201.293696 L320.210435,195.531522 L317.184348,203.216522 L314.441957,210.182826 L295.831522,207.005435 L288.846304,205.813913 L289.256087,210.76913 C276.685217,210.025217 268.319348,208.44913 255.685435,205.372609 C245.415652,202.882391 230.278913,196.912174 216.106739,192.511739 C224.466304,191.408478 234.351522,191.187826 246.39913,192.284783 C246.39913,192.284783 195.277174,175.672826 171.421522,192.02 C168.30087,193.911304 165.968261,196.218696 164.707391,198.727826 C161.460652,205.233913 163.988696,211.626522 163.988696,211.626522 C154.343043,211.626522 146.147391,200.871304 146.859783,189.59913 C154.071957,178.68 164.486739,167.603261 184.793043,160.94587 C215.747391,150.79587 335.271522,151.426304 378.128478,101.678696 L378.128478,101.678696 Z M428.159783,115.617609 C424.496957,110.744348 420.632391,106.060217 416.616522,101.552609 C416.547174,101.476957 416.471522,101.382391 416.33913,101.243696 C382.812609,63.6823913 337.786957,38.591087 287.730435,29.928913 C226.067609,19.2745652 164.600217,34.1465217 114.682391,71.8276087 C66.9584783,107.850652 36.123913,160.283913 27.8463043,219.506957 C19.5813043,278.717391 34.8630435,337.612609 70.8797826,385.342826 C105.251087,430.872826 155.137391,461.297609 211.328043,471.025217 L211.353261,471.037826 C273.003478,481.692174 334.458261,466.807609 384.376087,429.113913 C432.087391,393.097174 462.934565,340.663913 471.20587,281.44087 C479.483478,222.236739 464.201739,163.335217 428.159783,115.617609 L428.159783,115.617609 Z" id="Fill-9" fill="#FFFFFF"></path>
                <path d="M76.5663043,327.689565 L67.0530435,332.197174 L68.6354348,335.563696 C71.2265217,341.187174 73.4078261,341.029565 75.69,340.752174 C76.5158696,340.657609 77.5686957,340.027174 78.136087,339.485 C79.586087,338.07913 80.2984783,335.538478 78.1613043,331.037174 L76.5663043,327.689565" id="Fill-10" fill="#FFFFFF"></path>
                <path d="M136.665652,100.85913 C140.25913,98.2491304 139.868261,95.2482609 139.811522,94.9078261 C139.729565,94.4413043 139.124348,92.5436957 137.630217,91.7178261 C135.43,90.4947826 133.374783,90.8478261 130.531522,92.9030435 L127.688261,94.9834783 L133.608043,103.084565 L136.665652,100.85913" id="Fill-11" fill="#FFFFFF"></path>
                <g id="Group-15" transform="translate(0.000000, 1.956522)">
                    <path d="M400.357609,425.890217 C396.928043,428.790217 393.410217,431.614565 389.797826,434.350652 C353.402826,461.831304 309.694783,477.800217 264.751087,480.794783 C262.210435,480.965 259.676087,481.103696 257.148043,481.185652 C247.32587,481.519783 237.46587,481.236087 227.637391,480.309348 C221.686087,479.76087 215.734783,478.972826 209.815,477.945217 L209.796087,477.938913 C183.75913,473.443913 159.033478,464.661957 136.451304,452.128913 C128.923913,447.955435 121.636087,443.359565 114.613043,438.372826 C95.4036957,424.692391 78.2180435,408.048913 63.6865217,388.801739 C51.0778261,372.088913 40.9215217,354.064783 33.3058696,335.151739 C25.3813043,315.438043 20.2054348,294.766087 17.9484783,273.608696 C15.9373913,254.765 16.24,235.549348 18.9319565,216.302174 C24.7193478,174.857391 41.1484783,136.596304 66.391087,104.595435 C78.6656522,89.03 93.0143478,74.9397826 109.254348,62.6778261 C140.757174,38.8978261 177.72587,23.761087 216.251739,18.1691304 C217.39913,17.998913 218.540217,17.8413043 219.693913,17.69 C222.467826,17.3306522 225.254348,17.0154348 228.059783,16.7569565 C234.546957,16.1454348 241.071957,15.7986957 247.609565,15.7293478 C259.50587,15.6221739 271.452609,16.4228261 283.33,18.1502174 C285.31587,18.4465217 287.295435,18.7617391 289.268696,19.0958696 C301.467609,21.2078261 313.38913,24.2780435 324.926087,28.2119565 C368.684565,43.1217391 407.078043,70.7473913 435.365652,108.226739 C460.873043,142.030652 476.375435,181.224783 480.958696,222.228261 C481.015435,222.638043 481.072174,223.041522 481.103696,223.419783 C481.103696,223.445 481.11,223.451304 481.11,223.470217 C483.114783,242.301304 482.818478,261.498043 480.126522,280.732609 C477.497609,299.582609 472.65587,317.751739 465.790435,334.99413 C451.876739,370.002174 429.59087,401.095217 400.357609,425.890217 L400.357609,425.890217 Z M484.249565,281.312609 C493,218.61587 476.823043,156.26587 438.688043,105.730217 C402.293043,57.5082609 349.481522,25.2930435 289.968478,14.9980435 C258.34587,9.53217391 226.540435,10.458913 195.41587,17.7278261 C184.868696,20.1928261 174.586304,23.3702174 164.581304,27.2032609 C144.010217,35.0963043 124.649565,45.8452174 106.745217,59.3680435 C97.4967391,66.3532609 88.8471739,73.9184783 80.8469565,81.9943478 C45.0697826,118.080435 21.9706522,164.505652 14.8152174,215.728478 C13.1697826,227.479783 12.4006522,239.218478 12.488913,250.881522 C12.8797826,301.391957 29.3845652,350.263261 60.3830435,391.298261 C69.473913,403.358478 79.5986957,414.416304 90.5997826,424.377174 C123.590435,454.278696 164.455217,474.332826 209.083696,482.049348 L209.108913,482.049348 C236.778696,486.840652 264.58087,486.727174 291.954348,481.753043 C295.856739,481.040652 299.75913,480.24 303.648913,479.32587 C335.845217,471.779565 365.683696,457.765 392.313261,437.660435 C442.836304,399.525435 475.480217,344.003043 484.249565,281.312609 L484.249565,281.312609 Z" id="Fill-12" fill="#FFFFFF"></path>
                    <path d="M484.249565,281.318913 C475.480217,344.003043 442.836304,399.538043 392.313261,437.660435 C365.683696,457.777609 335.845217,471.779565 303.648913,479.32587 C299.75913,480.24 295.856739,481.040652 291.954348,481.753043 C264.58087,486.739783 236.778696,486.846957 209.108913,482.055652 L209.083696,482.055652 C164.455217,474.33913 123.590435,454.278696 90.5997826,424.377174 C79.5986957,414.416304 69.473913,403.358478 60.3830435,391.298261 C29.3845652,350.269565 12.8797826,301.398261 12.488913,250.881522 C12.4006522,239.218478 13.1697826,227.479783 14.8152174,215.728478 C21.9706522,164.505652 45.0697826,118.080435 80.8469565,81.9943478 C88.8471739,73.9184783 97.4904348,66.3532609 106.745217,59.3680435 C124.649565,45.8452174 144.010217,35.0963043 164.581304,27.2032609 C174.586304,23.3702174 184.868696,20.1928261 195.41587,17.7278261 C226.540435,10.458913 258.34587,9.53217391 289.968478,14.9980435 C349.481522,25.2930435 402.293043,57.5082609 438.688043,105.730217 C476.823043,156.26587 493,218.61587 484.249565,281.318913 L484.249565,281.318913 Z M291.506739,6.12152174 C258.686304,0.447608696 225.657826,1.39956522 193.360652,8.94586957 C159.916087,16.7758696 128.955435,31.3136957 101.317174,52.1747826 C48.8713043,91.766087 14.9791304,149.39413 5.88826087,214.486522 C-3.21521739,279.566304 13.5921739,344.286739 53.1771739,396.732609 C90.9591304,446.782826 145.781739,480.246304 207.551739,490.932174 L207.570652,490.932174 C240.391087,496.599783 273.394348,495.65413 305.70413,488.088913 C339.142391,480.277826 370.103043,465.733696 397.735,444.86 C450.18087,405.275 484.073043,347.640652 493.176522,282.548261 C502.273696,217.481087 485.466304,152.748043 445.881304,100.302174 C408.099348,50.2519565 353.283043,16.801087 291.506739,6.12152174 L291.506739,6.12152174 Z" id="Fill-14" fill="#204078"></path>
                </g>
                <path d="M384.376087,429.113913 C334.458261,466.807609 273.003478,481.692174 211.353261,471.037826 L211.328043,471.025217 C155.137391,461.297609 105.251087,430.872826 70.8797826,385.342826 C34.8630435,337.612609 19.5813043,278.717391 27.8463043,219.506957 C36.123913,160.283913 66.9584783,107.850652 114.682391,71.8276087 C164.600217,34.1465217 226.067609,19.2745652 287.730435,29.928913 C337.786957,38.591087 382.812609,63.6823913 416.33913,101.243696 C416.471522,101.382391 416.547174,101.476957 416.616522,101.552609 C420.632391,106.060217 424.496957,110.744348 428.159783,115.617609 C464.201739,163.335217 479.483478,222.236739 471.20587,281.44087 C462.934565,340.663913 432.087391,393.097174 384.376087,429.113913 L384.376087,429.113913 Z M465.790435,336.950652 C472.65587,319.708261 477.497609,301.53913 480.126522,282.68913 C482.818478,263.454565 483.114783,244.257826 481.11,225.426739 C481.11,225.407826 481.103696,225.401522 481.103696,225.376304 C481.072174,224.998043 481.015435,224.594565 480.958696,224.184783 C476.375435,183.181304 460.873043,143.987174 435.365652,110.183261 C407.078043,72.703913 368.684565,45.0782609 324.926087,30.1684783 C313.38913,26.2345652 301.467609,23.1643478 289.268696,21.0523913 C287.295435,20.7182609 285.31587,20.4030435 283.33,20.1067391 C271.452609,18.3793478 259.50587,17.5786957 247.609565,17.6858696 C241.071957,17.7552174 234.546957,18.1019565 228.059783,18.7134783 C225.254348,18.9719565 222.467826,19.2871739 219.693913,19.6465217 C218.540217,19.7978261 217.39913,19.9554348 216.251739,20.1256522 C177.72587,25.7176087 140.757174,40.8543478 109.254348,64.6343478 C93.0143478,76.8963043 78.6656522,90.9865217 66.391087,106.551957 C41.1484783,138.552826 24.7193478,176.813913 18.9319565,218.258696 C16.24,237.50587 15.9373913,256.721522 17.9484783,275.565217 C20.2054348,296.722609 25.3813043,317.394565 33.3058696,337.108261 C40.9215217,356.021304 51.0778261,374.045435 63.6865217,390.758261 C78.2180435,410.005435 95.4036957,426.648913 114.613043,440.329348 C121.636087,445.316087 128.923913,449.911957 136.451304,454.085435 C159.033478,466.618478 183.771739,475.400435 209.796087,479.895435 L209.815,479.901739 C215.734783,480.929348 221.686087,481.717391 227.637391,482.26587 C237.46587,483.192609 247.32587,483.476304 257.148043,483.142174 C259.676087,483.060217 262.210435,482.921522 264.751087,482.751304 C309.694783,479.756739 353.402826,463.787826 389.797826,436.307174 C393.410217,433.571087 396.928043,430.746739 400.357609,427.846739 C429.59087,403.051739 451.870435,371.958696 465.790435,336.950652 L465.790435,336.950652 Z" id="Fill-16" fill="#204078"></path>
                <path d="M164.669565,360.566739 C165.236957,357.452391 166.006087,354.911739 166.932826,354.136304 C167.191304,353.915652 167.443478,353.833696 167.72087,353.890435 C164.921739,349.609783 165.098261,343.475652 165.848478,340.531522 C165.526957,340.386522 165.211739,340.222609 164.90913,340.090217 C163.89413,339.63 162.885435,339.169783 161.901957,338.696957 C160.628478,342.466957 161.025652,347.93913 163.219565,351.873043 C161.952391,353.903043 161.309348,355.58 160.931087,357.572174 C160.483478,357.193913 160.042174,356.809348 159.60087,356.431087 C158.157174,355.214348 156.732391,353.966087 155.332826,352.673696 C155.055435,352.415217 154.771739,352.169348 154.488043,351.91087 C154.475435,351.898261 154.475435,351.898261 154.462826,351.885652 C154.450217,351.860435 154.425,351.847826 154.418696,351.828913 C154.878913,350.631087 155.376957,349.597174 155.868696,349.055 C155.91913,348.991957 155.982174,348.960435 156.032609,348.903696 C156.076739,348.86587 156.127174,348.821739 156.171304,348.783913 C156.196522,348.771304 156.215435,348.765 156.253261,348.746087 C156.322609,348.708261 156.391957,348.670435 156.455,348.645217 C156.55587,348.632609 156.656739,348.645217 156.738696,348.670435 C156.328913,347.869783 156.026304,347.043913 155.780435,346.218043 C154.885217,343.179348 155.005,340.090217 155.48413,337.78913 C155.660652,336.950652 155.881304,336.206739 156.12087,335.626739 C154.834783,334.908043 153.580217,334.16413 152.357174,333.401304 C150.541522,336.988478 150.049783,341.861739 152.445435,346.091957 C152.25,346.407174 152.073478,346.747609 151.884348,347.100652 C151.840217,347.182609 151.796087,347.27087 151.751957,347.365435 C151.550217,347.775217 151.348478,348.216522 151.159348,348.670435 C150.232609,347.731087 149.30587,346.77913 148.398043,345.82087 C147.483913,344.868913 146.595,343.891739 145.725,342.908261 C145.813261,342.794783 145.907826,342.71913 145.996087,342.637174 C146.210435,342.460652 146.424783,342.347174 146.626522,342.328261 C146.721087,342.328261 146.815652,342.353478 146.910217,342.397609 C145.466522,338.564565 145.958261,334.555 146.872391,331.774783 C147.061522,331.207391 147.263261,330.671522 147.483913,330.211304 C146.670652,329.650217 145.888913,329.070217 145.081957,328.490217 C144.684783,328.193913 144.268696,327.922826 143.890435,327.632826 C142.440435,330.097826 141.589348,333.142826 141.992826,336.269783 C142.131522,337.328913 142.408913,338.375435 142.856522,339.409348 L142.856522,339.421957 C142.843913,339.428261 142.818696,339.44087 142.818696,339.447174 C142.812391,339.472391 142.799783,339.485 142.787174,339.510217 C141.545217,338.022391 140.347391,336.503043 139.168478,334.977391 C138.62,334.265 138.052609,333.552609 137.516739,332.808696 C137.497826,330.198696 138.128261,327.632826 138.922609,325.546087 C139.105435,325.073261 139.294565,324.613043 139.49,324.190652 C138.418261,323.308043 137.371739,322.406522 136.318913,321.511304 C135.253478,323.459348 134.427609,325.728913 134.162826,328.048913 C133.06587,326.416087 132.006739,324.764348 130.991739,323.106304 C131.155652,322.406522 131.376304,321.731957 131.609565,321.076304 C131.962609,320.080217 132.359783,319.134565 132.782174,318.289783 C131.767174,317.331522 130.771087,316.373261 129.800217,315.402391 C129.346304,316.228261 128.955435,317.104565 128.583478,318.018696 C128.507826,318.220435 128.42587,318.41587 128.350217,318.630217 C127.984565,317.999783 127.650435,317.350435 127.316304,316.72 C126.912826,315.982391 126.509348,315.251087 126.124783,314.50087 C126.452609,313.895652 126.805652,313.328261 127.152391,312.805 C126.263478,311.739565 125.399783,310.661522 124.555,309.577174 C124.479348,309.678043 124.397391,309.785217 124.328043,309.898696 C124.227174,310.043696 124.126304,310.182391 124.031739,310.327391 C118.200217,298.090652 114.26,285.173043 112.204783,271.990652 C109.399348,271.416957 106.638043,270.811739 103.914565,270.187609 C108.283478,302.535217 123.395,333.647174 149.06,357.704565 C171.761957,378.962826 199.406522,391.647174 228.009348,395.858478 C226.723261,392.977391 225.386739,390.064783 224.012391,387.139565 C202.918043,383.211957 182.529783,374.379565 164.669565,360.566739" id="Fill-17" fill="#CF292A"></path>
                <path d="M148.114348,155.322391 C148.120652,155.309783 148.126957,155.309783 148.133261,155.303478 C148.139565,155.297174 148.139565,155.284565 148.14587,155.284565 C149.255435,156.583261 149.980435,157.913478 150.46587,159.092391 C151.342174,158.493478 152.25,157.90087 153.145217,157.308261 C153.328043,157.194783 153.504565,157.068696 153.687391,156.955217 C153.176739,155.751087 152.514783,154.572174 151.733043,153.462609 C151.468261,153.103261 151.203478,152.750217 150.919783,152.416087 C152.142826,151.17413 153.391087,149.976304 154.658261,148.791087 C154.967174,148.501087 155.282391,148.198478 155.610217,147.908478 C157.596087,149.862826 158.592174,151.968478 159.083913,153.702174 C160.338478,152.996087 161.618261,152.302609 162.910652,151.621739 C162.538696,150.543696 162.028043,149.484565 161.416522,148.444348 C160.937391,147.637391 160.376304,146.874565 159.758478,146.149565 C159.443261,145.790217 159.134348,145.411957 158.787609,145.077826 C160.275435,143.785435 161.769565,142.543478 163.301522,141.339348 L163.307826,141.339348 C163.774348,141.780652 164.177826,142.209348 164.568696,142.650652 C165.438696,143.646739 166.100652,144.64913 166.573478,145.594783 C167.14087,146.748478 167.443478,147.826522 167.594783,148.791087 C167.613696,148.967609 167.651522,149.150435 167.670435,149.320652 C167.72087,149.28913 167.783913,149.263913 167.840652,149.238696 C169.17087,148.62087 170.52,148.034565 171.894348,147.479783 C171.951087,147.46087 172.01413,147.429348 172.07087,147.40413 C171.995217,146.931304 171.875435,146.44587 171.755652,145.973043 C171.011739,143.218043 169.467174,140.475652 167.159783,138.388913 L167.166087,138.376304 C168.105435,137.682826 169.07,136.995652 170.034565,136.327391 C171.043261,135.615 172.07087,134.915217 173.104783,134.240652 C172.896739,134.675652 172.695,135.066522 172.474348,135.350217 C176.729783,139.252609 177.492609,142.96587 177.360217,145.399348 C178.986739,144.838261 180.62587,144.327609 182.296522,143.848478 C182.233478,142.297609 181.899348,140.677391 181.319348,139.101304 C180.707826,137.468478 179.806304,135.873478 178.614783,134.455 C178.337391,134.114565 178.053696,133.786739 177.72587,133.477826 L177.732174,133.477826 C177.72587,133.477826 177.72587,133.471522 177.72587,133.471522 C177.915,132.986087 178.116739,132.317826 178.331087,131.536087 C178.387826,131.30913 178.45087,131.088478 178.520217,130.842609 C181.199565,129.247609 183.935652,127.747174 186.703261,126.335 C186.703261,126.335 186.703261,126.335 186.703261,126.341304 C185.959348,128.503696 185.101957,130.426522 184.225652,131.384783 C188.45587,136.169783 188.569348,139.763261 187.995652,142.09587 L187.957826,142.278696 L187.945217,142.373261 C189.634783,141.982391 191.336957,141.635652 193.070652,141.339348 C193.587609,137.714348 192.496957,133.528261 189.641087,130.048261 C189.691522,129.96 189.729348,129.85913 189.779783,129.764565 C189.830217,129.67 189.868043,129.588043 189.90587,129.474565 C190.523696,128.106522 191.292826,125.963043 191.948478,123.82587 C194.249565,122.779348 196.588478,121.814783 198.927391,120.900652 C199.696522,120.598043 200.453043,120.282826 201.228478,120.005435 C200.238696,122.836087 198.908478,126.045 197.540435,127.778696 C197.351304,128.037174 197.15587,128.251522 196.973043,128.434348 C199.507391,131.16413 200.667391,134.448696 201.020435,137.058696 C201.020435,137.121739 201.039348,137.191087 201.039348,137.260435 L201.039348,137.279348 C201.184348,138.47087 201.15913,139.511087 200.995217,140.267609 C202.508261,140.128913 204.046522,140.034348 205.584783,139.971304 C205.742391,139.965 205.887391,139.952391 206.045,139.939783 C206.29087,138.609565 206.353913,137.146957 206.215217,135.684348 C206.095435,134.429783 205.836957,133.181522 205.357826,132.002609 C204.746304,130.476957 203.806957,129.071087 202.495652,127.967826 L202.495652,127.961522 C203.661957,125.956739 205.528043,121.354565 206.37913,118.208696 L206.385435,118.208696 C206.385435,118.208696 206.385435,118.208696 206.385435,118.202391 C233.960652,109.218696 263.862174,109.042174 291.620217,117.811522 C291.752609,117.855652 291.878696,117.887174 292.004783,117.931304 C292.256957,118.013261 292.496522,118.095217 292.742391,118.177174 C300.288696,120.63587 307.69,123.76913 314.820217,127.558043 C318.256087,126.486304 321.641522,125.36413 324.951304,124.153696 C266.881957,89.4230435 190.479565,98.495 142.326957,149.881739 C128.413261,164.728478 118.168696,181.712391 111.568043,199.667174 C114.556304,199.125 117.595,198.582826 120.728261,198.059565 C124.65587,188.395 129.699348,179.07087 135.90913,170.288913 C135.921739,170.326739 135.940652,170.358261 135.953261,170.377174 C135.984783,170.440217 136.022609,170.503261 136.05413,170.553696 C136.293696,170.339348 136.552174,170.112391 136.804348,169.891739 C137.478913,169.280217 138.159783,168.656087 138.853261,168.05087 C138.790217,167.918478 138.714565,167.792391 138.651522,167.666304 C138.525435,167.445652 138.418261,167.225 138.28587,167.023261 C139.376522,165.573261 140.498696,164.142174 141.646087,162.736304 C141.847826,162.994783 142.018043,163.259565 142.188261,163.524348 C142.446739,163.927826 142.68,164.325 142.881739,164.722174 C143.877826,163.915217 144.89913,163.127174 145.920435,162.351739 C145.447609,161.412391 144.880217,160.504565 144.224565,159.666087 C144.773043,159.016739 145.378261,158.386304 145.945652,157.743261 C146.664348,156.93 147.376739,156.110435 148.114348,155.322391" id="Fill-18" fill="#CF292A"></path>
                <path d="M293.202609,382.50587 C291.033913,385.796739 288.846304,389.194783 286.658696,392.7 C312.66413,385.954348 337.131304,372.015435 356.863913,350.946304 C372.120435,334.681087 382.945,315.843696 389.413261,295.934565 L381.255435,295.278913 C379.956739,299.105652 378.513043,302.875652 376.861304,306.601522 C374.818696,311.241522 372.505,315.786957 369.932826,320.225217 C368.791739,317.829565 368.463913,315.440217 368.331522,313.63087 C367.026522,313.662391 365.715217,313.738043 364.378696,313.838913 C364.637174,315.957174 365.091087,317.898913 365.797174,319.733478 C366.320435,321.095217 366.976087,322.406522 367.814565,323.705217 C363.048478,331.371304 357.481739,338.696957 351.063913,345.53087 C334.578043,363.126304 314.593261,375.463913 293.202609,382.50587" id="Fill-19" fill="#CF292A"></path>
                <path d="M184.969565,346.823261 C184.320217,350.687826 184.956957,356.191522 187.926304,359.211304 C188.355,359.64 188.83413,360.018261 189.351087,360.346087 C188.16587,362.685 187.976739,365.887609 188.25413,370.010652 C189.754565,370.256522 191.280217,370.464565 192.812174,370.634783 C192.673478,365.585 193.020217,361.033261 194.741304,361.09 C190.170652,357.85587 189.458261,351.034565 189.779783,347.775217 C188.153261,347.491522 186.551957,347.17 184.969565,346.823261" id="Fill-20" fill="#CF292A"></path>
                <path d="M173.199348,343.463043 C172.051957,347.75 172.291522,354.148913 175.979565,357.067826 C174.441304,359.406739 173.89913,361.991522 173.691087,366.486522 C175.103261,366.946739 176.528043,367.362826 177.965435,367.741087 C178.495,361.884348 179.301957,358.278261 181.029348,358.549348 C177.278261,355.832174 177.133261,348.37413 177.738478,344.938261 C176.206522,344.484348 174.687174,343.992609 173.199348,343.463043" id="Fill-21" fill="#CF292A"></path>
                <path d="M336.614348,338.539348 C337.717609,334.775652 339.148696,330.59587 340.340217,328.326304 C338.896522,327.922826 337.717609,327.286087 336.746739,326.516957 C335.92087,327.40587 335.069783,328.338913 334.212391,329.29087 C334.496087,329.448478 334.779783,329.618696 335.082391,329.757391 C334.061087,332.62587 332.756087,336.244565 331.892391,339.894783 C333.436957,339.434565 335.019348,338.980652 336.614348,338.539348" id="Fill-22" fill="#CF292A"></path>
                <path d="M343.523913,336.711087 C345.169348,336.295 346.821087,335.916739 348.453913,335.557391 C349.834565,331.963913 351.486304,327.910217 352.583261,325.646957 C348.283696,322.923478 347.079565,318.932826 346.600435,316.411087 C345.377391,317.59 344.072391,318.907609 342.660217,320.338696 C343.593261,322.778478 345.068478,324.707609 347.401087,326.643043 C347.117391,327.248261 346.79587,327.960652 346.461739,328.748696 C345.465652,331.11913 344.33087,334.157826 343.523913,336.711087" id="Fill-23" fill="#CF292A"></path>
                <path d="M354.77087,314.835 C355.401304,318.831957 356.964783,321.423043 358.900217,324.758043 C357.387174,327.418478 355.647174,331.308261 354.537609,334.328043 C355.956087,334.056957 357.361957,333.823696 358.761522,333.621957 C360.066522,330.413043 361.718261,326.794348 363.073696,324.253696 C359.978261,320.622391 359.083043,316.827174 358.723696,314.343261 C357.418696,314.469348 356.101087,314.64587 354.77087,314.835" id="Fill-24" fill="#CF292A"></path>
                <path d="M259.285217,126.637609 C257.70913,129.398913 255.029783,132.834783 253.132174,134.6 C254.638913,136.220217 255.59087,138.262826 256.208696,140.330652 C257.728043,140.103696 259.247391,139.857826 260.785652,139.611957 C260.23087,138.275435 259.474348,137.077609 258.497174,136.163478 C259.657174,134.20913 262.286087,130.779565 263.628913,127.88587 C262.20413,127.482391 260.747826,127.053696 259.285217,126.637609" id="Fill-25" fill="#CF292A"></path>
                <path d="M266.768478,138.426739 C266.806304,138.483478 266.84413,138.540217 266.888261,138.584348 C269.302826,138.174565 271.723696,137.758478 274.144565,137.298261 C275.291957,135.728478 276.533913,133.969565 277.321957,132.267391 C275.947609,131.80087 274.52913,131.328043 273.098043,130.855217 C271.931739,132.828478 270.122391,135.104348 268.407609,136.856957 C267.840217,137.449565 267.285435,137.985435 266.768478,138.426739" id="Fill-26" fill="#CF292A"></path>
                <path d="M245.573261,123.069348 C243.751304,126.045 240.863913,129.91587 238.922174,131.529783 C241.633043,134.801739 242.761522,139.088696 243.02,142.285 C244.665435,142.051739 246.336087,141.812174 248.013043,141.572609 C247.823913,138.243913 246.758478,134.732391 244.545652,132.532174 C245.812826,130.653478 248.536304,127.028478 250.02413,124.166304 C248.555217,123.800652 247.073696,123.441304 245.573261,123.069348" id="Fill-27" fill="#CF292A"></path>
                <path d="M232.422391,120.282826 C230.36087,123.315217 227.120435,127.331087 225.109348,128.762174 C225.51913,129.348478 225.891087,129.947391 226.218913,130.558913 C228.538913,134.782826 228.734348,139.164348 228.116522,141.421304 C229.711522,141.692391 231.300217,141.969783 232.876304,142.266087 C233.941739,138.376304 233.267174,133.15 230.335652,129.739348 C231.75413,127.936304 235.372826,124.05913 237.056087,121.184348 C235.517826,120.875435 233.973261,120.566522 232.422391,120.282826" id="Fill-28" fill="#CF292A"></path>
                <path d="M217.424348,118.063696 C215.741087,121.537391 213.074348,126.347609 211.056957,127.778696 C214.593696,132.75913 214.738696,137.60087 213.862391,139.92087 C215.501522,139.990217 217.159565,140.078478 218.842826,140.21087 C219.977609,136.421957 219.71913,131.529783 216.913696,128.056087 C218.332174,126.259348 220.708913,121.619348 222.020217,118.555435 C220.469348,118.347391 218.937391,118.196087 217.424348,118.063696" id="Fill-29" fill="#CF292A"></path>
                <path d="M210.073478,361.455652 C205.250652,358.744783 203.548478,352.402609 203.359348,349.111739 C201.707609,349.061304 200.074783,348.973043 198.448261,348.840652 C198.372609,353.341957 200.181957,359.728261 204.613913,361.651087 C203.876304,364.607826 203.888913,367.968043 204.519348,371.82 C206.032391,371.801087 207.558043,371.769565 209.096304,371.700217 C208.566739,367.236739 208.402826,361.62587 210.073478,361.455652" id="Fill-30" fill="#CF292A"></path>
                <path d="M146.859783,189.59913 C146.147391,200.871304 154.343043,211.626522 163.988696,211.626522 C163.988696,211.626522 161.460652,205.233913 164.707391,198.727826 C165.968261,196.218696 168.30087,193.911304 171.421522,192.02 C195.277174,175.672826 246.39913,192.284783 246.39913,192.284783 C234.351522,191.187826 224.466304,191.408478 216.106739,192.511739 C230.278913,196.912174 245.415652,202.882391 255.685435,205.372609 C268.319348,208.44913 276.685217,210.025217 289.256087,210.76913 L288.846304,205.813913 L295.831522,207.005435 L314.441957,210.182826 L317.184348,203.216522 L320.210435,195.531522 L326.130217,201.293696 C326.243696,201.419783 335.391304,210.321522 340.207826,214.999348 C339.356739,206.204783 337.200652,183.887391 337.175435,183.628913 L336.305435,174.62 L353.863043,181.712391 L372.284348,151.577609 L376.974783,159.224783 L388.070435,177.356087 C391.935,161.61413 394.715217,144.93913 402.822609,137.203696 C394.696304,137.5 388.978261,139.801087 380.114348,146.004565 C385.138913,132.412391 392.578043,122.31913 402.633478,110.788478 C392.868043,112.263696 383.550217,115.062826 374.39,120.282826 C377.882609,111.98 378.128478,101.678696 378.128478,101.678696 C335.271522,151.426304 215.747391,150.79587 184.793043,160.94587 C164.486739,167.603261 154.071957,178.68 146.859783,189.59913" id="Fill-33" fill="#204078"></path>
                <path d="M356.485652,295.833696 L329.345435,298.052826 L316.333261,299.118261 L324.680217,289.06913 L329.219348,283.590652 L311.686957,268.466522 C302.161087,283.016957 292.874783,298.809348 288.455435,311.001957 L307.73413,310.926304 C297.836304,323.194565 278.727826,343.488261 265.88587,365.969565 C253.031304,334.441522 222.96587,293.860435 168.628696,271.549348 C152.886739,265.093696 138.014783,256.538696 139.943913,244.068696 C112.627174,240.166304 82.7319565,237.01413 48.8397826,235.929783 C46.4126087,235.879348 44.1682609,235.847826 42.1382609,235.822609 C40.1776087,235.81 39.6732609,236.598043 41.8104348,238.281304 C51.058913,244.98913 82.4608696,257.137609 120.961522,264.305652 C139.49,267.760435 147.94413,272.835435 161.24,282.128043 C190.183261,302.365 229.63587,359.495 253.70587,430.122609 C299.32413,341.515 352.337391,299.07413 356.485652,295.833696" id="Fill-34" fill="#0F182A"></path>
                <path d="M192.282609,209.546087 C191.141522,214.173478 191.784565,218.151522 192.043043,220.181522 L186.551957,220.181522 C186.419565,216.058478 188.878261,211.821957 192.282609,209.546087 L192.282609,209.546087 Z M134.976087,233.433261 C138.903696,233.49 142.749348,233.565652 146.506739,233.641304 C148.902391,230.476522 153.233478,227.671087 161.517391,227.671087 L163.95087,227.671087 C179.346087,227.87913 182.189348,243.677826 198.536522,243.677826 C214.738696,243.677826 217.682826,228.156522 232.743913,227.683696 C233.26087,227.683696 233.765217,227.671087 234.231739,227.671087 L290.643043,227.671087 L289.867609,218.30913 L233.412174,218.30913 C217.739565,218.30913 214.965652,202.289783 198.523913,202.289783 C182.252391,202.289783 179.390217,218.252391 164.146304,218.252391 L163.988696,218.252391 C147.912609,217.130217 141.545217,203.531739 140.265435,192.02 C133.135217,195.039783 129.478696,198.582826 124.126304,207.068478 C65.811087,216.720435 45.8515217,226.044565 40.6,231.838261 C39.8434783,232.891087 40.165,233.382826 40.8963043,233.603478 C60.2695652,232.790217 87.4286957,231.831957 134.976087,233.433261 L134.976087,233.433261 Z" id="Fill-35" fill="#0F182A"></path>
                <path d="M192.282609,209.546087 C188.878261,211.821957 186.419565,216.058478 186.551957,220.181522 L192.043043,220.181522 C191.784565,218.151522 191.141522,214.173478 192.282609,209.546087" id="Fill-36" fill="#FFFFFF"></path>
                <path d="M222.871304,82.0154348 C222.972174,83.7554348 222.846087,85.5143478 221.553696,86.9769565 L233.002391,86.3023913 C231.918043,85.173913 231.81087,83.868913 231.640652,81.5867391 L231.634348,81.5173913 L230.669783,64.6847826 L256.637391,85.0856522 L254.449783,47.763913 C254.380435,46.2571739 254.462391,44.6432609 255.313478,43.3634783 L244.463696,44.0065217 C245.302174,44.9963043 245.566957,46.2193478 245.743478,48.0917391 L246.771087,65.5673913 L220.708913,45.1917391 L222.871304,82.0154348" id="Fill-37" fill="#204078"></path>
                <path d="M90.606087,132.008913 C94.7354348,126.461087 102.924783,125.238043 108.478913,129.361087 C114.039348,133.490435 115.249783,141.673478 111.120435,147.233913 C106.997391,152.800652 98.8143478,154.011087 93.253913,149.881739 C87.6997826,145.758696 86.4830435,137.569348 90.606087,132.008913 L90.606087,132.008913 Z M88.0465217,156.898478 C97.4967391,163.915217 110.937609,161.86 118.004783,152.340435 C125.071957,142.814565 123.136522,129.361087 113.686304,122.356957 C104.236087,115.346522 90.7952174,117.395435 83.7280435,126.902391 C76.6671739,136.44087 78.5963043,149.881739 88.0465217,156.898478 L88.0465217,156.898478 Z" id="Fill-38" fill="#204078"></path>
                <path d="M277.901957,53.7971739 L283.966739,55.0265217 L278.261304,83.1880435 C277.82,85.3441304 277.031957,86.6995652 275.588261,87.5569565 L288.001522,90.0723913 C287.125217,88.7547826 286.646087,86.9832609 287.062174,84.9784783 L292.767609,56.8169565 L299.475435,58.1723913 C301.864783,58.6515217 303.623696,59.9880435 304.74587,61.085 L304.916087,51.206087 L275.449565,45.2295652 L271.818261,54.2763043 C273.968043,53.3684783 275.638696,53.4 277.901957,53.7971739" id="Fill-39" fill="#204078"></path>
                <path d="M62.0663043,185.091522 L64.4052174,179.367174 L91.0032609,190.261087 C93.1467391,191.131087 94.2247826,192.328913 94.7480435,193.810435 L99.6023913,181.977174 C98.1334783,182.595 96.3052174,182.727391 94.413913,181.939348 L67.8158696,171.045435 L70.3943478,164.722174 C71.321087,162.471522 72.9728261,160.983696 74.2526087,160.088478 L64.5880435,158.064783 L53.196087,185.88587 L61.3917391,191.15 C60.9063043,188.87413 61.2404348,187.247609 62.0663043,185.091522" id="Fill-40" fill="#204078"></path>
                <path d="M130.531522,92.9030435 C133.374783,90.8478261 135.43,90.4947826 137.630217,91.7178261 C139.124348,92.5436957 139.729565,94.4413043 139.811522,94.9078261 C139.868261,95.2482609 140.25913,98.2491304 136.665652,100.85913 L133.608043,103.084565 L127.688261,94.9834783 L130.531522,92.9030435 L130.531522,92.9030435 Z M118.294783,96.8054348 L137.958043,124.147391 C138.43087,125.187609 138.765,126.486304 138.531739,127.898478 L148.593478,120.57913 C146.658043,120.415217 145.561087,119.280435 144.293913,117.729565 L135.776739,106.022391 L157.854565,113.839783 L167.317391,106.955435 C165.766522,106.867174 163.85,106.520435 161.750652,105.946739 L147.206522,100.985217 L147.483913,100.27913 C149.230217,95.8093478 148.398043,92.5373913 148.208913,91.9258696 C147.773913,90.4695652 147.07413,89.0763043 146.109565,87.783913 C144.823478,86.0123913 143.266304,84.6569565 141.47587,83.7428261 L141.23,83.6230435 C139.786304,82.9547826 138.525435,82.5765217 137.144783,82.3936957 C135.007609,82.1478261 132.599348,82.5134783 130.172174,83.4591304 C129.686739,83.6482609 127.335217,84.6947826 125.494348,86.0376087 L125.361957,86.1321739 L114.064565,94.3530435 C115.514565,94.6556522 117.16,95.2545652 118.294783,96.8054348 L118.294783,96.8054348 Z" id="Fill-41" fill="#204078"></path>
                <path d="M174.649348,68.9023913 C178.772391,63.3356522 186.94913,62.1315217 192.522174,66.2482609 C198.07,70.383913 199.286739,78.5606522 195.157391,84.1147826 C191.034348,89.6815217 182.851304,90.8919565 177.297174,86.7626087 C171.736739,82.6395652 170.52,74.4628261 174.649348,68.9023913 L174.649348,68.9023913 Z M172.083478,93.7856522 C181.533696,100.796087 194.968261,98.7534783 202.041739,89.2276087 C209.108913,79.7080435 207.173478,66.2482609 197.723261,59.2441304 C188.266739,52.2273913 174.832174,54.27 167.771304,63.7895652 C160.697826,73.3154348 162.626957,86.768913 172.083478,93.7856522 L172.083478,93.7856522 Z" id="Fill-42" fill="#204078"></path>
                <path d="M320.973261,76.436087 C325.108913,70.8819565 333.279348,69.6715217 338.852391,73.7945652 C344.406522,77.9176087 345.610652,86.1069565 341.493913,91.661087 C337.37087,97.2215217 329.187826,98.4382609 323.621087,94.3152174 C318.054348,90.1858696 316.850217,81.9965217 320.973261,76.436087 L320.973261,76.436087 Z M318.42,101.319348 C327.863913,108.336087 341.304783,106.287174 348.371957,96.7676087 C355.43913,87.2417391 353.503696,73.7945652 344.059783,66.7841304 C334.603261,59.7673913 321.156087,61.81 314.095217,71.3295652 C307.034348,80.8617391 308.969783,94.3152174 318.42,101.319348 L318.42,101.319348 Z" id="Fill-43" fill="#204078"></path>
                <path d="M154.563696,385.191522 C154.771739,384.857391 154.872609,384.687174 154.872609,384.687174 C156.461304,382.196957 158.503913,380.980217 161.624565,381.137826 L153.914348,376.239348 L133.343261,408.675217 C130.16587,413.674565 132.517391,420.58413 138.411957,424.328913 C144.312826,428.067391 151.468261,427.424348 154.733913,422.349348 L175.34913,389.831522 L167.645217,384.945652 C169.353696,387.700652 169.019565,389.831522 167.298478,392.567609 C167.298478,392.567609 156.35413,409.816304 150.573043,418.945 C148.763696,421.580217 144.552391,422.059348 141.242609,419.953696 C137.920217,417.860652 136.577391,413.819565 138.159783,411.051957 C140.032174,408.095217 154.500652,385.292391 154.563696,385.191522" id="Fill-44" fill="#204078"></path>
                <path d="M177.391739,391.130217 L157.154783,423.042826 C156.871087,423.496739 156.385652,424.246957 156.385652,424.246957 C152.848913,429.845217 144.268696,430.765652 137.251957,426.29587 C134.831087,424.763913 132.92087,422.784348 131.584348,420.621957 C131.540217,420.54 131.489783,420.483261 131.445652,420.395 C129.031087,416.353913 128.615,411.65087 130.884565,408.063696 C130.884565,408.063696 131.048478,407.78 131.61587,406.878478 L151.865435,374.946957 L144.17413,370.061087 C145.649348,372.664783 145.775435,374.549783 143.814783,377.683043 C143.802174,377.689348 126.610217,404.816957 126.610217,404.816957 C120.791304,414.134783 123.64087,423.83087 134.175435,430.563913 C144.46413,437.151957 155.263478,435.985652 161.151739,426.711957 L178.356304,399.578043 C180.222391,396.728478 182.529783,395.681957 185.051522,395.978261 L177.391739,391.130217" id="Fill-45" fill="#204078"></path>
                <path d="M397.508043,394.698478 L387.868696,384.788043 L377.371957,353.556304 C377.094565,352.427826 376.224565,350.517609 377.901522,345.221957 L371.149565,351.728043 L383.058478,387.461087 L397.917826,402.913043 L397.955652,402.875217 L405.098478,396.003478 C402.021957,397.100435 399.701957,396.539348 397.508043,394.698478" id="Fill-46" fill="#204078"></path>
                <path d="M348.145,373.862609 L347.968478,374.03913 L380.164783,386.187609 L369.207826,353.59413 L360.766304,361.726739 C362.89087,360.762174 364.208478,360.913478 364.807391,361.083696 C365.236087,361.310652 366.043043,361.619565 367.089565,364.456522 L371.962826,377.670435 L359.007391,372.362174 C357.002609,371.328261 356.183043,370.023261 356.183043,370.023261 C355.363478,368.566957 356.063261,367.035 356.460435,365.862391 L348.145,373.862609" id="Fill-47" fill="#204078"></path>
                <path d="M346.039348,375.892609 L339.445,382.228478 C343.11413,381.005435 344.494783,381.238696 347.539783,382.152826 L378.456304,393.86 L387.269783,403.09587 C390.012174,405.831957 389.917609,409.091304 389.003478,411.493261 L396.203043,404.571087 L381.318478,389.144348 L346.039348,375.892609" id="Fill-48" fill="#204078"></path>
                <path d="M305.647391,440.058261 L297.886739,408.769783 C296.991522,404.898913 299.929348,401.44413 299.929348,401.44413 L291.109565,403.638043 L300.238261,440.430217 C300.238261,440.430217 302.047609,445.776304 299.229565,450.132609 C297.224783,453.221739 294.10413,455.554348 289.823478,456.619783 C285.826522,457.596957 281.041522,457.161957 277.473261,454.772609 C275.903478,453.713478 275.153261,453.051522 273.463696,451.425 L270.355652,456.645 C279.648261,465.653913 291.128478,461.72 291.128478,461.72 C295.396522,460.654565 299.078261,458.593043 301.776522,455.743478 C305.376304,451.96087 306.801087,447.100217 306.076087,442.119783 C306.063478,442.006304 305.779783,440.480652 305.647391,440.058261" id="Fill-49" fill="#204078"></path>
                <path d="M288.379783,449.275217 C285.505,450.094783 283.235435,449.199565 283.166087,449.180652 C279.944565,448.083696 278.393696,443.128478 278.393696,443.128478 L274.648913,449.420217 C276.117826,451.09087 279.282609,453.146087 279.282609,453.146087 C283.493913,455.743478 287.963696,454.734783 289.37587,454.381739 C294.879565,453.02 299.620435,448.102609 298.12,441.981087 C298.113696,441.918043 288.764348,404.230652 288.764348,404.230652 L279.931957,406.405652 C281.848478,406.714565 284.414348,408.782391 285.177174,411.921957 L292.874783,442.989783 C293.574565,445.883478 291.248261,448.468261 288.379783,449.275217" id="Fill-50" fill="#204078"></path>
                <path d="M78.59,345.890217 C70.886087,349.53413 66.0821739,342.378696 63.9386957,337.78913 L60.0678261,329.650217 L78.3756522,320.962826 L82.233913,329.108043 L82.2402174,329.108043 C84.0243478,332.884348 87.2332609,341.773478 78.59,345.890217 L78.59,345.890217 Z M96.3745652,312.433043 L100.365217,320.855652 C103.044565,326.403478 101.474783,332.493478 96.8284783,334.693696 C92.383913,336.799348 87.3278261,334.201957 84.5665217,328.357826 L80.5632609,319.935217 L96.3745652,312.433043 L96.3745652,312.433043 Z M86.6595652,335.286304 L86.583913,334.756739 L87.0063043,335.078261 C90.8456522,337.927826 94.4013043,338.51413 97.8623913,336.875 C103.712826,334.101087 105.774348,326.598913 102.55913,319.80913 L97.5282609,309.205217 L56.8526087,328.502826 L61.7447826,338.835652 C66.0506522,347.882391 72.7269565,351.33087 79.6176087,348.058913 C84.7493478,345.631739 87.3719565,340.764783 86.6595652,335.286304 L86.6595652,335.286304 Z" id="Fill-51" fill="#FFFFFF"></path>
                <path d="M93.9536957,319.487609 L95.6558696,323.087391 C96.9419565,325.791957 96.5952174,328.401957 94.3508696,329.461087 C91.5958696,330.766087 89.4523913,328.168696 88.6265217,326.422391 L86.9180435,322.822609 L93.9536957,319.487609 L93.9536957,319.487609 Z M96.8284783,334.693696 C101.474783,332.493478 103.044565,326.403478 100.365217,320.855652 L96.3745652,312.433043 L80.5632609,319.935217 L84.5665217,328.357826 C87.3278261,334.201957 92.383913,336.799348 96.8284783,334.693696 L96.8284783,334.693696 Z" id="Fill-52" fill="#204078"></path>
                <path d="M78.136087,339.485 C77.5686957,340.027174 76.5158696,340.657609 75.69,340.752174 C73.4078261,341.029565 71.2265217,341.187174 68.6354348,335.563696 L67.0530435,332.197174 L76.5663043,327.689565 L78.1613043,331.037174 C80.2984783,335.538478 79.586087,338.07913 78.136087,339.485 L78.136087,339.485 Z M82.2402174,329.108043 L82.233913,329.108043 L78.3756522,320.962826 L60.0678261,329.650217 L63.9386957,337.78913 C66.0821739,342.378696 70.886087,349.53413 78.59,345.890217 C87.2332609,341.773478 84.0243478,332.884348 82.2402174,329.108043 L82.2402174,329.108043 Z" id="Fill-53" fill="#204078"></path>
                <path d="M61.7447826,338.835652 L56.8526087,328.502826 L97.5282609,309.205217 L102.55913,319.80913 C105.774348,326.598913 103.712826,334.101087 97.8623913,336.875 C94.4013043,338.51413 90.8456522,337.927826 87.0063043,335.078261 L86.583913,334.756739 L86.6595652,335.286304 C87.3719565,340.764783 84.7493478,345.631739 79.6176087,348.058913 C72.7269565,351.33087 66.0506522,347.882391 61.7447826,338.835652 L61.7447826,338.835652 Z M82.1141304,353.291522 L82.1204348,353.291522 C86.3065217,351.305652 89.4019565,347.926522 90.4673913,342.870435 C90.4673913,342.870435 94.4454348,344.717609 100.276957,341.975217 L100.289565,341.975217 L100.289565,341.962609 C108.831957,337.896304 111.876957,327.210435 107.249565,317.583696 L98.2973913,298.708478 C98.2847826,301.192391 97.1121739,303.581739 94.0041304,304.981304 L56.4365217,322.803696 C52.906087,324.398696 50.1132609,324.045652 47.85,321.69413 L57.0417391,341.061087 C64.4493478,356.63913 76.6482609,355.876304 82.1141304,353.30413 L82.1141304,353.291522 L82.1141304,353.291522 Z" id="Fill-54" fill="#204078"></path>
                <path d="M87.7565217,381.415217 L125.305217,347.983261 L119.240435,341.161957 C119.952826,343.456739 119.511522,345.890217 116.813261,348.386739 C116.813261,348.393043 116.706087,348.487609 116.510652,348.657826 C116.441304,348.727174 88.903913,373.263696 85.676087,376.132174 C82.8580435,378.483696 80.33,378.521522 77.2597826,377.437174 L100.655217,403.694783 L105.137609,400.889348 L105.137609,400.883043 L105.112391,400.895652 L87.7565217,381.415217" id="Fill-55" fill="#204078"></path>
                <path d="M105.679783,390.058478 C105.679783,390.058478 101.273043,385.103261 98.6441304,382.165435 C102.225,378.962826 122.014348,361.291739 125.292609,358.398043 C125.305217,358.385435 125.311522,358.385435 125.32413,358.37913 C125.393478,358.322391 125.46913,358.265652 125.544783,358.196304 C125.544783,358.196304 130.077609,354.829783 132.996522,356.613913 L126.950652,349.82413 L126.912826,349.792609 L91.186087,381.623261 L107.173913,399.565435 L107.180217,399.55913 L114.745435,394.868696 C114.745435,394.868696 109.815435,394.610217 105.856304,390.253913 L105.679783,390.058478" id="Fill-56" fill="#204078"></path>
                <path d="M213.963261,447.913478 C213.862391,447.90087 200.591739,444.742391 200.591739,444.742391 L202.987391,434.680652 L212.368261,436.893478 L212.500652,436.931304 C216.938913,438.141739 217.89087,441.426304 217.89087,441.426304 L219.649783,434.025 L198.795,429.063478 L194.148696,448.581739 L219.731739,454.640217 L223.287391,446.400435 C221.238478,447.617174 218.918478,448.922174 213.963261,447.913478" id="Fill-57" fill="#204078"></path>
                <path d="M199.122826,426.661522 L220.21087,431.66087 L221.976087,424.196522 C221.976087,424.196522 219.536304,426.907391 215.13587,425.86087 L205.345217,423.534565 L207.198696,415.71087 L219.000435,418.51 C225.405652,420.048261 226.950217,423.521957 226.950217,423.521957 L227.505,415.175 L203.214348,409.406522 L199.122826,426.661522" id="Fill-58" fill="#204078"></path>
                <path d="M195.907609,406.638913 C186.198913,447.535217 186.28087,447.182174 186.22413,447.421739 C185.631522,449.58413 183.954565,452.597609 179.995435,453.051522 L216.661522,461.757826 L216.667826,461.757826 L218.754565,456.903478 L191.00913,450.334348 L201.411304,406.500217 L227.656304,412.735217 L227.996739,407.464783 L193.461522,399.250217 C195.409565,401.053261 196.601087,403.701087 195.907609,406.638913" id="Fill-59" fill="#204078"></path>
                <path d="M334.420435,411.272609 L340.245652,415.918913 L335.000435,418.673913 L334.420435,411.272609 L334.420435,411.272609 Z M329.175217,401.261304 L330.871087,425.923913 L348.58,416.606087 L329.175217,401.261304 L329.175217,401.261304 Z" id="Fill-60" fill="#204078"></path>
                <path d="M321.111957,385.966957 L324.213696,442.447609 C324.150652,447.818913 323.324783,450.908043 321.906304,452.868696 L330.032609,448.588043 L326.527391,396.186304 L367.76413,428.716739 L375.512174,424.631522 C372.309565,424.530652 369.264565,422.626739 366.055652,420.476957 L321.111957,385.966957" id="Fill-61" fill="#204078"></path>
                <path d="M331.123261,428.521304 L332.352609,447.358696 L332.510217,447.276739 L341.588478,442.504348 C339.457609,442.18913 337.547391,440.266304 337.017826,437.334783 L336.595435,430.708913 L349.248261,424.051522 L354.751957,428.332174 C356.151522,429.479565 358.345435,431.717609 356.07587,434.869783 L365.242391,430.040652 L365.431522,429.946087 L350.572174,418.276739 L331.123261,428.521304" id="Fill-62" fill="#204078"></path>
                <path d="M430.94,329.637609 C419.396739,323.131522 411.276739,330.791304 407.380652,334.473043 L407.210435,334.636957 C403.408913,338.211522 401.612174,339.106739 399.815435,338.261957 C399.399348,338.066522 399.191304,337.915217 398.901304,337.719783 C396.90913,336.320217 396.713696,333.848913 398.409565,331.201087 C398.781522,330.633696 402.166957,325.71 408.370435,328.836957 L408.471304,328.887391 L406.018913,322.072391 L405.949565,322.072391 C403.616957,322.015652 397.753913,322.570435 393.782174,329.070217 C390.396739,334.605435 391.796304,340.222609 397.230652,343.292826 C402.349783,346.180217 406.157609,342.77587 409.517826,339.756087 L409.688043,339.617391 L411.226304,338.350217 C411.497391,338.110652 411.787391,337.877391 412.064783,337.637826 C415.166522,334.983696 418.085435,332.474565 422.397609,332.613261 C422.71913,332.62587 425.587609,332.802391 428.279565,334.422609 C431.003043,336.074348 432.78087,338.299783 433.55,341.042174 C434.590217,344.692391 434.010217,348.739783 431.955,352.415217 C429.761087,356.292391 426.287391,358.952826 422.151739,359.911087 C420.392826,360.327174 419.371522,360.428043 417.038913,360.541522 L417.001087,360.541522 L418.665435,366.291087 L418.696957,366.291087 C429.426957,365.793043 434.628043,357.937826 435.964565,355.542174 C436.235652,355.069348 436.368043,354.779348 436.368043,354.779348 C438.492609,350.98413 439.488696,346.949348 439.268043,343.06587 C438.946522,337.328913 435.91413,332.430435 430.94,329.637609" id="Fill-63" fill="#204078"></path>
                <path d="M421.445652,357.685652 C425.114783,356.891304 427.951739,354.735217 429.861957,351.305652 C429.943913,351.173261 430.006957,351.04087 430.07,350.94 L430.164565,350.763478 C433.15913,345.335435 431.929783,339.251739 427.283478,336.603913 C423.652174,334.536087 420.430652,334.485652 417.423478,336.458913 C414.851304,338.154783 411.69913,340.840435 411.667609,340.871957 C406.491739,345.436304 402.047174,348.670435 395.925652,345.335435 C392.962609,343.73413 390.945217,341.319565 390.075217,338.362826 C389.116957,335.015217 389.728478,331.182174 391.846739,327.588696 C392.962609,325.684783 397.218043,319.475 405.098478,319.657826 L405.136304,319.657826 L403.276522,314.513478 L403.276522,314.469348 L403.263913,314.469348 L401.958913,314.639565 C396.524565,315.377174 390.44087,319.708261 387.48413,324.953478 C385.239783,328.956739 384.212174,332.896957 384.432826,336.666957 C384.716522,341.729348 387.080652,345.984783 391.260435,349.023478 C391.846739,349.44587 392.477174,349.855652 393.151739,350.233913 C403.011739,355.781739 409.246739,350.196087 414.246087,345.701087 L414.636957,345.348043 C418.728478,341.691522 421.622174,339.882174 424.37087,341.426739 C426.066739,342.372391 426.886304,345.543478 425.436304,348.348913 C424.251087,350.656304 422.498478,351.551522 421.981522,351.784783 C419.075217,353.323043 414.45413,351.343478 414.416304,351.324565 L414.334348,351.280435 L416.33913,358.253043 L416.408478,358.253043 C418.249348,358.461087 421.401522,357.691957 421.445652,357.685652" id="Fill-64" fill="#204078"></path>
                <path d="M447.596087,237.720217 L449.670217,212.427174 L426.671957,216.361087 L422.28413,205.233913 C422.277826,205.246522 408.351522,218.794565 405.703696,221.35413 C405.615435,221.429783 405.539783,221.49913 405.476739,221.562174 C404.184348,222.766304 402.784783,223.472391 401.561739,223.472391 C401.31587,223.472391 401.082609,223.447174 400.861957,223.38413 C399.311087,222.993261 398.264565,221.190217 398.598696,217.521087 C398.655435,216.827609 398.806739,215.352391 399.002174,213.385435 C399.916304,203.95413 401.933696,183.162391 401.94,183.105652 L388.473913,188.533696 L372.296957,162.099565 L372.284348,162.099565 L356.101087,188.533696 L342.647609,183.105652 C342.653913,183.162391 345.585435,213.530435 345.988913,217.521087 C346.058261,218.321739 346.051957,219.027826 345.995217,219.651957 C345.919565,220.660652 345.698913,221.480217 345.371087,222.07913 C344.81,223.024783 343.98413,223.472391 343.02587,223.472391 C342.805217,223.472391 342.559348,223.421957 342.332391,223.377826 C341.834348,223.283261 341.33,223.087826 340.813043,222.80413 C340.233043,222.482609 339.659348,222.091739 339.11087,221.562174 C339.041522,221.49913 338.978478,221.429783 338.877609,221.35413 C336.217174,218.781957 322.297174,205.233913 322.297174,205.233913 L317.915652,216.361087 L294.892174,212.427174 L296.972609,237.720217 L291.84087,239.485435 L288.026739,240.803043 L336.891739,282.953913 L328.90413,292.574348 L331.696957,292.347391 L368.772826,289.321304 L372.296957,296.08587 L373.412826,293.923478 L375.802174,289.321304 L382.957609,289.913913 L391.052391,290.563261 L415.677174,292.574348 L407.683261,282.953913 L456.554565,240.803043 L452.078478,239.258478 L447.596087,237.720217" id="Fill-65" fill="#CF292A"></path>
            </g>
        </g>
    </g>
</svg>