<?xml version="1.0" encoding="UTF-8" standalone="no"?>
<svg width="500px" height="502px" viewBox="0 0 500 502" version="1.1" xmlns="http://www.w3.org/2000/svg" xmlns:xlink="http://www.w3.org/1999/xlink">
    <!-- Generator: Sketch 39.1 (31720) - http://www.bohemiancoding.com/sketch -->
    <title>WAS</title>
    <desc>Created with Sketch.</desc>
    <defs></defs>
    <g id="MLB" stroke="none" stroke-width="1" fill="none" fill-rule="evenodd">
        <g id="WAS">
            <g transform="translate(1.000000, 1.000000)">
                <g id="Group-3" fill="#FFFFFF">
                    <path d="M249.392857,489.190476 C117.077381,489.190476 9.80952381,381.922619 9.80952381,249.607143 C9.80952381,117.291667 117.077381,10.0297619 249.392857,10.0297619 C381.708333,10.0297619 488.97619,117.291667 488.97619,249.607143 C488.97619,381.922619 381.708333,489.190476 249.392857,489.190476 L249.392857,489.190476 Z M498.785714,249.607143 C498.785714,112.089286 386.910714,0.220238095 249.392857,0.220238095 C111.875,0.220238095 0,112.095238 0,249.607143 C0,387.125 111.875,499 249.392857,499 C386.910714,499 498.785714,387.119048 498.785714,249.607143 L498.785714,249.607143 Z" id="Fill-1"></path>
                </g>
                <path d="M249.392857,475.892857 C124.410714,475.892857 23.0952381,374.589286 23.0952381,249.607143 C23.0952381,124.630952 124.410714,23.3214286 249.392857,23.3214286 C374.369048,23.3214286 475.684524,124.630952 475.684524,249.607143 C475.684524,374.589286 374.369048,475.892857 249.392857,475.892857 L249.392857,475.892857 Z M249.392857,10.0297619 C117.077381,10.0297619 9.80952381,117.291667 9.80952381,249.607143 C9.80952381,381.922619 117.077381,489.190476 249.392857,489.190476 C381.708333,489.190476 488.97619,381.922619 488.97619,249.607143 C488.97619,117.291667 381.708333,10.0297619 249.392857,10.0297619 L249.392857,10.0297619 Z" id="Fill-4" fill="#B02534"></path>
                <path d="M249.791667,434.988095 C247.64881,432.494048 244.535714,431.029762 241.029762,430.869048 C240.809524,430.869048 240.595238,430.857143 240.386905,430.857143 C233.452381,430.857143 228.369048,436.005952 228.029762,443.386905 C227.690476,450.970238 232.654762,456.702381 239.839286,457.02381 C247.130952,457.339286 252.5,452.119048 252.839286,444.517857 C253.005952,440.85119 251.928571,437.470238 249.791667,434.988095" id="Fill-5" fill="#0F182A"></path>
                <polyline id="Fill-6" fill="#0F182A" points="113.738095 397.702381 120.238095 403.404762 123.857143 392.738095 114.940476 397.107143 113.738095 397.702381"></polyline>
                <polyline id="Fill-7" fill="#0F182A" points="347 425.077381 354.464286 420.684524 353.386905 419.869048 345.452381 413.916667 346.821429 423.75 347 425.077381"></polyline>
                <polyline id="Fill-8" fill="#0F182A" points="105.125 126.464286 95.6309524 123.571429 100.910714 133.529762 106.416667 126.85119 105.125 126.464286"></polyline>
                <path d="M442.892857,278.60119 L431.577381,286.821429 L435.892857,273.517857 L424.583333,265.297619 L438.565476,265.297619 L442.892857,252 L447.202381,265.297619 L461.190476,265.297619 L449.880952,273.517857 L454.202381,286.821429 L442.892857,278.60119 L442.892857,278.60119 Z M432.613095,362.238095 C429.452381,367.380952 424.571429,370.214286 418.863095,370.214286 C418.47619,370.214286 418.10119,370.202381 417.708333,370.178571 L416.684524,370.113095 L417.375,362.505952 L418.363095,362.583333 C421.779762,362.833333 424.47619,361.440476 426.327381,358.428571 C427.404762,356.672619 427.821429,354.958333 427.505952,353.595238 C427.291667,352.708333 426.767857,351.988095 425.928571,351.47619 C425.196429,351.02381 424.488095,350.803571 423.767857,350.803571 C422.136905,350.803571 420.428571,351.952381 418.464286,353.279762 L416.107143,354.89881 C412.172619,357.613095 409.244048,358.767857 406.339286,358.767857 C404.327381,358.767857 402.410714,358.190476 400.470238,357 C397.827381,355.369048 396.065476,352.928571 395.488095,350.107143 C394.910714,347.309524 395.553571,344.22619 397.27381,341.434524 C399.958333,337.077381 403.791667,334.869048 408.678571,334.869048 L409.875,334.886905 L410.071429,342.291667 L408.827381,342.267857 C406.339286,342.267857 404.738095,343.130952 403.494048,345.14881 C402.22619,347.208333 402.553571,349.10119 404.375,350.22619 C405.065476,350.64881 405.684524,350.85119 406.303571,350.85119 C407.625,350.85119 409.172619,349.964286 411.571429,348.333333 L413.952381,346.708333 C417.452381,344.315476 420.464286,342.720238 423.77381,342.720238 C425.827381,342.720238 427.845238,343.357143 429.946429,344.64881 C432.625,346.303571 434.380952,348.60119 435.02381,351.321429 C435.809524,354.636905 434.97619,358.416667 432.613095,362.238095 L432.613095,362.238095 Z M392.75,409.625 L364.52381,381.267857 L370.184524,375.636905 L393.25,398.815476 L405.130952,386.988095 L410.297619,392.166667 L392.75,409.625 L392.75,409.625 Z M366.404762,429.660714 L360.696429,425.375 L348.077381,432.845238 L349.059524,439.910714 L342.047619,444.065476 L336.363095,400 L337.720238,399.178571 L373.654762,425.369048 L366.404762,429.660714 L366.404762,429.660714 Z M316.922619,454.410714 L316.559524,454.184524 L288.720238,436.809524 L294.559524,459.571429 L287.202381,461.452381 L277.119048,422.160714 L278.946429,421.696429 L279.303571,421.928571 L307.136905,439.291667 L301.309524,416.535714 L308.660714,414.64881 L318.738095,453.946429 L316.922619,454.410714 L316.922619,454.410714 Z M240.529762,464.464286 C240.190476,464.464286 239.85119,464.452381 239.511905,464.434524 C227.958333,463.922619 219.315476,454.5 219.833333,443.017857 C220.363095,431.517857 229.714286,422.934524 241.369048,423.464286 C252.916667,423.988095 261.553571,433.39881 261.035714,444.886905 C260.529762,456.047619 251.720238,464.464286 240.529762,464.464286 L240.529762,464.464286 Z M193.422619,456.815476 L185.761905,454.595238 L196.89881,416.166667 L204.565476,418.380952 L193.422619,456.815476 L193.422619,456.815476 Z M177.892857,417.565476 L167.910714,412.285714 L152.60119,441.178571 L145.559524,437.440476 L160.863095,408.547619 L150.892857,403.255952 L154.315476,396.803571 L181.315476,411.113095 L177.892857,417.565476 L177.892857,417.565476 Z M121.785714,423.107143 L115.446429,417.553571 L117.738095,410.803571 L106.690476,401.14881 L100.285714,404.279762 L94.1547619,398.922619 L134.238095,379.75 L135.446429,380.785714 L121.785714,423.107143 L121.785714,423.107143 Z M77.452381,379.869048 L76.4047619,378.321429 L84.1666667,345.982143 L64.4345238,358.732143 L60.3154762,352.357143 L94.3928571,330.333333 L95.3988095,331.922619 L87.6547619,364.238095 L107.392857,351.494048 L111.511905,357.863095 L77.452381,379.869048 L77.452381,379.869048 Z M44.5892857,286.821429 L48.9166667,273.517857 L37.6011905,265.297619 L51.577381,265.297619 L55.9047619,252 L60.2321429,265.297619 L74.202381,265.297619 L62.8928571,273.517857 L67.2142857,286.821429 L55.9047619,278.60119 L44.5892857,286.821429 L44.5892857,286.821429 Z M44.7916667,182.345238 L68.4166667,184.190476 L50.9345238,165.916667 L51.5833333,164.39881 L76.875,164.285714 L59.1071429,148.690476 L62.2678571,141.285714 L94.0654762,170.029762 L93.3869048,171.60119 L66.2797619,171.559524 L85,191.321429 L84.3690476,192.833333 L41.4821429,190.119048 L44.7916667,182.345238 L44.7916667,182.345238 Z M83.3214286,112.363095 L126.059524,124.684524 L120.708333,131.196429 L113.880952,129.125 L104.577381,140.464286 L107.910714,146.767857 L102.75,153.065476 L82.327381,113.60119 L83.3214286,112.363095 L83.3214286,112.363095 Z M117.345238,83.4761905 C117.875,80.6607143 119.625,78.0535714 122.279762,76.125 C126.47619,73.0595238 130.940476,72.5 135.541667,74.4642857 L136.422619,74.8392857 L133.797619,81.7678571 L132.839286,81.3571429 C130.440476,80.327381 128.60119,80.4821429 126.636905,81.9166667 C124.678571,83.3392857 124.261905,85.2261905 125.52381,86.9583333 C126.363095,88.1130952 127.22619,88.5357143 128.708333,88.5357143 C129.803571,88.5357143 131.172619,88.2916667 132.892857,87.9285714 L135.714286,87.327381 C138.261905,86.7857143 140.125,86.5416667 141.767857,86.5416667 C145.815476,86.5416667 148.845238,88.1190476 151.303571,91.4880952 C155.482143,97.2261905 153.875,103.857143 147.107143,108.785714 C144.041667,111.02381 140.75,112.154762 137.339286,112.154762 C134.940476,112.154762 132.571429,111.589286 130.297619,110.482143 L129.375,110.029762 L132.89881,103.255952 L133.779762,103.690476 C136.809524,105.214286 139.880952,104.928571 142.720238,102.863095 C144.386905,101.654762 145.428571,100.22619 145.642857,98.8511905 C145.785714,97.9404762 145.571429,97.077381 144.994048,96.2857143 C144.095238,95.0595238 143.035714,94.5297619 141.446429,94.5297619 C140.25,94.5297619 138.869048,94.8214286 137.404762,95.125 L134.60119,95.7202381 C132.309524,96.2202381 130.47619,96.4583333 128.827381,96.4583333 C124.702381,96.4583333 121.690476,94.9583333 119.345238,91.7380952 C117.52381,89.2321429 116.809524,86.297619 117.345238,83.4761905 L117.345238,83.4761905 Z M164.72619,52.25 L172.285714,71.922619 L187.434524,66.0892857 L179.863095,46.422619 L187.315476,43.5535714 L201.684524,80.8928571 L194.25,83.7678571 L190.071429,72.9107143 L174.922619,78.7380952 L179.10119,89.5952381 L171.642857,92.4583333 L157.27381,55.1190476 L164.72619,52.25 L164.72619,52.25 Z M222.363095,36.7142857 L228.095238,76.3095238 L220.196429,77.4583333 L214.470238,37.8571429 L222.363095,36.7142857 L222.363095,36.7142857 Z M250.017857,33.9047619 L251.875,34.0535714 L272.904762,59.7916667 L274.708333,36.375 L282.267857,36.9583333 L279.154762,77.3988095 L277.279762,77.2619048 L256.261905,51.5119048 L254.452381,74.9345238 L246.880952,74.3511905 L250.017857,33.9047619 L250.017857,33.9047619 Z M301.613095,61.1964286 C304.767857,53.0416667 311.994048,47.9761905 320.470238,47.9761905 C323.065476,47.9761905 325.636905,48.4642857 328.130952,49.422619 C334.190476,51.75 337.958333,55.375 339.994048,60.8214286 L340.333333,61.7261905 L333.244048,64.6488095 L332.875,63.702381 C331.833333,61.0178571 330.380952,58.2380952 325.315476,56.2857143 C323.845238,55.7202381 322.345238,55.4345238 320.857143,55.4345238 C315.785714,55.4345238 311.345238,58.7738095 309.27381,64.1428571 C306.464286,71.4464286 309.511905,78.2559524 316.845238,81.0833333 C319.97619,82.2857143 322.678571,82.6607143 325.22619,82.2142857 L326.761905,78.2678571 L317.25,74.6130952 L319.892857,67.7916667 L336.410714,74.1547619 L330.863095,88.5297619 L330.422619,88.6785714 C328.041667,89.4702381 325.744048,89.8571429 323.39881,89.8571429 C320.422619,89.8571429 317.410714,89.25 314.172619,88.0059524 C302.821429,83.6309524 297.422619,72.1071429 301.613095,61.1964286 L301.613095,61.1964286 Z M358.97619,73.0297619 L363.279762,67.1190476 L387.970238,85.1190476 L383.666667,91.0297619 L374.547619,84.375 L355.291667,110.797619 L348.85119,106.10119 L368.10119,79.6785714 L358.97619,73.0297619 L358.97619,73.0297619 Z M401.339286,107.434524 C407.52381,107.434524 413.375,110.315476 417.386905,115.333333 C420.869048,119.690476 422.5,125.029762 421.958333,130.369048 C421.410714,135.779762 418.678571,140.714286 414.261905,144.25 C410.488095,147.27381 406.047619,148.869048 401.416667,148.869048 C395.238095,148.869048 389.380952,145.982143 385.375,140.970238 C381.886905,136.613095 380.261905,131.27381 380.797619,125.928571 C381.345238,120.517857 384.077381,115.589286 388.494048,112.053571 C392.27381,109.029762 396.708333,107.434524 401.339286,107.434524 L401.339286,107.434524 Z M412.190476,249.607143 C412.190476,339.52381 339.297619,412.404762 249.392857,412.404762 C159.482143,412.404762 86.5952381,339.52381 86.5952381,249.607143 C86.5952381,159.696429 159.482143,86.8095238 249.392857,86.8095238 C339.297619,86.8095238 412.190476,159.696429 412.190476,249.607143 L412.190476,249.607143 Z M444.25,157.27381 L430.321429,187.458333 L452.166667,178.815476 L454.970238,185.875 L417.214286,200.797619 L416.547619,199.041667 L416.720238,198.660714 L430.47619,168.863095 L408.630952,177.5 L405.827381,170.446429 L443.583333,155.52381 L444.25,157.27381 L444.25,157.27381 Z M249.392857,23.3214286 C124.410714,23.3214286 23.0952381,124.630952 23.0952381,249.607143 C23.0952381,374.589286 124.410714,475.892857 249.392857,475.892857 C374.369048,475.892857 475.684524,374.589286 475.684524,249.607143 C475.684524,124.630952 374.369048,23.3214286 249.392857,23.3214286 L249.392857,23.3214286 Z" id="Fill-9" fill="#0F182A"></path>
                <path d="M400.595238,141.02381 C403.583333,141.02381 406.535714,139.928571 409.142857,137.845238 C415.059524,133.107143 416.095238,125.595238 411.595238,119.970238 C409.172619,116.940476 405.821429,115.27381 402.160714,115.27381 C399.172619,115.27381 396.214286,116.375 393.613095,118.458333 C387.702381,123.196429 386.666667,130.708333 391.160714,136.327381 C393.589286,139.357143 396.934524,141.02381 400.595238,141.02381" id="Fill-10" fill="#0F182A"></path>
                <path d="M249.392857,402.940476 C164.714286,402.940476 96.0595238,334.291667 96.0595238,249.607143 C96.0595238,164.928571 164.714286,96.2797619 249.392857,96.2797619 C334.077381,96.2797619 402.72619,164.928571 402.72619,249.607143 C402.72619,334.291667 334.077381,402.940476 249.392857,402.940476 L249.392857,402.940476 Z M249.392857,86.8095238 C159.482143,86.8095238 86.5952381,159.696429 86.5952381,249.607143 C86.5952381,339.52381 159.482143,412.404762 249.392857,412.404762 C339.297619,412.404762 412.190476,339.52381 412.190476,249.607143 C412.190476,159.696429 339.297619,86.8095238 249.392857,86.8095238 L249.392857,86.8095238 Z" id="Fill-11" fill="#B02534"></path>
                <polyline id="Fill-12" fill="#B02534" points="62.8928571 273.517857 74.202381 265.297619 60.2321429 265.297619 55.9047619 252 51.577381 265.297619 37.6011905 265.297619 48.9166667 273.517857 44.5892857 286.821429 55.9047619 278.60119 67.2142857 286.821429 62.8928571 273.517857"></polyline>
                <polyline id="Fill-13" fill="#B02534" points="461.190476 265.297619 447.202381 265.297619 442.892857 252 438.565476 265.297619 424.583333 265.297619 435.892857 273.517857 431.577381 286.821429 442.892857 278.60119 454.202381 286.821429 449.880952 273.517857 461.190476 265.297619"></polyline>
                <path d="M253.863095,223.732143 C244.642857,245.642857 243.136905,276.880952 253.720238,297.797619 C264.75,279.202381 277.410714,249.095238 277.410714,223.714286 C277.410714,200.404762 261.755952,204.988095 253.863095,223.732143" id="Fill-14" fill="#FFFFFF"></path>
                <path d="M327.386905,302.72619 C302.208333,347.613095 269.017857,344.452381 254.72619,336.696429 C247.940476,343.642857 240.791667,349.494048 233.434524,353.904762 C224.422619,359.285714 215,362.505952 205.511905,362.511905 L205.494048,362.511905 C200.613095,362.511905 195.72619,361.636905 191.011905,359.791667 C180.672619,355.77381 172.869048,348.541667 167.946429,339.25 C163.005952,329.958333 160.785714,318.738095 160.785714,306.267857 C160.803571,287.940476 165.577381,266.797619 174.339286,244.52381 C179.232143,232.107143 185.369048,219.35119 192.654762,206.553571 C180.994048,208.654762 172.327381,212.547619 166.339286,217.10119 C162.238095,220.196429 159.375,223.577381 157.511905,226.928571 C160.202381,227.982143 162.690476,229.64881 164.767857,231.839286 C168.107143,235.35119 170.047619,239.815476 170.25,244.428571 C170.464286,249.279762 168.75,253.702381 165.392857,256.875 C162.488095,259.642857 158.577381,261.178571 154.380952,261.178571 C149.25,261.178571 144.22619,258.970238 140.47619,255.029762 C133.684524,248.369048 130.136905,239.386905 130.14881,229.827381 C130.14881,215.136905 138.464286,199.375 155.380952,187.494048 C172.327381,175.607143 197.839286,167.482143 233.005952,167.47619 C235.297619,167.47619 239.02381,167.559524 241.89881,167.64881 C228.666667,186.10119 215.625,210.452381 205.803571,234.833333 C195.428571,260.52381 188.684524,286.380952 188.714286,304.982143 C188.714286,312.488095 189.815476,318.75 191.904762,323.22619 C194.02381,327.720238 196.791667,330.434524 200.946429,331.964286 C203.922619,333.029762 206.815476,333.511905 209.678571,333.517857 C215.779762,333.517857 221.946429,331.291667 228.119048,327.095238 C231.011905,325.125 233.886905,322.72619 236.696429,319.970238 C232.261905,314.636905 228.815476,308.422619 226.27381,301.702381 C222.083333,290.613095 220.232143,278.107143 220.232143,265.315476 C220.238095,248.89881 223.291667,232.035714 228.696429,217.184524 C234.125,202.345238 241.845238,189.47619 251.77381,181.178571 C258.380952,175.666667 266.678571,172.214286 275.130952,172.220238 C278.565476,172.25 282.666667,173.327381 286.196429,175.321429 C289.75,177.333333 293.244048,180.327381 296.339286,184.333333 C302.52381,192.357143 307.02381,204.440476 307.011905,220.886905 C307.011905,232.85119 304.392857,247.095238 298.857143,264.077381 C292.940476,282.339286 283.863095,298.625 273.678571,313.327381 C289.928571,312.77381 315.72619,285.529762 322.446429,241.77381 C330.690476,188.244048 312.303571,167.672619 291.702381,163.27381 C291.702381,151.470238 310.404762,130.863095 330.970238,147.339286 C358.696429,169.595238 357.607143,248.910714 327.386905,302.72619 L327.386905,302.72619 Z M249.392857,105.75 C169.946429,105.75 105.535714,170.160714 105.535714,249.607143 C105.535714,329.059524 169.946429,393.470238 249.392857,393.470238 C328.845238,393.470238 393.261905,329.059524 393.261905,249.607143 C393.261905,170.160714 328.845238,105.75 249.392857,105.75 L249.392857,105.75 Z" id="Fill-15" fill="#FFFFFF"></path>
                <path d="M249.392857,393.470238 C169.946429,393.470238 105.535714,329.059524 105.535714,249.607143 C105.535714,170.160714 169.946429,105.75 249.392857,105.75 C328.845238,105.75 393.261905,170.160714 393.261905,249.607143 C393.261905,329.059524 328.845238,393.470238 249.392857,393.470238 L249.392857,393.470238 Z M249.392857,96.2797619 C164.714286,96.2797619 96.0595238,164.928571 96.0595238,249.607143 C96.0595238,334.291667 164.714286,402.940476 249.392857,402.940476 C334.077381,402.940476 402.72619,334.291667 402.72619,249.607143 C402.72619,164.928571 334.077381,96.2797619 249.392857,96.2797619 L249.392857,96.2797619 Z" id="Fill-16" fill="#0F182A"></path>
                <path d="M253.863095,223.732143 C261.755952,204.988095 277.410714,200.404762 277.410714,223.714286 C277.410714,249.095238 264.75,279.202381 253.720238,297.797619 C243.136905,276.880952 244.642857,245.642857 253.863095,223.732143 L253.863095,223.732143 Z M269.797619,203.244048 C244.119048,203.244048 230.214286,275.244048 253.678571,306.666667 C280.666667,266.767857 293.315476,203.244048 269.797619,203.244048 L269.797619,203.244048 Z" id="Fill-17" fill="#0F182A"></path>
                <path d="M323.136905,300.309524 C306.416667,330.059524 287.327381,336.059524 274.22619,336.255952 C267.636905,336.35119 259.958333,333.547619 254.458333,330.529762 C234.89881,351.60119 212.458333,363.089286 192.744048,355.386905 C151.041667,339.095238 159.803571,269.422619 201.636905,200.613095 C170.595238,203.220238 154.785714,217.059524 150.97619,230.380952 C154.625,230.422619 158.416667,232.02381 161.345238,235.10119 C166.619048,240.64881 166.964286,248.863095 162.130952,253.446429 C157.315476,258.041667 149.125,257.261905 143.845238,251.714286 C120.029762,228.309524 141.619048,172.232143 233.005952,172.22619 C195.779762,228.434524 163.994048,323.738095 199.345238,336.422619 C214.958333,342.02381 230.14881,334.244048 243.166667,320.083333 C205.160714,281.839286 231.875,175.446429 275.535714,176.958333 C288.910714,176.958333 315.541667,200.636905 294.404762,262.505952 C287.565476,281.988095 277.595238,300.857143 265.964286,316.595238 C269.833333,318.47619 274.505952,318.785714 279.607143,317.27381 C297.988095,311.857143 320.970238,283.821429 327.339286,242.535714 C328.75,233.27381 329.369048,225.029762 329.369048,217.684524 C329.369048,177.160714 310.083333,163.994048 297.363095,159.732143 C298.916667,155.386905 302.910714,150.303571 308.220238,147.785714 C314.529762,144.744048 321.321429,145.928571 327.892857,151.190476 C339.791667,160.738095 346.583333,183.886905 345.97619,213.107143 C345.386905,243.708333 337.041667,275.47619 323.136905,300.309524 L323.136905,300.309524 Z M330.970238,147.339286 C310.404762,130.863095 291.702381,151.470238 291.702381,163.27381 C312.303571,167.672619 330.690476,188.244048 322.446429,241.77381 C315.72619,285.529762 289.928571,312.77381 273.678571,313.327381 C283.863095,298.625 292.940476,282.339286 298.857143,264.077381 C304.392857,247.095238 307.011905,232.85119 307.011905,220.886905 C307.02381,204.440476 302.52381,192.357143 296.339286,184.333333 C293.244048,180.327381 289.75,177.333333 286.196429,175.321429 C282.666667,173.327381 278.565476,172.25 275.130952,172.220238 C266.678571,172.214286 258.380952,175.666667 251.77381,181.178571 C241.845238,189.47619 234.125,202.345238 228.696429,217.184524 C223.291667,232.035714 220.238095,248.89881 220.232143,265.315476 C220.232143,278.107143 222.083333,290.613095 226.27381,301.702381 C228.815476,308.422619 232.261905,314.636905 236.696429,319.970238 C233.886905,322.72619 231.011905,325.125 228.119048,327.095238 C221.946429,331.291667 215.779762,333.517857 209.678571,333.517857 C206.815476,333.511905 203.922619,333.029762 200.946429,331.964286 C196.791667,330.434524 194.02381,327.720238 191.904762,323.22619 C189.815476,318.75 188.714286,312.488095 188.714286,304.982143 C188.684524,286.380952 195.428571,260.52381 205.803571,234.833333 C215.625,210.452381 228.666667,186.10119 241.89881,167.64881 C239.02381,167.559524 235.297619,167.47619 233.005952,167.47619 C197.839286,167.482143 172.327381,175.607143 155.380952,187.494048 C138.464286,199.375 130.14881,215.136905 130.14881,229.827381 C130.136905,239.386905 133.684524,248.369048 140.47619,255.029762 C144.22619,258.970238 149.25,261.178571 154.380952,261.178571 C158.577381,261.178571 162.488095,259.642857 165.392857,256.875 C168.75,253.702381 170.464286,249.279762 170.25,244.428571 C170.047619,239.815476 168.107143,235.35119 164.767857,231.839286 C162.690476,229.64881 160.202381,227.982143 157.511905,226.928571 C159.375,223.577381 162.238095,220.196429 166.339286,217.10119 C172.327381,212.547619 180.994048,208.654762 192.654762,206.553571 C185.369048,219.35119 179.232143,232.107143 174.339286,244.52381 C165.577381,266.797619 160.803571,287.940476 160.785714,306.267857 C160.785714,318.738095 163.005952,329.958333 167.946429,339.25 C172.869048,348.541667 180.672619,355.77381 191.011905,359.791667 C195.72619,361.636905 200.613095,362.511905 205.494048,362.511905 L205.511905,362.511905 C215,362.505952 224.422619,359.285714 233.434524,353.904762 C240.791667,349.494048 247.940476,343.642857 254.72619,336.696429 C269.017857,344.452381 302.208333,347.613095 327.386905,302.72619 C357.607143,248.910714 358.696429,169.595238 330.970238,147.339286 L330.970238,147.339286 Z" id="Fill-18" fill="#0F182A"></path>
                <path d="M253.678571,306.666667 C230.214286,275.244048 244.119048,203.244048 269.797619,203.244048 C293.315476,203.244048 280.666667,266.767857 253.678571,306.666667 L253.678571,306.666667 Z M327.892857,151.190476 C321.321429,145.928571 314.529762,144.744048 308.220238,147.785714 C302.910714,150.303571 298.916667,155.386905 297.363095,159.732143 C310.083333,163.994048 329.369048,177.160714 329.369048,217.684524 C329.369048,225.029762 328.75,233.27381 327.339286,242.535714 C320.970238,283.821429 297.988095,311.857143 279.607143,317.27381 C274.505952,318.785714 269.833333,318.47619 265.964286,316.595238 C277.595238,300.857143 287.565476,281.988095 294.404762,262.505952 C315.541667,200.636905 288.910714,176.958333 275.535714,176.958333 C231.875,175.446429 205.160714,281.839286 243.166667,320.083333 C230.14881,334.244048 214.958333,342.02381 199.345238,336.422619 C163.994048,323.738095 195.779762,228.434524 233.005952,172.22619 C141.619048,172.232143 120.029762,228.309524 143.845238,251.714286 C149.125,257.261905 157.315476,258.041667 162.130952,253.446429 C166.964286,248.863095 166.619048,240.64881 161.345238,235.10119 C158.416667,232.02381 154.625,230.422619 150.97619,230.380952 C154.785714,217.059524 170.595238,203.220238 201.636905,200.613095 C159.803571,269.422619 151.041667,339.095238 192.744048,355.386905 C212.458333,363.089286 234.89881,351.60119 254.458333,330.529762 C259.958333,333.547619 267.636905,336.35119 274.22619,336.255952 C287.327381,336.059524 306.416667,330.059524 323.136905,300.309524 C337.041667,275.47619 345.386905,243.708333 345.97619,213.107143 C346.583333,183.886905 339.791667,160.738095 327.892857,151.190476 L327.892857,151.190476 Z" id="Fill-19" fill="#B02534"></path>
                <polyline id="Fill-20" fill="#FFFFFF" points="85 191.321429 66.2797619 171.559524 93.3869048 171.60119 94.0654762 170.029762 62.2678571 141.285714 59.1071429 148.690476 76.875 164.285714 51.5833333 164.39881 50.9345238 165.916667 68.4166667 184.190476 44.7916667 182.345238 41.4821429 190.119048 84.3690476 192.833333 85 191.321429"></polyline>
                <path d="M128.827381,96.4583333 C130.47619,96.4583333 132.309524,96.2202381 134.60119,95.7202381 L137.404762,95.125 C138.869048,94.8214286 140.25,94.5297619 141.446429,94.5297619 C143.035714,94.5297619 144.095238,95.0595238 144.994048,96.2857143 C145.571429,97.077381 145.785714,97.9404762 145.642857,98.8511905 C145.428571,100.22619 144.386905,101.654762 142.720238,102.863095 C139.880952,104.928571 136.809524,105.214286 133.779762,103.690476 L132.89881,103.255952 L129.375,110.029762 L130.297619,110.482143 C132.571429,111.589286 134.940476,112.154762 137.339286,112.154762 C140.75,112.154762 144.041667,111.02381 147.107143,108.785714 C153.875,103.857143 155.482143,97.2261905 151.303571,91.4880952 C148.845238,88.1190476 145.815476,86.5416667 141.767857,86.5416667 C140.125,86.5416667 138.261905,86.7857143 135.714286,87.327381 L132.892857,87.9285714 C131.172619,88.2916667 129.803571,88.5357143 128.708333,88.5357143 C127.22619,88.5357143 126.363095,88.1130952 125.52381,86.9583333 C124.261905,85.2261905 124.678571,83.3392857 126.636905,81.9166667 C128.60119,80.4821429 130.440476,80.327381 132.839286,81.3571429 L133.797619,81.7678571 L136.422619,74.8392857 L135.541667,74.4642857 C130.940476,72.5 126.47619,73.0595238 122.279762,76.125 C119.625,78.0535714 117.875,80.6607143 117.345238,83.4761905 C116.809524,86.297619 117.52381,89.2321429 119.345238,91.7380952 C121.690476,94.9583333 124.702381,96.4583333 128.827381,96.4583333" id="Fill-21" fill="#FFFFFF"></path>
                <polyline id="Fill-22" fill="#FFFFFF" points="179.10119 89.5952381 174.922619 78.7380952 190.071429 72.9107143 194.25 83.7678571 201.684524 80.8928571 187.315476 43.5535714 179.863095 46.422619 187.434524 66.0892857 172.285714 71.922619 164.72619 52.25 157.27381 55.1190476 171.642857 92.4583333 179.10119 89.5952381"></polyline>
                <polyline id="Fill-23" fill="#FFFFFF" points="228.095238 76.3095238 222.363095 36.7142857 214.470238 37.8571429 220.196429 77.4583333 228.095238 76.3095238"></polyline>
                <polyline id="Fill-24" fill="#FFFFFF" points="256.261905 51.5119048 277.279762 77.2619048 279.154762 77.3988095 282.267857 36.9583333 274.708333 36.375 272.904762 59.7916667 251.875 34.0535714 250.017857 33.9047619 246.880952 74.3511905 254.452381 74.9345238 256.261905 51.5119048"></polyline>
                <path d="M314.172619,88.0059524 C317.410714,89.25 320.422619,89.8571429 323.39881,89.8571429 C325.744048,89.8571429 328.041667,89.4702381 330.422619,88.6785714 L330.863095,88.5297619 L336.410714,74.1547619 L319.892857,67.7916667 L317.25,74.6130952 L326.761905,78.2678571 L325.22619,82.2142857 C322.678571,82.6607143 319.97619,82.2857143 316.845238,81.0833333 C309.511905,78.2559524 306.464286,71.4464286 309.27381,64.1428571 C311.345238,58.7738095 315.785714,55.4345238 320.857143,55.4345238 C322.345238,55.4345238 323.845238,55.7202381 325.315476,56.2857143 C330.380952,58.2380952 331.833333,61.0178571 332.875,63.702381 L333.244048,64.6488095 L340.333333,61.7261905 L339.994048,60.8214286 C337.958333,55.375 334.190476,51.75 328.130952,49.422619 C325.636905,48.4642857 323.065476,47.9761905 320.470238,47.9761905 C311.994048,47.9761905 304.767857,53.0416667 301.613095,61.1964286 C297.422619,72.1071429 302.821429,83.6309524 314.172619,88.0059524" id="Fill-25" fill="#FFFFFF"></path>
                <polyline id="Fill-26" fill="#FFFFFF" points="355.291667 110.797619 374.547619 84.375 383.666667 91.0297619 387.970238 85.1190476 363.279762 67.1190476 358.97619 73.0297619 368.10119 79.6785714 348.85119 106.10119 355.291667 110.797619"></polyline>
                <path d="M393.613095,118.458333 C396.214286,116.375 399.172619,115.27381 402.160714,115.27381 C405.821429,115.27381 409.172619,116.940476 411.595238,119.970238 C416.095238,125.595238 415.059524,133.107143 409.142857,137.845238 C406.535714,139.928571 403.583333,141.02381 400.595238,141.02381 C396.934524,141.02381 393.589286,139.357143 391.160714,136.327381 C386.666667,130.708333 387.702381,123.196429 393.613095,118.458333 L393.613095,118.458333 Z M380.797619,125.928571 C380.261905,131.27381 381.886905,136.613095 385.375,140.970238 C389.380952,145.982143 395.238095,148.869048 401.416667,148.869048 C406.047619,148.869048 410.488095,147.27381 414.261905,144.25 C418.678571,140.714286 421.410714,135.779762 421.958333,130.369048 C422.5,125.029762 420.869048,119.690476 417.386905,115.333333 C413.375,110.315476 407.52381,107.434524 401.339286,107.434524 C396.708333,107.434524 392.27381,109.029762 388.494048,112.053571 C384.077381,115.589286 381.345238,120.517857 380.797619,125.928571 L380.797619,125.928571 Z" id="Fill-27" fill="#FFFFFF"></path>
                <polyline id="Fill-28" fill="#FFFFFF" points="408.630952 177.5 430.47619 168.863095 416.720238 198.660714 416.547619 199.041667 417.214286 200.797619 454.970238 185.875 452.166667 178.815476 430.321429 187.458333 444.25 157.27381 443.583333 155.52381 405.827381 170.446429 408.630952 177.5"></polyline>
                <polyline id="Fill-29" fill="#FFFFFF" points="107.392857 351.494048 87.6547619 364.238095 95.3988095 331.922619 94.3928571 330.333333 60.3154762 352.357143 64.4345238 358.732143 84.1666667 345.982143 76.4047619 378.321429 77.452381 379.869048 111.511905 357.863095 107.392857 351.494048"></polyline>
                <polyline id="Fill-30" fill="#FFFFFF" points="150.892857 403.255952 160.863095 408.547619 145.559524 437.440476 152.60119 441.178571 167.910714 412.285714 177.892857 417.565476 181.315476 411.113095 154.315476 396.803571 150.892857 403.255952"></polyline>
                <polyline id="Fill-31" fill="#FFFFFF" points="185.761905 454.595238 193.422619 456.815476 204.565476 418.380952 196.89881 416.166667 185.761905 454.595238"></polyline>
                <path d="M239.839286,457.02381 C232.654762,456.702381 227.690476,450.970238 228.029762,443.386905 C228.369048,436.005952 233.452381,430.857143 240.386905,430.857143 C240.595238,430.857143 240.809524,430.869048 241.029762,430.869048 C244.535714,431.029762 247.64881,432.494048 249.791667,434.988095 C251.928571,437.470238 253.005952,440.85119 252.839286,444.517857 C252.5,452.119048 247.130952,457.339286 239.839286,457.02381 L239.839286,457.02381 Z M241.369048,423.464286 C229.714286,422.934524 220.363095,431.517857 219.833333,443.017857 C219.315476,454.5 227.958333,463.922619 239.511905,464.434524 C239.85119,464.452381 240.190476,464.464286 240.529762,464.464286 C251.720238,464.464286 260.529762,456.047619 261.035714,444.886905 C261.553571,433.39881 252.916667,423.988095 241.369048,423.464286 L241.369048,423.464286 Z" id="Fill-32" fill="#FFFFFF"></path>
                <polyline id="Fill-33" fill="#FFFFFF" points="301.309524 416.535714 307.136905 439.291667 279.303571 421.928571 278.946429 421.696429 277.119048 422.160714 287.202381 461.452381 294.559524 459.571429 288.720238 436.809524 316.559524 454.184524 316.922619 454.410714 318.738095 453.946429 308.660714 414.64881 301.309524 416.535714"></polyline>
                <polyline id="Fill-34" fill="#FFFFFF" points="393.25 398.815476 370.184524 375.636905 364.52381 381.267857 392.75 409.625 410.297619 392.166667 405.130952 386.988095 393.25 398.815476"></polyline>
                <path d="M429.946429,344.64881 C427.845238,343.357143 425.827381,342.720238 423.77381,342.720238 C420.464286,342.720238 417.452381,344.315476 413.952381,346.708333 L411.571429,348.333333 C409.172619,349.964286 407.625,350.85119 406.303571,350.85119 C405.684524,350.85119 405.065476,350.64881 404.375,350.22619 C402.553571,349.10119 402.22619,347.208333 403.494048,345.14881 C404.738095,343.130952 406.339286,342.267857 408.827381,342.267857 L410.071429,342.291667 L409.875,334.886905 L408.678571,334.869048 C403.791667,334.869048 399.958333,337.077381 397.27381,341.434524 C395.553571,344.22619 394.910714,347.309524 395.488095,350.107143 C396.065476,352.928571 397.827381,355.369048 400.470238,357 C402.410714,358.190476 404.327381,358.767857 406.339286,358.767857 C409.244048,358.767857 412.172619,357.613095 416.107143,354.89881 L418.464286,353.279762 C420.428571,351.952381 422.136905,350.803571 423.767857,350.803571 C424.488095,350.803571 425.196429,351.02381 425.928571,351.47619 C426.767857,351.988095 427.291667,352.708333 427.505952,353.595238 C427.821429,354.958333 427.404762,356.672619 426.327381,358.428571 C424.47619,361.440476 421.779762,362.833333 418.363095,362.583333 L417.375,362.505952 L416.684524,370.113095 L417.708333,370.178571 C418.10119,370.202381 418.47619,370.214286 418.863095,370.214286 C424.571429,370.214286 429.452381,367.380952 432.613095,362.238095 C434.97619,358.416667 435.809524,354.636905 435.02381,351.321429 C434.380952,348.60119 432.625,346.303571 429.946429,344.64881" id="Fill-35" fill="#FFFFFF"></path>
                <path d="M120.672619,402.130952 L120.238095,403.404762 L113.738095,397.702381 L114.940476,397.107143 L123.857143,392.738095 L120.672619,402.130952 L120.672619,402.130952 Z M94.1547619,398.922619 L100.285714,404.279762 L106.690476,401.14881 L117.738095,410.803571 L115.446429,417.553571 L121.785714,423.107143 L135.446429,380.785714 L134.238095,379.75 L94.1547619,398.922619 L94.1547619,398.922619 Z" id="Fill-36" fill="#FFFFFF"></path>
                <path d="M353.386905,419.869048 L354.464286,420.684524 L347,425.077381 L346.821429,423.75 L345.452381,413.916667 L353.386905,419.869048 L353.386905,419.869048 Z M336.363095,400 L342.047619,444.065476 L349.059524,439.910714 L348.077381,432.845238 L360.696429,425.375 L366.404762,429.660714 L373.654762,425.369048 L337.720238,399.178571 L336.363095,400 L336.363095,400 Z" id="Fill-37" fill="#FFFFFF"></path>
                <path d="M95.6309524,123.571429 L105.125,126.464286 L106.416667,126.85119 L100.910714,133.529762 L95.6309524,123.571429 L95.6309524,123.571429 Z M107.910714,146.767857 L104.577381,140.464286 L113.880952,129.125 L120.708333,131.196429 L126.059524,124.684524 L83.3214286,112.363095 L82.327381,113.60119 L102.75,153.065476 L107.910714,146.767857 L107.910714,146.767857 Z" id="Fill-38" fill="#FFFFFF"></path>
            </g>
        </g>
    </g>
</svg>